<?xml version="1.0" encoding="UTF-8"?>
<svg width="30px" height="30px" viewBox="0 0 30 30" version="1.1" xmlns="http://www.w3.org/2000/svg" xmlns:xlink="http://www.w3.org/1999/xlink">
    <!-- Generator: Sketch 46.1 (44463) - http://www.bohemiancoding.com/sketch -->
    <title>approval-red</title>
    <desc>Created with Sketch.</desc>
    <defs></defs>
    <g id="Page-1" stroke="none" stroke-width="1" fill="none" fill-rule="evenodd">
        <g id="approval-red" fill-rule="nonzero" fill="#EF656E">
            <g id="approval" transform="translate(2.000000, 2.000000)">
                <path d="M25.303,11.768 L24.394,11.223 C24.007,10.991 23.745,10.608 23.627,10.173 C23.625,10.165 23.623,10.157 23.62,10.149 C23.499,9.71 23.535,9.242 23.756,8.843 L24.271,7.916 C24.797,6.968 24.123,5.801 23.039,5.783 L21.969,5.765 C21.516,5.757 21.096,5.556 20.776,5.236 C20.773,5.233 20.769,5.229 20.766,5.226 C20.445,4.906 20.244,4.486 20.237,4.033 L20.219,2.963 C20.2,1.877 19.033,1.203 18.085,1.73 L17.158,2.245 C16.76,2.466 16.292,2.502 15.852,2.381 C15.844,2.379 15.836,2.377 15.828,2.374 C15.393,2.255 15.01,1.994 14.778,1.607 L14.233,0.698 C13.675,-0.232 12.328,-0.232 11.77,0.698 L11.227,1.603 C10.993,1.993 10.607,2.256 10.169,2.376 C10.164,2.377 10.16,2.379 10.155,2.38 C9.712,2.502 9.241,2.466 8.839,2.243 L7.915,1.73 C6.967,1.203 5.8,1.877 5.782,2.961 L5.764,4.031 C5.756,4.484 5.555,4.904 5.235,5.224 C5.232,5.227 5.228,5.231 5.225,5.234 C4.905,5.555 4.485,5.756 4.032,5.763 L2.962,5.781 C1.877,5.8 1.203,6.967 1.73,7.915 L2.245,8.842 C2.466,9.241 2.502,9.708 2.381,10.148 C2.379,10.156 2.377,10.164 2.374,10.172 C2.255,10.607 1.994,10.99 1.607,11.222 L0.698,11.767 C-0.232,12.325 -0.232,13.673 0.698,14.23 L1.607,14.776 C1.994,15.008 2.256,15.391 2.374,15.826 C2.376,15.834 2.378,15.842 2.381,15.85 C2.502,16.29 2.466,16.757 2.245,17.156 L1.73,18.085 C1.204,19.033 1.878,20.2 2.962,20.218 L4.032,20.236 C4.485,20.244 4.905,20.445 5.225,20.765 C5.228,20.768 5.232,20.772 5.235,20.775 C5.556,21.095 5.757,21.515 5.764,21.968 L5.782,23.037 C5.8,24.121 6.967,24.795 7.915,24.269 L8.842,23.754 C9.24,23.533 9.708,23.497 10.148,23.618 C10.156,23.62 10.164,23.622 10.172,23.625 C10.607,23.744 10.99,24.005 11.222,24.392 L11.767,25.301 C12.325,26.231 13.672,26.231 14.23,25.301 L14.775,24.392 C15.007,24.005 15.39,23.743 15.825,23.625 C15.833,23.623 15.841,23.621 15.849,23.618 C16.288,23.497 16.756,23.533 17.155,23.754 L18.082,24.269 C19.03,24.795 20.197,24.121 20.215,23.037 L20.233,21.968 C20.241,21.515 20.442,21.095 20.762,20.775 C20.765,20.772 20.769,20.768 20.772,20.765 C21.092,20.444 21.512,20.243 21.965,20.236 L23.035,20.218 C24.119,20.2 24.793,19.033 24.267,18.085 L23.752,17.158 C23.531,16.759 23.495,16.292 23.616,15.852 C23.618,15.844 23.62,15.836 23.623,15.828 C23.742,15.393 24.003,15.01 24.39,14.778 L25.299,14.232 C26.232,13.674 26.232,12.326 25.303,11.768 Z M18.707,10.707 L12.147,17.267 C11.959,17.455 11.705,17.56 11.44,17.56 C11.175,17.56 10.92,17.455 10.733,17.267 L7.28,13.814 C6.889,13.423 6.889,12.791 7.28,12.4 C7.671,12.009 8.303,12.009 8.694,12.4 L11.44,15.146 L17.293,9.293 C17.684,8.902 18.316,8.902 18.707,9.293 C19.098,9.684 19.098,10.316 18.707,10.707 Z" id="Shape"></path>
            </g>
        </g>
    </g>
</svg>