<?xml version="1.0" encoding="UTF-8"?>
<svg width="30px" height="30px" viewBox="0 0 30 30" version="1.1" xmlns="http://www.w3.org/2000/svg" xmlns:xlink="http://www.w3.org/1999/xlink">
    <!-- Generator: Sketch 46.1 (44463) - http://www.bohemiancoding.com/sketch -->
    <title>china-flag</title>
    <desc>Created with Sketch.</desc>
    <defs>
        <rect id="path-1" x="0" y="0" width="24" height="18" rx="2"></rect>
    </defs>
    <g id="Page-1" stroke="none" stroke-width="1" fill="none" fill-rule="evenodd">
        <g id="china-flag">
            <g id="Flag_of_the_United_Kingdom_(3-5)" transform="translate(3.000000, 6.000000)">
                <mask id="mask-2" fill="white">
                    <use xlink:href="#path-1"></use>
                </mask>
                <use id="Mask" fill="#9B9B9B" xlink:href="#path-1"></use>
                <g id="Flag_of_the_People's_Republic_of_China" mask="url(#mask-2)">
                    <g transform="translate(-1.000000, 0.000000)">
                        <rect id="Rectangle-path" fill="#FF674C" fill-rule="nonzero" x="0" y="0" width="27" height="18"></rect>
                        <g id="s-link" stroke-width="1" fill="none" fill-rule="evenodd" transform="translate(1.800000, 1.800000)">
                            <polygon id="s" fill="#FFC84C" fill-rule="nonzero" points="2.7 0 4.2870195 4.8843459 0.1321461 1.8656541 5.2678539 1.8656541 1.1129805 4.8843459"></polygon>
                        </g>
                        <g id="s-link" stroke-width="1" fill="none" fill-rule="evenodd" transform="translate(9.052977, 1.931124) rotate(23.036243) translate(-9.052977, -1.931124) translate(8.052977, 0.931124)">
                            <polygon id="s" fill="#FFC84C" fill-rule="nonzero" points="0.899936764 6.32759705e-05 1.42894326 1.62817858 0.043985464 0.621947976 1.75588806 0.621947976 0.370930264 1.62817858"></polygon>
                        </g>
                        <g id="s-link" stroke-width="1" fill="none" fill-rule="evenodd" transform="translate(10.800000, 3.741421) rotate(45.869898) translate(-10.800000, -3.741421) translate(9.800000, 2.741421)">
                            <polygon id="s" fill="#FFC84C" fill-rule="nonzero" points="0.898493325 0.00152972542 1.42749983 1.62964503 0.0425420252 0.623414425 1.75444463 0.623414425 0.369486825 1.62964503"></polygon>
                        </g>
                        <g id="s-link" stroke-width="1" fill="none" fill-rule="evenodd" transform="translate(10.742479, 6.429195) rotate(69.945396) translate(-10.742479, -6.429195) translate(9.742479, 5.429195)">
                            <polygon id="s" fill="#FFC84C" fill-rule="nonzero" points="0.89836366 0.00166356506 1.42737016 1.62977887 0.0424123602 0.623548265 1.75431496 0.623548265 0.36935716 1.62977887"></polygon>
                        </g>
                        <g id="s-link" stroke-width="1" fill="none" fill-rule="evenodd" transform="translate(9.059767, 8.228171) rotate(20.659808) translate(-9.059767, -8.228171) translate(8.059767, 7.228171)">
                            <polygon id="s" fill="#FFC84C" fill-rule="nonzero" points="0.898855074 0.00115818739 1.42786157 1.62927349 0.0429037739 0.623042887 1.75480637 0.623042887 0.369848574 1.62927349"></polygon>
                        </g>
                    </g>
                </g>
            </g>
        </g>
    </g>
</svg>