<?xml version="1.0" encoding="UTF-8"?>
<svg width="600px" height="600px" viewBox="0 0 600 600" version="1.1" xmlns="http://www.w3.org/2000/svg" xmlns:xlink="http://www.w3.org/1999/xlink" style="background: #F6F6F9;">
    <!-- Generator: Sketch 46.1 (44463) - http://www.bohemiancoding.com/sketch -->
    <title>emblem</title>
    <desc>Created with Sketch.</desc>
    <defs></defs>
    <g id="Page-2" stroke="none" stroke-width="1" fill="none" fill-rule="evenodd">
        <g id="emblem">
            <g transform="translate(106.000000, 106.000000)" id="sign">
                <g>
                    <path d="M194,387.5 C87.1329009,387.5 0.5,300.867099 0.5,194 C0.5,87.1329009 87.1329009,0.5 194,0.5 C224.788722,0.5 254.573866,7.707285 281.449613,21.3449352 C345.96646,54.082934 387.5,120.340009 387.5,194 C387.5,266.748718 346.990985,332.321216 283.712102,365.488166 C256.260816,379.876465 225.664024,387.5 194,387.5 Z M194,360.5 C221.271592,360.5 247.570868,353.94724 271.177725,341.573958 C325.648069,313.023908 360.5,256.608611 360.5,194 C360.5,130.60799 324.765624,73.6021289 269.231877,45.4224543 C246.120879,33.6951634 220.518474,27.5 194,27.5 C102.044589,27.5 27.5,102.044589 27.5,194 C27.5,285.955411 102.044589,360.5 194,360.5 Z" id="Oval-8" fill="#303498" fill-rule="nonzero"></path>
                    <path d="M119,174.368915 L119,30.5 L92,30.5 L92,357.5 L119,357.5 L119,243.5 C119,202.078644 152.578644,168.5 194,168.5 C235.421356,168.5 269,202.078644 269,243.5 L269,357.5 L296,357.5 L296,30.5 L269,30.5 L269,174.368915 C250.362241,154.159082 223.659464,141.5 194,141.5 C164.340536,141.5 137.637759,154.159082 119,174.368915 Z" id="Combined-Shape" fill="#303498" fill-rule="nonzero"></path>
                    <polygon id="star" fill="#FF674C" points="220.664 293 212.816 259.704737 239 237.313684 204.4832 234.391053 191 203 177.5168 234.391053 143 237.313684 169.184 259.704737 161.336 293 191 275.341053"></polygon>
                </g>
            </g>
        </g>
    </g>
</svg>