<?xml version="1.0" encoding="UTF-8"?>
<svg width="30px" height="30px" viewBox="0 0 30 30" version="1.1" xmlns="http://www.w3.org/2000/svg" xmlns:xlink="http://www.w3.org/1999/xlink">
    <!-- Generator: Sketch 46.1 (44463) - http://www.bohemiancoding.com/sketch -->
    <title>eth-blue</title>
    <desc>Created with Sketch.</desc>
    <defs></defs>
    <g id="Page-1" stroke="none" stroke-width="1" fill="none" fill-rule="evenodd">
        <g id="eth-blue" fill-rule="nonzero" fill="#303498">
            <g id="ethereum-1" transform="translate(7.000000, 2.000000)">
                <path d="M7.57919772,0.640288506 L0.286411194,11.7999035 L0.286411194,11.7999035 C0.13534883,12.0310631 0.200280492,12.3409152 0.431440119,12.4919776 C0.437862098,12.4961744 0.444379814,12.5002227 0.45098809,12.5041196 L7.74372575,16.8045569 L7.74372575,16.8045569 C7.90039352,16.896942 8.09487137,16.8969672 8.25156313,16.8046229 L15.5487027,12.5041439 L15.5487027,12.5041439 C15.7866046,12.3639394 15.8658039,12.0574236 15.7255994,11.8195217 C15.7216593,11.8128361 15.7175641,11.8062431 15.7133171,11.7997481 L8.41622638,0.640174699 L8.41622638,0.640174699 C8.26510117,0.409056159 7.95523137,0.344208758 7.72411283,0.495333975 C7.66631611,0.533126455 7.61697448,0.582481506 7.57919772,0.640288506 Z" id="Shape"></path>
                <path d="M8.40055386,25.446105 L15.422598,15.896325 L15.422598,15.896325 C15.5861843,15.6738522 15.5384474,15.3608895 15.3159747,15.1973032 C15.149895,15.0751832 14.9258911,15.0675081 14.7518424,15.1779742 L8.26562878,19.2946743 L8.26562878,19.2946743 C8.10204966,19.3984955 7.89321617,19.3984705 7.72966185,19.2946103 L1.24773591,15.1784597 L1.24773591,15.1784597 C1.01462343,15.0304287 0.705645573,15.0994008 0.557614556,15.3325133 C0.447108201,15.5065337 0.454728217,15.7305365 0.576804906,15.896645 L7.59483417,25.4460035 L7.59483417,25.4460035 C7.75836446,25.6685174 8.07131515,25.7163331 8.29382909,25.5528029 C8.33459739,25.5228414 8.37058209,25.4868657 8.40055386,25.446105 Z" id="Shape"></path>
            </g>
        </g>
    </g>
</svg>