<?xml version="1.0" encoding="UTF-8"?>
<svg width="30px" height="30px" viewBox="0 0 30 30" version="1.1" xmlns="http://www.w3.org/2000/svg" xmlns:xlink="http://www.w3.org/1999/xlink">
    <!-- Generator: Sketch 46.1 (44463) - http://www.bohemiancoding.com/sketch -->
    <title>facebook-white</title>
    <desc>Created with Sketch.</desc>
    <defs></defs>
    <g id="Page-1" stroke="none" stroke-width="1" fill="none" fill-rule="evenodd">
        <g id="facebook-white" fill="#FFFFFF">
            <g id="facebook-with-circle" transform="translate(3.000000, 3.000000)">
                <g id="Facebook_w_x2F__circle">
                    <path d="M13.7087992,23.8792641 C19.526895,23.0498229 24,18.0473635 24,12 C24,5.3725 18.6275,0 12,0 C5.3725,0 0,5.3725 0,12 C0,17.9212763 4.28852166,22.8407668 9.92906243,23.8219687 L9.92906243,14.7827484 L6.5,14.7827484 L6.5,11.484634 L9.92906243,11.484634 L9.92906243,9.54482777 C9.92906243,6.76162758 11.8599908,4.5 14.5100235,4.5 L17.7127012,4.5 L17.7127012,8.00896292 L14.5100235,8.00896292 C14.1304962,8.00896292 13.7087992,8.50834094 13.7087992,9.17195885 L13.7087992,11.484634 L17.7149207,11.484634 L17.1090087,14.7827484 L13.7087992,14.7827484 L13.7087992,23.8792641 Z" id="Shape"></path>
                </g>
            </g>
        </g>
    </g>
</svg>