<?xml version="1.0" encoding="UTF-8"?>
<svg width="30px" height="30px" viewBox="0 0 30 30" version="1.1" xmlns="http://www.w3.org/2000/svg" xmlns:xlink="http://www.w3.org/1999/xlink">
    <!-- Generator: Sketch 46.1 (44463) - http://www.bohemiancoding.com/sketch -->
    <title>gb-flag</title>
    <desc>Created with Sketch.</desc>
    <defs>
        <rect id="path-1" x="0" y="0" width="24" height="18" rx="2"></rect>
        <path d="M12,9 L24,9 L24,18 L12,9 Z M12,9 L12,18 L0,18 L12,9 Z M12,9 L0,9 L0,0 L12,9 Z M12,9 L12,0 L24,0 L12,9 Z" id="path-3"></path>
    </defs>
    <g id="Page-1" stroke="none" stroke-width="1" fill="none" fill-rule="evenodd">
        <g id="gb-flag">
            <g id="Flag_of_the_United_Kingdom_(3-5)" transform="translate(3.000000, 6.000000)">
                <mask id="mask-2" fill="white">
                    <use xlink:href="#path-1"></use>
                </mask>
                <use id="Mask" fill="#9B9B9B" xlink:href="#path-1"></use>
                <g mask="url(#mask-2)">
                    <polygon id="Shape" fill="#6366B1" fill-rule="nonzero" points="0 0 0 18 24 18 24 0"></polygon>
                    <path d="M0,0 L24,18 M24,0 L0,18" id="Shape" stroke="#FFFFFF" stroke-width="3.6" fill="#FF674C" fill-rule="nonzero"></path>
                    <g id="Clipped">
                        <mask id="mask-4" fill="white">
                            <use xlink:href="#path-3"></use>
                        </mask>
                        <g id="Shape"></g>
                        <path d="M0,0 L24,18 M24,0 L0,18" id="Shape" stroke="#FF674C" stroke-width="2.4" fill="#000000" fill-rule="nonzero" mask="url(#mask-4)"></path>
                    </g>
                    <path d="M12,0 L12,18 M0,9 L24,9" id="Shape" stroke="#FFFFFF" stroke-width="6" fill="#000000" fill-rule="nonzero"></path>
                    <path d="M12,0 L12,18 M0,9 L24,9" id="Shape" stroke="#FF674C" stroke-width="3.6" fill="#FF674C" fill-rule="nonzero"></path>
                </g>
            </g>
        </g>
    </g>
</svg>