<?xml version="1.0" encoding="UTF-8"?>
<svg width="30px" height="30px" viewBox="0 0 30 30" version="1.1" xmlns="http://www.w3.org/2000/svg" xmlns:xlink="http://www.w3.org/1999/xlink">
    <!-- Generator: Sketch 46.1 (44463) - http://www.bohemiancoding.com/sketch -->
    <title>link-white</title>
    <desc>Created with Sketch.</desc>
    <defs></defs>
    <g id="Page-1" stroke="none" stroke-width="1" fill="none" fill-rule="evenodd">
        <g id="link-white">
            <g id="link" transform="translate(2.000000, 2.000000)">
                <g id="Group" fill-rule="nonzero" fill="#FFFFFF">
                    <path d="M11.98,18.194 C11.934,19.153 11.559,20.098 10.829,20.829 L8.829,22.829 C7.269,24.389 4.731,24.389 3.172,22.829 C1.613,21.269 1.612,18.731 3.172,17.172 L5.172,15.172 C5.952,14.392 6.976,14.003 8.001,14.003 C9.026,14.003 10.05,14.393 10.83,15.172 L12.244,13.758 C11.109,12.624 9.603,12 8,12 C6.397,12 4.891,12.624 3.757,13.757 L1.757,15.757 C0.624,16.891 0,18.397 0,20 C0,21.603 0.624,23.109 1.757,24.243 C2.89,25.377 4.397,26 6,26 C7.603,26 9.109,25.376 10.243,24.243 L12.243,22.243 C13.376,21.109 14,19.603 14,18 C14,17.449 13.921,16.912 13.779,16.395 L11.98,18.194 Z" id="Shape"></path>
                    <path d="M24.243,1.757 C23.109,0.624 21.603,0 20,0 C18.397,0 16.891,0.624 15.757,1.757 L13.757,3.757 C12.624,4.891 12,6.397 12,8 C12,9.603 12.624,11.109 13.757,12.243 L15.171,10.829 C13.611,9.269 13.611,6.731 15.171,5.172 L17.171,3.172 C17.951,2.392 18.975,2.003 20,2.003 C21.025,2.003 22.049,2.393 22.829,3.172 C24.389,4.732 24.389,7.27 22.829,8.829 L20.829,10.829 C20.099,11.559 19.153,11.934 18.194,11.98 L16.395,13.779 C16.912,13.921 17.449,14 18,14 C19.603,14 21.109,13.376 22.243,12.243 L24.243,10.243 C25.376,9.109 26,7.603 26,6 C26,4.397 25.376,2.891 24.243,1.757 Z" id="Shape"></path>
                </g>
                <path d="M8,18 L18,8" id="Shape" stroke="#FFFFFF" stroke-width="2" stroke-linecap="round"></path>
            </g>
        </g>
    </g>
</svg>