<?xml version="1.0" encoding="UTF-8"?>
<svg width="30px" height="30px" viewBox="0 0 30 30" version="1.1" xmlns="http://www.w3.org/2000/svg" xmlns:xlink="http://www.w3.org/1999/xlink">
    <!-- Generator: Sketch 46.1 (44463) - http://www.bohemiancoding.com/sketch -->
    <title>medium-white</title>
    <desc>Created with Sketch.</desc>
    <defs></defs>
    <g id="Page-1" stroke="none" stroke-width="1" fill="none" fill-rule="evenodd">
        <g id="medium-white" fill-rule="nonzero" fill="#FFFFFF">
            <path d="M7.37161531,10.2639624 C7.39646379,10.0165626 7.30283969,9.77203554 7.11951447,9.60552615 L5.25210084,7.33862434 L5.25210084,7 L11.0504202,7 L15.5322129,16.9047618 L19.4724557,7 L25,7 L25,7.33862434 L23.4033614,8.88124632 C23.2657136,8.98697657 23.1974333,9.16075172 23.2259571,9.33274545 L23.2259571,20.6672546 C23.1974333,20.8392483 23.2657136,21.0130234 23.4033614,21.1187537 L24.9626518,22.6613757 L24.9626518,23 L17.1195145,23 L17.1195145,22.6613757 L18.7348273,21.0811288 C18.8935574,20.9212228 18.8935574,20.8741917 18.8935574,20.6296297 L18.8935574,11.46796 L14.4024276,22.9623751 L13.7955182,22.9623751 L8.56676003,11.46796 L8.56676003,19.1716637 C8.52316455,19.4955491 8.62991144,19.8216308 8.85620915,20.0558495 L10.9570495,22.6237508 L10.9570495,22.9623751 L5,22.9623751 L5,22.6237508 L7.10084034,20.0558495 C7.3254904,19.8212425 7.42601279,19.4929977 7.37161531,19.1716637 L7.37161531,10.2639624 Z" id="Shape"></path>
        </g>
    </g>
</svg>