<?xml version="1.0" encoding="UTF-8"?>
<svg width="960px" height="750px" viewBox="0 0 960 750" version="1.1" xmlns="http://www.w3.org/2000/svg" xmlns:xlink="http://www.w3.org/1999/xlink">
    <!-- Generator: Sketch 46.1 (44463) - http://www.bohemiancoding.com/sketch -->
    <title>scheme-3-en</title>
    <desc>Created with Sketch.</desc>
    <defs></defs>
    <g id="Main" stroke="none" stroke-width="1" fill="none" fill-rule="evenodd">
        <g id="scheme-3-en">
            <g id="Group" transform="translate(1.000000, 13.000000)">
                <g id="Group-5" opacity="0.5" transform="translate(619.000000, 308.000000)"></g>
                <path d="M0.6,61.576 C0.6,68.2 5.176,73.384 12.184,73.384 C16.184,73.384 19,71.72 20.92,69.8 L19.224,67.528 C17.4,69.352 14.808,70.472 12.28,70.472 C7.032,70.472 3.864,66.344 3.864,61.544 C3.864,56.776 6.968,52.904 12.216,52.904 C14.552,52.904 17.08,53.896 18.744,55.368 L20.344,53 C18.168,50.92 15,50.024 12.088,50.024 C5.368,50.024 0.6,55.016 0.6,61.576 Z M24.344,73 L27.448,73 L27.448,65.32 C27.448,61.832 29.72,59.272 32.856,59.272 C35.448,59.272 35.896,61.064 35.896,63.336 L35.896,73 L39,73 L39,62.632 C39,58.504 37.272,56.424 33.464,56.424 C30.232,56.424 28.12,58.6 27.384,60.136 L27.32,60.136 C27.32,60.136 27.448,59.56 27.448,58.792 L27.448,50.408 L24.344,50.408 L24.344,73 Z M42.584,64.904 C42.584,59.752 46.104,56.424 50.712,56.424 C55.288,56.424 57.72,59.848 57.72,64.008 C57.72,64.424 57.656,64.872 57.592,65.32 L45.816,65.32 C45.976,68.808 48.472,70.696 51.384,70.696 C53.112,70.696 54.872,69.96 56.152,68.808 L57.464,71.08 C55.896,72.52 53.432,73.384 51.192,73.384 C46.104,73.384 42.584,69.704 42.584,64.904 Z M45.912,63.08 L54.584,63.08 C54.488,60.296 52.76,58.824 50.648,58.824 C48.248,58.824 46.36,60.392 45.912,63.08 Z M60.408,64.904 C60.408,69.768 63.96,73.384 69.08,73.384 C71.608,73.384 74.072,72.36 75.544,70.792 L74.296,68.52 C73.048,69.832 71.096,70.696 69.304,70.696 C65.944,70.696 63.576,68.168 63.576,64.872 C63.576,61.576 65.944,59.112 69.208,59.112 C70.904,59.112 72.6,59.88 73.688,60.968 L75.16,58.792 C73.624,57.16 71.224,56.424 69.08,56.424 C63.992,56.424 60.408,60.104 60.408,64.904 Z M78.904,73 L82.008,73 L82.008,65.416 L84.376,65.416 L89.208,73 L92.824,73 L86.84,64.008 L86.84,63.944 L92.216,56.808 L88.696,56.808 L84.312,62.76 L82.008,62.76 L82.008,50.408 L78.904,50.408 L78.904,73 Z M94.232,71.016 C95.832,72.648 98.232,73.384 100.408,73.384 C103.864,73.384 106.232,71.368 106.232,68.616 C106.232,63.272 97.88,64.2 97.88,61.032 C97.88,59.656 99.064,59.016 100.632,59.016 C102.072,59.016 103.768,59.56 104.728,60.456 L105.976,58.216 C104.568,56.936 102.584,56.424 100.728,56.424 C97.56,56.424 94.904,58.024 94.904,61.096 C94.904,66.408 103.224,65.576 103.224,68.68 C103.224,70.024 102.104,70.792 100.472,70.792 C98.776,70.792 96.92,70.088 95.704,68.904 L94.232,71.016 Z M116.856,64.872 C116.856,59.976 120.76,56.424 125.56,56.424 C130.392,56.424 134.296,59.976 134.296,64.872 C134.296,69.8 130.392,73.384 125.592,73.384 C120.76,73.384 116.856,69.8 116.856,64.872 Z M120.024,64.872 C120.024,68.264 122.52,70.696 125.592,70.696 C128.632,70.696 131.16,68.264 131.16,64.872 C131.16,61.512 128.632,59.112 125.592,59.112 C122.52,59.112 120.024,61.512 120.024,64.872 Z M137.848,67.176 C137.848,71.464 139.736,73.384 143.384,73.384 C146.552,73.384 148.696,71.176 149.4,69.576 L149.464,69.576 C149.464,69.576 149.336,70.12 149.336,70.76 L149.336,73 L152.344,73 L152.344,56.808 L149.272,56.808 L149.272,64.392 C149.272,67.592 147.32,70.504 143.992,70.504 C141.432,70.504 140.952,68.712 140.952,66.472 L140.952,56.808 L137.848,56.808 L137.848,67.176 Z M157.816,67.08 C157.816,72.488 161.944,73.16 164.024,73.16 C164.504,73.16 164.856,73.096 165.112,73.064 L165.112,70.312 C164.792,70.376 164.6,70.376 164.376,70.376 C163.192,70.376 160.92,69.96 160.92,66.728 L160.92,59.496 L164.824,59.496 L164.824,56.968 L160.92,56.968 L160.92,52.36 L157.88,52.36 L157.88,56.968 L155.704,56.968 L155.704,59.496 L157.816,59.496 L157.816,67.08 Z M176.344,67.08 C176.344,72.488 180.472,73.16 182.552,73.16 C183.032,73.16 183.384,73.096 183.64,73.064 L183.64,70.312 C183.32,70.376 183.128,70.376 182.904,70.376 C181.72,70.376 179.448,69.96 179.448,66.728 L179.448,59.496 L183.352,59.496 L183.352,56.968 L179.448,56.968 L179.448,52.36 L176.408,52.36 L176.408,56.968 L174.232,56.968 L174.232,59.496 L176.344,59.496 L176.344,67.08 Z M186.84,73 L189.944,73 L189.944,65.32 C189.944,61.832 192.216,59.272 195.352,59.272 C197.944,59.272 198.392,61.064 198.392,63.336 L198.392,73 L201.496,73 L201.496,62.632 C201.496,58.504 199.768,56.424 195.96,56.424 C192.728,56.424 190.616,58.6 189.88,60.136 L189.816,60.136 C189.816,60.136 189.944,59.56 189.944,58.792 L189.944,50.408 L186.84,50.408 L186.84,73 Z M205.08,64.904 C205.08,59.752 208.6,56.424 213.208,56.424 C217.784,56.424 220.216,59.848 220.216,64.008 C220.216,64.424 220.152,64.872 220.088,65.32 L208.312,65.32 C208.472,68.808 210.968,70.696 213.88,70.696 C215.608,70.696 217.368,69.96 218.648,68.808 L219.96,71.08 C218.392,72.52 215.928,73.384 213.688,73.384 C208.6,73.384 205.08,69.704 205.08,64.904 Z M208.408,63.08 L217.08,63.08 C216.984,60.296 215.256,58.824 213.144,58.824 C210.744,58.824 208.856,60.392 208.408,63.08 Z M230.904,64.872 C230.904,59.976 234.808,56.424 239.608,56.424 C244.44,56.424 248.344,59.976 248.344,64.872 C248.344,69.8 244.44,73.384 239.64,73.384 C234.808,73.384 230.904,69.8 230.904,64.872 Z M234.072,64.872 C234.072,68.264 236.568,70.696 239.64,70.696 C242.68,70.696 245.208,68.264 245.208,64.872 C245.208,61.512 242.68,59.112 239.64,59.112 C236.568,59.112 234.072,61.512 234.072,64.872 Z M252.088,79.4 L252.088,56.808 L254.968,56.808 L254.968,58.248 C254.968,58.92 254.872,59.464 254.872,59.464 L254.936,59.464 C255.96,57.512 258.008,56.424 260.376,56.424 C264.76,56.424 267.48,59.88 267.48,64.904 C267.48,70.056 264.408,73.384 260.152,73.384 C258.104,73.384 256.248,72.36 255.128,70.632 L255.064,70.632 C255.064,70.632 255.192,71.208 255.192,72.04 L255.192,79.4 L252.088,79.4 Z M255.096,64.968 C255.096,67.848 256.696,70.696 259.672,70.696 C262.232,70.696 264.344,68.616 264.344,64.936 C264.344,61.416 262.456,59.144 259.768,59.144 C257.336,59.144 255.096,60.872 255.096,64.968 Z M271.32,79.4 L271.32,56.808 L274.2,56.808 L274.2,58.248 C274.2,58.92 274.104,59.464 274.104,59.464 L274.168,59.464 C275.192,57.512 277.24,56.424 279.608,56.424 C283.992,56.424 286.712,59.88 286.712,64.904 C286.712,70.056 283.64,73.384 279.384,73.384 C277.336,73.384 275.48,72.36 274.36,70.632 L274.296,70.632 C274.296,70.632 274.424,71.208 274.424,72.04 L274.424,79.4 L271.32,79.4 Z M274.328,64.968 C274.328,67.848 275.928,70.696 278.904,70.696 C281.464,70.696 283.576,68.616 283.576,64.936 C283.576,61.416 281.688,59.144 279,59.144 C276.568,59.144 274.328,60.872 274.328,64.968 Z M289.496,64.872 C289.496,59.976 293.4,56.424 298.2,56.424 C303.032,56.424 306.936,59.976 306.936,64.872 C306.936,69.8 303.032,73.384 298.232,73.384 C293.4,73.384 289.496,69.8 289.496,64.872 Z M292.664,64.872 C292.664,68.264 295.16,70.696 298.232,70.696 C301.272,70.696 303.8,68.264 303.8,64.872 C303.8,61.512 301.272,59.112 298.232,59.112 C295.16,59.112 292.664,61.512 292.664,64.872 Z M310.68,73 L313.784,73 L313.784,66.28 C313.784,63.144 315.256,59.688 318.744,59.688 C319.064,59.688 319.512,59.72 319.64,59.752 L319.64,56.68 C319.384,56.648 319.096,56.616 318.808,56.616 C316.312,56.616 314.424,58.568 313.656,60.904 L313.592,60.904 C313.592,60.904 313.688,60.392 313.688,59.72 L313.688,56.808 L310.68,56.808 L310.68,73 Z M323.384,67.08 C323.384,72.488 327.512,73.16 329.592,73.16 C330.072,73.16 330.424,73.096 330.68,73.064 L330.68,70.312 C330.36,70.376 330.168,70.376 329.944,70.376 C328.76,70.376 326.488,69.96 326.488,66.728 L326.488,59.496 L330.392,59.496 L330.392,56.968 L326.488,56.968 L326.488,52.36 L323.448,52.36 L323.448,56.968 L321.272,56.968 L321.272,59.496 L323.384,59.496 L323.384,67.08 Z M333.688,67.176 C333.688,71.464 335.576,73.384 339.224,73.384 C342.392,73.384 344.536,71.176 345.24,69.576 L345.304,69.576 C345.304,69.576 345.176,70.12 345.176,70.76 L345.176,73 L348.184,73 L348.184,56.808 L345.112,56.808 L345.112,64.392 C345.112,67.592 343.16,70.504 339.832,70.504 C337.272,70.504 336.792,68.712 336.792,66.472 L336.792,56.808 L333.688,56.808 L333.688,67.176 Z M352.984,73 L356.088,73 L356.088,65.224 C356.088,61.896 358.328,59.272 361.496,59.272 C364.088,59.272 364.536,61.064 364.536,63.336 L364.536,73 L367.64,73 L367.64,62.632 C367.64,58.504 365.912,56.424 362.104,56.424 C358.552,56.424 356.568,58.824 355.96,60.232 L355.896,60.232 C355.896,60.232 355.992,59.688 355.992,59.016 L355.992,56.808 L352.984,56.808 L352.984,73 Z M372.216,53.544 L375.416,53.544 L375.416,50.408 L372.216,50.408 L372.216,53.544 Z M372.28,73 L375.384,73 L375.384,56.808 L372.28,56.808 L372.28,73 Z M380.824,67.08 C380.824,72.488 384.952,73.16 387.032,73.16 C387.512,73.16 387.864,73.096 388.12,73.064 L388.12,70.312 C387.8,70.376 387.608,70.376 387.384,70.376 C386.2,70.376 383.928,69.96 383.928,66.728 L383.928,59.496 L387.832,59.496 L387.832,56.968 L383.928,56.968 L383.928,52.36 L380.888,52.36 L380.888,56.968 L378.712,56.968 L378.712,59.496 L380.824,59.496 L380.824,67.08 Z M390.52,76.36 L389.432,78.728 C389.432,78.728 390.744,79.72 392.536,79.72 C394.808,79.72 396.824,78.44 397.784,75.912 L405.4,56.808 L402.04,56.808 L398.104,67.432 C397.816,68.264 397.56,69.352 397.56,69.352 L397.496,69.352 C397.496,69.352 397.208,68.2 396.888,67.4 L392.824,56.808 L389.336,56.808 L396.12,72.808 L395.32,74.664 C394.712,76.136 393.656,77.064 392.376,77.064 C391.416,77.064 390.52,76.36 390.52,76.36 Z M0.056,118.584 C0.056,113.496 6.36,112.92 9.72,112.92 L10.552,112.92 L10.552,112.6 C10.552,109.944 9.016,109.048 7,109.048 C5.4,109.048 3.768,109.688 2.456,110.616 L1.208,108.344 C2.52,107.256 4.984,106.424 7.256,106.424 C11.32,106.424 13.656,108.664 13.656,112.76 L13.656,123 L10.744,123 L10.744,121.368 C10.744,120.632 10.84,120.088 10.84,120.088 L10.776,120.088 C9.848,121.944 7.864,123.384 5.464,123.384 C2.648,123.384 0.056,121.624 0.056,118.584 Z M3.16,118.328 C3.16,119.608 4.184,120.92 6.2,120.92 C8.92,120.92 10.552,118.168 10.552,115.768 L10.552,115.16 L9.752,115.16 C7.448,115.16 3.16,115.352 3.16,118.328 Z M18.264,123 L21.368,123 L21.368,115.224 C21.368,111.896 23.608,109.272 26.776,109.272 C29.368,109.272 29.816,111.064 29.816,113.336 L29.816,123 L32.92,123 L32.92,112.632 C32.92,108.504 31.192,106.424 27.384,106.424 C23.832,106.424 21.848,108.824 21.24,110.232 L21.176,110.232 C21.176,110.232 21.272,109.688 21.272,109.016 L21.272,106.808 L18.264,106.808 L18.264,123 Z M36.568,114.904 C36.568,109.752 39.608,106.424 43.896,106.424 C45.944,106.424 47.896,107.352 48.92,109.08 L48.984,109.08 C48.984,109.08 48.92,108.6 48.92,107.992 L48.92,100.408 L51.992,100.408 L51.992,123 L49.048,123 L49.048,121.368 C49.048,120.728 49.144,120.28 49.144,120.28 L49.08,120.28 C48.152,122.04 46.264,123.384 43.704,123.384 C39.352,123.384 36.568,119.928 36.568,114.904 Z M39.736,114.904 C39.736,118.424 41.624,120.696 44.312,120.696 C46.712,120.696 48.984,118.968 48.984,114.872 C48.984,111.96 47.48,109.144 44.376,109.144 C41.848,109.144 39.736,111.224 39.736,114.904 Z M64.792,123 L64.792,100.408 L67.896,100.408 L67.896,107.896 C67.896,108.696 67.768,109.272 67.768,109.272 L67.832,109.272 C68.792,107.544 70.84,106.424 73.08,106.424 C77.464,106.424 80.184,109.88 80.184,114.904 C80.184,120.056 77.112,123.384 72.824,123.384 C70.712,123.384 68.728,122.296 67.672,120.472 L67.608,120.472 C67.608,120.472 67.704,120.952 67.704,121.688 L67.704,123 L64.792,123 Z M67.8,114.968 C67.8,117.848 69.304,120.696 72.376,120.696 C74.936,120.696 77.048,118.616 77.048,114.936 C77.048,111.416 75.16,109.144 72.472,109.144 C70.04,109.144 67.8,110.872 67.8,114.968 Z M83.832,117.176 C83.832,121.464 85.72,123.384 89.368,123.384 C92.536,123.384 94.68,121.176 95.384,119.576 L95.448,119.576 C95.448,119.576 95.32,120.12 95.32,120.76 L95.32,123 L98.328,123 L98.328,106.808 L95.256,106.808 L95.256,114.392 C95.256,117.592 93.304,120.504 89.976,120.504 C87.416,120.504 86.936,118.712 86.936,116.472 L86.936,106.808 L83.832,106.808 L83.832,117.176 Z M102.328,126.36 L101.24,128.728 C101.24,128.728 102.552,129.72 104.344,129.72 C106.616,129.72 108.632,128.44 109.592,125.912 L117.208,106.808 L113.848,106.808 L109.912,117.432 C109.624,118.264 109.368,119.352 109.368,119.352 L109.304,119.352 C109.304,119.352 109.016,118.2 108.696,117.4 L104.632,106.808 L101.144,106.808 L107.928,122.808 L107.128,124.664 C106.52,126.136 105.464,127.064 104.184,127.064 C103.224,127.064 102.328,126.36 102.328,126.36 Z M118.52,121.016 C120.12,122.648 122.52,123.384 124.696,123.384 C128.152,123.384 130.52,121.368 130.52,118.616 C130.52,113.272 122.168,114.2 122.168,111.032 C122.168,109.656 123.352,109.016 124.92,109.016 C126.36,109.016 128.056,109.56 129.016,110.456 L130.264,108.216 C128.856,106.936 126.872,106.424 125.016,106.424 C121.848,106.424 119.192,108.024 119.192,111.096 C119.192,116.408 127.512,115.576 127.512,118.68 C127.512,120.024 126.392,120.792 124.76,120.792 C123.064,120.792 121.208,120.088 119.992,118.904 L118.52,121.016 Z M142.232,117.08 C142.232,122.488 146.36,123.16 148.44,123.16 C148.92,123.16 149.272,123.096 149.528,123.064 L149.528,120.312 C149.208,120.376 149.016,120.376 148.792,120.376 C147.608,120.376 145.336,119.96 145.336,116.728 L145.336,109.496 L149.24,109.496 L149.24,106.968 L145.336,106.968 L145.336,102.36 L142.296,102.36 L142.296,106.968 L140.12,106.968 L140.12,109.496 L142.232,109.496 L142.232,117.08 Z M152.728,123 L155.832,123 L155.832,115.32 C155.832,111.832 158.104,109.272 161.24,109.272 C163.832,109.272 164.28,111.064 164.28,113.336 L164.28,123 L167.384,123 L167.384,112.632 C167.384,108.504 165.656,106.424 161.848,106.424 C158.616,106.424 156.504,108.6 155.768,110.136 L155.704,110.136 C155.704,110.136 155.832,109.56 155.832,108.792 L155.832,100.408 L152.728,100.408 L152.728,123 Z M170.968,114.904 C170.968,109.752 174.488,106.424 179.096,106.424 C183.672,106.424 186.104,109.848 186.104,114.008 C186.104,114.424 186.04,114.872 185.976,115.32 L174.2,115.32 C174.36,118.808 176.856,120.696 179.768,120.696 C181.496,120.696 183.256,119.96 184.536,118.808 L185.848,121.08 C184.28,122.52 181.816,123.384 179.576,123.384 C174.488,123.384 170.968,119.704 170.968,114.904 Z M174.296,113.08 L182.968,113.08 C182.872,110.296 181.144,108.824 179.032,108.824 C176.632,108.824 174.744,110.392 174.296,113.08 Z" id="Checks-out-the-oppor" fill="#181920"></path>
                <path d="M195.704,123 L203.672,100.28 L208.024,100.28 L215.992,123 L211.768,123 L209.816,117.176 L201.848,117.176 L199.928,123 L195.704,123 Z M202.872,113.816 L208.792,113.816 L206.776,107.736 C206.392,106.456 205.88,104.216 205.88,104.216 L205.816,104.216 C205.816,104.216 205.304,106.456 204.92,107.736 L202.872,113.816 Z M227.224,117.016 C227.224,122.488 231.736,123.16 234.008,123.16 C234.552,123.16 234.936,123.096 235.256,123.064 L235.256,119.512 C234.936,119.576 234.744,119.576 234.52,119.576 C233.4,119.576 231.288,119.192 231.288,116.504 L231.288,110.136 L235,110.136 L235,106.904 L231.288,106.904 L231.288,102.232 L227.32,102.232 L227.32,106.904 L225.112,106.904 L225.112,110.136 L227.224,110.136 L227.224,117.016 Z M237.208,114.84 C237.208,109.848 241.208,106.296 246.136,106.296 C251.128,106.296 255.128,109.848 255.128,114.84 C255.128,119.864 251.128,123.384 246.168,123.384 C241.208,123.384 237.208,119.864 237.208,114.84 Z M241.336,114.84 C241.336,117.88 243.512,119.928 246.168,119.928 C248.824,119.928 251.032,117.88 251.032,114.84 C251.032,111.832 248.824,109.752 246.168,109.752 C243.512,109.752 241.336,111.832 241.336,114.84 Z M258.488,123 L262.552,123 L262.552,115.864 L264.664,115.864 L268.984,123 L273.656,123 L267.864,114.04 L267.864,113.976 L273.016,106.68 L268.504,106.68 L264.568,112.44 L262.552,112.44 L262.552,100.28 L258.488,100.28 L258.488,123 Z M274.424,114.84 C274.424,109.816 277.848,106.296 282.744,106.296 C287.416,106.296 289.976,109.72 289.976,114.04 C289.976,114.552 289.912,115.096 289.848,115.608 L278.616,115.608 C278.872,118.456 281.048,119.928 283.512,119.928 C285.176,119.928 286.872,119.192 288.184,118.136 L289.784,121.048 C288.12,122.52 285.56,123.384 283.224,123.384 C277.816,123.384 274.424,119.48 274.424,114.84 Z M278.712,112.824 L285.912,112.824 C285.88,110.648 284.472,109.368 282.648,109.368 C280.568,109.368 279.096,110.744 278.712,112.824 Z M297.743223,108.964494 L297.272,108.192663 L297.272,108.6 C297.272,109.24 297.208,109.752 297.208,109.752 L297.272,109.752 C297.391835,109.506623 297.548305,109.238858 297.743223,108.964494 Z M297.272,108.192663 L297.743223,108.964494 C298.641345,107.700307 300.355764,106.296 303.064,106.296 C306.68,106.296 308.76,108.184 308.76,112.504 L308.76,123 L304.696,123 L304.696,113.336 C304.696,111.352 304.184,110.008 302.136,110.008 C299.256,110.008 297.432,112.408 297.432,115.352 L297.432,123 L293.368,123 L293.368,106.68 L297.272,106.68 L297.272,108.192663 Z" id="Combined-Shape" fill="#FF674C"></path>
                <path d="M1.752,23 L5.88,23 L5.88,0.28 L1.752,0.28 L1.752,23 Z M14.9912228,8.96449363 L14.52,8.19266298 L14.52,8.6 C14.52,9.24 14.456,9.752 14.456,9.752 L14.52,9.752 C14.6398354,9.50662277 14.7963048,9.23885811 14.9912228,8.96449363 Z M14.52,8.19266298 L14.9912228,8.96449363 C15.8893451,7.70030656 17.6037641,6.296 20.312,6.296 C23.928,6.296 26.008,8.184 26.008,12.504 L26.008,23 L21.944,23 L21.944,13.336 C21.944,11.352 21.432,10.008 19.384,10.008 C16.504,10.008 14.68,12.408 14.68,15.352 L14.68,23 L10.616,23 L10.616,6.68 L14.52,6.68 L14.52,8.19266298 Z M34.168,23 L38.968,23 L44.824,6.68 L40.536,6.68 L37.144,16.792 C36.856,17.752 36.568,19.256 36.568,19.256 L36.504,19.256 C36.504,19.256 36.216,17.752 35.928,16.792 L32.536,6.68 L28.248,6.68 L34.168,23 Z M46.04,14.84 C46.04,9.816 49.464,6.296 54.36,6.296 C59.032,6.296 61.592,9.72 61.592,14.04 C61.592,14.552 61.528,15.096 61.464,15.608 L50.232,15.608 C50.488,18.456 52.664,19.928 55.128,19.928 C56.792,19.928 58.488,19.192 59.8,18.136 L61.4,21.048 C59.736,22.52 57.176,23.384 54.84,23.384 C49.432,23.384 46.04,19.48 46.04,14.84 Z M50.328,12.824 L57.528,12.824 C57.496,10.648 56.088,9.368 54.264,9.368 C52.184,9.368 50.712,10.744 50.328,12.824 Z M63.672,20.984 C65.368,22.616 67.8,23.384 70.072,23.384 C73.816,23.384 76.248,21.24 76.248,18.36 C76.248,13.016 68.152,13.752 68.152,11.16 C68.152,10.136 69.016,9.592 70.424,9.592 C71.864,9.592 73.592,10.168 74.552,11 L76.056,8.152 C74.552,6.84 72.504,6.296 70.552,6.296 C67.128,6.296 64.312,7.992 64.312,11.192 C64.312,16.536 72.408,15.896 72.408,18.456 C72.408,19.48 71.576,20.088 70.136,20.088 C68.504,20.088 66.712,19.416 65.496,18.296 L63.672,20.984 Z M80.408,17.016 C80.408,22.488 84.92,23.16 87.192,23.16 C87.736,23.16 88.12,23.096 88.44,23.064 L88.44,19.512 C88.12,19.576 87.928,19.576 87.704,19.576 C86.584,19.576 84.472,19.192 84.472,16.504 L84.472,10.136 L88.184,10.136 L88.184,6.904 L84.472,6.904 L84.472,2.232 L80.504,2.232 L80.504,6.904 L78.296,6.904 L78.296,10.136 L80.408,10.136 L80.408,17.016 Z M90.392,14.84 C90.392,9.848 94.392,6.296 99.32,6.296 C104.312,6.296 108.312,9.848 108.312,14.84 C108.312,19.864 104.312,23.384 99.352,23.384 C94.392,23.384 90.392,19.864 90.392,14.84 Z M94.52,14.84 C94.52,17.88 96.696,19.928 99.352,19.928 C102.008,19.928 104.216,17.88 104.216,14.84 C104.216,11.832 102.008,9.752 99.352,9.752 C96.696,9.752 94.52,11.832 94.52,14.84 Z M115.949693,9.75271632 L115.576,9.11614815 L115.576,9.56 C115.576,10.168 115.512,10.68 115.512,10.68 L115.576,10.68 C115.6775,10.3622594 115.802736,10.0518219 115.949693,9.75271632 Z M115.576,9.11614815 L115.949693,9.75271632 C116.868349,7.88294817 118.635806,6.456 120.76,6.456 C121.016,6.456 121.272,6.488 121.528,6.52 L121.528,10.52 C121.368,10.488 120.888,10.456 120.536,10.456 C117.208,10.456 115.736,13.336 115.736,16.408 L115.736,23 L111.672,23 L111.672,6.68 L115.576,6.68 L115.576,9.11614815 Z" id="Investor" fill="#303498"></path>
            </g>
            <g id="Group-4" transform="translate(0.000000, 199.000000)">
                <rect id="Rectangle-4" stroke="#F6F6F9" stroke-width="8" x="4" y="4" width="912" height="432" rx="10"></rect>
                <path d="M62.752,66 L62.752,43.28 L70.496,43.28 C77.504,43.28 82.08,47.44 82.08,54.608 C82.08,61.776 77.504,66 70.496,66 L62.752,66 Z M66.88,62.448 L70.272,62.448 C74.88,62.448 77.824,59.728 77.824,54.608 C77.824,49.552 74.816,46.832 70.272,46.832 L66.88,46.832 L66.88,62.448 Z M84.768,57.84 C84.768,52.816 88.192,49.296 93.088,49.296 C97.76,49.296 100.32,52.72 100.32,57.04 C100.32,57.552 100.256,58.096 100.192,58.608 L88.96,58.608 C89.216,61.456 91.392,62.928 93.856,62.928 C95.52,62.928 97.216,62.192 98.528,61.136 L100.128,64.048 C98.464,65.52 95.904,66.384 93.568,66.384 C88.16,66.384 84.768,62.48 84.768,57.84 Z M89.056,55.824 L96.256,55.824 C96.224,53.648 94.816,52.368 92.992,52.368 C90.912,52.368 89.44,53.744 89.056,55.824 Z M104.032,66 L108.16,66 L108.16,56.464 L118.56,56.464 L118.56,66 L122.656,66 L122.656,43.28 L118.56,43.28 L118.56,52.912 L108.16,52.912 L108.16,43.28 L104.032,43.28 L104.032,66 Z M126.272,57.84 C126.272,52.816 129.696,49.296 134.592,49.296 C139.264,49.296 141.824,52.72 141.824,57.04 C141.824,57.552 141.76,58.096 141.696,58.608 L130.464,58.608 C130.72,61.456 132.896,62.928 135.36,62.928 C137.024,62.928 138.72,62.192 140.032,61.136 L141.632,64.048 C139.968,65.52 137.408,66.384 135.072,66.384 C129.664,66.384 126.272,62.48 126.272,57.84 Z M130.56,55.824 L137.76,55.824 C137.728,53.648 136.32,52.368 134.496,52.368 C132.416,52.368 130.944,53.744 130.56,55.824 Z M156.116641,64.3574664 L156.672,64.7184099 L156.672,64.592 C156.672,63.984 156.736,63.568 156.736,63.568 L156.672,63.568 C156.511328,63.8464975 156.325558,64.1106531 156.116641,64.3574664 Z M156.672,64.7184099 L156.116641,64.3574664 C155.077291,65.5853427 153.465032,66.384 151.52,66.384 C147.136,66.384 144.288,62.896 144.288,57.84 C144.288,52.656 147.36,49.296 151.68,49.296 C153.504,49.296 155.392,49.968 156.448,51.44 L156.512,51.44 C156.512,51.44 156.448,51.024 156.448,50.48 L156.448,43.28 L160.48,43.28 L160.48,66 L156.672,66 L156.672,64.7184099 Z M148.384,57.84 C148.384,60.944 150.048,62.96 152.448,62.96 C154.56,62.96 156.544,61.424 156.544,57.808 C156.544,55.28 155.232,52.784 152.48,52.784 C150.272,52.784 148.384,54.608 148.384,57.84 Z M175.327821,64.0664336 L175.84,64.3801958 L175.84,64.272 C175.84,63.888 175.904,63.408 175.904,63.408 L175.84,63.408 C175.68256,63.64416 175.51221,63.8639672 175.327821,64.0664336 Z M175.84,64.3801958 L175.327821,64.0664336 C174.387885,65.0985185 173.083136,65.68 171.264,65.68 C166.592,65.68 163.968,61.904 163.968,57.424 C163.968,52.944 166.464,49.296 171.168,49.296 C172.992,49.296 174.944,49.936 176.032,51.44 L176.128,51.44 C176.128,51.44 176.064,51.248 176.064,50.992 L176.064,49.68 L179.904,49.68 L179.904,65.008 C179.904,70.608 175.552,72.72 171.296,72.72 C169.248,72.72 167.072,72.144 165.472,71.312 L166.72,68.208 C168.032,68.848 169.632,69.264 171.232,69.264 C173.728,69.264 175.84,68.208 175.84,65.296 L175.84,64.3801958 Z M168.064,57.296 C168.064,60.144 169.504,62.256 172.16,62.256 C174.08,62.256 175.936,61.136 175.936,57.456 C175.936,53.744 174.08,52.752 171.904,52.752 C169.44,52.752 168.064,54.544 168.064,57.296 Z M183.264,57.84 C183.264,52.816 186.688,49.296 191.584,49.296 C196.256,49.296 198.816,52.72 198.816,57.04 C198.816,57.552 198.752,58.096 198.688,58.608 L187.456,58.608 C187.712,61.456 189.888,62.928 192.352,62.928 C194.016,62.928 195.712,62.192 197.024,61.136 L198.624,64.048 C196.96,65.52 194.4,66.384 192.064,66.384 C186.656,66.384 183.264,62.48 183.264,57.84 Z M187.552,55.824 L194.752,55.824 C194.72,53.648 193.312,52.368 191.488,52.368 C189.408,52.368 187.936,53.744 187.552,55.824 Z" id="DeHedge" fill="#303498"></path>
                <g id="Group" transform="translate(60.000000, 186.000000)">
                    <path d="M7.904,31 L7.904,11.832 L0.448,11.832 L0.448,8.28 L19.456,8.28 L19.456,11.832 L12,11.832 L12,31 L7.904,31 Z M18.208,22.84 C18.208,17.848 22.208,14.296 27.136,14.296 C32.128,14.296 36.128,17.848 36.128,22.84 C36.128,27.864 32.128,31.384 27.168,31.384 C22.208,31.384 18.208,27.864 18.208,22.84 Z M22.336,22.84 C22.336,25.88 24.512,27.928 27.168,27.928 C29.824,27.928 32.032,25.88 32.032,22.84 C32.032,19.832 29.824,17.752 27.168,17.752 C24.512,17.752 22.336,19.832 22.336,22.84 Z M39.488,31 L43.552,31 L43.552,23.864 L45.664,23.864 L49.984,31 L54.656,31 L48.864,22.04 L48.864,21.976 L54.016,14.68 L49.504,14.68 L45.568,20.44 L43.552,20.44 L43.552,8.28 L39.488,8.28 L39.488,31 Z M55.424,22.84 C55.424,17.816 58.848,14.296 63.744,14.296 C68.416,14.296 70.976,17.72 70.976,22.04 C70.976,22.552 70.912,23.096 70.848,23.608 L59.616,23.608 C59.872,26.456 62.048,27.928 64.512,27.928 C66.176,27.928 67.872,27.192 69.184,26.136 L70.784,29.048 C69.12,30.52 66.56,31.384 64.224,31.384 C58.816,31.384 55.424,27.48 55.424,22.84 Z M59.712,20.824 L66.912,20.824 C66.88,18.648 65.472,17.368 63.648,17.368 C61.568,17.368 60.096,18.744 59.712,20.824 Z M78.7432228,16.9644936 L78.272,16.192663 L78.272,16.6 C78.272,17.24 78.208,17.752 78.208,17.752 L78.272,17.752 C78.3918354,17.5066228 78.5483048,17.2388581 78.7432228,16.9644936 Z M78.272,16.192663 L78.7432228,16.9644936 C79.6413451,15.7003066 81.3557641,14.296 84.064,14.296 C87.68,14.296 89.76,16.184 89.76,20.504 L89.76,31 L85.696,31 L85.696,21.336 C85.696,19.352 85.184,18.008 83.136,18.008 C80.256,18.008 78.432,20.408 78.432,23.352 L78.432,31 L74.368,31 L74.368,14.68 L78.272,14.68 L78.272,16.192663 Z M99.072,31 L107.04,8.28 L111.392,8.28 L119.36,31 L115.136,31 L113.184,25.176 L105.216,25.176 L103.296,31 L99.072,31 Z M106.24,21.816 L112.16,21.816 L110.144,15.736 C109.76,14.456 109.248,12.216 109.248,12.216 L109.184,12.216 C109.184,12.216 108.672,14.456 108.288,15.736 L106.24,21.816 Z" id="Token-A" fill="#FF674C"></path>
                    <path d="M211.390625,31 L208.484375,31 L208.484375,11.734375 L202.65625,13.875 L202.65625,11.25 L210.9375,8.140625 L211.390625,8.140625 L211.390625,31 Z M234.125,21.296875 C234.125,24.6823086 233.546881,27.1979084 232.390625,28.84375 C231.234369,30.4895916 229.427096,31.3125 226.96875,31.3125 C224.541655,31.3125 222.744798,30.5078205 221.578125,28.8984375 C220.411452,27.2890545 219.807292,24.8854327 219.765625,21.6875 L219.765625,17.828125 C219.765625,14.4843583 220.343744,12.0000081 221.5,10.375 C222.656256,8.74999187 224.468738,7.9375 226.9375,7.9375 C229.385429,7.9375 231.187494,8.72134633 232.34375,10.2890625 C233.500006,11.8567787 234.09375,14.2760253 234.125,17.546875 L234.125,21.296875 Z M231.234375,17.34375 C231.234375,14.8958211 230.890628,13.1119848 230.203125,11.9921875 C229.515622,10.8723902 228.427091,10.3125 226.9375,10.3125 C225.458326,10.3125 224.380212,10.8697861 223.703125,11.984375 C223.026038,13.0989639 222.677083,14.8124884 222.65625,17.125 L222.65625,21.75 C222.65625,24.2083456 223.013017,26.0234316 223.726562,27.1953125 C224.440108,28.3671934 225.520826,28.953125 226.96875,28.953125 C228.39584,28.953125 229.455726,28.4010472 230.148438,27.296875 C230.841149,26.1927028 231.203125,24.4531369 231.234375,22.078125 L231.234375,17.34375 Z M245.34375,22.40625 C245.34375,19.812487 245.958327,17.7265704 247.1875,16.1484375 C248.416673,14.5703046 250.026032,13.78125 252.015625,13.78125 C253.994802,13.78125 255.562494,14.4583266 256.71875,15.8125 L256.71875,7 L259.609375,7 L259.609375,31 L256.953125,31 L256.8125,29.1875 C255.656244,30.6041738 254.046885,31.3125 251.984375,31.3125 C250.026032,31.3125 248.429694,30.5104247 247.195312,28.90625 C245.960931,27.3020753 245.34375,25.2083462 245.34375,22.625 L245.34375,22.40625 Z M248.234375,22.734375 C248.234375,24.6510513 248.630204,26.1510363 249.421875,27.234375 C250.213546,28.3177137 251.307285,28.859375 252.703125,28.859375 C254.536468,28.859375 255.874996,28.0364666 256.71875,26.390625 L256.71875,18.625 C255.854162,17.031242 254.526051,16.234375 252.734375,16.234375 C251.317701,16.234375 250.213546,16.7812445 249.421875,17.875 C248.630204,18.9687555 248.234375,20.5885309 248.234375,22.734375 Z M274.53125,31 C274.364582,30.666665 274.229167,30.0729209 274.125,29.21875 C272.781243,30.6145903 271.177093,31.3125 269.3125,31.3125 C267.645825,31.3125 266.278651,30.8411505 265.210938,29.8984375 C264.143224,28.9557245 263.609375,27.7604239 263.609375,26.3125 C263.609375,24.5520745 264.278639,23.1849007 265.617188,22.2109375 C266.955736,21.2369743 268.83853,20.75 271.265625,20.75 L274.078125,20.75 L274.078125,19.421875 C274.078125,18.4114533 273.776045,17.6067738 273.171875,17.0078125 C272.567705,16.4088512 271.677089,16.109375 270.5,16.109375 C269.468745,16.109375 268.60417,16.3697891 267.90625,16.890625 C267.20833,17.4114609 266.859375,18.041663 266.859375,18.78125 L263.953125,18.78125 C263.953125,17.9374958 264.252601,17.1223998 264.851562,16.3359375 C265.450524,15.5494752 266.263016,14.9270856 267.289062,14.46875 C268.315109,14.0104144 269.442702,13.78125 270.671875,13.78125 C272.619801,13.78125 274.145828,14.2682243 275.25,15.2421875 C276.354172,16.2161507 276.927083,17.5572831 276.96875,19.265625 L276.96875,27.046875 C276.96875,28.5989661 277.166665,29.8333287 277.5625,30.75 L277.5625,31 L274.53125,31 Z M269.734375,28.796875 C270.64063,28.796875 271.499996,28.5625023 272.3125,28.09375 C273.125004,27.6249977 273.71354,27.0156287 274.078125,26.265625 L274.078125,22.796875 L271.8125,22.796875 C268.270816,22.796875 266.5,23.833323 266.5,25.90625 C266.5,26.8125045 266.80208,27.5208308 267.40625,28.03125 C268.01042,28.5416692 268.786454,28.796875 269.734375,28.796875 Z M286.796875,26.765625 L290.734375,14.09375 L293.828125,14.09375 L287.03125,33.609375 C285.979161,36.4218891 284.307303,37.828125 282.015625,37.828125 L281.46875,37.78125 L280.390625,37.578125 L280.390625,35.234375 L281.171875,35.296875 C282.151047,35.296875 282.91406,35.0989603 283.460938,34.703125 C284.007815,34.3072897 284.458332,33.5833386 284.8125,32.53125 L285.453125,30.8125 L279.421875,14.09375 L282.578125,14.09375 L286.796875,26.765625 Z" id="10-day" fill="#181920"></path>
                    <path d="M411.390625,31 L408.484375,31 L408.484375,11.734375 L402.65625,13.875 L402.65625,11.25 L410.9375,8.140625 L411.390625,8.140625 L411.390625,31 Z M426.171875,22.515625 L418.546875,22.515625 L418.546875,20.15625 L426.171875,20.15625 L426.171875,22.515625 Z M443.59375,31 L428.6875,31 L428.6875,28.921875 L436.5625,20.171875 C437.729173,18.8489517 438.533852,17.7734416 438.976562,16.9453125 C439.419273,16.1171834 439.640625,15.2604211 439.640625,14.375 C439.640625,13.1874941 439.281254,12.2135455 438.5625,11.453125 C437.843746,10.6927045 436.885423,10.3125 435.6875,10.3125 C434.249993,10.3125 433.132816,10.7213501 432.335938,11.5390625 C431.539059,12.3567749 431.140625,13.4947844 431.140625,14.953125 L428.25,14.953125 C428.25,12.8593645 428.924472,11.1666731 430.273438,9.875 C431.622403,8.58332687 433.427072,7.9375 435.6875,7.9375 C437.802094,7.9375 439.473952,8.49218195 440.703125,9.6015625 C441.932298,10.710943 442.546875,12.1874908 442.546875,14.03125 C442.546875,16.2708445 441.119806,18.9374845 438.265625,22.03125 L432.171875,28.640625 L443.59375,28.640625 L443.59375,31 Z M468.1875,20.484375 L458.328125,20.484375 L458.328125,28.546875 L469.78125,28.546875 L469.78125,31 L455.328125,31 L455.328125,8.25 L469.625,8.25 L469.625,10.71875 L458.328125,10.71875 L458.328125,18.03125 L468.1875,18.03125 L468.1875,20.484375 Z M489.234375,10.71875 L481.921875,10.71875 L481.921875,31 L478.9375,31 L478.9375,10.71875 L471.640625,10.71875 L471.640625,8.25 L489.234375,8.25 L489.234375,10.71875 Z M510.09375,31 L507.078125,31 L507.078125,20.484375 L495.609375,20.484375 L495.609375,31 L492.609375,31 L492.609375,8.25 L495.609375,8.25 L495.609375,18.03125 L507.078125,18.03125 L507.078125,8.25 L510.09375,8.25 L510.09375,31 Z" id="1-2-ЕTH" fill="#181920"></path>
                </g>
                <g id="Group-Copy-2" transform="translate(60.000000, 326.000000)" fill="#181920">
                    <path d="M18.359375,10.71875 L11.046875,10.71875 L11.046875,31 L8.0625,31 L8.0625,10.71875 L0.765625,10.71875 L0.765625,8.25 L18.359375,8.25 L18.359375,10.71875 Z M18.96875,22.390625 C18.96875,20.7343667 19.2942676,19.2447983 19.9453125,17.921875 C20.5963574,16.5989517 21.5025984,15.5781286 22.6640625,14.859375 C23.8255266,14.1406214 25.1510342,13.78125 26.640625,13.78125 C28.9427198,13.78125 30.8046804,14.578117 32.2265625,16.171875 C33.6484446,17.765633 34.359375,19.8854034 34.359375,22.53125 L34.359375,22.734375 C34.359375,24.3802166 34.044274,25.8567643 33.4140625,27.1640625 C32.783851,28.4713607 31.8828184,29.4895797 30.7109375,30.21875 C29.5390566,30.9479203 28.1927159,31.3125 26.671875,31.3125 C24.3801969,31.3125 22.5234446,30.515633 21.1015625,28.921875 C19.6796804,27.328117 18.96875,25.2187631 18.96875,22.59375 L18.96875,22.390625 Z M21.875,22.734375 C21.875,24.6093844 22.3098915,26.1145777 23.1796875,27.25 C24.0494835,28.3854223 25.2135344,28.953125 26.671875,28.953125 C28.1406323,28.953125 29.3072873,28.3776099 30.171875,27.2265625 C31.0364627,26.0755151 31.46875,24.463552 31.46875,22.390625 C31.46875,20.5364491 31.0286502,19.0338599 30.1484375,17.8828125 C29.2682248,16.7317651 28.0989656,16.15625 26.640625,16.15625 C25.2135345,16.15625 24.0625044,16.7239527 23.1875,17.859375 C22.3124956,18.9947973 21.875,20.6197811 21.875,22.734375 Z M42.703125,23.171875 L40.890625,25.0625 L40.890625,31 L38,31 L38,7 L40.890625,7 L40.890625,21.515625 L42.4375,19.65625 L47.703125,14.09375 L51.21875,14.09375 L44.640625,21.15625 L51.984375,31 L48.59375,31 L42.703125,23.171875 Z M60.90625,31.3125 C58.6145719,31.3125 56.7500072,30.5599034 55.3125,29.0546875 C53.8749928,27.5494716 53.15625,25.5364709 53.15625,23.015625 L53.15625,22.484375 C53.15625,20.8072833 53.4765593,19.3099024 54.1171875,17.9921875 C54.7578157,16.6744726 55.6536401,15.6432329 56.8046875,14.8984375 C57.9557349,14.1536421 59.2031183,13.78125 60.546875,13.78125 C62.7448027,13.78125 64.4531189,14.5052011 65.671875,15.953125 C66.8906311,17.4010489 67.5,19.4739448 67.5,22.171875 L67.5,23.375 L56.046875,23.375 C56.0885419,25.041675 56.5755162,26.3880157 57.5078125,27.4140625 C58.4401088,28.4401093 59.6249928,28.953125 61.0625,28.953125 C62.0833384,28.953125 62.9479131,28.7447937 63.65625,28.328125 C64.3645869,27.9114563 64.9843723,27.3593784 65.515625,26.671875 L67.28125,28.046875 C65.8645762,30.2239692 63.7395975,31.3125 60.90625,31.3125 Z M60.546875,16.15625 C59.3802025,16.15625 58.4010456,16.5807249 57.609375,17.4296875 C56.8177044,18.2786501 56.3281259,19.4687423 56.140625,21 L64.609375,21 L64.609375,20.78125 C64.5260412,19.3124927 64.1302119,18.1744832 63.421875,17.3671875 C62.7135381,16.5598918 61.7552144,16.15625 60.546875,16.15625 Z M73.578125,14.09375 L73.671875,16.21875 C74.9635481,14.5937419 76.6510313,13.78125 78.734375,13.78125 C82.3073095,13.78125 84.1093748,15.7968548 84.140625,19.828125 L84.140625,31 L81.25,31 L81.25,19.8125 C81.2395833,18.5937439 80.9609402,17.6927112 80.4140625,17.109375 C79.8671848,16.5260388 79.0156308,16.234375 77.859375,16.234375 C76.9218703,16.234375 76.0989619,16.4843725 75.390625,16.984375 C74.6822881,17.4843775 74.1302103,18.1406209 73.734375,18.953125 L73.734375,31 L70.84375,31 L70.84375,14.09375 L73.578125,14.09375 Z M113.609375,23.78125 C113.328124,26.187512 112.440112,28.0442643 110.945312,29.3515625 C109.450513,30.6588607 107.463554,31.3125 104.984375,31.3125 C102.296862,31.3125 100.143237,30.348968 98.5234375,28.421875 C96.9036377,26.494782 96.09375,23.9166828 96.09375,20.6875 L96.09375,18.5 C96.09375,16.3854061 96.4713504,14.5260497 97.2265625,12.921875 C97.9817746,11.3177003 99.0520764,10.0859418 100.4375,9.2265625 C101.822924,8.3671832 103.427074,7.9375 105.25,7.9375 C107.666679,7.9375 109.604159,8.61197242 111.0625,9.9609375 C112.520841,11.3099026 113.36979,13.1770714 113.609375,15.5625 L110.59375,15.5625 C110.333332,13.7499909 109.768234,12.4375041 108.898437,11.625 C108.028641,10.8124959 106.812508,10.40625 105.25,10.40625 C103.333324,10.40625 101.830735,11.1145762 100.742187,12.53125 C99.6536404,13.9479238 99.109375,15.9635286 99.109375,18.578125 L99.109375,20.78125 C99.109375,23.2500123 99.6249948,25.2135344 100.65625,26.671875 C101.687505,28.1302156 103.130199,28.859375 104.984375,28.859375 C106.65105,28.859375 107.929683,28.4817746 108.820312,27.7265625 C109.710942,26.9713504 110.302082,25.6562594 110.59375,23.78125 L113.609375,23.78125 Z" id="Token-C"></path>
                    <path d="M206.09375,18.21875 L208.265625,18.21875 C209.630215,18.1979166 210.703121,17.8385452 211.484375,17.140625 C212.265629,16.4427048 212.65625,15.5000059 212.65625,14.3125 C212.65625,11.64582 211.328138,10.3125 208.671875,10.3125 C207.421869,10.3125 206.424483,10.6692673 205.679688,11.3828125 C204.934892,12.0963577 204.5625,13.0416608 204.5625,14.21875 L201.671875,14.21875 C201.671875,12.4166577 202.330723,10.9192768 203.648438,9.7265625 C204.966152,8.5338482 206.640615,7.9375 208.671875,7.9375 C210.817719,7.9375 212.499994,8.50520266 213.71875,9.640625 C214.937506,10.7760473 215.546875,12.3541566 215.546875,14.375 C215.546875,15.3645883 215.226566,16.322912 214.585938,17.25 C213.945309,18.177088 213.072922,18.8697894 211.96875,19.328125 C213.218756,19.7239603 214.184892,20.3802037 214.867188,21.296875 C215.549483,22.2135463 215.890625,23.3333267 215.890625,24.65625 C215.890625,26.6979269 215.223965,28.3177023 213.890625,29.515625 C212.557285,30.7135477 210.822927,31.3125 208.6875,31.3125 C206.552073,31.3125 204.815111,30.7343808 203.476562,29.578125 C202.138014,28.4218692 201.46875,26.8958428 201.46875,25 L204.375,25 C204.375,26.1979227 204.765621,27.1562464 205.546875,27.875 C206.328129,28.5937536 207.374993,28.953125 208.6875,28.953125 C210.08334,28.953125 211.151038,28.5885453 211.890625,27.859375 C212.630212,27.1302047 213,26.0833402 213,24.71875 C213,23.3958267 212.593754,22.3802119 211.78125,21.671875 C210.968746,20.9635381 209.796883,20.5989584 208.265625,20.578125 L206.09375,20.578125 L206.09375,18.21875 Z M234.125,21.296875 C234.125,24.6823086 233.546881,27.1979084 232.390625,28.84375 C231.234369,30.4895916 229.427096,31.3125 226.96875,31.3125 C224.541655,31.3125 222.744798,30.5078205 221.578125,28.8984375 C220.411452,27.2890545 219.807292,24.8854327 219.765625,21.6875 L219.765625,17.828125 C219.765625,14.4843583 220.343744,12.0000081 221.5,10.375 C222.656256,8.74999187 224.468738,7.9375 226.9375,7.9375 C229.385429,7.9375 231.187494,8.72134633 232.34375,10.2890625 C233.500006,11.8567787 234.09375,14.2760253 234.125,17.546875 L234.125,21.296875 Z M231.234375,17.34375 C231.234375,14.8958211 230.890628,13.1119848 230.203125,11.9921875 C229.515622,10.8723902 228.427091,10.3125 226.9375,10.3125 C225.458326,10.3125 224.380212,10.8697861 223.703125,11.984375 C223.026038,13.0989639 222.677083,14.8124884 222.65625,17.125 L222.65625,21.75 C222.65625,24.2083456 223.013017,26.0234316 223.726562,27.1953125 C224.440108,28.3671934 225.520826,28.953125 226.96875,28.953125 C228.39584,28.953125 229.455726,28.4010472 230.148438,27.296875 C230.841149,26.1927028 231.203125,24.4531369 231.234375,22.078125 L231.234375,17.34375 Z M245.34375,22.40625 C245.34375,19.812487 245.958327,17.7265704 247.1875,16.1484375 C248.416673,14.5703046 250.026032,13.78125 252.015625,13.78125 C253.994802,13.78125 255.562494,14.4583266 256.71875,15.8125 L256.71875,7 L259.609375,7 L259.609375,31 L256.953125,31 L256.8125,29.1875 C255.656244,30.6041738 254.046885,31.3125 251.984375,31.3125 C250.026032,31.3125 248.429694,30.5104247 247.195312,28.90625 C245.960931,27.3020753 245.34375,25.2083462 245.34375,22.625 L245.34375,22.40625 Z M248.234375,22.734375 C248.234375,24.6510513 248.630204,26.1510363 249.421875,27.234375 C250.213546,28.3177137 251.307285,28.859375 252.703125,28.859375 C254.536468,28.859375 255.874996,28.0364666 256.71875,26.390625 L256.71875,18.625 C255.854162,17.031242 254.526051,16.234375 252.734375,16.234375 C251.317701,16.234375 250.213546,16.7812445 249.421875,17.875 C248.630204,18.9687555 248.234375,20.5885309 248.234375,22.734375 Z M274.53125,31 C274.364582,30.666665 274.229167,30.0729209 274.125,29.21875 C272.781243,30.6145903 271.177093,31.3125 269.3125,31.3125 C267.645825,31.3125 266.278651,30.8411505 265.210938,29.8984375 C264.143224,28.9557245 263.609375,27.7604239 263.609375,26.3125 C263.609375,24.5520745 264.278639,23.1849007 265.617188,22.2109375 C266.955736,21.2369743 268.83853,20.75 271.265625,20.75 L274.078125,20.75 L274.078125,19.421875 C274.078125,18.4114533 273.776045,17.6067738 273.171875,17.0078125 C272.567705,16.4088512 271.677089,16.109375 270.5,16.109375 C269.468745,16.109375 268.60417,16.3697891 267.90625,16.890625 C267.20833,17.4114609 266.859375,18.041663 266.859375,18.78125 L263.953125,18.78125 C263.953125,17.9374958 264.252601,17.1223998 264.851562,16.3359375 C265.450524,15.5494752 266.263016,14.9270856 267.289062,14.46875 C268.315109,14.0104144 269.442702,13.78125 270.671875,13.78125 C272.619801,13.78125 274.145828,14.2682243 275.25,15.2421875 C276.354172,16.2161507 276.927083,17.5572831 276.96875,19.265625 L276.96875,27.046875 C276.96875,28.5989661 277.166665,29.8333287 277.5625,30.75 L277.5625,31 L274.53125,31 Z M269.734375,28.796875 C270.64063,28.796875 271.499996,28.5625023 272.3125,28.09375 C273.125004,27.6249977 273.71354,27.0156287 274.078125,26.265625 L274.078125,22.796875 L271.8125,22.796875 C268.270816,22.796875 266.5,23.833323 266.5,25.90625 C266.5,26.8125045 266.80208,27.5208308 267.40625,28.03125 C268.01042,28.5416692 268.786454,28.796875 269.734375,28.796875 Z M286.796875,26.765625 L290.734375,14.09375 L293.828125,14.09375 L287.03125,33.609375 C285.979161,36.4218891 284.307303,37.828125 282.015625,37.828125 L281.46875,37.78125 L280.390625,37.578125 L280.390625,35.234375 L281.171875,35.296875 C282.151047,35.296875 282.91406,35.0989603 283.460938,34.703125 C284.007815,34.3072897 284.458332,33.5833386 284.8125,32.53125 L285.453125,30.8125 L279.421875,14.09375 L282.578125,14.09375 L286.796875,26.765625 Z" id="30-day"></path>
                    <path d="M406.09375,18.21875 L408.265625,18.21875 C409.630215,18.1979166 410.703121,17.8385452 411.484375,17.140625 C412.265629,16.4427048 412.65625,15.5000059 412.65625,14.3125 C412.65625,11.64582 411.328138,10.3125 408.671875,10.3125 C407.421869,10.3125 406.424483,10.6692673 405.679688,11.3828125 C404.934892,12.0963577 404.5625,13.0416608 404.5625,14.21875 L401.671875,14.21875 C401.671875,12.4166577 402.330723,10.9192768 403.648438,9.7265625 C404.966152,8.5338482 406.640615,7.9375 408.671875,7.9375 C410.817719,7.9375 412.499994,8.50520266 413.71875,9.640625 C414.937506,10.7760473 415.546875,12.3541566 415.546875,14.375 C415.546875,15.3645883 415.226566,16.322912 414.585938,17.25 C413.945309,18.177088 413.072922,18.8697894 411.96875,19.328125 C413.218756,19.7239603 414.184892,20.3802037 414.867188,21.296875 C415.549483,22.2135462 415.890625,23.3333267 415.890625,24.65625 C415.890625,26.6979269 415.223965,28.3177023 413.890625,29.515625 C412.557285,30.7135477 410.822927,31.3125 408.6875,31.3125 C406.552073,31.3125 404.815111,30.7343808 403.476562,29.578125 C402.138014,28.4218692 401.46875,26.8958428 401.46875,25 L404.375,25 C404.375,26.1979227 404.765621,27.1562464 405.546875,27.875 C406.328129,28.5937536 407.374993,28.953125 408.6875,28.953125 C410.08334,28.953125 411.151038,28.5885453 411.890625,27.859375 C412.630212,27.1302047 413,26.0833402 413,24.71875 C413,23.3958267 412.593754,22.3802119 411.78125,21.671875 C410.968746,20.9635381 409.796883,20.5989584 408.265625,20.578125 L406.09375,20.578125 L406.09375,18.21875 Z M426.171875,22.515625 L418.546875,22.515625 L418.546875,20.15625 L426.171875,20.15625 L426.171875,22.515625 Z M432.890625,18.21875 L435.0625,18.21875 C436.42709,18.1979166 437.499996,17.8385452 438.28125,17.140625 C439.062504,16.4427048 439.453125,15.5000059 439.453125,14.3125 C439.453125,11.64582 438.125013,10.3125 435.46875,10.3125 C434.218744,10.3125 433.221358,10.6692673 432.476562,11.3828125 C431.731767,12.0963577 431.359375,13.0416608 431.359375,14.21875 L428.46875,14.21875 C428.46875,12.4166577 429.127598,10.9192768 430.445312,9.7265625 C431.763027,8.5338482 433.43749,7.9375 435.46875,7.9375 C437.614594,7.9375 439.296869,8.50520266 440.515625,9.640625 C441.734381,10.7760473 442.34375,12.3541566 442.34375,14.375 C442.34375,15.3645883 442.023441,16.322912 441.382812,17.25 C440.742184,18.177088 439.869797,18.8697894 438.765625,19.328125 C440.015631,19.7239603 440.981767,20.3802037 441.664062,21.296875 C442.346358,22.2135462 442.6875,23.3333267 442.6875,24.65625 C442.6875,26.6979269 442.02084,28.3177023 440.6875,29.515625 C439.35416,30.7135477 437.619802,31.3125 435.484375,31.3125 C433.348948,31.3125 431.611986,30.7343808 430.273438,29.578125 C428.934889,28.4218692 428.265625,26.8958428 428.265625,25 L431.171875,25 C431.171875,26.1979227 431.562496,27.1562464 432.34375,27.875 C433.125004,28.5937536 434.171868,28.953125 435.484375,28.953125 C436.880215,28.953125 437.947913,28.5885453 438.6875,27.859375 C439.427087,27.1302047 439.796875,26.0833402 439.796875,24.71875 C439.796875,23.3958267 439.390629,22.3802119 438.578125,21.671875 C437.765621,20.9635381 436.593758,20.5989584 435.0625,20.578125 L432.890625,20.578125 L432.890625,18.21875 Z M447.015625,29.484375 C447.015625,28.9843725 447.164061,28.56771 447.460938,28.234375 C447.757814,27.90104 448.203122,27.734375 448.796875,27.734375 C449.390628,27.734375 449.841144,27.90104 450.148438,28.234375 C450.455731,28.56771 450.609375,28.9843725 450.609375,29.484375 C450.609375,29.9635441 450.455731,30.3645817 450.148438,30.6875 C449.841144,31.0104183 449.390628,31.171875 448.796875,31.171875 C448.203122,31.171875 447.757814,31.0104183 447.460938,30.6875 C447.164061,30.3645817 447.015625,29.9635441 447.015625,29.484375 Z M456.40625,19.59375 L457.5625,8.25 L469.21875,8.25 L469.21875,10.921875 L460.015625,10.921875 L459.328125,17.125 C460.442714,16.4687467 461.708326,16.140625 463.125,16.140625 C465.197927,16.140625 466.843744,16.825514 468.0625,18.1953125 C469.281256,19.565111 469.890625,21.416655 469.890625,23.75 C469.890625,26.0937617 469.257819,27.9400974 467.992188,29.2890625 C466.726556,30.6380276 464.958345,31.3125 462.6875,31.3125 C460.677073,31.3125 459.036465,30.7552139 457.765625,29.640625 C456.494785,28.5260361 455.770834,26.9843848 455.59375,25.015625 L458.328125,25.015625 C458.505209,26.3177148 458.968746,27.2994759 459.71875,27.9609375 C460.468754,28.6223991 461.458327,28.953125 462.6875,28.953125 C464.031257,28.953125 465.085934,28.4947963 465.851562,27.578125 C466.617191,26.6614537 467,25.3958414 467,23.78125 C467,22.2604091 466.585942,21.0390671 465.757812,20.1171875 C464.929683,19.1953079 463.828132,18.734375 462.453125,18.734375 C461.192702,18.734375 460.203129,19.0104139 459.484375,19.5625 L458.71875,20.1875 L456.40625,19.59375 Z M494.578125,20.484375 L484.71875,20.484375 L484.71875,28.546875 L496.171875,28.546875 L496.171875,31 L481.71875,31 L481.71875,8.25 L496.015625,8.25 L496.015625,10.71875 L484.71875,10.71875 L484.71875,18.03125 L494.578125,18.03125 L494.578125,20.484375 Z M515.9375,10.71875 L508.625,10.71875 L508.625,31 L505.640625,31 L505.640625,10.71875 L498.34375,10.71875 L498.34375,8.25 L515.9375,8.25 L515.9375,10.71875 Z M536.796875,31 L533.78125,31 L533.78125,20.484375 L522.3125,20.484375 L522.3125,31 L519.3125,31 L519.3125,8.25 L522.3125,8.25 L522.3125,18.03125 L533.78125,18.03125 L533.78125,8.25 L536.796875,8.25 L536.796875,31 Z" id="3-3.5-ETH"></path>
                </g>
                <g id="Group-Copy-3" transform="translate(60.000000, 186.000000)">
                    <path d="M8.256,101 L8.256,81.16 L0.48,81.16 L0.48,78.408 L19.168,78.408 L19.168,81.16 L11.392,81.16 L11.392,101 L8.256,101 Z M17.952,92.872 C17.952,87.976 21.856,84.424 26.656,84.424 C31.488,84.424 35.392,87.976 35.392,92.872 C35.392,97.8 31.488,101.384 26.688,101.384 C21.856,101.384 17.952,97.8 17.952,92.872 Z M21.12,92.872 C21.12,96.264 23.616,98.696 26.688,98.696 C29.728,98.696 32.256,96.264 32.256,92.872 C32.256,89.512 29.728,87.112 26.688,87.112 C23.616,87.112 21.12,89.512 21.12,92.872 Z M39.136,101 L42.24,101 L42.24,93.416 L44.608,93.416 L49.44,101 L53.056,101 L47.072,92.008 L47.072,91.944 L52.448,84.808 L48.928,84.808 L44.544,90.76 L42.24,90.76 L42.24,78.408 L39.136,78.408 L39.136,101 Z M54.144,92.904 C54.144,87.752 57.664,84.424 62.272,84.424 C66.848,84.424 69.28,87.848 69.28,92.008 C69.28,92.424 69.216,92.872 69.152,93.32 L57.376,93.32 C57.536,96.808 60.032,98.696 62.944,98.696 C64.672,98.696 66.432,97.96 67.712,96.808 L69.024,99.08 C67.456,100.52 64.992,101.384 62.752,101.384 C57.664,101.384 54.144,97.704 54.144,92.904 Z M57.472,91.08 L66.144,91.08 C66.048,88.296 64.32,86.824 62.208,86.824 C59.808,86.824 57.92,88.392 57.472,91.08 Z M73.024,101 L76.128,101 L76.128,93.224 C76.128,89.896 78.368,87.272 81.536,87.272 C84.128,87.272 84.576,89.064 84.576,91.336 L84.576,101 L87.68,101 L87.68,90.632 C87.68,86.504 85.952,84.424 82.144,84.424 C78.592,84.424 76.608,86.824 76,88.232 L75.936,88.232 C75.936,88.232 76.032,87.688 76.032,87.016 L76.032,84.808 L73.024,84.808 L73.024,101 Z M100.896,101 L100.896,78.408 L108.8,78.408 C112.64,78.408 115.36,80.52 115.36,84.168 C115.36,86.376 114.272,88.136 112.544,89.032 L112.544,89.096 C114.944,89.8 116.288,92.04 116.288,94.568 C116.288,98.824 112.96,101 108.992,101 L100.896,101 Z M104.064,87.912 L108.8,87.912 C110.848,87.912 112.128,86.472 112.128,84.488 C112.128,82.504 110.912,81.16 108.768,81.16 L104.064,81.16 L104.064,87.912 Z M104.064,98.248 L109.152,98.248 C111.584,98.248 113.024,96.712 113.024,94.376 C113.024,92.104 111.52,90.536 109.152,90.536 L104.064,90.536 L104.064,98.248 Z" id="Token-B" fill="#181920"></path>
                    <path d="M201.824,101 L214.848,101 L214.848,98.248 L209.888,98.248 L209.888,78.408 L207.072,78.408 L201.664,83.656 L203.584,85.64 L205.696,83.592 C206.528,82.76 206.784,82.28 206.784,82.28 L206.848,82.28 C206.848,82.28 206.816,82.952 206.816,83.656 L206.816,98.248 L201.824,98.248 L201.824,101 Z M217.376,98.248 C219.072,100.296 221.664,101.384 224.32,101.384 C228.864,101.384 232.32,98.12 232.32,93.8 C232.32,89.704 229.216,86.408 224.448,86.408 C223.36,86.408 222.048,86.792 221.504,87.08 L221.44,87.08 C221.44,87.08 221.568,86.632 221.632,85.928 L222.144,81.16 L230.816,81.16 L230.816,78.408 L219.392,78.408 L218.272,89.608 L220.128,90.28 C221.184,89.576 222.624,89.16 223.936,89.16 C226.848,89.16 229.056,91.08 229.056,93.8 C229.056,96.552 226.784,98.376 224.128,98.376 C221.792,98.376 220.128,97.128 219.168,95.944 L217.376,98.248 Z M243.776,101.384 C237.76,101.384 235.776,96.2 235.776,89.672 C235.776,83.176 237.76,78.024 243.776,78.024 C249.824,78.024 251.776,83.176 251.776,89.672 C251.776,96.2 249.824,101.384 243.776,101.384 Z M243.776,98.472 C247.488,98.472 248.512,94.632 248.512,89.672 C248.512,84.776 247.488,80.936 243.776,80.936 C240.096,80.936 239.04,84.776 239.04,89.672 C239.04,94.632 240.096,98.472 243.776,98.472 Z M263.136,92.904 C263.136,87.752 266.176,84.424 270.464,84.424 C272.512,84.424 274.464,85.352 275.488,87.08 L275.552,87.08 C275.552,87.08 275.488,86.6 275.488,85.992 L275.488,78.408 L278.56,78.408 L278.56,101 L275.616,101 L275.616,99.368 C275.616,98.728 275.712,98.28 275.712,98.28 L275.648,98.28 C274.72,100.04 272.832,101.384 270.272,101.384 C265.92,101.384 263.136,97.928 263.136,92.904 Z M266.304,92.904 C266.304,96.424 268.192,98.696 270.88,98.696 C273.28,98.696 275.552,96.968 275.552,92.872 C275.552,89.96 274.048,87.144 270.944,87.144 C268.416,87.144 266.304,89.224 266.304,92.904 Z M282.016,96.584 C282.016,91.496 288.32,90.92 291.68,90.92 L292.512,90.92 L292.512,90.6 C292.512,87.944 290.976,87.048 288.96,87.048 C287.36,87.048 285.728,87.688 284.416,88.616 L283.168,86.344 C284.48,85.256 286.944,84.424 289.216,84.424 C293.28,84.424 295.616,86.664 295.616,90.76 L295.616,101 L292.704,101 L292.704,99.368 C292.704,98.632 292.8,98.088 292.8,98.088 L292.736,98.088 C291.808,99.944 289.824,101.384 287.424,101.384 C284.608,101.384 282.016,99.624 282.016,96.584 Z M285.12,96.328 C285.12,97.608 286.144,98.92 288.16,98.92 C290.88,98.92 292.512,96.168 292.512,93.768 L292.512,93.16 L291.712,93.16 C289.408,93.16 285.12,93.352 285.12,96.328 Z M299.104,104.36 L298.016,106.728 C298.016,106.728 299.328,107.72 301.12,107.72 C303.392,107.72 305.408,106.44 306.368,103.912 L313.984,84.808 L310.624,84.808 L306.688,95.432 C306.4,96.264 306.144,97.352 306.144,97.352 L306.08,97.352 C306.08,97.352 305.792,96.2 305.472,95.4 L301.408,84.808 L297.92,84.808 L304.704,100.808 L303.904,102.664 C303.296,104.136 302.24,105.064 300.96,105.064 C300,105.064 299.104,104.36 299.104,104.36 Z" id="150-day" fill="#181920"></path>
                    <path d="M401.088,94.952 L401.088,92.968 L411.552,78.408 L415.136,78.408 L415.136,92.296 L418.208,92.296 L418.208,94.952 L415.136,94.952 L415.136,101 L412.032,101 L412.032,94.952 L401.088,94.952 Z M404.576,92.296 L412.032,92.296 L412.032,84.04 C412.032,82.984 412.16,81.768 412.16,81.768 L412.096,81.768 C412.096,81.768 411.584,82.856 410.976,83.656 L404.576,92.232 L404.576,92.296 Z M421.76,93.256 L431.104,93.256 L431.104,90.504 L421.76,90.504 L421.76,93.256 Z M434.432,94.952 L434.432,92.968 L444.896,78.408 L448.48,78.408 L448.48,92.296 L451.552,92.296 L451.552,94.952 L448.48,94.952 L448.48,101 L445.376,101 L445.376,94.952 L434.432,94.952 Z M437.92,92.296 L445.376,92.296 L445.376,84.04 C445.376,82.984 445.504,81.768 445.504,81.768 L445.44,81.768 C445.44,81.768 444.928,82.856 444.32,83.656 L437.92,92.232 L437.92,92.296 Z M455.104,101 L458.432,101 L458.432,97.64 L455.104,97.64 L455.104,101 Z M462.24,98.248 C463.936,100.296 466.528,101.384 469.184,101.384 C473.728,101.384 477.184,98.12 477.184,93.8 C477.184,89.704 474.08,86.408 469.312,86.408 C468.224,86.408 466.912,86.792 466.368,87.08 L466.304,87.08 C466.304,87.08 466.432,86.632 466.496,85.928 L467.008,81.16 L475.68,81.16 L475.68,78.408 L464.256,78.408 L463.136,89.608 L464.992,90.28 C466.048,89.576 467.488,89.16 468.8,89.16 C471.712,89.16 473.92,91.08 473.92,93.8 C473.92,96.552 471.648,98.376 468.992,98.376 C466.656,98.376 464.992,97.128 464.032,95.944 L462.24,98.248 Z M489.664,101 L503.36,101 L503.36,98.248 L492.832,98.248 L492.832,90.984 L500.928,90.984 L500.928,88.232 L492.832,88.232 L492.832,81.16 L502.816,81.16 L502.816,78.408 L489.664,78.408 L489.664,101 Z M512.992,101 L516.128,101 L516.128,81.16 L523.904,81.16 L523.904,78.408 L505.216,78.408 L505.216,81.16 L512.992,81.16 L512.992,101 Z M527.392,101 L530.56,101 L530.56,91.08 L542.304,91.08 L542.304,101 L545.44,101 L545.44,78.408 L542.304,78.408 L542.304,88.328 L530.56,88.328 L530.56,78.408 L527.392,78.408 L527.392,101 Z" id="4-4.5-ЕTH" fill="#181920"></path>
                    <path d="M601.856,31 L616.928,31 L616.928,27.448 L606.208,27.448 C606.4,23.16 616.576,21.912 616.576,14.616 C616.576,10.328 613.152,7.896 609.184,7.896 C605.536,7.896 602.976,10.008 601.664,12.44 L604.736,14.488 C605.568,13.016 607.104,11.8 608.832,11.8 C610.752,11.8 612.288,12.984 612.288,14.968 C612.288,19.48 601.664,20.792 601.664,28.984 C601.664,29.624 601.728,30.264 601.856,31 Z M629.408,31 L629.408,8.28 L637.152,8.28 C644.16,8.28 648.736,12.44 648.736,19.608 C648.736,26.776 644.16,31 637.152,31 L629.408,31 Z M633.536,27.448 L636.928,27.448 C641.536,27.448 644.48,24.728 644.48,19.608 C644.48,14.552 641.472,11.832 636.928,11.832 L633.536,11.832 L633.536,27.448 Z M652.992,31 L657.12,31 L657.12,21.464 L667.52,21.464 L667.52,31 L671.616,31 L671.616,8.28 L667.52,8.28 L667.52,17.912 L657.12,17.912 L657.12,8.28 L652.992,8.28 L652.992,31 Z M682.272,31 L686.368,31 L686.368,11.832 L693.824,11.832 L693.824,8.28 L674.816,8.28 L674.816,11.832 L682.272,11.832 L682.272,31 Z" id="2-DHT" fill="#303498"></path>
                    <path d="M602.944,171 L606.24,171 L616.416,150.584 L616.416,148.408 L601.312,148.408 L601.312,151.16 L611.424,151.16 C612.576,151.16 613.024,151.096 613.024,151.096 L613.024,151.16 C613.024,151.16 612.416,151.928 611.744,153.24 L602.944,171 Z M628.16,171 L628.16,148.408 L635.68,148.408 C642.56,148.408 647.104,152.536 647.104,159.672 C647.104,166.84 642.56,171 635.68,171 L628.16,171 Z M631.328,168.248 L635.456,168.248 C640.512,168.248 643.84,165.272 643.84,159.672 C643.84,154.136 640.48,151.16 635.456,151.16 L631.328,151.16 L631.328,168.248 Z M651.744,171 L654.912,171 L654.912,161.08 L666.656,161.08 L666.656,171 L669.792,171 L669.792,148.408 L666.656,148.408 L666.656,158.328 L654.912,158.328 L654.912,148.408 L651.744,148.408 L651.744,171 Z M681.024,171 L684.16,171 L684.16,151.16 L691.936,151.16 L691.936,148.408 L673.248,148.408 L673.248,151.16 L681.024,151.16 L681.024,171 Z" id="7-DHT" fill="#181920"></path>
                    <path d="M601.824,101 L614.848,101 L614.848,98.248 L609.888,98.248 L609.888,78.408 L607.072,78.408 L601.664,83.656 L603.584,85.64 L605.696,83.592 C606.528,82.76 606.784,82.28 606.784,82.28 L606.848,82.28 C606.848,82.28 606.816,82.952 606.816,83.656 L606.816,98.248 L601.824,98.248 L601.824,101 Z M616.512,94.952 L616.512,92.968 L626.976,78.408 L630.56,78.408 L630.56,92.296 L633.632,92.296 L633.632,94.952 L630.56,94.952 L630.56,101 L627.456,101 L627.456,94.952 L616.512,94.952 Z M620,92.296 L627.456,92.296 L627.456,84.04 C627.456,82.984 627.584,81.768 627.584,81.768 L627.52,81.768 C627.52,81.768 627.008,82.856 626.4,83.656 L620,92.232 L620,92.296 Z M645.92,101 L645.92,78.408 L653.44,78.408 C660.32,78.408 664.864,82.536 664.864,89.672 C664.864,96.84 660.32,101 653.44,101 L645.92,101 Z M649.088,98.248 L653.216,98.248 C658.272,98.248 661.6,95.272 661.6,89.672 C661.6,84.136 658.24,81.16 653.216,81.16 L649.088,81.16 L649.088,98.248 Z M669.504,101 L672.672,101 L672.672,91.08 L684.416,91.08 L684.416,101 L687.552,101 L687.552,78.408 L684.416,78.408 L684.416,88.328 L672.672,88.328 L672.672,78.408 L669.504,78.408 L669.504,101 Z M698.784,101 L701.92,101 L701.92,81.16 L709.696,81.16 L709.696,78.408 L691.008,78.408 L691.008,81.16 L698.784,81.16 L698.784,101 Z" id="14-DHT" fill="#181920"></path>
                </g>
                <g id="Group-Copy" transform="translate(60.000000, 111.000000)" fill="#181920" opacity="0.5">
                    <g id="Group-3">
                        <path d="M5.676,22 L5.676,8.36 L0.33,8.36 L0.33,6.468 L13.178,6.468 L13.178,8.36 L7.832,8.36 L7.832,22 L5.676,22 Z M12.342,16.412 C12.342,13.046 15.026,10.604 18.326,10.604 C21.648,10.604 24.332,13.046 24.332,16.412 C24.332,19.8 21.648,22.264 18.348,22.264 C15.026,22.264 12.342,19.8 12.342,16.412 Z M14.52,16.412 C14.52,18.744 16.236,20.416 18.348,20.416 C20.438,20.416 22.176,18.744 22.176,16.412 C22.176,14.102 20.438,12.452 18.348,12.452 C16.236,12.452 14.52,14.102 14.52,16.412 Z M26.906,22 L29.04,22 L29.04,16.786 L30.668,16.786 L33.99,22 L36.476,22 L32.362,15.818 L32.362,15.774 L36.058,10.868 L33.638,10.868 L30.624,14.96 L29.04,14.96 L29.04,6.468 L26.906,6.468 L26.906,22 Z M37.224,16.434 C37.224,12.892 39.644,10.604 42.812,10.604 C45.958,10.604 47.63,12.958 47.63,15.818 C47.63,16.104 47.586,16.412 47.542,16.72 L39.446,16.72 C39.556,19.118 41.272,20.416 43.274,20.416 C44.462,20.416 45.672,19.91 46.552,19.118 L47.454,20.68 C46.376,21.67 44.682,22.264 43.142,22.264 C39.644,22.264 37.224,19.734 37.224,16.434 Z M39.512,15.18 L45.474,15.18 C45.408,13.266 44.22,12.254 42.768,12.254 C41.118,12.254 39.82,13.332 39.512,15.18 Z M50.204,22 L52.338,22 L52.338,16.654 C52.338,14.366 53.878,12.562 56.056,12.562 C57.838,12.562 58.146,13.794 58.146,15.356 L58.146,22 L60.28,22 L60.28,14.872 C60.28,12.034 59.092,10.604 56.474,10.604 C54.032,10.604 52.668,12.254 52.25,13.222 L52.206,13.222 C52.206,13.222 52.272,12.848 52.272,12.386 L52.272,10.868 L50.204,10.868 L50.204,22 Z M1.65,52 L3.784,52 L3.784,46.654 C3.784,44.366 5.324,42.562 7.502,42.562 C9.284,42.562 9.592,43.794 9.592,45.356 L9.592,52 L11.726,52 L11.726,44.872 C11.726,42.034 10.538,40.604 7.92,40.604 C5.478,40.604 4.114,42.254 3.696,43.222 L3.652,43.222 C3.652,43.222 3.718,42.848 3.718,42.386 L3.718,40.868 L1.65,40.868 L1.65,52 Z M13.992,48.964 C13.992,45.466 18.326,45.07 20.636,45.07 L21.208,45.07 L21.208,44.85 C21.208,43.024 20.152,42.408 18.766,42.408 C17.666,42.408 16.544,42.848 15.642,43.486 L14.784,41.924 C15.686,41.176 17.38,40.604 18.942,40.604 C21.736,40.604 23.342,42.144 23.342,44.96 L23.342,52 L21.34,52 L21.34,50.878 C21.34,50.372 21.406,49.998 21.406,49.998 L21.362,49.998 C20.724,51.274 19.36,52.264 17.71,52.264 C15.774,52.264 13.992,51.054 13.992,48.964 Z M16.126,48.788 C16.126,49.668 16.83,50.57 18.216,50.57 C20.086,50.57 21.208,48.678 21.208,47.028 L21.208,46.61 L20.658,46.61 C19.074,46.61 16.126,46.742 16.126,48.788 Z M26.51,52 L28.644,52 L28.644,46.808 C28.644,44.74 29.876,42.54 31.988,42.54 C33.682,42.54 33.902,43.882 33.902,45.334 L33.902,52 L36.036,52 L36.036,46.808 C36.036,44.674 37.268,42.54 39.336,42.54 C40.986,42.54 41.294,43.772 41.294,45.334 L41.294,52 L43.428,52 L43.428,44.872 C43.428,42.034 42.284,40.604 39.754,40.604 C37.95,40.604 36.41,41.836 35.794,43.134 L35.75,43.134 C35.376,41.462 34.298,40.604 32.428,40.604 C30.668,40.604 29.084,41.924 28.556,43.222 L28.512,43.222 C28.512,43.222 28.578,42.848 28.578,42.386 L28.578,40.868 L26.51,40.868 L26.51,52 Z M45.892,46.434 C45.892,42.892 48.312,40.604 51.48,40.604 C54.626,40.604 56.298,42.958 56.298,45.818 C56.298,46.104 56.254,46.412 56.21,46.72 L48.114,46.72 C48.224,49.118 49.94,50.416 51.942,50.416 C53.13,50.416 54.34,49.91 55.22,49.118 L56.122,50.68 C55.044,51.67 53.35,52.264 51.81,52.264 C48.312,52.264 45.892,49.734 45.892,46.434 Z M48.18,45.18 L54.142,45.18 C54.076,43.266 52.888,42.254 51.436,42.254 C49.786,42.254 48.488,43.332 48.18,45.18 Z" id="Token-name"></path>
                        <path d="M202.046,22 L204.224,22 L204.224,6.468 L202.046,6.468 L202.046,22 Z M207.81,22 L209.944,22 L209.944,16.654 C209.944,14.366 211.484,12.562 213.662,12.562 C215.444,12.562 215.752,13.794 215.752,15.356 L215.752,22 L217.886,22 L217.886,14.872 C217.886,12.034 216.698,10.604 214.08,10.604 C211.638,10.604 210.274,12.254 209.856,13.222 L209.812,13.222 C209.812,13.222 209.878,12.848 209.878,12.386 L209.878,10.868 L207.81,10.868 L207.81,22 Z M220.13,20.636 C221.23,21.758 222.88,22.264 224.376,22.264 C226.752,22.264 228.38,20.878 228.38,18.986 C228.38,15.312 222.638,15.95 222.638,13.772 C222.638,12.826 223.452,12.386 224.53,12.386 C225.52,12.386 226.686,12.76 227.346,13.376 L228.204,11.836 C227.236,10.956 225.872,10.604 224.596,10.604 C222.418,10.604 220.592,11.704 220.592,13.816 C220.592,17.468 226.312,16.896 226.312,19.03 C226.312,19.954 225.542,20.482 224.42,20.482 C223.254,20.482 221.978,19.998 221.142,19.184 L220.13,20.636 Z M230.778,17.996 C230.778,20.944 232.076,22.264 234.584,22.264 C236.762,22.264 238.236,20.746 238.72,19.646 L238.764,19.646 C238.764,19.646 238.676,20.02 238.676,20.46 L238.676,22 L240.744,22 L240.744,10.868 L238.632,10.868 L238.632,16.082 C238.632,18.282 237.29,20.284 235.002,20.284 C233.242,20.284 232.912,19.052 232.912,17.512 L232.912,10.868 L230.778,10.868 L230.778,17.996 Z M244.044,22 L246.178,22 L246.178,17.38 C246.178,15.224 247.19,12.848 249.588,12.848 C249.808,12.848 250.116,12.87 250.204,12.892 L250.204,10.78 C250.028,10.758 249.83,10.736 249.632,10.736 C247.916,10.736 246.618,12.078 246.09,13.684 L246.046,13.684 C246.046,13.684 246.112,13.332 246.112,12.87 L246.112,10.868 L244.044,10.868 L244.044,22 Z M251.26,18.964 C251.26,15.466 255.594,15.07 257.904,15.07 L258.476,15.07 L258.476,14.85 C258.476,13.024 257.42,12.408 256.034,12.408 C254.934,12.408 253.812,12.848 252.91,13.486 L252.052,11.924 C252.954,11.176 254.648,10.604 256.21,10.604 C259.004,10.604 260.61,12.144 260.61,14.96 L260.61,22 L258.608,22 L258.608,20.878 C258.608,20.372 258.674,19.998 258.674,19.998 L258.63,19.998 C257.992,21.274 256.628,22.264 254.978,22.264 C253.042,22.264 251.26,21.054 251.26,18.964 Z M253.394,18.788 C253.394,19.668 254.098,20.57 255.484,20.57 C257.354,20.57 258.476,18.678 258.476,17.028 L258.476,16.61 L257.926,16.61 C256.342,16.61 253.394,16.742 253.394,18.788 Z M263.778,22 L265.912,22 L265.912,16.654 C265.912,14.366 267.452,12.562 269.63,12.562 C271.412,12.562 271.72,13.794 271.72,15.356 L271.72,22 L273.854,22 L273.854,14.872 C273.854,12.034 272.666,10.604 270.048,10.604 C267.606,10.604 266.242,12.254 265.824,13.222 L265.78,13.222 C265.78,13.222 265.846,12.848 265.846,12.386 L265.846,10.868 L263.778,10.868 L263.778,22 Z M276.318,16.434 C276.318,19.778 278.76,22.264 282.28,22.264 C284.018,22.264 285.712,21.56 286.724,20.482 L285.866,18.92 C285.008,19.822 283.666,20.416 282.434,20.416 C280.124,20.416 278.496,18.678 278.496,16.412 C278.496,14.146 280.124,12.452 282.368,12.452 C283.534,12.452 284.7,12.98 285.448,13.728 L286.46,12.232 C285.404,11.11 283.754,10.604 282.28,10.604 C278.782,10.604 276.318,13.134 276.318,16.434 Z M288.066,16.434 C288.066,12.892 290.486,10.604 293.654,10.604 C296.8,10.604 298.472,12.958 298.472,15.818 C298.472,16.104 298.428,16.412 298.384,16.72 L290.288,16.72 C290.398,19.118 292.114,20.416 294.116,20.416 C295.304,20.416 296.514,19.91 297.394,19.118 L298.296,20.68 C297.218,21.67 295.524,22.264 293.984,22.264 C290.486,22.264 288.066,19.734 288.066,16.434 Z M290.354,15.18 L296.316,15.18 C296.25,13.266 295.062,12.254 293.61,12.254 C291.96,12.254 290.662,13.332 290.354,15.18 Z M201.65,56.4 L201.65,40.868 L203.63,40.868 L203.63,41.858 C203.63,42.32 203.564,42.694 203.564,42.694 L203.608,42.694 C204.312,41.352 205.72,40.604 207.348,40.604 C210.362,40.604 212.232,42.98 212.232,46.434 C212.232,49.976 210.12,52.264 207.194,52.264 C205.786,52.264 204.51,51.56 203.74,50.372 L203.696,50.372 C203.696,50.372 203.784,50.768 203.784,51.34 L203.784,56.4 L201.65,56.4 Z M203.718,46.478 C203.718,48.458 204.818,50.416 206.864,50.416 C208.624,50.416 210.076,48.986 210.076,46.456 C210.076,44.036 208.778,42.474 206.93,42.474 C205.258,42.474 203.718,43.662 203.718,46.478 Z M214.146,46.434 C214.146,42.892 216.566,40.604 219.734,40.604 C222.88,40.604 224.552,42.958 224.552,45.818 C224.552,46.104 224.508,46.412 224.464,46.72 L216.368,46.72 C216.478,49.118 218.194,50.416 220.196,50.416 C221.384,50.416 222.594,49.91 223.474,49.118 L224.376,50.68 C223.298,51.67 221.604,52.264 220.064,52.264 C216.566,52.264 214.146,49.734 214.146,46.434 Z M216.434,45.18 L222.396,45.18 C222.33,43.266 221.142,42.254 219.69,42.254 C218.04,42.254 216.742,43.332 216.434,45.18 Z M227.126,52 L229.26,52 L229.26,47.38 C229.26,45.224 230.272,42.848 232.67,42.848 C232.89,42.848 233.198,42.87 233.286,42.892 L233.286,40.78 C233.11,40.758 232.912,40.736 232.714,40.736 C230.998,40.736 229.7,42.078 229.172,43.684 L229.128,43.684 C229.128,43.684 229.194,43.332 229.194,42.87 L229.194,40.868 L227.126,40.868 L227.126,52 Z M235.354,38.624 L237.554,38.624 L237.554,36.468 L235.354,36.468 L235.354,38.624 Z M235.398,52 L237.532,52 L237.532,40.868 L235.398,40.868 L235.398,52 Z M240.084,46.412 C240.084,43.046 242.768,40.604 246.068,40.604 C249.39,40.604 252.074,43.046 252.074,46.412 C252.074,49.8 249.39,52.264 246.09,52.264 C242.768,52.264 240.084,49.8 240.084,46.412 Z M242.262,46.412 C242.262,48.744 243.978,50.416 246.09,50.416 C248.18,50.416 249.918,48.744 249.918,46.412 C249.918,44.102 248.18,42.452 246.09,42.452 C243.978,42.452 242.262,44.102 242.262,46.412 Z M253.966,46.434 C253.966,42.892 256.056,40.604 259.004,40.604 C260.412,40.604 261.754,41.242 262.458,42.43 L262.502,42.43 C262.502,42.43 262.458,42.1 262.458,41.682 L262.458,36.468 L264.57,36.468 L264.57,52 L262.546,52 L262.546,50.878 C262.546,50.438 262.612,50.13 262.612,50.13 L262.568,50.13 C261.93,51.34 260.632,52.264 258.872,52.264 C255.88,52.264 253.966,49.888 253.966,46.434 Z M256.144,46.434 C256.144,48.854 257.442,50.416 259.29,50.416 C260.94,50.416 262.502,49.228 262.502,46.412 C262.502,44.41 261.468,42.474 259.334,42.474 C257.596,42.474 256.144,43.904 256.144,46.434 Z" id="Insurance-period"></path>
                        <path d="M402.046,22 L402.046,6.468 L407.744,6.468 C410.582,6.468 412.606,8.382 412.606,11.33 C412.606,14.278 410.582,16.258 407.744,16.258 L404.224,16.258 L404.224,22 L402.046,22 Z M404.224,14.366 L407.392,14.366 C409.24,14.366 410.406,13.2 410.406,11.33 C410.406,9.482 409.24,8.36 407.414,8.36 L404.224,8.36 L404.224,14.366 Z M414.872,22 L417.006,22 L417.006,17.38 C417.006,15.224 418.018,12.848 420.416,12.848 C420.636,12.848 420.944,12.87 421.032,12.892 L421.032,10.78 C420.856,10.758 420.658,10.736 420.46,10.736 C418.744,10.736 417.446,12.078 416.918,13.684 L416.874,13.684 C416.874,13.684 416.94,13.332 416.94,12.87 L416.94,10.868 L414.872,10.868 L414.872,22 Z M423.1,8.624 L425.3,8.624 L425.3,6.468 L423.1,6.468 L423.1,8.624 Z M423.144,22 L425.278,22 L425.278,10.868 L423.144,10.868 L423.144,22 Z M427.83,16.434 C427.83,19.778 430.272,22.264 433.792,22.264 C435.53,22.264 437.224,21.56 438.236,20.482 L437.378,18.92 C436.52,19.822 435.178,20.416 433.946,20.416 C431.636,20.416 430.008,18.678 430.008,16.412 C430.008,14.146 431.636,12.452 433.88,12.452 C435.046,12.452 436.212,12.98 436.96,13.728 L437.972,12.232 C436.916,11.11 435.266,10.604 433.792,10.604 C430.294,10.604 427.83,13.134 427.83,16.434 Z M439.578,16.434 C439.578,12.892 441.998,10.604 445.166,10.604 C448.312,10.604 449.984,12.958 449.984,15.818 C449.984,16.104 449.94,16.412 449.896,16.72 L441.8,16.72 C441.91,19.118 443.626,20.416 445.628,20.416 C446.816,20.416 448.026,19.91 448.906,19.118 L449.808,20.68 C448.73,21.67 447.036,22.264 445.496,22.264 C441.998,22.264 439.578,19.734 439.578,16.434 Z M441.866,15.18 L447.828,15.18 C447.762,13.266 446.574,12.254 445.122,12.254 C443.472,12.254 442.174,13.332 441.866,15.18 Z M458.058,22 L460.192,22 L460.192,17.38 C460.192,15.224 461.204,12.848 463.602,12.848 C463.822,12.848 464.13,12.87 464.218,12.892 L464.218,10.78 C464.042,10.758 463.844,10.736 463.646,10.736 C461.93,10.736 460.632,12.078 460.104,13.684 L460.06,13.684 C460.06,13.684 460.126,13.332 460.126,12.87 L460.126,10.868 L458.058,10.868 L458.058,22 Z M465.274,18.964 C465.274,15.466 469.608,15.07 471.918,15.07 L472.49,15.07 L472.49,14.85 C472.49,13.024 471.434,12.408 470.048,12.408 C468.948,12.408 467.826,12.848 466.924,13.486 L466.066,11.924 C466.968,11.176 468.662,10.604 470.224,10.604 C473.018,10.604 474.624,12.144 474.624,14.96 L474.624,22 L472.622,22 L472.622,20.878 C472.622,20.372 472.688,19.998 472.688,19.998 L472.644,19.998 C472.006,21.274 470.642,22.264 468.992,22.264 C467.056,22.264 465.274,21.054 465.274,18.964 Z M467.408,18.788 C467.408,19.668 468.112,20.57 469.498,20.57 C471.368,20.57 472.49,18.678 472.49,17.028 L472.49,16.61 L471.94,16.61 C470.356,16.61 467.408,16.742 467.408,18.788 Z M477.792,22 L479.926,22 L479.926,16.654 C479.926,14.366 481.466,12.562 483.644,12.562 C485.426,12.562 485.734,13.794 485.734,15.356 L485.734,22 L487.868,22 L487.868,14.872 C487.868,12.034 486.68,10.604 484.062,10.604 C481.62,10.604 480.256,12.254 479.838,13.222 L479.794,13.222 C479.794,13.222 479.86,12.848 479.86,12.386 L479.86,10.868 L477.792,10.868 L477.792,22 Z M492.114,24.024 C492.994,24.464 494.094,24.772 495.172,24.772 C497.108,24.772 498.692,23.892 498.692,21.67 L498.692,20.768 C498.692,20.416 498.758,20.064 498.758,20.064 L498.714,20.064 C498.054,21.164 496.976,21.868 495.37,21.868 C492.268,21.868 490.398,19.382 490.398,16.192 C490.398,12.98 492.158,10.604 495.26,10.604 C496.646,10.604 498.076,11.11 498.78,12.298 L498.846,12.298 C498.846,12.298 498.78,12.166 498.78,11.968 L498.78,10.868 L500.826,10.868 L500.826,21.538 C500.826,25.212 498.032,26.62 495.216,26.62 C493.874,26.62 492.51,26.246 491.41,25.696 L492.114,24.024 Z M492.554,16.126 C492.554,18.436 493.786,20.02 495.788,20.02 C497.328,20.02 498.736,19.096 498.736,16.192 C498.736,13.288 497.328,12.452 495.59,12.452 C493.676,12.452 492.554,13.86 492.554,16.126 Z M503.4,16.434 C503.4,12.892 505.82,10.604 508.988,10.604 C512.134,10.604 513.806,12.958 513.806,15.818 C513.806,16.104 513.762,16.412 513.718,16.72 L505.622,16.72 C505.732,19.118 507.448,20.416 509.45,20.416 C510.638,20.416 511.848,19.91 512.728,19.118 L513.63,20.68 C512.552,21.67 510.858,22.264 509.318,22.264 C505.82,22.264 503.4,19.734 503.4,16.434 Z M505.688,15.18 L511.65,15.18 C511.584,13.266 510.396,12.254 508.944,12.254 C507.294,12.254 505.996,13.332 505.688,15.18 Z" id="Price-range"></path>
                        <path d="M602.046,22 L604.224,22 L604.224,6.468 L602.046,6.468 L602.046,22 Z M607.81,22 L609.944,22 L609.944,16.654 C609.944,14.366 611.484,12.562 613.662,12.562 C615.444,12.562 615.752,13.794 615.752,15.356 L615.752,22 L617.886,22 L617.886,14.872 C617.886,12.034 616.698,10.604 614.08,10.604 C611.638,10.604 610.274,12.254 609.856,13.222 L609.812,13.222 C609.812,13.222 609.878,12.848 609.878,12.386 L609.878,10.868 L607.81,10.868 L607.81,22 Z M620.13,20.636 C621.23,21.758 622.88,22.264 624.376,22.264 C626.752,22.264 628.38,20.878 628.38,18.986 C628.38,15.312 622.638,15.95 622.638,13.772 C622.638,12.826 623.452,12.386 624.53,12.386 C625.52,12.386 626.686,12.76 627.346,13.376 L628.204,11.836 C627.236,10.956 625.872,10.604 624.596,10.604 C622.418,10.604 620.592,11.704 620.592,13.816 C620.592,17.468 626.312,16.896 626.312,19.03 C626.312,19.954 625.542,20.482 624.42,20.482 C623.254,20.482 621.978,19.998 621.142,19.184 L620.13,20.636 Z M630.778,17.996 C630.778,20.944 632.076,22.264 634.584,22.264 C636.762,22.264 638.236,20.746 638.72,19.646 L638.764,19.646 C638.764,19.646 638.676,20.02 638.676,20.46 L638.676,22 L640.744,22 L640.744,10.868 L638.632,10.868 L638.632,16.082 C638.632,18.282 637.29,20.284 635.002,20.284 C633.242,20.284 632.912,19.052 632.912,17.512 L632.912,10.868 L630.778,10.868 L630.778,17.996 Z M644.044,22 L646.178,22 L646.178,17.38 C646.178,15.224 647.19,12.848 649.588,12.848 C649.808,12.848 650.116,12.87 650.204,12.892 L650.204,10.78 C650.028,10.758 649.83,10.736 649.632,10.736 C647.916,10.736 646.618,12.078 646.09,13.684 L646.046,13.684 C646.046,13.684 646.112,13.332 646.112,12.87 L646.112,10.868 L644.044,10.868 L644.044,22 Z M651.26,18.964 C651.26,15.466 655.594,15.07 657.904,15.07 L658.476,15.07 L658.476,14.85 C658.476,13.024 657.42,12.408 656.034,12.408 C654.934,12.408 653.812,12.848 652.91,13.486 L652.052,11.924 C652.954,11.176 654.648,10.604 656.21,10.604 C659.004,10.604 660.61,12.144 660.61,14.96 L660.61,22 L658.608,22 L658.608,20.878 C658.608,20.372 658.674,19.998 658.674,19.998 L658.63,19.998 C657.992,21.274 656.628,22.264 654.978,22.264 C653.042,22.264 651.26,21.054 651.26,18.964 Z M653.394,18.788 C653.394,19.668 654.098,20.57 655.484,20.57 C657.354,20.57 658.476,18.678 658.476,17.028 L658.476,16.61 L657.926,16.61 C656.342,16.61 653.394,16.742 653.394,18.788 Z M663.778,22 L665.912,22 L665.912,16.654 C665.912,14.366 667.452,12.562 669.63,12.562 C671.412,12.562 671.72,13.794 671.72,15.356 L671.72,22 L673.854,22 L673.854,14.872 C673.854,12.034 672.666,10.604 670.048,10.604 C667.606,10.604 666.242,12.254 665.824,13.222 L665.78,13.222 C665.78,13.222 665.846,12.848 665.846,12.386 L665.846,10.868 L663.778,10.868 L663.778,22 Z M676.318,16.434 C676.318,19.778 678.76,22.264 682.28,22.264 C684.018,22.264 685.712,21.56 686.724,20.482 L685.866,18.92 C685.008,19.822 683.666,20.416 682.434,20.416 C680.124,20.416 678.496,18.678 678.496,16.412 C678.496,14.146 680.124,12.452 682.368,12.452 C683.534,12.452 684.7,12.98 685.448,13.728 L686.46,12.232 C685.404,11.11 683.754,10.604 682.28,10.604 C678.782,10.604 676.318,13.134 676.318,16.434 Z M688.066,16.434 C688.066,12.892 690.486,10.604 693.654,10.604 C696.8,10.604 698.472,12.958 698.472,15.818 C698.472,16.104 698.428,16.412 698.384,16.72 L690.288,16.72 C690.398,19.118 692.114,20.416 694.116,20.416 C695.304,20.416 696.514,19.91 697.394,19.118 L698.296,20.68 C697.218,21.67 695.524,22.264 693.984,22.264 C690.486,22.264 688.066,19.734 688.066,16.434 Z M690.354,15.18 L696.316,15.18 C696.25,13.266 695.062,12.254 693.61,12.254 C691.96,12.254 690.662,13.332 690.354,15.18 Z M600.924,46.434 C600.924,49.778 603.366,52.264 606.886,52.264 C608.624,52.264 610.318,51.56 611.33,50.482 L610.472,48.92 C609.614,49.822 608.272,50.416 607.04,50.416 C604.73,50.416 603.102,48.678 603.102,46.412 C603.102,44.146 604.73,42.452 606.974,42.452 C608.14,42.452 609.306,42.98 610.054,43.728 L611.066,42.232 C610.01,41.11 608.36,40.604 606.886,40.604 C603.388,40.604 600.924,43.134 600.924,46.434 Z M612.65,46.412 C612.65,43.046 615.334,40.604 618.634,40.604 C621.956,40.604 624.64,43.046 624.64,46.412 C624.64,49.8 621.956,52.264 618.656,52.264 C615.334,52.264 612.65,49.8 612.65,46.412 Z M614.828,46.412 C614.828,48.744 616.544,50.416 618.656,50.416 C620.746,50.416 622.484,48.744 622.484,46.412 C622.484,44.102 620.746,42.452 618.656,42.452 C616.544,42.452 614.828,44.102 614.828,46.412 Z M626.268,50.636 C627.368,51.758 629.018,52.264 630.514,52.264 C632.89,52.264 634.518,50.878 634.518,48.986 C634.518,45.312 628.776,45.95 628.776,43.772 C628.776,42.826 629.59,42.386 630.668,42.386 C631.658,42.386 632.824,42.76 633.484,43.376 L634.342,41.836 C633.374,40.956 632.01,40.604 630.734,40.604 C628.556,40.604 626.73,41.704 626.73,43.816 C626.73,47.468 632.45,46.896 632.45,49.03 C632.45,49.954 631.68,50.482 630.558,50.482 C629.392,50.482 628.116,49.998 627.28,49.184 L626.268,50.636 Z M637.51,47.93 C637.51,51.648 640.348,52.11 641.778,52.11 C642.108,52.11 642.35,52.066 642.526,52.044 L642.526,50.152 C642.306,50.196 642.174,50.196 642.02,50.196 C641.206,50.196 639.644,49.91 639.644,47.688 L639.644,42.716 L642.328,42.716 L642.328,40.978 L639.644,40.978 L639.644,37.81 L637.554,37.81 L637.554,40.978 L636.058,40.978 L636.058,42.716 L637.51,42.716 L637.51,47.93 Z" id="Insurance-cost"></path>
                    </g>
                </g>
                <path d="M460,440 L460,534" id="Line" stroke="#F6F6F9" stroke-width="8" stroke-linecap="square"></path>
                <path d="M380,542 L540,542" id="Line" stroke="#F6F6F9" stroke-width="8" stroke-linecap="round" stroke-linejoin="round"></path>
            </g>
            <g id="Group-6" transform="translate(180.000000, 29.000000)" stroke="#303498" stroke-width="2" stroke-linecap="round" stroke-linejoin="round">
                <polyline id="Line-2" transform="translate(531.000000, 261.000000) rotate(-180.000000) translate(-531.000000, -261.000000) " points="521 266 531.078526 256 541 266"></polyline>
                <path d="M0,0 L320,0 C463.77076,0 534.104094,88 531,264" id="Path-4"></path>
            </g>
        </g>
    </g>
</svg>