<?xml version="1.0" encoding="UTF-8"?>
<svg width="960px" height="750px" viewBox="0 0 960 750" version="1.1" xmlns="http://www.w3.org/2000/svg" xmlns:xlink="http://www.w3.org/1999/xlink">
    <!-- Generator: Sketch 46.1 (44463) - http://www.bohemiancoding.com/sketch -->
    <title>scheme-1-en</title>
    <desc>Created with Sketch.</desc>
    <defs></defs>
    <g id="Main" stroke="none" stroke-width="1" fill="none" fill-rule="evenodd">
        <g id="scheme-1-en">
            <g id="Group" transform="translate(0.000000, 13.000000)">
                <g id="Group-4" transform="translate(0.000000, 187.000000)">
                    <rect id="Rectangle-4" stroke="#F6F6F9" stroke-width="8" x="4" y="4" width="712" height="432" rx="10"></rect>
                    <path d="M62.752,66 L62.752,43.28 L70.496,43.28 C77.504,43.28 82.08,47.44 82.08,54.608 C82.08,61.776 77.504,66 70.496,66 L62.752,66 Z M66.88,62.448 L70.272,62.448 C74.88,62.448 77.824,59.728 77.824,54.608 C77.824,49.552 74.816,46.832 70.272,46.832 L66.88,46.832 L66.88,62.448 Z M84.768,57.84 C84.768,52.816 88.192,49.296 93.088,49.296 C97.76,49.296 100.32,52.72 100.32,57.04 C100.32,57.552 100.256,58.096 100.192,58.608 L88.96,58.608 C89.216,61.456 91.392,62.928 93.856,62.928 C95.52,62.928 97.216,62.192 98.528,61.136 L100.128,64.048 C98.464,65.52 95.904,66.384 93.568,66.384 C88.16,66.384 84.768,62.48 84.768,57.84 Z M89.056,55.824 L96.256,55.824 C96.224,53.648 94.816,52.368 92.992,52.368 C90.912,52.368 89.44,53.744 89.056,55.824 Z M104.032,66 L108.16,66 L108.16,56.464 L118.56,56.464 L118.56,66 L122.656,66 L122.656,43.28 L118.56,43.28 L118.56,52.912 L108.16,52.912 L108.16,43.28 L104.032,43.28 L104.032,66 Z M126.272,57.84 C126.272,52.816 129.696,49.296 134.592,49.296 C139.264,49.296 141.824,52.72 141.824,57.04 C141.824,57.552 141.76,58.096 141.696,58.608 L130.464,58.608 C130.72,61.456 132.896,62.928 135.36,62.928 C137.024,62.928 138.72,62.192 140.032,61.136 L141.632,64.048 C139.968,65.52 137.408,66.384 135.072,66.384 C129.664,66.384 126.272,62.48 126.272,57.84 Z M130.56,55.824 L137.76,55.824 C137.728,53.648 136.32,52.368 134.496,52.368 C132.416,52.368 130.944,53.744 130.56,55.824 Z M156.116641,64.3574664 L156.672,64.7184099 L156.672,64.592 C156.672,63.984 156.736,63.568 156.736,63.568 L156.672,63.568 C156.511328,63.8464975 156.325558,64.1106531 156.116641,64.3574664 Z M156.672,64.7184099 L156.116641,64.3574664 C155.077291,65.5853427 153.465032,66.384 151.52,66.384 C147.136,66.384 144.288,62.896 144.288,57.84 C144.288,52.656 147.36,49.296 151.68,49.296 C153.504,49.296 155.392,49.968 156.448,51.44 L156.512,51.44 C156.512,51.44 156.448,51.024 156.448,50.48 L156.448,43.28 L160.48,43.28 L160.48,66 L156.672,66 L156.672,64.7184099 Z M148.384,57.84 C148.384,60.944 150.048,62.96 152.448,62.96 C154.56,62.96 156.544,61.424 156.544,57.808 C156.544,55.28 155.232,52.784 152.48,52.784 C150.272,52.784 148.384,54.608 148.384,57.84 Z M175.327821,64.0664336 L175.84,64.3801958 L175.84,64.272 C175.84,63.888 175.904,63.408 175.904,63.408 L175.84,63.408 C175.68256,63.64416 175.51221,63.8639672 175.327821,64.0664336 Z M175.84,64.3801958 L175.327821,64.0664336 C174.387885,65.0985185 173.083136,65.68 171.264,65.68 C166.592,65.68 163.968,61.904 163.968,57.424 C163.968,52.944 166.464,49.296 171.168,49.296 C172.992,49.296 174.944,49.936 176.032,51.44 L176.128,51.44 C176.128,51.44 176.064,51.248 176.064,50.992 L176.064,49.68 L179.904,49.68 L179.904,65.008 C179.904,70.608 175.552,72.72 171.296,72.72 C169.248,72.72 167.072,72.144 165.472,71.312 L166.72,68.208 C168.032,68.848 169.632,69.264 171.232,69.264 C173.728,69.264 175.84,68.208 175.84,65.296 L175.84,64.3801958 Z M168.064,57.296 C168.064,60.144 169.504,62.256 172.16,62.256 C174.08,62.256 175.936,61.136 175.936,57.456 C175.936,53.744 174.08,52.752 171.904,52.752 C169.44,52.752 168.064,54.544 168.064,57.296 Z M183.264,57.84 C183.264,52.816 186.688,49.296 191.584,49.296 C196.256,49.296 198.816,52.72 198.816,57.04 C198.816,57.552 198.752,58.096 198.688,58.608 L187.456,58.608 C187.712,61.456 189.888,62.928 192.352,62.928 C194.016,62.928 195.712,62.192 197.024,61.136 L198.624,64.048 C196.96,65.52 194.4,66.384 192.064,66.384 C186.656,66.384 183.264,62.48 183.264,57.84 Z M187.552,55.824 L194.752,55.824 C194.72,53.648 193.312,52.368 191.488,52.368 C189.408,52.368 187.936,53.744 187.552,55.824 Z" id="DeHedge" fill="#303498"></path>
                    <g id="Group-Copy" transform="translate(60.000000, 110.000000)" fill="#181920" opacity="0.5">
                        <g id="Group-3">
                            <path d="M1.86,24 L3.84,24 L3.84,9.88 L1.86,9.88 L1.86,24 Z M6.72,16.86 C6.72,21 9.58,24.24 13.96,24.24 C16.46,24.24 18.22,23.2 19.42,22 L18.36,20.58 C17.22,21.72 15.6,22.42 14.02,22.42 C10.74,22.42 8.76,19.84 8.76,16.84 C8.76,13.86 10.7,11.44 13.98,11.44 C15.44,11.44 17.02,12.06 18.06,12.98 L19.06,11.5 C17.7,10.2 15.72,9.64 13.9,9.64 C9.7,9.64 6.72,12.76 6.72,16.86 Z M20.68,16.84 C20.68,12.78 23.74,9.64 27.94,9.64 C32.14,9.64 35.18,12.78 35.18,16.84 C35.18,21 32.14,24.24 27.94,24.24 C23.74,24.24 20.68,21 20.68,16.84 Z M22.72,16.84 C22.72,20 24.92,22.42 27.94,22.42 C30.94,22.42 33.14,20 33.14,16.84 C33.14,13.78 30.94,11.44 27.94,11.44 C24.92,11.44 22.72,13.78 22.72,16.84 Z M42.66,24 L44.6,24 L44.6,19.14 C44.6,17.06 46,15.42 47.98,15.42 C49.6,15.42 49.88,16.54 49.88,17.96 L49.88,24 L51.82,24 L51.82,17.52 C51.82,14.94 50.74,13.64 48.36,13.64 C46.14,13.64 44.9,15.14 44.52,16.02 L44.48,16.02 C44.48,16.02 44.54,15.68 44.54,15.26 L44.54,13.88 L42.66,13.88 L42.66,24 Z M53.88,21.24 C53.88,18.06 57.82,17.7 59.92,17.7 L60.44,17.7 L60.44,17.5 C60.44,15.84 59.48,15.28 58.22,15.28 C57.22,15.28 56.2,15.68 55.38,16.26 L54.6,14.84 C55.42,14.16 56.96,13.64 58.38,13.64 C60.92,13.64 62.38,15.04 62.38,17.6 L62.38,24 L60.56,24 L60.56,22.98 C60.56,22.52 60.62,22.18 60.62,22.18 L60.58,22.18 C60,23.34 58.76,24.24 57.26,24.24 C55.5,24.24 53.88,23.14 53.88,21.24 Z M55.82,21.08 C55.82,21.88 56.46,22.7 57.72,22.7 C59.42,22.7 60.44,20.98 60.44,19.48 L60.44,19.1 L59.94,19.1 C58.5,19.1 55.82,19.22 55.82,21.08 Z M65.26,24 L67.2,24 L67.2,19.28 C67.2,17.4 68.32,15.4 70.24,15.4 C71.78,15.4 71.98,16.62 71.98,17.94 L71.98,24 L73.92,24 L73.92,19.28 C73.92,17.34 75.04,15.4 76.92,15.4 C78.42,15.4 78.7,16.52 78.7,17.94 L78.7,24 L80.64,24 L80.64,17.52 C80.64,14.94 79.6,13.64 77.3,13.64 C75.66,13.64 74.26,14.76 73.7,15.94 L73.66,15.94 C73.32,14.42 72.34,13.64 70.64,13.64 C69.04,13.64 67.6,14.84 67.12,16.02 L67.08,16.02 C67.08,16.02 67.14,15.68 67.14,15.26 L67.14,13.88 L65.26,13.88 L65.26,24 Z M82.88,18.94 C82.88,15.72 85.08,13.64 87.96,13.64 C90.82,13.64 92.34,15.78 92.34,18.38 C92.34,18.64 92.3,18.92 92.26,19.2 L84.9,19.2 C85,21.38 86.56,22.56 88.38,22.56 C89.46,22.56 90.56,22.1 91.36,21.38 L92.18,22.8 C91.2,23.7 89.66,24.24 88.26,24.24 C85.08,24.24 82.88,21.94 82.88,18.94 Z M84.96,17.8 L90.38,17.8 C90.32,16.06 89.24,15.14 87.92,15.14 C86.42,15.14 85.24,16.12 84.96,17.8 Z" id="ICO-name"></path>
                            <path d="M201.86,19 L203.84,19 L203.84,4.88 L201.86,4.88 L201.86,19 Z M207.1,19 L209.04,19 L209.04,14.14 C209.04,12.06 210.44,10.42 212.42,10.42 C214.04,10.42 214.32,11.54 214.32,12.96 L214.32,19 L216.26,19 L216.26,12.52 C216.26,9.94 215.18,8.64 212.8,8.64 C210.58,8.64 209.34,10.14 208.96,11.02 L208.92,11.02 C208.92,11.02 208.98,10.68 208.98,10.26 L208.98,8.88 L207.1,8.88 L207.1,19 Z M218.3,17.76 C219.3,18.78 220.8,19.24 222.16,19.24 C224.32,19.24 225.8,17.98 225.8,16.26 C225.8,12.92 220.58,13.5 220.58,11.52 C220.58,10.66 221.32,10.26 222.3,10.26 C223.2,10.26 224.26,10.6 224.86,11.16 L225.64,9.76 C224.76,8.96 223.52,8.64 222.36,8.64 C220.38,8.64 218.72,9.64 218.72,11.56 C218.72,14.88 223.92,14.36 223.92,16.3 C223.92,17.14 223.22,17.62 222.2,17.62 C221.14,17.62 219.98,17.18 219.22,16.44 L218.3,17.76 Z M227.98,15.36 C227.98,18.04 229.16,19.24 231.44,19.24 C233.42,19.24 234.76,17.86 235.2,16.86 L235.24,16.86 C235.24,16.86 235.16,17.2 235.16,17.6 L235.16,19 L237.04,19 L237.04,8.88 L235.12,8.88 L235.12,13.62 C235.12,15.62 233.9,17.44 231.82,17.44 C230.22,17.44 229.92,16.32 229.92,14.92 L229.92,8.88 L227.98,8.88 L227.98,15.36 Z M240.04,19 L241.98,19 L241.98,14.8 C241.98,12.84 242.9,10.68 245.08,10.68 C245.28,10.68 245.56,10.7 245.64,10.72 L245.64,8.8 C245.48,8.78 245.3,8.76 245.12,8.76 C243.56,8.76 242.38,9.98 241.9,11.44 L241.86,11.44 C241.86,11.44 241.92,11.12 241.92,10.7 L241.92,8.88 L240.04,8.88 L240.04,19 Z M246.6,16.24 C246.6,13.06 250.54,12.7 252.64,12.7 L253.16,12.7 L253.16,12.5 C253.16,10.84 252.2,10.28 250.94,10.28 C249.94,10.28 248.92,10.68 248.1,11.26 L247.32,9.84 C248.14,9.16 249.68,8.64 251.1,8.64 C253.64,8.64 255.1,10.04 255.1,12.6 L255.1,19 L253.28,19 L253.28,17.98 C253.28,17.52 253.34,17.18 253.34,17.18 L253.3,17.18 C252.72,18.34 251.48,19.24 249.98,19.24 C248.22,19.24 246.6,18.14 246.6,16.24 Z M248.54,16.08 C248.54,16.88 249.18,17.7 250.44,17.7 C252.14,17.7 253.16,15.98 253.16,14.48 L253.16,14.1 L252.66,14.1 C251.22,14.1 248.54,14.22 248.54,16.08 Z M257.98,19 L259.92,19 L259.92,14.14 C259.92,12.06 261.32,10.42 263.3,10.42 C264.92,10.42 265.2,11.54 265.2,12.96 L265.2,19 L267.14,19 L267.14,12.52 C267.14,9.94 266.06,8.64 263.68,8.64 C261.46,8.64 260.22,10.14 259.84,11.02 L259.8,11.02 C259.8,11.02 259.86,10.68 259.86,10.26 L259.86,8.88 L257.98,8.88 L257.98,19 Z M269.38,13.94 C269.38,16.98 271.6,19.24 274.8,19.24 C276.38,19.24 277.92,18.6 278.84,17.62 L278.06,16.2 C277.28,17.02 276.06,17.56 274.94,17.56 C272.84,17.56 271.36,15.98 271.36,13.92 C271.36,11.86 272.84,10.32 274.88,10.32 C275.94,10.32 277,10.8 277.68,11.48 L278.6,10.12 C277.64,9.1 276.14,8.64 274.8,8.64 C271.62,8.64 269.38,10.94 269.38,13.94 Z M280.06,13.94 C280.06,10.72 282.26,8.64 285.14,8.64 C288,8.64 289.52,10.78 289.52,13.38 C289.52,13.64 289.48,13.92 289.44,14.2 L282.08,14.2 C282.18,16.38 283.74,17.56 285.56,17.56 C286.64,17.56 287.74,17.1 288.54,16.38 L289.36,17.8 C288.38,18.7 286.84,19.24 285.44,19.24 C282.26,19.24 280.06,16.94 280.06,13.94 Z M282.14,12.8 L287.56,12.8 C287.5,11.06 286.42,10.14 285.1,10.14 C283.6,10.14 282.42,11.12 282.14,12.8 Z M201.5,48 L201.5,33.88 L203.3,33.88 L203.3,34.78 C203.3,35.2 203.24,35.54 203.24,35.54 L203.28,35.54 C203.92,34.32 205.2,33.64 206.68,33.64 C209.42,33.64 211.12,35.8 211.12,38.94 C211.12,42.16 209.2,44.24 206.54,44.24 C205.26,44.24 204.1,43.6 203.4,42.52 L203.36,42.52 C203.36,42.52 203.44,42.88 203.44,43.4 L203.44,48 L201.5,48 Z M203.38,38.98 C203.38,40.78 204.38,42.56 206.24,42.56 C207.84,42.56 209.16,41.26 209.16,38.96 C209.16,36.76 207.98,35.34 206.3,35.34 C204.78,35.34 203.38,36.42 203.38,38.98 Z M212.86,38.94 C212.86,35.72 215.06,33.64 217.94,33.64 C220.8,33.64 222.32,35.78 222.32,38.38 C222.32,38.64 222.28,38.92 222.24,39.2 L214.88,39.2 C214.98,41.38 216.54,42.56 218.36,42.56 C219.44,42.56 220.54,42.1 221.34,41.38 L222.16,42.8 C221.18,43.7 219.64,44.24 218.24,44.24 C215.06,44.24 212.86,41.94 212.86,38.94 Z M214.94,37.8 L220.36,37.8 C220.3,36.06 219.22,35.14 217.9,35.14 C216.4,35.14 215.22,36.12 214.94,37.8 Z M224.66,44 L226.6,44 L226.6,39.8 C226.6,37.84 227.52,35.68 229.7,35.68 C229.9,35.68 230.18,35.7 230.26,35.72 L230.26,33.8 C230.1,33.78 229.92,33.76 229.74,33.76 C228.18,33.76 227,34.98 226.52,36.44 L226.48,36.44 C226.48,36.44 226.54,36.12 226.54,35.7 L226.54,33.88 L224.66,33.88 L224.66,44 Z M232.14,31.84 L234.14,31.84 L234.14,29.88 L232.14,29.88 L232.14,31.84 Z M232.18,44 L234.12,44 L234.12,33.88 L232.18,33.88 L232.18,44 Z M236.44,38.92 C236.44,35.86 238.88,33.64 241.88,33.64 C244.9,33.64 247.34,35.86 247.34,38.92 C247.34,42 244.9,44.24 241.9,44.24 C238.88,44.24 236.44,42 236.44,38.92 Z M238.42,38.92 C238.42,41.04 239.98,42.56 241.9,42.56 C243.8,42.56 245.38,41.04 245.38,38.92 C245.38,36.82 243.8,35.32 241.9,35.32 C239.98,35.32 238.42,36.82 238.42,38.92 Z M249.06,38.94 C249.06,35.72 250.96,33.64 253.64,33.64 C254.92,33.64 256.14,34.22 256.78,35.3 L256.82,35.3 C256.82,35.3 256.78,35 256.78,34.62 L256.78,29.88 L258.7,29.88 L258.7,44 L256.86,44 L256.86,42.98 C256.86,42.58 256.92,42.3 256.92,42.3 L256.88,42.3 C256.3,43.4 255.12,44.24 253.52,44.24 C250.8,44.24 249.06,42.08 249.06,38.94 Z M251.04,38.94 C251.04,41.14 252.22,42.56 253.9,42.56 C255.4,42.56 256.82,41.48 256.82,38.92 C256.82,37.1 255.88,35.34 253.94,35.34 C252.36,35.34 251.04,36.64 251.04,38.94 Z" id="Insurance-period"></path>
                            <path d="M401.86,24 L403.84,24 L403.84,9.88 L401.86,9.88 L401.86,24 Z M407.1,24 L409.04,24 L409.04,19.14 C409.04,17.06 410.44,15.42 412.42,15.42 C414.04,15.42 414.32,16.54 414.32,17.96 L414.32,24 L416.26,24 L416.26,17.52 C416.26,14.94 415.18,13.64 412.8,13.64 C410.58,13.64 409.34,15.14 408.96,16.02 L408.92,16.02 C408.92,16.02 408.98,15.68 408.98,15.26 L408.98,13.88 L407.1,13.88 L407.1,24 Z M418.3,22.76 C419.3,23.78 420.8,24.24 422.16,24.24 C424.32,24.24 425.8,22.98 425.8,21.26 C425.8,17.92 420.58,18.5 420.58,16.52 C420.58,15.66 421.32,15.26 422.3,15.26 C423.2,15.26 424.26,15.6 424.86,16.16 L425.64,14.76 C424.76,13.96 423.52,13.64 422.36,13.64 C420.38,13.64 418.72,14.64 418.72,16.56 C418.72,19.88 423.92,19.36 423.92,21.3 C423.92,22.14 423.22,22.62 422.2,22.62 C421.14,22.62 419.98,22.18 419.22,21.44 L418.3,22.76 Z M427.98,20.36 C427.98,23.04 429.16,24.24 431.44,24.24 C433.42,24.24 434.76,22.86 435.2,21.86 L435.24,21.86 C435.24,21.86 435.16,22.2 435.16,22.6 L435.16,24 L437.04,24 L437.04,13.88 L435.12,13.88 L435.12,18.62 C435.12,20.62 433.9,22.44 431.82,22.44 C430.22,22.44 429.92,21.32 429.92,19.92 L429.92,13.88 L427.98,13.88 L427.98,20.36 Z M440.04,24 L441.98,24 L441.98,19.8 C441.98,17.84 442.9,15.68 445.08,15.68 C445.28,15.68 445.56,15.7 445.64,15.72 L445.64,13.8 C445.48,13.78 445.3,13.76 445.12,13.76 C443.56,13.76 442.38,14.98 441.9,16.44 L441.86,16.44 C441.86,16.44 441.92,16.12 441.92,15.7 L441.92,13.88 L440.04,13.88 L440.04,24 Z M446.6,21.24 C446.6,18.06 450.54,17.7 452.64,17.7 L453.16,17.7 L453.16,17.5 C453.16,15.84 452.2,15.28 450.94,15.28 C449.94,15.28 448.92,15.68 448.1,16.26 L447.32,14.84 C448.14,14.16 449.68,13.64 451.1,13.64 C453.64,13.64 455.1,15.04 455.1,17.6 L455.1,24 L453.28,24 L453.28,22.98 C453.28,22.52 453.34,22.18 453.34,22.18 L453.3,22.18 C452.72,23.34 451.48,24.24 449.98,24.24 C448.22,24.24 446.6,23.14 446.6,21.24 Z M448.54,21.08 C448.54,21.88 449.18,22.7 450.44,22.7 C452.14,22.7 453.16,20.98 453.16,19.48 L453.16,19.1 L452.66,19.1 C451.22,19.1 448.54,19.22 448.54,21.08 Z M457.98,24 L459.92,24 L459.92,19.14 C459.92,17.06 461.32,15.42 463.3,15.42 C464.92,15.42 465.2,16.54 465.2,17.96 L465.2,24 L467.14,24 L467.14,17.52 C467.14,14.94 466.06,13.64 463.68,13.64 C461.46,13.64 460.22,15.14 459.84,16.02 L459.8,16.02 C459.8,16.02 459.86,15.68 459.86,15.26 L459.86,13.88 L457.98,13.88 L457.98,24 Z M469.38,18.94 C469.38,21.98 471.6,24.24 474.8,24.24 C476.38,24.24 477.92,23.6 478.84,22.62 L478.06,21.2 C477.28,22.02 476.06,22.56 474.94,22.56 C472.84,22.56 471.36,20.98 471.36,18.92 C471.36,16.86 472.84,15.32 474.88,15.32 C475.94,15.32 477,15.8 477.68,16.48 L478.6,15.12 C477.64,14.1 476.14,13.64 474.8,13.64 C471.62,13.64 469.38,15.94 469.38,18.94 Z M480.06,18.94 C480.06,15.72 482.26,13.64 485.14,13.64 C488,13.64 489.52,15.78 489.52,18.38 C489.52,18.64 489.48,18.92 489.44,19.2 L482.08,19.2 C482.18,21.38 483.74,22.56 485.56,22.56 C486.64,22.56 487.74,22.1 488.54,21.38 L489.36,22.8 C488.38,23.7 486.84,24.24 485.44,24.24 C482.26,24.24 480.06,21.94 480.06,18.94 Z M482.14,17.8 L487.56,17.8 C487.5,16.06 486.42,15.14 485.1,15.14 C483.6,15.14 482.42,16.12 482.14,17.8 Z M400.84,43.94 C400.84,46.98 403.06,49.24 406.26,49.24 C407.84,49.24 409.38,48.6 410.3,47.62 L409.52,46.2 C408.74,47.02 407.52,47.56 406.4,47.56 C404.3,47.56 402.82,45.98 402.82,43.92 C402.82,41.86 404.3,40.32 406.34,40.32 C407.4,40.32 408.46,40.8 409.14,41.48 L410.06,40.12 C409.1,39.1 407.6,38.64 406.26,38.64 C403.08,38.64 400.84,40.94 400.84,43.94 Z M411.5,43.92 C411.5,40.86 413.94,38.64 416.94,38.64 C419.96,38.64 422.4,40.86 422.4,43.92 C422.4,47 419.96,49.24 416.96,49.24 C413.94,49.24 411.5,47 411.5,43.92 Z M413.48,43.92 C413.48,46.04 415.04,47.56 416.96,47.56 C418.86,47.56 420.44,46.04 420.44,43.92 C420.44,41.82 418.86,40.32 416.96,40.32 C415.04,40.32 413.48,41.82 413.48,43.92 Z M423.88,47.76 C424.88,48.78 426.38,49.24 427.74,49.24 C429.9,49.24 431.38,47.98 431.38,46.26 C431.38,42.92 426.16,43.5 426.16,41.52 C426.16,40.66 426.9,40.26 427.88,40.26 C428.78,40.26 429.84,40.6 430.44,41.16 L431.22,39.76 C430.34,38.96 429.1,38.64 427.94,38.64 C425.96,38.64 424.3,39.64 424.3,41.56 C424.3,44.88 429.5,44.36 429.5,46.3 C429.5,47.14 428.8,47.62 427.78,47.62 C426.72,47.62 425.56,47.18 424.8,46.44 L423.88,47.76 Z M434.1,45.3 C434.1,48.68 436.68,49.1 437.98,49.1 C438.28,49.1 438.5,49.06 438.66,49.04 L438.66,47.32 C438.46,47.36 438.34,47.36 438.2,47.36 C437.46,47.36 436.04,47.1 436.04,45.08 L436.04,40.56 L438.48,40.56 L438.48,38.98 L436.04,38.98 L436.04,36.1 L434.14,36.1 L434.14,38.98 L432.78,38.98 L432.78,40.56 L434.1,40.56 L434.1,45.3 Z" id="Insurance-cost"></path>
                        </g>
                    </g>
                    <path d="M360,440 L360,534" id="Line" stroke="#F6F6F9" stroke-width="8" stroke-linecap="square"></path>
                    <path d="M280,542 L440,542" id="Line" stroke="#F6F6F9" stroke-width="8" stroke-linecap="round" stroke-linejoin="round"></path>
                </g>
                <g id="Group-6" transform="translate(138.000000, 15.000000)" stroke="#303498" stroke-width="2" stroke-linecap="round" stroke-linejoin="round">
                    <polyline id="Line-2" transform="translate(393.516306, 244.000000) rotate(-170.000000) translate(-393.516306, -244.000000) " points="383.516306 249 393.594832 239 403.516306 249"></polyline>
                    <path d="M0,0 L190,0 C333.77076,0 401.437427,82.3333333 393,247" id="Path-4"></path>
                </g>
                <g id="Group-5" opacity="0.5" transform="translate(620.000000, 308.000000)"></g>
                <path d="M1.6,61.576 C1.6,68.2 6.176,73.384 13.184,73.384 C17.184,73.384 20,71.72 21.92,69.8 L20.224,67.528 C18.4,69.352 15.808,70.472 13.28,70.472 C8.032,70.472 4.864,66.344 4.864,61.544 C4.864,56.776 7.968,52.904 13.216,52.904 C15.552,52.904 18.08,53.896 19.744,55.368 L21.344,53 C19.168,50.92 16,50.024 13.088,50.024 C6.368,50.024 1.6,55.016 1.6,61.576 Z M25.344,73 L28.448,73 L28.448,65.32 C28.448,61.832 30.72,59.272 33.856,59.272 C36.448,59.272 36.896,61.064 36.896,63.336 L36.896,73 L40,73 L40,62.632 C40,58.504 38.272,56.424 34.464,56.424 C31.232,56.424 29.12,58.6 28.384,60.136 L28.32,60.136 C28.32,60.136 28.448,59.56 28.448,58.792 L28.448,50.408 L25.344,50.408 L25.344,73 Z M43.584,64.904 C43.584,59.752 47.104,56.424 51.712,56.424 C56.288,56.424 58.72,59.848 58.72,64.008 C58.72,64.424 58.656,64.872 58.592,65.32 L46.816,65.32 C46.976,68.808 49.472,70.696 52.384,70.696 C54.112,70.696 55.872,69.96 57.152,68.808 L58.464,71.08 C56.896,72.52 54.432,73.384 52.192,73.384 C47.104,73.384 43.584,69.704 43.584,64.904 Z M46.912,63.08 L55.584,63.08 C55.488,60.296 53.76,58.824 51.648,58.824 C49.248,58.824 47.36,60.392 46.912,63.08 Z M61.408,64.904 C61.408,69.768 64.96,73.384 70.08,73.384 C72.608,73.384 75.072,72.36 76.544,70.792 L75.296,68.52 C74.048,69.832 72.096,70.696 70.304,70.696 C66.944,70.696 64.576,68.168 64.576,64.872 C64.576,61.576 66.944,59.112 70.208,59.112 C71.904,59.112 73.6,59.88 74.688,60.968 L76.16,58.792 C74.624,57.16 72.224,56.424 70.08,56.424 C64.992,56.424 61.408,60.104 61.408,64.904 Z M79.904,73 L83.008,73 L83.008,65.416 L85.376,65.416 L90.208,73 L93.824,73 L87.84,64.008 L87.84,63.944 L93.216,56.808 L89.696,56.808 L85.312,62.76 L83.008,62.76 L83.008,50.408 L79.904,50.408 L79.904,73 Z M95.232,71.016 C96.832,72.648 99.232,73.384 101.408,73.384 C104.864,73.384 107.232,71.368 107.232,68.616 C107.232,63.272 98.88,64.2 98.88,61.032 C98.88,59.656 100.064,59.016 101.632,59.016 C103.072,59.016 104.768,59.56 105.728,60.456 L106.976,58.216 C105.568,56.936 103.584,56.424 101.728,56.424 C98.56,56.424 95.904,58.024 95.904,61.096 C95.904,66.408 104.224,65.576 104.224,68.68 C104.224,70.024 103.104,70.792 101.472,70.792 C99.776,70.792 97.92,70.088 96.704,68.904 L95.232,71.016 Z M118.848,53.544 L122.048,53.544 L122.048,50.408 L118.848,50.408 L118.848,53.544 Z M118.912,73 L122.016,73 L122.016,56.808 L118.912,56.808 L118.912,73 Z M127.552,73 L130.656,73 L130.656,59.496 L134.464,59.496 L134.464,56.968 L130.656,56.968 L130.656,56.296 C130.656,53.32 132.832,52.968 134.048,52.968 C134.4,52.968 134.72,53 134.848,53.032 L134.848,50.344 C134.432,50.28 134.08,50.248 133.664,50.248 C131.616,50.248 127.552,50.92 127.552,56.264 L127.552,56.968 L125.536,56.968 L125.536,59.496 L127.552,59.496 L127.552,73 Z M144.992,67.08 C144.992,72.488 149.12,73.16 151.2,73.16 C151.68,73.16 152.032,73.096 152.288,73.064 L152.288,70.312 C151.968,70.376 151.776,70.376 151.552,70.376 C150.368,70.376 148.096,69.96 148.096,66.728 L148.096,59.496 L152,59.496 L152,56.968 L148.096,56.968 L148.096,52.36 L145.056,52.36 L145.056,56.968 L142.88,56.968 L142.88,59.496 L144.992,59.496 L144.992,67.08 Z M155.488,73 L158.592,73 L158.592,65.32 C158.592,61.832 160.864,59.272 164,59.272 C166.592,59.272 167.04,61.064 167.04,63.336 L167.04,73 L170.144,73 L170.144,62.632 C170.144,58.504 168.416,56.424 164.608,56.424 C161.376,56.424 159.264,58.6 158.528,60.136 L158.464,60.136 C158.464,60.136 158.592,59.56 158.592,58.792 L158.592,50.408 L155.488,50.408 L155.488,73 Z M173.728,64.904 C173.728,59.752 177.248,56.424 181.856,56.424 C186.432,56.424 188.864,59.848 188.864,64.008 C188.864,64.424 188.8,64.872 188.736,65.32 L176.96,65.32 C177.12,68.808 179.616,70.696 182.528,70.696 C184.256,70.696 186.016,69.96 187.296,68.808 L188.608,71.08 C187.04,72.52 184.576,73.384 182.336,73.384 C177.248,73.384 173.728,69.704 173.728,64.904 Z M177.056,63.08 L185.728,63.08 C185.632,60.296 183.904,58.824 181.792,58.824 C179.392,58.824 177.504,60.392 177.056,63.08 Z M294.656,53.544 L297.856,53.544 L297.856,50.408 L294.656,50.408 L294.656,53.544 Z M294.72,73 L297.824,73 L297.824,56.808 L294.72,56.808 L294.72,73 Z M301.216,71.016 C302.816,72.648 305.216,73.384 307.392,73.384 C310.848,73.384 313.216,71.368 313.216,68.616 C313.216,63.272 304.864,64.2 304.864,61.032 C304.864,59.656 306.048,59.016 307.616,59.016 C309.056,59.016 310.752,59.56 311.712,60.456 L312.96,58.216 C311.552,56.936 309.568,56.424 307.712,56.424 C304.544,56.424 301.888,58.024 301.888,61.096 C301.888,66.408 310.208,65.576 310.208,68.68 C310.208,70.024 309.088,70.792 307.456,70.792 C305.76,70.792 303.904,70.088 302.688,68.904 L301.216,71.016 Z M2.336,103.544 L5.536,103.544 L5.536,100.408 L2.336,100.408 L2.336,103.544 Z M2.4,123 L5.504,123 L5.504,106.808 L2.4,106.808 L2.4,123 Z M10.272,123 L13.376,123 L13.376,115.224 C13.376,111.896 15.616,109.272 18.784,109.272 C21.376,109.272 21.824,111.064 21.824,113.336 L21.824,123 L24.928,123 L24.928,112.632 C24.928,108.504 23.2,106.424 19.392,106.424 C15.84,106.424 13.856,108.824 13.248,110.232 L13.184,110.232 C13.184,110.232 13.28,109.688 13.28,109.016 L13.28,106.808 L10.272,106.808 L10.272,123 Z M28.192,121.016 C29.792,122.648 32.192,123.384 34.368,123.384 C37.824,123.384 40.192,121.368 40.192,118.616 C40.192,113.272 31.84,114.2 31.84,111.032 C31.84,109.656 33.024,109.016 34.592,109.016 C36.032,109.016 37.728,109.56 38.688,110.456 L39.936,108.216 C38.528,106.936 36.544,106.424 34.688,106.424 C31.52,106.424 28.864,108.024 28.864,111.096 C28.864,116.408 37.184,115.576 37.184,118.68 C37.184,120.024 36.064,120.792 34.432,120.792 C32.736,120.792 30.88,120.088 29.664,118.904 L28.192,121.016 Z M43.68,117.176 C43.68,121.464 45.568,123.384 49.216,123.384 C52.384,123.384 54.528,121.176 55.232,119.576 L55.296,119.576 C55.296,119.576 55.168,120.12 55.168,120.76 L55.168,123 L58.176,123 L58.176,106.808 L55.104,106.808 L55.104,114.392 C55.104,117.592 53.152,120.504 49.824,120.504 C47.264,120.504 46.784,118.712 46.784,116.472 L46.784,106.808 L43.68,106.808 L43.68,117.176 Z M62.976,123 L66.08,123 L66.08,116.28 C66.08,113.144 67.552,109.688 71.04,109.688 C71.36,109.688 71.808,109.72 71.936,109.752 L71.936,106.68 C71.68,106.648 71.392,106.616 71.104,106.616 C68.608,106.616 66.72,108.568 65.952,110.904 L65.888,110.904 C65.888,110.904 65.984,110.392 65.984,109.72 L65.984,106.808 L62.976,106.808 L62.976,123 Z M73.536,114.904 C73.536,109.752 77.056,106.424 81.664,106.424 C86.24,106.424 88.672,109.848 88.672,114.008 C88.672,114.424 88.608,114.872 88.544,115.32 L76.768,115.32 C76.928,118.808 79.424,120.696 82.336,120.696 C84.064,120.696 85.824,119.96 87.104,118.808 L88.416,121.08 C86.848,122.52 84.384,123.384 82.144,123.384 C77.056,123.384 73.536,119.704 73.536,114.904 Z M76.864,113.08 L85.536,113.08 C85.44,110.296 83.712,108.824 81.6,108.824 C79.2,108.824 77.312,110.392 76.864,113.08 Z M91.424,114.904 C91.424,109.752 94.464,106.424 98.752,106.424 C100.8,106.424 102.752,107.352 103.776,109.08 L103.84,109.08 C103.84,109.08 103.776,108.6 103.776,107.992 L103.776,100.408 L106.848,100.408 L106.848,123 L103.904,123 L103.904,121.368 C103.904,120.728 104,120.28 104,120.28 L103.936,120.28 C103.008,122.04 101.12,123.384 98.56,123.384 C94.208,123.384 91.424,119.928 91.424,114.904 Z M94.592,114.904 C94.592,118.424 96.48,120.696 99.168,120.696 C101.568,120.696 103.84,118.968 103.84,114.872 C103.84,111.96 102.336,109.144 99.232,109.144 C96.704,109.144 94.592,111.224 94.592,114.904 Z M118.304,118.584 C118.304,113.496 124.608,112.92 127.968,112.92 L128.8,112.92 L128.8,112.6 C128.8,109.944 127.264,109.048 125.248,109.048 C123.648,109.048 122.016,109.688 120.704,110.616 L119.456,108.344 C120.768,107.256 123.232,106.424 125.504,106.424 C129.568,106.424 131.904,108.664 131.904,112.76 L131.904,123 L128.992,123 L128.992,121.368 C128.992,120.632 129.088,120.088 129.088,120.088 L129.024,120.088 C128.096,121.944 126.112,123.384 123.712,123.384 C120.896,123.384 118.304,121.624 118.304,118.584 Z M121.408,118.328 C121.408,119.608 122.432,120.92 124.448,120.92 C127.168,120.92 128.8,118.168 128.8,115.768 L128.8,115.16 L128,115.16 C125.696,115.16 121.408,115.352 121.408,118.328 Z M136.512,123 L139.616,123 L139.616,115.224 C139.616,111.896 141.856,109.272 145.024,109.272 C147.616,109.272 148.064,111.064 148.064,113.336 L148.064,123 L151.168,123 L151.168,112.632 C151.168,108.504 149.44,106.424 145.632,106.424 C142.08,106.424 140.096,108.824 139.488,110.232 L139.424,110.232 C139.424,110.232 139.52,109.688 139.52,109.016 L139.52,106.808 L136.512,106.808 L136.512,123 Z M154.816,114.904 C154.816,109.752 157.856,106.424 162.144,106.424 C164.192,106.424 166.144,107.352 167.168,109.08 L167.232,109.08 C167.232,109.08 167.168,108.6 167.168,107.992 L167.168,100.408 L170.24,100.408 L170.24,123 L167.296,123 L167.296,121.368 C167.296,120.728 167.392,120.28 167.392,120.28 L167.328,120.28 C166.4,122.04 164.512,123.384 161.952,123.384 C157.6,123.384 154.816,119.928 154.816,114.904 Z M157.984,114.904 C157.984,118.424 159.872,120.696 162.56,120.696 C164.96,120.696 167.232,118.968 167.232,114.872 C167.232,111.96 165.728,109.144 162.624,109.144 C160.096,109.144 157.984,111.224 157.984,114.904 Z M182.976,103.544 L186.176,103.544 L186.176,100.408 L182.976,100.408 L182.976,103.544 Z M183.04,123 L186.144,123 L186.144,106.808 L183.04,106.808 L183.04,123 Z M190.912,123 L194.016,123 L194.016,115.224 C194.016,111.896 196.256,109.272 199.424,109.272 C202.016,109.272 202.464,111.064 202.464,113.336 L202.464,123 L205.568,123 L205.568,112.632 C205.568,108.504 203.84,106.424 200.032,106.424 C196.48,106.424 194.496,108.824 193.888,110.232 L193.824,110.232 C193.824,110.232 193.92,109.688 193.92,109.016 L193.92,106.808 L190.912,106.808 L190.912,123 Z M214.272,123 L217.824,123 L223.808,106.808 L220.544,106.808 L216.608,117.752 C216.32,118.648 216.064,119.96 216.064,119.96 L216,119.96 C216,119.96 215.712,118.648 215.424,117.752 L211.488,106.808 L208.192,106.808 L214.272,123 Z M225.376,114.904 C225.376,109.752 228.896,106.424 233.504,106.424 C238.08,106.424 240.512,109.848 240.512,114.008 C240.512,114.424 240.448,114.872 240.384,115.32 L228.608,115.32 C228.768,118.808 231.264,120.696 234.176,120.696 C235.904,120.696 237.664,119.96 238.944,118.808 L240.256,121.08 C238.688,122.52 236.224,123.384 233.984,123.384 C228.896,123.384 225.376,119.704 225.376,114.904 Z M228.704,113.08 L237.376,113.08 C237.28,110.296 235.552,108.824 233.44,108.824 C231.04,108.824 229.152,110.392 228.704,113.08 Z M242.88,121.016 C244.48,122.648 246.88,123.384 249.056,123.384 C252.512,123.384 254.88,121.368 254.88,118.616 C254.88,113.272 246.528,114.2 246.528,111.032 C246.528,109.656 247.712,109.016 249.28,109.016 C250.72,109.016 252.416,109.56 253.376,110.456 L254.624,108.216 C253.216,106.936 251.232,106.424 249.376,106.424 C246.208,106.424 243.552,108.024 243.552,111.096 C243.552,116.408 251.872,115.576 251.872,118.68 C251.872,120.024 250.752,120.792 249.12,120.792 C247.424,120.792 245.568,120.088 244.352,118.904 L242.88,121.016 Z M259.232,117.08 C259.232,122.488 263.36,123.16 265.44,123.16 C265.92,123.16 266.272,123.096 266.528,123.064 L266.528,120.312 C266.208,120.376 266.016,120.376 265.792,120.376 C264.608,120.376 262.336,119.96 262.336,116.728 L262.336,109.496 L266.24,109.496 L266.24,106.968 L262.336,106.968 L262.336,102.36 L259.296,102.36 L259.296,106.968 L257.12,106.968 L257.12,109.496 L259.232,109.496 L259.232,117.08 Z M268.352,121.016 C269.952,122.648 272.352,123.384 274.528,123.384 C277.984,123.384 280.352,121.368 280.352,118.616 C280.352,113.272 272,114.2 272,111.032 C272,109.656 273.184,109.016 274.752,109.016 C276.192,109.016 277.888,109.56 278.848,110.456 L280.096,108.216 C278.688,106.936 276.704,106.424 274.848,106.424 C271.68,106.424 269.024,108.024 269.024,111.096 C269.024,116.408 277.344,115.576 277.344,118.68 C277.344,120.024 276.224,120.792 274.592,120.792 C272.896,120.792 271.04,120.088 269.824,118.904 L268.352,121.016 Z M291.968,103.544 L295.168,103.544 L295.168,100.408 L291.968,100.408 L291.968,103.544 Z M292.032,123 L295.136,123 L295.136,106.808 L292.032,106.808 L292.032,123 Z M299.904,123 L303.008,123 L303.008,115.224 C303.008,111.896 305.248,109.272 308.416,109.272 C311.008,109.272 311.456,111.064 311.456,113.336 L311.456,123 L314.56,123 L314.56,112.632 C314.56,108.504 312.832,106.424 309.024,106.424 C305.472,106.424 303.488,108.824 302.88,110.232 L302.816,110.232 C302.816,110.232 302.912,109.688 302.912,109.016 L302.912,106.808 L299.904,106.808 L299.904,123 Z M327.136,103.544 L330.336,103.544 L330.336,100.408 L327.136,100.408 L327.136,103.544 Z M327.2,123 L330.304,123 L330.304,106.808 L327.2,106.808 L327.2,123 Z M335.744,117.08 C335.744,122.488 339.872,123.16 341.952,123.16 C342.432,123.16 342.784,123.096 343.04,123.064 L343.04,120.312 C342.72,120.376 342.528,120.376 342.304,120.376 C341.12,120.376 338.848,119.96 338.848,116.728 L338.848,109.496 L342.752,109.496 L342.752,106.968 L338.848,106.968 L338.848,102.36 L335.808,102.36 L335.808,106.968 L333.632,106.968 L333.632,109.496 L335.744,109.496 L335.744,117.08 Z" id="Checks-if-the-ICO-A" fill="#181920"></path>
                <path d="M201,73.104 L205.128,73.104 L205.128,50.384 L201,50.384 L201,73.104 Z M209.32,61.648 C209.32,68.336 213.928,73.488 221.064,73.488 C225.128,73.488 228.04,71.792 229.992,69.808 L227.816,66.832 C226.088,68.528 223.656,69.712 221.224,69.712 C216.296,69.712 213.576,65.84 213.576,61.584 C213.576,57.392 216.2,53.776 221.192,53.776 C223.4,53.776 225.8,54.8 227.4,56.176 L229.384,53.104 C227.176,50.96 223.976,50 221,50 C214.152,50 209.32,55.056 209.32,61.648 Z M231.624,61.584 C231.624,55.088 236.488,50 243.368,50 C250.248,50 255.112,55.088 255.112,61.584 C255.112,68.272 250.248,73.488 243.368,73.488 C236.488,73.488 231.624,68.272 231.624,61.584 Z M235.88,61.584 C235.88,66.192 239.016,69.712 243.368,69.712 C247.72,69.712 250.856,66.192 250.856,61.584 C250.856,57.168 247.72,53.776 243.368,53.776 C239.016,53.776 235.88,57.168 235.88,61.584 Z M263.816,73.104 L271.784,50.384 L276.136,50.384 L284.104,73.104 L279.88,73.104 L277.928,67.28 L269.96,67.28 L268.04,73.104 L263.816,73.104 Z M270.984,63.92 L276.904,63.92 L274.888,57.84 C274.504,56.56 273.992,54.32 273.992,54.32 L273.928,54.32 C273.928,54.32 273.416,56.56 273.032,57.84 L270.984,63.92 Z" id="ICO-A" fill="#FF674C"></path>
                <path d="M62.752,403 L66.88,403 L66.88,380.28 L62.752,380.28 L62.752,403 Z M71.072,391.544 C71.072,398.232 75.68,403.384 82.816,403.384 C86.88,403.384 89.792,401.688 91.744,399.704 L89.568,396.728 C87.84,398.424 85.408,399.608 82.976,399.608 C78.048,399.608 75.328,395.736 75.328,391.48 C75.328,387.288 77.952,383.672 82.944,383.672 C85.152,383.672 87.552,384.696 89.152,386.072 L91.136,383 C88.928,380.856 85.728,379.896 82.752,379.896 C75.904,379.896 71.072,384.952 71.072,391.544 Z M93.376,391.48 C93.376,384.984 98.24,379.896 105.12,379.896 C112,379.896 116.864,384.984 116.864,391.48 C116.864,398.168 112,403.384 105.12,403.384 C98.24,403.384 93.376,398.168 93.376,391.48 Z M97.632,391.48 C97.632,396.088 100.768,399.608 105.12,399.608 C109.472,399.608 112.608,396.088 112.608,391.48 C112.608,387.064 109.472,383.672 105.12,383.672 C100.768,383.672 97.632,387.064 97.632,391.48 Z M125.568,403 L133.536,380.28 L137.888,380.28 L145.856,403 L141.632,403 L139.68,397.176 L131.712,397.176 L129.792,403 L125.568,403 Z M132.736,393.816 L138.656,393.816 L136.64,387.736 C136.256,386.456 135.744,384.216 135.744,384.216 L135.68,384.216 C135.68,384.216 135.168,386.456 134.784,387.736 L132.736,393.816 Z" id="ICO-A" fill="#FF674C"></path>
                <path d="M261.824,403 L274.848,403 L274.848,400.248 L269.888,400.248 L269.888,380.408 L267.072,380.408 L261.664,385.656 L263.584,387.64 L265.696,385.592 C266.528,384.76 266.784,384.28 266.784,384.28 L266.848,384.28 C266.848,384.28 266.816,384.952 266.816,385.656 L266.816,400.248 L261.824,400.248 L261.824,403 Z M277.376,400.248 C279.072,402.296 281.664,403.384 284.32,403.384 C288.864,403.384 292.32,400.12 292.32,395.8 C292.32,391.704 289.216,388.408 284.448,388.408 C283.36,388.408 282.048,388.792 281.504,389.08 L281.44,389.08 C281.44,389.08 281.568,388.632 281.632,387.928 L282.144,383.16 L290.816,383.16 L290.816,380.408 L279.392,380.408 L278.272,391.608 L280.128,392.28 C281.184,391.576 282.624,391.16 283.936,391.16 C286.848,391.16 289.056,393.08 289.056,395.8 C289.056,398.552 286.784,400.376 284.128,400.376 C281.792,400.376 280.128,399.128 279.168,397.944 L277.376,400.248 Z M303.232,394.904 C303.232,389.752 306.272,386.424 310.56,386.424 C312.608,386.424 314.56,387.352 315.584,389.08 L315.648,389.08 C315.648,389.08 315.584,388.6 315.584,387.992 L315.584,380.408 L318.656,380.408 L318.656,403 L315.712,403 L315.712,401.368 C315.712,400.728 315.808,400.28 315.808,400.28 L315.744,400.28 C314.816,402.04 312.928,403.384 310.368,403.384 C306.016,403.384 303.232,399.928 303.232,394.904 Z M306.4,394.904 C306.4,398.424 308.288,400.696 310.976,400.696 C313.376,400.696 315.648,398.968 315.648,394.872 C315.648,391.96 314.144,389.144 311.04,389.144 C308.512,389.144 306.4,391.224 306.4,394.904 Z M322.112,398.584 C322.112,393.496 328.416,392.92 331.776,392.92 L332.608,392.92 L332.608,392.6 C332.608,389.944 331.072,389.048 329.056,389.048 C327.456,389.048 325.824,389.688 324.512,390.616 L323.264,388.344 C324.576,387.256 327.04,386.424 329.312,386.424 C333.376,386.424 335.712,388.664 335.712,392.76 L335.712,403 L332.8,403 L332.8,401.368 C332.8,400.632 332.896,400.088 332.896,400.088 L332.832,400.088 C331.904,401.944 329.92,403.384 327.52,403.384 C324.704,403.384 322.112,401.624 322.112,398.584 Z M325.216,398.328 C325.216,399.608 326.24,400.92 328.256,400.92 C330.976,400.92 332.608,398.168 332.608,395.768 L332.608,395.16 L331.808,395.16 C329.504,395.16 325.216,395.352 325.216,398.328 Z M339.2,406.36 L338.112,408.728 C338.112,408.728 339.424,409.72 341.216,409.72 C343.488,409.72 345.504,408.44 346.464,405.912 L354.08,386.808 L350.72,386.808 L346.784,397.432 C346.496,398.264 346.24,399.352 346.24,399.352 L346.176,399.352 C346.176,399.352 345.888,398.2 345.568,397.4 L341.504,386.808 L338.016,386.808 L344.8,402.808 L344,404.664 C343.392,406.136 342.336,407.064 341.056,407.064 C340.096,407.064 339.2,406.36 339.2,406.36 Z" id="15-day" fill="#181920"></path>
                <path d="M261.408,470.312 C263.328,472.296 266.08,473.384 268.736,473.384 C273.376,473.384 276.416,469.992 276.416,466.152 C276.416,461.736 272.768,459.816 269.792,459.528 L275.936,452.424 L275.936,450.408 L262.432,450.408 L262.432,453.16 L270.08,453.16 C271.328,453.16 272,453.064 272,453.064 L272,453.128 C272,453.128 271.296,453.704 270.592,454.6 L265.664,460.392 L266.4,462.088 L267.936,462.088 C270.752,462.088 273.216,463.464 273.216,466.248 C273.216,468.68 271.104,470.376 268.608,470.376 C266.432,470.376 264.352,469.224 263.136,467.912 L261.408,470.312 Z M279.712,470.248 C281.408,472.296 284,473.384 286.656,473.384 C291.2,473.384 294.656,470.12 294.656,465.8 C294.656,461.704 291.552,458.408 286.784,458.408 C285.696,458.408 284.384,458.792 283.84,459.08 L283.776,459.08 C283.776,459.08 283.904,458.632 283.968,457.928 L284.48,453.16 L293.152,453.16 L293.152,450.408 L281.728,450.408 L280.608,461.608 L282.464,462.28 C283.52,461.576 284.96,461.16 286.272,461.16 C289.184,461.16 291.392,463.08 291.392,465.8 C291.392,468.552 289.12,470.376 286.464,470.376 C284.128,470.376 282.464,469.128 281.504,467.944 L279.712,470.248 Z M306.112,473.384 C300.096,473.384 298.112,468.2 298.112,461.672 C298.112,455.176 300.096,450.024 306.112,450.024 C312.16,450.024 314.112,455.176 314.112,461.672 C314.112,468.2 312.16,473.384 306.112,473.384 Z M306.112,470.472 C309.824,470.472 310.848,466.632 310.848,461.672 C310.848,456.776 309.824,452.936 306.112,452.936 C302.432,452.936 301.376,456.776 301.376,461.672 C301.376,466.632 302.432,470.472 306.112,470.472 Z M325.472,464.904 C325.472,459.752 328.512,456.424 332.8,456.424 C334.848,456.424 336.8,457.352 337.824,459.08 L337.888,459.08 C337.888,459.08 337.824,458.6 337.824,457.992 L337.824,450.408 L340.896,450.408 L340.896,473 L337.952,473 L337.952,471.368 C337.952,470.728 338.048,470.28 338.048,470.28 L337.984,470.28 C337.056,472.04 335.168,473.384 332.608,473.384 C328.256,473.384 325.472,469.928 325.472,464.904 Z M328.64,464.904 C328.64,468.424 330.528,470.696 333.216,470.696 C335.616,470.696 337.888,468.968 337.888,464.872 C337.888,461.96 336.384,459.144 333.28,459.144 C330.752,459.144 328.64,461.224 328.64,464.904 Z M344.352,468.584 C344.352,463.496 350.656,462.92 354.016,462.92 L354.848,462.92 L354.848,462.6 C354.848,459.944 353.312,459.048 351.296,459.048 C349.696,459.048 348.064,459.688 346.752,460.616 L345.504,458.344 C346.816,457.256 349.28,456.424 351.552,456.424 C355.616,456.424 357.952,458.664 357.952,462.76 L357.952,473 L355.04,473 L355.04,471.368 C355.04,470.632 355.136,470.088 355.136,470.088 L355.072,470.088 C354.144,471.944 352.16,473.384 349.76,473.384 C346.944,473.384 344.352,471.624 344.352,468.584 Z M347.456,468.328 C347.456,469.608 348.48,470.92 350.496,470.92 C353.216,470.92 354.848,468.168 354.848,465.768 L354.848,465.16 L354.048,465.16 C351.744,465.16 347.456,465.352 347.456,468.328 Z M361.44,476.36 L360.352,478.728 C360.352,478.728 361.664,479.72 363.456,479.72 C365.728,479.72 367.744,478.44 368.704,475.912 L376.32,456.808 L372.96,456.808 L369.024,467.432 C368.736,468.264 368.48,469.352 368.48,469.352 L368.416,469.352 C368.416,469.352 368.128,468.2 367.808,467.4 L363.744,456.808 L360.256,456.808 L367.04,472.808 L366.24,474.664 C365.632,476.136 364.576,477.064 363.296,477.064 C362.336,477.064 361.44,476.36 361.44,476.36 Z" id="350-day" fill="#181920"></path>
                <path d="M261.088,536.952 L261.088,534.968 L271.552,520.408 L275.136,520.408 L275.136,534.296 L278.208,534.296 L278.208,536.952 L275.136,536.952 L275.136,543 L272.032,543 L272.032,536.952 L261.088,536.952 Z M264.576,534.296 L272.032,534.296 L272.032,526.04 C272.032,524.984 272.16,523.768 272.16,523.768 L272.096,523.768 C272.096,523.768 271.584,524.856 270.976,525.656 L264.576,534.232 L264.576,534.296 Z M281.088,540.248 C282.784,542.296 285.376,543.384 288.032,543.384 C292.576,543.384 296.032,540.12 296.032,535.8 C296.032,531.704 292.928,528.408 288.16,528.408 C287.072,528.408 285.76,528.792 285.216,529.08 L285.152,529.08 C285.152,529.08 285.28,528.632 285.344,527.928 L285.856,523.16 L294.528,523.16 L294.528,520.408 L283.104,520.408 L281.984,531.608 L283.84,532.28 C284.896,531.576 286.336,531.16 287.648,531.16 C290.56,531.16 292.768,533.08 292.768,535.8 C292.768,538.552 290.496,540.376 287.84,540.376 C285.504,540.376 283.84,539.128 282.88,537.944 L281.088,540.248 Z M306.944,534.904 C306.944,529.752 309.984,526.424 314.272,526.424 C316.32,526.424 318.272,527.352 319.296,529.08 L319.36,529.08 C319.36,529.08 319.296,528.6 319.296,527.992 L319.296,520.408 L322.368,520.408 L322.368,543 L319.424,543 L319.424,541.368 C319.424,540.728 319.52,540.28 319.52,540.28 L319.456,540.28 C318.528,542.04 316.64,543.384 314.08,543.384 C309.728,543.384 306.944,539.928 306.944,534.904 Z M310.112,534.904 C310.112,538.424 312,540.696 314.688,540.696 C317.088,540.696 319.36,538.968 319.36,534.872 C319.36,531.96 317.856,529.144 314.752,529.144 C312.224,529.144 310.112,531.224 310.112,534.904 Z M325.824,538.584 C325.824,533.496 332.128,532.92 335.488,532.92 L336.32,532.92 L336.32,532.6 C336.32,529.944 334.784,529.048 332.768,529.048 C331.168,529.048 329.536,529.688 328.224,530.616 L326.976,528.344 C328.288,527.256 330.752,526.424 333.024,526.424 C337.088,526.424 339.424,528.664 339.424,532.76 L339.424,543 L336.512,543 L336.512,541.368 C336.512,540.632 336.608,540.088 336.608,540.088 L336.544,540.088 C335.616,541.944 333.632,543.384 331.232,543.384 C328.416,543.384 325.824,541.624 325.824,538.584 Z M328.928,538.328 C328.928,539.608 329.952,540.92 331.968,540.92 C334.688,540.92 336.32,538.168 336.32,535.768 L336.32,535.16 L335.52,535.16 C333.216,535.16 328.928,535.352 328.928,538.328 Z M342.912,546.36 L341.824,548.728 C341.824,548.728 343.136,549.72 344.928,549.72 C347.2,549.72 349.216,548.44 350.176,545.912 L357.792,526.808 L354.432,526.808 L350.496,537.432 C350.208,538.264 349.952,539.352 349.952,539.352 L349.888,539.352 C349.888,539.352 349.6,538.2 349.28,537.4 L345.216,526.808 L341.728,526.808 L348.512,542.808 L347.712,544.664 C347.104,546.136 346.048,547.064 344.768,547.064 C343.808,547.064 342.912,546.36 342.912,546.36 Z" id="45-day" fill="#181920"></path>
                <path d="M461.856,403 L476.928,403 L476.928,399.448 L466.208,399.448 C466.4,395.16 476.576,393.912 476.576,386.616 C476.576,382.328 473.152,379.896 469.184,379.896 C465.536,379.896 462.976,382.008 461.664,384.44 L464.736,386.488 C465.568,385.016 467.104,383.8 468.832,383.8 C470.752,383.8 472.288,384.984 472.288,386.968 C472.288,391.48 461.664,392.792 461.664,400.984 C461.664,401.624 461.728,402.264 461.856,403 Z M489.408,403 L489.408,380.28 L497.152,380.28 C504.16,380.28 508.736,384.44 508.736,391.608 C508.736,398.776 504.16,403 497.152,403 L489.408,403 Z M493.536,399.448 L496.928,399.448 C501.536,399.448 504.48,396.728 504.48,391.608 C504.48,386.552 501.472,383.832 496.928,383.832 L493.536,383.832 L493.536,399.448 Z M512.992,403 L517.12,403 L517.12,393.464 L527.52,393.464 L527.52,403 L531.616,403 L531.616,380.28 L527.52,380.28 L527.52,389.912 L517.12,389.912 L517.12,380.28 L512.992,380.28 L512.992,403 Z M542.272,403 L546.368,403 L546.368,383.832 L553.824,383.832 L553.824,380.28 L534.816,380.28 L534.816,383.832 L542.272,383.832 L542.272,403 Z" id="2-DHT" fill="#303498"></path>
                <path d="M461.824,473 L474.848,473 L474.848,470.248 L469.888,470.248 L469.888,450.408 L467.072,450.408 L461.664,455.656 L463.584,457.64 L465.696,455.592 C466.528,454.76 466.784,454.28 466.784,454.28 L466.848,454.28 C466.848,454.28 466.816,454.952 466.816,455.656 L466.816,470.248 L461.824,470.248 L461.824,473 Z M476.512,466.952 L476.512,464.968 L486.976,450.408 L490.56,450.408 L490.56,464.296 L493.632,464.296 L493.632,466.952 L490.56,466.952 L490.56,473 L487.456,473 L487.456,466.952 L476.512,466.952 Z M480,464.296 L487.456,464.296 L487.456,456.04 C487.456,454.984 487.584,453.768 487.584,453.768 L487.52,453.768 C487.52,453.768 487.008,454.856 486.4,455.656 L480,464.232 L480,464.296 Z M505.92,473 L505.92,450.408 L513.44,450.408 C520.32,450.408 524.864,454.536 524.864,461.672 C524.864,468.84 520.32,473 513.44,473 L505.92,473 Z M509.088,470.248 L513.216,470.248 C518.272,470.248 521.6,467.272 521.6,461.672 C521.6,456.136 518.24,453.16 513.216,453.16 L509.088,453.16 L509.088,470.248 Z M529.504,473 L532.672,473 L532.672,463.08 L544.416,463.08 L544.416,473 L547.552,473 L547.552,450.408 L544.416,450.408 L544.416,460.328 L532.672,460.328 L532.672,450.408 L529.504,450.408 L529.504,473 Z M558.784,473 L561.92,473 L561.92,453.16 L569.696,453.16 L569.696,450.408 L551.008,450.408 L551.008,453.16 L558.784,453.16 L558.784,473 Z" id="14-DHT" fill="#181920"></path>
                <path d="M461.824,532.76 C461.824,526.936 464.992,520.024 471.968,520.024 C473.472,520.024 475.04,520.312 476.384,520.952 L475.36,523.672 C474.624,523.288 473.216,522.936 472.096,522.936 C468,522.936 465.824,526.776 465.344,530.52 L465.408,530.52 C466.368,529.24 468.416,528.408 470.4,528.408 C474.688,528.408 477.536,531.608 477.536,535.864 C477.536,540.216 474.496,543.384 470.272,543.384 C465.472,543.384 461.824,539.16 461.824,532.76 Z M470.368,540.472 C472.8,540.472 474.4,538.456 474.4,535.864 C474.4,533.048 472.672,531.064 469.76,531.064 C467.392,531.064 465.152,532.344 465.152,534.392 C465.152,536.824 467.136,540.472 470.368,540.472 Z M490.08,543 L490.08,520.408 L497.6,520.408 C504.48,520.408 509.024,524.536 509.024,531.672 C509.024,538.84 504.48,543 497.6,543 L490.08,543 Z M493.248,540.248 L497.376,540.248 C502.432,540.248 505.76,537.272 505.76,531.672 C505.76,526.136 502.4,523.16 497.376,523.16 L493.248,523.16 L493.248,540.248 Z M513.664,543 L516.832,543 L516.832,533.08 L528.576,533.08 L528.576,543 L531.712,543 L531.712,520.408 L528.576,520.408 L528.576,530.328 L516.832,530.328 L516.832,520.408 L513.664,520.408 L513.664,543 Z M542.944,543 L546.08,543 L546.08,523.16 L553.856,523.16 L553.856,520.408 L535.168,520.408 L535.168,523.16 L542.944,523.16 L542.944,543 Z" id="6-DHT" fill="#181920"></path>
                <path d="M62.976,473 L66.144,473 L66.144,450.408 L62.976,450.408 L62.976,473 Z M70.752,461.576 C70.752,468.2 75.328,473.384 82.336,473.384 C86.336,473.384 89.152,471.72 91.072,469.8 L89.376,467.528 C87.552,469.352 84.96,470.472 82.432,470.472 C77.184,470.472 74.016,466.344 74.016,461.544 C74.016,456.776 77.12,452.904 82.368,452.904 C84.704,452.904 87.232,453.896 88.896,455.368 L90.496,453 C88.32,450.92 85.152,450.024 82.24,450.024 C75.52,450.024 70.752,455.016 70.752,461.576 Z M93.088,461.544 C93.088,455.048 97.984,450.024 104.704,450.024 C111.424,450.024 116.288,455.048 116.288,461.544 C116.288,468.2 111.424,473.384 104.704,473.384 C97.984,473.384 93.088,468.2 93.088,461.544 Z M96.352,461.544 C96.352,466.6 99.872,470.472 104.704,470.472 C109.504,470.472 113.024,466.6 113.024,461.544 C113.024,456.648 109.504,452.904 104.704,452.904 C99.872,452.904 96.352,456.648 96.352,461.544 Z M128.832,473 L128.832,450.408 L136.736,450.408 C140.576,450.408 143.296,452.52 143.296,456.168 C143.296,458.376 142.208,460.136 140.48,461.032 L140.48,461.096 C142.88,461.8 144.224,464.04 144.224,466.568 C144.224,470.824 140.896,473 136.928,473 L128.832,473 Z M132,459.912 L136.736,459.912 C138.784,459.912 140.064,458.472 140.064,456.488 C140.064,454.504 138.848,453.16 136.704,453.16 L132,453.16 L132,459.912 Z M132,470.248 L137.088,470.248 C139.52,470.248 140.96,468.712 140.96,466.376 C140.96,464.104 139.456,462.536 137.088,462.536 L132,462.536 L132,470.248 Z" id="ICO-B" fill="#181920"></path>
                <path d="M62.976,543 L66.144,543 L66.144,520.408 L62.976,520.408 L62.976,543 Z M70.752,531.576 C70.752,538.2 75.328,543.384 82.336,543.384 C86.336,543.384 89.152,541.72 91.072,539.8 L89.376,537.528 C87.552,539.352 84.96,540.472 82.432,540.472 C77.184,540.472 74.016,536.344 74.016,531.544 C74.016,526.776 77.12,522.904 82.368,522.904 C84.704,522.904 87.232,523.896 88.896,525.368 L90.496,523 C88.32,520.92 85.152,520.024 82.24,520.024 C75.52,520.024 70.752,525.016 70.752,531.576 Z M93.088,531.544 C93.088,525.048 97.984,520.024 104.704,520.024 C111.424,520.024 116.288,525.048 116.288,531.544 C116.288,538.2 111.424,543.384 104.704,543.384 C97.984,543.384 93.088,538.2 93.088,531.544 Z M96.352,531.544 C96.352,536.6 99.872,540.472 104.704,540.472 C109.504,540.472 113.024,536.6 113.024,531.544 C113.024,526.648 109.504,522.904 104.704,522.904 C99.872,522.904 96.352,526.648 96.352,531.544 Z M127.456,531.576 C127.456,538.2 132.032,543.384 139.04,543.384 C143.04,543.384 145.856,541.72 147.776,539.8 L146.08,537.528 C144.256,539.352 141.664,540.472 139.136,540.472 C133.888,540.472 130.72,536.344 130.72,531.544 C130.72,526.776 133.824,522.904 139.072,522.904 C141.408,522.904 143.936,523.896 145.6,525.368 L147.2,523 C145.024,520.92 141.856,520.024 138.944,520.024 C132.224,520.024 127.456,525.016 127.456,531.576 Z" id="ICO-C" fill="#181920"></path>
                <path d="M2.752,23 L6.88,23 L6.88,0.28 L2.752,0.28 L2.752,23 Z M15.9912228,8.96449363 L15.52,8.19266298 L15.52,8.6 C15.52,9.24 15.456,9.752 15.456,9.752 L15.52,9.752 C15.6398354,9.50662277 15.7963048,9.23885811 15.9912228,8.96449363 Z M15.52,8.19266298 L15.9912228,8.96449363 C16.8893451,7.70030656 18.6037641,6.296 21.312,6.296 C24.928,6.296 27.008,8.184 27.008,12.504 L27.008,23 L22.944,23 L22.944,13.336 C22.944,11.352 22.432,10.008 20.384,10.008 C17.504,10.008 15.68,12.408 15.68,15.352 L15.68,23 L11.616,23 L11.616,6.68 L15.52,6.68 L15.52,8.19266298 Z M35.168,23 L39.968,23 L45.824,6.68 L41.536,6.68 L38.144,16.792 C37.856,17.752 37.568,19.256 37.568,19.256 L37.504,19.256 C37.504,19.256 37.216,17.752 36.928,16.792 L33.536,6.68 L29.248,6.68 L35.168,23 Z M47.04,14.84 C47.04,9.816 50.464,6.296 55.36,6.296 C60.032,6.296 62.592,9.72 62.592,14.04 C62.592,14.552 62.528,15.096 62.464,15.608 L51.232,15.608 C51.488,18.456 53.664,19.928 56.128,19.928 C57.792,19.928 59.488,19.192 60.8,18.136 L62.4,21.048 C60.736,22.52 58.176,23.384 55.84,23.384 C50.432,23.384 47.04,19.48 47.04,14.84 Z M51.328,12.824 L58.528,12.824 C58.496,10.648 57.088,9.368 55.264,9.368 C53.184,9.368 51.712,10.744 51.328,12.824 Z M64.672,20.984 C66.368,22.616 68.8,23.384 71.072,23.384 C74.816,23.384 77.248,21.24 77.248,18.36 C77.248,13.016 69.152,13.752 69.152,11.16 C69.152,10.136 70.016,9.592 71.424,9.592 C72.864,9.592 74.592,10.168 75.552,11 L77.056,8.152 C75.552,6.84 73.504,6.296 71.552,6.296 C68.128,6.296 65.312,7.992 65.312,11.192 C65.312,16.536 73.408,15.896 73.408,18.456 C73.408,19.48 72.576,20.088 71.136,20.088 C69.504,20.088 67.712,19.416 66.496,18.296 L64.672,20.984 Z M81.408,17.016 C81.408,22.488 85.92,23.16 88.192,23.16 C88.736,23.16 89.12,23.096 89.44,23.064 L89.44,19.512 C89.12,19.576 88.928,19.576 88.704,19.576 C87.584,19.576 85.472,19.192 85.472,16.504 L85.472,10.136 L89.184,10.136 L89.184,6.904 L85.472,6.904 L85.472,2.232 L81.504,2.232 L81.504,6.904 L79.296,6.904 L79.296,10.136 L81.408,10.136 L81.408,17.016 Z M91.392,14.84 C91.392,9.848 95.392,6.296 100.32,6.296 C105.312,6.296 109.312,9.848 109.312,14.84 C109.312,19.864 105.312,23.384 100.352,23.384 C95.392,23.384 91.392,19.864 91.392,14.84 Z M95.52,14.84 C95.52,17.88 97.696,19.928 100.352,19.928 C103.008,19.928 105.216,17.88 105.216,14.84 C105.216,11.832 103.008,9.752 100.352,9.752 C97.696,9.752 95.52,11.832 95.52,14.84 Z M116.949693,9.75271632 L116.576,9.11614815 L116.576,9.56 C116.576,10.168 116.512,10.68 116.512,10.68 L116.576,10.68 C116.6775,10.3622594 116.802736,10.0518219 116.949693,9.75271632 Z M116.576,9.11614815 L116.949693,9.75271632 C117.868349,7.88294817 119.635806,6.456 121.76,6.456 C122.016,6.456 122.272,6.488 122.528,6.52 L122.528,10.52 C122.368,10.488 121.888,10.456 121.536,10.456 C118.208,10.456 116.736,13.336 116.736,16.408 L116.736,23 L112.672,23 L112.672,6.68 L116.576,6.68 L116.576,9.11614815 Z" id="Investor" fill="#303498"></path>
            </g>
        </g>
    </g>
</svg>