<?xml version="1.0" encoding="UTF-8"?>
<svg width="960px" height="960px" viewBox="0 0 960 960" version="1.1" xmlns="http://www.w3.org/2000/svg" xmlns:xlink="http://www.w3.org/1999/xlink">
    <!-- Generator: Sketch 46.1 (44463) - http://www.bohemiancoding.com/sketch -->
    <title>scheme-4</title>
    <desc>Created with Sketch.</desc>
    <defs></defs>
    <g id="Main" stroke="none" stroke-width="1" fill="none" fill-rule="evenodd">
        <g id="scheme-4">
            <g id="Group-3" transform="translate(0.000000, 410.000000)">
                <g id="Group-4">
                    <path d="M4,4 L4,436 L716,436 L716,4 L4,4 Z" id="Rectangle-4" stroke="#F6F6F9" stroke-width="8"></path>
                    <path d="M62.752,66 L62.752,43.28 L70.496,43.28 C77.504,43.28 82.08,47.44 82.08,54.608 C82.08,61.776 77.504,66 70.496,66 L62.752,66 Z M66.88,62.448 L70.272,62.448 C74.88,62.448 77.824,59.728 77.824,54.608 C77.824,49.552 74.816,46.832 70.272,46.832 L66.88,46.832 L66.88,62.448 Z M84.768,57.84 C84.768,52.816 88.192,49.296 93.088,49.296 C97.76,49.296 100.32,52.72 100.32,57.04 C100.32,57.552 100.256,58.096 100.192,58.608 L88.96,58.608 C89.216,61.456 91.392,62.928 93.856,62.928 C95.52,62.928 97.216,62.192 98.528,61.136 L100.128,64.048 C98.464,65.52 95.904,66.384 93.568,66.384 C88.16,66.384 84.768,62.48 84.768,57.84 Z M89.056,55.824 L96.256,55.824 C96.224,53.648 94.816,52.368 92.992,52.368 C90.912,52.368 89.44,53.744 89.056,55.824 Z M104.032,66 L108.16,66 L108.16,56.464 L118.56,56.464 L118.56,66 L122.656,66 L122.656,43.28 L118.56,43.28 L118.56,52.912 L108.16,52.912 L108.16,43.28 L104.032,43.28 L104.032,66 Z M126.272,57.84 C126.272,52.816 129.696,49.296 134.592,49.296 C139.264,49.296 141.824,52.72 141.824,57.04 C141.824,57.552 141.76,58.096 141.696,58.608 L130.464,58.608 C130.72,61.456 132.896,62.928 135.36,62.928 C137.024,62.928 138.72,62.192 140.032,61.136 L141.632,64.048 C139.968,65.52 137.408,66.384 135.072,66.384 C129.664,66.384 126.272,62.48 126.272,57.84 Z M130.56,55.824 L137.76,55.824 C137.728,53.648 136.32,52.368 134.496,52.368 C132.416,52.368 130.944,53.744 130.56,55.824 Z M156.116641,64.3574664 L156.672,64.7184099 L156.672,64.592 C156.672,63.984 156.736,63.568 156.736,63.568 L156.672,63.568 C156.511328,63.8464975 156.325558,64.1106531 156.116641,64.3574664 Z M156.672,64.7184099 L156.116641,64.3574664 C155.077291,65.5853427 153.465032,66.384 151.52,66.384 C147.136,66.384 144.288,62.896 144.288,57.84 C144.288,52.656 147.36,49.296 151.68,49.296 C153.504,49.296 155.392,49.968 156.448,51.44 L156.512,51.44 C156.512,51.44 156.448,51.024 156.448,50.48 L156.448,43.28 L160.48,43.28 L160.48,66 L156.672,66 L156.672,64.7184099 Z M148.384,57.84 C148.384,60.944 150.048,62.96 152.448,62.96 C154.56,62.96 156.544,61.424 156.544,57.808 C156.544,55.28 155.232,52.784 152.48,52.784 C150.272,52.784 148.384,54.608 148.384,57.84 Z M175.327821,64.0664336 L175.84,64.3801958 L175.84,64.272 C175.84,63.888 175.904,63.408 175.904,63.408 L175.84,63.408 C175.68256,63.64416 175.51221,63.8639672 175.327821,64.0664336 Z M175.84,64.3801958 L175.327821,64.0664336 C174.387885,65.0985185 173.083136,65.68 171.264,65.68 C166.592,65.68 163.968,61.904 163.968,57.424 C163.968,52.944 166.464,49.296 171.168,49.296 C172.992,49.296 174.944,49.936 176.032,51.44 L176.128,51.44 C176.128,51.44 176.064,51.248 176.064,50.992 L176.064,49.68 L179.904,49.68 L179.904,65.008 C179.904,70.608 175.552,72.72 171.296,72.72 C169.248,72.72 167.072,72.144 165.472,71.312 L166.72,68.208 C168.032,68.848 169.632,69.264 171.232,69.264 C173.728,69.264 175.84,68.208 175.84,65.296 L175.84,64.3801958 Z M168.064,57.296 C168.064,60.144 169.504,62.256 172.16,62.256 C174.08,62.256 175.936,61.136 175.936,57.456 C175.936,53.744 174.08,52.752 171.904,52.752 C169.44,52.752 168.064,54.544 168.064,57.296 Z M183.264,57.84 C183.264,52.816 186.688,49.296 191.584,49.296 C196.256,49.296 198.816,52.72 198.816,57.04 C198.816,57.552 198.752,58.096 198.688,58.608 L187.456,58.608 C187.712,61.456 189.888,62.928 192.352,62.928 C194.016,62.928 195.712,62.192 197.024,61.136 L198.624,64.048 C196.96,65.52 194.4,66.384 192.064,66.384 C186.656,66.384 183.264,62.48 183.264,57.84 Z M187.552,55.824 L194.752,55.824 C194.72,53.648 193.312,52.368 191.488,52.368 C189.408,52.368 187.936,53.744 187.552,55.824 Z" id="DeHedge" fill="#303498"></path>
                    <path d="M61,109 L61,279 M61,297 L61,326 M61,342 L61,379 L659.000821,379" id="Path-5" stroke="#F6F6F9" stroke-width="4" stroke-linecap="round" stroke-linejoin="round"></path>
                    <path d="M601.628,413 L601.628,397.468 L607.062,397.468 C609.702,397.468 611.572,398.92 611.572,401.428 C611.572,402.946 610.824,404.156 609.636,404.772 L609.636,404.816 C611.286,405.3 612.21,406.84 612.21,408.578 C612.21,411.504 609.922,413 607.194,413 L601.628,413 Z M603.806,404.002 L607.062,404.002 C608.47,404.002 609.35,403.012 609.35,401.648 C609.35,400.284 608.514,399.36 607.04,399.36 L603.806,399.36 L603.806,404.002 Z M603.806,411.108 L607.304,411.108 C608.976,411.108 609.966,410.052 609.966,408.446 C609.966,406.884 608.932,405.806 607.304,405.806 L603.806,405.806 L603.806,411.108 Z M614.85,417.4 L614.85,401.868 L616.83,401.868 L616.83,402.858 C616.83,403.32 616.764,403.694 616.764,403.694 L616.808,403.694 C617.512,402.352 618.92,401.604 620.548,401.604 C623.562,401.604 625.432,403.98 625.432,407.434 C625.432,410.976 623.32,413.264 620.394,413.264 C618.986,413.264 617.71,412.56 616.94,411.372 L616.896,411.372 C616.896,411.372 616.984,411.768 616.984,412.34 L616.984,417.4 L614.85,417.4 Z M616.918,407.478 C616.918,409.458 618.018,411.416 620.064,411.416 C621.824,411.416 623.276,409.986 623.276,407.456 C623.276,405.036 621.978,403.474 620.13,403.474 C618.458,403.474 616.918,404.662 616.918,407.478 Z M627.346,407.434 C627.346,403.892 629.766,401.604 632.934,401.604 C636.08,401.604 637.752,403.958 637.752,406.818 C637.752,407.104 637.708,407.412 637.664,407.72 L629.568,407.72 C629.678,410.118 631.394,411.416 633.396,411.416 C634.584,411.416 635.794,410.91 636.674,410.118 L637.576,411.68 C636.498,412.67 634.804,413.264 633.264,413.264 C629.766,413.264 627.346,410.734 627.346,407.434 Z M629.634,406.18 L635.596,406.18 C635.53,404.266 634.342,403.254 632.89,403.254 C631.24,403.254 629.942,404.332 629.634,406.18 Z M639.864,413 L641.932,413 L642.416,406.378 C642.46,405.718 642.394,404.464 642.394,404.464 L642.438,404.464 C642.438,404.464 642.79,405.3 643.142,406.114 L645.782,411.658 L647.608,411.658 L650.248,406.092 C650.666,405.234 650.952,404.464 650.952,404.464 L650.996,404.464 C650.996,404.464 650.952,405.718 650.974,406.378 L651.458,413 L653.526,413 L652.558,401.868 L650.226,401.868 L647.322,408.16 C647.036,408.842 646.706,409.656 646.706,409.656 L646.662,409.656 C646.662,409.656 646.354,408.82 646.046,408.16 L643.208,401.868 L640.832,401.868 L639.864,413 Z M655.264,413 L657.838,409.304 C658.08,408.908 658.344,408.622 658.344,408.622 L658.344,408.6 C657.068,408.248 655.924,407.06 655.924,405.366 C655.924,403.078 657.552,401.868 659.906,401.868 L664.35,401.868 L664.35,413 L662.216,413 L662.216,408.974 L660.346,408.974 L657.618,413 L655.264,413 Z M660.368,407.412 L662.216,407.412 L662.216,403.342 L660.434,403.342 C659.004,403.342 658.08,403.914 658.08,405.344 C658.08,406.73 659.07,407.412 660.368,407.412 Z" id="Время" fill="#181920" opacity="0.5"></path>
                    <path d="M189.972,315.108 L197.034,315.108 L197.034,303.36 L192.172,303.36 L192.172,304.79 C192.172,308.2 191.798,312.314 189.972,315.108 Z M186.122,315.108 L187.684,315.108 C189.84,312.072 190.126,308.046 190.126,304.658 L190.126,301.468 L199.212,301.468 L199.212,315.108 L200.928,315.108 L200.928,320.08 L198.97,320.08 L198.97,317 L188.146,317 L188.146,320.08 L186.122,320.08 L186.122,315.108 Z M203.304,317 L205.35,317 L210.168,310.356 C210.52,309.828 211.07,309.08 211.136,308.882 L211.18,308.882 C211.18,309.058 211.114,309.828 211.114,310.356 L211.114,317 L213.182,317 L213.182,305.868 L211.114,305.868 L206.318,312.512 C205.944,313.04 205.416,313.81 205.328,314.008 L205.284,314.008 C205.306,313.898 205.35,313.106 205.35,312.512 L205.35,305.868 L203.304,305.868 L203.304,317 Z M215.536,313.964 C215.536,310.466 219.87,310.07 222.18,310.07 L222.752,310.07 L222.752,309.85 C222.752,308.024 221.696,307.408 220.31,307.408 C219.21,307.408 218.088,307.848 217.186,308.486 L216.328,306.924 C217.23,306.176 218.924,305.604 220.486,305.604 C223.28,305.604 224.886,307.144 224.886,309.96 L224.886,317 L222.884,317 L222.884,315.878 C222.884,315.372 222.95,314.998 222.95,314.998 L222.906,314.998 C222.268,316.274 220.904,317.264 219.254,317.264 C217.318,317.264 215.536,316.054 215.536,313.964 Z M217.67,313.788 C217.67,314.668 218.374,315.57 219.76,315.57 C221.63,315.57 222.752,313.678 222.752,312.028 L222.752,311.61 L222.202,311.61 C220.618,311.61 217.67,311.742 217.67,313.788 Z M228.032,317 L230.166,317 L230.166,307.694 L235.622,307.694 L235.622,317 L237.756,317 L237.756,305.868 L228.032,305.868 L228.032,317 Z M240.132,313.964 C240.132,310.466 244.466,310.07 246.776,310.07 L247.348,310.07 L247.348,309.85 C247.348,308.024 246.292,307.408 244.906,307.408 C243.806,307.408 242.684,307.848 241.782,308.486 L240.924,306.924 C241.826,306.176 243.52,305.604 245.082,305.604 C247.876,305.604 249.482,307.144 249.482,309.96 L249.482,317 L247.48,317 L247.48,315.878 C247.48,315.372 247.546,314.998 247.546,314.998 L247.502,314.998 C246.864,316.274 245.5,317.264 243.85,317.264 C241.914,317.264 240.132,316.054 240.132,313.964 Z M242.266,313.788 C242.266,314.668 242.97,315.57 244.356,315.57 C246.226,315.57 247.348,313.678 247.348,312.028 L247.348,311.61 L246.798,311.61 C245.214,311.61 242.266,311.742 242.266,313.788 Z M251.55,315.636 C252.474,316.516 253.926,317.264 255.642,317.264 C257.93,317.264 259.91,316.098 259.91,313.81 C259.91,312.38 259.03,311.544 257.908,311.192 L257.908,311.148 C258.788,310.774 259.536,310.004 259.536,308.618 C259.536,306.638 257.886,305.604 255.774,305.604 C254.014,305.604 252.76,306.176 251.902,306.814 L252.694,308.244 C253.552,307.606 254.432,307.276 255.4,307.276 C256.632,307.276 257.38,307.848 257.38,308.882 C257.38,310.004 256.522,310.488 255.268,310.488 L254.102,310.488 L254.102,312.028 L255.466,312.028 C257.028,312.028 257.754,312.644 257.754,313.722 C257.754,314.932 256.72,315.548 255.444,315.548 C254.102,315.548 253.046,314.756 252.54,314.228 L251.55,315.636 Z M261.758,311.412 C261.758,308.046 264.442,305.604 267.742,305.604 C271.064,305.604 273.748,308.046 273.748,311.412 C273.748,314.8 271.064,317.264 267.764,317.264 C264.442,317.264 261.758,314.8 261.758,311.412 Z M263.936,311.412 C263.936,313.744 265.652,315.416 267.764,315.416 C269.854,315.416 271.592,313.744 271.592,311.412 C271.592,309.102 269.854,307.452 267.764,307.452 C265.652,307.452 263.936,309.102 263.936,311.412 Z M276.322,317 L278.456,317 L278.456,312.226 L284.088,312.226 L284.088,317 L286.222,317 L286.222,305.868 L284.088,305.868 L284.088,310.4 L278.456,310.4 L278.456,305.868 L276.322,305.868 L276.322,317 Z M294.296,311.434 C294.296,314.778 296.738,317.264 300.258,317.264 C301.996,317.264 303.69,316.56 304.702,315.482 L303.844,313.92 C302.986,314.822 301.644,315.416 300.412,315.416 C298.102,315.416 296.474,313.678 296.474,311.412 C296.474,309.146 298.102,307.452 300.346,307.452 C301.512,307.452 302.678,307.98 303.426,308.728 L304.438,307.232 C303.382,306.11 301.732,305.604 300.258,305.604 C296.76,305.604 294.296,308.134 294.296,311.434 Z M309.696,317 L311.808,317 L311.808,307.694 L315.702,307.694 L315.702,305.868 L305.824,305.868 L305.824,307.694 L309.696,307.694 L309.696,317 Z M317.792,321.4 L317.792,305.868 L319.772,305.868 L319.772,306.858 C319.772,307.32 319.706,307.694 319.706,307.694 L319.75,307.694 C320.454,306.352 321.862,305.604 323.49,305.604 C326.504,305.604 328.374,307.98 328.374,311.434 C328.374,314.976 326.262,317.264 323.336,317.264 C321.928,317.264 320.652,316.56 319.882,315.372 L319.838,315.372 C319.838,315.372 319.926,315.768 319.926,316.34 L319.926,321.4 L317.792,321.4 Z M319.86,311.478 C319.86,313.458 320.96,315.416 323.006,315.416 C324.766,315.416 326.218,313.986 326.218,311.456 C326.218,309.036 324.92,307.474 323.072,307.474 C321.4,307.474 319.86,308.662 319.86,311.478 Z M330.09,313.964 C330.09,310.466 334.424,310.07 336.734,310.07 L337.306,310.07 L337.306,309.85 C337.306,308.024 336.25,307.408 334.864,307.408 C333.764,307.408 332.642,307.848 331.74,308.486 L330.882,306.924 C331.784,306.176 333.478,305.604 335.04,305.604 C337.834,305.604 339.44,307.144 339.44,309.96 L339.44,317 L337.438,317 L337.438,315.878 C337.438,315.372 337.504,314.998 337.504,314.998 L337.46,314.998 C336.822,316.274 335.458,317.264 333.808,317.264 C331.872,317.264 330.09,316.054 330.09,313.964 Z M332.224,313.788 C332.224,314.668 332.928,315.57 334.314,315.57 C336.184,315.57 337.306,313.678 337.306,312.028 L337.306,311.61 L336.756,311.61 C335.172,311.61 332.224,311.742 332.224,313.788 Z M341.31,317 L343.73,317 L346.062,313.282 C346.238,313.018 346.392,312.688 346.392,312.688 L346.436,312.688 C346.436,312.688 346.612,313.018 346.788,313.282 L349.12,317 L351.54,317 L347.734,311.28 L351.32,305.868 L348.878,305.868 L346.81,309.256 C346.656,309.542 346.436,309.916 346.436,309.916 L346.392,309.916 C346.392,309.916 346.194,309.542 346.04,309.256 L343.972,305.868 L341.53,305.868 L345.116,311.28 L341.31,317 Z M352.464,311.412 C352.464,308.046 355.148,305.604 358.448,305.604 C361.77,305.604 364.454,308.046 364.454,311.412 C364.454,314.8 361.77,317.264 358.47,317.264 C355.148,317.264 352.464,314.8 352.464,311.412 Z M354.642,311.412 C354.642,313.744 356.358,315.416 358.47,315.416 C360.56,315.416 362.298,313.744 362.298,311.412 C362.298,309.102 360.56,307.452 358.47,307.452 C356.358,307.452 354.642,309.102 354.642,311.412 Z M367.028,317 L367.028,305.868 L371.626,305.868 C373.87,305.868 375.344,306.858 375.344,308.728 C375.344,309.806 374.772,310.73 373.76,311.17 L373.76,311.192 C375.146,311.522 375.872,312.6 375.872,313.832 C375.872,315.9 374.2,317 371.78,317 L367.028,317 Z M369.162,310.576 L371.252,310.576 C372.528,310.576 373.166,309.916 373.166,308.882 C373.166,307.87 372.528,307.342 371.186,307.342 L369.162,307.342 L369.162,310.576 Z M369.162,315.504 L371.45,315.504 C372.99,315.504 373.716,314.8 373.716,313.766 C373.716,312.666 372.902,312.006 371.428,312.006 L369.162,312.006 L369.162,315.504 Z M377.544,313.964 C377.544,310.466 381.878,310.07 384.188,310.07 L384.76,310.07 L384.76,309.85 C384.76,308.024 383.704,307.408 382.318,307.408 C381.218,307.408 380.096,307.848 379.194,308.486 L378.336,306.924 C379.238,306.176 380.932,305.604 382.494,305.604 C385.288,305.604 386.894,307.144 386.894,309.96 L386.894,317 L384.892,317 L384.892,315.878 C384.892,315.372 384.958,314.998 384.958,314.998 L384.914,314.998 C384.276,316.274 382.912,317.264 381.262,317.264 C379.326,317.264 377.544,316.054 377.544,313.964 Z M379.678,313.788 C379.678,314.668 380.382,315.57 381.768,315.57 C383.638,315.57 384.76,313.678 384.76,312.028 L384.76,311.61 L384.21,311.61 C382.626,311.61 379.678,311.742 379.678,313.788 Z M390.04,317 L392.174,317 L392.174,312.226 L397.806,312.226 L397.806,317 L399.94,317 L399.94,305.868 L397.806,305.868 L397.806,310.4 L392.174,310.4 L392.174,305.868 L390.04,305.868 L390.04,317 Z M403.24,317 L405.286,317 L410.104,310.356 C410.456,309.828 411.006,309.08 411.072,308.882 L411.116,308.882 C411.116,309.058 411.05,309.828 411.05,310.356 L411.05,317 L413.118,317 L413.118,305.868 L411.05,305.868 L406.254,312.512 C405.88,313.04 405.352,313.81 405.264,314.008 L405.22,314.008 C405.242,313.898 405.286,313.106 405.286,312.512 L405.286,305.868 L403.24,305.868 L403.24,317 Z M415.274,317 L417.848,313.304 C418.09,312.908 418.354,312.622 418.354,312.622 L418.354,312.6 C417.078,312.248 415.934,311.06 415.934,309.366 C415.934,307.078 417.562,305.868 419.916,305.868 L424.36,305.868 L424.36,317 L422.226,317 L422.226,312.974 L420.356,312.974 L417.628,317 L415.274,317 Z M420.378,311.412 L422.226,311.412 L422.226,307.342 L420.444,307.342 C419.014,307.342 418.09,307.914 418.09,309.344 C418.09,310.73 419.08,311.412 420.378,311.412 Z" id="Диапазон-страхования" fill="#181920" opacity="0.5"></path>
                    <path d="M360,440 L360,534" id="Line" stroke="#F6F6F9" stroke-width="8" stroke-linecap="square"></path>
                    <path d="M280,542 L440,542" id="Line" stroke="#F6F6F9" stroke-width="8" stroke-linecap="round" stroke-linejoin="round"></path>
                </g>
                <path d="M70,288 L88,288 M104,288 L642,288" id="Path-8" stroke="#F6F6F9" stroke-width="4" stroke-linecap="round" stroke-linejoin="round"></path>
                <path d="M70,334 L552,334 M568,334 L642,334" id="Path-8" stroke="#F6F6F9" stroke-width="4" stroke-linecap="round" stroke-linejoin="round"></path>
                <path d="M-29.118,181 L-17.326,181 L-17.326,184.08 L-15.368,184.08 L-15.368,179.108 L-17.15,179.108 L-17.15,165.468 L-19.328,165.468 L-19.328,179.108 L-26.94,179.108 L-26.94,165.468 L-29.118,165.468 L-29.118,181 Z M-13.894,175.434 C-13.894,171.892 -11.474,169.604 -8.306,169.604 C-5.16,169.604 -3.488,171.958 -3.488,174.818 C-3.488,175.104 -3.532,175.412 -3.576,175.72 L-11.672,175.72 C-11.562,178.118 -9.846,179.416 -7.844,179.416 C-6.656,179.416 -5.446,178.91 -4.566,178.118 L-3.664,179.68 C-4.742,180.67 -6.436,181.264 -7.976,181.264 C-11.474,181.264 -13.894,178.734 -13.894,175.434 Z M-11.606,174.18 L-5.644,174.18 C-5.71,172.266 -6.898,171.254 -8.35,171.254 C-10,171.254 -11.298,172.332 -11.606,174.18 Z M-0.914,181 L1.22,181 L1.22,176.226 L6.852,176.226 L6.852,181 L8.986,181 L8.986,169.868 L6.852,169.868 L6.852,174.4 L1.22,174.4 L1.22,169.868 L-0.914,169.868 L-0.914,181 Z M11.362,177.964 C11.362,174.466 15.696,174.07 18.006,174.07 L18.578,174.07 L18.578,173.85 C18.578,172.024 17.522,171.408 16.136,171.408 C15.036,171.408 13.914,171.848 13.012,172.486 L12.154,170.924 C13.056,170.176 14.75,169.604 16.312,169.604 C19.106,169.604 20.712,171.144 20.712,173.96 L20.712,181 L18.71,181 L18.71,179.878 C18.71,179.372 18.776,178.998 18.776,178.998 L18.732,178.998 C18.094,180.274 16.73,181.264 15.08,181.264 C13.144,181.264 11.362,180.054 11.362,177.964 Z M13.496,177.788 C13.496,178.668 14.2,179.57 15.586,179.57 C17.456,179.57 18.578,177.678 18.578,176.028 L18.578,175.61 L18.028,175.61 C16.444,175.61 13.496,175.742 13.496,177.788 Z M32.042,181 L34.154,181 L34.154,171.694 L38.048,171.694 L38.048,169.868 L28.17,169.868 L28.17,171.694 L32.042,171.694 L32.042,181 Z M39.038,175.412 C39.038,172.046 41.722,169.604 45.022,169.604 C48.344,169.604 51.028,172.046 51.028,175.412 C51.028,178.8 48.344,181.264 45.044,181.264 C41.722,181.264 39.038,178.8 39.038,175.412 Z M41.216,175.412 C41.216,177.744 42.932,179.416 45.044,179.416 C47.134,179.416 48.872,177.744 48.872,175.412 C48.872,173.102 47.134,171.452 45.044,171.452 C42.932,171.452 41.216,173.102 41.216,175.412 Z M53.602,181 L55.736,181 L55.736,176.182 L57.342,176.182 L60.664,181 L63.194,181 L59.036,175.214 L59.036,175.17 L62.754,169.868 L60.334,169.868 L57.298,174.356 L55.736,174.356 L55.736,169.868 L53.602,169.868 L53.602,181 Z M63.898,175.434 C63.898,171.892 66.318,169.604 69.486,169.604 C72.632,169.604 74.304,171.958 74.304,174.818 C74.304,175.104 74.26,175.412 74.216,175.72 L66.12,175.72 C66.23,178.118 67.946,179.416 69.948,179.416 C71.136,179.416 72.346,178.91 73.226,178.118 L74.128,179.68 C73.05,180.67 71.356,181.264 69.816,181.264 C66.318,181.264 63.898,178.734 63.898,175.434 Z M66.186,174.18 L72.148,174.18 C72.082,172.266 70.894,171.254 69.442,171.254 C67.792,171.254 66.494,172.332 66.186,174.18 Z M76.878,181 L79.012,181 L79.012,176.226 L84.644,176.226 L84.644,181 L86.778,181 L86.778,169.868 L84.644,169.868 L84.644,174.4 L79.012,174.4 L79.012,169.868 L76.878,169.868 L76.878,181 Z M89.154,177.964 C89.154,174.466 93.488,174.07 95.798,174.07 L96.37,174.07 L96.37,173.85 C96.37,172.024 95.314,171.408 93.928,171.408 C92.828,171.408 91.706,171.848 90.804,172.486 L89.946,170.924 C90.848,170.176 92.542,169.604 94.104,169.604 C96.898,169.604 98.504,171.144 98.504,173.96 L98.504,181 L96.502,181 L96.502,179.878 C96.502,179.372 96.568,178.998 96.568,178.998 L96.524,178.998 C95.886,180.274 94.522,181.264 92.872,181.264 C90.936,181.264 89.154,180.054 89.154,177.964 Z M91.288,177.788 C91.288,178.668 91.992,179.57 93.378,179.57 C95.248,179.57 96.37,177.678 96.37,176.028 L96.37,175.61 L95.82,175.61 C94.236,175.61 91.288,175.742 91.288,177.788 Z" id="Цена-токена" fill="#181920" opacity="0.5" transform="translate(34.693000, 174.774000) rotate(-90.000000) translate(-34.693000, -174.774000) "></path>
                <path d="M547.488,66 L547.488,46.832 L540.032,46.832 L540.032,43.28 L559.04,43.28 L559.04,46.832 L551.584,46.832 L551.584,66 L547.488,66 Z M557.792,57.84 C557.792,52.848 561.792,49.296 566.72,49.296 C571.712,49.296 575.712,52.848 575.712,57.84 C575.712,62.864 571.712,66.384 566.752,66.384 C561.792,66.384 557.792,62.864 557.792,57.84 Z M561.92,57.84 C561.92,60.88 564.096,62.928 566.752,62.928 C569.408,62.928 571.616,60.88 571.616,57.84 C571.616,54.832 569.408,52.752 566.752,52.752 C564.096,52.752 561.92,54.832 561.92,57.84 Z M579.072,66 L583.136,66 L583.136,59.376 L585.248,59.376 L589.536,66 L594.24,66 L588.416,57.52 L588.416,57.456 L593.6,49.68 L589.088,49.68 L585.12,55.92 L583.136,55.92 L583.136,49.68 L579.072,49.68 L579.072,66 Z M594.976,57.84 C594.976,52.816 598.4,49.296 603.296,49.296 C607.968,49.296 610.528,52.72 610.528,57.04 C610.528,57.552 610.464,58.096 610.4,58.608 L599.168,58.608 C599.424,61.456 601.6,62.928 604.064,62.928 C605.728,62.928 607.424,62.192 608.736,61.136 L610.336,64.048 C608.672,65.52 606.112,66.384 603.776,66.384 C598.368,66.384 594.976,62.48 594.976,57.84 Z M599.264,55.824 L606.464,55.824 C606.432,53.648 605.024,52.368 603.2,52.368 C601.12,52.368 599.648,53.744 599.264,55.824 Z M613.92,66 L617.984,66 L617.984,59.408 L624.96,59.408 L624.96,66 L629.024,66 L629.024,49.68 L624.96,49.68 L624.96,55.984 L617.984,55.984 L617.984,49.68 L613.92,49.68 L613.92,66 Z M639.456,66 L647.424,43.28 L651.776,43.28 L659.744,66 L655.52,66 L653.568,60.176 L645.6,60.176 L643.68,66 L639.456,66 Z M646.624,56.816 L652.544,56.816 L650.528,50.736 C650.144,49.456 649.632,47.216 649.632,47.216 L649.568,47.216 C649.568,47.216 649.056,49.456 648.672,50.736 L646.624,56.816 Z" id="Токен-A" fill="#FF674C"></path>
                <path d="M65.2427502,327.336317 L90.6766426,295.009127 M134.792104,238.937139 C153.414177,215.267961 186.352154,208.404384 212.878133,222.665663 C237.420086,235.860261 267.180998,228.750637 282.705602,206.467381 C296.622234,186.492126 310.0537,177.669666 323,180 C333.488197,181.887875 341.877336,190.774949 348.167418,206.66122 C358.432385,232.586365 387.770247,245.281494 413.695408,235.016569 C415.864098,234.157889 417.970675,233.149951 420,232 L423.468358,230.034597 C453.259357,213.153031 491.094947,223.618194 507.976513,253.409193 C508.25883,253.907399 508.534231,254.409493 508.802637,254.915329 C527.861347,290.83325 543.004347,315.226429 554.231636,328.094866 M566.324267,338.700372 C584.091868,349.913451 615.317112,356.013327 660,357" id="Path-11" stroke="#F6F6F9" stroke-width="4" stroke-linecap="round" stroke-linejoin="round" stroke-dasharray="8,8,8,8"></path>
                <path d="M99.8991085,283.287114 L134.792104,238.937139 C153.414177,215.267961 186.352154,208.404384 212.878133,222.665663 C237.420086,235.860261 267.180998,228.750637 282.705602,206.467381 C296.622234,186.492126 310.0537,177.669666 323,180 C333.488197,181.887875 341.877336,190.774949 348.167418,206.66122 C358.432385,232.586365 387.770247,245.281494 413.695408,235.016569 C415.864098,234.157889 417.970675,233.149951 420,232 L423.468358,230.034597 C453.259357,213.153031 491.094947,223.618194 507.976513,253.409193 C508.25883,253.907399 508.534231,254.409493 508.802637,254.915329 C528.081332,291.247832 543.353401,315.78801 554.618843,328.535861" id="Path-11" stroke="#FF674C" stroke-width="4"></path>
                <path d="M100.407259,282.641241 L134.792104,238.937139 C153.414177,215.267961 186.352154,208.404384 212.878133,222.665663 C237.420086,235.860261 267.180998,228.750637 282.705602,206.467381 C296.622234,186.492126 310.0537,177.669666 323,180 C333.488197,181.887875 341.877336,190.774949 348.167418,206.66122 C358.432385,232.586365 387.770247,245.281494 413.695408,235.016569 C415.864098,234.157889 417.970675,233.149951 420,232 L423.927713,229.774296 C453.718712,212.892727 491.554303,223.357891 508.43587,253.148891 C508.803897,253.798352 509.160166,254.454406 509.504501,255.116734 C517.555239,270.602314 522.419307,279.80838 524.096707,282.734929 C525.195497,284.651984 526.277606,286.519938 527.343031,288.338791" id="Path-11" stroke="#303498" stroke-width="4"></path>
                <circle id="Oval" stroke="#FF674C" stroke-width="4" cx="560" cy="334" r="8"></circle>
                <circle id="Oval-Copy-2" stroke="#F6F6F9" stroke-width="4" cx="650" cy="288" r="8"></circle>
                <circle id="Oval-Copy-2" stroke="#F6F6F9" stroke-width="4" cx="650" cy="334" r="8"></circle>
                <circle id="Oval-Copy" stroke="#303498" stroke-width="4" cx="96" cy="288" r="8"></circle>
                <circle id="Oval-Copy" stroke="#F6F6F9" stroke-width="4" cx="61" cy="288" r="8"></circle>
                <circle id="Oval-Copy" stroke="#F6F6F9" stroke-width="4" cx="61" cy="334" r="8"></circle>
            </g>
            <g id="Group" transform="translate(485.000000, 29.000000)" stroke="#303498" stroke-width="2" stroke-linecap="round" stroke-linejoin="round">
                <polyline id="Line-2" transform="translate(117.000000, 107.000000) rotate(-180.000000) translate(-117.000000, -107.000000) " points="107 112 117.078526 102 127 112"></polyline>
                <path d="M1.42108547e-14,-1.73472348e-18 L15.4180758,-1.73472348e-18 L15.4180758,7.10542736e-14 C71.7491459,6.0706648e-14 117.414501,45.6653549 117.414501,101.996425 C117.414501,105.0479 117.277562,108.097838 117.004098,111.137034 L117.004098,111.137034" id="Path-9"></path>
            </g>
            <g id="Group-5" opacity="0.5" transform="translate(620.000000, 339.000000)"></g>
            <path d="M34.016,35.912 C35.264,36.776 36.608,37.384 38.144,37.384 C40.96,37.384 42.4,35.112 43.296,32.84 L50.496,14.408 L47.168,14.408 L42.976,25.8 C42.496,27.176 42.016,28.744 42.016,28.744 L41.952,28.744 C41.952,28.744 41.376,27.176 40.672,25.768 L35.168,14.408 L31.68,14.408 L40.608,32.104 C40,33.672 39.36,34.632 38.048,34.632 C36.96,34.632 36,33.928 35.456,33.512 L34.016,35.912 Z M51.936,37 L51.936,20.808 L58.624,20.808 C61.888,20.808 64.032,22.248 64.032,24.968 C64.032,26.536 63.2,27.88 61.728,28.52 L61.728,28.552 C63.744,29.032 64.8,30.6 64.8,32.392 C64.8,35.4 62.368,37 58.848,37 L51.936,37 Z M55.04,27.656 L58.08,27.656 C59.936,27.656 60.864,26.696 60.864,25.192 C60.864,23.72 59.936,22.952 57.984,22.952 L55.04,22.952 L55.04,27.656 Z M55.04,34.824 L58.368,34.824 C60.608,34.824 61.664,33.8 61.664,32.296 C61.664,30.696 60.48,29.736 58.336,29.736 L55.04,29.736 L55.04,34.824 Z M67.52,28.904 C67.52,23.752 71.04,20.424 75.648,20.424 C80.224,20.424 82.656,23.848 82.656,28.008 C82.656,28.424 82.592,28.872 82.528,29.32 L70.752,29.32 C70.912,32.808 73.408,34.696 76.32,34.696 C78.048,34.696 79.808,33.96 81.088,32.808 L82.4,35.08 C80.832,36.52 78.368,37.384 76.128,37.384 C71.04,37.384 67.52,33.704 67.52,28.904 Z M70.848,27.08 L79.52,27.08 C79.424,24.296 77.696,22.824 75.584,22.824 C73.184,22.824 71.296,24.392 70.848,27.08 Z M89.568,34.44 L96.736,34.44 L96.736,23.336 L91.872,23.336 L91.872,24.2 C91.872,26.632 91.616,31.24 89.568,34.44 Z M84.384,34.44 L86.368,34.44 C88.64,31.336 88.896,26.28 88.896,23.784 L88.896,20.808 L99.84,20.808 L99.84,34.44 L102.144,34.44 L102.144,40.84 L99.296,40.84 L99.296,37 L87.296,37 L87.296,40.84 L84.384,40.84 L84.384,34.44 Z M104.16,28.872 C104.16,23.976 108.064,20.424 112.864,20.424 C117.696,20.424 121.6,23.976 121.6,28.872 C121.6,33.8 117.696,37.384 112.896,37.384 C108.064,37.384 104.16,33.8 104.16,28.872 Z M107.328,28.872 C107.328,32.264 109.824,34.696 112.896,34.696 C115.936,34.696 118.464,32.264 118.464,28.872 C118.464,25.512 115.936,23.112 112.896,23.112 C109.824,23.112 107.328,25.512 107.328,28.872 Z M124.672,37 L127.68,37 L128.384,27.368 C128.448,26.408 128.352,24.584 128.352,24.584 L128.416,24.584 C128.416,24.584 128.928,25.8 129.44,26.984 L133.28,35.048 L135.936,35.048 L139.776,26.952 C140.384,25.704 140.8,24.584 140.8,24.584 L140.864,24.584 C140.864,24.584 140.8,26.408 140.832,27.368 L141.536,37 L144.544,37 L143.136,20.808 L139.744,20.808 L135.52,29.96 C135.104,30.952 134.624,32.136 134.624,32.136 L134.56,32.136 C134.56,32.136 134.112,30.92 133.664,29.96 L129.536,20.808 L126.08,20.808 L124.672,37 Z M146.944,37.16 C151.712,36.904 153.568,33.128 153.568,25.8 L153.568,23.368 L158.336,23.368 L158.336,37 L161.44,37 L161.44,20.808 L150.592,20.808 L150.592,25.8 C150.592,31.656 149.312,34.024 146.944,34.376 L146.944,37.16 Z M174.56,17.608 L177.088,17.608 L177.088,14.376 L174.56,14.376 L174.56,17.608 Z M169.184,17.608 L171.744,17.608 L171.744,14.376 L169.184,14.376 L169.184,17.608 Z M165.184,28.904 C165.184,23.752 168.704,20.424 173.312,20.424 C177.888,20.424 180.32,23.848 180.32,28.008 C180.32,28.424 180.256,28.872 180.192,29.32 L168.416,29.32 C168.576,32.808 171.072,34.696 173.984,34.696 C175.712,34.696 177.472,33.96 178.752,32.808 L180.064,35.08 C178.496,36.52 176.032,37.384 173.792,37.384 C168.704,37.384 165.184,33.704 165.184,28.904 Z M168.512,27.08 L177.184,27.08 C177.088,24.296 175.36,22.824 173.248,22.824 C170.848,22.824 168.96,24.392 168.512,27.08 Z M184.064,37 L187.168,37 L187.168,30.056 L195.36,30.056 L195.36,37 L198.464,37 L198.464,20.808 L195.36,20.808 L195.36,27.4 L187.168,27.4 L187.168,20.808 L184.064,20.808 L184.064,37 Z M210.208,28.872 C210.208,23.976 214.112,20.424 218.912,20.424 C223.744,20.424 227.648,23.976 227.648,28.872 C227.648,33.8 223.744,37.384 218.944,37.384 C214.112,37.384 210.208,33.8 210.208,28.872 Z M213.376,28.872 C213.376,32.264 215.872,34.696 218.944,34.696 C221.984,34.696 224.512,32.264 224.512,28.872 C224.512,25.512 221.984,23.112 218.944,23.112 C215.872,23.112 213.376,25.512 213.376,28.872 Z M239.392,37 L242.496,37 L242.496,23.464 L250.432,23.464 L250.432,37 L253.536,37 L253.536,20.808 L239.392,20.808 L239.392,37 Z M256.992,32.584 C256.992,27.496 263.296,26.92 266.656,26.92 L267.488,26.92 L267.488,26.6 C267.488,23.944 265.952,23.048 263.936,23.048 C262.336,23.048 260.704,23.688 259.392,24.616 L258.144,22.344 C259.456,21.256 261.92,20.424 264.192,20.424 C268.256,20.424 270.592,22.664 270.592,26.76 L270.592,37 L267.68,37 L267.68,35.368 C267.68,34.632 267.776,34.088 267.776,34.088 L267.712,34.088 C266.784,35.944 264.8,37.384 262.4,37.384 C259.584,37.384 256.992,35.624 256.992,32.584 Z M260.096,32.328 C260.096,33.608 261.12,34.92 263.136,34.92 C265.856,34.92 267.488,32.168 267.488,29.768 L267.488,29.16 L266.688,29.16 C264.384,29.16 260.096,29.352 260.096,32.328 Z M278.336,34.44 L285.504,34.44 L285.504,23.336 L280.64,23.336 L280.64,24.2 C280.64,26.632 280.384,31.24 278.336,34.44 Z M273.152,34.44 L275.136,34.44 C277.408,31.336 277.664,26.28 277.664,23.784 L277.664,20.808 L288.608,20.808 L288.608,34.44 L290.912,34.44 L290.912,40.84 L288.064,40.84 L288.064,37 L276.064,37 L276.064,40.84 L273.152,40.84 L273.152,34.44 Z M292.928,28.904 C292.928,23.752 296.448,20.424 301.056,20.424 C305.632,20.424 308.064,23.848 308.064,28.008 C308.064,28.424 308,28.872 307.936,29.32 L296.16,29.32 C296.32,32.808 298.816,34.696 301.728,34.696 C303.456,34.696 305.216,33.96 306.496,32.808 L307.808,35.08 C306.24,36.52 303.776,37.384 301.536,37.384 C296.448,37.384 292.928,33.704 292.928,28.904 Z M296.256,27.08 L304.928,27.08 C304.832,24.296 303.104,22.824 300.992,22.824 C298.592,22.824 296.704,24.392 296.256,27.08 Z M311.808,37 L314.912,37 L314.912,30.056 L323.104,30.056 L323.104,37 L326.208,37 L326.208,20.808 L323.104,20.808 L323.104,27.4 L314.912,27.4 L314.912,20.808 L311.808,20.808 L311.808,37 Z M331.008,37 L333.984,37 L340.992,27.336 C341.504,26.568 342.304,25.48 342.4,25.192 L342.464,25.192 C342.464,25.448 342.368,26.568 342.368,27.336 L342.368,37 L345.376,37 L345.376,20.808 L342.368,20.808 L335.392,30.472 C334.848,31.24 334.08,32.36 333.952,32.648 L333.888,32.648 C333.92,32.488 333.984,31.336 333.984,30.472 L333.984,20.808 L331.008,20.808 L331.008,37 Z M350.144,37 L353.12,37 L360.128,27.336 C360.64,26.568 361.44,25.48 361.536,25.192 L361.6,25.192 C361.6,25.448 361.504,26.568 361.504,27.336 L361.504,37 L364.512,37 L364.512,20.808 L361.504,20.808 L354.528,30.472 C353.984,31.24 353.216,32.36 353.088,32.648 L353.024,32.648 C353.056,32.488 353.12,31.336 353.12,30.472 L353.12,20.808 L350.144,20.808 L350.144,37 Z M377.28,37 L380.384,37 L380.384,29.992 L382.72,29.992 L387.552,37 L391.232,37 L385.184,28.584 L385.184,28.52 L390.592,20.808 L387.072,20.808 L382.656,27.336 L380.384,27.336 L380.384,20.808 L377.28,20.808 L377.28,37 Z M393.184,40.36 L392.096,42.728 C392.096,42.728 393.408,43.72 395.2,43.72 C397.472,43.72 399.488,42.44 400.448,39.912 L408.064,20.808 L404.704,20.808 L400.768,31.432 C400.48,32.264 400.224,33.352 400.224,33.352 L400.16,33.352 C400.16,33.352 399.872,32.2 399.552,31.4 L395.488,20.808 L392,20.808 L398.784,36.808 L397.984,38.664 C397.376,40.136 396.32,41.064 395.04,41.064 C394.08,41.064 393.184,40.36 393.184,40.36 Z M411.104,43.4 L411.104,20.808 L413.984,20.808 L413.984,22.248 C413.984,22.92 413.888,23.464 413.888,23.464 L413.952,23.464 C414.976,21.512 417.024,20.424 419.392,20.424 C423.776,20.424 426.496,23.88 426.496,28.904 C426.496,34.056 423.424,37.384 419.168,37.384 C417.12,37.384 415.264,36.36 414.144,34.632 L414.08,34.632 C414.08,34.632 414.208,35.208 414.208,36.04 L414.208,43.4 L411.104,43.4 Z M414.112,28.968 C414.112,31.848 415.712,34.696 418.688,34.696 C421.248,34.696 423.36,32.616 423.36,28.936 C423.36,25.416 421.472,23.144 418.784,23.144 C416.352,23.144 414.112,24.872 414.112,28.968 Z M429.28,28.904 C429.28,33.768 432.832,37.384 437.952,37.384 C440.48,37.384 442.944,36.36 444.416,34.792 L443.168,32.52 C441.92,33.832 439.968,34.696 438.176,34.696 C434.816,34.696 432.448,32.168 432.448,28.872 C432.448,25.576 434.816,23.112 438.08,23.112 C439.776,23.112 441.472,23.88 442.56,24.968 L444.032,22.792 C442.496,21.16 440.096,20.424 437.952,20.424 C432.864,20.424 429.28,24.104 429.28,28.904 Z M446.432,32.584 C446.432,27.496 452.736,26.92 456.096,26.92 L456.928,26.92 L456.928,26.6 C456.928,23.944 455.392,23.048 453.376,23.048 C451.776,23.048 450.144,23.688 448.832,24.616 L447.584,22.344 C448.896,21.256 451.36,20.424 453.632,20.424 C457.696,20.424 460.032,22.664 460.032,26.76 L460.032,37 L457.12,37 L457.12,35.368 C457.12,34.632 457.216,34.088 457.216,34.088 L457.152,34.088 C456.224,35.944 454.24,37.384 451.84,37.384 C449.024,37.384 446.432,35.624 446.432,32.584 Z M449.536,32.328 C449.536,33.608 450.56,34.92 452.576,34.92 C455.296,34.92 456.928,32.168 456.928,29.768 L456.928,29.16 L456.128,29.16 C453.824,29.16 449.536,29.352 449.536,32.328 Z" id="1.-Уведомлён-о-паден" fill="#181920"></path>
            <path d="M1.824,37 L14.848,37 L14.848,34.248 L9.888,34.248 L9.888,14.408 L7.072,14.408 L1.664,19.656 L3.584,21.64 L5.696,19.592 C6.528,18.76 6.784,18.28 6.784,18.28 L6.848,18.28 C6.848,18.28 6.816,18.952 6.816,19.656 L6.816,34.248 L1.824,34.248 L1.824,37 Z" id="Path" fill-opacity="0.5" fill="#181920"></path>
            <polygon id="Path" fill-opacity="0.5" fill="#181920" points="18.048 37 21.376 37 21.376 33.64 18.048 33.64"></polygon>
            <path d="M530.692,222.544 C530.692,216.048 535.78,211.024 542.308,211.024 C548.836,211.024 553.892,216.048 553.892,222.544 C553.892,229.2 548.836,234.384 542.308,234.384 C535.78,234.384 530.692,229.2 530.692,222.544 Z M533.956,222.544 C533.956,227.6 537.668,231.472 542.308,231.472 C546.916,231.472 550.628,227.6 550.628,222.544 C550.628,217.648 546.916,213.904 542.308,213.904 C537.668,213.904 533.956,217.648 533.956,222.544 Z M561.764,234 L564.836,234 L564.836,220.464 L570.5,220.464 L570.5,217.808 L556.132,217.808 L556.132,220.464 L561.764,220.464 L561.764,234 Z M573.54,234 L576.644,234 L576.644,220.464 L584.58,220.464 L584.58,234 L587.684,234 L587.684,217.808 L573.54,217.808 L573.54,234 Z M592.484,240.4 L592.484,217.808 L595.364,217.808 L595.364,219.248 C595.364,219.92 595.268,220.464 595.268,220.464 L595.332,220.464 C596.356,218.512 598.404,217.424 600.772,217.424 C605.156,217.424 607.876,220.88 607.876,225.904 C607.876,231.056 604.804,234.384 600.548,234.384 C598.5,234.384 596.644,233.36 595.524,231.632 L595.46,231.632 C595.46,231.632 595.588,232.208 595.588,233.04 L595.588,240.4 L592.484,240.4 Z M595.492,225.968 C595.492,228.848 597.092,231.696 600.068,231.696 C602.628,231.696 604.74,229.616 604.74,225.936 C604.74,222.416 602.852,220.144 600.164,220.144 C597.732,220.144 595.492,221.872 595.492,225.968 Z M610.372,229.584 C610.372,224.496 616.676,223.92 620.036,223.92 L620.868,223.92 L620.868,223.6 C620.868,220.944 619.332,220.048 617.316,220.048 C615.716,220.048 614.084,220.688 612.772,221.616 L611.524,219.344 C612.836,218.256 615.3,217.424 617.572,217.424 C621.636,217.424 623.972,219.664 623.972,223.76 L623.972,234 L621.06,234 L621.06,232.368 C621.06,231.632 621.156,231.088 621.156,231.088 L621.092,231.088 C620.164,232.944 618.18,234.384 615.78,234.384 C612.964,234.384 610.372,232.624 610.372,229.584 Z M613.476,229.328 C613.476,230.608 614.5,231.92 616.516,231.92 C619.236,231.92 620.868,229.168 620.868,226.768 L620.868,226.16 L620.068,226.16 C617.764,226.16 613.476,226.352 613.476,229.328 Z M628.548,234 L628.548,217.808 L635.236,217.808 C638.5,217.808 640.644,219.248 640.644,221.968 C640.644,223.536 639.812,224.88 638.34,225.52 L638.34,225.552 C640.356,226.032 641.412,227.6 641.412,229.392 C641.412,232.4 638.98,234 635.46,234 L628.548,234 Z M631.652,224.656 L634.692,224.656 C636.548,224.656 637.476,223.696 637.476,222.192 C637.476,220.72 636.548,219.952 634.596,219.952 L631.652,219.952 L631.652,224.656 Z M631.652,231.824 L634.98,231.824 C637.22,231.824 638.276,230.8 638.276,229.296 C638.276,227.696 637.092,226.736 634.948,226.736 L631.652,226.736 L631.652,231.824 Z M643.428,234.16 C648.196,233.904 650.052,230.128 650.052,222.8 L650.052,220.368 L654.82,220.368 L654.82,234 L657.924,234 L657.924,217.808 L647.076,217.808 L647.076,222.8 C647.076,228.656 645.796,231.024 643.428,231.376 L643.428,234.16 Z M661.092,234 L664.836,228.624 C665.188,228.048 665.572,227.632 665.572,227.632 L665.572,227.6 C663.716,227.088 662.052,225.36 662.052,222.896 C662.052,219.568 664.42,217.808 667.844,217.808 L674.308,217.808 L674.308,234 L671.204,234 L671.204,228.144 L668.484,228.144 L664.516,234 L661.092,234 Z M668.516,225.872 L671.204,225.872 L671.204,219.952 L668.612,219.952 C666.532,219.952 665.188,220.784 665.188,222.864 C665.188,224.88 666.628,225.872 668.516,225.872 Z M678.052,225.904 C678.052,220.752 681.572,217.424 686.18,217.424 C690.756,217.424 693.188,220.848 693.188,225.008 C693.188,225.424 693.124,225.872 693.06,226.32 L681.284,226.32 C681.444,229.808 683.94,231.696 686.852,231.696 C688.58,231.696 690.34,230.96 691.62,229.808 L692.932,232.08 C691.364,233.52 688.9,234.384 686.66,234.384 C681.572,234.384 678.052,230.704 678.052,225.904 Z M681.38,224.08 L690.052,224.08 C689.956,221.296 688.228,219.824 686.116,219.824 C683.716,219.824 681.828,221.392 681.38,224.08 Z M700.644,234 L703.716,234 L703.716,220.464 L709.38,220.464 L709.38,217.808 L695.012,217.808 L695.012,220.464 L700.644,220.464 L700.644,234 Z M478.596,282.016 C479.94,283.296 482.052,284.384 484.548,284.384 C487.876,284.384 490.756,282.688 490.756,279.36 C490.756,277.28 489.476,276.064 487.844,275.552 L487.844,275.488 C489.124,274.944 490.212,273.824 490.212,271.808 C490.212,268.928 487.812,267.424 484.74,267.424 C482.18,267.424 480.356,268.256 479.108,269.184 L480.26,271.264 C481.508,270.336 482.788,269.856 484.196,269.856 C485.988,269.856 487.076,270.688 487.076,272.192 C487.076,273.824 485.828,274.528 484.004,274.528 L482.308,274.528 L482.308,276.768 L484.292,276.768 C486.564,276.768 487.62,277.664 487.62,279.232 C487.62,280.992 486.116,281.888 484.26,281.888 C482.308,281.888 480.772,280.736 480.036,279.968 L478.596,282.016 Z M493.156,279.584 C493.156,274.496 499.46,273.92 502.82,273.92 L503.652,273.92 L503.652,273.6 C503.652,270.944 502.116,270.048 500.1,270.048 C498.5,270.048 496.868,270.688 495.556,271.616 L494.308,269.344 C495.62,268.256 498.084,267.424 500.356,267.424 C504.42,267.424 506.756,269.664 506.756,273.76 L506.756,284 L503.844,284 L503.844,282.368 C503.844,281.632 503.94,281.088 503.94,281.088 L503.876,281.088 C502.948,282.944 500.964,284.384 498.564,284.384 C495.748,284.384 493.156,282.624 493.156,279.584 Z M496.26,279.328 C496.26,280.608 497.284,281.92 499.3,281.92 C502.02,281.92 503.652,279.168 503.652,276.768 L503.652,276.16 L502.852,276.16 C500.548,276.16 496.26,276.352 496.26,279.328 Z M510.276,275.904 C510.276,280.768 513.828,284.384 518.948,284.384 C521.476,284.384 523.94,283.36 525.412,281.792 L524.164,279.52 C522.916,280.832 520.964,281.696 519.172,281.696 C515.812,281.696 513.444,279.168 513.444,275.872 C513.444,272.576 515.812,270.112 519.076,270.112 C520.772,270.112 522.468,270.88 523.556,271.968 L525.028,269.792 C523.492,268.16 521.092,267.424 518.948,267.424 C513.86,267.424 510.276,271.104 510.276,275.904 Z M532.676,284 L535.748,284 L535.748,270.464 L541.412,270.464 L541.412,267.808 L527.044,267.808 L527.044,270.464 L532.676,270.464 L532.676,284 Z M544.452,290.4 L544.452,267.808 L547.332,267.808 L547.332,269.248 C547.332,269.92 547.236,270.464 547.236,270.464 L547.3,270.464 C548.324,268.512 550.372,267.424 552.74,267.424 C557.124,267.424 559.844,270.88 559.844,275.904 C559.844,281.056 556.772,284.384 552.516,284.384 C550.468,284.384 548.612,283.36 547.492,281.632 L547.428,281.632 C547.428,281.632 547.556,282.208 547.556,283.04 L547.556,290.4 L544.452,290.4 Z M547.46,275.968 C547.46,278.848 549.06,281.696 552.036,281.696 C554.596,281.696 556.708,279.616 556.708,275.936 C556.708,272.416 554.82,270.144 552.132,270.144 C549.7,270.144 547.46,271.872 547.46,275.968 Z M562.34,279.584 C562.34,274.496 568.644,273.92 572.004,273.92 L572.836,273.92 L572.836,273.6 C572.836,270.944 571.3,270.048 569.284,270.048 C567.684,270.048 566.052,270.688 564.74,271.616 L563.492,269.344 C564.804,268.256 567.268,267.424 569.54,267.424 C573.604,267.424 575.94,269.664 575.94,273.76 L575.94,284 L573.028,284 L573.028,282.368 C573.028,281.632 573.124,281.088 573.124,281.088 L573.06,281.088 C572.132,282.944 570.148,284.384 567.748,284.384 C564.932,284.384 562.34,282.624 562.34,279.584 Z M565.444,279.328 C565.444,280.608 566.468,281.92 568.484,281.92 C571.204,281.92 572.836,279.168 572.836,276.768 L572.836,276.16 L572.036,276.16 C569.732,276.16 565.444,276.352 565.444,279.328 Z M578.66,284 L582.18,284 L585.572,278.592 C585.828,278.208 586.052,277.728 586.052,277.728 L586.116,277.728 C586.116,277.728 586.372,278.208 586.628,278.592 L590.02,284 L593.54,284 L588.004,275.68 L593.22,267.808 L589.668,267.808 L586.66,272.736 C586.436,273.152 586.116,273.696 586.116,273.696 L586.052,273.696 C586.052,273.696 585.764,273.152 585.54,272.736 L582.532,267.808 L578.98,267.808 L584.196,275.68 L578.66,284 Z M594.884,275.872 C594.884,270.976 598.788,267.424 603.588,267.424 C608.42,267.424 612.324,270.976 612.324,275.872 C612.324,280.8 608.42,284.384 603.62,284.384 C598.788,284.384 594.884,280.8 594.884,275.872 Z M598.052,275.872 C598.052,279.264 600.548,281.696 603.62,281.696 C606.66,281.696 609.188,279.264 609.188,275.872 C609.188,272.512 606.66,270.112 603.62,270.112 C600.548,270.112 598.052,272.512 598.052,275.872 Z M616.068,284 L616.068,267.808 L622.756,267.808 C626.02,267.808 628.164,269.248 628.164,271.968 C628.164,273.536 627.332,274.88 625.86,275.52 L625.86,275.552 C627.876,276.032 628.932,277.6 628.932,279.392 C628.932,282.4 626.5,284 622.98,284 L616.068,284 Z M619.172,274.656 L622.212,274.656 C624.068,274.656 624.996,273.696 624.996,272.192 C624.996,270.72 624.068,269.952 622.116,269.952 L619.172,269.952 L619.172,274.656 Z M619.172,281.824 L622.5,281.824 C624.74,281.824 625.796,280.8 625.796,279.296 C625.796,277.696 624.612,276.736 622.468,276.736 L619.172,276.736 L619.172,281.824 Z M631.364,279.584 C631.364,274.496 637.668,273.92 641.028,273.92 L641.86,273.92 L641.86,273.6 C641.86,270.944 640.324,270.048 638.308,270.048 C636.708,270.048 635.076,270.688 633.764,271.616 L632.516,269.344 C633.828,268.256 636.292,267.424 638.564,267.424 C642.628,267.424 644.964,269.664 644.964,273.76 L644.964,284 L642.052,284 L642.052,282.368 C642.052,281.632 642.148,281.088 642.148,281.088 L642.084,281.088 C641.156,282.944 639.172,284.384 636.772,284.384 C633.956,284.384 631.364,282.624 631.364,279.584 Z M634.468,279.328 C634.468,280.608 635.492,281.92 637.508,281.92 C640.228,281.92 641.86,279.168 641.86,276.768 L641.86,276.16 L641.06,276.16 C638.756,276.16 634.468,276.352 634.468,279.328 Z M649.54,284 L652.644,284 L652.644,277.056 L660.836,277.056 L660.836,284 L663.94,284 L663.94,267.808 L660.836,267.808 L660.836,274.4 L652.644,274.4 L652.644,267.808 L649.54,267.808 L649.54,284 Z M668.74,284 L671.844,284 L671.844,277.056 L680.036,277.056 L680.036,284 L683.14,284 L683.14,267.808 L680.036,267.808 L680.036,274.4 L671.844,274.4 L671.844,267.808 L668.74,267.808 L668.74,284 Z M702.596,284 L705.7,284 L705.7,267.808 L702.596,267.808 L702.596,284 Z M687.94,284 L687.94,267.808 L691.044,267.808 L691.044,273.664 L694.212,273.664 C697.572,273.664 700.1,275.2 700.1,278.88 C700.1,281.92 698.244,284 694.18,284 L687.94,284 Z M691.044,281.76 L693.764,281.76 C696.004,281.76 696.964,280.544 696.964,278.848 C696.964,277.12 695.972,275.904 693.732,275.904 L691.044,275.904 L691.044,281.76 Z M717.636,265.952 C720.132,265.952 722.372,264.48 722.372,261.856 L722.372,261.376 L719.908,261.376 L719.908,261.792 C719.908,263.232 718.756,263.936 717.636,263.936 C716.516,263.936 715.396,263.232 715.396,261.824 L715.396,261.376 L712.9,261.376 L712.9,261.856 C712.9,264.48 715.172,265.952 717.636,265.952 Z M710.5,284 L713.476,284 L720.484,274.336 C720.996,273.568 721.796,272.48 721.892,272.192 L721.956,272.192 C721.956,272.448 721.86,273.568 721.86,274.336 L721.86,284 L724.868,284 L724.868,267.808 L721.86,267.808 L714.884,277.472 C714.34,278.24 713.572,279.36 713.444,279.648 L713.38,279.648 C713.412,279.488 713.476,278.336 713.476,277.472 L713.476,267.808 L710.5,267.808 L710.5,284 Z" id="2.-Отправляет-застра" fill="#181920"></path>
            <path d="M496.9,234 L511.46,234 L511.46,231.248 L500.196,231.248 C500.324,226.096 511.108,224.944 511.108,217.52 C511.108,213.616 508.132,211.024 504.004,211.024 C500.676,211.024 498.116,212.944 496.836,215.312 L499.172,216.88 C500.132,215.248 501.86,214 503.748,214 C506.148,214 507.844,215.536 507.844,217.744 C507.844,223.056 496.74,224.24 496.74,232.272 C496.74,232.816 496.804,233.392 496.9,234 Z" id="Path" fill-opacity="0.5" fill="#181920"></path>
            <polygon id="Path" fill-opacity="0.5" fill="#181920" points="515.556 234 518.884 234 518.884 230.64 515.556 230.64"></polygon>
            <path d="M528.752,184 L532.848,184 L541.488,170.912 C542.32,169.568 543.376,167.392 543.376,167.392 L543.44,167.392 C543.44,167.392 543.216,169.568 543.216,170.912 L543.216,184 L547.312,184 L547.312,161.28 L543.216,161.28 L534.64,174.368 C533.808,175.712 532.72,177.92 532.72,177.92 L532.656,177.92 C532.656,177.92 532.88,175.744 532.88,174.4 L532.88,161.28 L528.752,161.28 L528.752,184 Z M552.08,184 L556.144,184 L556.144,177.408 L563.12,177.408 L563.12,184 L567.184,184 L567.184,167.68 L563.12,167.68 L563.12,173.984 L556.144,173.984 L556.144,167.68 L552.08,167.68 L552.08,184 Z M571.536,184 L571.536,167.68 L579.12,167.68 C582.416,167.68 584.624,169.152 584.624,171.904 C584.624,173.408 583.856,174.816 582.48,175.488 L582.48,175.52 C584.432,176.032 585.36,177.632 585.36,179.264 C585.36,182.528 582.704,184 579.28,184 L571.536,184 Z M575.6,174.4 L578.256,174.4 C579.792,174.4 580.528,173.504 580.528,172.256 C580.528,171.072 579.792,170.336 578.192,170.336 L575.6,170.336 L575.6,174.4 Z M575.6,181.312 L578.576,181.312 C580.4,181.312 581.264,180.384 581.264,179.136 C581.264,177.824 580.336,176.928 578.576,176.928 L575.6,176.928 L575.6,181.312 Z M587.76,175.84 C587.76,170.816 591.184,167.296 596.08,167.296 C600.752,167.296 603.312,170.72 603.312,175.04 C603.312,175.552 603.248,176.096 603.184,176.608 L591.952,176.608 C592.208,179.456 594.384,180.928 596.848,180.928 C598.512,180.928 600.208,180.192 601.52,179.136 L603.12,182.048 C601.456,183.52 598.896,184.384 596.56,184.384 C591.152,184.384 587.76,180.48 587.76,175.84 Z M592.048,173.824 L599.248,173.824 C599.216,171.648 597.808,170.368 595.984,170.368 C593.904,170.368 592.432,171.744 592.048,173.824 Z M605.712,175.84 C605.712,180.576 609.168,184.384 614.576,184.384 C617.2,184.384 619.76,183.36 621.296,181.728 L619.728,178.848 C618.512,180.032 616.656,180.928 614.928,180.928 C611.792,180.928 609.84,178.56 609.84,175.808 C609.84,173.024 611.792,170.752 614.8,170.752 C616.4,170.752 618,171.488 619.024,172.512 L620.848,169.728 C619.28,168.032 616.784,167.296 614.576,167.296 C609.168,167.296 605.712,171.2 605.712,175.84 Z M628.048,184 L632.08,184 L632.08,171.136 L637.488,171.136 L637.488,167.68 L622.672,167.68 L622.672,171.136 L628.048,171.136 L628.048,184 Z M638.832,175.84 C638.832,170.848 642.832,167.296 647.76,167.296 C652.752,167.296 656.752,170.848 656.752,175.84 C656.752,180.864 652.752,184.384 647.792,184.384 C642.832,184.384 638.832,180.864 638.832,175.84 Z M642.96,175.84 C642.96,178.88 645.136,180.928 647.792,180.928 C650.448,180.928 652.656,178.88 652.656,175.84 C652.656,172.832 650.448,170.752 647.792,170.752 C645.136,170.752 642.96,172.832 642.96,175.84 Z M664.463035,169.192326 L663.824,168.868878 L663.824,168.896 C663.824,169.504 663.76,170.048 663.76,170.048 L663.824,170.048 C664.009615,169.738642 664.223901,169.453012 664.463035,169.192326 Z M663.824,168.868878 L664.463035,169.192326 C665.584382,167.969918 667.252104,167.296 669.072,167.296 C673.488,167.296 676.304,170.784 676.304,175.84 C676.304,181.024 673.136,184.384 668.848,184.384 C666.992,184.384 665.296,183.552 664.144,182.08 L664.08,182.08 C664.08,182.08 664.176,182.656 664.176,183.488 L664.176,190.4 L660.112,190.4 L660.112,167.68 L663.824,167.68 L663.824,168.868878 Z M664.048,175.936 C664.048,178.464 665.456,180.96 668.112,180.96 C670.352,180.96 672.208,179.136 672.208,175.904 C672.208,172.8 670.544,170.784 668.176,170.784 C666.032,170.784 664.048,172.32 664.048,175.936 Z" id="Инвестор" fill="#303498"></path>
            <path d="M747.808,622 L747.808,599.408 L755.712,599.408 C759.552,599.408 762.272,601.52 762.272,605.168 C762.272,607.376 761.184,609.136 759.456,610.032 L759.456,610.096 C761.856,610.8 763.2,613.04 763.2,615.568 C763.2,619.824 759.872,622 755.904,622 L747.808,622 Z M750.976,608.912 L755.712,608.912 C757.76,608.912 759.04,607.472 759.04,605.488 C759.04,603.504 757.824,602.16 755.68,602.16 L750.976,602.16 L750.976,608.912 Z M750.976,619.248 L756.064,619.248 C758.496,619.248 759.936,617.712 759.936,615.376 C759.936,613.104 758.432,611.536 756.064,611.536 L750.976,611.536 L750.976,619.248 Z M781.696,622 L784.8,622 L784.8,605.808 L781.696,605.808 L781.696,622 Z M767.04,622 L767.04,605.808 L770.144,605.808 L770.144,611.664 L773.312,611.664 C776.672,611.664 779.2,613.2 779.2,616.88 C779.2,619.92 777.344,622 773.28,622 L767.04,622 Z M770.144,619.76 L772.864,619.76 C775.104,619.76 776.064,618.544 776.064,616.848 C776.064,615.12 775.072,613.904 772.832,613.904 L770.144,613.904 L770.144,619.76 Z M789.6,622 L792.704,622 L792.704,608.464 L800.64,608.464 L800.64,622 L803.744,622 L803.744,605.808 L789.6,605.808 L789.6,622 Z M806.784,622.16 C811.552,621.904 813.408,618.128 813.408,610.8 L813.408,608.368 L818.176,608.368 L818.176,622 L821.28,622 L821.28,605.808 L810.432,605.808 L810.432,610.8 C810.432,616.656 809.152,619.024 806.784,619.376 L806.784,622.16 Z M824.736,617.584 C824.736,612.496 831.04,611.92 834.4,611.92 L835.232,611.92 L835.232,611.6 C835.232,608.944 833.696,608.048 831.68,608.048 C830.08,608.048 828.448,608.688 827.136,609.616 L825.888,607.344 C827.2,606.256 829.664,605.424 831.936,605.424 C836,605.424 838.336,607.664 838.336,611.76 L838.336,622 L835.424,622 L835.424,620.368 C835.424,619.632 835.52,619.088 835.52,619.088 L835.456,619.088 C834.528,620.944 832.544,622.384 830.144,622.384 C827.328,622.384 824.736,620.624 824.736,617.584 Z M827.84,617.328 C827.84,618.608 828.864,619.92 830.88,619.92 C833.6,619.92 835.232,617.168 835.232,614.768 L835.232,614.16 L834.432,614.16 C832.128,614.16 827.84,614.352 827.84,617.328 Z M847.328,616.368 C848.928,616.368 850.688,615.824 851.712,615.184 L851.776,615.184 C851.776,615.184 851.744,615.696 851.744,616.144 L851.744,622 L854.848,622 L854.848,605.808 L851.744,605.808 L851.744,612.528 C851.072,613.008 849.76,613.68 848.16,613.68 C845.504,613.68 844.928,612.24 844.928,610.64 L844.928,605.808 L841.888,605.808 L841.888,611.088 C841.888,614.544 843.872,616.368 847.328,616.368 Z M859.648,622 L862.624,622 L869.632,612.336 C870.144,611.568 870.944,610.48 871.04,610.192 L871.104,610.192 C871.104,610.448 871.008,611.568 871.008,612.336 L871.008,622 L874.016,622 L874.016,605.808 L871.008,605.808 L864.032,615.472 C863.488,616.24 862.72,617.36 862.592,617.648 L862.528,617.648 C862.56,617.488 862.624,616.336 862.624,615.472 L862.624,605.808 L859.648,605.808 L859.648,622 Z M878.784,622 L878.784,605.808 L885.472,605.808 C888.736,605.808 890.88,607.248 890.88,609.968 C890.88,611.536 890.048,612.88 888.576,613.52 L888.576,613.552 C890.592,614.032 891.648,615.6 891.648,617.392 C891.648,620.4 889.216,622 885.696,622 L878.784,622 Z M881.888,612.656 L884.928,612.656 C886.784,612.656 887.712,611.696 887.712,610.192 C887.712,608.72 886.784,607.952 884.832,607.952 L881.888,607.952 L881.888,612.656 Z M881.888,619.824 L885.216,619.824 C887.456,619.824 888.512,618.8 888.512,617.296 C888.512,615.696 887.328,614.736 885.184,614.736 L881.888,614.736 L881.888,619.824 Z M894.08,617.584 C894.08,612.496 900.384,611.92 903.744,611.92 L904.576,611.92 L904.576,611.6 C904.576,608.944 903.04,608.048 901.024,608.048 C899.424,608.048 897.792,608.688 896.48,609.616 L895.232,607.344 C896.544,606.256 899.008,605.424 901.28,605.424 C905.344,605.424 907.68,607.664 907.68,611.76 L907.68,622 L904.768,622 L904.768,620.368 C904.768,619.632 904.864,619.088 904.864,619.088 L904.8,619.088 C903.872,620.944 901.888,622.384 899.488,622.384 C896.672,622.384 894.08,620.624 894.08,617.584 Z M897.184,617.328 C897.184,618.608 898.208,619.92 900.224,619.92 C902.944,619.92 904.576,617.168 904.576,614.768 L904.576,614.16 L903.776,614.16 C901.472,614.16 897.184,614.352 897.184,617.328 Z M911.2,613.904 C911.2,608.752 914.72,605.424 919.328,605.424 C923.904,605.424 926.336,608.848 926.336,613.008 C926.336,613.424 926.272,613.872 926.208,614.32 L914.432,614.32 C914.592,617.808 917.088,619.696 920,619.696 C921.728,619.696 923.488,618.96 924.768,617.808 L926.08,620.08 C924.512,621.52 922.048,622.384 919.808,622.384 C914.72,622.384 911.2,618.704 911.2,613.904 Z M914.528,612.08 L923.2,612.08 C923.104,609.296 921.376,607.824 919.264,607.824 C916.864,607.824 914.976,609.392 914.528,612.08 Z M933.792,622 L936.864,622 L936.864,608.464 L942.528,608.464 L942.528,605.808 L928.16,605.808 L928.16,608.464 L933.792,608.464 L933.792,622 Z M750.288,672 L750.288,655.808 L756.976,655.808 C760.24,655.808 762.384,657.248 762.384,659.968 C762.384,661.536 761.552,662.88 760.08,663.52 L760.08,663.552 C762.096,664.032 763.152,665.6 763.152,667.392 C763.152,670.4 760.72,672 757.2,672 L750.288,672 Z M753.392,662.656 L756.432,662.656 C758.288,662.656 759.216,661.696 759.216,660.192 C759.216,658.72 758.288,657.952 756.336,657.952 L753.392,657.952 L753.392,662.656 Z M753.392,669.824 L756.72,669.824 C758.96,669.824 760.016,668.8 760.016,667.296 C760.016,665.696 758.832,664.736 756.688,664.736 L753.392,664.736 L753.392,669.824 Z M765.872,663.872 C765.872,658.976 769.776,655.424 774.576,655.424 C779.408,655.424 783.312,658.976 783.312,663.872 C783.312,668.8 779.408,672.384 774.608,672.384 C769.776,672.384 765.872,668.8 765.872,663.872 Z M769.04,663.872 C769.04,667.264 771.536,669.696 774.608,669.696 C777.648,669.696 780.176,667.264 780.176,663.872 C780.176,660.512 777.648,658.112 774.608,658.112 C771.536,658.112 769.04,660.512 769.04,663.872 Z M785.104,670.016 C786.448,671.296 788.56,672.384 791.056,672.384 C794.384,672.384 797.264,670.688 797.264,667.36 C797.264,665.28 795.984,664.064 794.352,663.552 L794.352,663.488 C795.632,662.944 796.72,661.824 796.72,659.808 C796.72,656.928 794.32,655.424 791.248,655.424 C788.688,655.424 786.864,656.256 785.616,657.184 L786.768,659.264 C788.016,658.336 789.296,657.856 790.704,657.856 C792.496,657.856 793.584,658.688 793.584,660.192 C793.584,661.824 792.336,662.528 790.512,662.528 L788.816,662.528 L788.816,664.768 L790.8,664.768 C793.072,664.768 794.128,665.664 794.128,667.232 C794.128,668.992 792.624,669.888 790.768,669.888 C788.816,669.888 787.28,668.736 786.544,667.968 L785.104,670.016 Z M800.336,672 L803.344,672 L804.048,662.368 C804.112,661.408 804.016,659.584 804.016,659.584 L804.08,659.584 C804.08,659.584 804.592,660.8 805.104,661.984 L808.944,670.048 L811.6,670.048 L815.44,661.952 C816.048,660.704 816.464,659.584 816.464,659.584 L816.528,659.584 C816.528,659.584 816.464,661.408 816.496,662.368 L817.2,672 L820.208,672 L818.8,655.808 L815.408,655.808 L811.184,664.96 C810.768,665.952 810.288,667.136 810.288,667.136 L810.224,667.136 C810.224,667.136 809.776,665.92 809.328,664.96 L805.2,655.808 L801.744,655.808 L800.336,672 Z M823.312,663.904 C823.312,658.752 826.832,655.424 831.44,655.424 C836.016,655.424 838.448,658.848 838.448,663.008 C838.448,663.424 838.384,663.872 838.32,664.32 L826.544,664.32 C826.704,667.808 829.2,669.696 832.112,669.696 C833.84,669.696 835.6,668.96 836.88,667.808 L838.192,670.08 C836.624,671.52 834.16,672.384 831.92,672.384 C826.832,672.384 823.312,668.704 823.312,663.904 Z M826.64,662.08 L835.312,662.08 C835.216,659.296 833.488,657.824 831.376,657.824 C828.976,657.824 827.088,659.392 826.64,662.08 Z M842.192,672 L862.576,672 L862.576,675.84 L865.424,675.84 L865.424,669.312 L863.12,669.312 L863.12,655.808 L860.144,655.808 L860.144,669.312 L854.16,669.312 L854.16,655.808 L851.152,655.808 L851.152,669.312 L845.168,669.312 L845.168,655.808 L842.192,655.808 L842.192,672 Z M867.472,663.904 C867.472,658.752 870.992,655.424 875.6,655.424 C880.176,655.424 882.608,658.848 882.608,663.008 C882.608,663.424 882.544,663.872 882.48,664.32 L870.704,664.32 C870.864,667.808 873.36,669.696 876.272,669.696 C878,669.696 879.76,668.96 881.04,667.808 L882.352,670.08 C880.784,671.52 878.32,672.384 876.08,672.384 C870.992,672.384 867.472,668.704 867.472,663.904 Z M870.8,662.08 L879.472,662.08 C879.376,659.296 877.648,657.824 875.536,657.824 C873.136,657.824 871.248,659.392 870.8,662.08 Z M886.352,672 L889.456,672 L889.456,665.056 L897.648,665.056 L897.648,672 L900.752,672 L900.752,655.808 L897.648,655.808 L897.648,662.4 L889.456,662.4 L889.456,655.808 L886.352,655.808 L886.352,672 Z M905.552,672 L908.528,672 L915.536,662.336 C916.048,661.568 916.848,660.48 916.944,660.192 L917.008,660.192 C917.008,660.448 916.912,661.568 916.912,662.336 L916.912,672 L919.92,672 L919.92,655.808 L916.912,655.808 L909.936,665.472 C909.392,666.24 908.624,667.36 908.496,667.648 L908.432,667.648 C908.464,667.488 908.528,666.336 908.528,665.472 L908.528,655.808 L905.552,655.808 L905.552,672 Z M923.632,663.904 C923.632,658.752 927.152,655.424 931.76,655.424 C936.336,655.424 938.768,658.848 938.768,663.008 C938.768,663.424 938.704,663.872 938.64,664.32 L926.864,664.32 C927.024,667.808 929.52,669.696 932.432,669.696 C934.16,669.696 935.92,668.96 937.2,667.808 L938.512,670.08 C936.944,671.52 934.48,672.384 932.24,672.384 C927.152,672.384 923.632,668.704 923.632,663.904 Z M926.96,662.08 L935.632,662.08 C935.536,659.296 933.808,657.824 931.696,657.824 C929.296,657.824 927.408,659.392 926.96,662.08 Z M766.112,722 L766.112,705.808 L772.8,705.808 C776.064,705.808 778.208,707.248 778.208,709.968 C778.208,711.536 777.376,712.88 775.904,713.52 L775.904,713.552 C777.92,714.032 778.976,715.6 778.976,717.392 C778.976,720.4 776.544,722 773.024,722 L766.112,722 Z M769.216,712.656 L772.256,712.656 C774.112,712.656 775.04,711.696 775.04,710.192 C775.04,708.72 774.112,707.952 772.16,707.952 L769.216,707.952 L769.216,712.656 Z M769.216,719.824 L772.544,719.824 C774.784,719.824 775.84,718.8 775.84,717.296 C775.84,715.696 774.656,714.736 772.512,714.736 L769.216,714.736 L769.216,719.824 Z M791.328,722 L791.328,699.408 L799.232,699.408 C803.072,699.408 805.792,701.52 805.792,705.168 C805.792,707.376 804.704,709.136 802.976,710.032 L802.976,710.096 C805.376,710.8 806.72,713.04 806.72,715.568 C806.72,719.824 803.392,722 799.424,722 L791.328,722 Z M794.496,708.912 L799.232,708.912 C801.28,708.912 802.56,707.472 802.56,705.488 C802.56,703.504 801.344,702.16 799.2,702.16 L794.496,702.16 L794.496,708.912 Z M794.496,719.248 L799.584,719.248 C802.016,719.248 803.456,717.712 803.456,715.376 C803.456,713.104 801.952,711.536 799.584,711.536 L794.496,711.536 L794.496,719.248 Z M815.84,722 L818.976,722 L818.976,702.16 L826.752,702.16 L826.752,699.408 L808.064,699.408 L808.064,702.16 L815.84,702.16 L815.84,722 Z M827.904,710.576 C827.904,717.2 832.48,722.384 839.488,722.384 C843.488,722.384 846.304,720.72 848.224,718.8 L846.528,716.528 C844.704,718.352 842.112,719.472 839.584,719.472 C834.336,719.472 831.168,715.344 831.168,710.544 C831.168,705.776 834.272,701.904 839.52,701.904 C841.856,701.904 844.384,702.896 846.048,704.368 L847.648,702 C845.472,699.92 842.304,699.024 839.392,699.024 C832.672,699.024 827.904,704.016 827.904,710.576 Z M850.464,723.344 L853.216,723.344 L861.344,698.192 L858.592,698.192 L850.464,723.344 Z M865.536,722 L879.232,722 L879.232,719.248 L868.704,719.248 L868.704,711.984 L876.8,711.984 L876.8,709.232 L868.704,709.232 L868.704,702.16 L878.688,702.16 L878.688,699.408 L865.536,699.408 L865.536,722 Z M888.864,722 L892,722 L892,702.16 L899.776,702.16 L899.776,699.408 L881.088,699.408 L881.088,702.16 L888.864,702.16 L888.864,722 Z M903.264,722 L906.432,722 L906.432,712.08 L918.176,712.08 L918.176,722 L921.312,722 L921.312,699.408 L918.176,699.408 L918.176,709.328 L906.432,709.328 L906.432,699.408 L903.264,699.408 L903.264,722 Z" id="3.-Выплачивает-возме" fill="#181920"></path>
            <path d="M832.432,569.312 C834.352,571.296 837.104,572.384 839.76,572.384 C844.4,572.384 847.44,568.992 847.44,565.152 C847.44,560.736 843.792,558.816 840.816,558.528 L846.96,551.424 L846.96,549.408 L833.456,549.408 L833.456,552.16 L841.104,552.16 C842.352,552.16 843.024,552.064 843.024,552.064 L843.024,552.128 C843.024,552.128 842.32,552.704 841.616,553.6 L836.688,559.392 L837.424,561.088 L838.96,561.088 C841.776,561.088 844.24,562.464 844.24,565.248 C844.24,567.68 842.128,569.376 839.632,569.376 C837.456,569.376 835.376,568.224 834.16,566.912 L832.432,569.312 Z" id="Path" fill-opacity="0.5" fill="#181920"></path>
            <polygon id="Path" fill-opacity="0.5" fill="#181920" points="851.408 572 854.736 572 854.736 568.64 851.408 568.64"></polygon>
            <g id="arrow" transform="translate(702.000000, 163.000000)" stroke="#303498" stroke-width="2" stroke-linecap="round" stroke-linejoin="round">
                <path d="M91.515736,727 C124.526227,706.333333 141.031472,662.095355 141.031472,594.286064 M141.031472,354.311632 C140.99501,276.763521 140.98452,210.82631 141,156.5 C141.023221,75.0105352 96.6935718,10 2,10" id="Path-10"></path>
                <polyline id="Line-2" transform="translate(5.000000, 10.000000) rotate(-90.000000) translate(-5.000000, -10.000000) " points="-5 15 5.07852624 5 15 15"></polyline>
            </g>
            <g id="Group" transform="translate(414.000000, 313.000000) scale(-1, 1) translate(-414.000000, -313.000000) translate(328.000000, 173.000000)" stroke="#303498" stroke-width="2" stroke-linecap="round" stroke-linejoin="round">
                <polyline id="Line-2" transform="translate(162.000000, 275.000000) rotate(-180.000000) translate(-162.000000, -275.000000) " points="152 280 162.078526 270 172 280"></polyline>
                <path d="M0,2.5243549e-29 L0,2.5243549e-29 L-2.97577786e-14,2.5243549e-29 C89.4723929,-1.64358119e-14 162.004098,72.5317054 162.004098,162.004098 L162.004098,279.137034" id="Path-9"></path>
            </g>
            <path d="M28,57 L28,202 M28,252 L28,397" id="Line-2" stroke="#303498" stroke-width="2" stroke-linecap="round" stroke-linejoin="round"></path>
            <g id="Group-6" transform="translate(10.000000, 215.000000)" fill-rule="nonzero" fill="#303498">
                <g id="message">
                    <path d="M19.5287143,14.028 L34.0238571,0 L1.97614286,0 L16.47,14.028 C17.3275714,14.86 18.6724286,14.86 19.5287143,14.028 Z" id="Shape"></path>
                    <polygon id="Shape" points="10.1648571 11.5733333 0 1.73466667 0 22.1146667"></polygon>
                    <polygon id="Shape" points="25.8351429 11.5733333 36 22.1146667 36 1.73466667"></polygon>
                    <path d="M23.9541429,13.3933333 L21.2837143,15.9773333 C20.3618571,16.8693333 19.1802857,17.3146667 17.9987143,17.3146667 C16.8171429,17.3146667 15.6355714,16.8693333 14.7137143,15.9773333 L12.0432857,13.3933333 L1.818,24 L34.182,24 L23.9541429,13.3933333 Z" id="Shape"></path>
                </g>
            </g>
            <path d="M653.44,932.544 C653.44,939.232 658.048,944.384 665.184,944.384 C669.248,944.384 672.16,942.688 674.112,940.704 L671.936,937.728 C670.208,939.424 667.776,940.608 665.344,940.608 C660.416,940.608 657.696,936.736 657.696,932.48 C657.696,928.288 660.32,924.672 665.312,924.672 C667.52,924.672 669.92,925.696 671.52,927.072 L673.504,924 C671.296,921.856 668.096,920.896 665.12,920.896 C658.272,920.896 653.44,925.952 653.44,932.544 Z M680.192,944 L684.224,944 L684.224,931.136 L689.632,931.136 L689.632,927.68 L674.816,927.68 L674.816,931.136 L680.192,931.136 L680.192,944 Z M696.735035,929.192326 L696.096,928.868878 L696.096,928.896 C696.096,929.504 696.032,930.048 696.032,930.048 L696.096,930.048 C696.281615,929.738642 696.495901,929.453012 696.735035,929.192326 Z M696.096,928.868878 L696.735035,929.192326 C697.856382,927.969918 699.524104,927.296 701.344,927.296 C705.76,927.296 708.576,930.784 708.576,935.84 C708.576,941.024 705.408,944.384 701.12,944.384 C699.264,944.384 697.568,943.552 696.416,942.08 L696.352,942.08 C696.352,942.08 696.448,942.656 696.448,943.488 L696.448,950.4 L692.384,950.4 L692.384,927.68 L696.096,927.68 L696.096,928.868878 Z M696.32,935.936 C696.32,938.464 697.728,940.96 700.384,940.96 C702.624,940.96 704.48,939.136 704.48,935.904 C704.48,932.8 702.816,930.784 700.448,930.784 C698.304,930.784 696.32,932.32 696.32,935.936 Z M710.784,939.488 C710.784,934.592 716.672,933.76 720.288,933.76 L720.992,933.76 L720.992,933.536 C720.992,931.392 719.616,930.656 717.92,930.656 C716.32,930.656 714.688,931.328 713.376,932.224 L711.872,929.312 C713.216,928.224 715.84,927.296 718.272,927.296 C722.528,927.296 725.056,929.664 725.056,933.792 L725.056,944 L721.28,944 L721.28,942.624 C721.28,941.952 721.376,941.44 721.376,941.44 L721.312,941.44 C720.32,943.168 718.368,944.384 716.16,944.384 C713.216,944.384 710.784,942.464 710.784,939.488 Z M714.816,939.136 C714.816,940.224 715.648,941.28 717.28,941.28 C719.552,941.28 721.024,938.976 721.024,936.992 L721.024,936.544 L720.32,936.544 C718.272,936.544 714.816,936.832 714.816,939.136 Z M727.488,944 L732,944 L734.816,939.264 C735.04,938.912 735.264,938.4 735.264,938.4 L735.328,938.4 C735.328,938.4 735.584,938.912 735.808,939.264 L738.624,944 L743.168,944 L737.76,935.744 L743.008,927.68 L738.4,927.68 L735.872,932.128 C735.648,932.544 735.328,933.152 735.328,933.152 L735.264,933.152 C735.264,933.152 734.976,932.544 734.752,932.128 L732.224,927.68 L727.616,927.68 L732.864,935.744 L727.488,944 Z M744.224,935.84 C744.224,930.848 748.224,927.296 753.152,927.296 C758.144,927.296 762.144,930.848 762.144,935.84 C762.144,940.864 758.144,944.384 753.184,944.384 C748.224,944.384 744.224,940.864 744.224,935.84 Z M748.352,935.84 C748.352,938.88 750.528,940.928 753.184,940.928 C755.84,940.928 758.048,938.88 758.048,935.84 C758.048,932.832 755.84,930.752 753.184,930.752 C750.528,930.752 748.352,932.832 748.352,935.84 Z M765.504,944 L765.504,927.68 L773.088,927.68 C776.384,927.68 778.592,929.152 778.592,931.904 C778.592,933.408 777.824,934.816 776.448,935.488 L776.448,935.52 C778.4,936.032 779.328,937.632 779.328,939.264 C779.328,942.528 776.672,944 773.248,944 L765.504,944 Z M769.568,934.4 L772.224,934.4 C773.76,934.4 774.496,933.504 774.496,932.256 C774.496,931.072 773.76,930.336 772.16,930.336 L769.568,930.336 L769.568,934.4 Z M769.568,941.312 L772.544,941.312 C774.368,941.312 775.232,940.384 775.232,939.136 C775.232,937.824 774.304,936.928 772.544,936.928 L769.568,936.928 L769.568,941.312 Z M781.728,935.84 C781.728,930.848 785.728,927.296 790.656,927.296 C795.648,927.296 799.648,930.848 799.648,935.84 C799.648,940.864 795.648,944.384 790.688,944.384 C785.728,944.384 781.728,940.864 781.728,935.84 Z M785.856,935.84 C785.856,938.88 788.032,940.928 790.688,940.928 C793.344,940.928 795.552,938.88 795.552,935.84 C795.552,932.832 793.344,930.752 790.688,930.752 C788.032,930.752 785.856,932.832 785.856,935.84 Z M810.528,926.112 C813.312,926.112 815.776,924.512 815.776,921.696 L815.776,921.28 L812.704,921.28 L812.704,921.664 C812.704,923.072 811.584,923.712 810.528,923.712 C809.472,923.712 808.384,923.072 808.384,921.696 L808.384,921.28 L805.28,921.28 L805.28,921.696 C805.28,924.512 807.744,926.112 810.528,926.112 Z M803.008,944 L806.944,944 L812.992,935.296 C813.408,934.656 814.016,933.792 814.208,933.344 L814.272,933.344 C814.24,933.76 814.176,934.688 814.176,935.296 L814.176,944 L818.048,944 L818.048,927.68 L814.112,927.68 L808.064,936.416 C807.648,937.056 807.04,937.952 806.848,938.368 L806.784,938.368 C806.816,938.112 806.88,937.152 806.88,936.416 L806.88,927.68 L803.008,927.68 L803.008,944 Z M834.751035,929.192326 L834.112,928.868878 L834.112,928.896 C834.112,929.504 834.048,930.048 834.048,930.048 L834.112,930.048 C834.297615,929.738642 834.511901,929.453012 834.751035,929.192326 Z M834.112,928.868878 L834.751035,929.192326 C835.872382,927.969918 837.540104,927.296 839.36,927.296 C843.776,927.296 846.592,930.784 846.592,935.84 C846.592,941.024 843.424,944.384 839.136,944.384 C837.28,944.384 835.584,943.552 834.432,942.08 L834.368,942.08 C834.368,942.08 834.464,942.656 834.464,943.488 L834.464,950.4 L830.4,950.4 L830.4,927.68 L834.112,927.68 L834.112,928.868878 Z M834.336,935.936 C834.336,938.464 835.744,940.96 838.4,940.96 C840.64,940.96 842.496,939.136 842.496,935.904 C842.496,932.8 840.832,930.784 838.464,930.784 C836.32,930.784 834.336,932.32 834.336,935.936 Z M849.056,935.84 C849.056,930.816 852.48,927.296 857.376,927.296 C862.048,927.296 864.608,930.72 864.608,935.04 C864.608,935.552 864.544,936.096 864.48,936.608 L853.248,936.608 C853.504,939.456 855.68,940.928 858.144,940.928 C859.808,940.928 861.504,940.192 862.816,939.136 L864.416,942.048 C862.752,943.52 860.192,944.384 857.856,944.384 C852.448,944.384 849.056,940.48 849.056,935.84 Z M853.344,933.824 L860.544,933.824 C860.512,931.648 859.104,930.368 857.28,930.368 C855.2,930.368 853.728,931.744 853.344,933.824 Z M866.528,941.984 C868.032,943.392 870.368,944.384 872.832,944.384 C876.384,944.384 879.264,942.656 879.264,939.264 C879.264,937.248 877.984,936.064 876.512,935.52 L876.512,935.456 C877.664,934.912 878.752,933.792 878.752,931.776 C878.752,928.896 876.224,927.296 873.024,927.296 C870.304,927.296 868.352,928.128 867.008,929.12 L868.32,931.712 C869.76,930.752 871.04,930.368 872.256,930.368 C873.888,930.368 874.688,931.104 874.688,932.32 C874.688,933.696 873.6,934.208 872.16,934.208 L870.496,934.208 L870.496,937.024 L872.48,937.024 C874.432,937.024 875.2,937.792 875.2,939.04 C875.2,940.416 874.112,941.248 872.384,941.248 C870.688,941.248 869.12,940.224 868.256,939.392 L866.528,941.984 Z M881.664,935.84 C881.664,930.816 885.088,927.296 889.984,927.296 C894.656,927.296 897.216,930.72 897.216,935.04 C897.216,935.552 897.152,936.096 897.088,936.608 L885.856,936.608 C886.112,939.456 888.288,940.928 890.752,940.928 C892.416,940.928 894.112,940.192 895.424,939.136 L897.024,942.048 C895.36,943.52 892.8,944.384 890.464,944.384 C885.056,944.384 881.664,940.48 881.664,935.84 Z M885.952,933.824 L893.152,933.824 C893.12,931.648 891.712,930.368 889.888,930.368 C887.808,930.368 886.336,931.744 885.952,933.824 Z M904.959035,929.192326 L904.32,928.868878 L904.32,928.896 C904.32,929.504 904.256,930.048 904.256,930.048 L904.32,930.048 C904.505615,929.738642 904.719901,929.453012 904.959035,929.192326 Z M904.32,928.868878 L904.959035,929.192326 C906.080382,927.969918 907.748104,927.296 909.568,927.296 C913.984,927.296 916.8,930.784 916.8,935.84 C916.8,941.024 913.632,944.384 909.344,944.384 C907.488,944.384 905.792,943.552 904.64,942.08 L904.576,942.08 C904.576,942.08 904.672,942.656 904.672,943.488 L904.672,950.4 L900.608,950.4 L900.608,927.68 L904.32,927.68 L904.32,928.868878 Z M904.544,935.936 C904.544,938.464 905.952,940.96 908.608,940.96 C910.848,940.96 912.704,939.136 912.704,935.904 C912.704,932.8 911.04,930.784 908.672,930.784 C906.528,930.784 904.544,932.32 904.544,935.936 Z M920.256,944 L920.256,927.68 L927.84,927.68 C931.136,927.68 933.344,929.152 933.344,931.904 C933.344,933.408 932.576,934.816 931.2,935.488 L931.2,935.52 C933.152,936.032 934.08,937.632 934.08,939.264 C934.08,942.528 931.424,944 928,944 L920.256,944 Z M924.32,934.4 L926.976,934.4 C928.512,934.4 929.248,933.504 929.248,932.256 C929.248,931.072 928.512,930.336 926.912,930.336 L924.32,930.336 L924.32,934.4 Z M924.32,941.312 L927.296,941.312 C929.12,941.312 929.984,940.384 929.984,939.136 C929.984,937.824 929.056,936.928 927.296,936.928 L924.32,936.928 L924.32,941.312 Z" id="Страховой-резерв" fill="#303498"></path>
            <path d="M549.376,333.72 L553.408,333.72 L553.408,320.856 L558.816,320.856 L558.816,317.4 L544,317.4 L544,320.856 L549.376,320.856 L549.376,333.72 Z M560.16,325.56 C560.16,320.568 564.16,317.016 569.088,317.016 C574.08,317.016 578.08,320.568 578.08,325.56 C578.08,330.584 574.08,334.104 569.12,334.104 C564.16,334.104 560.16,330.584 560.16,325.56 Z M564.288,325.56 C564.288,328.6 566.464,330.648 569.12,330.648 C571.776,330.648 573.984,328.6 573.984,325.56 C573.984,322.552 571.776,320.472 569.12,320.472 C566.464,320.472 564.288,322.552 564.288,325.56 Z M581.44,333.72 L585.504,333.72 L585.504,327.096 L587.616,327.096 L591.904,333.72 L596.608,333.72 L590.784,325.24 L590.784,325.176 L595.968,317.4 L591.456,317.4 L587.488,323.64 L585.504,323.64 L585.504,317.4 L581.44,317.4 L581.44,333.72 Z M597.344,325.56 C597.344,320.536 600.768,317.016 605.664,317.016 C610.336,317.016 612.896,320.44 612.896,324.76 C612.896,325.272 612.832,325.816 612.768,326.328 L601.536,326.328 C601.792,329.176 603.968,330.648 606.432,330.648 C608.096,330.648 609.792,329.912 611.104,328.856 L612.704,331.768 C611.04,333.24 608.48,334.104 606.144,334.104 C600.736,334.104 597.344,330.2 597.344,325.56 Z M601.632,323.544 L608.832,323.544 C608.8,321.368 607.392,320.088 605.568,320.088 C603.488,320.088 602.016,321.464 601.632,323.544 Z M616.288,333.72 L620.352,333.72 L620.352,327.128 L627.328,327.128 L627.328,333.72 L631.392,333.72 L631.392,317.4 L627.328,317.4 L627.328,323.704 L620.352,323.704 L620.352,317.4 L616.288,317.4 L616.288,333.72 Z M641.824,333.72 L649.792,311 L654.144,311 L662.112,333.72 L657.888,333.72 L655.936,327.896 L647.968,327.896 L646.048,333.72 L641.824,333.72 Z M648.992,324.536 L654.912,324.536 L652.896,318.456 C652.512,317.176 652,314.936 652,314.936 L651.936,314.936 C651.936,314.936 651.424,317.176 651.04,318.456 L648.992,324.536 Z" id="токен-A" fill="#FF674C"></path>
        </g>
    </g>
</svg>