<?xml version="1.0" encoding="UTF-8"?>
<svg width="30px" height="30px" viewBox="0 0 30 30" version="1.1" xmlns="http://www.w3.org/2000/svg" xmlns:xlink="http://www.w3.org/1999/xlink">
    <!-- Generator: Sketch 46.1 (44463) - http://www.bohemiancoding.com/sketch -->
    <title>shield-blue</title>
    <desc>Created with Sketch.</desc>
    <defs></defs>
    <g id="Page-1" stroke="none" stroke-width="1" fill="none" fill-rule="evenodd">
        <g id="shield-blue" fill-rule="nonzero">
            <g id="security_checked" transform="translate(4.000000, 3.000000)">
                <circle id="Oval" fill="#000000" cx="11" cy="22" r="2"></circle>
                <circle id="Oval" fill="#000000" cx="20" cy="3" r="2"></circle>
                <circle id="Oval" fill="#000000" cx="2" cy="3" r="2"></circle>
                <path d="M20.388,1.038 C20.388,1.038 15.602,0 11,0 C6.398,0 1.612,1.038 1.612,1.038 L0,3 L0,9 C0,19.398 10.021,23.745 10.021,23.745 L11.978,23.745 C11.979,23.745 22,19.398 22,9 L22,3 L20.388,1.038 Z M17.707,7.707 L10.147,15.267 C9.959,15.455 9.705,15.56 9.44,15.56 C9.175,15.56 8.92,15.455 8.733,15.267 L5.28,11.814 C4.889,11.423 4.889,10.791 5.28,10.4 C5.671,10.009 6.303,10.009 6.694,10.4 L9.44,13.146 L16.293,6.293 C16.684,5.902 17.316,5.902 17.707,6.293 C18.098,6.684 18.098,7.316 17.707,7.707 Z" id="Shape" fill="#303498"></path>
            </g>
        </g>
    </g>
</svg>