<svg width="30" height="30" viewBox="0 0 30 30" version="1.1" xmlns="http://www.w3.org/2000/svg" xmlns:xlink="http://www.w3.org/1999/xlink">
<title>approvalgradient</title>
<desc>Created using Figma</desc>
<g id="Canvas" transform="translate(2924 -51)">
<clipPath id="clip-0" clip-rule="evenodd">
<path d="M -2924 51L -2894 51L -2894 81L -2924 81L -2924 51Z" fill="#FFFFFF"/>
</clipPath>
<g id="approvalgradient" clip-path="url(#clip-0)">
<g id="handshake">
<g id="Union">
<use xlink:href="#path0_fill" transform="translate(-2923 55)" fill="#BF5293"/>
</g>
</g>
</g>
</g>
<defs>
<path id="path0_fill" fill-rule="evenodd" d="M 11.2922 7.926C 9.89136 8.148 5.99732 7.682 5.99732 3C 5.99732 1.6041 6.98267 1.24766 7.66602 1.00043L 7.75537 0.967999C 8.27515 0.776672 8.14331 0 7.58936 0L 2 0C 0.894289 0 -0.00146305 0.897057 1.79406e-06 2.00267L 0.0112323 10.41C 0.012453 11.2885 0.724855 12 1.60327 12L 10.3787 21.1751C 10.7422 21.675 11.332 22 11.9973 22C 13.1018 22 13.9973 21.1046 13.9973 20C 13.9973 19.9054 13.9907 19.8123 13.978 19.7211C 14.2766 19.8983 14.625 20 14.9973 20C 16.1018 20 16.9973 19.1046 16.9973 18C 16.9973 17.9054 16.9907 17.8123 16.978 17.7211C 17.2766 17.8983 17.625 18 17.9973 18C 19.1018 18 19.9973 17.1046 19.9973 16C 19.9973 15.9054 19.9907 15.8122 19.978 15.7211C 20.2766 15.8983 20.625 16 20.9973 16C 22.1018 16 22.9973 15.1046 22.9973 14C 22.9973 13.3676 22.7039 12.8038 22.2456 12.4373L 16.3542 7.123L 11.2922 7.926ZM 11.0391 5.94118C 10.8647 5.9797 10.6834 6 10.4973 6C 9.11621 6 7.99732 4.881 7.99732 3.5L 7.99732 3L 16.2126 0.159859C 16.4536 0.0569572 16.7188 0 16.9973 0C 17.3848 0 17.7468 0.110249 18.0532 0.301102L 22.9973 3L 24.5122 2.62127C 25.7747 2.30569 26.9973 3.26041 26.9973 4.56155L 26.9973 13C 26.9973 13.5523 26.5496 14 25.9973 14L 25.9465 14C 25.4089 14 24.9854 13.5686 24.8577 13.0462C 24.6084 12.0258 24.0334 11.4636 23.4153 10.8594C 23.3323 10.7781 23.2483 10.696 23.1643 10.612C 22.2473 9.695 16.9973 4.996 16.9973 4.996L 11.0391 5.94118Z"/>
</defs>
</svg>
