<svg width="30" height="30" viewBox="0 0 30 30" version="1.1" xmlns="http://www.w3.org/2000/svg" xmlns:xlink="http://www.w3.org/1999/xlink">
<title>btc-gradient</title>
<desc>Created using Figma</desc>
<g id="Canvas" transform="translate(2959 -51)">
<clipPath id="clip-0" clip-rule="evenodd">
<path d="M -2959 51L -2929 51L -2929 81L -2959 81L -2959 51Z" fill="#FFFFFF"/>
</clipPath>
<g id="btc-gradient" clip-path="url(#clip-0)">
<g id="money">
<g id="Shape (Stroke)">
<use xlink:href="#path0_fill" transform="translate(-2956 72)" fill="#E06191"/>
</g>
<g id="Shape (Stroke)">
<use xlink:href="#path1_fill" transform="translate(-2957 54)" fill="#E06191"/>
</g>
<g id="Oval">
<use xlink:href="#path2_fill" transform="translate(-2935 54)" fill="#E06191"/>
</g>
<g id="Oval">
<use xlink:href="#path2_fill" transform="translate(-2957 54)" fill="#E06191"/>
</g>
<g id="Oval">
<use xlink:href="#path2_fill" transform="translate(-2957 66)" fill="#E06191"/>
</g>
<g id="Oval">
<use xlink:href="#path2_fill" transform="translate(-2935 66)" fill="#E06191"/>
</g>
<g id="Shape">
<use xlink:href="#path3_fill" transform="translate(-2936 74)" fill="#E06191"/>
</g>
<g id="Oval">
<use xlink:href="#path4_fill" transform="translate(-2937 61)" fill="#E06191"/>
</g>
<g id="Oval">
<use xlink:href="#path4_fill" transform="translate(-2953 61)" fill="#E06191"/>
</g>
<g id="Rectangle-path">
<use xlink:href="#path5_fill" transform="translate(-2934 72)" fill="#E06191"/>
</g>
<g id="Union">
<use xlink:href="#path6_fill" transform="translate(-2947 57)" fill="#E06191"/>
</g>
</g>
</g>
</g>
<defs>
<path id="path0_fill" fill-rule="evenodd" d="M 0 1C 0 0.447715 0.447715 0 1 0C 7.59632 0.00464916 12.85 1.02712 16.4486 2.03727C 18.2625 2.54755 19.696 3.06263 20.6835 3.44132C 21.0136 3.56795 21.2958 3.67985 21.5284 3.77209C 21.6464 3.81888 21.7517 3.86061 21.8439 3.89665C 21.8548 3.90091 21.8654 3.90505 21.8758 3.90908C 21.8776 3.9066 21.8794 3.90409 21.8812 3.90155C 21.9297 3.83435 21.9664 3.77494 22 3.7157L 22 1C 22 0.447715 22.4477 0 23 0C 23.5523 0 24 0.447715 24 1L 24 3.96C 24 4.10336 23.9692 4.24505 23.9096 4.37545L 23 3.96C 23.9096 4.37545 23.9095 4.37564 23.9094 4.37583L 23.9093 4.37624L 23.9088 4.37713L 23.9079 4.37921L 23.9054 4.38453L 23.8983 4.39967C 23.8936 4.40954 23.8849 4.42774 23.8756 4.44672C 23.859 4.48032 23.8297 4.53784 23.7972 4.59824C 23.7367 4.70974 23.6297 4.89157 23.5126 5.05845C 23.3969 5.22025 23.2008 5.44953 23.0135 5.60934C 22.8107 5.77642 22.4617 6 22 6C 21.7855 6 21.5771 5.92872 21.5104 5.90587C 21.5066 5.9046 21.5034 5.90347 21.5005 5.90252C 21.3967 5.8673 21.2613 5.81621 21.1163 5.7596C 21.0189 5.72154 20.9102 5.67843 20.7902 5.63084C 20.5581 5.53882 20.2838 5.43005 19.9673 5.30868C 18.9993 4.93737 17.6531 4.45245 15.9076 3.96273C 12.3875 2.97288 7.40368 1.99535 1 2C 0.447715 2 0 1.55228 0 1ZM 21.7351 4.07085C 21.7351 4.07071 21.737 4.06917 21.7407 4.06663C 21.7369 4.06971 21.7351 4.07098 21.7351 4.07085ZM 22.1761 4.01916C 22.187 4.02171 22.1931 4.02355 22.1935 4.02384C 22.1938 4.02412 22.1883 4.02285 22.1761 4.01916Z"/>
<path id="path1_fill" fill-rule="evenodd" d="M 0 2C 0 0.895715 0.895715 0 2 0L 24 0C 25.1043 0 26 0.895715 26 2L 26 14C 26 15.1043 25.1043 16 24 16L 2 16C 0.895715 16 0 15.1043 0 14L 0 2ZM 24 2L 2 2L 2 14L 24 14L 24 2Z"/>
<path id="path2_fill" d="M 2 4C 3.10457 4 4 3.10457 4 2C 4 0.89543 3.10457 0 2 0C 0.89543 0 0 0.89543 0 2C 0 3.10457 0.89543 4 2 4Z"/>
<path id="path3_fill" d="M 0 2C 0 2 0.889 4.009 2 4.009C 3.111 4.009 4 3.105 4 2C 4 0.895 3.105 0 2 0C 0.895 0 0 0.895 0 2Z"/>
<path id="path4_fill" d="M 1 2C 1.55228 2 2 1.55228 2 1C 2 0.447715 1.55228 0 1 0C 0.447715 0 0 0.447715 0 1C 0 1.55228 0.447715 2 1 2Z"/>
<path id="path5_fill" d="M 0 0L 2 0L 2 2L 0 2L 0 0Z"/>
<path id="path6_fill" fill-rule="evenodd" d="M 2.95679 0.75C 2.95679 0.335785 3.29248 0 3.70679 0C 4.12109 0 4.45679 0.335785 4.45679 0.75L 4.45679 1.41029C 4.70312 1.49467 4.91919 1.60222 5.10522 1.73291C 5.62988 2.10173 5.89209 2.63704 5.89209 3.33887C 5.89209 3.74348 5.79907 4.08904 5.61279 4.37549C 5.42651 4.66194 5.15259 4.87321 4.79102 5.00928C 5.19922 5.1167 5.51245 5.31721 5.73096 5.61084C 5.94946 5.90446 6.05859 6.26253 6.05859 6.68506C 6.05859 7.45134 5.81592 8.02693 5.33081 8.41187C 5.09473 8.59914 4.80347 8.7417 4.45679 8.83955L 4.45679 9.25C 4.45679 9.66422 4.12109 10 3.70679 10C 3.29248 10 2.95679 9.66422 2.95679 9.25L 2.95679 9L 2.45679 9L 2.45679 9.25C 2.45679 9.66422 2.12109 10 1.70679 10C 1.29248 10 0.956787 9.66422 0.956787 9.25L 0.956787 8.99908C 0.424561 8.97646 0 8.53781 0 8L 0 2.17969C 0 1.64188 0.424561 1.20323 0.956787 1.1806L 0.956787 0.75C 0.956787 0.335785 1.29248 0 1.70679 0C 2.12109 0 2.45679 0.335785 2.45679 0.75L 2.45679 1.17969L 2.80908 1.17969C 2.85889 1.17969 2.9082 1.18015 2.95679 1.18105L 2.95679 0.75ZM 1.88525 5.67529L 1.88525 7.5498L 3.12061 7.5498C 3.46069 7.5498 3.72217 7.47192 3.90479 7.31616C 4.0874 7.1604 4.17871 6.94109 4.17871 6.6582C 4.17871 6.0065 3.85474 5.67888 3.20654 5.67529L 1.88525 5.67529ZM 1.88525 4.43994L 2.86816 4.43994C 3.28003 4.43636 3.57349 4.36116 3.74902 4.21436C 3.92456 4.06755 4.01221 3.85091 4.01221 3.56445C 4.01221 3.23503 3.91724 2.9978 3.72754 2.85278C 3.53784 2.70776 3.23169 2.63525 2.80908 2.63525L 1.88525 2.63525L 1.88525 4.43994Z"/>
</defs>
</svg>
