<svg width="30" height="30" viewBox="0 0 30 30" version="1.1" xmlns="http://www.w3.org/2000/svg" xmlns:xlink="http://www.w3.org/1999/xlink">
<title>btc-bag-purple</title>
<desc>Created using Figma</desc>
<g id="Canvas" transform="translate(2670 -16)">
<clipPath id="clip-0" clip-rule="evenodd">
<path d="M -2670 16L -2640 16L -2640 46L -2670 46L -2670 16Z" fill="#FFFFFF"/>
</clipPath>
<g id="btc-bag-purple" clip-path="url(#clip-0)">
<g id="btc-bag-purple">
<g id="Vector">
<use xlink:href="#path0_fill" transform="translate(-2661 19)" fill="#9D6DD6"/>
</g>
<g id="Exclude">
<use xlink:href="#path1_fill" transform="translate(-2667 24.541)" fill="#9D6DD6"/>
</g>
<g id="Vector">
<use xlink:href="#path2_fill" transform="translate(-2658 18)" fill="#9D6DD6"/>
</g>
</g>
</g>
</g>
<defs>
<path id="path0_fill" d="M 10.9986 0L 1.00061 0C 0.293609 0 -0.190392 0.715 0.0726083 1.371L 0.999608 4L 10.9996 4L 11.9266 1.371C 12.1896 0.715 11.7056 0 10.9986 0Z"/>
<path id="path1_fill" fill-rule="evenodd" d="M 7 0L 17 0C 17 0 24 6 24 13C 24 17 21 19 19 19L 12 19L 5 19C 3 19 0 17 0 13C 0 6 7 0 7 0ZM 12.7068 4.459C 12.2925 4.459 11.9568 4.79479 11.9568 5.209L 11.9568 5.64004C 11.9082 5.63914 11.8589 5.63869 11.8091 5.63869L 11.4568 5.63869L 11.4568 5.209C 11.4568 4.79479 11.1211 4.459 10.7068 4.459C 10.2925 4.459 9.95679 4.79479 9.95679 5.209L 9.95679 5.6396C 9.42456 5.66224 9 6.10088 9 6.63869L 9 12.459C 9 12.9968 9.42456 13.4355 9.95679 13.4581L 9.95679 13.709C 9.95679 14.1232 10.2925 14.459 10.7068 14.459C 11.1211 14.459 11.4568 14.1232 11.4568 13.709L 11.4568 13.459L 11.9568 13.459L 11.9568 13.709C 11.9568 14.1232 12.2925 14.459 12.7068 14.459C 13.1211 14.459 13.4568 14.1232 13.4568 13.709L 13.4568 13.2985C 13.8035 13.2007 14.0947 13.0581 14.3308 12.8709C 14.8159 12.4859 15.0586 11.9103 15.0586 11.1441C 15.0586 10.7215 14.9495 10.3635 14.731 10.0698C 14.5125 9.77622 14.1992 9.5757 13.791 9.46828C 14.1526 9.33221 14.4265 9.12095 14.6128 8.83449C 14.7991 8.54803 14.8921 8.20249 14.8921 7.79787C 14.8921 7.09604 14.6299 6.56073 14.1052 6.19191C 13.9192 6.06122 13.7031 5.95368 13.4568 5.8693L 13.4568 5.209C 13.4568 4.79479 13.1211 4.459 12.7068 4.459ZM 10.8853 12.0088L 10.8853 10.1343L 12.2065 10.1343C 12.8547 10.1379 13.1787 10.4655 13.1787 11.1172C 13.1787 11.4001 13.0874 11.6194 12.9048 11.7752C 12.7222 11.9309 12.4607 12.0088 12.1206 12.0088L 10.8853 12.0088ZM 11.8682 8.89894L 10.8853 8.89894L 10.8853 7.09425L 11.8091 7.09425C 12.2317 7.09425 12.5378 7.16676 12.7275 7.31178C 12.9172 7.4568 13.0122 7.69402 13.0122 8.02345C 13.0122 8.30991 12.9246 8.52654 12.749 8.67336C 12.5735 8.82017 12.28 8.89536 11.8682 8.89894Z"/>
<path id="path2_fill" d="M 6 3L 0 3C 0 1.343 1.343 0 3 0C 4.657 0 6 1.343 6 3Z"/>
</defs>
</svg>
