<svg width="30" height="30" viewBox="0 0 30 30" version="1.1" xmlns="http://www.w3.org/2000/svg" xmlns:xlink="http://www.w3.org/1999/xlink">
<title>businessman-gradient</title>
<desc>Created using Figma</desc>
<g id="Canvas" transform="translate(2994 -51)">
<clipPath id="clip-0" clip-rule="evenodd">
<path d="M -2994 51L -2964 51L -2964 81L -2994 81L -2994 51Z" fill="#FFFFFF"/>
</clipPath>
<g id="businessman-gradient" clip-path="url(#clip-0)">
<g id="businessman">
<g id="Union">
<use xlink:href="#path0_fill" transform="translate(-2991 54)" fill="#F56587"/>
</g>
</g>
</g>
</g>
<defs>
<path id="path0_fill" fill-rule="evenodd" d="M 11.5 20.083L 10.3611 17.999L 11.9741 17.999L 13.6389 17.999L 12.5 20.083L 13.6951 23.999L 24 23.999C 24 19.6827 20.9583 18.7883 18.3916 18.0336C 17.5315 17.7807 16.7246 17.5435 16.1035 17.1985L 15.7849 16.555C 15.6338 16.2491 15.3372 16.0436 15.0022 16.0054L 15 15.999L 15 13.999C 15.45 13.776 16.7371 12.244 16.8721 11.047C 17.2261 11.02 17.782 10.695 17.946 9.412C 18.0339 8.723 17.6841 8.336 17.4719 8.214C 17.4719 8.214 18 7.211 18 6C 18 3.572 17.0471 1.5 15 1.5C 15 1.5 14.2891 0 12 0C 7.75806 0 6 2.721 6 6C 6 7.104 6.52808 8.214 6.52808 8.214C 6.31592 8.336 5.96606 8.724 6.05396 9.412C 6.21802 10.695 6.77393 11.02 7.12793 11.047C 7.26294 12.244 8.55005 13.776 9 13.999L 9 15.999C 8.99927 16.0011 8.99854 16.0033 8.9978 16.0054C 8.66284 16.0436 8.36621 16.2491 8.21509 16.555L 7.89648 17.1985C 7.27539 17.5435 6.46851 17.7807 5.6084 18.0336C 3.04175 18.7883 0 19.6827 0 23.999L 10.3049 23.999L 11.5 20.083Z"/>
</defs>
</svg>
