<?xml version="1.0" encoding="UTF-8"?>
<svg width="600px" height="600px" viewBox="0 0 600 600" version="1.1" xmlns="http://www.w3.org/2000/svg" xmlns:xlink="http://www.w3.org/1999/xlink">
    <!-- Generator: Sketch 46.1 (44463) - http://www.bohemiancoding.com/sketch -->
    <title>emblem-black</title>
    <desc>Created with Sketch.</desc>
    <defs></defs>
    <g id="Page-2" stroke="none" stroke-width="1" fill="none" fill-rule="evenodd">
        <g id="emblem-black" fill="#080808">
            <g id="emblem-white" transform="translate(105.000000, 105.000000)">
                <g id="sign" fill-rule="nonzero">
                    <path d="M195,388.5 C88.1329009,388.5 1.5,301.867099 1.5,195 C1.5,88.1329009 88.1329009,1.5 195,1.5 C225.788722,1.5 255.573866,8.707285 282.449613,22.3449352 C346.96646,55.082934 388.5,121.340009 388.5,195 C388.5,267.748718 347.990985,333.321216 284.712102,366.488166 C257.260816,380.876465 226.664024,388.5 195,388.5 Z M195,361.5 C222.271592,361.5 248.570868,354.94724 272.177725,342.573958 C326.648069,314.023908 361.5,257.608611 361.5,195 C361.5,131.60799 325.765624,74.6021289 270.231877,46.4224543 C247.120879,34.6951634 221.518474,28.5 195,28.5 C103.044589,28.5 28.5,103.044589 28.5,195 C28.5,286.955411 103.044589,361.5 195,361.5 Z" id="Oval-8"></path>
                    <path d="M120,175.368915 L120,31.5 L93,31.5 L93,358.5 L120,358.5 L120,244.5 C120,203.078644 153.578644,169.5 195,169.5 C236.421356,169.5 270,203.078644 270,244.5 L270,358.5 L297,358.5 L297,31.5 L270,31.5 L270,175.368915 C251.362241,155.159082 224.659464,142.5 195,142.5 C165.340536,142.5 138.637759,155.159082 120,175.368915 Z" id="Combined-Shape"></path>
                </g>
                <polygon id="star" points="221.664 294 213.816 260.704737 240 238.313684 205.4832 235.391053 192 204 178.5168 235.391053 144 238.313684 170.184 260.704737 162.336 294 192 276.341053"></polygon>
            </g>
        </g>
    </g>
</svg>