<svg width="30" height="30" viewBox="0 0 30 30" version="1.1" xmlns="http://www.w3.org/2000/svg" xmlns:xlink="http://www.w3.org/1999/xlink">
<title>line-chart-gradient</title>
<desc>Created using Figma</desc>
<g id="Canvas" transform="translate(2959 -16)">
<clipPath id="clip-0" clip-rule="evenodd">
<path d="M -2959 16L -2929 16L -2929 46L -2959 46L -2959 16Z" fill="#FFFFFF"/>
</clipPath>
<g id="line-chart-gradient" clip-path="url(#clip-0)">
<g id="line-chart-gradient">
<g id="Union">
<use xlink:href="#path0_fill" transform="translate(-2955 19)" fill="#FE6664"/>
</g>
</g>
</g>
</g>
<defs>
<path id="path0_fill" fill-rule="evenodd" d="M 22 2C 22 3.10457 21.1045 4 20 4C 19.8743 4 19.7512 3.98839 19.6318 3.96618L 15.887 8.33527C 15.9602 8.54324 16 8.76697 16 9C 16 10.1046 15.1045 11 14 11C 12.8955 11 12 10.1046 12 9C 12 8.95674 12.0015 8.9138 12.0042 8.87122L 8.88696 6.79308C 8.61963 6.92554 8.3186 7 8 7C 7.59277 7 7.21387 6.87824 6.89795 6.66914L 3.99658 8.11983C 3.93457 9.16861 3.06421 10 2 10C 0.895508 10 0 9.10457 0 8C 0 6.89543 0.895508 6 2 6C 2.40723 6 2.78613 6.12176 3.10205 6.33086L 6.00342 4.88017C 6.06543 3.83139 6.93579 3 8 3C 9.10449 3 10 3.89543 10 5C 10 5.04326 9.99854 5.0862 9.99585 5.12877L 13.113 7.20691C 13.3804 7.07446 13.6814 7 14 7C 14.1257 7 14.2488 7.01161 14.3682 7.03382L 18.113 2.66473C 18.0398 2.45676 18 2.23303 18 2C 18 0.89543 18.8955 0 20 0C 21.1045 0 22 0.89543 22 2ZM 22 16C 22 17.1046 21.1045 18 20 18C 19.6814 18 19.3804 17.9255 19.113 17.7931L 15.9958 19.8712C 15.9985 19.9138 16 19.9567 16 20C 16 21.1046 15.1045 22 14 22C 12.8955 22 12 21.1046 12 20C 12 19.8208 12.0237 19.6472 12.0679 19.4819L 8.51807 15.9323C 8.35278 15.9764 8.1792 16 8 16C 7.87427 16 7.75122 15.9884 7.63184 15.9662L 3.88696 20.3352C 3.96021 20.5432 4 20.767 4 21C 4 22.1046 3.10449 23 2 23C 0.895508 23 0 22.1046 0 21C 0 19.8954 0.895508 19 2 19C 2.12573 19 2.24878 19.0116 2.36816 19.0338L 6.11304 14.6647C 6.03979 14.4568 6 14.233 6 14C 6 12.8954 6.89551 12 8 12C 9.10449 12 10 12.8954 10 14C 10 14.1792 9.97632 14.3528 9.93213 14.5181L 13.4819 18.0677C 13.6472 18.0236 13.8208 18 14 18C 14.3186 18 14.6196 18.0745 14.887 18.2069L 18.0042 16.1288C 18.0015 16.0862 18 16.0433 18 16C 18 14.8954 18.8955 14 20 14C 21.1045 14 22 14.8954 22 16Z"/>
</defs>
</svg>
