<?xml version="1.0" encoding="UTF-8"?>
<svg width="800px" height="600px" viewBox="0 0 800 600" version="1.1" xmlns="http://www.w3.org/2000/svg" xmlns:xlink="http://www.w3.org/1999/xlink">
    <!-- Generator: Sketch 46.1 (44463) - http://www.bohemiancoding.com/sketch -->
    <title>logo-black-h</title>
    <desc>Created with Sketch.</desc>
    <defs></defs>
    <g id="Page-2" stroke="none" stroke-width="1" fill="none" fill-rule="evenodd">
        <g id="logo-black-h" fill="#080808">
            <g id="logo-h" transform="translate(126.000000, 235.000000)">
                <path d="M192.2,38 C208.52,38 220.84,49.76 220.84,66 C220.84,82.16 208.44,94 192.2,94 L172.6,94 L172.6,38 L192.2,38 Z M192.28,85.36 C203.56,85.36 211.8,77.44 211.8,66 C211.8,54.64 203.56,46.64 192.28,46.64 L181.64,46.64 L181.64,85.36 L192.28,85.36 Z M251.56,49.04 C265.72,49.04 274.68,60 273.8,74.48 L238.04,74.48 C238.76,82.56 244.44,87.04 251.8,87.04 C257.08,87.04 261.48,84.8 263.56,80.48 L272.92,80.48 C269.48,90.32 261.08,94.96 251.72,94.96 C238.36,94.96 228.84,85.36 228.84,72.08 C228.84,58.8 238.28,49.04 251.56,49.04 Z M251.56,56.88 C244.68,56.88 240.04,61.2 238.52,67.12 L264.12,67.12 C262.76,61.12 258.2,56.88 251.56,56.88 Z M321.64,38 L321.64,60.88 L292.92,60.88 L292.92,38 L283.88,38 L283.88,94 L292.92,94 L292.92,69.52 L321.64,69.52 L321.64,94 L330.68,94 L330.68,38 L321.64,38 Z M363.72,49.04 C377.88,49.04 386.84,60 385.96,74.48 L350.2,74.48 C350.92,82.56 356.6,87.04 363.96,87.04 C369.24,87.04 373.64,84.8 375.72,80.48 L385.08,80.48 C381.64,90.32 373.24,94.96 363.88,94.96 C350.52,94.96 341,85.36 341,72.08 C341,58.8 350.44,49.04 363.72,49.04 Z M363.72,56.88 C356.84,56.88 352.2,61.2 350.68,67.12 L376.28,67.12 C374.92,61.12 370.36,56.88 363.72,56.88 Z M429.56,32.4 L438.6,32.4 L438.6,94 L429.56,94 L429.56,86.64 C426.28,91.6 421,94.96 414.12,94.96 C402.36,94.96 393.8,85.44 393.8,72 C393.8,58.56 402.52,49.04 414.04,49.04 C421,49.04 426.28,52.48 429.56,57.52 L429.56,32.4 Z M416.04,86.32 C423.72,86.32 429.56,80.48 429.56,72 C429.56,63.6 423.72,57.68 416.04,57.68 C408.36,57.68 402.92,63.6 402.92,72 C402.92,80.48 408.44,86.32 416.04,86.32 Z M483.32,50 L492.36,50 L492.36,93.44 C492.36,106.56 484.12,114.96 471.08,114.96 C460.6,114.96 451.08,109.52 449.16,98.56 L458.52,98.56 C460.04,104.24 464.92,106.88 470.84,106.88 C478.92,106.88 483.32,102.32 483.32,93.76 L483.32,86.24 C480.04,91.12 474.76,94.48 467.96,94.48 C456.2,94.48 447.64,84.96 447.64,71.76 C447.64,58.56 456.36,49.04 467.96,49.04 C474.76,49.04 480.12,52.48 483.32,57.52 L483.32,50 Z M469.88,85.84 C477.56,85.84 483.4,80 483.4,71.76 C483.4,63.6 477.56,57.68 469.88,57.68 C462.2,57.68 456.76,63.6 456.76,71.76 C456.76,80 462.28,85.84 469.88,85.84 Z M524.2,49.04 C538.36,49.04 547.32,60 546.44,74.48 L510.68,74.48 C511.4,82.56 517.08,87.04 524.44,87.04 C529.72,87.04 534.12,84.8 536.2,80.48 L545.56,80.48 C542.12,90.32 533.72,94.96 524.36,94.96 C511,94.96 501.48,85.36 501.48,72.08 C501.48,58.8 510.92,49.04 524.2,49.04 Z M524.2,56.88 C517.32,56.88 512.68,61.2 511.16,67.12 L536.76,67.12 C535.4,61.12 530.84,56.88 524.2,56.88 Z" id="DeHedge"></path>
                <g id="sign">
                    <path d="M65,129.5 C29.3776336,129.5 0.5,100.622366 0.5,65 C0.5,29.3776336 29.3776336,0.5 65,0.5 C75.2629075,0.5 85.1912885,2.90242833 94.149871,7.44831172 C115.655487,18.360978 129.5,40.4466697 129.5,65 C129.5,89.2495728 115.996995,111.107072 94.9040341,122.162722 C85.7536053,126.958822 75.5546747,129.5 65,129.5 Z M65,120.5 C74.0905307,120.5 82.856956,118.315747 90.7259083,114.191319 C108.88269,104.674636 120.5,85.8695368 120.5,65 C120.5,43.86933 108.588541,24.8673763 90.0772924,15.4741514 C82.3736263,11.5650545 73.8394913,9.5 65,9.5 C34.3481964,9.5 9.5,34.3481964 9.5,65 C9.5,95.6518036 34.3481964,120.5 65,120.5 Z" id="Oval-8" fill-rule="nonzero"></path>
                    <path d="M40,58.4563049 L40,10.5 L31,10.5 L31,119.5 L40,119.5 L40,81.5 C40,67.6928813 51.1928813,56.5 65,56.5 C78.8071187,56.5 90,67.6928813 90,81.5 L90,119.5 L99,119.5 L99,10.5 L90,10.5 L90,58.4563049 C83.7874136,51.719694 74.886488,47.5 65,47.5 C55.113512,47.5 46.2125864,51.719694 40,58.4563049 Z" id="Combined-Shape" fill-rule="nonzero"></path>
                    <polygon id="star" points="73.888 98 71.272 86.9015789 80 79.4378947 68.4944 78.4636842 64 68 59.5056 78.4636842 48 79.4378947 56.728 86.9015789 54.112 98 64 92.1136842"></polygon>
                </g>
            </g>
        </g>
    </g>
</svg>