<?xml version="1.0" encoding="UTF-8"?>
<svg width="280px" height="65px" viewBox="0 0 280 65" version="1.1" xmlns="http://www.w3.org/2000/svg" xmlns:xlink="http://www.w3.org/1999/xlink">
    <!-- Generator: Sketch 46.1 (44463) - http://www.bohemiancoding.com/sketch -->
    <title>logo-white-h</title>
    <desc>Created with Sketch.</desc>
    <defs></defs>
    <g id="Page-2" stroke="none" stroke-width="1" fill="none" fill-rule="evenodd">
        <g id="logo-white-h" fill="#FFFFFF">
            <g id="Group-2">
                <g>
                    <g id="sign" fill-rule="nonzero">
                        <path d="M32.5,64.75 C14.6888168,64.75 0.25,50.3111832 0.25,32.5 C0.25,14.6888168 14.6888168,0.25 32.5,0.25 C37.6314537,0.25 42.5956443,1.45121417 47.0749355,3.72415586 C57.8277433,9.18048899 64.75,20.2233349 64.75,32.5 C64.75,44.6247864 57.9984975,55.5535359 47.452017,61.0813611 C42.8768026,63.4794109 37.7773373,64.75 32.5,64.75 Z M32.5,60.25 C37.0452653,60.25 41.428478,59.1578733 45.3629542,57.0956596 C54.4413449,52.337318 60.25,42.9347684 60.25,32.5 C60.25,21.934665 54.2942707,12.4336881 45.0386462,7.73707572 C41.1868131,5.78252723 36.9197457,4.75 32.5,4.75 C17.1740982,4.75 4.75,17.1740982 4.75,32.5 C4.75,47.8259018 17.1740982,60.25 32.5,60.25 Z" id="Oval-8"></path>
                        <path d="M20,29.2281525 L20,5.25 L15.5,5.25 L15.5,59.75 L20,59.75 L20,40.75 C20,33.8464406 25.5964406,28.25 32.5,28.25 C39.4035594,28.25 45,33.8464406 45,40.75 L45,59.75 L49.5,59.75 L49.5,5.25 L45,5.25 L45,29.2281525 C41.8937068,25.859847 37.443244,23.75 32.5,23.75 C27.556756,23.75 23.1062932,25.859847 20,29.2281525 Z" id="Combined-Shape"></path>
                    </g>
                    <polygon id="star" points="36.944 49 35.636 43.4507895 40 39.7189474 34.2472 39.2318421 32 34 29.7528 39.2318421 24 39.7189474 28.364 43.4507895 27.056 49 32 46.0568421"></polygon>
                </g>
            </g>
            <path d="M96.1,19 C104.26,19 110.42,24.88 110.42,33 C110.42,41.08 104.22,47 96.1,47 L86.3,47 L86.3,19 L96.1,19 Z M96.14,42.68 C101.78,42.68 105.9,38.72 105.9,33 C105.9,27.32 101.78,23.32 96.14,23.32 L90.82,23.32 L90.82,42.68 L96.14,42.68 Z M125.78,24.52 C132.86,24.52 137.34,30 136.9,37.24 L119.02,37.24 C119.38,41.28 122.22,43.52 125.9,43.52 C128.54,43.52 130.74,42.4 131.78,40.24 L136.46,40.24 C134.74,45.16 130.54,47.48 125.86,47.48 C119.18,47.48 114.42,42.68 114.42,36.04 C114.42,29.4 119.14,24.52 125.78,24.52 Z M125.78,28.44 C122.34,28.44 120.02,30.6 119.26,33.56 L132.06,33.56 C131.38,30.56 129.1,28.44 125.78,28.44 Z M160.82,19 L160.82,30.44 L146.46,30.44 L146.46,19 L141.94,19 L141.94,47 L146.46,47 L146.46,34.76 L160.82,34.76 L160.82,47 L165.34,47 L165.34,19 L160.82,19 Z M181.86,24.52 C188.94,24.52 193.42,30 192.98,37.24 L175.1,37.24 C175.46,41.28 178.3,43.52 181.98,43.52 C184.62,43.52 186.82,42.4 187.86,40.24 L192.54,40.24 C190.82,45.16 186.62,47.48 181.94,47.48 C175.26,47.48 170.5,42.68 170.5,36.04 C170.5,29.4 175.22,24.52 181.86,24.52 Z M181.86,28.44 C178.42,28.44 176.1,30.6 175.34,33.56 L188.14,33.56 C187.46,30.56 185.18,28.44 181.86,28.44 Z M214.78,16.2 L219.3,16.2 L219.3,47 L214.78,47 L214.78,43.32 C213.14,45.8 210.5,47.48 207.06,47.48 C201.18,47.48 196.9,42.72 196.9,36 C196.9,29.28 201.26,24.52 207.02,24.52 C210.5,24.52 213.14,26.24 214.78,28.76 L214.78,16.2 Z M208.02,43.16 C211.86,43.16 214.78,40.24 214.78,36 C214.78,31.8 211.86,28.84 208.02,28.84 C204.18,28.84 201.46,31.8 201.46,36 C201.46,40.24 204.22,43.16 208.02,43.16 Z M241.66,25 L246.18,25 L246.18,46.72 C246.18,53.28 242.06,57.48 235.54,57.48 C230.3,57.48 225.54,54.76 224.58,49.28 L229.26,49.28 C230.02,52.12 232.46,53.44 235.42,53.44 C239.46,53.44 241.66,51.16 241.66,46.88 L241.66,43.12 C240.02,45.56 237.38,47.24 233.98,47.24 C228.1,47.24 223.82,42.48 223.82,35.88 C223.82,29.28 228.18,24.52 233.98,24.52 C237.38,24.52 240.06,26.24 241.66,28.76 L241.66,25 Z M234.94,42.92 C238.78,42.92 241.7,40 241.7,35.88 C241.7,31.8 238.78,28.84 234.94,28.84 C231.1,28.84 228.38,31.8 228.38,35.88 C228.38,40 231.14,42.92 234.94,42.92 Z M262.1,24.52 C269.18,24.52 273.66,30 273.22,37.24 L255.34,37.24 C255.7,41.28 258.54,43.52 262.22,43.52 C264.86,43.52 267.06,42.4 268.1,40.24 L272.78,40.24 C271.06,45.16 266.86,47.48 262.18,47.48 C255.5,47.48 250.74,42.68 250.74,36.04 C250.74,29.4 255.46,24.52 262.1,24.52 Z M262.1,28.44 C258.66,28.44 256.34,30.6 255.58,33.56 L268.38,33.56 C267.7,30.56 265.42,28.44 262.1,28.44 Z" id="DeHedge"></path>
        </g>
    </g>
</svg>