<?xml version="1.0" encoding="UTF-8"?>
<svg width="800px" height="600px" viewBox="0 0 800 600" version="1.1" xmlns="http://www.w3.org/2000/svg" xmlns:xlink="http://www.w3.org/1999/xlink" style="background: #303498;">
    <!-- Generator: Sketch 46.1 (44463) - http://www.bohemiancoding.com/sketch -->
    <title>logo-white-v</title>
    <desc>Created with Sketch.</desc>
    <defs></defs>
    <g id="Page-2" stroke="none" stroke-width="1" fill="none" fill-rule="evenodd">
        <g id="logo-white-v" fill="#FFFFFF">
            <g transform="translate(212.000000, 170.000000)">
                <path d="M20.2,182 C36.52,182 48.84,193.76 48.84,210 C48.84,226.16 36.44,238 20.2,238 L0.6,238 L0.6,182 L20.2,182 Z M20.28,229.36 C31.56,229.36 39.8,221.44 39.8,210 C39.8,198.64 31.56,190.64 20.28,190.64 L9.64,190.64 L9.64,229.36 L20.28,229.36 Z M79.56,193.04 C93.72,193.04 102.68,204 101.8,218.48 L66.04,218.48 C66.76,226.56 72.44,231.04 79.8,231.04 C85.08,231.04 89.48,228.8 91.56,224.48 L100.92,224.48 C97.48,234.32 89.08,238.96 79.72,238.96 C66.36,238.96 56.84,229.36 56.84,216.08 C56.84,202.8 66.28,193.04 79.56,193.04 Z M79.56,200.88 C72.68,200.88 68.04,205.2 66.52,211.12 L92.12,211.12 C90.76,205.12 86.2,200.88 79.56,200.88 Z M149.64,182 L149.64,204.88 L120.92,204.88 L120.92,182 L111.88,182 L111.88,238 L120.92,238 L120.92,213.52 L149.64,213.52 L149.64,238 L158.68,238 L158.68,182 L149.64,182 Z M191.72,193.04 C205.88,193.04 214.84,204 213.96,218.48 L178.2,218.48 C178.92,226.56 184.6,231.04 191.96,231.04 C197.24,231.04 201.64,228.8 203.72,224.48 L213.08,224.48 C209.64,234.32 201.24,238.96 191.88,238.96 C178.52,238.96 169,229.36 169,216.08 C169,202.8 178.44,193.04 191.72,193.04 Z M191.72,200.88 C184.84,200.88 180.2,205.2 178.68,211.12 L204.28,211.12 C202.92,205.12 198.36,200.88 191.72,200.88 Z M257.56,176.4 L266.6,176.4 L266.6,238 L257.56,238 L257.56,230.64 C254.28,235.6 249,238.96 242.12,238.96 C230.36,238.96 221.8,229.44 221.8,216 C221.8,202.56 230.52,193.04 242.04,193.04 C249,193.04 254.28,196.48 257.56,201.52 L257.56,176.4 Z M244.04,230.32 C251.72,230.32 257.56,224.48 257.56,216 C257.56,207.6 251.72,201.68 244.04,201.68 C236.36,201.68 230.92,207.6 230.92,216 C230.92,224.48 236.44,230.32 244.04,230.32 Z M311.32,194 L320.36,194 L320.36,237.44 C320.36,250.56 312.12,258.96 299.08,258.96 C288.6,258.96 279.08,253.52 277.16,242.56 L286.52,242.56 C288.04,248.24 292.92,250.88 298.84,250.88 C306.92,250.88 311.32,246.32 311.32,237.76 L311.32,230.24 C308.04,235.12 302.76,238.48 295.96,238.48 C284.2,238.48 275.64,228.96 275.64,215.76 C275.64,202.56 284.36,193.04 295.96,193.04 C302.76,193.04 308.12,196.48 311.32,201.52 L311.32,194 Z M297.88,229.84 C305.56,229.84 311.4,224 311.4,215.76 C311.4,207.6 305.56,201.68 297.88,201.68 C290.2,201.68 284.76,207.6 284.76,215.76 C284.76,224 290.28,229.84 297.88,229.84 Z M352.2,193.04 C366.36,193.04 375.32,204 374.44,218.48 L338.68,218.48 C339.4,226.56 345.08,231.04 352.44,231.04 C357.72,231.04 362.12,228.8 364.2,224.48 L373.56,224.48 C370.12,234.32 361.72,238.96 352.36,238.96 C339,238.96 329.48,229.36 329.48,216.08 C329.48,202.8 338.92,193.04 352.2,193.04 Z M352.2,200.88 C345.32,200.88 340.68,205.2 339.16,211.12 L364.76,211.12 C363.4,205.12 358.84,200.88 352.2,200.88 Z" id="DeHedge"></path>
                <g id="sign" transform="translate(122.000000, 0.000000)">
                    <path d="M65,129.5 C29.3776336,129.5 0.5,100.622366 0.5,65 C0.5,29.3776336 29.3776336,0.5 65,0.5 C75.2629075,0.5 85.1912885,2.90242833 94.149871,7.44831172 C115.655487,18.360978 129.5,40.4466697 129.5,65 C129.5,89.2495728 115.996995,111.107072 94.9040341,122.162722 C85.7536053,126.958822 75.5546747,129.5 65,129.5 Z M65,120.5 C74.0905307,120.5 82.856956,118.315747 90.7259083,114.191319 C108.88269,104.674636 120.5,85.8695368 120.5,65 C120.5,43.86933 108.588541,24.8673763 90.0772924,15.4741514 C82.3736263,11.5650545 73.8394913,9.5 65,9.5 C34.3481964,9.5 9.5,34.3481964 9.5,65 C9.5,95.6518036 34.3481964,120.5 65,120.5 Z" id="Oval-8" fill-rule="nonzero"></path>
                    <path d="M40,58.4563049 L40,10.5 L31,10.5 L31,119.5 L40,119.5 L40,81.5 C40,67.6928813 51.1928813,56.5 65,56.5 C78.8071187,56.5 90,67.6928813 90,81.5 L90,119.5 L99,119.5 L99,10.5 L90,10.5 L90,58.4563049 C83.7874136,51.719694 74.886488,47.5 65,47.5 C55.113512,47.5 46.2125864,51.719694 40,58.4563049 Z" id="Combined-Shape" fill-rule="nonzero"></path>
                    <polygon id="star" points="73.888 98 71.272 86.9015789 80 79.4378947 68.4944 78.4636842 64 68 59.5056 78.4636842 48 79.4378947 56.728 86.9015789 54.112 98 64 92.1136842"></polygon>
                </g>
            </g>
        </g>
    </g>
</svg>