<svg xmlns="http://www.w3.org/2000/svg" width="280" height="65" viewBox="0 0 280 65">
  <g fill="#FFF" fill-rule="evenodd">
    <path d="M96.1,17 C104.26,17 110.42,22.88 110.42,31 C110.42,39.08 104.22,45 96.1,45 L86.3,45 L86.3,17 L96.1,17 Z M96.14,40.68 C101.78,40.68 105.9,36.72 105.9,31 C105.9,25.32 101.78,21.32 96.14,21.32 L90.82,21.32 L90.82,40.68 L96.14,40.68 Z M125.78,22.52 C132.86,22.52 137.34,28 136.9,35.24 L119.02,35.24 C119.38,39.28 122.22,41.52 125.9,41.52 C128.54,41.52 130.74,40.4 131.78,38.24 L136.46,38.24 C134.74,43.16 130.54,45.48 125.86,45.48 C119.18,45.48 114.42,40.68 114.42,34.04 C114.42,27.4 119.14,22.52 125.78,22.52 Z M125.78,26.44 C122.34,26.44 120.02,28.6 119.26,31.56 L132.06,31.56 C131.38,28.56 129.1,26.44 125.78,26.44 Z M160.82,17 L160.82,28.44 L146.46,28.44 L146.46,17 L141.94,17 L141.94,45 L146.46,45 L146.46,32.76 L160.82,32.76 L160.82,45 L165.34,45 L165.34,17 L160.82,17 Z M181.86,22.52 C188.94,22.52 193.42,28 192.98,35.24 L175.1,35.24 C175.46,39.28 178.3,41.52 181.98,41.52 C184.62,41.52 186.82,40.4 187.86,38.24 L192.54,38.24 C190.82,43.16 186.62,45.48 181.94,45.48 C175.26,45.48 170.5,40.68 170.5,34.04 C170.5,27.4 175.22,22.52 181.86,22.52 Z M181.86,26.44 C178.42,26.44 176.1,28.6 175.34,31.56 L188.14,31.56 C187.46,28.56 185.18,26.44 181.86,26.44 Z M214.78,14.2 L219.3,14.2 L219.3,45 L214.78,45 L214.78,41.32 C213.14,43.8 210.5,45.48 207.06,45.48 C201.18,45.48 196.9,40.72 196.9,34 C196.9,27.28 201.26,22.52 207.02,22.52 C210.5,22.52 213.14,24.24 214.78,26.76 L214.78,14.2 Z M208.02,41.16 C211.86,41.16 214.78,38.24 214.78,34 C214.78,29.8 211.86,26.84 208.02,26.84 C204.18,26.84 201.46,29.8 201.46,34 C201.46,38.24 204.22,41.16 208.02,41.16 Z M241.66,23 L246.18,23 L246.18,44.72 C246.18,51.28 242.06,55.48 235.54,55.48 C230.3,55.48 225.54,52.76 224.58,47.28 L229.26,47.28 C230.02,50.12 232.46,51.44 235.42,51.44 C239.46,51.44 241.66,49.16 241.66,44.88 L241.66,41.12 C240.02,43.56 237.38,45.24 233.98,45.24 C228.1,45.24 223.82,40.48 223.82,33.88 C223.82,27.28 228.18,22.52 233.98,22.52 C237.38,22.52 240.06,24.24 241.66,26.76 L241.66,23 Z M234.94,40.92 C238.78,40.92 241.7,38 241.7,33.88 C241.7,29.8 238.78,26.84 234.94,26.84 C231.1,26.84 228.38,29.8 228.38,33.88 C228.38,38 231.14,40.92 234.94,40.92 Z M262.1,22.52 C269.18,22.52 273.66,28 273.22,35.24 L255.34,35.24 C255.7,39.28 258.54,41.52 262.22,41.52 C264.86,41.52 267.06,40.4 268.1,38.24 L272.78,38.24 C271.06,43.16 266.86,45.48 262.18,45.48 C255.5,45.48 250.74,40.68 250.74,34.04 C250.74,27.4 255.46,22.52 262.1,22.52 Z M262.1,26.44 C258.66,26.44 256.34,28.6 255.58,31.56 L268.38,31.56 C267.7,28.56 265.42,26.44 262.1,26.44 Z"/>
    <path fill-rule="nonzero" d="M32.5,64.75 C14.6888168,64.75 0.25,50.3111832 0.25,32.5 C0.25,14.6888168 14.6888168,0.25 32.5,0.25 C37.6314537,0.25 42.5956443,1.45121417 47.0749355,3.72415586 C57.8277433,9.18048899 64.75,20.2233349 64.75,32.5 C64.75,44.6247864 57.9984975,55.5535359 47.452017,61.0813611 C42.8768026,63.4794109 37.7773373,64.75 32.5,64.75 Z M32.5,60.25 C37.0452653,60.25 41.428478,59.1578733 45.3629542,57.0956596 C54.4413449,52.337318 60.25,42.9347684 60.25,32.5 C60.25,21.934665 54.2942707,12.4336881 45.0386462,7.73707572 C41.1868131,5.78252723 36.9197457,4.75 32.5,4.75 C17.1740982,4.75 4.75,17.1740982 4.75,32.5 C4.75,47.8259018 17.1740982,60.25 32.5,60.25 Z"/>
    <path fill-rule="nonzero" d="M20,29.2281525 L20,5.25 L15.5,5.25 L15.5,59.75 L20,59.75 L20,40.75 C20,33.8464406 25.5964406,28.25 32.5,28.25 C39.4035594,28.25 45,33.8464406 45,40.75 L45,59.75 L49.5,59.75 L49.5,5.25 L45,5.25 L45,29.2281525 C41.8937068,25.859847 37.443244,23.75 32.5,23.75 C27.556756,23.75 23.1062932,25.859847 20,29.2281525 Z"/>
    <polygon points="36.944 49 35.636 43.451 40 39.719 34.247 39.232 32 34 29.753 39.232 24 39.719 28.364 43.451 27.056 49 32 46.057"/>
  </g>
</svg>
