<?xml version="1.0" encoding="UTF-8"?>
<svg width="960px" height="960px" viewBox="0 0 960 960" version="1.1" xmlns="http://www.w3.org/2000/svg" xmlns:xlink="http://www.w3.org/1999/xlink">
    <!-- Generator: Sketch 46.1 (44463) - http://www.bohemiancoding.com/sketch -->
    <title>scheme-2</title>
    <desc>Created with Sketch.</desc>
    <defs></defs>
    <g id="Main" stroke="none" stroke-width="1" fill="none" fill-rule="evenodd">
        <g id="scheme-2">
            <g id="Group-2" transform="translate(0.000000, 410.000000)">
                <g id="Group-4">
                    <path d="M4,4 L4,436 L716,436 L716,4 L4,4 Z" id="Rectangle-4" stroke="#F6F6F9" stroke-width="8"></path>
                    <path d="M62.752,66 L62.752,43.28 L70.496,43.28 C77.504,43.28 82.08,47.44 82.08,54.608 C82.08,61.776 77.504,66 70.496,66 L62.752,66 Z M66.88,62.448 L70.272,62.448 C74.88,62.448 77.824,59.728 77.824,54.608 C77.824,49.552 74.816,46.832 70.272,46.832 L66.88,46.832 L66.88,62.448 Z M84.768,57.84 C84.768,52.816 88.192,49.296 93.088,49.296 C97.76,49.296 100.32,52.72 100.32,57.04 C100.32,57.552 100.256,58.096 100.192,58.608 L88.96,58.608 C89.216,61.456 91.392,62.928 93.856,62.928 C95.52,62.928 97.216,62.192 98.528,61.136 L100.128,64.048 C98.464,65.52 95.904,66.384 93.568,66.384 C88.16,66.384 84.768,62.48 84.768,57.84 Z M89.056,55.824 L96.256,55.824 C96.224,53.648 94.816,52.368 92.992,52.368 C90.912,52.368 89.44,53.744 89.056,55.824 Z M104.032,66 L108.16,66 L108.16,56.464 L118.56,56.464 L118.56,66 L122.656,66 L122.656,43.28 L118.56,43.28 L118.56,52.912 L108.16,52.912 L108.16,43.28 L104.032,43.28 L104.032,66 Z M126.272,57.84 C126.272,52.816 129.696,49.296 134.592,49.296 C139.264,49.296 141.824,52.72 141.824,57.04 C141.824,57.552 141.76,58.096 141.696,58.608 L130.464,58.608 C130.72,61.456 132.896,62.928 135.36,62.928 C137.024,62.928 138.72,62.192 140.032,61.136 L141.632,64.048 C139.968,65.52 137.408,66.384 135.072,66.384 C129.664,66.384 126.272,62.48 126.272,57.84 Z M130.56,55.824 L137.76,55.824 C137.728,53.648 136.32,52.368 134.496,52.368 C132.416,52.368 130.944,53.744 130.56,55.824 Z M156.116641,64.3574664 L156.672,64.7184099 L156.672,64.592 C156.672,63.984 156.736,63.568 156.736,63.568 L156.672,63.568 C156.511328,63.8464975 156.325558,64.1106531 156.116641,64.3574664 Z M156.672,64.7184099 L156.116641,64.3574664 C155.077291,65.5853427 153.465032,66.384 151.52,66.384 C147.136,66.384 144.288,62.896 144.288,57.84 C144.288,52.656 147.36,49.296 151.68,49.296 C153.504,49.296 155.392,49.968 156.448,51.44 L156.512,51.44 C156.512,51.44 156.448,51.024 156.448,50.48 L156.448,43.28 L160.48,43.28 L160.48,66 L156.672,66 L156.672,64.7184099 Z M148.384,57.84 C148.384,60.944 150.048,62.96 152.448,62.96 C154.56,62.96 156.544,61.424 156.544,57.808 C156.544,55.28 155.232,52.784 152.48,52.784 C150.272,52.784 148.384,54.608 148.384,57.84 Z M175.327821,64.0664336 L175.84,64.3801958 L175.84,64.272 C175.84,63.888 175.904,63.408 175.904,63.408 L175.84,63.408 C175.68256,63.64416 175.51221,63.8639672 175.327821,64.0664336 Z M175.84,64.3801958 L175.327821,64.0664336 C174.387885,65.0985185 173.083136,65.68 171.264,65.68 C166.592,65.68 163.968,61.904 163.968,57.424 C163.968,52.944 166.464,49.296 171.168,49.296 C172.992,49.296 174.944,49.936 176.032,51.44 L176.128,51.44 C176.128,51.44 176.064,51.248 176.064,50.992 L176.064,49.68 L179.904,49.68 L179.904,65.008 C179.904,70.608 175.552,72.72 171.296,72.72 C169.248,72.72 167.072,72.144 165.472,71.312 L166.72,68.208 C168.032,68.848 169.632,69.264 171.232,69.264 C173.728,69.264 175.84,68.208 175.84,65.296 L175.84,64.3801958 Z M168.064,57.296 C168.064,60.144 169.504,62.256 172.16,62.256 C174.08,62.256 175.936,61.136 175.936,57.456 C175.936,53.744 174.08,52.752 171.904,52.752 C169.44,52.752 168.064,54.544 168.064,57.296 Z M183.264,57.84 C183.264,52.816 186.688,49.296 191.584,49.296 C196.256,49.296 198.816,52.72 198.816,57.04 C198.816,57.552 198.752,58.096 198.688,58.608 L187.456,58.608 C187.712,61.456 189.888,62.928 192.352,62.928 C194.016,62.928 195.712,62.192 197.024,61.136 L198.624,64.048 C196.96,65.52 194.4,66.384 192.064,66.384 C186.656,66.384 183.264,62.48 183.264,57.84 Z M187.552,55.824 L194.752,55.824 C194.72,53.648 193.312,52.368 191.488,52.368 C189.408,52.368 187.936,53.744 187.552,55.824 Z" id="DeHedge" fill="#303498"></path>
                    <path d="M61,109 L61,281 M61,297 L61,379 L659.000821,379" id="Path-5" stroke="#F6F6F9" stroke-width="4" stroke-linecap="round" stroke-linejoin="round"></path>
                    <path d="M601.48,410 L601.48,395.88 L606.42,395.88 C608.82,395.88 610.52,397.2 610.52,399.48 C610.52,400.86 609.84,401.96 608.76,402.52 L608.76,402.56 C610.26,403 611.1,404.4 611.1,405.98 C611.1,408.64 609.02,410 606.54,410 L601.48,410 Z M603.46,401.82 L606.42,401.82 C607.7,401.82 608.5,400.92 608.5,399.68 C608.5,398.44 607.74,397.6 606.4,397.6 L603.46,397.6 L603.46,401.82 Z M603.46,408.28 L606.64,408.28 C608.16,408.28 609.06,407.32 609.06,405.86 C609.06,404.44 608.12,403.46 606.64,403.46 L603.46,403.46 L603.46,408.28 Z M613.5,414 L613.5,399.88 L615.3,399.88 L615.3,400.78 C615.3,401.2 615.24,401.54 615.24,401.54 L615.28,401.54 C615.92,400.32 617.2,399.64 618.68,399.64 C621.42,399.64 623.12,401.8 623.12,404.94 C623.12,408.16 621.2,410.24 618.54,410.24 C617.26,410.24 616.1,409.6 615.4,408.52 L615.36,408.52 C615.36,408.52 615.44,408.88 615.44,409.4 L615.44,414 L613.5,414 Z M615.38,404.98 C615.38,406.78 616.38,408.56 618.24,408.56 C619.84,408.56 621.16,407.26 621.16,404.96 C621.16,402.76 619.98,401.34 618.3,401.34 C616.78,401.34 615.38,402.42 615.38,404.98 Z M624.86,404.94 C624.86,401.72 627.06,399.64 629.94,399.64 C632.8,399.64 634.32,401.78 634.32,404.38 C634.32,404.64 634.28,404.92 634.24,405.2 L626.88,405.2 C626.98,407.38 628.54,408.56 630.36,408.56 C631.44,408.56 632.54,408.1 633.34,407.38 L634.16,408.8 C633.18,409.7 631.64,410.24 630.24,410.24 C627.06,410.24 624.86,407.94 624.86,404.94 Z M626.94,403.8 L632.36,403.8 C632.3,402.06 631.22,401.14 629.9,401.14 C628.4,401.14 627.22,402.12 626.94,403.8 Z M636.24,410 L638.12,410 L638.56,403.98 C638.6,403.38 638.54,402.24 638.54,402.24 L638.58,402.24 C638.58,402.24 638.9,403 639.22,403.74 L641.62,408.78 L643.28,408.78 L645.68,403.72 C646.06,402.94 646.32,402.24 646.32,402.24 L646.36,402.24 C646.36,402.24 646.32,403.38 646.34,403.98 L646.78,410 L648.66,410 L647.78,399.88 L645.66,399.88 L643.02,405.6 C642.76,406.22 642.46,406.96 642.46,406.96 L642.42,406.96 C642.42,406.96 642.14,406.2 641.86,405.6 L639.28,399.88 L637.12,399.88 L636.24,410 Z M650.24,410 L652.58,406.64 C652.8,406.28 653.04,406.02 653.04,406.02 L653.04,406 C651.88,405.68 650.84,404.6 650.84,403.06 C650.84,400.98 652.32,399.88 654.46,399.88 L658.5,399.88 L658.5,410 L656.56,410 L656.56,406.34 L654.86,406.34 L652.38,410 L650.24,410 Z M654.88,404.92 L656.56,404.92 L656.56,401.22 L654.94,401.22 C653.64,401.22 652.8,401.74 652.8,403.04 C652.8,404.3 653.7,404.92 654.88,404.92 Z" id="Время" fill="#181920" opacity="0.5"></path>
                    <path d="M360,440 L360,534" id="Line" stroke="#F6F6F9" stroke-width="8" stroke-linecap="square"></path>
                    <path d="M280,542 L440,542" id="Line" stroke="#F6F6F9" stroke-width="8" stroke-linecap="round" stroke-linejoin="round"></path>
                </g>
                <path d="M565.752,66 L569.88,66 L569.88,43.28 L565.752,43.28 L565.752,66 Z M574.072,54.544 C574.072,61.232 578.68,66.384 585.816,66.384 C589.88,66.384 592.792,64.688 594.744,62.704 L592.568,59.728 C590.84,61.424 588.408,62.608 585.976,62.608 C581.048,62.608 578.328,58.736 578.328,54.48 C578.328,50.288 580.952,46.672 585.944,46.672 C588.152,46.672 590.552,47.696 592.152,49.072 L594.136,46 C591.928,43.856 588.728,42.896 585.752,42.896 C578.904,42.896 574.072,47.952 574.072,54.544 Z M596.376,54.48 C596.376,47.984 601.24,42.896 608.12,42.896 C615,42.896 619.864,47.984 619.864,54.48 C619.864,61.168 615,66.384 608.12,66.384 C601.24,66.384 596.376,61.168 596.376,54.48 Z M600.632,54.48 C600.632,59.088 603.768,62.608 608.12,62.608 C612.472,62.608 615.608,59.088 615.608,54.48 C615.608,50.064 612.472,46.672 608.12,46.672 C603.768,46.672 600.632,50.064 600.632,54.48 Z M628.568,66 L636.536,43.28 L640.888,43.28 L648.856,66 L644.632,66 L642.68,60.176 L634.712,60.176 L632.792,66 L628.568,66 Z M635.736,56.816 L641.656,56.816 L639.64,50.736 C639.256,49.456 638.744,47.216 638.744,47.216 L638.68,47.216 C638.68,47.216 638.168,49.456 637.784,50.736 L635.736,56.816 Z" id="ICO-A" fill="#FF674C"></path>
                <path d="" id="Path-6" stroke="#979797" stroke-width="2"></path>
                <path d="M68,288 L642,288" id="Path-8" stroke="#F6F6F9" stroke-width="4" stroke-linecap="round" stroke-linejoin="round"></path>
                <path d="M182.933811,231.340278 L199.652707,238.112489 C218.147703,245.604133 239.078671,244.040438 256.255218,233.883871 L314.210533,199.614641 C336.688424,186.323366 364.987035,188.021477 385.714217,203.905353 C421.904739,231.639261 440,276.337477 440,338" id="Path-7" stroke="#FF674C" stroke-width="4" stroke-linejoin="round"></path>
                <path d="M67.528004,288.366461 C94,289 106.80308,249.850916 124,238.112489 C152,219 170.621402,226.352973 182.933811,231.340278 L199.652707,238.112489 C218.147703,245.604133 239.078671,244.040438 256.255218,233.883871 L314.210533,199.614641 C336.688424,186.323366 364.987035,188.021477 385.714217,203.905353 C411.120575,223.375025 427.609087,251.205179 435.179752,287.395815" id="Path-7" stroke="#303498" stroke-width="4" stroke-linejoin="round"></path>
                <circle id="Oval" stroke="#FF674C" stroke-width="4" cx="440" cy="346" r="8"></circle>
                <circle id="Oval-Copy" stroke="#303498" stroke-width="4" cx="60" cy="289.200012" r="8"></circle>
                <path d="M-25.88,174.5 L-15.16,174.5 L-15.16,177.3 L-13.38,177.3 L-13.38,172.78 L-15,172.78 L-15,160.38 L-16.98,160.38 L-16.98,172.78 L-23.9,172.78 L-23.9,160.38 L-25.88,160.38 L-25.88,174.5 Z M-12.04,169.44 C-12.04,166.22 -9.84,164.14 -6.96,164.14 C-4.1,164.14 -2.58,166.28 -2.58,168.88 C-2.58,169.14 -2.62,169.42 -2.66,169.7 L-10.02,169.7 C-9.92,171.88 -8.36,173.06 -6.54,173.06 C-5.46,173.06 -4.36,172.6 -3.56,171.88 L-2.74,173.3 C-3.72,174.2 -5.26,174.74 -6.66,174.74 C-9.84,174.74 -12.04,172.44 -12.04,169.44 Z M-9.96,168.3 L-4.54,168.3 C-4.6,166.56 -5.68,165.64 -7,165.64 C-8.5,165.64 -9.68,166.62 -9.96,168.3 Z M-0.24,174.5 L1.7,174.5 L1.7,170.16 L6.82,170.16 L6.82,174.5 L8.76,174.5 L8.76,164.38 L6.82,164.38 L6.82,168.5 L1.7,168.5 L1.7,164.38 L-0.24,164.38 L-0.24,174.5 Z M10.92,171.74 C10.92,168.56 14.86,168.2 16.96,168.2 L17.48,168.2 L17.48,168 C17.48,166.34 16.52,165.78 15.26,165.78 C14.26,165.78 13.24,166.18 12.42,166.76 L11.64,165.34 C12.46,164.66 14,164.14 15.42,164.14 C17.96,164.14 19.42,165.54 19.42,168.1 L19.42,174.5 L17.6,174.5 L17.6,173.48 C17.6,173.02 17.66,172.68 17.66,172.68 L17.62,172.68 C17.04,173.84 15.8,174.74 14.3,174.74 C12.54,174.74 10.92,173.64 10.92,171.74 Z M12.86,171.58 C12.86,172.38 13.5,173.2 14.76,173.2 C16.46,173.2 17.48,171.48 17.48,169.98 L17.48,169.6 L16.98,169.6 C15.54,169.6 12.86,169.72 12.86,171.58 Z M29.72,174.5 L31.64,174.5 L31.64,166.04 L35.18,166.04 L35.18,164.38 L26.2,164.38 L26.2,166.04 L29.72,166.04 L29.72,174.5 Z M36.08,169.42 C36.08,166.36 38.52,164.14 41.52,164.14 C44.54,164.14 46.98,166.36 46.98,169.42 C46.98,172.5 44.54,174.74 41.54,174.74 C38.52,174.74 36.08,172.5 36.08,169.42 Z M38.06,169.42 C38.06,171.54 39.62,173.06 41.54,173.06 C43.44,173.06 45.02,171.54 45.02,169.42 C45.02,167.32 43.44,165.82 41.54,165.82 C39.62,165.82 38.06,167.32 38.06,169.42 Z M49.32,174.5 L51.26,174.5 L51.26,170.12 L52.72,170.12 L55.74,174.5 L58.04,174.5 L54.26,169.24 L54.26,169.2 L57.64,164.38 L55.44,164.38 L52.68,168.46 L51.26,168.46 L51.26,164.38 L49.32,164.38 L49.32,174.5 Z M58.68,169.44 C58.68,166.22 60.88,164.14 63.76,164.14 C66.62,164.14 68.14,166.28 68.14,168.88 C68.14,169.14 68.1,169.42 68.06,169.7 L60.7,169.7 C60.8,171.88 62.36,173.06 64.18,173.06 C65.26,173.06 66.36,172.6 67.16,171.88 L67.98,173.3 C67,174.2 65.46,174.74 64.06,174.74 C60.88,174.74 58.68,172.44 58.68,169.44 Z M60.76,168.3 L66.18,168.3 C66.12,166.56 65.04,165.64 63.72,165.64 C62.22,165.64 61.04,166.62 60.76,168.3 Z M70.48,174.5 L72.42,174.5 L72.42,170.16 L77.54,170.16 L77.54,174.5 L79.48,174.5 L79.48,164.38 L77.54,164.38 L77.54,168.5 L72.42,168.5 L72.42,164.38 L70.48,164.38 L70.48,174.5 Z M81.64,171.74 C81.64,168.56 85.58,168.2 87.68,168.2 L88.2,168.2 L88.2,168 C88.2,166.34 87.24,165.78 85.98,165.78 C84.98,165.78 83.96,166.18 83.14,166.76 L82.36,165.34 C83.18,164.66 84.72,164.14 86.14,164.14 C88.68,164.14 90.14,165.54 90.14,168.1 L90.14,174.5 L88.32,174.5 L88.32,173.48 C88.32,173.02 88.38,172.68 88.38,172.68 L88.34,172.68 C87.76,173.84 86.52,174.74 85.02,174.74 C83.26,174.74 81.64,173.64 81.64,171.74 Z M83.58,171.58 C83.58,172.38 84.22,173.2 85.48,173.2 C87.18,173.2 88.2,171.48 88.2,169.98 L88.2,169.6 L87.7,169.6 C86.26,169.6 83.58,169.72 83.58,171.58 Z" id="Цена-токена" fill="#181920" opacity="0.5" transform="translate(32.130000, 168.840000) rotate(-90.000000) translate(-32.130000, -168.840000) "></path>
                <path d="M473.256,66 L473.256,46.16 L465.48,46.16 L465.48,43.408 L484.168,43.408 L484.168,46.16 L476.392,46.16 L476.392,66 L473.256,66 Z M482.952,57.872 C482.952,52.976 486.856,49.424 491.656,49.424 C496.488,49.424 500.392,52.976 500.392,57.872 C500.392,62.8 496.488,66.384 491.688,66.384 C486.856,66.384 482.952,62.8 482.952,57.872 Z M486.12,57.872 C486.12,61.264 488.616,63.696 491.688,63.696 C494.728,63.696 497.256,61.264 497.256,57.872 C497.256,54.512 494.728,52.112 491.688,52.112 C488.616,52.112 486.12,54.512 486.12,57.872 Z M504.136,66 L507.24,66 L507.24,58.992 L509.576,58.992 L514.408,66 L518.088,66 L512.04,57.584 L512.04,57.52 L517.448,49.808 L513.928,49.808 L509.512,56.336 L507.24,56.336 L507.24,49.808 L504.136,49.808 L504.136,66 Z M519.112,57.904 C519.112,52.752 522.632,49.424 527.24,49.424 C531.816,49.424 534.248,52.848 534.248,57.008 C534.248,57.424 534.184,57.872 534.12,58.32 L522.344,58.32 C522.504,61.808 525,63.696 527.912,63.696 C529.64,63.696 531.4,62.96 532.68,61.808 L533.992,64.08 C532.424,65.52 529.96,66.384 527.72,66.384 C522.632,66.384 519.112,62.704 519.112,57.904 Z M522.44,56.08 L531.112,56.08 C531.016,53.296 529.288,51.824 527.176,51.824 C524.776,51.824 522.888,53.392 522.44,56.08 Z M537.992,66 L541.096,66 L541.096,59.056 L549.288,59.056 L549.288,66 L552.392,66 L552.392,49.808 L549.288,49.808 L549.288,56.4 L541.096,56.4 L541.096,49.808 L537.992,49.808 L537.992,66 Z" id="Токен" fill="#181920"></path>
                <path d="M492.6,195.84 C492.6,191.78 495.78,188.64 499.86,188.64 C503.94,188.64 507.1,191.78 507.1,195.84 C507.1,200 503.94,203.24 499.86,203.24 C495.78,203.24 492.6,200 492.6,195.84 Z M494.64,195.84 C494.64,199 496.96,201.42 499.86,201.42 C502.74,201.42 505.06,199 505.06,195.84 C505.06,192.78 502.74,190.44 499.86,190.44 C496.96,190.44 494.64,192.78 494.64,195.84 Z M509.46,203 L511.4,203 L511.4,198.62 L512.86,198.62 L515.88,203 L518.18,203 L514.4,197.74 L514.4,197.7 L517.78,192.88 L515.58,192.88 L512.82,196.96 L511.4,196.96 L511.4,192.88 L509.46,192.88 L509.46,203 Z M518.82,197.92 C518.82,194.86 521.26,192.64 524.26,192.64 C527.28,192.64 529.72,194.86 529.72,197.92 C529.72,201 527.28,203.24 524.28,203.24 C521.26,203.24 518.82,201 518.82,197.92 Z M520.8,197.92 C520.8,200.04 522.36,201.56 524.28,201.56 C526.18,201.56 527.76,200.04 527.76,197.92 C527.76,195.82 526.18,194.32 524.28,194.32 C522.36,194.32 520.8,195.82 520.8,197.92 Z M532.06,203 L534,203 L534,198.66 L539.12,198.66 L539.12,203 L541.06,203 L541.06,192.88 L539.12,192.88 L539.12,197 L534,197 L534,192.88 L532.06,192.88 L532.06,203 Z M546.82,199.48 C547.82,199.48 548.92,199.14 549.56,198.74 L549.6,198.74 C549.6,198.74 549.58,199.06 549.58,199.34 L549.58,203 L551.52,203 L551.52,192.88 L549.58,192.88 L549.58,197.08 C549.16,197.38 548.34,197.8 547.34,197.8 C545.68,197.8 545.32,196.9 545.32,195.9 L545.32,192.88 L543.42,192.88 L543.42,196.18 C543.42,198.34 544.66,199.48 546.82,199.48 Z M553.68,200.24 C553.68,197.06 557.62,196.7 559.72,196.7 L560.24,196.7 L560.24,196.5 C560.24,194.84 559.28,194.28 558.02,194.28 C557.02,194.28 556,194.68 555.18,195.26 L554.4,193.84 C555.22,193.16 556.76,192.64 558.18,192.64 C560.72,192.64 562.18,194.04 562.18,196.6 L562.18,203 L560.36,203 L560.36,201.98 C560.36,201.52 560.42,201.18 560.42,201.18 L560.38,201.18 C559.8,202.34 558.56,203.24 557.06,203.24 C555.3,203.24 553.68,202.14 553.68,200.24 Z M555.62,200.08 C555.62,200.88 556.26,201.7 557.52,201.7 C559.22,201.7 560.24,199.98 560.24,198.48 L560.24,198.1 L559.74,198.1 C558.3,198.1 555.62,198.22 555.62,200.08 Z M565.04,203 L566.98,203 L566.98,198.66 L572.1,198.66 L572.1,203 L574.04,203 L574.04,192.88 L572.1,192.88 L572.1,197 L566.98,197 L566.98,192.88 L565.04,192.88 L565.04,203 Z M577.04,203 L578.9,203 L583.28,196.96 C583.6,196.48 584.1,195.8 584.16,195.62 L584.2,195.62 C584.2,195.78 584.14,196.48 584.14,196.96 L584.14,203 L586.02,203 L586.02,192.88 L584.14,192.88 L579.78,198.92 C579.44,199.4 578.96,200.1 578.88,200.28 L578.84,200.28 C578.86,200.18 578.9,199.46 578.9,198.92 L578.9,192.88 L577.04,192.88 L577.04,203 Z M588.34,197.94 C588.34,194.72 590.54,192.64 593.42,192.64 C596.28,192.64 597.8,194.78 597.8,197.38 C597.8,197.64 597.76,197.92 597.72,198.2 L590.36,198.2 C590.46,200.38 592.02,201.56 593.84,201.56 C594.92,201.56 596.02,201.1 596.82,200.38 L597.64,201.8 C596.66,202.7 595.12,203.24 593.72,203.24 C590.54,203.24 588.34,200.94 588.34,197.94 Z M590.42,196.8 L595.84,196.8 C595.78,195.06 594.7,194.14 593.38,194.14 C591.88,194.14 590.7,195.12 590.42,196.8 Z M604.48,197.94 C604.48,200.98 606.7,203.24 609.9,203.24 C611.48,203.24 613.02,202.6 613.94,201.62 L613.16,200.2 C612.38,201.02 611.16,201.56 610.04,201.56 C607.94,201.56 606.46,199.98 606.46,197.92 C606.46,195.86 607.94,194.32 609.98,194.32 C611.04,194.32 612.1,194.8 612.78,195.48 L613.7,194.12 C612.74,193.1 611.24,192.64 609.9,192.64 C606.72,192.64 604.48,194.94 604.48,197.94 Z M616.04,207 L616.04,192.88 L617.84,192.88 L617.84,193.78 C617.84,194.2 617.78,194.54 617.78,194.54 L617.82,194.54 C618.46,193.32 619.74,192.64 621.22,192.64 C623.96,192.64 625.66,194.8 625.66,197.94 C625.66,201.16 623.74,203.24 621.08,203.24 C619.8,203.24 618.64,202.6 617.94,201.52 L617.9,201.52 C617.9,201.52 617.98,201.88 617.98,202.4 L617.98,207 L616.04,207 Z M617.92,197.98 C617.92,199.78 618.92,201.56 620.78,201.56 C622.38,201.56 623.7,200.26 623.7,197.96 C623.7,195.76 622.52,194.34 620.84,194.34 C619.32,194.34 617.92,195.42 617.92,197.98 Z M627.4,197.92 C627.4,194.86 629.84,192.64 632.84,192.64 C635.86,192.64 638.3,194.86 638.3,197.92 C638.3,201 635.86,203.24 632.86,203.24 C629.84,203.24 627.4,201 627.4,197.92 Z M629.38,197.92 C629.38,200.04 630.94,201.56 632.86,201.56 C634.76,201.56 636.34,200.04 636.34,197.92 C636.34,195.82 634.76,194.32 632.86,194.32 C630.94,194.32 629.38,195.82 629.38,197.92 Z M640.64,203 L642.58,203 L642.58,198.62 L644.04,198.62 L647.06,203 L649.36,203 L645.58,197.74 L645.58,197.7 L648.96,192.88 L646.76,192.88 L644,196.96 L642.58,196.96 L642.58,192.88 L640.64,192.88 L640.64,203 Z M650.14,200.24 C650.14,197.06 654.08,196.7 656.18,196.7 L656.7,196.7 L656.7,196.5 C656.7,194.84 655.74,194.28 654.48,194.28 C653.48,194.28 652.46,194.68 651.64,195.26 L650.86,193.84 C651.68,193.16 653.22,192.64 654.64,192.64 C657.18,192.64 658.64,194.04 658.64,196.6 L658.64,203 L656.82,203 L656.82,201.98 C656.82,201.52 656.88,201.18 656.88,201.18 L656.84,201.18 C656.26,202.34 655.02,203.24 653.52,203.24 C651.76,203.24 650.14,202.14 650.14,200.24 Z M652.08,200.08 C652.08,200.88 652.72,201.7 653.98,201.7 C655.68,201.7 656.7,199.98 656.7,198.48 L656.7,198.1 L656.2,198.1 C654.76,198.1 652.08,198.22 652.08,200.08 Z M472.06,226.4 L476.54,226.4 L476.54,219.46 L473.5,219.46 L473.5,220 C473.5,221.52 473.34,224.4 472.06,226.4 Z M468.82,226.4 L470.06,226.4 C471.48,224.46 471.64,221.3 471.64,219.74 L471.64,217.88 L478.48,217.88 L478.48,226.4 L479.92,226.4 L479.92,230.4 L478.14,230.4 L478.14,228 L470.64,228 L470.64,230.4 L468.82,230.4 L468.82,226.4 Z M481.18,222.94 C481.18,219.72 483.38,217.64 486.26,217.64 C489.12,217.64 490.64,219.78 490.64,222.38 C490.64,222.64 490.6,222.92 490.56,223.2 L483.2,223.2 C483.3,225.38 484.86,226.56 486.68,226.56 C487.76,226.56 488.86,226.1 489.66,225.38 L490.48,226.8 C489.5,227.7 487.96,228.24 486.56,228.24 C483.38,228.24 481.18,225.94 481.18,222.94 Z M483.26,221.8 L488.68,221.8 C488.62,220.06 487.54,219.14 486.22,219.14 C484.72,219.14 483.54,220.12 483.26,221.8 Z M497.44,216.72 C499,216.72 500.4,215.8 500.4,214.16 L500.4,213.86 L498.86,213.86 L498.86,214.12 C498.86,215.02 498.14,215.46 497.44,215.46 C496.74,215.46 496.04,215.02 496.04,214.14 L496.04,213.86 L494.48,213.86 L494.48,214.16 C494.48,215.8 495.9,216.72 497.44,216.72 Z M492.98,228 L494.84,228 L499.22,221.96 C499.54,221.48 500.04,220.8 500.1,220.62 L500.14,220.62 C500.14,220.78 500.08,221.48 500.08,221.96 L500.08,228 L501.96,228 L501.96,217.88 L500.08,217.88 L495.72,223.92 C495.38,224.4 494.9,225.1 494.82,225.28 L494.78,225.28 C494.8,225.18 494.84,224.46 494.84,223.92 L494.84,217.88 L492.98,217.88 L492.98,228 Z M504.28,222.94 C504.28,225.98 506.5,228.24 509.7,228.24 C511.28,228.24 512.82,227.6 513.74,226.62 L512.96,225.2 C512.18,226.02 510.96,226.56 509.84,226.56 C507.74,226.56 506.26,224.98 506.26,222.92 C506.26,220.86 507.74,219.32 509.78,219.32 C510.84,219.32 511.9,219.8 512.58,220.48 L513.5,219.12 C512.54,218.1 511.04,217.64 509.7,217.64 C506.52,217.64 504.28,219.94 504.28,222.94 Z M518.28,228 L520.2,228 L520.2,219.54 L523.74,219.54 L523.74,217.88 L514.76,217.88 L514.76,219.54 L518.28,219.54 L518.28,228 Z M525.64,228 L525.64,217.88 L529.82,217.88 C531.86,217.88 533.2,218.78 533.2,220.48 C533.2,221.46 532.68,222.3 531.76,222.7 L531.76,222.72 C533.02,223.02 533.68,224 533.68,225.12 C533.68,227 532.16,228 529.96,228 L525.64,228 Z M527.58,222.16 L529.48,222.16 C530.64,222.16 531.22,221.56 531.22,220.62 C531.22,219.7 530.64,219.22 529.42,219.22 L527.58,219.22 L527.58,222.16 Z M527.58,226.64 L529.66,226.64 C531.06,226.64 531.72,226 531.72,225.06 C531.72,224.06 530.98,223.46 529.64,223.46 L527.58,223.46 L527.58,226.64 Z M536.04,228 L537.9,228 L542.28,221.96 C542.6,221.48 543.1,220.8 543.16,220.62 L543.2,220.62 C543.2,220.78 543.14,221.48 543.14,221.96 L543.14,228 L545.02,228 L545.02,217.88 L543.14,217.88 L538.78,223.92 C538.44,224.4 537.96,225.1 537.88,225.28 L537.84,225.28 C537.86,225.18 537.9,224.46 537.9,223.92 L537.9,217.88 L536.04,217.88 L536.04,228 Z M546.98,228 L549.32,224.64 C549.54,224.28 549.78,224.02 549.78,224.02 L549.78,224 C548.62,223.68 547.58,222.6 547.58,221.06 C547.58,218.98 549.06,217.88 551.2,217.88 L555.24,217.88 L555.24,228 L553.3,228 L553.3,224.34 L551.6,224.34 L549.12,228 L546.98,228 Z M551.62,222.92 L553.3,222.92 L553.3,219.22 L551.68,219.22 C550.38,219.22 549.54,219.74 549.54,221.04 C549.54,222.3 550.44,222.92 551.62,222.92 Z M562.58,222.94 C562.58,225.98 564.8,228.24 568,228.24 C569.58,228.24 571.12,227.6 572.04,226.62 L571.26,225.2 C570.48,226.02 569.26,226.56 568.14,226.56 C566.04,226.56 564.56,224.98 564.56,222.92 C564.56,220.86 566.04,219.32 568.08,219.32 C569.14,219.32 570.2,219.8 570.88,220.48 L571.8,219.12 C570.84,218.1 569.34,217.64 568,217.64 C564.82,217.64 562.58,219.94 562.58,222.94 Z M576.58,228 L578.5,228 L578.5,219.54 L582.04,219.54 L582.04,217.88 L573.06,217.88 L573.06,219.54 L576.58,219.54 L576.58,228 Z M583.94,232 L583.94,217.88 L585.74,217.88 L585.74,218.78 C585.74,219.2 585.68,219.54 585.68,219.54 L585.72,219.54 C586.36,218.32 587.64,217.64 589.12,217.64 C591.86,217.64 593.56,219.8 593.56,222.94 C593.56,226.16 591.64,228.24 588.98,228.24 C587.7,228.24 586.54,227.6 585.84,226.52 L585.8,226.52 C585.8,226.52 585.88,226.88 585.88,227.4 L585.88,232 L583.94,232 Z M585.82,222.98 C585.82,224.78 586.82,226.56 588.68,226.56 C590.28,226.56 591.6,225.26 591.6,222.96 C591.6,220.76 590.42,219.34 588.74,219.34 C587.22,219.34 585.82,220.42 585.82,222.98 Z M595.12,225.24 C595.12,222.06 599.06,221.7 601.16,221.7 L601.68,221.7 L601.68,221.5 C601.68,219.84 600.72,219.28 599.46,219.28 C598.46,219.28 597.44,219.68 596.62,220.26 L595.84,218.84 C596.66,218.16 598.2,217.64 599.62,217.64 C602.16,217.64 603.62,219.04 603.62,221.6 L603.62,228 L601.8,228 L601.8,226.98 C601.8,226.52 601.86,226.18 601.86,226.18 L601.82,226.18 C601.24,227.34 600,228.24 598.5,228.24 C596.74,228.24 595.12,227.14 595.12,225.24 Z M597.06,225.08 C597.06,225.88 597.7,226.7 598.96,226.7 C600.66,226.7 601.68,224.98 601.68,223.48 L601.68,223.1 L601.18,223.1 C599.74,223.1 597.06,223.22 597.06,225.08 Z M605.32,228 L607.52,228 L609.64,224.62 C609.8,224.38 609.94,224.08 609.94,224.08 L609.98,224.08 C609.98,224.08 610.14,224.38 610.3,224.62 L612.42,228 L614.62,228 L611.16,222.8 L614.42,217.88 L612.2,217.88 L610.32,220.96 C610.18,221.22 609.98,221.56 609.98,221.56 L609.94,221.56 C609.94,221.56 609.76,221.22 609.62,220.96 L607.74,217.88 L605.52,217.88 L608.78,222.8 L605.32,228 Z M615.46,222.92 C615.46,219.86 617.9,217.64 620.9,217.64 C623.92,217.64 626.36,219.86 626.36,222.92 C626.36,226 623.92,228.24 620.92,228.24 C617.9,228.24 615.46,226 615.46,222.92 Z M617.44,222.92 C617.44,225.04 619,226.56 620.92,226.56 C622.82,226.56 624.4,225.04 624.4,222.92 C624.4,220.82 622.82,219.32 620.92,219.32 C619,219.32 617.44,220.82 617.44,222.92 Z M628.7,228 L628.7,217.88 L632.88,217.88 C634.92,217.88 636.26,218.78 636.26,220.48 C636.26,221.46 635.74,222.3 634.82,222.7 L634.82,222.72 C636.08,223.02 636.74,224 636.74,225.12 C636.74,227 635.22,228 633.02,228 L628.7,228 Z M630.64,222.16 L632.54,222.16 C633.7,222.16 634.28,221.56 634.28,220.62 C634.28,219.7 633.7,219.22 632.48,219.22 L630.64,219.22 L630.64,222.16 Z M630.64,226.64 L632.72,226.64 C634.12,226.64 634.78,226 634.78,225.06 C634.78,224.06 634.04,223.46 632.7,223.46 L630.64,223.46 L630.64,226.64 Z M639.1,228 L641.04,228 L641.04,223.62 L642.5,223.62 L645.52,228 L647.82,228 L644.04,222.74 L644.04,222.7 L647.42,217.88 L645.22,217.88 L642.46,221.96 L641.04,221.96 L641.04,217.88 L639.1,217.88 L639.1,228 Z M649.54,228 L651.4,228 L655.78,221.96 C656.1,221.48 656.6,220.8 656.66,220.62 L656.7,220.62 C656.7,220.78 656.64,221.48 656.64,221.96 L656.64,228 L658.52,228 L658.52,217.88 L656.64,217.88 L652.28,223.92 C651.94,224.4 651.46,225.1 651.38,225.28 L651.34,225.28 C651.36,225.18 651.4,224.46 651.4,223.92 L651.4,217.88 L649.54,217.88 L649.54,228 Z" id="Окончание-срока-дейс" fill="#181920" opacity="0.5"></path>
            </g>
            <g id="Group" transform="translate(485.000000, 29.000000)" stroke="#303498" stroke-width="2" stroke-linecap="round" stroke-linejoin="round">
                <polyline id="Line-2" transform="translate(117.000000, 107.000000) rotate(-180.000000) translate(-117.000000, -107.000000) " points="107 112 117.078526 102 127 112"></polyline>
                <path d="M1.42108547e-14,-1.73472348e-18 L15.4180758,-1.73472348e-18 L15.4180758,7.10542736e-14 C71.7491459,6.0706648e-14 117.414501,45.6653549 117.414501,101.996425 C117.414501,105.0479 117.277562,108.097838 117.004098,111.137034 L117.004098,111.137034" id="Path-9"></path>
            </g>
            <g id="Group-5" opacity="0.5" transform="translate(620.000000, 339.000000)"></g>
            <path d="M34.016,35.912 C35.264,36.776 36.608,37.384 38.144,37.384 C40.96,37.384 42.4,35.112 43.296,32.84 L50.496,14.408 L47.168,14.408 L42.976,25.8 C42.496,27.176 42.016,28.744 42.016,28.744 L41.952,28.744 C41.952,28.744 41.376,27.176 40.672,25.768 L35.168,14.408 L31.68,14.408 L40.608,32.104 C40,33.672 39.36,34.632 38.048,34.632 C36.96,34.632 36,33.928 35.456,33.512 L34.016,35.912 Z M51.936,37 L51.936,20.808 L58.624,20.808 C61.888,20.808 64.032,22.248 64.032,24.968 C64.032,26.536 63.2,27.88 61.728,28.52 L61.728,28.552 C63.744,29.032 64.8,30.6 64.8,32.392 C64.8,35.4 62.368,37 58.848,37 L51.936,37 Z M55.04,27.656 L58.08,27.656 C59.936,27.656 60.864,26.696 60.864,25.192 C60.864,23.72 59.936,22.952 57.984,22.952 L55.04,22.952 L55.04,27.656 Z M55.04,34.824 L58.368,34.824 C60.608,34.824 61.664,33.8 61.664,32.296 C61.664,30.696 60.48,29.736 58.336,29.736 L55.04,29.736 L55.04,34.824 Z M67.52,28.904 C67.52,23.752 71.04,20.424 75.648,20.424 C80.224,20.424 82.656,23.848 82.656,28.008 C82.656,28.424 82.592,28.872 82.528,29.32 L70.752,29.32 C70.912,32.808 73.408,34.696 76.32,34.696 C78.048,34.696 79.808,33.96 81.088,32.808 L82.4,35.08 C80.832,36.52 78.368,37.384 76.128,37.384 C71.04,37.384 67.52,33.704 67.52,28.904 Z M70.848,27.08 L79.52,27.08 C79.424,24.296 77.696,22.824 75.584,22.824 C73.184,22.824 71.296,24.392 70.848,27.08 Z M89.568,34.44 L96.736,34.44 L96.736,23.336 L91.872,23.336 L91.872,24.2 C91.872,26.632 91.616,31.24 89.568,34.44 Z M84.384,34.44 L86.368,34.44 C88.64,31.336 88.896,26.28 88.896,23.784 L88.896,20.808 L99.84,20.808 L99.84,34.44 L102.144,34.44 L102.144,40.84 L99.296,40.84 L99.296,37 L87.296,37 L87.296,40.84 L84.384,40.84 L84.384,34.44 Z M104.16,28.872 C104.16,23.976 108.064,20.424 112.864,20.424 C117.696,20.424 121.6,23.976 121.6,28.872 C121.6,33.8 117.696,37.384 112.896,37.384 C108.064,37.384 104.16,33.8 104.16,28.872 Z M107.328,28.872 C107.328,32.264 109.824,34.696 112.896,34.696 C115.936,34.696 118.464,32.264 118.464,28.872 C118.464,25.512 115.936,23.112 112.896,23.112 C109.824,23.112 107.328,25.512 107.328,28.872 Z M124.672,37 L127.68,37 L128.384,27.368 C128.448,26.408 128.352,24.584 128.352,24.584 L128.416,24.584 C128.416,24.584 128.928,25.8 129.44,26.984 L133.28,35.048 L135.936,35.048 L139.776,26.952 C140.384,25.704 140.8,24.584 140.8,24.584 L140.864,24.584 C140.864,24.584 140.8,26.408 140.832,27.368 L141.536,37 L144.544,37 L143.136,20.808 L139.744,20.808 L135.52,29.96 C135.104,30.952 134.624,32.136 134.624,32.136 L134.56,32.136 C134.56,32.136 134.112,30.92 133.664,29.96 L129.536,20.808 L126.08,20.808 L124.672,37 Z M146.944,37.16 C151.712,36.904 153.568,33.128 153.568,25.8 L153.568,23.368 L158.336,23.368 L158.336,37 L161.44,37 L161.44,20.808 L150.592,20.808 L150.592,25.8 C150.592,31.656 149.312,34.024 146.944,34.376 L146.944,37.16 Z M174.56,17.608 L177.088,17.608 L177.088,14.376 L174.56,14.376 L174.56,17.608 Z M169.184,17.608 L171.744,17.608 L171.744,14.376 L169.184,14.376 L169.184,17.608 Z M165.184,28.904 C165.184,23.752 168.704,20.424 173.312,20.424 C177.888,20.424 180.32,23.848 180.32,28.008 C180.32,28.424 180.256,28.872 180.192,29.32 L168.416,29.32 C168.576,32.808 171.072,34.696 173.984,34.696 C175.712,34.696 177.472,33.96 178.752,32.808 L180.064,35.08 C178.496,36.52 176.032,37.384 173.792,37.384 C168.704,37.384 165.184,33.704 165.184,28.904 Z M168.512,27.08 L177.184,27.08 C177.088,24.296 175.36,22.824 173.248,22.824 C170.848,22.824 168.96,24.392 168.512,27.08 Z M184.064,37 L187.168,37 L187.168,30.056 L195.36,30.056 L195.36,37 L198.464,37 L198.464,20.808 L195.36,20.808 L195.36,27.4 L187.168,27.4 L187.168,20.808 L184.064,20.808 L184.064,37 Z M210.208,28.872 C210.208,23.976 214.112,20.424 218.912,20.424 C223.744,20.424 227.648,23.976 227.648,28.872 C227.648,33.8 223.744,37.384 218.944,37.384 C214.112,37.384 210.208,33.8 210.208,28.872 Z M213.376,28.872 C213.376,32.264 215.872,34.696 218.944,34.696 C221.984,34.696 224.512,32.264 224.512,28.872 C224.512,25.512 221.984,23.112 218.944,23.112 C215.872,23.112 213.376,25.512 213.376,28.872 Z M239.392,37 L242.496,37 L242.496,23.464 L250.432,23.464 L250.432,37 L253.536,37 L253.536,20.808 L239.392,20.808 L239.392,37 Z M256.992,32.584 C256.992,27.496 263.296,26.92 266.656,26.92 L267.488,26.92 L267.488,26.6 C267.488,23.944 265.952,23.048 263.936,23.048 C262.336,23.048 260.704,23.688 259.392,24.616 L258.144,22.344 C259.456,21.256 261.92,20.424 264.192,20.424 C268.256,20.424 270.592,22.664 270.592,26.76 L270.592,37 L267.68,37 L267.68,35.368 C267.68,34.632 267.776,34.088 267.776,34.088 L267.712,34.088 C266.784,35.944 264.8,37.384 262.4,37.384 C259.584,37.384 256.992,35.624 256.992,32.584 Z M260.096,32.328 C260.096,33.608 261.12,34.92 263.136,34.92 C265.856,34.92 267.488,32.168 267.488,29.768 L267.488,29.16 L266.688,29.16 C264.384,29.16 260.096,29.352 260.096,32.328 Z M278.336,34.44 L285.504,34.44 L285.504,23.336 L280.64,23.336 L280.64,24.2 C280.64,26.632 280.384,31.24 278.336,34.44 Z M273.152,34.44 L275.136,34.44 C277.408,31.336 277.664,26.28 277.664,23.784 L277.664,20.808 L288.608,20.808 L288.608,34.44 L290.912,34.44 L290.912,40.84 L288.064,40.84 L288.064,37 L276.064,37 L276.064,40.84 L273.152,40.84 L273.152,34.44 Z M292.928,28.904 C292.928,23.752 296.448,20.424 301.056,20.424 C305.632,20.424 308.064,23.848 308.064,28.008 C308.064,28.424 308,28.872 307.936,29.32 L296.16,29.32 C296.32,32.808 298.816,34.696 301.728,34.696 C303.456,34.696 305.216,33.96 306.496,32.808 L307.808,35.08 C306.24,36.52 303.776,37.384 301.536,37.384 C296.448,37.384 292.928,33.704 292.928,28.904 Z M296.256,27.08 L304.928,27.08 C304.832,24.296 303.104,22.824 300.992,22.824 C298.592,22.824 296.704,24.392 296.256,27.08 Z M311.808,37 L314.912,37 L314.912,30.056 L323.104,30.056 L323.104,37 L326.208,37 L326.208,20.808 L323.104,20.808 L323.104,27.4 L314.912,27.4 L314.912,20.808 L311.808,20.808 L311.808,37 Z M331.008,37 L333.984,37 L340.992,27.336 C341.504,26.568 342.304,25.48 342.4,25.192 L342.464,25.192 C342.464,25.448 342.368,26.568 342.368,27.336 L342.368,37 L345.376,37 L345.376,20.808 L342.368,20.808 L335.392,30.472 C334.848,31.24 334.08,32.36 333.952,32.648 L333.888,32.648 C333.92,32.488 333.984,31.336 333.984,30.472 L333.984,20.808 L331.008,20.808 L331.008,37 Z M350.144,37 L353.12,37 L360.128,27.336 C360.64,26.568 361.44,25.48 361.536,25.192 L361.6,25.192 C361.6,25.448 361.504,26.568 361.504,27.336 L361.504,37 L364.512,37 L364.512,20.808 L361.504,20.808 L354.528,30.472 C353.984,31.24 353.216,32.36 353.088,32.648 L353.024,32.648 C353.056,32.488 353.12,31.336 353.12,30.472 L353.12,20.808 L350.144,20.808 L350.144,37 Z M377.28,37 L380.384,37 L380.384,29.992 L382.72,29.992 L387.552,37 L391.232,37 L385.184,28.584 L385.184,28.52 L390.592,20.808 L387.072,20.808 L382.656,27.336 L380.384,27.336 L380.384,20.808 L377.28,20.808 L377.28,37 Z M393.184,40.36 L392.096,42.728 C392.096,42.728 393.408,43.72 395.2,43.72 C397.472,43.72 399.488,42.44 400.448,39.912 L408.064,20.808 L404.704,20.808 L400.768,31.432 C400.48,32.264 400.224,33.352 400.224,33.352 L400.16,33.352 C400.16,33.352 399.872,32.2 399.552,31.4 L395.488,20.808 L392,20.808 L398.784,36.808 L397.984,38.664 C397.376,40.136 396.32,41.064 395.04,41.064 C394.08,41.064 393.184,40.36 393.184,40.36 Z M411.104,43.4 L411.104,20.808 L413.984,20.808 L413.984,22.248 C413.984,22.92 413.888,23.464 413.888,23.464 L413.952,23.464 C414.976,21.512 417.024,20.424 419.392,20.424 C423.776,20.424 426.496,23.88 426.496,28.904 C426.496,34.056 423.424,37.384 419.168,37.384 C417.12,37.384 415.264,36.36 414.144,34.632 L414.08,34.632 C414.08,34.632 414.208,35.208 414.208,36.04 L414.208,43.4 L411.104,43.4 Z M414.112,28.968 C414.112,31.848 415.712,34.696 418.688,34.696 C421.248,34.696 423.36,32.616 423.36,28.936 C423.36,25.416 421.472,23.144 418.784,23.144 C416.352,23.144 414.112,24.872 414.112,28.968 Z M429.28,28.904 C429.28,33.768 432.832,37.384 437.952,37.384 C440.48,37.384 442.944,36.36 444.416,34.792 L443.168,32.52 C441.92,33.832 439.968,34.696 438.176,34.696 C434.816,34.696 432.448,32.168 432.448,28.872 C432.448,25.576 434.816,23.112 438.08,23.112 C439.776,23.112 441.472,23.88 442.56,24.968 L444.032,22.792 C442.496,21.16 440.096,20.424 437.952,20.424 C432.864,20.424 429.28,24.104 429.28,28.904 Z M446.432,32.584 C446.432,27.496 452.736,26.92 456.096,26.92 L456.928,26.92 L456.928,26.6 C456.928,23.944 455.392,23.048 453.376,23.048 C451.776,23.048 450.144,23.688 448.832,24.616 L447.584,22.344 C448.896,21.256 451.36,20.424 453.632,20.424 C457.696,20.424 460.032,22.664 460.032,26.76 L460.032,37 L457.12,37 L457.12,35.368 C457.12,34.632 457.216,34.088 457.216,34.088 L457.152,34.088 C456.224,35.944 454.24,37.384 451.84,37.384 C449.024,37.384 446.432,35.624 446.432,32.584 Z M449.536,32.328 C449.536,33.608 450.56,34.92 452.576,34.92 C455.296,34.92 456.928,32.168 456.928,29.768 L456.928,29.16 L456.128,29.16 C453.824,29.16 449.536,29.352 449.536,32.328 Z" id="1.-Уведомлён-о-паден" fill="#181920"></path>
            <path d="M1.824,37 L14.848,37 L14.848,34.248 L9.888,34.248 L9.888,14.408 L7.072,14.408 L1.664,19.656 L3.584,21.64 L5.696,19.592 C6.528,18.76 6.784,18.28 6.784,18.28 L6.848,18.28 C6.848,18.28 6.816,18.952 6.816,19.656 L6.816,34.248 L1.824,34.248 L1.824,37 Z" id="Path" fill-opacity="0.5" fill="#181920"></path>
            <polygon id="Path" fill-opacity="0.5" fill="#181920" points="18.048 37 21.376 37 21.376 33.64 18.048 33.64"></polygon>
            <path d="M531.192,222.544 C531.192,216.048 536.28,211.024 542.808,211.024 C549.336,211.024 554.392,216.048 554.392,222.544 C554.392,229.2 549.336,234.384 542.808,234.384 C536.28,234.384 531.192,229.2 531.192,222.544 Z M534.456,222.544 C534.456,227.6 538.168,231.472 542.808,231.472 C547.416,231.472 551.128,227.6 551.128,222.544 C551.128,217.648 547.416,213.904 542.808,213.904 C538.168,213.904 534.456,217.648 534.456,222.544 Z M562.264,234 L565.336,234 L565.336,220.464 L571,220.464 L571,217.808 L556.632,217.808 L556.632,220.464 L562.264,220.464 L562.264,234 Z M574.04,234 L577.144,234 L577.144,220.464 L585.08,220.464 L585.08,234 L588.184,234 L588.184,217.808 L574.04,217.808 L574.04,234 Z M592.984,240.4 L592.984,217.808 L595.864,217.808 L595.864,219.248 C595.864,219.92 595.768,220.464 595.768,220.464 L595.832,220.464 C596.856,218.512 598.904,217.424 601.272,217.424 C605.656,217.424 608.376,220.88 608.376,225.904 C608.376,231.056 605.304,234.384 601.048,234.384 C599,234.384 597.144,233.36 596.024,231.632 L595.96,231.632 C595.96,231.632 596.088,232.208 596.088,233.04 L596.088,240.4 L592.984,240.4 Z M595.992,225.968 C595.992,228.848 597.592,231.696 600.568,231.696 C603.128,231.696 605.24,229.616 605.24,225.936 C605.24,222.416 603.352,220.144 600.664,220.144 C598.232,220.144 595.992,221.872 595.992,225.968 Z M610.872,229.584 C610.872,224.496 617.176,223.92 620.536,223.92 L621.368,223.92 L621.368,223.6 C621.368,220.944 619.832,220.048 617.816,220.048 C616.216,220.048 614.584,220.688 613.272,221.616 L612.024,219.344 C613.336,218.256 615.8,217.424 618.072,217.424 C622.136,217.424 624.472,219.664 624.472,223.76 L624.472,234 L621.56,234 L621.56,232.368 C621.56,231.632 621.656,231.088 621.656,231.088 L621.592,231.088 C620.664,232.944 618.68,234.384 616.28,234.384 C613.464,234.384 610.872,232.624 610.872,229.584 Z M613.976,229.328 C613.976,230.608 615,231.92 617.016,231.92 C619.736,231.92 621.368,229.168 621.368,226.768 L621.368,226.16 L620.568,226.16 C618.264,226.16 613.976,226.352 613.976,229.328 Z M629.048,234 L629.048,217.808 L635.736,217.808 C639,217.808 641.144,219.248 641.144,221.968 C641.144,223.536 640.312,224.88 638.84,225.52 L638.84,225.552 C640.856,226.032 641.912,227.6 641.912,229.392 C641.912,232.4 639.48,234 635.96,234 L629.048,234 Z M632.152,224.656 L635.192,224.656 C637.048,224.656 637.976,223.696 637.976,222.192 C637.976,220.72 637.048,219.952 635.096,219.952 L632.152,219.952 L632.152,224.656 Z M632.152,231.824 L635.48,231.824 C637.72,231.824 638.776,230.8 638.776,229.296 C638.776,227.696 637.592,226.736 635.448,226.736 L632.152,226.736 L632.152,231.824 Z M643.928,234.16 C648.696,233.904 650.552,230.128 650.552,222.8 L650.552,220.368 L655.32,220.368 L655.32,234 L658.424,234 L658.424,217.808 L647.576,217.808 L647.576,222.8 C647.576,228.656 646.296,231.024 643.928,231.376 L643.928,234.16 Z M661.592,234 L665.336,228.624 C665.688,228.048 666.072,227.632 666.072,227.632 L666.072,227.6 C664.216,227.088 662.552,225.36 662.552,222.896 C662.552,219.568 664.92,217.808 668.344,217.808 L674.808,217.808 L674.808,234 L671.704,234 L671.704,228.144 L668.984,228.144 L665.016,234 L661.592,234 Z M669.016,225.872 L671.704,225.872 L671.704,219.952 L669.112,219.952 C667.032,219.952 665.688,220.784 665.688,222.864 C665.688,224.88 667.128,225.872 669.016,225.872 Z M678.552,225.904 C678.552,220.752 682.072,217.424 686.68,217.424 C691.256,217.424 693.688,220.848 693.688,225.008 C693.688,225.424 693.624,225.872 693.56,226.32 L681.784,226.32 C681.944,229.808 684.44,231.696 687.352,231.696 C689.08,231.696 690.84,230.96 692.12,229.808 L693.432,232.08 C691.864,233.52 689.4,234.384 687.16,234.384 C682.072,234.384 678.552,230.704 678.552,225.904 Z M681.88,224.08 L690.552,224.08 C690.456,221.296 688.728,219.824 686.616,219.824 C684.216,219.824 682.328,221.392 681.88,224.08 Z M701.144,234 L704.216,234 L704.216,220.464 L709.88,220.464 L709.88,217.808 L695.512,217.808 L695.512,220.464 L701.144,220.464 L701.144,234 Z M479.096,282.016 C480.44,283.296 482.552,284.384 485.048,284.384 C488.376,284.384 491.256,282.688 491.256,279.36 C491.256,277.28 489.976,276.064 488.344,275.552 L488.344,275.488 C489.624,274.944 490.712,273.824 490.712,271.808 C490.712,268.928 488.312,267.424 485.24,267.424 C482.68,267.424 480.856,268.256 479.608,269.184 L480.76,271.264 C482.008,270.336 483.288,269.856 484.696,269.856 C486.488,269.856 487.576,270.688 487.576,272.192 C487.576,273.824 486.328,274.528 484.504,274.528 L482.808,274.528 L482.808,276.768 L484.792,276.768 C487.064,276.768 488.12,277.664 488.12,279.232 C488.12,280.992 486.616,281.888 484.76,281.888 C482.808,281.888 481.272,280.736 480.536,279.968 L479.096,282.016 Z M493.656,279.584 C493.656,274.496 499.96,273.92 503.32,273.92 L504.152,273.92 L504.152,273.6 C504.152,270.944 502.616,270.048 500.6,270.048 C499,270.048 497.368,270.688 496.056,271.616 L494.808,269.344 C496.12,268.256 498.584,267.424 500.856,267.424 C504.92,267.424 507.256,269.664 507.256,273.76 L507.256,284 L504.344,284 L504.344,282.368 C504.344,281.632 504.44,281.088 504.44,281.088 L504.376,281.088 C503.448,282.944 501.464,284.384 499.064,284.384 C496.248,284.384 493.656,282.624 493.656,279.584 Z M496.76,279.328 C496.76,280.608 497.784,281.92 499.8,281.92 C502.52,281.92 504.152,279.168 504.152,276.768 L504.152,276.16 L503.352,276.16 C501.048,276.16 496.76,276.352 496.76,279.328 Z M510.776,275.904 C510.776,280.768 514.328,284.384 519.448,284.384 C521.976,284.384 524.44,283.36 525.912,281.792 L524.664,279.52 C523.416,280.832 521.464,281.696 519.672,281.696 C516.312,281.696 513.944,279.168 513.944,275.872 C513.944,272.576 516.312,270.112 519.576,270.112 C521.272,270.112 522.968,270.88 524.056,271.968 L525.528,269.792 C523.992,268.16 521.592,267.424 519.448,267.424 C514.36,267.424 510.776,271.104 510.776,275.904 Z M533.176,284 L536.248,284 L536.248,270.464 L541.912,270.464 L541.912,267.808 L527.544,267.808 L527.544,270.464 L533.176,270.464 L533.176,284 Z M544.952,290.4 L544.952,267.808 L547.832,267.808 L547.832,269.248 C547.832,269.92 547.736,270.464 547.736,270.464 L547.8,270.464 C548.824,268.512 550.872,267.424 553.24,267.424 C557.624,267.424 560.344,270.88 560.344,275.904 C560.344,281.056 557.272,284.384 553.016,284.384 C550.968,284.384 549.112,283.36 547.992,281.632 L547.928,281.632 C547.928,281.632 548.056,282.208 548.056,283.04 L548.056,290.4 L544.952,290.4 Z M547.96,275.968 C547.96,278.848 549.56,281.696 552.536,281.696 C555.096,281.696 557.208,279.616 557.208,275.936 C557.208,272.416 555.32,270.144 552.632,270.144 C550.2,270.144 547.96,271.872 547.96,275.968 Z M562.84,279.584 C562.84,274.496 569.144,273.92 572.504,273.92 L573.336,273.92 L573.336,273.6 C573.336,270.944 571.8,270.048 569.784,270.048 C568.184,270.048 566.552,270.688 565.24,271.616 L563.992,269.344 C565.304,268.256 567.768,267.424 570.04,267.424 C574.104,267.424 576.44,269.664 576.44,273.76 L576.44,284 L573.528,284 L573.528,282.368 C573.528,281.632 573.624,281.088 573.624,281.088 L573.56,281.088 C572.632,282.944 570.648,284.384 568.248,284.384 C565.432,284.384 562.84,282.624 562.84,279.584 Z M565.944,279.328 C565.944,280.608 566.968,281.92 568.984,281.92 C571.704,281.92 573.336,279.168 573.336,276.768 L573.336,276.16 L572.536,276.16 C570.232,276.16 565.944,276.352 565.944,279.328 Z M579.16,284 L582.68,284 L586.072,278.592 C586.328,278.208 586.552,277.728 586.552,277.728 L586.616,277.728 C586.616,277.728 586.872,278.208 587.128,278.592 L590.52,284 L594.04,284 L588.504,275.68 L593.72,267.808 L590.168,267.808 L587.16,272.736 C586.936,273.152 586.616,273.696 586.616,273.696 L586.552,273.696 C586.552,273.696 586.264,273.152 586.04,272.736 L583.032,267.808 L579.48,267.808 L584.696,275.68 L579.16,284 Z M595.384,275.872 C595.384,270.976 599.288,267.424 604.088,267.424 C608.92,267.424 612.824,270.976 612.824,275.872 C612.824,280.8 608.92,284.384 604.12,284.384 C599.288,284.384 595.384,280.8 595.384,275.872 Z M598.552,275.872 C598.552,279.264 601.048,281.696 604.12,281.696 C607.16,281.696 609.688,279.264 609.688,275.872 C609.688,272.512 607.16,270.112 604.12,270.112 C601.048,270.112 598.552,272.512 598.552,275.872 Z M616.568,284 L616.568,267.808 L623.256,267.808 C626.52,267.808 628.664,269.248 628.664,271.968 C628.664,273.536 627.832,274.88 626.36,275.52 L626.36,275.552 C628.376,276.032 629.432,277.6 629.432,279.392 C629.432,282.4 627,284 623.48,284 L616.568,284 Z M619.672,274.656 L622.712,274.656 C624.568,274.656 625.496,273.696 625.496,272.192 C625.496,270.72 624.568,269.952 622.616,269.952 L619.672,269.952 L619.672,274.656 Z M619.672,281.824 L623,281.824 C625.24,281.824 626.296,280.8 626.296,279.296 C626.296,277.696 625.112,276.736 622.968,276.736 L619.672,276.736 L619.672,281.824 Z M631.864,279.584 C631.864,274.496 638.168,273.92 641.528,273.92 L642.36,273.92 L642.36,273.6 C642.36,270.944 640.824,270.048 638.808,270.048 C637.208,270.048 635.576,270.688 634.264,271.616 L633.016,269.344 C634.328,268.256 636.792,267.424 639.064,267.424 C643.128,267.424 645.464,269.664 645.464,273.76 L645.464,284 L642.552,284 L642.552,282.368 C642.552,281.632 642.648,281.088 642.648,281.088 L642.584,281.088 C641.656,282.944 639.672,284.384 637.272,284.384 C634.456,284.384 631.864,282.624 631.864,279.584 Z M634.968,279.328 C634.968,280.608 635.992,281.92 638.008,281.92 C640.728,281.92 642.36,279.168 642.36,276.768 L642.36,276.16 L641.56,276.16 C639.256,276.16 634.968,276.352 634.968,279.328 Z M650.04,284 L653.144,284 L653.144,277.056 L661.336,277.056 L661.336,284 L664.44,284 L664.44,267.808 L661.336,267.808 L661.336,274.4 L653.144,274.4 L653.144,267.808 L650.04,267.808 L650.04,284 Z M669.24,284 L672.344,284 L672.344,277.056 L680.536,277.056 L680.536,284 L683.64,284 L683.64,267.808 L680.536,267.808 L680.536,274.4 L672.344,274.4 L672.344,267.808 L669.24,267.808 L669.24,284 Z M703.096,284 L706.2,284 L706.2,267.808 L703.096,267.808 L703.096,284 Z M688.44,284 L688.44,267.808 L691.544,267.808 L691.544,273.664 L694.712,273.664 C698.072,273.664 700.6,275.2 700.6,278.88 C700.6,281.92 698.744,284 694.68,284 L688.44,284 Z M691.544,281.76 L694.264,281.76 C696.504,281.76 697.464,280.544 697.464,278.848 C697.464,277.12 696.472,275.904 694.232,275.904 L691.544,275.904 L691.544,281.76 Z M718.136,265.952 C720.632,265.952 722.872,264.48 722.872,261.856 L722.872,261.376 L720.408,261.376 L720.408,261.792 C720.408,263.232 719.256,263.936 718.136,263.936 C717.016,263.936 715.896,263.232 715.896,261.824 L715.896,261.376 L713.4,261.376 L713.4,261.856 C713.4,264.48 715.672,265.952 718.136,265.952 Z M711,284 L713.976,284 L720.984,274.336 C721.496,273.568 722.296,272.48 722.392,272.192 L722.456,272.192 C722.456,272.448 722.36,273.568 722.36,274.336 L722.36,284 L725.368,284 L725.368,267.808 L722.36,267.808 L715.384,277.472 C714.84,278.24 714.072,279.36 713.944,279.648 L713.88,279.648 C713.912,279.488 713.976,278.336 713.976,277.472 L713.976,267.808 L711,267.808 L711,284 Z M518.088,334 L521.16,334 L521.16,320.464 L526.824,320.464 L526.824,317.808 L512.456,317.808 L512.456,320.464 L518.088,320.464 L518.088,334 Z M528.264,325.872 C528.264,320.976 532.168,317.424 536.968,317.424 C541.8,317.424 545.704,320.976 545.704,325.872 C545.704,330.8 541.8,334.384 537,334.384 C532.168,334.384 528.264,330.8 528.264,325.872 Z M531.432,325.872 C531.432,329.264 533.928,331.696 537,331.696 C540.04,331.696 542.568,329.264 542.568,325.872 C542.568,322.512 540.04,320.112 537,320.112 C533.928,320.112 531.432,322.512 531.432,325.872 Z M549.448,334 L552.552,334 L552.552,326.992 L554.888,326.992 L559.72,334 L563.4,334 L557.352,325.584 L557.352,325.52 L562.76,317.808 L559.24,317.808 L554.824,324.336 L552.552,324.336 L552.552,317.808 L549.448,317.808 L549.448,334 Z M564.424,325.904 C564.424,320.752 567.944,317.424 572.552,317.424 C577.128,317.424 579.56,320.848 579.56,325.008 C579.56,325.424 579.496,325.872 579.432,326.32 L567.656,326.32 C567.816,329.808 570.312,331.696 573.224,331.696 C574.952,331.696 576.712,330.96 577.992,329.808 L579.304,332.08 C577.736,333.52 575.272,334.384 573.032,334.384 C567.944,334.384 564.424,330.704 564.424,325.904 Z M567.752,324.08 L576.424,324.08 C576.328,321.296 574.6,319.824 572.488,319.824 C570.088,319.824 568.2,321.392 567.752,324.08 Z M583.304,334 L586.408,334 L586.408,327.056 L594.6,327.056 L594.6,334 L597.704,334 L597.704,317.808 L594.6,317.808 L594.6,324.4 L586.408,324.4 L586.408,317.808 L583.304,317.808 L583.304,334 Z" id="2.-Отправляет-застра" fill="#181920"></path>
            <path d="M497.4,234 L511.96,234 L511.96,231.248 L500.696,231.248 C500.824,226.096 511.608,224.944 511.608,217.52 C511.608,213.616 508.632,211.024 504.504,211.024 C501.176,211.024 498.616,212.944 497.336,215.312 L499.672,216.88 C500.632,215.248 502.36,214 504.248,214 C506.648,214 508.344,215.536 508.344,217.744 C508.344,223.056 497.24,224.24 497.24,232.272 C497.24,232.816 497.304,233.392 497.4,234 Z" id="Path" fill-opacity="0.5" fill="#181920"></path>
            <polygon id="Path" fill-opacity="0.5" fill="#181920" points="516.056 234 519.384 234 519.384 230.64 516.056 230.64"></polygon>
            <path d="M528.752,184 L532.848,184 L541.488,170.912 C542.32,169.568 543.376,167.392 543.376,167.392 L543.44,167.392 C543.44,167.392 543.216,169.568 543.216,170.912 L543.216,184 L547.312,184 L547.312,161.28 L543.216,161.28 L534.64,174.368 C533.808,175.712 532.72,177.92 532.72,177.92 L532.656,177.92 C532.656,177.92 532.88,175.744 532.88,174.4 L532.88,161.28 L528.752,161.28 L528.752,184 Z M552.08,184 L556.144,184 L556.144,177.408 L563.12,177.408 L563.12,184 L567.184,184 L567.184,167.68 L563.12,167.68 L563.12,173.984 L556.144,173.984 L556.144,167.68 L552.08,167.68 L552.08,184 Z M571.536,184 L571.536,167.68 L579.12,167.68 C582.416,167.68 584.624,169.152 584.624,171.904 C584.624,173.408 583.856,174.816 582.48,175.488 L582.48,175.52 C584.432,176.032 585.36,177.632 585.36,179.264 C585.36,182.528 582.704,184 579.28,184 L571.536,184 Z M575.6,174.4 L578.256,174.4 C579.792,174.4 580.528,173.504 580.528,172.256 C580.528,171.072 579.792,170.336 578.192,170.336 L575.6,170.336 L575.6,174.4 Z M575.6,181.312 L578.576,181.312 C580.4,181.312 581.264,180.384 581.264,179.136 C581.264,177.824 580.336,176.928 578.576,176.928 L575.6,176.928 L575.6,181.312 Z M587.76,175.84 C587.76,170.816 591.184,167.296 596.08,167.296 C600.752,167.296 603.312,170.72 603.312,175.04 C603.312,175.552 603.248,176.096 603.184,176.608 L591.952,176.608 C592.208,179.456 594.384,180.928 596.848,180.928 C598.512,180.928 600.208,180.192 601.52,179.136 L603.12,182.048 C601.456,183.52 598.896,184.384 596.56,184.384 C591.152,184.384 587.76,180.48 587.76,175.84 Z M592.048,173.824 L599.248,173.824 C599.216,171.648 597.808,170.368 595.984,170.368 C593.904,170.368 592.432,171.744 592.048,173.824 Z M605.712,175.84 C605.712,180.576 609.168,184.384 614.576,184.384 C617.2,184.384 619.76,183.36 621.296,181.728 L619.728,178.848 C618.512,180.032 616.656,180.928 614.928,180.928 C611.792,180.928 609.84,178.56 609.84,175.808 C609.84,173.024 611.792,170.752 614.8,170.752 C616.4,170.752 618,171.488 619.024,172.512 L620.848,169.728 C619.28,168.032 616.784,167.296 614.576,167.296 C609.168,167.296 605.712,171.2 605.712,175.84 Z M628.048,184 L632.08,184 L632.08,171.136 L637.488,171.136 L637.488,167.68 L622.672,167.68 L622.672,171.136 L628.048,171.136 L628.048,184 Z M638.832,175.84 C638.832,170.848 642.832,167.296 647.76,167.296 C652.752,167.296 656.752,170.848 656.752,175.84 C656.752,180.864 652.752,184.384 647.792,184.384 C642.832,184.384 638.832,180.864 638.832,175.84 Z M642.96,175.84 C642.96,178.88 645.136,180.928 647.792,180.928 C650.448,180.928 652.656,178.88 652.656,175.84 C652.656,172.832 650.448,170.752 647.792,170.752 C645.136,170.752 642.96,172.832 642.96,175.84 Z M664.463035,169.192326 L663.824,168.868878 L663.824,168.896 C663.824,169.504 663.76,170.048 663.76,170.048 L663.824,170.048 C664.009615,169.738642 664.223901,169.453012 664.463035,169.192326 Z M663.824,168.868878 L664.463035,169.192326 C665.584382,167.969918 667.252104,167.296 669.072,167.296 C673.488,167.296 676.304,170.784 676.304,175.84 C676.304,181.024 673.136,184.384 668.848,184.384 C666.992,184.384 665.296,183.552 664.144,182.08 L664.08,182.08 C664.08,182.08 664.176,182.656 664.176,183.488 L664.176,190.4 L660.112,190.4 L660.112,167.68 L663.824,167.68 L663.824,168.868878 Z M664.048,175.936 C664.048,178.464 665.456,180.96 668.112,180.96 C670.352,180.96 672.208,179.136 672.208,175.904 C672.208,172.8 670.544,170.784 668.176,170.784 C666.032,170.784 664.048,172.32 664.048,175.936 Z" id="Инвестор" fill="#303498"></path>
            <path d="M748.308,622 L748.308,599.408 L756.212,599.408 C760.052,599.408 762.772,601.52 762.772,605.168 C762.772,607.376 761.684,609.136 759.956,610.032 L759.956,610.096 C762.356,610.8 763.7,613.04 763.7,615.568 C763.7,619.824 760.372,622 756.404,622 L748.308,622 Z M751.476,608.912 L756.212,608.912 C758.26,608.912 759.54,607.472 759.54,605.488 C759.54,603.504 758.324,602.16 756.18,602.16 L751.476,602.16 L751.476,608.912 Z M751.476,619.248 L756.564,619.248 C758.996,619.248 760.436,617.712 760.436,615.376 C760.436,613.104 758.932,611.536 756.564,611.536 L751.476,611.536 L751.476,619.248 Z M782.196,622 L785.3,622 L785.3,605.808 L782.196,605.808 L782.196,622 Z M767.54,622 L767.54,605.808 L770.644,605.808 L770.644,611.664 L773.812,611.664 C777.172,611.664 779.7,613.2 779.7,616.88 C779.7,619.92 777.844,622 773.78,622 L767.54,622 Z M770.644,619.76 L773.364,619.76 C775.604,619.76 776.564,618.544 776.564,616.848 C776.564,615.12 775.572,613.904 773.332,613.904 L770.644,613.904 L770.644,619.76 Z M790.1,622 L793.204,622 L793.204,608.464 L801.14,608.464 L801.14,622 L804.244,622 L804.244,605.808 L790.1,605.808 L790.1,622 Z M807.284,622.16 C812.052,621.904 813.908,618.128 813.908,610.8 L813.908,608.368 L818.676,608.368 L818.676,622 L821.78,622 L821.78,605.808 L810.932,605.808 L810.932,610.8 C810.932,616.656 809.652,619.024 807.284,619.376 L807.284,622.16 Z M825.236,617.584 C825.236,612.496 831.54,611.92 834.9,611.92 L835.732,611.92 L835.732,611.6 C835.732,608.944 834.196,608.048 832.18,608.048 C830.58,608.048 828.948,608.688 827.636,609.616 L826.388,607.344 C827.7,606.256 830.164,605.424 832.436,605.424 C836.5,605.424 838.836,607.664 838.836,611.76 L838.836,622 L835.924,622 L835.924,620.368 C835.924,619.632 836.02,619.088 836.02,619.088 L835.956,619.088 C835.028,620.944 833.044,622.384 830.644,622.384 C827.828,622.384 825.236,620.624 825.236,617.584 Z M828.34,617.328 C828.34,618.608 829.364,619.92 831.38,619.92 C834.1,619.92 835.732,617.168 835.732,614.768 L835.732,614.16 L834.932,614.16 C832.628,614.16 828.34,614.352 828.34,617.328 Z M847.828,616.368 C849.428,616.368 851.188,615.824 852.212,615.184 L852.276,615.184 C852.276,615.184 852.244,615.696 852.244,616.144 L852.244,622 L855.348,622 L855.348,605.808 L852.244,605.808 L852.244,612.528 C851.572,613.008 850.26,613.68 848.66,613.68 C846.004,613.68 845.428,612.24 845.428,610.64 L845.428,605.808 L842.388,605.808 L842.388,611.088 C842.388,614.544 844.372,616.368 847.828,616.368 Z M860.148,622 L863.124,622 L870.132,612.336 C870.644,611.568 871.444,610.48 871.54,610.192 L871.604,610.192 C871.604,610.448 871.508,611.568 871.508,612.336 L871.508,622 L874.516,622 L874.516,605.808 L871.508,605.808 L864.532,615.472 C863.988,616.24 863.22,617.36 863.092,617.648 L863.028,617.648 C863.06,617.488 863.124,616.336 863.124,615.472 L863.124,605.808 L860.148,605.808 L860.148,622 Z M879.284,622 L879.284,605.808 L885.972,605.808 C889.236,605.808 891.38,607.248 891.38,609.968 C891.38,611.536 890.548,612.88 889.076,613.52 L889.076,613.552 C891.092,614.032 892.148,615.6 892.148,617.392 C892.148,620.4 889.716,622 886.196,622 L879.284,622 Z M882.388,612.656 L885.428,612.656 C887.284,612.656 888.212,611.696 888.212,610.192 C888.212,608.72 887.284,607.952 885.332,607.952 L882.388,607.952 L882.388,612.656 Z M882.388,619.824 L885.716,619.824 C887.956,619.824 889.012,618.8 889.012,617.296 C889.012,615.696 887.828,614.736 885.684,614.736 L882.388,614.736 L882.388,619.824 Z M894.58,617.584 C894.58,612.496 900.884,611.92 904.244,611.92 L905.076,611.92 L905.076,611.6 C905.076,608.944 903.54,608.048 901.524,608.048 C899.924,608.048 898.292,608.688 896.98,609.616 L895.732,607.344 C897.044,606.256 899.508,605.424 901.78,605.424 C905.844,605.424 908.18,607.664 908.18,611.76 L908.18,622 L905.268,622 L905.268,620.368 C905.268,619.632 905.364,619.088 905.364,619.088 L905.3,619.088 C904.372,620.944 902.388,622.384 899.988,622.384 C897.172,622.384 894.58,620.624 894.58,617.584 Z M897.684,617.328 C897.684,618.608 898.708,619.92 900.724,619.92 C903.444,619.92 905.076,617.168 905.076,614.768 L905.076,614.16 L904.276,614.16 C901.972,614.16 897.684,614.352 897.684,617.328 Z M911.7,613.904 C911.7,608.752 915.22,605.424 919.828,605.424 C924.404,605.424 926.836,608.848 926.836,613.008 C926.836,613.424 926.772,613.872 926.708,614.32 L914.932,614.32 C915.092,617.808 917.588,619.696 920.5,619.696 C922.228,619.696 923.988,618.96 925.268,617.808 L926.58,620.08 C925.012,621.52 922.548,622.384 920.308,622.384 C915.22,622.384 911.7,618.704 911.7,613.904 Z M915.028,612.08 L923.7,612.08 C923.604,609.296 921.876,607.824 919.764,607.824 C917.364,607.824 915.476,609.392 915.028,612.08 Z M934.292,622 L937.364,622 L937.364,608.464 L943.028,608.464 L943.028,605.808 L928.66,605.808 L928.66,608.464 L934.292,608.464 L934.292,622 Z M750.788,672 L750.788,655.808 L757.476,655.808 C760.74,655.808 762.884,657.248 762.884,659.968 C762.884,661.536 762.052,662.88 760.58,663.52 L760.58,663.552 C762.596,664.032 763.652,665.6 763.652,667.392 C763.652,670.4 761.22,672 757.7,672 L750.788,672 Z M753.892,662.656 L756.932,662.656 C758.788,662.656 759.716,661.696 759.716,660.192 C759.716,658.72 758.788,657.952 756.836,657.952 L753.892,657.952 L753.892,662.656 Z M753.892,669.824 L757.22,669.824 C759.46,669.824 760.516,668.8 760.516,667.296 C760.516,665.696 759.332,664.736 757.188,664.736 L753.892,664.736 L753.892,669.824 Z M766.372,663.872 C766.372,658.976 770.276,655.424 775.076,655.424 C779.908,655.424 783.812,658.976 783.812,663.872 C783.812,668.8 779.908,672.384 775.108,672.384 C770.276,672.384 766.372,668.8 766.372,663.872 Z M769.54,663.872 C769.54,667.264 772.036,669.696 775.108,669.696 C778.148,669.696 780.676,667.264 780.676,663.872 C780.676,660.512 778.148,658.112 775.108,658.112 C772.036,658.112 769.54,660.512 769.54,663.872 Z M785.604,670.016 C786.948,671.296 789.06,672.384 791.556,672.384 C794.884,672.384 797.764,670.688 797.764,667.36 C797.764,665.28 796.484,664.064 794.852,663.552 L794.852,663.488 C796.132,662.944 797.22,661.824 797.22,659.808 C797.22,656.928 794.82,655.424 791.748,655.424 C789.188,655.424 787.364,656.256 786.116,657.184 L787.268,659.264 C788.516,658.336 789.796,657.856 791.204,657.856 C792.996,657.856 794.084,658.688 794.084,660.192 C794.084,661.824 792.836,662.528 791.012,662.528 L789.316,662.528 L789.316,664.768 L791.3,664.768 C793.572,664.768 794.628,665.664 794.628,667.232 C794.628,668.992 793.124,669.888 791.268,669.888 C789.316,669.888 787.78,668.736 787.044,667.968 L785.604,670.016 Z M800.836,672 L803.844,672 L804.548,662.368 C804.612,661.408 804.516,659.584 804.516,659.584 L804.58,659.584 C804.58,659.584 805.092,660.8 805.604,661.984 L809.444,670.048 L812.1,670.048 L815.94,661.952 C816.548,660.704 816.964,659.584 816.964,659.584 L817.028,659.584 C817.028,659.584 816.964,661.408 816.996,662.368 L817.7,672 L820.708,672 L819.3,655.808 L815.908,655.808 L811.684,664.96 C811.268,665.952 810.788,667.136 810.788,667.136 L810.724,667.136 C810.724,667.136 810.276,665.92 809.828,664.96 L805.7,655.808 L802.244,655.808 L800.836,672 Z M823.812,663.904 C823.812,658.752 827.332,655.424 831.94,655.424 C836.516,655.424 838.948,658.848 838.948,663.008 C838.948,663.424 838.884,663.872 838.82,664.32 L827.044,664.32 C827.204,667.808 829.7,669.696 832.612,669.696 C834.34,669.696 836.1,668.96 837.38,667.808 L838.692,670.08 C837.124,671.52 834.66,672.384 832.42,672.384 C827.332,672.384 823.812,668.704 823.812,663.904 Z M827.14,662.08 L835.812,662.08 C835.716,659.296 833.988,657.824 831.876,657.824 C829.476,657.824 827.588,659.392 827.14,662.08 Z M842.692,672 L863.076,672 L863.076,675.84 L865.924,675.84 L865.924,669.312 L863.62,669.312 L863.62,655.808 L860.644,655.808 L860.644,669.312 L854.66,669.312 L854.66,655.808 L851.652,655.808 L851.652,669.312 L845.668,669.312 L845.668,655.808 L842.692,655.808 L842.692,672 Z M867.972,663.904 C867.972,658.752 871.492,655.424 876.1,655.424 C880.676,655.424 883.108,658.848 883.108,663.008 C883.108,663.424 883.044,663.872 882.98,664.32 L871.204,664.32 C871.364,667.808 873.86,669.696 876.772,669.696 C878.5,669.696 880.26,668.96 881.54,667.808 L882.852,670.08 C881.284,671.52 878.82,672.384 876.58,672.384 C871.492,672.384 867.972,668.704 867.972,663.904 Z M871.3,662.08 L879.972,662.08 C879.876,659.296 878.148,657.824 876.036,657.824 C873.636,657.824 871.748,659.392 871.3,662.08 Z M886.852,672 L889.956,672 L889.956,665.056 L898.148,665.056 L898.148,672 L901.252,672 L901.252,655.808 L898.148,655.808 L898.148,662.4 L889.956,662.4 L889.956,655.808 L886.852,655.808 L886.852,672 Z M906.052,672 L909.028,672 L916.036,662.336 C916.548,661.568 917.348,660.48 917.444,660.192 L917.508,660.192 C917.508,660.448 917.412,661.568 917.412,662.336 L917.412,672 L920.42,672 L920.42,655.808 L917.412,655.808 L910.436,665.472 C909.892,666.24 909.124,667.36 908.996,667.648 L908.932,667.648 C908.964,667.488 909.028,666.336 909.028,665.472 L909.028,655.808 L906.052,655.808 L906.052,672 Z M924.132,663.904 C924.132,658.752 927.652,655.424 932.26,655.424 C936.836,655.424 939.268,658.848 939.268,663.008 C939.268,663.424 939.204,663.872 939.14,664.32 L927.364,664.32 C927.524,667.808 930.02,669.696 932.932,669.696 C934.66,669.696 936.42,668.96 937.7,667.808 L939.012,670.08 C937.444,671.52 934.98,672.384 932.74,672.384 C927.652,672.384 924.132,668.704 924.132,663.904 Z M927.46,662.08 L936.132,662.08 C936.036,659.296 934.308,657.824 932.196,657.824 C929.796,657.824 927.908,659.392 927.46,662.08 Z M766.612,722 L766.612,705.808 L773.3,705.808 C776.564,705.808 778.708,707.248 778.708,709.968 C778.708,711.536 777.876,712.88 776.404,713.52 L776.404,713.552 C778.42,714.032 779.476,715.6 779.476,717.392 C779.476,720.4 777.044,722 773.524,722 L766.612,722 Z M769.716,712.656 L772.756,712.656 C774.612,712.656 775.54,711.696 775.54,710.192 C775.54,708.72 774.612,707.952 772.66,707.952 L769.716,707.952 L769.716,712.656 Z M769.716,719.824 L773.044,719.824 C775.284,719.824 776.34,718.8 776.34,717.296 C776.34,715.696 775.156,714.736 773.012,714.736 L769.716,714.736 L769.716,719.824 Z M791.828,722 L791.828,699.408 L799.732,699.408 C803.572,699.408 806.292,701.52 806.292,705.168 C806.292,707.376 805.204,709.136 803.476,710.032 L803.476,710.096 C805.876,710.8 807.22,713.04 807.22,715.568 C807.22,719.824 803.892,722 799.924,722 L791.828,722 Z M794.996,708.912 L799.732,708.912 C801.78,708.912 803.06,707.472 803.06,705.488 C803.06,703.504 801.844,702.16 799.7,702.16 L794.996,702.16 L794.996,708.912 Z M794.996,719.248 L800.084,719.248 C802.516,719.248 803.956,717.712 803.956,715.376 C803.956,713.104 802.452,711.536 800.084,711.536 L794.996,711.536 L794.996,719.248 Z M816.34,722 L819.476,722 L819.476,702.16 L827.252,702.16 L827.252,699.408 L808.564,699.408 L808.564,702.16 L816.34,702.16 L816.34,722 Z M828.404,710.576 C828.404,717.2 832.98,722.384 839.988,722.384 C843.988,722.384 846.804,720.72 848.724,718.8 L847.028,716.528 C845.204,718.352 842.612,719.472 840.084,719.472 C834.836,719.472 831.668,715.344 831.668,710.544 C831.668,705.776 834.772,701.904 840.02,701.904 C842.356,701.904 844.884,702.896 846.548,704.368 L848.148,702 C845.972,699.92 842.804,699.024 839.892,699.024 C833.172,699.024 828.404,704.016 828.404,710.576 Z M850.964,723.344 L853.716,723.344 L861.844,698.192 L859.092,698.192 L850.964,723.344 Z M866.036,722 L879.732,722 L879.732,719.248 L869.204,719.248 L869.204,711.984 L877.3,711.984 L877.3,709.232 L869.204,709.232 L869.204,702.16 L879.188,702.16 L879.188,699.408 L866.036,699.408 L866.036,722 Z M889.364,722 L892.5,722 L892.5,702.16 L900.276,702.16 L900.276,699.408 L881.588,699.408 L881.588,702.16 L889.364,702.16 L889.364,722 Z M903.764,722 L906.932,722 L906.932,712.08 L918.676,712.08 L918.676,722 L921.812,722 L921.812,699.408 L918.676,699.408 L918.676,709.328 L906.932,709.328 L906.932,699.408 L903.764,699.408 L903.764,722 Z" id="3.-Выплачивает-возме" fill="#181920"></path>
            <path d="M832.932,569.312 C834.852,571.296 837.604,572.384 840.26,572.384 C844.9,572.384 847.94,568.992 847.94,565.152 C847.94,560.736 844.292,558.816 841.316,558.528 L847.46,551.424 L847.46,549.408 L833.956,549.408 L833.956,552.16 L841.604,552.16 C842.852,552.16 843.524,552.064 843.524,552.064 L843.524,552.128 C843.524,552.128 842.82,552.704 842.116,553.6 L837.188,559.392 L837.924,561.088 L839.46,561.088 C842.276,561.088 844.74,562.464 844.74,565.248 C844.74,567.68 842.628,569.376 840.132,569.376 C837.956,569.376 835.876,568.224 834.66,566.912 L832.932,569.312 Z" id="Path" fill-opacity="0.5" fill="#181920"></path>
            <polygon id="Path" fill-opacity="0.5" fill="#181920" points="851.908 572 855.236 572 855.236 568.64 851.908 568.64"></polygon>
            <g id="arrow" transform="translate(702.000000, 163.000000)" stroke="#303498" stroke-width="2" stroke-linecap="round" stroke-linejoin="round">
                <path d="M91.515736,727 C124.526227,706.333333 141.031472,662.095355 141.031472,594.286064 M141.031472,354.311632 C140.99501,276.763521 140.98452,210.82631 141,156.5 C141.023221,75.0105352 96.6935718,10 2,10" id="Path-10"></path>
                <polyline id="Line-2" transform="translate(5.000000, 10.000000) rotate(-90.000000) translate(-5.000000, -10.000000) " points="-5 15 5.07852624 5 15 15"></polyline>
            </g>
            <g id="Group" transform="translate(414.000000, 313.000000) scale(-1, 1) translate(-414.000000, -313.000000) translate(328.000000, 173.000000)" stroke="#303498" stroke-width="2" stroke-linecap="round" stroke-linejoin="round">
                <polyline id="Line-2" transform="translate(162.000000, 275.000000) rotate(-180.000000) translate(-162.000000, -275.000000) " points="152 280 162.078526 270 172 280"></polyline>
                <path d="M0,2.5243549e-29 L0,2.5243549e-29 L-2.97577786e-14,2.5243549e-29 C89.4723929,-1.64358119e-14 162.004098,72.5317054 162.004098,162.004098 L162.004098,279.137034" id="Path-9"></path>
            </g>
            <path d="M28,57 L28,202 M28,252 L28,397" id="Line-2" stroke="#303498" stroke-width="2" stroke-linecap="round" stroke-linejoin="round"></path>
            <g id="Group-6" transform="translate(10.000000, 215.000000)" fill-rule="nonzero" fill="#303498">
                <g id="message">
                    <path d="M19.5287143,14.028 L34.0238571,0 L1.97614286,0 L16.47,14.028 C17.3275714,14.86 18.6724286,14.86 19.5287143,14.028 Z" id="Shape"></path>
                    <polygon id="Shape" points="10.1648571 11.5733333 0 1.73466667 0 22.1146667"></polygon>
                    <polygon id="Shape" points="25.8351429 11.5733333 36 22.1146667 36 1.73466667"></polygon>
                    <path d="M23.9541429,13.3933333 L21.2837143,15.9773333 C20.3618571,16.8693333 19.1802857,17.3146667 17.9987143,17.3146667 C16.8171429,17.3146667 15.6355714,16.8693333 14.7137143,15.9773333 L12.0432857,13.3933333 L1.818,24 L34.182,24 L23.9541429,13.3933333 Z" id="Shape"></path>
                </g>
            </g>
            <circle id="Oval-Copy-2" stroke="#F6F6F9" stroke-width="4" cx="650" cy="701" r="8"></circle>
            <path d="M653.44,932.544 C653.44,939.232 658.048,944.384 665.184,944.384 C669.248,944.384 672.16,942.688 674.112,940.704 L671.936,937.728 C670.208,939.424 667.776,940.608 665.344,940.608 C660.416,940.608 657.696,936.736 657.696,932.48 C657.696,928.288 660.32,924.672 665.312,924.672 C667.52,924.672 669.92,925.696 671.52,927.072 L673.504,924 C671.296,921.856 668.096,920.896 665.12,920.896 C658.272,920.896 653.44,925.952 653.44,932.544 Z M680.192,944 L684.224,944 L684.224,931.136 L689.632,931.136 L689.632,927.68 L674.816,927.68 L674.816,931.136 L680.192,931.136 L680.192,944 Z M696.735035,929.192326 L696.096,928.868878 L696.096,928.896 C696.096,929.504 696.032,930.048 696.032,930.048 L696.096,930.048 C696.281615,929.738642 696.495901,929.453012 696.735035,929.192326 Z M696.096,928.868878 L696.735035,929.192326 C697.856382,927.969918 699.524104,927.296 701.344,927.296 C705.76,927.296 708.576,930.784 708.576,935.84 C708.576,941.024 705.408,944.384 701.12,944.384 C699.264,944.384 697.568,943.552 696.416,942.08 L696.352,942.08 C696.352,942.08 696.448,942.656 696.448,943.488 L696.448,950.4 L692.384,950.4 L692.384,927.68 L696.096,927.68 L696.096,928.868878 Z M696.32,935.936 C696.32,938.464 697.728,940.96 700.384,940.96 C702.624,940.96 704.48,939.136 704.48,935.904 C704.48,932.8 702.816,930.784 700.448,930.784 C698.304,930.784 696.32,932.32 696.32,935.936 Z M710.784,939.488 C710.784,934.592 716.672,933.76 720.288,933.76 L720.992,933.76 L720.992,933.536 C720.992,931.392 719.616,930.656 717.92,930.656 C716.32,930.656 714.688,931.328 713.376,932.224 L711.872,929.312 C713.216,928.224 715.84,927.296 718.272,927.296 C722.528,927.296 725.056,929.664 725.056,933.792 L725.056,944 L721.28,944 L721.28,942.624 C721.28,941.952 721.376,941.44 721.376,941.44 L721.312,941.44 C720.32,943.168 718.368,944.384 716.16,944.384 C713.216,944.384 710.784,942.464 710.784,939.488 Z M714.816,939.136 C714.816,940.224 715.648,941.28 717.28,941.28 C719.552,941.28 721.024,938.976 721.024,936.992 L721.024,936.544 L720.32,936.544 C718.272,936.544 714.816,936.832 714.816,939.136 Z M727.488,944 L732,944 L734.816,939.264 C735.04,938.912 735.264,938.4 735.264,938.4 L735.328,938.4 C735.328,938.4 735.584,938.912 735.808,939.264 L738.624,944 L743.168,944 L737.76,935.744 L743.008,927.68 L738.4,927.68 L735.872,932.128 C735.648,932.544 735.328,933.152 735.328,933.152 L735.264,933.152 C735.264,933.152 734.976,932.544 734.752,932.128 L732.224,927.68 L727.616,927.68 L732.864,935.744 L727.488,944 Z M744.224,935.84 C744.224,930.848 748.224,927.296 753.152,927.296 C758.144,927.296 762.144,930.848 762.144,935.84 C762.144,940.864 758.144,944.384 753.184,944.384 C748.224,944.384 744.224,940.864 744.224,935.84 Z M748.352,935.84 C748.352,938.88 750.528,940.928 753.184,940.928 C755.84,940.928 758.048,938.88 758.048,935.84 C758.048,932.832 755.84,930.752 753.184,930.752 C750.528,930.752 748.352,932.832 748.352,935.84 Z M765.504,944 L765.504,927.68 L773.088,927.68 C776.384,927.68 778.592,929.152 778.592,931.904 C778.592,933.408 777.824,934.816 776.448,935.488 L776.448,935.52 C778.4,936.032 779.328,937.632 779.328,939.264 C779.328,942.528 776.672,944 773.248,944 L765.504,944 Z M769.568,934.4 L772.224,934.4 C773.76,934.4 774.496,933.504 774.496,932.256 C774.496,931.072 773.76,930.336 772.16,930.336 L769.568,930.336 L769.568,934.4 Z M769.568,941.312 L772.544,941.312 C774.368,941.312 775.232,940.384 775.232,939.136 C775.232,937.824 774.304,936.928 772.544,936.928 L769.568,936.928 L769.568,941.312 Z M781.728,935.84 C781.728,930.848 785.728,927.296 790.656,927.296 C795.648,927.296 799.648,930.848 799.648,935.84 C799.648,940.864 795.648,944.384 790.688,944.384 C785.728,944.384 781.728,940.864 781.728,935.84 Z M785.856,935.84 C785.856,938.88 788.032,940.928 790.688,940.928 C793.344,940.928 795.552,938.88 795.552,935.84 C795.552,932.832 793.344,930.752 790.688,930.752 C788.032,930.752 785.856,932.832 785.856,935.84 Z M810.528,926.112 C813.312,926.112 815.776,924.512 815.776,921.696 L815.776,921.28 L812.704,921.28 L812.704,921.664 C812.704,923.072 811.584,923.712 810.528,923.712 C809.472,923.712 808.384,923.072 808.384,921.696 L808.384,921.28 L805.28,921.28 L805.28,921.696 C805.28,924.512 807.744,926.112 810.528,926.112 Z M803.008,944 L806.944,944 L812.992,935.296 C813.408,934.656 814.016,933.792 814.208,933.344 L814.272,933.344 C814.24,933.76 814.176,934.688 814.176,935.296 L814.176,944 L818.048,944 L818.048,927.68 L814.112,927.68 L808.064,936.416 C807.648,937.056 807.04,937.952 806.848,938.368 L806.784,938.368 C806.816,938.112 806.88,937.152 806.88,936.416 L806.88,927.68 L803.008,927.68 L803.008,944 Z M834.751035,929.192326 L834.112,928.868878 L834.112,928.896 C834.112,929.504 834.048,930.048 834.048,930.048 L834.112,930.048 C834.297615,929.738642 834.511901,929.453012 834.751035,929.192326 Z M834.112,928.868878 L834.751035,929.192326 C835.872382,927.969918 837.540104,927.296 839.36,927.296 C843.776,927.296 846.592,930.784 846.592,935.84 C846.592,941.024 843.424,944.384 839.136,944.384 C837.28,944.384 835.584,943.552 834.432,942.08 L834.368,942.08 C834.368,942.08 834.464,942.656 834.464,943.488 L834.464,950.4 L830.4,950.4 L830.4,927.68 L834.112,927.68 L834.112,928.868878 Z M834.336,935.936 C834.336,938.464 835.744,940.96 838.4,940.96 C840.64,940.96 842.496,939.136 842.496,935.904 C842.496,932.8 840.832,930.784 838.464,930.784 C836.32,930.784 834.336,932.32 834.336,935.936 Z M849.056,935.84 C849.056,930.816 852.48,927.296 857.376,927.296 C862.048,927.296 864.608,930.72 864.608,935.04 C864.608,935.552 864.544,936.096 864.48,936.608 L853.248,936.608 C853.504,939.456 855.68,940.928 858.144,940.928 C859.808,940.928 861.504,940.192 862.816,939.136 L864.416,942.048 C862.752,943.52 860.192,944.384 857.856,944.384 C852.448,944.384 849.056,940.48 849.056,935.84 Z M853.344,933.824 L860.544,933.824 C860.512,931.648 859.104,930.368 857.28,930.368 C855.2,930.368 853.728,931.744 853.344,933.824 Z M866.528,941.984 C868.032,943.392 870.368,944.384 872.832,944.384 C876.384,944.384 879.264,942.656 879.264,939.264 C879.264,937.248 877.984,936.064 876.512,935.52 L876.512,935.456 C877.664,934.912 878.752,933.792 878.752,931.776 C878.752,928.896 876.224,927.296 873.024,927.296 C870.304,927.296 868.352,928.128 867.008,929.12 L868.32,931.712 C869.76,930.752 871.04,930.368 872.256,930.368 C873.888,930.368 874.688,931.104 874.688,932.32 C874.688,933.696 873.6,934.208 872.16,934.208 L870.496,934.208 L870.496,937.024 L872.48,937.024 C874.432,937.024 875.2,937.792 875.2,939.04 C875.2,940.416 874.112,941.248 872.384,941.248 C870.688,941.248 869.12,940.224 868.256,939.392 L866.528,941.984 Z M881.664,935.84 C881.664,930.816 885.088,927.296 889.984,927.296 C894.656,927.296 897.216,930.72 897.216,935.04 C897.216,935.552 897.152,936.096 897.088,936.608 L885.856,936.608 C886.112,939.456 888.288,940.928 890.752,940.928 C892.416,940.928 894.112,940.192 895.424,939.136 L897.024,942.048 C895.36,943.52 892.8,944.384 890.464,944.384 C885.056,944.384 881.664,940.48 881.664,935.84 Z M885.952,933.824 L893.152,933.824 C893.12,931.648 891.712,930.368 889.888,930.368 C887.808,930.368 886.336,931.744 885.952,933.824 Z M904.959035,929.192326 L904.32,928.868878 L904.32,928.896 C904.32,929.504 904.256,930.048 904.256,930.048 L904.32,930.048 C904.505615,929.738642 904.719901,929.453012 904.959035,929.192326 Z M904.32,928.868878 L904.959035,929.192326 C906.080382,927.969918 907.748104,927.296 909.568,927.296 C913.984,927.296 916.8,930.784 916.8,935.84 C916.8,941.024 913.632,944.384 909.344,944.384 C907.488,944.384 905.792,943.552 904.64,942.08 L904.576,942.08 C904.576,942.08 904.672,942.656 904.672,943.488 L904.672,950.4 L900.608,950.4 L900.608,927.68 L904.32,927.68 L904.32,928.868878 Z M904.544,935.936 C904.544,938.464 905.952,940.96 908.608,940.96 C910.848,940.96 912.704,939.136 912.704,935.904 C912.704,932.8 911.04,930.784 908.672,930.784 C906.528,930.784 904.544,932.32 904.544,935.936 Z M920.256,944 L920.256,927.68 L927.84,927.68 C931.136,927.68 933.344,929.152 933.344,931.904 C933.344,933.408 932.576,934.816 931.2,935.488 L931.2,935.52 C933.152,936.032 934.08,937.632 934.08,939.264 C934.08,942.528 931.424,944 928,944 L920.256,944 Z M924.32,934.4 L926.976,934.4 C928.512,934.4 929.248,933.504 929.248,932.256 C929.248,931.072 928.512,930.336 926.912,930.336 L924.32,930.336 L924.32,934.4 Z M924.32,941.312 L927.296,941.312 C929.12,941.312 929.984,940.384 929.984,939.136 C929.984,937.824 929.056,936.928 927.296,936.928 L924.32,936.928 L924.32,941.312 Z" id="Страховой-резерв" fill="#303498"></path>
            <path d="M611,334.104 L615.128,334.104 L615.128,311.384 L611,311.384 L611,334.104 Z M619.32,322.648 C619.32,329.336 623.928,334.488 631.064,334.488 C635.128,334.488 638.04,332.792 639.992,330.808 L637.816,327.832 C636.088,329.528 633.656,330.712 631.224,330.712 C626.296,330.712 623.576,326.84 623.576,322.584 C623.576,318.392 626.2,314.776 631.192,314.776 C633.4,314.776 635.8,315.8 637.4,317.176 L639.384,314.104 C637.176,311.96 633.976,311 631,311 C624.152,311 619.32,316.056 619.32,322.648 Z M641.624,322.584 C641.624,316.088 646.488,311 653.368,311 C660.248,311 665.112,316.088 665.112,322.584 C665.112,329.272 660.248,334.488 653.368,334.488 C646.488,334.488 641.624,329.272 641.624,322.584 Z M645.88,322.584 C645.88,327.192 649.016,330.712 653.368,330.712 C657.72,330.712 660.856,327.192 660.856,322.584 C660.856,318.168 657.72,314.776 653.368,314.776 C649.016,314.776 645.88,318.168 645.88,322.584 Z M673.816,334.104 L681.784,311.384 L686.136,311.384 L694.104,334.104 L689.88,334.104 L687.928,328.28 L679.96,328.28 L678.04,334.104 L673.816,334.104 Z M680.984,324.92 L686.904,324.92 L684.888,318.84 C684.504,317.56 683.992,315.32 683.992,315.32 L683.928,315.32 C683.928,315.32 683.416,317.56 683.032,318.84 L680.984,324.92 Z" id="ICO-A" fill="#FF674C"></path>
        </g>
    </g>
</svg>