<svg width="2240" height="2220" viewBox="0 0 2240 2220" version="1.1" xmlns="http://www.w3.org/2000/svg" xmlns:xlink="http://www.w3.org/1999/xlink">
<title>scheme-5</title>
<desc>Created using Figma</desc>
<g id="Canvas" transform="matrix(2 0 0 2 -542 -9170)">
<clipPath id="clip-0" clip-rule="evenodd">
<path d="M 271 4585L 1391 4585L 1391 5695L 271 5695L 271 4585Z" fill="#FFFFFF"/>
</clipPath>
<g id="scheme-5" clip-path="url(#clip-0)">
<g id="Group 3">
<clipPath id="clip-1" clip-rule="evenodd">
<path d="M 783.5 4585L 878.5 4585L 878.5 4657L 783.5 4657L 783.5 4585Z" fill="#FFFFFF"/>
</clipPath>
<g id="Group 4" clip-path="url(#clip-1)">
</g>
<g id="&#208;&#159;&#209;&#128;&#208;&#184;&#208;&#177;&#209;&#139;&#208;&#187;&#209;&#140;">
<use xlink:href="#path0_fill" transform="translate(763 5251)" fill="#FFFFFF"/>
</g>
<g id="&#208;&#159;&#209;&#128;&#208;&#184;&#208;&#177;&#209;&#139;&#208;&#187;&#209;&#140;">
<use xlink:href="#path1_fill" transform="translate(703 4599)" fill="#FFFFFF"/>
</g>
<g id="&#208;&#158;&#208;&#191;&#208;&#181;&#209;&#128;&#208;&#176;&#209;&#134;&#208;&#184;&#208;&#190;&#208;&#189;&#208;&#189;&#208;&#176;&#209;&#143; &#208;&#180;&#208;&#181;&#209;&#143;&#209;&#130;&#208;&#181;&#208;&#187;&#209;&#140;">
<use xlink:href="#path2_fill" transform="translate(716.5 5577)" fill="#FFFFFF"/>
</g>
<g id="Group 2">
<g id="Group">
<g id="&#208;&#152;&#208;&#189;&#208;&#178;&#208;&#181;&#209;&#129;&#209;&#130;&#208;&#184;&#209;&#134;&#208;&#184;&#208;&#184; &#208;&#178; &#208;&#177;&#209;&#139;&#209;&#129;&#209;&#130;&#209;&#128;&#208;&#190;&#208;&#187;">
<use xlink:href="#path3_fill" transform="translate(362.5 4931)" fill="#FFFFFF"/>
</g>
<g id="80%">
<use xlink:href="#path4_fill" transform="translate(463.5 4855)" fill="#FFFFFF"/>
</g>
</g>
</g>
<g id="Group">
<g id="&#208;&#160;&#208;&#181;&#208;&#183;&#208;&#181;&#209;&#128;&#208;&#178; &#208;&#180;&#208;&#187;&#209;&#143; &#209;&#129;&#209;&#130;&#209;&#128;&#208;&#176;&#209;&#133;&#208;&#190;&#208;&#178;&#209;&#139;&#209;&#133;">
<use xlink:href="#path5_fill" transform="translate(1033 4931)" fill="#FFFFFF"/>
</g>
<g id="20%">
<use xlink:href="#path6_fill" transform="translate(1099 4855)" fill="#FFFFFF"/>
</g>
</g>
<g id="arrow">
<g id="Path 10">
<use xlink:href="#path7_stroke" transform="matrix(6.12323e-17 -1 1 6.12323e-17 515 4834)" fill="#FF674C"/>
</g>
<g id="Line 2">
<use xlink:href="#path8_stroke" transform="matrix(-1 -1.22465e-16 1.22465e-16 -1 525 4835)" fill="#FF674C"/>
</g>
</g>
<g id="arrow">
<g id="Path 10">
<use xlink:href="#path9_stroke" transform="matrix(-1 -1.22465e-16 1.22465e-16 -1 743.5 5274.5)" fill="#FF674C"/>
</g>
<g id="Line 2">
<use xlink:href="#path8_stroke" transform="matrix(-1.83697e-16 1 -1 -1.83697e-16 743.5 5264.5)" fill="#FF674C"/>
</g>
</g>
<g id="arrow">
<g id="Path 10">
<use xlink:href="#path10_stroke" transform="matrix(1 -1.22465e-16 -1.22465e-16 -1 919.5 5274.5)" fill="#FF674C"/>
</g>
<g id="Line 2">
<use xlink:href="#path8_stroke" transform="matrix(-1 2.44929e-16 2.44929e-16 1 1157.5 5070.5)" fill="#FF674C"/>
</g>
</g>
<g id="arrow">
<g id="Path 10">
<use xlink:href="#path7_stroke" transform="matrix(-6.12323e-17 -1 -1 6.12323e-17 1148 4834)" fill="#FF674C"/>
</g>
<g id="Line 2">
<use xlink:href="#path8_stroke" transform="matrix(1 -1.22465e-16 -1.22465e-16 -1 1138 4835)" fill="#FF674C"/>
</g>
</g>
<g id="80% &#208;&#189;&#208;&#176; &#209;&#131;&#208;&#178;&#208;&#181;&#208;&#187;&#208;&#184;&#209;&#135;&#208;&#181;&#208;&#189;&#208;&#184;&#208;&#181; &#208;&#190;&#208;&#177;">
<use xlink:href="#path11_fill" transform="translate(954.5 5173)" fill="#FF674C"/>
</g>
<g id="Group">
<g id="Line 2">
<use xlink:href="#path8_stroke" transform="matrix(1 -3.67394e-16 -3.67394e-16 -1 822 5556)" fill="#FF674C"/>
</g>
<g id="Path 9">
<use xlink:href="#path12_stroke" transform="matrix(-1 2.44929e-16 2.44929e-16 1 832 5310)" fill="#FF674C"/>
</g>
</g>
<g id="20%">
<use xlink:href="#path13_fill" transform="translate(806 5417)" fill="#FF674C"/>
</g>
</g>
</g>
</g>
<defs>
<path id="path0_fill" d="M 3.30413 31L 6.47213 31L 6.47213 11.16L 17.9281 11.16L 17.9281 31L 21.0961 31L 21.0961 8.408L 3.30413 8.408L 3.30413 31ZM 26.2906 37.4L 29.3946 37.4L 29.3946 30.04C 29.3946 29.208 29.2666 28.632 29.2666 28.632L 29.3306 28.632C 30.4506 30.36 32.3066 31.384 34.3546 31.384C 38.6106 31.384 41.6826 28.056 41.6826 22.904C 41.6826 17.88 38.9626 14.424 34.5786 14.424C 32.2106 14.424 30.1626 15.512 29.1386 17.464L 29.0746 17.464C 29.0746 17.464 29.1706 16.92 29.1706 16.248L 29.1706 14.808L 26.2906 14.808L 26.2906 37.4ZM 29.2986 22.968C 29.2986 18.872 31.5386 17.144 33.9706 17.144C 36.6586 17.144 38.5466 19.416 38.5466 22.936C 38.5466 26.616 36.4346 28.696 33.8746 28.696C 30.8986 28.696 29.2986 25.848 29.2986 22.968ZM 45.5094 31L 48.4854 31L 55.4934 21.336C 56.0054 20.568 56.8054 19.48 56.9014 19.192L 56.9654 19.192C 56.9654 19.448 56.8694 20.568 56.8694 21.336L 56.8694 31L 59.8774 31L 59.8774 14.808L 56.8694 14.808L 49.8934 24.472C 49.3494 25.24 48.5814 26.36 48.4534 26.648L 48.3894 26.648C 48.4214 26.488 48.4854 25.336 48.4854 24.472L 48.4854 14.808L 45.5094 14.808L 45.5094 31ZM 63.9304 21.688C 63.9304 27.288 66.3944 31.384 71.8664 31.384C 76.4424 31.384 79.5144 28.184 79.5144 23.704C 79.5144 19.128 76.6984 16.248 72.6344 16.248C 70.4904 16.248 68.3464 16.952 66.9064 19.128L 66.8424 19.128C 67.0664 16.024 68.6024 14.136 71.8344 12.664L 78.0424 10.072L 77.0184 7.512L 71.2264 10.008C 65.5944 12.376 63.9304 15.896 63.9304 21.688ZM 67.1624 23.704C 67.1624 20.856 69.1144 18.712 71.8664 18.712C 74.2984 18.712 76.3784 20.6 76.3784 23.768C 76.3784 26.904 74.2984 28.76 71.7384 28.76C 69.2424 28.76 67.1624 26.904 67.1624 23.704ZM 98.0404 31L 101.144 31L 101.144 14.808L 98.0404 14.808L 98.0404 31ZM 83.3844 31L 89.6244 31C 93.6884 31 95.5444 28.92 95.5444 25.88C 95.5444 22.2 93.0164 20.664 89.6564 20.664L 86.4884 20.664L 86.4884 14.808L 83.3844 14.808L 83.3844 31ZM 86.4884 28.76L 86.4884 22.904L 89.1764 22.904C 91.4164 22.904 92.4084 24.12 92.4084 25.848C 92.4084 27.544 91.4484 28.76 89.2084 28.76L 86.4884 28.76ZM 104.187 31.16C 108.955 30.904 110.811 27.128 110.811 19.8L 110.811 17.368L 115.579 17.368L 115.579 31L 118.683 31L 118.683 14.808L 107.835 14.808L 107.835 19.8C 107.835 25.656 106.555 28.024 104.187 28.376L 104.187 31.16ZM 123.478 31L 129.782 31C 133.878 31 135.734 28.92 135.734 25.88C 135.734 22.2 133.206 20.664 129.846 20.664L 126.582 20.664L 126.582 14.808L 123.478 14.808L 123.478 31ZM 126.582 28.76L 126.582 22.904L 129.366 22.904C 131.606 22.904 132.566 24.12 132.566 25.848C 132.566 27.544 131.606 28.76 129.366 28.76L 126.582 28.76Z"/>
<path id="path1_fill" d="M 3.44475 31L 6.61275 31L 6.61275 22.648L 11.7327 22.648C 15.8607 22.648 18.8048 19.768 18.8048 15.48C 18.8048 11.192 15.8607 8.408 11.7327 8.408L 3.44475 8.408L 3.44475 31ZM 6.61275 19.896L 6.61275 11.16L 11.2528 11.16C 13.9087 11.16 15.6048 12.792 15.6048 15.48C 15.6048 18.2 13.9087 19.896 11.2208 19.896L 6.61275 19.896ZM 20.6565 22.904C 20.6565 27.704 24.1765 31.384 29.2645 31.384C 31.5045 31.384 33.9685 30.52 35.5365 29.08L 34.2245 26.808C 32.9445 27.96 31.1845 28.696 29.4565 28.696C 26.5445 28.696 24.0485 26.808 23.8885 23.32L 35.6645 23.32C 35.7285 22.872 35.7925 22.424 35.7925 22.008C 35.7925 17.848 33.3605 14.424 28.7845 14.424C 24.1765 14.424 20.6565 17.752 20.6565 22.904ZM 23.9845 21.08C 24.4325 18.392 26.3205 16.824 28.7205 16.824C 30.8325 16.824 32.5605 18.296 32.6565 21.08L 23.9845 21.08ZM 37.957 29.016C 39.301 30.296 41.413 31.384 43.909 31.384C 47.237 31.384 50.117 29.688 50.117 26.36C 50.117 24.28 48.837 23.064 47.205 22.552L 47.205 22.488C 48.485 21.944 49.573 20.824 49.573 18.808C 49.573 15.928 47.173 14.424 44.101 14.424C 41.541 14.424 39.717 15.256 38.469 16.184L 39.621 18.264C 40.869 17.336 42.149 16.856 43.557 16.856C 45.349 16.856 46.437 17.688 46.437 19.192C 46.437 20.824 45.189 21.528 43.365 21.528L 41.669 21.528L 41.669 23.768L 43.653 23.768C 45.925 23.768 46.981 24.664 46.981 26.232C 46.981 27.992 45.477 28.888 43.621 28.888C 41.669 28.888 40.133 27.736 39.397 26.968L 37.957 29.016ZM 52.8128 22.904C 52.8128 27.704 56.3327 31.384 61.4207 31.384C 63.6608 31.384 66.1248 30.52 67.6928 29.08L 66.3808 26.808C 65.1008 27.96 63.3407 28.696 61.6127 28.696C 58.7007 28.696 56.2047 26.808 56.0448 23.32L 67.8208 23.32C 67.8847 22.872 67.9488 22.424 67.9488 22.008C 67.9488 17.848 65.5168 14.424 60.9408 14.424C 56.3328 14.424 52.8128 17.752 52.8128 22.904ZM 56.1407 21.08C 56.5887 18.392 58.4768 16.824 60.8768 16.824C 62.9888 16.824 64.7167 18.296 64.8127 21.08L 56.1407 21.08ZM 71.6813 37.4L 74.7853 37.4L 74.7853 30.04C 74.7853 29.208 74.6573 28.632 74.6573 28.632L 74.7212 28.632C 75.8413 30.36 77.6972 31.384 79.7452 31.384C 84.0012 31.384 87.0733 28.056 87.0733 22.904C 87.0733 17.88 84.3533 14.424 79.9693 14.424C 77.6013 14.424 75.5533 15.512 74.5293 17.464L 74.4652 17.464C 74.4652 17.464 74.5613 16.92 74.5613 16.248L 74.5613 14.808L 71.6813 14.808L 71.6813 37.4ZM 74.6893 22.968C 74.6893 18.872 76.9292 17.144 79.3612 17.144C 82.0493 17.144 83.9373 19.416 83.9373 22.936C 83.9373 26.616 81.8252 28.696 79.2652 28.696C 76.2892 28.696 74.6893 25.848 74.6893 22.968ZM 90.9 31L 97.812 31C 101.332 31 103.764 29.4 103.764 26.392C 103.764 24.6 102.708 23.032 100.692 22.552L 100.692 22.52C 102.164 21.88 102.996 20.536 102.996 18.968C 102.996 16.248 100.852 14.808 97.588 14.808L 90.9 14.808L 90.9 31ZM 94.004 21.656L 94.004 16.952L 96.948 16.952C 98.9 16.952 99.828 17.72 99.828 19.192C 99.828 20.696 98.9 21.656 97.044 21.656L 94.004 21.656ZM 94.004 28.824L 94.004 23.736L 97.3 23.736C 99.444 23.736 100.628 24.696 100.628 26.296C 100.628 27.8 99.572 28.824 97.332 28.824L 94.004 28.824ZM 107.525 31L 110.629 31L 110.629 24.056L 118.821 24.056L 118.821 31L 121.925 31L 121.925 14.808L 118.821 14.808L 118.821 21.4L 110.629 21.4L 110.629 14.808L 107.525 14.808L 107.525 31ZM 141.369 31L 144.472 31L 144.472 14.808L 141.369 14.808L 141.369 31ZM 126.713 31L 132.952 31C 137.016 31 138.873 28.92 138.873 25.88C 138.873 22.2 136.344 20.664 132.984 20.664L 129.816 20.664L 129.816 14.808L 126.713 14.808L 126.713 31ZM 129.816 28.76L 129.816 22.904L 132.505 22.904C 134.745 22.904 135.737 24.12 135.737 25.848C 135.737 27.544 134.776 28.76 132.536 28.76L 129.816 28.76ZM 156.411 12.952C 158.907 12.952 161.147 11.48 161.147 8.856L 161.147 8.376L 158.683 8.376L 158.683 8.792C 158.683 10.232 157.531 10.936 156.411 10.936C 155.291 10.936 154.171 10.232 154.171 8.824L 154.171 8.376L 151.675 8.376L 151.675 8.856C 151.675 11.48 153.947 12.952 156.411 12.952ZM 149.275 31L 152.251 31L 159.259 21.336C 159.771 20.568 160.571 19.48 160.667 19.192L 160.731 19.192C 160.731 19.448 160.635 20.568 160.635 21.336L 160.635 31L 163.643 31L 163.643 14.808L 160.635 14.808L 153.659 24.472C 153.115 25.24 152.347 26.36 152.219 26.648L 152.155 26.648C 152.187 26.488 152.251 25.336 152.251 24.472L 152.251 14.808L 149.275 14.808L 149.275 31ZM 175.376 22.872C 175.376 27.864 179.12 31.16 184.144 31.384L 184.144 37.4L 187.12 37.4L 187.12 31.384C 192.144 31.16 195.856 27.864 195.856 22.872C 195.856 17.912 192.144 14.648 187.12 14.456L 187.12 8.6L 184.144 8.6L 184.144 14.456C 179.12 14.648 175.376 17.912 175.376 22.872ZM 187.12 28.792L 187.12 17.016C 190.416 17.208 192.816 19.352 192.816 22.872C 192.816 26.36 190.416 28.568 187.12 28.792ZM 178.448 22.872C 178.448 19.352 180.816 17.208 184.144 17.016L 184.144 28.792C 180.816 28.568 178.448 26.36 178.448 22.872ZM 198.563 22.872C 198.563 27.8 202.467 31.384 207.299 31.384C 212.099 31.384 216.003 27.8 216.003 22.872C 216.003 17.976 212.099 14.424 207.267 14.424C 202.467 14.424 198.563 17.976 198.563 22.872ZM 201.731 22.872C 201.731 19.512 204.227 17.112 207.299 17.112C 210.339 17.112 212.867 19.512 212.867 22.872C 212.867 26.264 210.339 28.696 207.299 28.696C 204.227 28.696 201.731 26.264 201.731 22.872ZM 219.744 31L 222.848 31L 222.848 24.056L 231.04 24.056L 231.04 31L 234.144 31L 234.144 14.808L 231.04 14.808L 231.04 21.4L 222.848 21.4L 222.848 14.808L 219.744 14.808L 219.744 31ZM 242.099 28.44C 244.147 25.24 244.403 20.632 244.403 18.2L 244.403 17.336L 249.267 17.336L 249.267 28.44L 242.099 28.44ZM 236.915 28.44L 236.915 34.84L 239.827 34.84L 239.827 31L 251.827 31L 251.827 34.84L 254.675 34.84L 254.675 28.44L 252.371 28.44L 252.371 14.808L 241.427 14.808L 241.427 17.784C 241.427 20.28 241.171 25.336 238.899 28.44L 236.915 28.44Z"/>
<path id="path2_fill" d="M 1.89612 19.544C 1.89612 26.2 6.98413 31.384 13.5121 31.384C 20.0401 31.384 25.0961 26.2 25.0961 19.544C 25.0961 13.048 20.0401 8.024 13.5121 8.024C 6.98413 8.024 1.89612 13.048 1.89612 19.544ZM 5.16012 19.544C 5.16012 14.648 8.87212 10.904 13.5121 10.904C 18.1201 10.904 21.8321 14.648 21.8321 19.544C 21.8321 24.6 18.1201 28.472 13.5121 28.472C 8.87212 28.472 5.16012 24.6 5.16012 19.544ZM 28.8844 31L 31.9884 31L 31.9884 17.464L 39.9244 17.464L 39.9244 31L 43.0284 31L 43.0284 14.808L 28.8844 14.808L 28.8844 31ZM 46.7659 22.904C 46.7659 27.704 50.2859 31.384 55.3739 31.384C 57.6139 31.384 60.0779 30.52 61.6459 29.08L 60.3339 26.808C 59.0539 27.96 57.2939 28.696 55.5659 28.696C 52.6539 28.696 50.1579 26.808 49.9979 23.32L 61.7739 23.32C 61.8379 22.872 61.9019 22.424 61.9019 22.008C 61.9019 17.848 59.4699 14.424 54.8939 14.424C 50.2859 14.424 46.7659 17.752 46.7659 22.904ZM 50.0939 21.08C 50.5419 18.392 52.4299 16.824 54.8299 16.824C 56.9419 16.824 58.6699 18.296 58.7659 21.08L 50.0939 21.08ZM 65.6344 37.4L 68.7384 37.4L 68.7384 30.04C 68.7384 29.208 68.6104 28.632 68.6104 28.632L 68.6744 28.632C 69.7944 30.36 71.6504 31.384 73.6984 31.384C 77.9544 31.384 81.0264 28.056 81.0264 22.904C 81.0264 17.88 78.3064 14.424 73.9224 14.424C 71.5544 14.424 69.5064 15.512 68.4824 17.464L 68.4184 17.464C 68.4184 17.464 68.5144 16.92 68.5144 16.248L 68.5144 14.808L 65.6344 14.808L 65.6344 37.4ZM 68.6424 22.968C 68.6424 18.872 70.8824 17.144 73.3144 17.144C 76.0024 17.144 77.8904 19.416 77.8904 22.936C 77.8904 26.616 75.7784 28.696 73.2184 28.696C 70.2424 28.696 68.6424 25.848 68.6424 22.968ZM 83.5091 26.584C 83.5091 29.624 86.1011 31.384 88.9171 31.384C 91.3171 31.384 93.3011 29.944 94.2291 28.088L 94.2931 28.088C 94.2931 28.088 94.1971 28.632 94.1971 29.368L 94.1971 31L 97.1091 31L 97.1091 20.76C 97.1091 16.664 94.7731 14.424 90.7091 14.424C 88.4371 14.424 85.9731 15.256 84.6611 16.344L 85.9091 18.616C 87.2211 17.688 88.8531 17.048 90.4531 17.048C 92.4691 17.048 94.0051 17.944 94.0051 20.6L 94.0051 20.92L 93.1731 20.92C 89.8131 20.92 83.5091 21.496 83.5091 26.584ZM 86.6131 26.328C 86.6131 23.352 90.9011 23.16 93.2051 23.16L 94.0051 23.16L 94.0051 23.768C 94.0051 26.168 92.3731 28.92 89.6531 28.92C 87.6371 28.92 86.6131 27.608 86.6131 26.328ZM 101.697 31L 115.073 31L 115.073 34.84L 117.921 34.84L 117.921 28.312L 115.649 28.312L 115.649 14.808L 112.513 14.808L 112.513 28.312L 104.801 28.312L 104.801 14.808L 101.697 14.808L 101.697 31ZM 121.228 31L 124.204 31L 131.212 21.336C 131.724 20.568 132.524 19.48 132.62 19.192L 132.684 19.192C 132.684 19.448 132.588 20.568 132.588 21.336L 132.588 31L 135.596 31L 135.596 14.808L 132.588 14.808L 125.612 24.472C 125.068 25.24 124.3 26.36 124.172 26.648L 124.108 26.648C 124.14 26.488 124.204 25.336 124.204 24.472L 124.204 14.808L 121.228 14.808L 121.228 31ZM 139.297 22.872C 139.297 27.8 143.201 31.384 148.033 31.384C 152.833 31.384 156.737 27.8 156.737 22.872C 156.737 17.976 152.833 14.424 148.001 14.424C 143.201 14.424 139.297 17.976 139.297 22.872ZM 142.465 22.872C 142.465 19.512 144.961 17.112 148.033 17.112C 151.073 17.112 153.601 19.512 153.601 22.872C 153.601 26.264 151.073 28.696 148.033 28.696C 144.961 28.696 142.465 26.264 142.465 22.872ZM 160.478 31L 163.582 31L 163.582 24.056L 171.774 24.056L 171.774 31L 174.878 31L 174.878 14.808L 171.774 14.808L 171.774 21.4L 163.582 21.4L 163.582 14.808L 160.478 14.808L 160.478 31ZM 179.666 31L 182.77 31L 182.77 24.056L 190.962 24.056L 190.962 31L 194.066 31L 194.066 14.808L 190.962 14.808L 190.962 21.4L 182.77 21.4L 182.77 14.808L 179.666 14.808L 179.666 31ZM 197.509 26.584C 197.509 29.624 200.101 31.384 202.917 31.384C 205.317 31.384 207.301 29.944 208.229 28.088L 208.293 28.088C 208.293 28.088 208.197 28.632 208.197 29.368L 208.197 31L 211.109 31L 211.109 20.76C 211.109 16.664 208.773 14.424 204.709 14.424C 202.437 14.424 199.973 15.256 198.661 16.344L 199.909 18.616C 201.221 17.688 202.853 17.048 204.453 17.048C 206.469 17.048 208.005 17.944 208.005 20.6L 208.005 20.92L 207.173 20.92C 203.813 20.92 197.509 21.496 197.509 26.584ZM 200.613 26.328C 200.613 23.352 204.901 23.16 207.205 23.16L 208.005 23.16L 208.005 23.768C 208.005 26.168 206.373 28.92 203.653 28.92C 201.637 28.92 200.613 27.608 200.613 26.328ZM 214.065 31L 217.489 31L 221.457 25.144L 224.177 25.144L 224.177 31L 227.281 31L 227.281 14.808L 220.817 14.808C 217.393 14.808 215.025 16.568 215.025 19.896C 215.025 22.36 216.689 24.088 218.545 24.6L 218.545 24.632C 218.545 24.632 218.161 25.048 217.809 25.624L 214.065 31ZM 221.489 22.872C 219.601 22.872 218.161 21.88 218.161 19.864C 218.161 17.784 219.505 16.952 221.585 16.952L 224.177 16.952L 224.177 22.872L 221.489 22.872ZM 17.0055 68.44C 19.0535 65.24 19.3095 60.632 19.3095 58.2L 19.3095 57.336L 24.1735 57.336L 24.1735 68.44L 17.0055 68.44ZM 11.8215 68.44L 11.8215 74.84L 14.7335 74.84L 14.7335 71L 26.7335 71L 26.7335 74.84L 29.5815 74.84L 29.5815 68.44L 27.2775 68.44L 27.2775 54.808L 16.3335 54.808L 16.3335 57.784C 16.3335 60.28 16.0775 65.336 13.8055 68.44L 11.8215 68.44ZM 31.594 62.904C 31.594 67.704 35.114 71.384 40.202 71.384C 42.442 71.384 44.906 70.52 46.474 69.08L 45.162 66.808C 43.882 67.96 42.122 68.696 40.394 68.696C 37.482 68.696 34.986 66.808 34.826 63.32L 46.602 63.32C 46.666 62.872 46.73 62.424 46.73 62.008C 46.73 57.848 44.298 54.424 39.722 54.424C 35.114 54.424 31.594 57.752 31.594 62.904ZM 34.922 61.08C 35.37 58.392 37.258 56.824 39.658 56.824C 41.77 56.824 43.498 58.296 43.594 61.08L 34.922 61.08ZM 48.8305 71L 52.2545 71L 56.2225 65.144L 58.9425 65.144L 58.9425 71L 62.0465 71L 62.0465 54.808L 55.5825 54.808C 52.1585 54.808 49.7905 56.568 49.7905 59.896C 49.7905 62.36 51.4545 64.088 53.3105 64.6L 53.3105 64.632C 53.3105 64.632 52.9265 65.048 52.5745 65.624L 48.8305 71ZM 56.2545 62.872C 54.3665 62.872 52.9265 61.88 52.9265 59.864C 52.9265 57.784 54.2705 56.952 56.3505 56.952L 58.9425 56.952L 58.9425 62.872L 56.2545 62.872ZM 70.7415 71L 73.8135 71L 73.8135 57.464L 79.4775 57.464L 79.4775 54.808L 65.1095 54.808L 65.1095 57.464L 70.7415 57.464L 70.7415 71ZM 80.9377 62.904C 80.9377 67.704 84.4577 71.384 89.5457 71.384C 91.7858 71.384 94.2498 70.52 95.8178 69.08L 94.5057 66.808C 93.2257 67.96 91.4657 68.696 89.7378 68.696C 86.8257 68.696 84.3298 66.808 84.1698 63.32L 95.9457 63.32C 96.0098 62.872 96.0737 62.424 96.0737 62.008C 96.0737 57.848 93.6418 54.424 89.0658 54.424C 84.4577 54.424 80.9377 57.752 80.9377 62.904ZM 84.2657 61.08C 84.7137 58.392 86.6017 56.824 89.0017 56.824C 91.1138 56.824 92.8418 58.296 92.9377 61.08L 84.2657 61.08ZM 98.0462 71.16C 102.814 70.904 104.67 67.128 104.67 59.8L 104.67 57.368L 109.438 57.368L 109.438 71L 112.542 71L 112.542 54.808L 101.694 54.808L 101.694 59.8C 101.694 65.656 100.414 68.024 98.0462 68.376L 98.0462 71.16ZM 117.338 71L 123.642 71C 127.738 71 129.594 68.92 129.594 65.88C 129.594 62.2 127.066 60.664 123.705 60.664L 120.442 60.664L 120.442 54.808L 117.338 54.808L 117.338 71ZM 120.442 68.76L 120.442 62.904L 123.226 62.904C 125.465 62.904 126.425 64.12 126.425 65.848C 126.425 67.544 125.465 68.76 123.226 68.76L 120.442 68.76ZM 132.931 71L 136.035 71L 136.035 64.056L 144.227 64.056L 144.227 71L 147.331 71L 147.331 54.808L 144.227 54.808L 144.227 61.4L 136.035 61.4L 136.035 54.808L 132.931 54.808L 132.931 71ZM 151.063 62.872C 151.063 67.8 154.967 71.384 159.799 71.384C 164.599 71.384 168.503 67.8 168.503 62.872C 168.503 57.976 164.599 54.424 159.767 54.424C 154.967 54.424 151.063 57.976 151.063 62.872ZM 154.231 62.872C 154.231 59.512 156.727 57.112 159.799 57.112C 162.839 57.112 165.367 59.512 165.367 62.872C 165.367 66.264 162.839 68.696 159.799 68.696C 156.727 68.696 154.231 66.264 154.231 62.872ZM 171.188 62.904C 171.188 67.768 174.74 71.384 179.86 71.384C 182.388 71.384 184.852 70.36 186.324 68.792L 185.076 66.52C 183.828 67.832 181.876 68.696 180.084 68.696C 176.724 68.696 174.356 66.168 174.356 62.872C 174.356 59.576 176.724 57.112 179.988 57.112C 181.684 57.112 183.38 57.88 184.468 58.968L 185.94 56.792C 184.404 55.16 182.004 54.424 179.86 54.424C 174.772 54.424 171.188 58.104 171.188 62.904ZM 193.585 71L 196.657 71L 196.657 57.464L 202.321 57.464L 202.321 54.808L 187.953 54.808L 187.953 57.464L 193.585 57.464L 193.585 71ZM 205.369 71L 211.673 71C 215.769 71 217.625 68.92 217.625 65.88C 217.625 62.2 215.097 60.664 211.737 60.664L 208.473 60.664L 208.473 54.808L 205.369 54.808L 205.369 71ZM 208.473 68.76L 208.473 62.904L 211.257 62.904C 213.497 62.904 214.457 64.12 214.457 65.848C 214.457 67.544 213.497 68.76 211.257 68.76L 208.473 68.76ZM 48.6166 111L 56.1366 111C 63.0166 111 67.5606 106.84 67.5606 99.672C 67.5606 92.536 63.0166 88.408 56.1366 88.408L 48.6166 88.408L 48.6166 111ZM 51.7846 108.248L 51.7846 91.16L 55.9126 91.16C 60.9366 91.16 64.2966 94.136 64.2966 99.672C 64.2966 105.272 60.9686 108.248 55.9126 108.248L 51.7846 108.248ZM 70.5784 102.904C 70.5784 107.704 74.0984 111.384 79.1864 111.384C 81.4264 111.384 83.8904 110.52 85.4584 109.08L 84.1464 106.808C 82.8664 107.96 81.1064 108.696 79.3784 108.696C 76.4664 108.696 73.9704 106.808 73.8104 103.32L 85.5864 103.32C 85.6504 102.872 85.7144 102.424 85.7144 102.008C 85.7144 97.848 83.2824 94.424 78.7064 94.424C 74.0984 94.424 70.5784 97.752 70.5784 102.904ZM 73.9064 101.08C 74.3544 98.392 76.2424 96.824 78.6424 96.824C 80.7544 96.824 82.4824 98.296 82.5784 101.08L 73.9064 101.08ZM 89.8041 111L 92.9721 111L 92.9721 101.08L 104.716 101.08L 104.716 111L 107.852 111L 107.852 88.408L 104.716 88.408L 104.716 98.328L 92.9721 98.328L 92.9721 88.408L 89.8041 88.408L 89.8041 111ZM 111.86 102.904C 111.86 107.704 115.38 111.384 120.468 111.384C 122.708 111.384 125.172 110.52 126.74 109.08L 125.428 106.808C 124.148 107.96 122.388 108.696 120.66 108.696C 117.748 108.696 115.252 106.808 115.092 103.32L 126.868 103.32C 126.932 102.872 126.996 102.424 126.996 102.008C 126.996 97.848 124.564 94.424 119.988 94.424C 115.38 94.424 111.86 97.752 111.86 102.904ZM 115.188 101.08C 115.636 98.392 117.524 96.824 119.924 96.824C 122.036 96.824 123.764 98.296 123.86 101.08L 115.188 101.08ZM 129.736 102.904C 129.736 107.928 132.52 111.384 136.872 111.384C 139.432 111.384 141.32 110.04 142.248 108.28L 142.312 108.28C 142.312 108.28 142.216 108.728 142.216 109.368L 142.216 111L 145.16 111L 145.16 88.408L 142.088 88.408L 142.088 95.992C 142.088 96.6 142.152 97.08 142.152 97.08L 142.088 97.08C 141.064 95.352 139.112 94.424 137.064 94.424C 132.776 94.424 129.736 97.752 129.736 102.904ZM 132.904 102.904C 132.904 99.224 135.016 97.144 137.544 97.144C 140.648 97.144 142.152 99.96 142.152 102.872C 142.152 106.968 139.88 108.696 137.48 108.696C 134.792 108.696 132.904 106.424 132.904 102.904ZM 151.483 113.944L 150.459 116.376C 152.059 117.176 154.043 117.72 155.995 117.72C 160.091 117.72 164.155 115.672 164.155 110.328L 164.155 94.808L 161.179 94.808L 161.179 96.408C 161.179 96.696 161.275 96.888 161.275 96.888L 161.179 96.888C 160.155 95.16 158.075 94.424 156.059 94.424C 151.547 94.424 148.987 97.88 148.987 102.552C 148.987 107.192 151.707 110.808 156.219 110.808C 158.555 110.808 160.123 109.784 161.083 108.184L 161.147 108.184C 161.147 108.184 161.051 108.696 161.051 109.208L 161.051 110.52C 161.051 113.752 158.747 115.032 155.931 115.032C 154.363 115.032 152.763 114.584 151.483 113.944ZM 152.123 102.456C 152.123 99.16 153.755 97.112 156.539 97.112C 159.067 97.112 161.115 98.328 161.115 102.552C 161.115 106.776 159.067 108.12 156.827 108.12C 153.915 108.12 152.123 105.816 152.123 102.456ZM 167.891 102.904C 167.891 107.704 171.411 111.384 176.499 111.384C 178.739 111.384 181.203 110.52 182.771 109.08L 181.459 106.808C 180.179 107.96 178.419 108.696 176.691 108.696C 173.779 108.696 171.283 106.808 171.123 103.32L 182.899 103.32C 182.963 102.872 183.027 102.424 183.027 102.008C 183.027 97.848 180.595 94.424 176.019 94.424C 171.411 94.424 167.891 97.752 167.891 102.904ZM 171.219 101.08C 171.667 98.392 173.555 96.824 175.955 96.824C 178.067 96.824 179.795 98.296 179.891 101.08L 171.219 101.08Z"/>
<path id="path3_fill" d="M 58.2104 31L 61.3144 31L 71.3944 16.344C 72.1944 15.096 73.2824 13.048 73.2824 13.048L 73.3464 13.048C 73.3464 13.048 73.1544 15.064 73.1544 16.344L 73.1544 31L 76.2904 31L 76.2904 8.408L 73.1864 8.408L 63.1704 23.032C 62.3704 24.248 61.2504 26.36 61.2504 26.36L 61.1864 26.36C 61.1864 26.36 61.3784 24.344 61.3784 23.064L 61.3784 8.408L 58.2104 8.408L 58.2104 31ZM 81.5094 31L 84.6134 31L 84.6134 24.056L 92.8054 24.056L 92.8054 31L 95.9094 31L 95.9094 14.808L 92.8054 14.808L 92.8054 21.4L 84.6134 21.4L 84.6134 14.808L 81.5094 14.808L 81.5094 31ZM 100.697 31L 107.609 31C 111.129 31 113.561 29.4 113.561 26.392C 113.561 24.6 112.505 23.032 110.489 22.552L 110.489 22.52C 111.961 21.88 112.793 20.536 112.793 18.968C 112.793 16.248 110.649 14.808 107.385 14.808L 100.697 14.808L 100.697 31ZM 103.801 21.656L 103.801 16.952L 106.745 16.952C 108.697 16.952 109.625 17.72 109.625 19.192C 109.625 20.696 108.697 21.656 106.841 21.656L 103.801 21.656ZM 103.801 28.824L 103.801 23.736L 107.097 23.736C 109.241 23.736 110.425 24.696 110.425 26.296C 110.425 27.8 109.369 28.824 107.129 28.824L 103.801 28.824ZM 116.266 22.904C 116.266 27.704 119.786 31.384 124.874 31.384C 127.114 31.384 129.578 30.52 131.146 29.08L 129.834 26.808C 128.554 27.96 126.794 28.696 125.066 28.696C 122.154 28.696 119.658 26.808 119.498 23.32L 131.274 23.32C 131.338 22.872 131.402 22.424 131.402 22.008C 131.402 17.848 128.97 14.424 124.394 14.424C 119.786 14.424 116.266 17.752 116.266 22.904ZM 119.594 21.08C 120.042 18.392 121.93 16.824 124.33 16.824C 126.442 16.824 128.17 18.296 128.266 21.08L 119.594 21.08ZM 134.078 22.904C 134.078 27.768 137.63 31.384 142.75 31.384C 145.278 31.384 147.742 30.36 149.214 28.792L 147.966 26.52C 146.718 27.832 144.766 28.696 142.974 28.696C 139.614 28.696 137.246 26.168 137.246 22.872C 137.246 19.576 139.614 17.112 142.878 17.112C 144.574 17.112 146.27 17.88 147.358 18.968L 148.83 16.792C 147.294 15.16 144.894 14.424 142.75 14.424C 137.662 14.424 134.078 18.104 134.078 22.904ZM 156.476 31L 159.548 31L 159.548 17.464L 165.212 17.464L 165.212 14.808L 150.844 14.808L 150.844 17.464L 156.476 17.464L 156.476 31ZM 168.259 31L 171.235 31L 178.243 21.336C 178.755 20.568 179.555 19.48 179.651 19.192L 179.715 19.192C 179.715 19.448 179.619 20.568 179.619 21.336L 179.619 31L 182.627 31L 182.627 14.808L 179.619 14.808L 172.643 24.472C 172.099 25.24 171.331 26.36 171.203 26.648L 171.139 26.648C 171.171 26.488 171.235 25.336 171.235 24.472L 171.235 14.808L 168.259 14.808L 168.259 31ZM 187.384 31L 200.76 31L 200.76 34.84L 203.608 34.84L 203.608 28.312L 201.336 28.312L 201.336 14.808L 198.2 14.808L 198.2 28.312L 190.488 28.312L 190.488 14.808L 187.384 14.808L 187.384 31ZM 206.916 31L 209.892 31L 216.9 21.336C 217.412 20.568 218.212 19.48 218.308 19.192L 218.372 19.192C 218.372 19.448 218.276 20.568 218.276 21.336L 218.276 31L 221.284 31L 221.284 14.808L 218.276 14.808L 211.3 24.472C 210.756 25.24 209.988 26.36 209.86 26.648L 209.796 26.648C 209.828 26.488 209.892 25.336 209.892 24.472L 209.892 14.808L 206.916 14.808L 206.916 31ZM 226.041 31L 229.017 31L 236.025 21.336C 236.537 20.568 237.337 19.48 237.433 19.192L 237.497 19.192C 237.497 19.448 237.401 20.568 237.401 21.336L 237.401 31L 240.409 31L 240.409 14.808L 237.401 14.808L 230.425 24.472C 229.881 25.24 229.113 26.36 228.985 26.648L 228.921 26.648C 228.953 26.488 229.017 25.336 229.017 24.472L 229.017 14.808L 226.041 14.808L 226.041 31ZM 2.57188 71L 9.48388 71C 13.0039 71 15.4359 69.4 15.4359 66.392C 15.4359 64.6 14.3799 63.032 12.3639 62.552L 12.3639 62.52C 13.8359 61.88 14.6679 60.536 14.6679 58.968C 14.6679 56.248 12.5239 54.808 9.25988 54.808L 2.57188 54.808L 2.57188 71ZM 5.67588 61.656L 5.67588 56.952L 8.61987 56.952C 10.5719 56.952 11.4999 57.72 11.4999 59.192C 11.4999 60.696 10.5719 61.656 8.71587 61.656L 5.67588 61.656ZM 5.67588 68.824L 5.67588 63.736L 8.97188 63.736C 11.1159 63.736 12.2999 64.696 12.2999 66.296C 12.2999 67.8 11.2439 68.824 9.00387 68.824L 5.67588 68.824ZM 26.4929 61.688C 26.4929 67.288 28.9569 71.384 34.4289 71.384C 39.0049 71.384 42.0769 68.184 42.0769 63.704C 42.0769 59.128 39.2609 56.248 35.1969 56.248C 33.0529 56.248 30.9089 56.952 29.4689 59.128L 29.4049 59.128C 29.6289 56.024 31.1649 54.136 34.3969 52.664L 40.6049 50.072L 39.5809 47.512L 33.7889 50.008C 28.1569 52.376 26.4929 55.896 26.4929 61.688ZM 29.7249 63.704C 29.7249 60.856 31.6769 58.712 34.4289 58.712C 36.8609 58.712 38.9409 60.6 38.9409 63.768C 38.9409 66.904 36.8609 68.76 34.3009 68.76C 31.8049 68.76 29.7249 66.904 29.7249 63.704ZM 60.6029 71L 63.7069 71L 63.7069 54.808L 60.6029 54.808L 60.6029 71ZM 45.9469 71L 52.1869 71C 56.2509 71 58.1069 68.92 58.1069 65.88C 58.1069 62.2 55.5789 60.664 52.2189 60.664L 49.0509 60.664L 49.0509 54.808L 45.9469 54.808L 45.9469 71ZM 49.0509 68.76L 49.0509 62.904L 51.7389 62.904C 53.9789 62.904 54.9709 64.12 54.9709 65.848C 54.9709 67.544 54.0109 68.76 51.7709 68.76L 49.0509 68.76ZM 67.4534 62.904C 67.4534 67.768 71.0054 71.384 76.1254 71.384C 78.6534 71.384 81.1174 70.36 82.5894 68.792L 81.3414 66.52C 80.0934 67.832 78.1414 68.696 76.3494 68.696C 72.9894 68.696 70.6214 66.168 70.6214 62.872C 70.6214 59.576 72.9894 57.112 76.2534 57.112C 77.9494 57.112 79.6454 57.88 80.7334 58.968L 82.2054 56.792C 80.6694 55.16 78.2694 54.424 76.1254 54.424C 71.0374 54.424 67.4534 58.104 67.4534 62.904ZM 89.8509 71L 92.9229 71L 92.9229 57.464L 98.5869 57.464L 98.5869 54.808L 84.2189 54.808L 84.2189 57.464L 89.8509 57.464L 89.8509 71ZM 101.634 77.4L 104.738 77.4L 104.738 70.04C 104.738 69.208 104.61 68.632 104.61 68.632L 104.674 68.632C 105.794 70.36 107.65 71.384 109.698 71.384C 113.954 71.384 117.026 68.056 117.026 62.904C 117.026 57.88 114.306 54.424 109.922 54.424C 107.554 54.424 105.506 55.512 104.482 57.464L 104.418 57.464C 104.418 57.464 104.514 56.92 104.514 56.248L 104.514 54.808L 101.634 54.808L 101.634 77.4ZM 104.642 62.968C 104.642 58.872 106.882 57.144 109.314 57.144C 112.002 57.144 113.89 59.416 113.89 62.936C 113.89 66.616 111.778 68.696 109.218 68.696C 106.242 68.696 104.642 65.848 104.642 62.968ZM 119.797 62.872C 119.797 67.8 123.701 71.384 128.533 71.384C 133.333 71.384 137.237 67.8 137.237 62.872C 137.237 57.976 133.333 54.424 128.501 54.424C 123.701 54.424 119.797 57.976 119.797 62.872ZM 122.965 62.872C 122.965 59.512 125.461 57.112 128.533 57.112C 131.573 57.112 134.101 59.512 134.101 62.872C 134.101 66.264 131.573 68.696 128.533 68.696C 125.461 68.696 122.965 66.264 122.965 62.872ZM 138.781 71.16C 143.549 70.904 145.405 67.128 145.405 59.8L 145.405 57.368L 150.173 57.368L 150.173 71L 153.277 71L 153.277 54.808L 142.429 54.808L 142.429 59.8C 142.429 65.656 141.149 68.024 138.781 68.376L 138.781 71.16ZM 158.072 71L 161.048 71L 168.056 61.336C 168.568 60.568 169.368 59.48 169.464 59.192L 169.528 59.192C 169.528 59.448 169.432 60.568 169.432 61.336L 169.432 71L 172.44 71L 172.44 54.808L 169.432 54.808L 162.456 64.472C 161.912 65.24 161.144 66.36 161.016 66.648L 160.952 66.648C 160.984 66.488 161.048 65.336 161.048 64.472L 161.048 54.808L 158.072 54.808L 158.072 71ZM 177.197 71L 180.301 71L 180.301 63.992L 182.637 63.992L 187.469 71L 191.149 71L 185.101 62.584L 185.101 62.52L 190.509 54.808L 186.989 54.808L 182.573 61.336L 180.301 61.336L 180.301 54.808L 177.197 54.808L 177.197 71ZM 193.916 71L 200.828 71C 204.348 71 206.78 69.4 206.78 66.392C 206.78 64.6 205.724 63.032 203.708 62.552L 203.708 62.52C 205.18 61.88 206.012 60.536 206.012 58.968C 206.012 56.248 203.868 54.808 200.604 54.808L 193.916 54.808L 193.916 71ZM 197.02 61.656L 197.02 56.952L 199.964 56.952C 201.916 56.952 202.844 57.72 202.844 59.192C 202.844 60.696 201.916 61.656 200.06 61.656L 197.02 61.656ZM 197.02 68.824L 197.02 63.736L 200.316 63.736C 202.46 63.736 203.644 64.696 203.644 66.296C 203.644 67.8 202.588 68.824 200.348 68.824L 197.02 68.824ZM 210.541 71L 213.517 71L 220.525 61.336C 221.037 60.568 221.837 59.48 221.933 59.192L 221.997 59.192C 221.997 59.448 221.901 60.568 221.901 61.336L 221.901 71L 224.909 71L 224.909 54.808L 221.901 54.808L 214.925 64.472C 214.381 65.24 213.613 66.36 213.485 66.648L 213.421 66.648C 213.453 66.488 213.517 65.336 213.517 64.472L 213.517 54.808L 210.541 54.808L 210.541 71ZM 232.834 68.44C 234.882 65.24 235.138 60.632 235.138 58.2L 235.138 57.336L 240.002 57.336L 240.002 68.44L 232.834 68.44ZM 227.65 68.44L 227.65 74.84L 230.562 74.84L 230.562 71L 242.562 71L 242.562 74.84L 245.41 74.84L 245.41 68.44L 243.106 68.44L 243.106 54.808L 232.162 54.808L 232.162 57.784C 232.162 60.28 231.906 65.336 229.634 68.44L 227.65 68.44ZM 248.666 71L 251.77 71L 251.77 64.056L 259.962 64.056L 259.962 71L 263.066 71L 263.066 54.808L 259.962 54.808L 259.962 61.4L 251.77 61.4L 251.77 54.808L 248.666 54.808L 248.666 71ZM 282.509 71L 285.613 71L 285.613 54.808L 282.509 54.808L 282.509 71ZM 267.853 71L 274.093 71C 278.157 71 280.013 68.92 280.013 65.88C 280.013 62.2 277.485 60.664 274.125 60.664L 270.957 60.664L 270.957 54.808L 267.853 54.808L 267.853 71ZM 270.957 68.76L 270.957 62.904L 273.645 62.904C 275.885 62.904 276.877 64.12 276.877 65.848C 276.877 67.544 275.917 68.76 273.677 68.76L 270.957 68.76ZM 289.36 62.904C 289.36 67.704 292.88 71.384 297.968 71.384C 300.208 71.384 302.672 70.52 304.24 69.08L 302.928 66.808C 301.648 67.96 299.888 68.696 298.16 68.696C 295.248 68.696 292.752 66.808 292.592 63.32L 304.368 63.32C 304.432 62.872 304.496 62.424 304.496 62.008C 304.496 57.848 302.064 54.424 297.488 54.424C 292.88 54.424 289.36 57.752 289.36 62.904ZM 292.688 61.08C 293.136 58.392 295.024 56.824 297.424 56.824C 299.536 56.824 301.264 58.296 301.36 61.08L 292.688 61.08ZM 100.275 106.584C 100.275 109.624 102.867 111.384 105.683 111.384C 108.083 111.384 110.067 109.944 110.995 108.088L 111.059 108.088C 111.059 108.088 110.963 108.632 110.963 109.368L 110.963 111L 113.875 111L 113.875 100.76C 113.875 96.664 111.539 94.424 107.475 94.424C 105.203 94.424 102.739 95.256 101.427 96.344L 102.675 98.616C 103.987 97.688 105.619 97.048 107.219 97.048C 109.235 97.048 110.771 97.944 110.771 100.6L 110.771 100.92L 109.939 100.92C 106.579 100.92 100.275 101.496 100.275 106.584ZM 103.379 106.328C 103.379 103.352 107.667 103.16 109.971 103.16L 110.771 103.16L 110.771 103.768C 110.771 106.168 109.139 108.92 106.419 108.92C 104.403 108.92 103.379 107.608 103.379 106.328ZM 118.463 111L 121.567 111L 121.567 103.992L 123.903 103.992L 128.734 111L 132.414 111L 126.366 102.584L 126.366 102.52L 131.774 94.808L 128.255 94.808L 123.839 101.336L 121.567 101.336L 121.567 94.808L 118.463 94.808L 118.463 111ZM 139.085 111L 142.157 111L 142.157 97.464L 147.821 97.464L 147.821 94.808L 133.453 94.808L 133.453 97.464L 139.085 97.464L 139.085 111ZM 150.869 111L 153.845 111L 160.853 101.336C 161.365 100.568 162.165 99.48 162.261 99.192L 162.325 99.192C 162.325 99.448 162.229 100.568 162.229 101.336L 162.229 111L 165.237 111L 165.237 94.808L 162.229 94.808L 155.253 104.472C 154.709 105.24 153.941 106.36 153.813 106.648L 153.749 106.648C 153.781 106.488 153.845 105.336 153.845 104.472L 153.845 94.808L 150.869 94.808L 150.869 111ZM 169.994 111L 176.906 111C 180.426 111 182.858 109.4 182.858 106.392C 182.858 104.6 181.802 103.032 179.786 102.552L 179.786 102.52C 181.258 101.88 182.09 100.536 182.09 98.968C 182.09 96.248 179.946 94.808 176.682 94.808L 169.994 94.808L 169.994 111ZM 173.098 101.656L 173.098 96.952L 176.042 96.952C 177.994 96.952 178.922 97.72 178.922 99.192C 178.922 100.696 177.994 101.656 176.138 101.656L 173.098 101.656ZM 173.098 108.824L 173.098 103.736L 176.394 103.736C 178.538 103.736 179.722 104.696 179.722 106.296C 179.722 107.8 178.666 108.824 176.426 108.824L 173.098 108.824ZM 201.275 111L 204.379 111L 204.379 94.808L 201.275 94.808L 201.275 111ZM 186.619 111L 192.859 111C 196.923 111 198.779 108.92 198.779 105.88C 198.779 102.2 196.251 100.664 192.891 100.664L 189.723 100.664L 189.723 94.808L 186.619 94.808L 186.619 111ZM 189.723 108.76L 189.723 102.904L 192.411 102.904C 194.651 102.904 195.643 104.12 195.643 105.848C 195.643 107.544 194.683 108.76 192.443 108.76L 189.723 108.76Z"/>
<path id="path4_fill" d="M 3.19008 43.548C 3.19008 49.944 8.70208 54.624 15.9301 54.624C 23.6261 54.624 28.5141 49.58 28.5141 43.86C 28.5141 40.064 26.3821 37.776 23.5221 36.06C 24.6141 34.968 27.9421 31.068 27.9421 26.44C 27.9421 20.512 23.2101 16.664 16.3981 16.664C 8.65008 16.664 4.95808 21.344 4.95808 26.388C 4.95808 29.716 6.67408 31.952 9.06608 33.616C 7.66208 34.552 3.19008 37.984 3.19008 43.548ZM 19.5701 34.084C 14.9941 32.056 10.0541 30.548 10.0541 26.388C 10.0541 23.58 12.2901 21.292 16.2941 21.292C 20.1941 21.292 22.8981 23.372 22.8981 26.856C 22.8981 30.444 20.3501 33.252 19.5701 34.084ZM 8.44208 43.132C 8.44208 39.128 11.7181 36.684 12.9141 35.852C 17.6981 38.14 23.2621 39.596 23.2621 43.756C 23.2621 47.5 19.7781 49.996 15.8781 49.996C 12.0821 49.996 8.44208 47.24 8.44208 43.132ZM 47.8341 54.624C 57.6621 54.624 60.8341 46.2 60.8341 35.592C 60.8341 25.036 57.6621 16.664 47.8341 16.664C 38.0581 16.664 34.8341 25.036 34.8341 35.592C 34.8341 46.2 38.0581 54.624 47.8341 54.624ZM 47.8341 49.892C 41.8541 49.892 40.1381 43.652 40.1381 35.592C 40.1381 27.636 41.8541 21.396 47.8341 21.396C 53.8661 21.396 55.5301 27.636 55.5301 35.592C 55.5301 43.652 53.8661 49.892 47.8341 49.892ZM 74.4098 32.056C 78.7778 32.056 82.3658 28.624 82.3658 24.36C 82.3658 20.148 78.7778 16.664 74.4098 16.664C 70.0418 16.664 66.5578 20.148 66.5578 24.36C 66.5578 28.624 70.0418 32.056 74.4098 32.056ZM 67.3378 54L 72.2778 54L 100.358 17.288L 95.4698 17.288L 67.3378 54ZM 74.4098 28.208C 72.2778 28.208 70.6138 26.544 70.6138 24.36C 70.6138 22.228 72.2778 20.46 74.4098 20.46C 76.5938 20.46 78.3098 22.228 78.3098 24.36C 78.3098 26.544 76.5938 28.208 74.4098 28.208ZM 85.4338 46.98C 85.4338 51.192 88.9178 54.624 93.2858 54.624C 97.6538 54.624 101.19 51.192 101.19 46.98C 101.19 42.716 97.6538 39.232 93.2858 39.232C 88.9178 39.232 85.4338 42.716 85.4338 46.98ZM 89.4898 46.928C 89.4898 44.796 91.1018 43.028 93.2858 43.028C 95.4698 43.028 97.1338 44.796 97.1338 46.928C 97.1338 49.06 95.4698 50.776 93.2858 50.776C 91.1018 50.776 89.4898 49.06 89.4898 46.928Z"/>
<path id="path5_fill" d="M 61.1479 31L 64.3159 31L 64.3159 22.648L 69.4359 22.648C 73.5639 22.648 76.5079 19.768 76.5079 15.48C 76.5079 11.192 73.5639 8.408 69.4359 8.408L 61.1479 8.408L 61.1479 31ZM 64.3159 19.896L 64.3159 11.16L 68.9559 11.16C 71.6119 11.16 73.3079 12.792 73.3079 15.48C 73.3079 18.2 71.6119 19.896 68.9239 19.896L 64.3159 19.896ZM 78.3596 22.904C 78.3596 27.704 81.8796 31.384 86.9676 31.384C 89.2076 31.384 91.6716 30.52 93.2396 29.08L 91.9276 26.808C 90.6476 27.96 88.8876 28.696 87.1596 28.696C 84.2476 28.696 81.7516 26.808 81.5916 23.32L 93.3676 23.32C 93.4316 22.872 93.4956 22.424 93.4956 22.008C 93.4956 17.848 91.0636 14.424 86.4876 14.424C 81.8796 14.424 78.3596 17.752 78.3596 22.904ZM 81.6876 21.08C 82.1356 18.392 84.0236 16.824 86.4236 16.824C 88.5356 16.824 90.2636 18.296 90.3596 21.08L 81.6876 21.08ZM 95.6601 29.016C 97.0041 30.296 99.1161 31.384 101.612 31.384C 104.94 31.384 107.82 29.688 107.82 26.36C 107.82 24.28 106.54 23.064 104.908 22.552L 104.908 22.488C 106.188 21.944 107.276 20.824 107.276 18.808C 107.276 15.928 104.876 14.424 101.804 14.424C 99.2441 14.424 97.4201 15.256 96.1721 16.184L 97.3241 18.264C 98.5721 17.336 99.8521 16.856 101.26 16.856C 103.052 16.856 104.14 17.688 104.14 19.192C 104.14 20.824 102.892 21.528 101.068 21.528L 99.3721 21.528L 99.3721 23.768L 101.356 23.768C 103.628 23.768 104.684 24.664 104.684 26.232C 104.684 27.992 103.18 28.888 101.324 28.888C 99.3721 28.888 97.8361 27.736 97.1001 26.968L 95.6601 29.016ZM 110.516 22.904C 110.516 27.704 114.036 31.384 119.124 31.384C 121.364 31.384 123.828 30.52 125.396 29.08L 124.084 26.808C 122.804 27.96 121.044 28.696 119.316 28.696C 116.404 28.696 113.908 26.808 113.748 23.32L 125.524 23.32C 125.588 22.872 125.652 22.424 125.652 22.008C 125.652 17.848 123.22 14.424 118.644 14.424C 114.036 14.424 110.516 17.752 110.516 22.904ZM 113.844 21.08C 114.292 18.392 116.18 16.824 118.58 16.824C 120.692 16.824 122.42 18.296 122.516 21.08L 113.844 21.08ZM 129.384 37.4L 132.488 37.4L 132.488 30.04C 132.488 29.208 132.36 28.632 132.36 28.632L 132.424 28.632C 133.544 30.36 135.4 31.384 137.448 31.384C 141.704 31.384 144.776 28.056 144.776 22.904C 144.776 17.88 142.056 14.424 137.672 14.424C 135.304 14.424 133.256 15.512 132.232 17.464L 132.168 17.464C 132.168 17.464 132.264 16.92 132.264 16.248L 132.264 14.808L 129.384 14.808L 129.384 37.4ZM 132.392 22.968C 132.392 18.872 134.632 17.144 137.064 17.144C 139.752 17.144 141.64 19.416 141.64 22.936C 141.64 26.616 139.528 28.696 136.968 28.696C 133.992 28.696 132.392 25.848 132.392 22.968ZM 148.603 31L 155.515 31C 159.035 31 161.467 29.4 161.467 26.392C 161.467 24.6 160.411 23.032 158.395 22.552L 158.395 22.52C 159.867 21.88 160.699 20.536 160.699 18.968C 160.699 16.248 158.555 14.808 155.291 14.808L 148.603 14.808L 148.603 31ZM 151.707 21.656L 151.707 16.952L 154.651 16.952C 156.603 16.952 157.531 17.72 157.531 19.192C 157.531 20.696 156.603 21.656 154.747 21.656L 151.707 21.656ZM 151.707 28.824L 151.707 23.736L 155.003 23.736C 157.147 23.736 158.331 24.696 158.331 26.296C 158.331 27.8 157.275 28.824 155.035 28.824L 151.707 28.824ZM 5.66175 68.44C 7.70975 65.24 7.96575 60.632 7.96575 58.2L 7.96575 57.336L 12.8298 57.336L 12.8298 68.44L 5.66175 68.44ZM 0.47775 68.44L 0.47775 74.84L 3.38975 74.84L 3.38975 71L 15.3897 71L 15.3897 74.84L 18.2377 74.84L 18.2377 68.44L 15.9338 68.44L 15.9338 54.808L 4.98975 54.808L 4.98975 57.784C 4.98975 60.28 4.73375 65.336 2.46175 68.44L 0.47775 68.44ZM 19.7337 71.16C 24.5017 70.904 26.3577 67.128 26.3577 59.8L 26.3577 57.368L 31.1257 57.368L 31.1257 71L 34.2297 71L 34.2297 54.808L 23.3818 54.808L 23.3818 59.8C 23.3818 65.656 22.1017 68.024 19.7337 68.376L 19.7337 71.16ZM 37.393 71L 40.817 71L 44.785 65.144L 47.505 65.144L 47.505 71L 50.609 71L 50.609 54.808L 44.145 54.808C 40.721 54.808 38.353 56.568 38.353 59.896C 38.353 62.36 40.017 64.088 41.873 64.6L 41.873 64.632C 41.873 64.632 41.489 65.048 41.137 65.624L 37.393 71ZM 44.817 62.872C 42.929 62.872 41.489 61.88 41.489 59.864C 41.489 57.784 42.833 56.952 44.913 56.952L 47.505 56.952L 47.505 62.872L 44.817 62.872ZM 62.344 62.904C 62.344 67.768 65.896 71.384 71.016 71.384C 73.544 71.384 76.008 70.36 77.48 68.792L 76.232 66.52C 74.984 67.832 73.032 68.696 71.24 68.696C 67.88 68.696 65.512 66.168 65.512 62.872C 65.512 59.576 67.88 57.112 71.144 57.112C 72.84 57.112 74.536 57.88 75.624 58.968L 77.096 56.792C 75.56 55.16 73.16 54.424 71.016 54.424C 65.928 54.424 62.344 58.104 62.344 62.904ZM 84.7415 71L 87.8135 71L 87.8135 57.464L 93.4775 57.464L 93.4775 54.808L 79.1095 54.808L 79.1095 57.464L 84.7415 57.464L 84.7415 71ZM 96.525 77.4L 99.629 77.4L 99.629 70.04C 99.629 69.208 99.501 68.632 99.501 68.632L 99.565 68.632C 100.685 70.36 102.541 71.384 104.589 71.384C 108.845 71.384 111.917 68.056 111.917 62.904C 111.917 57.88 109.197 54.424 104.813 54.424C 102.445 54.424 100.397 55.512 99.373 57.464L 99.309 57.464C 99.309 57.464 99.405 56.92 99.405 56.248L 99.405 54.808L 96.525 54.808L 96.525 77.4ZM 99.533 62.968C 99.533 58.872 101.773 57.144 104.205 57.144C 106.893 57.144 108.781 59.416 108.781 62.936C 108.781 66.616 106.669 68.696 104.109 68.696C 101.133 68.696 99.533 65.848 99.533 62.968ZM 114.4 66.584C 114.4 69.624 116.992 71.384 119.808 71.384C 122.208 71.384 124.192 69.944 125.12 68.088L 125.184 68.088C 125.184 68.088 125.088 68.632 125.088 69.368L 125.088 71L 128 71L 128 60.76C 128 56.664 125.664 54.424 121.6 54.424C 119.328 54.424 116.864 55.256 115.552 56.344L 116.8 58.616C 118.112 57.688 119.744 57.048 121.344 57.048C 123.36 57.048 124.896 57.944 124.896 60.6L 124.896 60.92L 124.064 60.92C 120.704 60.92 114.4 61.496 114.4 66.584ZM 117.504 66.328C 117.504 63.352 121.792 63.16 124.096 63.16L 124.896 63.16L 124.896 63.768C 124.896 66.168 123.264 68.92 120.544 68.92C 118.528 68.92 117.504 67.608 117.504 66.328ZM 130.732 71L 134.252 71L 137.643 65.592C 137.899 65.208 138.123 64.728 138.123 64.728L 138.188 64.728C 138.188 64.728 138.443 65.208 138.7 65.592L 142.092 71L 145.611 71L 140.075 62.68L 145.292 54.808L 141.74 54.808L 138.731 59.736C 138.507 60.152 138.188 60.696 138.188 60.696L 138.123 60.696C 138.123 60.696 137.835 60.152 137.611 59.736L 134.603 54.808L 131.052 54.808L 136.267 62.68L 130.732 71ZM 146.969 62.872C 146.969 67.8 150.873 71.384 155.705 71.384C 160.505 71.384 164.409 67.8 164.409 62.872C 164.409 57.976 160.505 54.424 155.673 54.424C 150.873 54.424 146.969 57.976 146.969 62.872ZM 150.137 62.872C 150.137 59.512 152.633 57.112 155.705 57.112C 158.745 57.112 161.273 59.512 161.273 62.872C 161.273 66.264 158.745 68.696 155.705 68.696C 152.633 68.696 150.137 66.264 150.137 62.872ZM 168.15 71L 175.062 71C 178.582 71 181.014 69.4 181.014 66.392C 181.014 64.6 179.958 63.032 177.942 62.552L 177.942 62.52C 179.414 61.88 180.246 60.536 180.246 58.968C 180.246 56.248 178.102 54.808 174.838 54.808L 168.15 54.808L 168.15 71ZM 171.254 61.656L 171.254 56.952L 174.198 56.952C 176.15 56.952 177.078 57.72 177.078 59.192C 177.078 60.696 176.15 61.656 174.294 61.656L 171.254 61.656ZM 171.254 68.824L 171.254 63.736L 174.55 63.736C 176.694 63.736 177.878 64.696 177.878 66.296C 177.878 67.8 176.822 68.824 174.582 68.824L 171.254 68.824ZM 199.431 71L 202.535 71L 202.535 54.808L 199.431 54.808L 199.431 71ZM 184.775 71L 191.015 71C 195.079 71 196.935 68.92 196.935 65.88C 196.935 62.2 194.407 60.664 191.047 60.664L 187.879 60.664L 187.879 54.808L 184.775 54.808L 184.775 71ZM 187.879 68.76L 187.879 62.904L 190.567 62.904C 192.807 62.904 193.799 64.12 193.799 65.848C 193.799 67.544 192.839 68.76 190.599 68.76L 187.879 68.76ZM 205.482 71L 209.002 71L 212.393 65.592C 212.649 65.208 212.873 64.728 212.873 64.728L 212.938 64.728C 212.938 64.728 213.193 65.208 213.45 65.592L 216.842 71L 220.361 71L 214.825 62.68L 220.042 54.808L 216.49 54.808L 213.481 59.736C 213.257 60.152 212.938 60.696 212.938 60.696L 212.873 60.696C 212.873 60.696 212.585 60.152 212.361 59.736L 209.353 54.808L 205.802 54.808L 211.017 62.68L 205.482 71ZM 62.9156 111L 69.8276 111C 73.3476 111 75.7796 109.4 75.7796 106.392C 75.7796 104.6 74.7236 103.032 72.7076 102.552L 72.7076 102.52C 74.1796 101.88 75.0116 100.536 75.0116 98.968C 75.0116 96.248 72.8676 94.808 69.6036 94.808L 62.9156 94.808L 62.9156 111ZM 66.0196 101.656L 66.0196 96.952L 68.9636 96.952C 70.9156 96.952 71.8436 97.72 71.8436 99.192C 71.8436 100.696 70.9156 101.656 69.0596 101.656L 66.0196 101.656ZM 66.0196 108.824L 66.0196 103.736L 69.3156 103.736C 71.4596 103.736 72.6436 104.696 72.6436 106.296C 72.6436 107.8 71.5876 108.824 69.3476 108.824L 66.0196 108.824ZM 94.1966 111L 97.3006 111L 97.3006 94.808L 94.1966 94.808L 94.1966 111ZM 79.5406 111L 85.7806 111C 89.8446 111 91.7006 108.92 91.7006 105.88C 91.7006 102.2 89.1726 100.664 85.8126 100.664L 82.6446 100.664L 82.6446 94.808L 79.5406 94.808L 79.5406 111ZM 82.6446 108.76L 82.6446 102.904L 85.3326 102.904C 87.5726 102.904 88.5646 104.12 88.5646 105.848C 88.5646 107.544 87.6046 108.76 85.3646 108.76L 82.6446 108.76ZM 102.103 111L 105.207 111L 105.207 97.464L 113.143 97.464L 113.143 111L 116.247 111L 116.247 94.808L 102.103 94.808L 102.103 111ZM 119.281 111.16C 124.049 110.904 125.905 107.128 125.905 99.8L 125.905 97.368L 130.673 97.368L 130.673 111L 133.777 111L 133.777 94.808L 122.929 94.808L 122.929 99.8C 122.929 105.656 121.649 108.024 119.281 108.376L 119.281 111.16ZM 137.228 106.584C 137.228 109.624 139.82 111.384 142.636 111.384C 145.036 111.384 147.02 109.944 147.948 108.088L 148.012 108.088C 148.012 108.088 147.916 108.632 147.916 109.368L 147.916 111L 150.828 111L 150.828 100.76C 150.828 96.664 148.492 94.424 144.428 94.424C 142.156 94.424 139.692 95.256 138.38 96.344L 139.628 98.616C 140.94 97.688 142.572 97.048 144.172 97.048C 146.188 97.048 147.724 97.944 147.724 100.6L 147.724 100.92L 146.892 100.92C 143.532 100.92 137.228 101.496 137.228 106.584ZM 140.332 106.328C 140.332 103.352 144.62 103.16 146.924 103.16L 147.724 103.16L 147.724 103.768C 147.724 106.168 146.092 108.92 143.372 108.92C 141.356 108.92 140.332 107.608 140.332 106.328ZM 159.101 111L 162.173 111L 162.173 97.464L 167.837 97.464L 167.837 94.808L 153.469 94.808L 153.469 97.464L 159.101 97.464L 159.101 111Z"/>
<path id="path6_fill" d="M 27.5527 54L 3.33008 54L 3.33008 50.623L 16.127 36.4043C 18.0228 34.2546 19.3262 32.5111 20.0371 31.1738C 20.765 29.8197 21.1289 28.4232 21.1289 26.9844C 21.1289 25.0547 20.5449 23.472 19.377 22.2363C 18.209 21.0007 16.6517 20.3828 14.7051 20.3828C 12.3691 20.3828 10.5495 21.0514 9.24609 22.3887C 7.95964 23.709 7.31641 25.554 7.31641 27.9238L 2.61914 27.9238C 2.61914 24.5215 3.71094 21.7708 5.89453 19.6719C 8.09505 17.5729 11.0319 16.5234 14.7051 16.5234C 18.1413 16.5234 20.8581 17.429 22.8555 19.2402C 24.8529 21.0345 25.8516 23.4297 25.8516 26.4258C 25.8516 30.0651 23.5326 34.3984 18.8945 39.4258L 8.99219 50.166L 27.5527 50.166L 27.5527 54ZM 55.7109 38.2324C 55.7109 43.7337 54.7715 47.8216 52.8926 50.4961C 51.0137 53.1706 48.0768 54.5078 44.082 54.5078C 40.138 54.5078 37.2181 53.2044 35.3223 50.5977C 33.4264 47.974 32.4447 44.0638 32.377 38.8672L 32.377 32.5957C 32.377 27.1621 33.3164 23.125 35.1953 20.4844C 37.0742 17.8438 40.0195 16.5234 44.0312 16.5234C 48.0091 16.5234 50.9375 17.8014 52.8164 20.3574C 54.6953 22.8965 55.6602 26.8236 55.7109 32.1387L 55.7109 38.2324ZM 51.0137 31.8086C 51.0137 27.8307 50.4551 24.9362 49.3379 23.125C 48.2207 21.2969 46.4518 20.3828 44.0312 20.3828C 41.6276 20.3828 39.8757 21.2884 38.7754 23.0996C 37.6751 24.9108 37.1081 27.6953 37.0742 31.4531L 37.0742 38.9688C 37.0742 42.9635 37.6497 45.9173 38.8008 47.8301C 39.9688 49.7259 41.7292 50.6738 44.082 50.6738C 46.401 50.6738 48.1191 49.7767 49.2363 47.9824C 50.3704 46.1882 50.9629 43.3613 51.0137 39.502L 51.0137 31.8086ZM 61.3223 24.1406C 61.3223 21.9232 62.0247 20.0951 63.4297 18.6562C 64.8516 17.2174 66.6712 16.498 68.8887 16.498C 71.14 16.498 72.9596 17.2259 74.3477 18.6816C 75.7526 20.1204 76.4551 21.9909 76.4551 24.293L 76.4551 26.0957C 76.4551 28.3301 75.7441 30.1582 74.3223 31.5801C 72.9173 32.985 71.123 33.6875 68.9395 33.6875C 66.7389 33.6875 64.9193 32.985 63.4805 31.5801C 62.0417 30.1582 61.3223 28.2708 61.3223 25.918L 61.3223 24.1406ZM 64.8262 26.0957C 64.8262 27.416 65.1986 28.5078 65.9434 29.3711C 66.6882 30.2174 67.6868 30.6406 68.9395 30.6406C 70.1413 30.6406 71.1061 30.2259 71.834 29.3965C 72.5788 28.5671 72.9512 27.4329 72.9512 25.9941L 72.9512 24.1406C 72.9512 22.8203 72.5872 21.7285 71.8594 20.8652C 71.1315 20.002 70.1413 19.5703 68.8887 19.5703C 67.6361 19.5703 66.6458 20.002 65.918 20.8652C 65.1901 21.7285 64.8262 22.8542 64.8262 24.2422L 64.8262 26.0957ZM 79.3242 44.9355C 79.3242 42.7181 80.0267 40.8984 81.4316 39.4766C 82.8535 38.0378 84.6732 37.3184 86.8906 37.3184C 89.1081 37.3184 90.9277 38.0293 92.3496 39.4512C 93.7715 40.873 94.4824 42.7604 94.4824 45.1133L 94.4824 46.916C 94.4824 49.1335 93.7715 50.9616 92.3496 52.4004C 90.9447 53.8223 89.1419 54.5332 86.9414 54.5332C 84.7409 54.5332 82.9212 53.8307 81.4824 52.4258C 80.0436 51.0039 79.3242 49.1165 79.3242 46.7637L 79.3242 44.9355ZM 82.8281 46.916C 82.8281 48.2533 83.2005 49.3535 83.9453 50.2168C 84.6901 51.0632 85.6888 51.4863 86.9414 51.4863C 88.1602 51.4863 89.1335 51.0716 89.8613 50.2422C 90.5892 49.3958 90.9531 48.2533 90.9531 46.8145L 90.9531 44.9355C 90.9531 43.5983 90.5807 42.5065 89.8359 41.6602C 89.1081 40.8138 88.1263 40.3906 86.8906 40.3906C 85.6888 40.3906 84.707 40.8138 83.9453 41.6602C 83.2005 42.4896 82.8281 43.6152 82.8281 45.0371L 82.8281 46.916ZM 70.0059 51.207L 67.3398 49.5312L 85.3926 20.6367L 88.0586 22.3125L 70.0059 51.207Z"/>
<path id="path7_stroke" d="M 212.031 169.313C 212.032 169.865 212.48 170.312 213.032 170.312C 213.585 170.311 214.032 169.863 214.031 169.311L 212.031 169.313ZM -3.28045e-16 -1C -0.552285 -1 -1 -0.552285 -1 3.28045e-16C -1 0.552285 -0.552285 1 3.28045e-16 1L -3.28045e-16 -1ZM 214.031 169.311C 214.023 160.549 210.784 145.54 203.447 127.996C 196.111 110.459 184.597 90.2307 168.039 71.1337C 134.873 32.8963 81.356 -1 -3.28045e-16 -1L 3.28045e-16 1C 80.724 1 133.707 34.6037 166.529 72.4442C 182.965 91.3861 194.316 111.341 201.602 128.767C 208.886 146.185 212.024 160.918 212.031 169.313L 214.031 169.311Z"/>
<path id="path8_stroke" d="M -0.704336 9.29013C -1.09638 9.67913 -1.09886 10.3123 -0.709867 10.7043C -0.320873 11.0964 0.312287 11.0989 0.704336 10.7099L -0.704336 9.29013ZM 10.0785 0L 10.7884 -0.704314C 10.6016 -0.892592 10.3477 -0.998951 10.0825 -0.999992C 9.81723 -1.00103 9.56246 -0.896672 9.37419 -0.709867L 10.0785 0ZM 19.2901 10.7043C 19.6791 11.0964 20.3123 11.0989 20.7043 10.7099C 21.0964 10.3209 21.0989 9.68775 20.7099 9.29569L 19.2901 10.7043ZM 0.704336 10.7099L 10.7829 0.709867L 9.37419 -0.709867L -0.704336 9.29013L 0.704336 10.7099ZM 9.36864 0.704314L 19.2901 10.7043L 20.7099 9.29569L 10.7884 -0.704314L 9.36864 0.704314Z"/>
<path id="path9_stroke" d="M 227.031 203.311C 227.032 203.863 227.48 204.311 228.032 204.31C 228.585 204.309 229.032 203.861 229.031 203.309L 227.031 203.311ZM -2.61243e-16 -1C -0.552285 -1 -1 -0.552285 -1 2.61243e-16C -1 0.552285 -0.552285 1 2.61243e-16 1L -2.61243e-16 -1ZM 229.031 203.309C 229.016 186.139 227.485 135.036 198.131 88.2562C 168.681 41.3899 111.339 -1 -2.61243e-16 -1L 2.61243e-16 1C 110.742 1 167.399 43.1094 196.437 89.3203C 225.571 135.618 227.016 186.169 227.031 203.311L 229.031 203.309Z"/>
<path id="path10_stroke" d="M 227.032 203.311C 227.032 203.863 227.48 204.311 228.032 204.31C 228.585 204.31 229.032 203.862 229.032 203.309L 227.032 203.311ZM 211.619 114.115C 211.402 113.607 210.815 113.37 210.307 113.587C 209.799 113.804 209.562 114.391 209.779 114.899L 211.619 114.115ZM 75.2151 8.72199C 75.7538 8.8439 76.2893 8.50606 76.4112 7.9674C 76.5331 7.42874 76.1953 6.89324 75.6566 6.77132L 75.2151 8.72199ZM -2.61243e-16 -1C -0.552285 -1 -1 -0.552285 -1 2.61243e-16C -1 0.552285 -0.552285 1 2.61243e-16 1L -2.61243e-16 -1ZM 229.032 203.309C 229.019 189.276 228 152.57 211.619 114.115L 209.779 114.899C 226.046 152.997 227.019 189.304 227.032 203.311L 229.032 203.309ZM 75.6566 6.77132C 53.7368 1.81177 28.6303 -0.998447 -2.61243e-16 -1L 2.61243e-16 1C 28.5189 0.998447 53.4043 3.78393 75.2151 8.72199L 75.6566 6.77132Z"/>
<path id="path11_fill" d="M 5.77668 20.774C 5.77668 23.972 8.53268 26.312 12.1467 26.312C 15.9947 26.312 18.4387 23.79 18.4387 20.93C 18.4387 19.032 17.3727 17.888 15.9427 17.03C 16.4887 16.484 18.1527 14.534 18.1527 12.22C 18.1527 9.256 15.7867 7.332 12.3807 7.332C 8.50668 7.332 6.66068 9.672 6.66068 12.194C 6.66068 13.858 7.51868 14.976 8.71468 15.808C 8.01268 16.276 5.77668 17.992 5.77668 20.774ZM 13.9667 16.042C 11.6787 15.028 9.20868 14.274 9.20868 12.194C 9.20868 10.79 10.3267 9.646 12.3287 9.646C 14.2787 9.646 15.6307 10.686 15.6307 12.428C 15.6307 14.222 14.3567 15.626 13.9667 16.042ZM 8.40268 20.566C 8.40268 18.564 10.0407 17.342 10.6387 16.926C 13.0307 18.07 15.8127 18.798 15.8127 20.878C 15.8127 22.75 14.0707 23.998 12.1207 23.998C 10.2227 23.998 8.40268 22.62 8.40268 20.566ZM 28.0987 26.312C 33.0127 26.312 34.5987 22.1 34.5987 16.796C 34.5987 11.518 33.0127 7.332 28.0987 7.332C 23.2107 7.332 21.5987 11.518 21.5987 16.796C 21.5987 22.1 23.2107 26.312 28.0987 26.312ZM 28.0987 23.946C 25.1087 23.946 24.2507 20.826 24.2507 16.796C 24.2507 12.818 25.1087 9.698 28.0987 9.698C 31.1147 9.698 31.9467 12.818 31.9467 16.796C 31.9467 20.826 31.1147 23.946 28.0987 23.946ZM 41.3865 15.028C 43.5705 15.028 45.3645 13.312 45.3645 11.18C 45.3645 9.074 43.5705 7.332 41.3865 7.332C 39.2025 7.332 37.4605 9.074 37.4605 11.18C 37.4605 13.312 39.2025 15.028 41.3865 15.028ZM 37.8505 26L 40.3205 26L 54.3605 7.644L 51.9165 7.644L 37.8505 26ZM 41.3865 13.104C 40.3205 13.104 39.4885 12.272 39.4885 11.18C 39.4885 10.114 40.3205 9.23 41.3865 9.23C 42.4785 9.23 43.3365 10.114 43.3365 11.18C 43.3365 12.272 42.4785 13.104 41.3865 13.104ZM 46.8985 22.49C 46.8985 24.596 48.6405 26.312 50.8245 26.312C 53.0085 26.312 54.7765 24.596 54.7765 22.49C 54.7765 20.358 53.0085 18.616 50.8245 18.616C 48.6405 18.616 46.8985 20.358 46.8985 22.49ZM 48.9265 22.464C 48.9265 21.398 49.7325 20.514 50.8245 20.514C 51.9165 20.514 52.7485 21.398 52.7485 22.464C 52.7485 23.53 51.9165 24.388 50.8245 24.388C 49.7325 24.388 48.9265 23.53 48.9265 22.464ZM 64.4666 26L 66.9886 26L 66.9886 20.358L 73.6446 20.358L 73.6446 26L 76.1666 26L 76.1666 12.844L 73.6446 12.844L 73.6446 18.2L 66.9886 18.2L 66.9886 12.844L 64.4666 12.844L 64.4666 26ZM 78.9644 22.412C 78.9644 24.882 81.0704 26.312 83.3584 26.312C 85.3084 26.312 86.9204 25.142 87.6744 23.634L 87.7264 23.634C 87.7264 23.634 87.6484 24.076 87.6484 24.674L 87.6484 26L 90.0144 26L 90.0144 17.68C 90.0144 14.352 88.1164 12.532 84.8144 12.532C 82.9684 12.532 80.9664 13.208 79.9004 14.092L 80.9144 15.938C 81.9804 15.184 83.3064 14.664 84.6064 14.664C 86.2444 14.664 87.4924 15.392 87.4924 17.55L 87.4924 17.81L 86.8164 17.81C 84.0864 17.81 78.9644 18.278 78.9644 22.412ZM 81.4864 22.204C 81.4864 19.786 84.9704 19.63 86.8424 19.63L 87.4924 19.63L 87.4924 20.124C 87.4924 22.074 86.1664 24.31 83.9564 24.31C 82.3184 24.31 81.4864 23.244 81.4864 22.204ZM 99.592 28.73L 98.708 30.654C 98.708 30.654 99.774 31.46 101.23 31.46C 103.076 31.46 104.714 30.42 105.494 28.366L 111.682 12.844L 108.952 12.844L 105.754 21.476C 105.52 22.152 105.312 23.036 105.312 23.036L 105.26 23.036C 105.26 23.036 105.026 22.1 104.766 21.45L 101.464 12.844L 98.63 12.844L 104.142 25.844L 103.492 27.352C 102.998 28.548 102.14 29.302 101.1 29.302C 100.32 29.302 99.592 28.73 99.592 28.73ZM 114.156 26L 119.772 26C 122.632 26 124.608 24.7 124.608 22.256C 124.608 20.8 123.75 19.526 122.112 19.136L 122.112 19.11C 123.308 18.59 123.984 17.498 123.984 16.224C 123.984 14.014 122.242 12.844 119.59 12.844L 114.156 12.844L 114.156 26ZM 116.678 18.408L 116.678 14.586L 119.07 14.586C 120.656 14.586 121.41 15.21 121.41 16.406C 121.41 17.628 120.656 18.408 119.148 18.408L 116.678 18.408ZM 116.678 24.232L 116.678 20.098L 119.356 20.098C 121.098 20.098 122.06 20.878 122.06 22.178C 122.06 23.4 121.202 24.232 119.382 24.232L 116.678 24.232ZM 126.806 19.422C 126.806 23.322 129.666 26.312 133.8 26.312C 135.62 26.312 137.622 25.61 138.896 24.44L 137.83 22.594C 136.79 23.53 135.36 24.128 133.956 24.128C 131.59 24.128 129.562 22.594 129.432 19.76L 139 19.76C 139.052 19.396 139.104 19.032 139.104 18.694C 139.104 15.314 137.128 12.532 133.41 12.532C 129.666 12.532 126.806 15.236 126.806 19.422ZM 129.51 17.94C 129.874 15.756 131.408 14.482 133.358 14.482C 135.074 14.482 136.478 15.678 136.556 17.94L 129.51 17.94ZM 140.707 26.13C 144.581 25.922 146.089 22.854 146.089 16.9L 146.089 14.924L 149.963 14.924L 149.963 26L 152.485 26L 152.485 12.844L 143.671 12.844L 143.671 16.9C 143.671 21.658 142.631 23.582 140.707 23.868L 140.707 26.13ZM 156.381 26L 158.799 26L 164.493 18.148C 164.909 17.524 165.559 16.64 165.637 16.406L 165.689 16.406C 165.689 16.614 165.611 17.524 165.611 18.148L 165.611 26L 168.055 26L 168.055 12.844L 165.611 12.844L 159.943 20.696C 159.501 21.32 158.877 22.23 158.773 22.464L 158.721 22.464C 158.747 22.334 158.799 21.398 158.799 20.696L 158.799 12.844L 156.381 12.844L 156.381 26ZM 175.508 21.424C 176.808 21.424 178.238 20.982 179.07 20.462L 179.122 20.462C 179.122 20.462 179.096 20.878 179.096 21.242L 179.096 26L 181.618 26L 181.618 12.844L 179.096 12.844L 179.096 18.304C 178.55 18.694 177.484 19.24 176.184 19.24C 174.026 19.24 173.558 18.07 173.558 16.77L 173.558 12.844L 171.088 12.844L 171.088 17.134C 171.088 19.942 172.7 21.424 175.508 21.424ZM 184.671 19.422C 184.671 23.322 187.531 26.312 191.665 26.312C 193.485 26.312 195.487 25.61 196.761 24.44L 195.695 22.594C 194.655 23.53 193.225 24.128 191.821 24.128C 189.455 24.128 187.427 22.594 187.297 19.76L 196.865 19.76C 196.917 19.396 196.969 19.032 196.969 18.694C 196.969 15.314 194.993 12.532 191.275 12.532C 187.531 12.532 184.671 15.236 184.671 19.422ZM 187.375 17.94C 187.739 15.756 189.273 14.482 191.223 14.482C 192.939 14.482 194.343 15.678 194.421 17.94L 187.375 17.94ZM 200.002 26L 202.524 26L 202.524 20.358L 209.18 20.358L 209.18 26L 211.702 26L 211.702 12.844L 209.18 12.844L 209.18 18.2L 202.524 18.2L 202.524 12.844L 200.002 12.844L 200.002 26ZM 215.592 26L 218.01 26L 223.704 18.148C 224.12 17.524 224.77 16.64 224.848 16.406L 224.9 16.406C 224.9 16.614 224.822 17.524 224.822 18.148L 224.822 26L 227.266 26L 227.266 12.844L 224.822 12.844L 219.154 20.696C 218.712 21.32 218.088 22.23 217.984 22.464L 217.932 22.464C 217.958 22.334 218.01 21.398 218.01 20.696L 218.01 12.844L 215.592 12.844L 215.592 26ZM 230.273 19.422C 230.273 23.322 233.133 26.312 237.267 26.312C 239.087 26.312 241.089 25.61 242.363 24.44L 241.297 22.594C 240.257 23.53 238.827 24.128 237.423 24.128C 235.057 24.128 233.029 22.594 232.899 19.76L 242.467 19.76C 242.519 19.396 242.571 19.032 242.571 18.694C 242.571 15.314 240.595 12.532 236.877 12.532C 233.133 12.532 230.273 15.236 230.273 19.422ZM 232.977 17.94C 233.341 15.756 234.875 14.482 236.825 14.482C 238.541 14.482 239.945 15.678 240.023 17.94L 232.977 17.94ZM 1.37618 53.396C 1.37618 57.4 4.54818 60.312 8.47418 60.312C 12.3742 60.312 15.5462 57.4 15.5462 53.396C 15.5462 49.418 12.3742 46.532 8.44818 46.532C 4.54818 46.532 1.37618 49.418 1.37618 53.396ZM 3.95018 53.396C 3.95018 50.666 5.97818 48.716 8.47418 48.716C 10.9442 48.716 12.9982 50.666 12.9982 53.396C 12.9982 56.152 10.9442 58.128 8.47418 58.128C 5.97818 58.128 3.95018 56.152 3.95018 53.396ZM 18.0137 52.434C 18.0137 56.984 20.0157 60.312 24.4617 60.312C 28.1797 60.312 30.6757 57.712 30.6757 54.072C 30.6757 50.354 28.3877 48.014 25.0857 48.014C 23.3437 48.014 21.6017 48.586 20.4317 50.354L 20.3797 50.354C 20.5617 47.832 21.8097 46.298 24.4357 45.102L 29.4797 42.996L 28.6477 40.916L 23.9417 42.944C 19.3657 44.868 18.0137 47.728 18.0137 52.434ZM 20.6397 54.072C 20.6397 51.758 22.2257 50.016 24.4617 50.016C 26.4377 50.016 28.1277 51.55 28.1277 54.124C 28.1277 56.672 26.4377 58.18 24.3577 58.18C 22.3297 58.18 20.6397 56.672 20.6397 54.072ZM 35.2859 60L 40.4339 60C 43.7359 60 45.2179 58.31 45.2179 55.84C 45.2179 52.85 43.1899 51.602 40.4599 51.602L 37.8079 51.602L 37.8079 46.844L 31.7239 46.844L 31.7239 49.002L 35.2859 49.002L 35.2859 60ZM 37.8079 58.18L 37.8079 53.422L 40.0699 53.422C 41.8899 53.422 42.6699 54.41 42.6699 55.814C 42.6699 57.192 41.8899 58.18 40.0699 58.18L 37.8079 58.18ZM 54.6973 44.244L 56.7513 44.244L 56.7513 41.618L 54.6973 41.618L 54.6973 44.244ZM 50.3293 44.244L 52.4093 44.244L 52.4093 41.618L 50.3293 41.618L 50.3293 44.244ZM 47.0793 53.422C 47.0793 57.322 49.9393 60.312 54.0733 60.312C 55.8933 60.312 57.8953 59.61 59.1693 58.44L 58.1033 56.594C 57.0633 57.53 55.6333 58.128 54.2293 58.128C 51.8633 58.128 49.8353 56.594 49.7053 53.76L 59.2733 53.76C 59.3253 53.396 59.3773 53.032 59.3773 52.694C 59.3773 49.314 57.4013 46.532 53.6833 46.532C 49.9393 46.532 47.0793 49.236 47.0793 53.422ZM 49.7833 51.94C 50.1473 49.756 51.6813 48.482 53.6313 48.482C 55.3473 48.482 56.7513 49.678 56.8293 51.94L 49.7833 51.94ZM 61.864 60L 64.308 60L 64.88 52.174C 64.932 51.394 64.854 49.912 64.854 49.912L 64.906 49.912C 64.906 49.912 65.322 50.9 65.738 51.862L 68.858 58.414L 71.016 58.414L 74.136 51.836C 74.63 50.822 74.968 49.912 74.968 49.912L 75.02 49.912C 75.02 49.912 74.968 51.394 74.994 52.174L 75.566 60L 78.01 60L 76.866 46.844L 74.11 46.844L 70.678 54.28C 70.34 55.086 69.95 56.048 69.95 56.048L 69.898 56.048C 69.898 56.048 69.534 55.06 69.17 54.28L 65.816 46.844L 63.008 46.844L 61.864 60ZM 80.3101 56.412C 80.3101 58.882 82.4161 60.312 84.7041 60.312C 86.6541 60.312 88.2661 59.142 89.0201 57.634L 89.0721 57.634C 89.0721 57.634 88.9941 58.076 88.9941 58.674L 88.9941 60L 91.3601 60L 91.3601 51.68C 91.3601 48.352 89.4621 46.532 86.1601 46.532C 84.3141 46.532 82.3121 47.208 81.2461 48.092L 82.2601 49.938C 83.3261 49.184 84.6521 48.664 85.9521 48.664C 87.5901 48.664 88.8381 49.392 88.8381 51.55L 88.8381 51.81L 88.1621 51.81C 85.4321 51.81 80.3101 52.278 80.3101 56.412ZM 82.8321 56.204C 82.8321 53.786 86.3161 53.63 88.1881 53.63L 88.8381 53.63L 88.8381 54.124C 88.8381 56.074 87.5121 58.31 85.3021 58.31C 83.6641 58.31 82.8321 57.244 82.8321 56.204ZM 100.73 53.422C 100.73 57.374 103.616 60.312 107.776 60.312C 109.83 60.312 111.832 59.48 113.028 58.206L 112.014 56.36C 111 57.426 109.414 58.128 107.958 58.128C 105.228 58.128 103.304 56.074 103.304 53.396C 103.304 50.718 105.228 48.716 107.88 48.716C 109.258 48.716 110.636 49.34 111.52 50.224L 112.716 48.456C 111.468 47.13 109.518 46.532 107.776 46.532C 103.642 46.532 100.73 49.522 100.73 53.422ZM 118.928 60L 121.424 60L 121.424 49.002L 126.026 49.002L 126.026 46.844L 114.352 46.844L 114.352 49.002L 118.928 49.002L 118.928 60ZM 128.502 65.2L 131.024 65.2L 131.024 59.22C 131.024 58.544 130.92 58.076 130.92 58.076L 130.972 58.076C 131.882 59.48 133.39 60.312 135.054 60.312C 138.512 60.312 141.008 57.608 141.008 53.422C 141.008 49.34 138.798 46.532 135.236 46.532C 133.312 46.532 131.648 47.416 130.816 49.002L 130.764 49.002C 130.764 49.002 130.842 48.56 130.842 48.014L 130.842 46.844L 128.502 46.844L 128.502 65.2ZM 130.946 53.474C 130.946 50.146 132.766 48.742 134.742 48.742C 136.926 48.742 138.46 50.588 138.46 53.448C 138.46 56.438 136.744 58.128 134.664 58.128C 132.246 58.128 130.946 55.814 130.946 53.474ZM 143.025 56.412C 143.025 58.882 145.131 60.312 147.419 60.312C 149.369 60.312 150.981 59.142 151.735 57.634L 151.787 57.634C 151.787 57.634 151.709 58.076 151.709 58.674L 151.709 60L 154.075 60L 154.075 51.68C 154.075 48.352 152.177 46.532 148.875 46.532C 147.029 46.532 145.027 47.208 143.961 48.092L 144.975 49.938C 146.041 49.184 147.367 48.664 148.667 48.664C 150.305 48.664 151.553 49.392 151.553 51.55L 151.553 51.81L 150.877 51.81C 148.147 51.81 143.025 52.278 143.025 56.412ZM 145.547 56.204C 145.547 53.786 149.031 53.63 150.903 53.63L 151.553 53.63L 151.553 54.124C 151.553 56.074 150.227 58.31 148.017 58.31C 146.379 58.31 145.547 57.244 145.547 56.204ZM 156.295 60L 159.155 60L 161.911 55.606C 162.119 55.294 162.301 54.904 162.301 54.904L 162.353 54.904C 162.353 54.904 162.561 55.294 162.769 55.606L 165.525 60L 168.385 60L 163.887 53.24L 168.125 46.844L 165.239 46.844L 162.795 50.848C 162.613 51.186 162.353 51.628 162.353 51.628L 162.301 51.628C 162.301 51.628 162.067 51.186 161.885 50.848L 159.441 46.844L 156.555 46.844L 160.793 53.24L 156.295 60ZM 169.488 53.396C 169.488 57.4 172.66 60.312 176.586 60.312C 180.486 60.312 183.658 57.4 183.658 53.396C 183.658 49.418 180.486 46.532 176.56 46.532C 172.66 46.532 169.488 49.418 169.488 53.396ZM 172.062 53.396C 172.062 50.666 174.09 48.716 176.586 48.716C 179.056 48.716 181.11 50.666 181.11 53.396C 181.11 56.152 179.056 58.128 176.586 58.128C 174.09 58.128 172.062 56.152 172.062 53.396ZM 186.697 60L 192.313 60C 195.173 60 197.149 58.7 197.149 56.256C 197.149 54.8 196.291 53.526 194.653 53.136L 194.653 53.11C 195.849 52.59 196.525 51.498 196.525 50.224C 196.525 48.014 194.783 46.844 192.131 46.844L 186.697 46.844L 186.697 60ZM 189.219 52.408L 189.219 48.586L 191.611 48.586C 193.197 48.586 193.951 49.21 193.951 50.406C 193.951 51.628 193.197 52.408 191.689 52.408L 189.219 52.408ZM 189.219 58.232L 189.219 54.098L 191.897 54.098C 193.639 54.098 194.601 54.878 194.601 56.178C 194.601 57.4 193.743 58.232 191.923 58.232L 189.219 58.232ZM 199.347 53.396C 199.347 57.4 202.519 60.312 206.445 60.312C 210.345 60.312 213.517 57.4 213.517 53.396C 213.517 49.418 210.345 46.532 206.419 46.532C 202.519 46.532 199.347 49.418 199.347 53.396ZM 201.921 53.396C 201.921 50.666 203.949 48.716 206.445 48.716C 208.915 48.716 210.969 50.666 210.969 53.396C 210.969 56.152 208.915 58.128 206.445 58.128C 203.949 58.128 201.921 56.152 201.921 53.396ZM 216.556 60L 219.078 60L 219.078 49.002L 224.798 49.002L 224.798 46.844L 216.556 46.844L 216.556 60ZM 225.956 53.396C 225.956 57.4 229.128 60.312 233.054 60.312C 236.954 60.312 240.126 57.4 240.126 53.396C 240.126 49.418 236.954 46.532 233.028 46.532C 229.128 46.532 225.956 49.418 225.956 53.396ZM 228.53 53.396C 228.53 50.666 230.558 48.716 233.054 48.716C 235.524 48.716 237.578 50.666 237.578 53.396C 237.578 56.152 235.524 58.128 233.054 58.128C 230.558 58.128 228.53 56.152 228.53 53.396ZM 76.4383 99.2L 78.9603 99.2L 78.9603 93.22C 78.9603 92.544 78.8563 92.076 78.8563 92.076L 78.9083 92.076C 79.8183 93.48 81.3263 94.312 82.9903 94.312C 86.4483 94.312 88.9443 91.608 88.9443 87.422C 88.9443 83.34 86.7343 80.532 83.1723 80.532C 81.2483 80.532 79.5843 81.416 78.7523 83.002L 78.7003 83.002C 78.7003 83.002 78.7783 82.56 78.7783 82.014L 78.7783 80.844L 76.4383 80.844L 76.4383 99.2ZM 78.8823 87.474C 78.8823 84.146 80.7023 82.742 82.6783 82.742C 84.8623 82.742 86.3963 84.588 86.3963 87.448C 86.3963 90.438 84.6803 92.128 82.6003 92.128C 80.1823 92.128 78.8823 89.814 78.8823 87.474ZM 91.1955 87.422C 91.1955 91.322 94.0555 94.312 98.1895 94.312C 100.01 94.312 102.012 93.61 103.286 92.44L 102.22 90.594C 101.18 91.53 99.7495 92.128 98.3455 92.128C 95.9795 92.128 93.9515 90.594 93.8215 87.76L 103.39 87.76C 103.442 87.396 103.494 87.032 103.494 86.694C 103.494 83.314 101.518 80.532 97.7995 80.532C 94.0555 80.532 91.1955 83.236 91.1955 87.422ZM 93.8995 85.94C 94.2635 83.756 95.7975 82.482 97.7475 82.482C 99.4635 82.482 100.868 83.678 100.946 85.94L 93.8995 85.94ZM 105.252 92.388C 106.344 93.428 108.06 94.312 110.088 94.312C 112.792 94.312 115.132 92.934 115.132 90.23C 115.132 88.54 114.092 87.552 112.766 87.136L 112.766 87.084C 113.806 86.642 114.69 85.732 114.69 84.094C 114.69 81.754 112.74 80.532 110.244 80.532C 108.164 80.532 106.682 81.208 105.668 81.962L 106.604 83.652C 107.618 82.898 108.658 82.508 109.802 82.508C 111.258 82.508 112.142 83.184 112.142 84.406C 112.142 85.732 111.128 86.304 109.646 86.304L 108.268 86.304L 108.268 88.124L 109.88 88.124C 111.726 88.124 112.584 88.852 112.584 90.126C 112.584 91.556 111.362 92.284 109.854 92.284C 108.268 92.284 107.02 91.348 106.422 90.724L 105.252 92.388ZM 117.322 87.422C 117.322 91.322 120.182 94.312 124.316 94.312C 126.136 94.312 128.138 93.61 129.412 92.44L 128.346 90.594C 127.306 91.53 125.876 92.128 124.472 92.128C 122.106 92.128 120.078 90.594 119.948 87.76L 129.516 87.76C 129.568 87.396 129.62 87.032 129.62 86.694C 129.62 83.314 127.644 80.532 123.926 80.532C 120.182 80.532 117.322 83.236 117.322 87.422ZM 120.026 85.94C 120.39 83.756 121.924 82.482 123.874 82.482C 125.59 82.482 126.994 83.678 127.072 85.94L 120.026 85.94ZM 132.653 99.2L 135.175 99.2L 135.175 93.22C 135.175 92.544 135.071 92.076 135.071 92.076L 135.123 92.076C 136.033 93.48 137.541 94.312 139.205 94.312C 142.663 94.312 145.159 91.608 145.159 87.422C 145.159 83.34 142.949 80.532 139.387 80.532C 137.463 80.532 135.799 81.416 134.967 83.002L 134.915 83.002C 134.915 83.002 134.993 82.56 134.993 82.014L 134.993 80.844L 132.653 80.844L 132.653 99.2ZM 135.097 87.474C 135.097 84.146 136.917 82.742 138.893 82.742C 141.077 82.742 142.611 84.588 142.611 87.448C 142.611 90.438 140.895 92.128 138.815 92.128C 136.397 92.128 135.097 89.814 135.097 87.474ZM 148.268 94L 153.884 94C 156.744 94 158.72 92.7 158.72 90.256C 158.72 88.8 157.862 87.526 156.224 87.136L 156.224 87.11C 157.42 86.59 158.096 85.498 158.096 84.224C 158.096 82.014 156.354 80.844 153.702 80.844L 148.268 80.844L 148.268 94ZM 150.79 86.408L 150.79 82.586L 153.182 82.586C 154.768 82.586 155.522 83.21 155.522 84.406C 155.522 85.628 154.768 86.408 153.26 86.408L 150.79 86.408ZM 150.79 92.232L 150.79 88.098L 153.468 88.098C 155.21 88.098 156.172 88.878 156.172 90.178C 156.172 91.4 155.314 92.232 153.494 92.232L 150.79 92.232ZM 160.684 90.412C 160.684 92.882 162.79 94.312 165.078 94.312C 167.028 94.312 168.64 93.142 169.394 91.634L 169.446 91.634C 169.446 91.634 169.368 92.076 169.368 92.674L 169.368 94L 171.734 94L 171.734 85.68C 171.734 82.352 169.836 80.532 166.534 80.532C 164.688 80.532 162.686 81.208 161.62 82.092L 162.634 83.938C 163.7 83.184 165.026 82.664 166.326 82.664C 167.964 82.664 169.212 83.392 169.212 85.55L 169.212 85.81L 168.536 85.81C 165.806 85.81 160.684 86.278 160.684 90.412ZM 163.206 90.204C 163.206 87.786 166.69 87.63 168.562 87.63L 169.212 87.63L 169.212 88.124C 169.212 90.074 167.886 92.31 165.676 92.31C 164.038 92.31 163.206 91.244 163.206 90.204Z"/>
<path id="path12_stroke" d="M 1 0C 1 -0.552285 0.552285 -1 0 -1C -0.552285 -1 -1 -0.552285 -1 0L 1 0ZM -1 85.9874C -1 86.5397 -0.552285 86.9874 0 86.9874C 0.552285 86.9874 1 86.5397 1 85.9874L -1 85.9874ZM 1 159.997C 1 159.445 0.552285 158.997 2.27374e-13 158.997C -0.552285 158.997 -1 159.445 -1 159.997L 1 159.997ZM -1 245.137C -1 245.689 -0.552285 246.137 2.27374e-13 246.137C 0.552285 246.137 1 245.689 1 245.137L -1 245.137ZM -1 0L -1 85.9874L 1 85.9874L 1 0L -1 0ZM -1 159.997L -1 245.137L 1 245.137L 1 159.997L -1 159.997Z"/>
<path id="path13_fill" d="M 1.6059 26L 13.4359 26L 13.4359 23.764L 4.2839 23.764C 4.3879 19.578 13.1499 18.642 13.1499 12.61C 13.1499 9.438 10.7319 7.332 7.3779 7.332C 4.6739 7.332 2.5939 8.892 1.5539 10.816L 3.4519 12.09C 4.2319 10.764 5.6359 9.75 7.1699 9.75C 9.1199 9.75 10.4979 10.998 10.4979 12.792C 10.4979 17.108 1.4759 18.07 1.4759 24.596C 1.4759 25.038 1.5279 25.506 1.6059 26ZM 23.0362 26.312C 27.9502 26.312 29.5362 22.1 29.5362 16.796C 29.5362 11.518 27.9502 7.332 23.0362 7.332C 18.1482 7.332 16.5362 11.518 16.5362 16.796C 16.5362 22.1 18.1482 26.312 23.0362 26.312ZM 23.0362 23.946C 20.0462 23.946 19.1882 20.826 19.1882 16.796C 19.1882 12.818 20.0462 9.698 23.0362 9.698C 26.0522 9.698 26.8842 12.818 26.8842 16.796C 26.8842 20.826 26.0522 23.946 23.0362 23.946ZM 36.324 15.028C 38.508 15.028 40.302 13.312 40.302 11.18C 40.302 9.074 38.508 7.332 36.324 7.332C 34.14 7.332 32.398 9.074 32.398 11.18C 32.398 13.312 34.14 15.028 36.324 15.028ZM 32.788 26L 35.258 26L 49.298 7.644L 46.854 7.644L 32.788 26ZM 36.324 13.104C 35.258 13.104 34.426 12.272 34.426 11.18C 34.426 10.114 35.258 9.23 36.324 9.23C 37.416 9.23 38.274 10.114 38.274 11.18C 38.274 12.272 37.416 13.104 36.324 13.104ZM 41.836 22.49C 41.836 24.596 43.578 26.312 45.762 26.312C 47.946 26.312 49.714 24.596 49.714 22.49C 49.714 20.358 47.946 18.616 45.762 18.616C 43.578 18.616 41.836 20.358 41.836 22.49ZM 43.864 22.464C 43.864 21.398 44.67 20.514 45.762 20.514C 46.854 20.514 47.686 21.398 47.686 22.464C 47.686 23.53 46.854 24.388 45.762 24.388C 44.67 24.388 43.864 23.53 43.864 22.464Z"/>
</defs>
</svg>
