<?xml version="1.0" encoding="UTF-8"?>
<svg width="1120px" height="1110px" viewBox="0 0 1120 1110" version="1.1" xmlns="http://www.w3.org/2000/svg" xmlns:xlink="http://www.w3.org/1999/xlink">
    <!-- Generator: Sketch 46.1 (44463) - http://www.bohemiancoding.com/sketch -->
    <title>scheme-5-en</title>
    <desc>Created with Sketch.</desc>
    <defs></defs>
    <g id="Main" stroke="none" stroke-width="1" fill="none" fill-rule="evenodd">
        <g id="scheme-5-en">
            <g id="Group-3" transform="translate(147.000000, 16.000000)">
                <path d="M376.252,681 L376.252,658.408 L384.54,658.408 C388.668,658.408 391.612,661.192 391.612,665.48 C391.612,669.768 388.668,672.648 384.54,672.648 L379.42,672.648 L379.42,681 L376.252,681 Z M379.42,669.896 L384.028,669.896 C386.716,669.896 388.412,668.2 388.412,665.48 C388.412,662.792 386.716,661.16 384.06,661.16 L379.42,661.16 L379.42,669.896 Z M394.908,681 L398.012,681 L398.012,674.28 C398.012,671.144 399.484,667.688 402.972,667.688 C403.292,667.688 403.74,667.72 403.868,667.752 L403.868,664.68 C403.612,664.648 403.324,664.616 403.036,664.616 C400.54,664.616 398.652,666.568 397.884,668.904 L397.82,668.904 C397.82,668.904 397.916,668.392 397.916,667.72 L397.916,664.808 L394.908,664.808 L394.908,681 Z M405.372,672.872 C405.372,667.976 409.276,664.424 414.076,664.424 C418.908,664.424 422.812,667.976 422.812,672.872 C422.812,677.8 418.908,681.384 414.108,681.384 C409.276,681.384 405.372,677.8 405.372,672.872 Z M408.54,672.872 C408.54,676.264 411.036,678.696 414.108,678.696 C417.148,678.696 419.676,676.264 419.676,672.872 C419.676,669.512 417.148,667.112 414.108,667.112 C411.036,667.112 408.54,669.512 408.54,672.872 Z M427.1,681 L427.1,667.304 L425.084,667.304 L425.084,664.808 L427.1,664.808 L427.1,664.264 C427.1,658.92 431.164,658.248 433.212,658.248 C433.628,658.248 433.98,658.28 434.396,658.344 L434.396,661.032 C434.268,661 433.948,660.968 433.596,660.968 C432.38,660.968 430.204,661.32 430.204,664.296 L430.204,664.808 L440.188,664.808 L440.188,681 L437.116,681 L437.116,667.304 L430.204,667.304 L430.204,681 L427.1,681 Z M437.052,661.544 L437.052,658.408 L440.22,658.408 L440.22,661.544 L437.052,661.544 Z M445.628,675.08 C445.628,680.488 449.756,681.16 451.836,681.16 C452.316,681.16 452.668,681.096 452.924,681.064 L452.924,678.312 C452.604,678.376 452.412,678.376 452.188,678.376 C451.004,678.376 448.732,677.96 448.732,674.728 L448.732,667.496 L452.636,667.496 L452.636,664.968 L448.732,664.968 L448.732,660.36 L445.692,660.36 L445.692,664.968 L443.516,664.968 L443.516,667.496 L445.628,667.496 L445.628,675.08 Z" id="Profit" fill="#FFFFFF"></path>
                <path d="M286.252,31 L289.42,31 L289.42,8.408 L286.252,8.408 L286.252,31 Z M294.636,31 L297.74,31 L297.74,23.224 C297.74,19.896 299.98,17.272 303.148,17.272 C305.74,17.272 306.188,19.064 306.188,21.336 L306.188,31 L309.292,31 L309.292,20.632 C309.292,16.504 307.564,14.424 303.756,14.424 C300.204,14.424 298.22,16.824 297.612,18.232 L297.548,18.232 C297.548,18.232 297.644,17.688 297.644,17.016 L297.644,14.808 L294.636,14.808 L294.636,31 Z M312.556,29.016 C314.156,30.648 316.556,31.384 318.732,31.384 C322.188,31.384 324.556,29.368 324.556,26.616 C324.556,21.272 316.204,22.2 316.204,19.032 C316.204,17.656 317.388,17.016 318.956,17.016 C320.396,17.016 322.092,17.56 323.052,18.456 L324.3,16.216 C322.892,14.936 320.908,14.424 319.052,14.424 C315.884,14.424 313.228,16.024 313.228,19.096 C313.228,24.408 321.548,23.576 321.548,26.68 C321.548,28.024 320.428,28.792 318.796,28.792 C317.1,28.792 315.244,28.088 314.028,26.904 L312.556,29.016 Z M328.044,25.176 C328.044,29.464 329.932,31.384 333.58,31.384 C336.748,31.384 338.892,29.176 339.596,27.576 L339.66,27.576 C339.66,27.576 339.532,28.12 339.532,28.76 L339.532,31 L342.54,31 L342.54,14.808 L339.468,14.808 L339.468,22.392 C339.468,25.592 337.516,28.504 334.188,28.504 C331.628,28.504 331.148,26.712 331.148,24.472 L331.148,14.808 L328.044,14.808 L328.044,25.176 Z M347.34,31 L350.444,31 L350.444,24.28 C350.444,21.144 351.916,17.688 355.404,17.688 C355.724,17.688 356.172,17.72 356.3,17.752 L356.3,14.68 C356.044,14.648 355.756,14.616 355.468,14.616 C352.972,14.616 351.084,16.568 350.316,18.904 L350.252,18.904 C350.252,18.904 350.348,18.392 350.348,17.72 L350.348,14.808 L347.34,14.808 L347.34,31 Z M357.836,26.584 C357.836,21.496 364.14,20.92 367.5,20.92 L368.332,20.92 L368.332,20.6 C368.332,17.944 366.796,17.048 364.78,17.048 C363.18,17.048 361.548,17.688 360.236,18.616 L358.988,16.344 C360.3,15.256 362.764,14.424 365.036,14.424 C369.1,14.424 371.436,16.664 371.436,20.76 L371.436,31 L368.524,31 L368.524,29.368 C368.524,28.632 368.62,28.088 368.62,28.088 L368.556,28.088 C367.628,29.944 365.644,31.384 363.244,31.384 C360.428,31.384 357.836,29.624 357.836,26.584 Z M360.94,26.328 C360.94,27.608 361.964,28.92 363.98,28.92 C366.7,28.92 368.332,26.168 368.332,23.768 L368.332,23.16 L367.532,23.16 C365.228,23.16 360.94,23.352 360.94,26.328 Z M376.044,31 L379.148,31 L379.148,23.224 C379.148,19.896 381.388,17.272 384.556,17.272 C387.148,17.272 387.596,19.064 387.596,21.336 L387.596,31 L390.7,31 L390.7,20.632 C390.7,16.504 388.972,14.424 385.164,14.424 C381.612,14.424 379.628,16.824 379.02,18.232 L378.956,18.232 C378.956,18.232 379.052,17.688 379.052,17.016 L379.052,14.808 L376.044,14.808 L376.044,31 Z M394.284,22.904 C394.284,27.768 397.836,31.384 402.956,31.384 C405.484,31.384 407.948,30.36 409.42,28.792 L408.172,26.52 C406.924,27.832 404.972,28.696 403.18,28.696 C399.82,28.696 397.452,26.168 397.452,22.872 C397.452,19.576 399.82,17.112 403.084,17.112 C404.78,17.112 406.476,17.88 407.564,18.968 L409.036,16.792 C407.5,15.16 405.1,14.424 402.956,14.424 C397.868,14.424 394.284,18.104 394.284,22.904 Z M411.372,22.904 C411.372,17.752 414.892,14.424 419.5,14.424 C424.076,14.424 426.508,17.848 426.508,22.008 C426.508,22.424 426.444,22.872 426.38,23.32 L414.604,23.32 C414.764,26.808 417.26,28.696 420.172,28.696 C421.9,28.696 423.66,27.96 424.94,26.808 L426.252,29.08 C424.684,30.52 422.22,31.384 419.98,31.384 C414.892,31.384 411.372,27.704 411.372,22.904 Z M414.7,21.08 L423.372,21.08 C423.276,18.296 421.548,16.824 419.436,16.824 C417.036,16.824 415.148,18.392 414.7,21.08 Z M438.252,31 L441.356,31 L441.356,24.28 C441.356,21.144 442.828,17.688 446.316,17.688 C446.636,17.688 447.084,17.72 447.212,17.752 L447.212,14.68 C446.956,14.648 446.668,14.616 446.38,14.616 C443.884,14.616 441.996,16.568 441.228,18.904 L441.164,18.904 C441.164,18.904 441.26,18.392 441.26,17.72 L441.26,14.808 L438.252,14.808 L438.252,31 Z M448.812,22.904 C448.812,17.752 452.332,14.424 456.94,14.424 C461.516,14.424 463.948,17.848 463.948,22.008 C463.948,22.424 463.884,22.872 463.82,23.32 L452.044,23.32 C452.204,26.808 454.7,28.696 457.612,28.696 C459.34,28.696 461.1,27.96 462.38,26.808 L463.692,29.08 C462.124,30.52 459.66,31.384 457.42,31.384 C452.332,31.384 448.812,27.704 448.812,22.904 Z M452.14,21.08 L460.812,21.08 C460.716,18.296 458.988,16.824 456.876,16.824 C454.476,16.824 452.588,18.392 452.14,21.08 Z M466.316,29.016 C467.916,30.648 470.316,31.384 472.492,31.384 C475.948,31.384 478.316,29.368 478.316,26.616 C478.316,21.272 469.964,22.2 469.964,19.032 C469.964,17.656 471.148,17.016 472.716,17.016 C474.156,17.016 475.852,17.56 476.812,18.456 L478.06,16.216 C476.652,14.936 474.668,14.424 472.812,14.424 C469.644,14.424 466.988,16.024 466.988,19.096 C466.988,24.408 475.308,23.576 475.308,26.68 C475.308,28.024 474.188,28.792 472.556,28.792 C470.86,28.792 469.004,28.088 467.788,26.904 L466.316,29.016 Z M480.94,22.904 C480.94,17.752 484.46,14.424 489.068,14.424 C493.644,14.424 496.076,17.848 496.076,22.008 C496.076,22.424 496.012,22.872 495.948,23.32 L484.172,23.32 C484.332,26.808 486.828,28.696 489.74,28.696 C491.468,28.696 493.228,27.96 494.508,26.808 L495.82,29.08 C494.252,30.52 491.788,31.384 489.548,31.384 C484.46,31.384 480.94,27.704 480.94,22.904 Z M484.268,21.08 L492.94,21.08 C492.844,18.296 491.116,16.824 489.004,16.824 C486.604,16.824 484.716,18.392 484.268,21.08 Z M499.82,31 L502.924,31 L502.924,24.28 C502.924,21.144 504.396,17.688 507.884,17.688 C508.204,17.688 508.652,17.72 508.78,17.752 L508.78,14.68 C508.524,14.648 508.236,14.616 507.948,14.616 C505.452,14.616 503.564,16.568 502.796,18.904 L502.732,18.904 C502.732,18.904 502.828,18.392 502.828,17.72 L502.828,14.808 L499.82,14.808 L499.82,31 Z M516.14,31 L519.692,31 L525.676,14.808 L522.412,14.808 L518.476,25.752 C518.188,26.648 517.932,27.96 517.932,27.96 L517.868,27.96 C517.868,27.96 517.58,26.648 517.292,25.752 L513.356,14.808 L510.06,14.808 L516.14,31 Z M527.244,22.904 C527.244,17.752 530.764,14.424 535.372,14.424 C539.948,14.424 542.38,17.848 542.38,22.008 C542.38,22.424 542.316,22.872 542.252,23.32 L530.476,23.32 C530.636,26.808 533.132,28.696 536.044,28.696 C537.772,28.696 539.532,27.96 540.812,26.808 L542.124,29.08 C540.556,30.52 538.092,31.384 535.852,31.384 C530.764,31.384 527.244,27.704 527.244,22.904 Z M530.572,21.08 L539.244,21.08 C539.148,18.296 537.42,16.824 535.308,16.824 C532.908,16.824 531.02,18.392 530.572,21.08 Z" id="Insurance-reserve" fill="#FFFFFF"></path>
                <path d="M347.1,1007 L347.1,984.408 L354.62,984.408 C361.5,984.408 366.044,988.536 366.044,995.672 C366.044,1002.84 361.5,1007 354.62,1007 L347.1,1007 Z M350.268,1004.248 L354.396,1004.248 C359.452,1004.248 362.78,1001.272 362.78,995.672 C362.78,990.136 359.42,987.16 354.396,987.16 L350.268,987.16 L350.268,1004.248 Z M369.052,998.904 C369.052,993.752 372.572,990.424 377.18,990.424 C381.756,990.424 384.188,993.848 384.188,998.008 C384.188,998.424 384.124,998.872 384.06,999.32 L372.284,999.32 C372.444,1002.808 374.94,1004.696 377.852,1004.696 C379.58,1004.696 381.34,1003.96 382.62,1002.808 L383.932,1005.08 C382.364,1006.52 379.9,1007.384 377.66,1007.384 C372.572,1007.384 369.052,1003.704 369.052,998.904 Z M372.38,997.08 L381.052,997.08 C380.956,994.296 379.228,992.824 377.116,992.824 C374.716,992.824 372.828,994.392 372.38,997.08 Z M388.284,1007 L391.452,1007 L391.452,997.08 L403.196,997.08 L403.196,1007 L406.332,1007 L406.332,984.408 L403.196,984.408 L403.196,994.328 L391.452,994.328 L391.452,984.408 L388.284,984.408 L388.284,1007 Z M410.332,998.904 C410.332,993.752 413.852,990.424 418.46,990.424 C423.036,990.424 425.468,993.848 425.468,998.008 C425.468,998.424 425.404,998.872 425.34,999.32 L413.564,999.32 C413.724,1002.808 416.22,1004.696 419.132,1004.696 C420.86,1004.696 422.62,1003.96 423.9,1002.808 L425.212,1005.08 C423.644,1006.52 421.18,1007.384 418.94,1007.384 C413.852,1007.384 410.332,1003.704 410.332,998.904 Z M413.66,997.08 L422.332,997.08 C422.236,994.296 420.508,992.824 418.396,992.824 C415.996,992.824 414.108,994.392 413.66,997.08 Z M428.22,998.904 C428.22,993.752 431.26,990.424 435.548,990.424 C437.596,990.424 439.548,991.352 440.572,993.08 L440.636,993.08 C440.636,993.08 440.572,992.6 440.572,991.992 L440.572,984.408 L443.644,984.408 L443.644,1007 L440.7,1007 L440.7,1005.368 C440.7,1004.728 440.796,1004.28 440.796,1004.28 L440.732,1004.28 C439.804,1006.04 437.916,1007.384 435.356,1007.384 C431.004,1007.384 428.22,1003.928 428.22,998.904 Z M431.388,998.904 C431.388,1002.424 433.276,1004.696 435.964,1004.696 C438.364,1004.696 440.636,1002.968 440.636,998.872 C440.636,995.96 439.132,993.144 436.028,993.144 C433.5,993.144 431.388,995.224 431.388,998.904 Z M449.98,1009.944 C451.26,1010.584 452.86,1011.032 454.428,1011.032 C457.244,1011.032 459.548,1009.752 459.548,1006.52 L459.548,1005.208 C459.548,1004.696 459.644,1004.184 459.644,1004.184 L459.58,1004.184 C458.62,1005.784 457.052,1006.808 454.716,1006.808 C450.204,1006.808 447.484,1003.192 447.484,998.552 C447.484,993.88 450.044,990.424 454.556,990.424 C456.572,990.424 458.652,991.16 459.676,992.888 L459.772,992.888 C459.772,992.888 459.676,992.696 459.676,992.408 L459.676,990.808 L462.652,990.808 L462.652,1006.328 C462.652,1011.672 458.588,1013.72 454.492,1013.72 C452.54,1013.72 450.556,1013.176 448.956,1012.376 L449.98,1009.944 Z M450.62,998.456 C450.62,1001.816 452.412,1004.12 455.324,1004.12 C457.564,1004.12 459.612,1002.776 459.612,998.552 C459.612,994.328 457.564,993.112 455.036,993.112 C452.252,993.112 450.62,995.16 450.62,998.456 Z M466.396,998.904 C466.396,993.752 469.916,990.424 474.524,990.424 C479.1,990.424 481.532,993.848 481.532,998.008 C481.532,998.424 481.468,998.872 481.404,999.32 L469.628,999.32 C469.788,1002.808 472.284,1004.696 475.196,1004.696 C476.924,1004.696 478.684,1003.96 479.964,1002.808 L481.276,1005.08 C479.708,1006.52 477.244,1007.384 475.004,1007.384 C469.916,1007.384 466.396,1003.704 466.396,998.904 Z M469.724,997.08 L478.396,997.08 C478.3,994.296 476.572,992.824 474.46,992.824 C472.06,992.824 470.172,994.392 469.724,997.08 Z M343.228,1038.872 C343.228,1033.976 347.132,1030.424 351.932,1030.424 C356.764,1030.424 360.668,1033.976 360.668,1038.872 C360.668,1043.8 356.764,1047.384 351.964,1047.384 C347.132,1047.384 343.228,1043.8 343.228,1038.872 Z M346.396,1038.872 C346.396,1042.264 348.892,1044.696 351.964,1044.696 C355.004,1044.696 357.532,1042.264 357.532,1038.872 C357.532,1035.512 355.004,1033.112 351.964,1033.112 C348.892,1033.112 346.396,1035.512 346.396,1038.872 Z M364.412,1053.4 L364.412,1030.808 L367.292,1030.808 L367.292,1032.248 C367.292,1032.92 367.196,1033.464 367.196,1033.464 L367.26,1033.464 C368.284,1031.512 370.332,1030.424 372.7,1030.424 C377.084,1030.424 379.804,1033.88 379.804,1038.904 C379.804,1044.056 376.732,1047.384 372.476,1047.384 C370.428,1047.384 368.572,1046.36 367.452,1044.632 L367.388,1044.632 C367.388,1044.632 367.516,1045.208 367.516,1046.04 L367.516,1053.4 L364.412,1053.4 Z M367.42,1038.968 C367.42,1041.848 369.02,1044.696 371.996,1044.696 C374.556,1044.696 376.668,1042.616 376.668,1038.936 C376.668,1035.416 374.78,1033.144 372.092,1033.144 C369.66,1033.144 367.42,1034.872 367.42,1038.968 Z M382.588,1038.904 C382.588,1033.752 386.108,1030.424 390.716,1030.424 C395.292,1030.424 397.724,1033.848 397.724,1038.008 C397.724,1038.424 397.66,1038.872 397.596,1039.32 L385.82,1039.32 C385.98,1042.808 388.476,1044.696 391.388,1044.696 C393.116,1044.696 394.876,1043.96 396.156,1042.808 L397.468,1045.08 C395.9,1046.52 393.436,1047.384 391.196,1047.384 C386.108,1047.384 382.588,1043.704 382.588,1038.904 Z M385.916,1037.08 L394.588,1037.08 C394.492,1034.296 392.764,1032.824 390.652,1032.824 C388.252,1032.824 386.364,1034.392 385.916,1037.08 Z M401.468,1047 L404.572,1047 L404.572,1040.28 C404.572,1037.144 406.044,1033.688 409.532,1033.688 C409.852,1033.688 410.3,1033.72 410.428,1033.752 L410.428,1030.68 C410.172,1030.648 409.884,1030.616 409.596,1030.616 C407.1,1030.616 405.212,1032.568 404.444,1034.904 L404.38,1034.904 C404.38,1034.904 404.476,1034.392 404.476,1033.72 L404.476,1030.808 L401.468,1030.808 L401.468,1047 Z M411.964,1042.584 C411.964,1037.496 418.268,1036.92 421.628,1036.92 L422.46,1036.92 L422.46,1036.6 C422.46,1033.944 420.924,1033.048 418.908,1033.048 C417.308,1033.048 415.676,1033.688 414.364,1034.616 L413.116,1032.344 C414.428,1031.256 416.892,1030.424 419.164,1030.424 C423.228,1030.424 425.564,1032.664 425.564,1036.76 L425.564,1047 L422.652,1047 L422.652,1045.368 C422.652,1044.632 422.748,1044.088 422.748,1044.088 L422.684,1044.088 C421.756,1045.944 419.772,1047.384 417.372,1047.384 C414.556,1047.384 411.964,1045.624 411.964,1042.584 Z M415.068,1042.328 C415.068,1043.608 416.092,1044.92 418.108,1044.92 C420.828,1044.92 422.46,1042.168 422.46,1039.768 L422.46,1039.16 L421.66,1039.16 C419.356,1039.16 415.068,1039.352 415.068,1042.328 Z M430.844,1041.08 C430.844,1046.488 434.972,1047.16 437.052,1047.16 C437.532,1047.16 437.884,1047.096 438.14,1047.064 L438.14,1044.312 C437.82,1044.376 437.628,1044.376 437.404,1044.376 C436.22,1044.376 433.948,1043.96 433.948,1040.728 L433.948,1033.496 L437.852,1033.496 L437.852,1030.968 L433.948,1030.968 L433.948,1026.36 L430.908,1026.36 L430.908,1030.968 L428.732,1030.968 L428.732,1033.496 L430.844,1033.496 L430.844,1041.08 Z M441.276,1027.544 L444.476,1027.544 L444.476,1024.408 L441.276,1024.408 L441.276,1027.544 Z M441.34,1047 L444.444,1047 L444.444,1030.808 L441.34,1030.808 L441.34,1047 Z M449.212,1047 L452.316,1047 L452.316,1039.224 C452.316,1035.896 454.556,1033.272 457.724,1033.272 C460.316,1033.272 460.764,1035.064 460.764,1037.336 L460.764,1047 L463.868,1047 L463.868,1036.632 C463.868,1032.504 462.14,1030.424 458.332,1030.424 C454.78,1030.424 452.796,1032.824 452.188,1034.232 L452.124,1034.232 C452.124,1034.232 452.22,1033.688 452.22,1033.016 L452.22,1030.808 L449.212,1030.808 L449.212,1047 Z M470.044,1049.944 C471.324,1050.584 472.924,1051.032 474.492,1051.032 C477.308,1051.032 479.612,1049.752 479.612,1046.52 L479.612,1045.208 C479.612,1044.696 479.708,1044.184 479.708,1044.184 L479.644,1044.184 C478.684,1045.784 477.116,1046.808 474.78,1046.808 C470.268,1046.808 467.548,1043.192 467.548,1038.552 C467.548,1033.88 470.108,1030.424 474.62,1030.424 C476.636,1030.424 478.716,1031.16 479.74,1032.888 L479.836,1032.888 C479.836,1032.888 479.74,1032.696 479.74,1032.408 L479.74,1030.808 L482.716,1030.808 L482.716,1046.328 C482.716,1051.672 478.652,1053.72 474.556,1053.72 C472.604,1053.72 470.62,1053.176 469.02,1052.376 L470.044,1049.944 Z M470.684,1038.456 C470.684,1041.816 472.476,1044.12 475.388,1044.12 C477.628,1044.12 479.676,1042.776 479.676,1038.552 C479.676,1034.328 477.628,1033.112 475.1,1033.112 C472.316,1033.112 470.684,1035.16 470.684,1038.456 Z M349.916,1082.584 C349.916,1077.496 356.22,1076.92 359.58,1076.92 L360.412,1076.92 L360.412,1076.6 C360.412,1073.944 358.876,1073.048 356.86,1073.048 C355.26,1073.048 353.628,1073.688 352.316,1074.616 L351.068,1072.344 C352.38,1071.256 354.844,1070.424 357.116,1070.424 C361.18,1070.424 363.516,1072.664 363.516,1076.76 L363.516,1087 L360.604,1087 L360.604,1085.368 C360.604,1084.632 360.7,1084.088 360.7,1084.088 L360.636,1084.088 C359.708,1085.944 357.724,1087.384 355.324,1087.384 C352.508,1087.384 349.916,1085.624 349.916,1082.584 Z M353.02,1082.328 C353.02,1083.608 354.044,1084.92 356.06,1084.92 C358.78,1084.92 360.412,1082.168 360.412,1079.768 L360.412,1079.16 L359.612,1079.16 C357.308,1079.16 353.02,1079.352 353.02,1082.328 Z M367.068,1078.904 C367.068,1083.768 370.62,1087.384 375.74,1087.384 C378.268,1087.384 380.732,1086.36 382.204,1084.792 L380.956,1082.52 C379.708,1083.832 377.756,1084.696 375.964,1084.696 C372.604,1084.696 370.236,1082.168 370.236,1078.872 C370.236,1075.576 372.604,1073.112 375.868,1073.112 C377.564,1073.112 379.26,1073.88 380.348,1074.968 L381.82,1072.792 C380.284,1071.16 377.884,1070.424 375.74,1070.424 C370.652,1070.424 367.068,1074.104 367.068,1078.904 Z M386.236,1081.08 C386.236,1086.488 390.364,1087.16 392.444,1087.16 C392.924,1087.16 393.276,1087.096 393.532,1087.064 L393.532,1084.312 C393.212,1084.376 393.02,1084.376 392.796,1084.376 C391.612,1084.376 389.34,1083.96 389.34,1080.728 L389.34,1073.496 L393.244,1073.496 L393.244,1070.968 L389.34,1070.968 L389.34,1066.36 L386.3,1066.36 L386.3,1070.968 L384.124,1070.968 L384.124,1073.496 L386.236,1073.496 L386.236,1081.08 Z M396.668,1067.544 L399.868,1067.544 L399.868,1064.408 L396.668,1064.408 L396.668,1067.544 Z M396.732,1087 L399.836,1087 L399.836,1070.808 L396.732,1070.808 L396.732,1087 Z M408.892,1087 L412.444,1087 L418.428,1070.808 L415.164,1070.808 L411.228,1081.752 C410.94,1082.648 410.684,1083.96 410.684,1083.96 L410.62,1083.96 C410.62,1083.96 410.332,1082.648 410.044,1081.752 L406.108,1070.808 L402.812,1070.808 L408.892,1087 Z M421.436,1067.544 L424.636,1067.544 L424.636,1064.408 L421.436,1064.408 L421.436,1067.544 Z M421.5,1087 L424.604,1087 L424.604,1070.808 L421.5,1070.808 L421.5,1087 Z M430.044,1081.08 C430.044,1086.488 434.172,1087.16 436.252,1087.16 C436.732,1087.16 437.084,1087.096 437.34,1087.064 L437.34,1084.312 C437.02,1084.376 436.828,1084.376 436.604,1084.376 C435.42,1084.376 433.148,1083.96 433.148,1080.728 L433.148,1073.496 L437.052,1073.496 L437.052,1070.968 L433.148,1070.968 L433.148,1066.36 L430.108,1066.36 L430.108,1070.968 L427.932,1070.968 L427.932,1073.496 L430.044,1073.496 L430.044,1081.08 Z M440.476,1067.544 L443.676,1067.544 L443.676,1064.408 L440.476,1064.408 L440.476,1067.544 Z M440.54,1087 L443.644,1087 L443.644,1070.808 L440.54,1070.808 L440.54,1087 Z M447.356,1078.904 C447.356,1073.752 450.876,1070.424 455.484,1070.424 C460.06,1070.424 462.492,1073.848 462.492,1078.008 C462.492,1078.424 462.428,1078.872 462.364,1079.32 L450.588,1079.32 C450.748,1082.808 453.244,1084.696 456.156,1084.696 C457.884,1084.696 459.644,1083.96 460.924,1082.808 L462.236,1085.08 C460.668,1086.52 458.204,1087.384 455.964,1087.384 C450.876,1087.384 447.356,1083.704 447.356,1078.904 Z M450.684,1077.08 L459.356,1077.08 C459.26,1074.296 457.532,1072.824 455.42,1072.824 C453.02,1072.824 451.132,1074.392 450.684,1077.08 Z M464.86,1085.016 C466.46,1086.648 468.86,1087.384 471.036,1087.384 C474.492,1087.384 476.86,1085.368 476.86,1082.616 C476.86,1077.272 468.508,1078.2 468.508,1075.032 C468.508,1073.656 469.692,1073.016 471.26,1073.016 C472.7,1073.016 474.396,1073.56 475.356,1074.456 L476.604,1072.216 C475.196,1070.936 473.212,1070.424 471.356,1070.424 C468.188,1070.424 465.532,1072.024 465.532,1075.096 C465.532,1080.408 473.852,1079.576 473.852,1082.68 C473.852,1084.024 472.732,1084.792 471.1,1084.792 C469.404,1084.792 467.548,1084.088 466.332,1082.904 L464.86,1085.016 Z" id="DeHedge-operating-ac" fill="#FFFFFF"></path>
                <g id="Group-2" transform="translate(0.000000, 254.000000)" fill="#FFFFFF">
                    <g id="Group">
                        <path d="M10.668,107 L13.836,107 L13.836,84.408 L10.668,84.408 L10.668,107 Z M19.052,107 L22.156,107 L22.156,99.224 C22.156,95.896 24.396,93.272 27.564,93.272 C30.156,93.272 30.604,95.064 30.604,97.336 L30.604,107 L33.708,107 L33.708,96.632 C33.708,92.504 31.98,90.424 28.172,90.424 C24.62,90.424 22.636,92.824 22.028,94.232 L21.964,94.232 C21.964,94.232 22.06,93.688 22.06,93.016 L22.06,90.808 L19.052,90.808 L19.052,107 Z M42.412,107 L45.964,107 L51.948,90.808 L48.684,90.808 L44.748,101.752 C44.46,102.648 44.204,103.96 44.204,103.96 L44.14,103.96 C44.14,103.96 43.852,102.648 43.564,101.752 L39.628,90.808 L36.332,90.808 L42.412,107 Z M53.516,98.904 C53.516,93.752 57.036,90.424 61.644,90.424 C66.22,90.424 68.652,93.848 68.652,98.008 C68.652,98.424 68.588,98.872 68.524,99.32 L56.748,99.32 C56.908,102.808 59.404,104.696 62.316,104.696 C64.044,104.696 65.804,103.96 67.084,102.808 L68.396,105.08 C66.828,106.52 64.364,107.384 62.124,107.384 C57.036,107.384 53.516,103.704 53.516,98.904 Z M56.844,97.08 L65.516,97.08 C65.42,94.296 63.692,92.824 61.58,92.824 C59.18,92.824 57.292,94.392 56.844,97.08 Z M71.02,105.016 C72.62,106.648 75.02,107.384 77.196,107.384 C80.652,107.384 83.02,105.368 83.02,102.616 C83.02,97.272 74.668,98.2 74.668,95.032 C74.668,93.656 75.852,93.016 77.42,93.016 C78.86,93.016 80.556,93.56 81.516,94.456 L82.764,92.216 C81.356,90.936 79.372,90.424 77.516,90.424 C74.348,90.424 71.692,92.024 71.692,95.096 C71.692,100.408 80.012,99.576 80.012,102.68 C80.012,104.024 78.892,104.792 77.26,104.792 C75.564,104.792 73.708,104.088 72.492,102.904 L71.02,105.016 Z M87.372,101.08 C87.372,106.488 91.5,107.16 93.58,107.16 C94.06,107.16 94.412,107.096 94.668,107.064 L94.668,104.312 C94.348,104.376 94.156,104.376 93.932,104.376 C92.748,104.376 90.476,103.96 90.476,100.728 L90.476,93.496 L94.38,93.496 L94.38,90.968 L90.476,90.968 L90.476,86.36 L87.436,86.36 L87.436,90.968 L85.26,90.968 L85.26,93.496 L87.372,93.496 L87.372,101.08 Z M97.868,107 L100.972,107 L100.972,99.448 C100.972,96.44 102.764,93.24 105.836,93.24 C108.3,93.24 108.62,95.192 108.62,97.304 L108.62,107 L111.724,107 L111.724,99.448 C111.724,96.344 113.516,93.24 116.524,93.24 C118.924,93.24 119.372,95.032 119.372,97.304 L119.372,107 L122.476,107 L122.476,96.632 C122.476,92.504 120.812,90.424 117.132,90.424 C114.508,90.424 112.268,92.216 111.372,94.104 L111.308,94.104 C110.764,91.672 109.196,90.424 106.476,90.424 C103.916,90.424 101.612,92.344 100.844,94.232 L100.78,94.232 C100.78,94.232 100.876,93.688 100.876,93.016 L100.876,90.808 L97.868,90.808 L97.868,107 Z M126.06,98.904 C126.06,93.752 129.58,90.424 134.188,90.424 C138.764,90.424 141.196,93.848 141.196,98.008 C141.196,98.424 141.132,98.872 141.068,99.32 L129.292,99.32 C129.452,102.808 131.948,104.696 134.86,104.696 C136.588,104.696 138.348,103.96 139.628,102.808 L140.94,105.08 C139.372,106.52 136.908,107.384 134.668,107.384 C129.58,107.384 126.06,103.704 126.06,98.904 Z M129.388,97.08 L138.06,97.08 C137.964,94.296 136.236,92.824 134.124,92.824 C131.724,92.824 129.836,94.392 129.388,97.08 Z M144.94,107 L148.044,107 L148.044,99.224 C148.044,95.896 150.284,93.272 153.452,93.272 C156.044,93.272 156.492,95.064 156.492,97.336 L156.492,107 L159.596,107 L159.596,96.632 C159.596,92.504 157.868,90.424 154.06,90.424 C150.508,90.424 148.524,92.824 147.916,94.232 L147.852,94.232 C147.852,94.232 147.948,93.688 147.948,93.016 L147.948,90.808 L144.94,90.808 L144.94,107 Z M164.908,101.08 C164.908,106.488 169.036,107.16 171.116,107.16 C171.596,107.16 171.948,107.096 172.204,107.064 L172.204,104.312 C171.884,104.376 171.692,104.376 171.468,104.376 C170.284,104.376 168.012,103.96 168.012,100.728 L168.012,93.496 L171.916,93.496 L171.916,90.968 L168.012,90.968 L168.012,86.36 L164.972,86.36 L164.972,90.968 L162.796,90.968 L162.796,93.496 L164.908,93.496 L164.908,101.08 Z M174.028,105.016 C175.628,106.648 178.028,107.384 180.204,107.384 C183.66,107.384 186.028,105.368 186.028,102.616 C186.028,97.272 177.676,98.2 177.676,95.032 C177.676,93.656 178.86,93.016 180.428,93.016 C181.868,93.016 183.564,93.56 184.524,94.456 L185.772,92.216 C184.364,90.936 182.38,90.424 180.524,90.424 C177.356,90.424 174.7,92.024 174.7,95.096 C174.7,100.408 183.02,99.576 183.02,102.68 C183.02,104.024 181.9,104.792 180.268,104.792 C178.572,104.792 176.716,104.088 175.5,102.904 L174.028,105.016 Z M25.772,127.544 L28.972,127.544 L28.972,124.408 L25.772,124.408 L25.772,127.544 Z M25.836,147 L28.94,147 L28.94,130.808 L25.836,130.808 L25.836,147 Z M33.708,147 L36.812,147 L36.812,139.224 C36.812,135.896 39.052,133.272 42.22,133.272 C44.812,133.272 45.26,135.064 45.26,137.336 L45.26,147 L48.364,147 L48.364,136.632 C48.364,132.504 46.636,130.424 42.828,130.424 C39.276,130.424 37.292,132.824 36.684,134.232 L36.62,134.232 C36.62,134.232 36.716,133.688 36.716,133.016 L36.716,130.808 L33.708,130.808 L33.708,147 Z M53.676,141.08 C53.676,146.488 57.804,147.16 59.884,147.16 C60.364,147.16 60.716,147.096 60.972,147.064 L60.972,144.312 C60.652,144.376 60.46,144.376 60.236,144.376 C59.052,144.376 56.78,143.96 56.78,140.728 L56.78,133.496 L60.684,133.496 L60.684,130.968 L56.78,130.968 L56.78,126.36 L53.74,126.36 L53.74,130.968 L51.564,130.968 L51.564,133.496 L53.676,133.496 L53.676,141.08 Z M62.924,138.872 C62.924,133.976 66.828,130.424 71.628,130.424 C76.46,130.424 80.364,133.976 80.364,138.872 C80.364,143.8 76.46,147.384 71.66,147.384 C66.828,147.384 62.924,143.8 62.924,138.872 Z M66.092,138.872 C66.092,142.264 68.588,144.696 71.66,144.696 C74.7,144.696 77.228,142.264 77.228,138.872 C77.228,135.512 74.7,133.112 71.66,133.112 C68.588,133.112 66.092,135.512 66.092,138.872 Z M92.108,142.552 C92.108,146.648 94.668,147.16 96.46,147.16 C96.908,147.16 97.26,147.096 97.484,147.064 L97.484,144.312 C97.292,144.344 97.068,144.344 96.94,144.344 C95.98,144.344 95.18,143.96 95.18,142.04 L95.18,124.408 L92.108,124.408 L92.108,142.552 Z M100.588,127.544 L103.788,127.544 L103.788,124.408 L100.588,124.408 L100.588,127.544 Z M100.652,147 L103.756,147 L103.756,130.808 L100.652,130.808 L100.652,147 Z M119.143008,145.505729 L119.884,145.914748 L119.884,145.912 C119.884,145.08 119.948,144.504 119.948,144.504 L119.884,144.504 C119.685391,144.849726 119.437746,145.188689 119.143008,145.505729 Z M119.884,145.914748 L119.143008,145.505729 C118.15556,146.567897 116.63953,147.384 114.668,147.384 C110.316,147.384 107.532,143.928 107.532,138.904 C107.532,133.752 110.572,130.424 114.86,130.424 C116.972,130.424 118.988,131.448 120.012,133.24 L120.076,133.24 C120.076,133.24 120.012,132.76 120.012,132.12 L120.012,130.808 L122.956,130.808 L122.956,153.4 L119.884,153.4 L119.884,145.914748 Z M110.7,138.904 C110.7,142.424 112.588,144.696 115.276,144.696 C117.676,144.696 119.948,142.968 119.948,138.872 C119.948,135.96 118.444,133.144 115.34,133.144 C112.812,133.144 110.7,135.224 110.7,138.904 Z M127.564,141.176 C127.564,145.464 129.452,147.384 133.1,147.384 C136.268,147.384 138.412,145.176 139.116,143.576 L139.18,143.576 C139.18,143.576 139.052,144.12 139.052,144.76 L139.052,147 L142.06,147 L142.06,130.808 L138.988,130.808 L138.988,138.392 C138.988,141.592 137.036,144.504 133.708,144.504 C131.148,144.504 130.668,142.712 130.668,140.472 L130.668,130.808 L127.564,130.808 L127.564,141.176 Z M146.796,127.544 L149.996,127.544 L149.996,124.408 L146.796,124.408 L146.796,127.544 Z M146.86,147 L149.964,147 L149.964,130.808 L146.86,130.808 L146.86,147 Z M153.74,138.904 C153.74,133.752 156.78,130.424 161.068,130.424 C163.116,130.424 165.068,131.352 166.092,133.08 L166.156,133.08 C166.156,133.08 166.092,132.6 166.092,131.992 L166.092,124.408 L169.164,124.408 L169.164,147 L166.22,147 L166.22,145.368 C166.22,144.728 166.316,144.28 166.316,144.28 L166.252,144.28 C165.324,146.04 163.436,147.384 160.876,147.384 C156.524,147.384 153.74,143.928 153.74,138.904 Z M156.908,138.904 C156.908,142.424 158.796,144.696 161.484,144.696 C163.884,144.696 166.156,142.968 166.156,138.872 C166.156,135.96 164.652,133.144 161.548,133.144 C159.02,133.144 156.908,135.224 156.908,138.904 Z M2.076,178.904 C2.076,183.768 5.628,187.384 10.748,187.384 C13.276,187.384 15.74,186.36 17.212,184.792 L15.964,182.52 C14.716,183.832 12.764,184.696 10.972,184.696 C7.612,184.696 5.244,182.168 5.244,178.872 C5.244,175.576 7.612,173.112 10.876,173.112 C12.572,173.112 14.268,173.88 15.356,174.968 L16.828,172.792 C15.292,171.16 12.892,170.424 10.748,170.424 C5.66,170.424 2.076,174.104 2.076,178.904 Z M20.572,187 L23.676,187 L23.676,180.28 C23.676,177.144 25.148,173.688 28.636,173.688 C28.956,173.688 29.404,173.72 29.532,173.752 L29.532,170.68 C29.276,170.648 28.988,170.616 28.7,170.616 C26.204,170.616 24.316,172.568 23.548,174.904 L23.484,174.904 C23.484,174.904 23.58,174.392 23.58,173.72 L23.58,170.808 L20.572,170.808 L20.572,187 Z M31.804,190.36 L30.716,192.728 C30.716,192.728 32.028,193.72 33.82,193.72 C36.092,193.72 38.108,192.44 39.068,189.912 L46.684,170.808 L43.324,170.808 L39.388,181.432 C39.1,182.264 38.844,183.352 38.844,183.352 L38.78,183.352 C38.78,183.352 38.492,182.2 38.172,181.4 L34.108,170.808 L30.62,170.808 L37.404,186.808 L36.604,188.664 C35.996,190.136 34.94,191.064 33.66,191.064 C32.7,191.064 31.804,190.36 31.804,190.36 Z M49.724,193.4 L49.724,170.808 L52.604,170.808 L52.604,172.248 C52.604,172.92 52.508,173.464 52.508,173.464 L52.572,173.464 C53.596,171.512 55.644,170.424 58.012,170.424 C62.396,170.424 65.116,173.88 65.116,178.904 C65.116,184.056 62.044,187.384 57.788,187.384 C55.74,187.384 53.884,186.36 52.764,184.632 L52.7,184.632 C52.7,184.632 52.828,185.208 52.828,186.04 L52.828,193.4 L49.724,193.4 Z M52.732,178.968 C52.732,181.848 54.332,184.696 57.308,184.696 C59.868,184.696 61.98,182.616 61.98,178.936 C61.98,175.416 60.092,173.144 57.404,173.144 C54.972,173.144 52.732,174.872 52.732,178.968 Z M69.468,181.08 C69.468,186.488 73.596,187.16 75.676,187.16 C76.156,187.16 76.508,187.096 76.764,187.064 L76.764,184.312 C76.444,184.376 76.252,184.376 76.028,184.376 C74.844,184.376 72.572,183.96 72.572,180.728 L72.572,173.496 L76.476,173.496 L76.476,170.968 L72.572,170.968 L72.572,166.36 L69.532,166.36 L69.532,170.968 L67.356,170.968 L67.356,173.496 L69.468,173.496 L69.468,181.08 Z M78.716,178.872 C78.716,173.976 82.62,170.424 87.42,170.424 C92.252,170.424 96.156,173.976 96.156,178.872 C96.156,183.8 92.252,187.384 87.452,187.384 C82.62,187.384 78.716,183.8 78.716,178.872 Z M81.884,178.872 C81.884,182.264 84.38,184.696 87.452,184.696 C90.492,184.696 93.02,182.264 93.02,178.872 C93.02,175.512 90.492,173.112 87.452,173.112 C84.38,173.112 81.884,175.512 81.884,178.872 Z M106.556,182.584 C106.556,177.496 112.86,176.92 116.22,176.92 L117.052,176.92 L117.052,176.6 C117.052,173.944 115.516,173.048 113.5,173.048 C111.9,173.048 110.268,173.688 108.956,174.616 L107.708,172.344 C109.02,171.256 111.484,170.424 113.756,170.424 C117.82,170.424 120.156,172.664 120.156,176.76 L120.156,187 L117.244,187 L117.244,185.368 C117.244,184.632 117.34,184.088 117.34,184.088 L117.276,184.088 C116.348,185.944 114.364,187.384 111.964,187.384 C109.148,187.384 106.556,185.624 106.556,182.584 Z M109.66,182.328 C109.66,183.608 110.684,184.92 112.7,184.92 C115.42,184.92 117.052,182.168 117.052,179.768 L117.052,179.16 L116.252,179.16 C113.948,179.16 109.66,179.352 109.66,182.328 Z M123.388,185.016 C124.988,186.648 127.388,187.384 129.564,187.384 C133.02,187.384 135.388,185.368 135.388,182.616 C135.388,177.272 127.036,178.2 127.036,175.032 C127.036,173.656 128.22,173.016 129.788,173.016 C131.228,173.016 132.924,173.56 133.884,174.456 L135.132,172.216 C133.724,170.936 131.74,170.424 129.884,170.424 C126.716,170.424 124.06,172.024 124.06,175.096 C124.06,180.408 132.38,179.576 132.38,182.68 C132.38,184.024 131.26,184.792 129.628,184.792 C127.932,184.792 126.076,184.088 124.86,182.904 L123.388,185.016 Z M137.692,185.016 C139.292,186.648 141.692,187.384 143.868,187.384 C147.324,187.384 149.692,185.368 149.692,182.616 C149.692,177.272 141.34,178.2 141.34,175.032 C141.34,173.656 142.524,173.016 144.092,173.016 C145.532,173.016 147.228,173.56 148.188,174.456 L149.436,172.216 C148.028,170.936 146.044,170.424 144.188,170.424 C141.02,170.424 138.364,172.024 138.364,175.096 C138.364,180.408 146.684,179.576 146.684,182.68 C146.684,184.024 145.564,184.792 143.932,184.792 C142.236,184.792 140.38,184.088 139.164,182.904 L137.692,185.016 Z M152.316,178.904 C152.316,173.752 155.836,170.424 160.444,170.424 C165.02,170.424 167.452,173.848 167.452,178.008 C167.452,178.424 167.388,178.872 167.324,179.32 L155.548,179.32 C155.708,182.808 158.204,184.696 161.116,184.696 C162.844,184.696 164.604,183.96 165.884,182.808 L167.196,185.08 C165.628,186.52 163.164,187.384 160.924,187.384 C155.836,187.384 152.316,183.704 152.316,178.904 Z M155.644,177.08 L164.316,177.08 C164.22,174.296 162.492,172.824 160.38,172.824 C157.98,172.824 156.092,174.392 155.644,177.08 Z M171.868,181.08 C171.868,186.488 175.996,187.16 178.076,187.16 C178.556,187.16 178.908,187.096 179.164,187.064 L179.164,184.312 C178.844,184.376 178.652,184.376 178.428,184.376 C177.244,184.376 174.972,183.96 174.972,180.728 L174.972,173.496 L178.876,173.496 L178.876,170.968 L174.972,170.968 L174.972,166.36 L171.932,166.36 L171.932,170.968 L169.756,170.968 L169.756,173.496 L171.868,173.496 L171.868,181.08 Z M180.988,185.016 C182.588,186.648 184.988,187.384 187.164,187.384 C190.62,187.384 192.988,185.368 192.988,182.616 C192.988,177.272 184.636,178.2 184.636,175.032 C184.636,173.656 185.82,173.016 187.388,173.016 C188.828,173.016 190.524,173.56 191.484,174.456 L192.732,172.216 C191.324,170.936 189.34,170.424 187.484,170.424 C184.316,170.424 181.66,172.024 181.66,175.096 C181.66,180.408 189.98,179.576 189.98,182.68 C189.98,184.024 188.86,184.792 187.228,184.792 C185.532,184.792 183.676,184.088 182.46,182.904 L180.988,185.016 Z" id="Investments-into-liq"></path>
                        <path d="M48.672,43.548 C48.672,37.984 53.144,34.552 54.548,33.616 C52.156,31.952 50.44,29.716 50.44,26.388 C50.44,21.344 54.132,16.664 61.88,16.664 C68.692,16.664 73.424,20.512 73.424,26.44 C73.424,31.068 70.096,34.968 69.004,36.06 C71.864,37.776 73.996,40.064 73.996,43.86 C73.996,49.58 69.108,54.624 61.412,54.624 C54.184,54.624 48.672,49.944 48.672,43.548 Z M65.052,34.084 C65.832,33.252 68.38,30.444 68.38,26.856 C68.38,23.372 65.676,21.292 61.776,21.292 C57.772,21.292 55.536,23.58 55.536,26.388 C55.536,30.548 60.476,32.056 65.052,34.084 Z M53.924,43.132 C53.924,47.24 57.564,49.996 61.36,49.996 C65.26,49.996 68.744,47.5 68.744,43.756 C68.744,39.596 63.18,38.14 58.396,35.852 C57.2,36.684 53.924,39.128 53.924,43.132 Z M93.34,54.624 C83.564,54.624 80.34,46.2 80.34,35.592 C80.34,25.036 83.564,16.664 93.34,16.664 C103.168,16.664 106.34,25.036 106.34,35.592 C106.34,46.2 103.168,54.624 93.34,54.624 Z M93.34,49.892 C99.372,49.892 101.036,43.652 101.036,35.592 C101.036,27.636 99.372,21.396 93.34,21.396 C87.36,21.396 85.644,27.636 85.644,35.592 C85.644,43.652 87.36,49.892 93.34,49.892 Z M119.912,32.056 C115.544,32.056 112.06,28.624 112.06,24.36 C112.06,20.148 115.544,16.664 119.912,16.664 C124.28,16.664 127.868,20.148 127.868,24.36 C127.868,28.624 124.28,32.056 119.912,32.056 Z M112.84,54 L140.972,17.288 L145.86,17.288 L117.78,54 L112.84,54 Z M119.912,28.208 C122.096,28.208 123.812,26.544 123.812,24.36 C123.812,22.228 122.096,20.46 119.912,20.46 C117.78,20.46 116.116,22.228 116.116,24.36 C116.116,26.544 117.78,28.208 119.912,28.208 Z M130.936,46.98 C130.936,42.716 134.42,39.232 138.788,39.232 C143.156,39.232 146.692,42.716 146.692,46.98 C146.692,51.192 143.156,54.624 138.788,54.624 C134.42,54.624 130.936,51.192 130.936,46.98 Z M134.992,46.928 C134.992,49.06 136.604,50.776 138.788,50.776 C140.972,50.776 142.636,49.06 142.636,46.928 C142.636,44.796 140.972,43.028 138.788,43.028 C136.604,43.028 134.992,44.796 134.992,46.928 Z" id="80%"></path>
                    </g>
                </g>
                <g id="Group" transform="translate(628.000000, 254.000000)" fill="#FFFFFF">
                    <path d="M46.588,107 L46.588,84.408 L53.756,84.408 C55.932,84.408 57.02,84.6 57.948,85.016 C60.124,85.976 61.532,88.056 61.532,90.936 C61.532,93.816 59.964,96.312 57.5,97.144 L57.5,97.208 C57.5,97.208 57.756,97.528 58.14,98.232 L62.94,107 L59.356,107 L54.588,98.008 L49.756,98.008 L49.756,107 L46.588,107 Z M49.756,95.256 L54.3,95.256 C56.764,95.256 58.332,93.592 58.332,91.096 C58.332,89.464 57.628,88.152 56.22,87.544 C55.644,87.288 54.94,87.16 53.5,87.16 L49.756,87.16 L49.756,95.256 Z M64.476,98.904 C64.476,93.752 67.996,90.424 72.604,90.424 C77.18,90.424 79.612,93.848 79.612,98.008 C79.612,98.424 79.548,98.872 79.484,99.32 L67.708,99.32 C67.868,102.808 70.364,104.696 73.276,104.696 C75.004,104.696 76.764,103.96 78.044,102.808 L79.356,105.08 C77.788,106.52 75.324,107.384 73.084,107.384 C67.996,107.384 64.476,103.704 64.476,98.904 Z M67.804,97.08 L76.476,97.08 C76.38,94.296 74.652,92.824 72.54,92.824 C70.14,92.824 68.252,94.392 67.804,97.08 Z M81.98,105.016 C83.58,106.648 85.98,107.384 88.156,107.384 C91.612,107.384 93.98,105.368 93.98,102.616 C93.98,97.272 85.628,98.2 85.628,95.032 C85.628,93.656 86.812,93.016 88.38,93.016 C89.82,93.016 91.516,93.56 92.476,94.456 L93.724,92.216 C92.316,90.936 90.332,90.424 88.476,90.424 C85.308,90.424 82.652,92.024 82.652,95.096 C82.652,100.408 90.972,99.576 90.972,102.68 C90.972,104.024 89.852,104.792 88.22,104.792 C86.524,104.792 84.668,104.088 83.452,102.904 L81.98,105.016 Z M96.604,98.904 C96.604,93.752 100.124,90.424 104.732,90.424 C109.308,90.424 111.74,93.848 111.74,98.008 C111.74,98.424 111.676,98.872 111.612,99.32 L99.836,99.32 C99.996,102.808 102.492,104.696 105.404,104.696 C107.132,104.696 108.892,103.96 110.172,102.808 L111.484,105.08 C109.916,106.52 107.452,107.384 105.212,107.384 C100.124,107.384 96.604,103.704 96.604,98.904 Z M99.932,97.08 L108.604,97.08 C108.508,94.296 106.78,92.824 104.668,92.824 C102.268,92.824 100.38,94.392 99.932,97.08 Z M115.484,107 L118.588,107 L118.588,100.28 C118.588,97.144 120.06,93.688 123.548,93.688 C123.868,93.688 124.316,93.72 124.444,93.752 L124.444,90.68 C124.188,90.648 123.9,90.616 123.612,90.616 C121.116,90.616 119.228,92.568 118.46,94.904 L118.396,94.904 C118.396,94.904 118.492,94.392 118.492,93.72 L118.492,90.808 L115.484,90.808 L115.484,107 Z M131.804,107 L135.356,107 L141.34,90.808 L138.076,90.808 L134.14,101.752 C133.852,102.648 133.596,103.96 133.596,103.96 L133.532,103.96 C133.532,103.96 133.244,102.648 132.956,101.752 L129.02,90.808 L125.724,90.808 L131.804,107 Z M142.908,98.904 C142.908,93.752 146.428,90.424 151.036,90.424 C155.612,90.424 158.044,93.848 158.044,98.008 C158.044,98.424 157.98,98.872 157.916,99.32 L146.14,99.32 C146.3,102.808 148.796,104.696 151.708,104.696 C153.436,104.696 155.196,103.96 156.476,102.808 L157.788,105.08 C156.22,106.52 153.756,107.384 151.516,107.384 C146.428,107.384 142.908,103.704 142.908,98.904 Z M146.236,97.08 L154.908,97.08 C154.812,94.296 153.084,92.824 150.972,92.824 C148.572,92.824 146.684,94.392 146.236,97.08 Z M7.996,147 L11.1,147 L11.1,133.496 L14.908,133.496 L14.908,130.968 L11.1,130.968 L11.1,130.296 C11.1,127.32 13.276,126.968 14.492,126.968 C14.844,126.968 15.164,127 15.292,127.032 L15.292,124.344 C14.876,124.28 14.524,124.248 14.108,124.248 C12.06,124.248 7.996,124.92 7.996,130.264 L7.996,130.968 L5.98,130.968 L5.98,133.496 L7.996,133.496 L7.996,147 Z M16.572,138.872 C16.572,133.976 20.476,130.424 25.276,130.424 C30.108,130.424 34.012,133.976 34.012,138.872 C34.012,143.8 30.108,147.384 25.308,147.384 C20.476,147.384 16.572,143.8 16.572,138.872 Z M19.74,138.872 C19.74,142.264 22.236,144.696 25.308,144.696 C28.348,144.696 30.876,142.264 30.876,138.872 C30.876,135.512 28.348,133.112 25.308,133.112 C22.236,133.112 19.74,135.512 19.74,138.872 Z M37.756,147 L40.86,147 L40.86,140.28 C40.86,137.144 42.332,133.688 45.82,133.688 C46.14,133.688 46.588,133.72 46.716,133.752 L46.716,130.68 C46.46,130.648 46.172,130.616 45.884,130.616 C43.388,130.616 41.5,132.568 40.732,134.904 L40.668,134.904 C40.668,134.904 40.764,134.392 40.764,133.72 L40.764,130.808 L37.756,130.808 L37.756,147 Z M57.02,127.544 L60.22,127.544 L60.22,124.408 L57.02,124.408 L57.02,127.544 Z M57.084,147 L60.188,147 L60.188,130.808 L57.084,130.808 L57.084,147 Z M64.956,147 L68.06,147 L68.06,139.224 C68.06,135.896 70.3,133.272 73.468,133.272 C76.06,133.272 76.508,135.064 76.508,137.336 L76.508,147 L79.612,147 L79.612,136.632 C79.612,132.504 77.884,130.424 74.076,130.424 C70.524,130.424 68.54,132.824 67.932,134.232 L67.868,134.232 C67.868,134.232 67.964,133.688 67.964,133.016 L67.964,130.808 L64.956,130.808 L64.956,147 Z M82.876,145.016 C84.476,146.648 86.876,147.384 89.052,147.384 C92.508,147.384 94.876,145.368 94.876,142.616 C94.876,137.272 86.524,138.2 86.524,135.032 C86.524,133.656 87.708,133.016 89.276,133.016 C90.716,133.016 92.412,133.56 93.372,134.456 L94.62,132.216 C93.212,130.936 91.228,130.424 89.372,130.424 C86.204,130.424 83.548,132.024 83.548,135.096 C83.548,140.408 91.868,139.576 91.868,142.68 C91.868,144.024 90.748,144.792 89.116,144.792 C87.42,144.792 85.564,144.088 84.348,142.904 L82.876,145.016 Z M98.364,141.176 C98.364,145.464 100.252,147.384 103.9,147.384 C107.068,147.384 109.212,145.176 109.916,143.576 L109.98,143.576 C109.98,143.576 109.852,144.12 109.852,144.76 L109.852,147 L112.86,147 L112.86,130.808 L109.788,130.808 L109.788,138.392 C109.788,141.592 107.836,144.504 104.508,144.504 C101.948,144.504 101.468,142.712 101.468,140.472 L101.468,130.808 L98.364,130.808 L98.364,141.176 Z M117.66,147 L120.764,147 L120.764,140.28 C120.764,137.144 122.236,133.688 125.724,133.688 C126.044,133.688 126.492,133.72 126.62,133.752 L126.62,130.68 C126.364,130.648 126.076,130.616 125.788,130.616 C123.292,130.616 121.404,132.568 120.636,134.904 L120.572,134.904 C120.572,134.904 120.668,134.392 120.668,133.72 L120.668,130.808 L117.66,130.808 L117.66,147 Z M128.156,142.584 C128.156,137.496 134.46,136.92 137.82,136.92 L138.652,136.92 L138.652,136.6 C138.652,133.944 137.116,133.048 135.1,133.048 C133.5,133.048 131.868,133.688 130.556,134.616 L129.308,132.344 C130.62,131.256 133.084,130.424 135.356,130.424 C139.42,130.424 141.756,132.664 141.756,136.76 L141.756,147 L138.844,147 L138.844,145.368 C138.844,144.632 138.94,144.088 138.94,144.088 L138.876,144.088 C137.948,145.944 135.964,147.384 133.564,147.384 C130.748,147.384 128.156,145.624 128.156,142.584 Z M131.26,142.328 C131.26,143.608 132.284,144.92 134.3,144.92 C137.02,144.92 138.652,142.168 138.652,139.768 L138.652,139.16 L137.852,139.16 C135.548,139.16 131.26,139.352 131.26,142.328 Z M146.364,147 L149.468,147 L149.468,139.224 C149.468,135.896 151.708,133.272 154.876,133.272 C157.468,133.272 157.916,135.064 157.916,137.336 L157.916,147 L161.02,147 L161.02,136.632 C161.02,132.504 159.292,130.424 155.484,130.424 C151.932,130.424 149.948,132.824 149.34,134.232 L149.276,134.232 C149.276,134.232 149.372,133.688 149.372,133.016 L149.372,130.808 L146.364,130.808 L146.364,147 Z M164.604,138.904 C164.604,143.768 168.156,147.384 173.276,147.384 C175.804,147.384 178.268,146.36 179.74,144.792 L178.492,142.52 C177.244,143.832 175.292,144.696 173.5,144.696 C170.14,144.696 167.772,142.168 167.772,138.872 C167.772,135.576 170.14,133.112 173.404,133.112 C175.1,133.112 176.796,133.88 177.884,134.968 L179.356,132.792 C177.82,131.16 175.42,130.424 173.276,130.424 C168.188,130.424 164.604,134.104 164.604,138.904 Z M181.692,138.904 C181.692,133.752 185.212,130.424 189.82,130.424 C194.396,130.424 196.828,133.848 196.828,138.008 C196.828,138.424 196.764,138.872 196.7,139.32 L184.924,139.32 C185.084,142.808 187.58,144.696 190.492,144.696 C192.22,144.696 193.98,143.96 195.26,142.808 L196.572,145.08 C195.004,146.52 192.54,147.384 190.3,147.384 C185.212,147.384 181.692,143.704 181.692,138.904 Z M185.02,137.08 L193.692,137.08 C193.596,134.296 191.868,132.824 189.756,132.824 C187.356,132.824 185.468,134.392 185.02,137.08 Z M45.388,193.4 L45.388,170.808 L48.268,170.808 L48.268,172.248 C48.268,172.92 48.172,173.464 48.172,173.464 L48.236,173.464 C49.26,171.512 51.308,170.424 53.676,170.424 C58.06,170.424 60.78,173.88 60.78,178.904 C60.78,184.056 57.708,187.384 53.452,187.384 C51.404,187.384 49.548,186.36 48.428,184.632 L48.364,184.632 C48.364,184.632 48.492,185.208 48.492,186.04 L48.492,193.4 L45.388,193.4 Z M48.396,178.968 C48.396,181.848 49.996,184.696 52.972,184.696 C55.532,184.696 57.644,182.616 57.644,178.936 C57.644,175.416 55.756,173.144 53.068,173.144 C50.636,173.144 48.396,174.872 48.396,178.968 Z M63.276,182.584 C63.276,177.496 69.58,176.92 72.94,176.92 L73.772,176.92 L73.772,176.6 C73.772,173.944 72.236,173.048 70.22,173.048 C68.62,173.048 66.988,173.688 65.676,174.616 L64.428,172.344 C65.74,171.256 68.204,170.424 70.476,170.424 C74.54,170.424 76.876,172.664 76.876,176.76 L76.876,187 L73.964,187 L73.964,185.368 C73.964,184.632 74.06,184.088 74.06,184.088 L73.996,184.088 C73.068,185.944 71.084,187.384 68.684,187.384 C65.868,187.384 63.276,185.624 63.276,182.584 Z M66.38,182.328 C66.38,183.608 67.404,184.92 69.42,184.92 C72.14,184.92 73.772,182.168 73.772,179.768 L73.772,179.16 L72.972,179.16 C70.668,179.16 66.38,179.352 66.38,182.328 Z M80.364,190.36 L79.276,192.728 C79.276,192.728 80.588,193.72 82.38,193.72 C84.652,193.72 86.668,192.44 87.628,189.912 L95.244,170.808 L91.884,170.808 L87.948,181.432 C87.66,182.264 87.404,183.352 87.404,183.352 L87.34,183.352 C87.34,183.352 87.052,182.2 86.732,181.4 L82.668,170.808 L79.18,170.808 L85.964,186.808 L85.164,188.664 C84.556,190.136 83.5,191.064 82.22,191.064 C81.26,191.064 80.364,190.36 80.364,190.36 Z M96.652,178.872 C96.652,173.976 100.556,170.424 105.356,170.424 C110.188,170.424 114.092,173.976 114.092,178.872 C114.092,183.8 110.188,187.384 105.388,187.384 C100.556,187.384 96.652,183.8 96.652,178.872 Z M99.82,178.872 C99.82,182.264 102.316,184.696 105.388,184.696 C108.428,184.696 110.956,182.264 110.956,178.872 C110.956,175.512 108.428,173.112 105.388,173.112 C102.316,173.112 99.82,175.512 99.82,178.872 Z M117.644,181.176 C117.644,185.464 119.532,187.384 123.18,187.384 C126.348,187.384 128.492,185.176 129.196,183.576 L129.26,183.576 C129.26,183.576 129.132,184.12 129.132,184.76 L129.132,187 L132.14,187 L132.14,170.808 L129.068,170.808 L129.068,178.392 C129.068,181.592 127.116,184.504 123.788,184.504 C121.228,184.504 120.748,182.712 120.748,180.472 L120.748,170.808 L117.644,170.808 L117.644,181.176 Z M137.612,181.08 C137.612,186.488 141.74,187.16 143.82,187.16 C144.3,187.16 144.652,187.096 144.908,187.064 L144.908,184.312 C144.588,184.376 144.396,184.376 144.172,184.376 C142.988,184.376 140.716,183.96 140.716,180.728 L140.716,173.496 L144.62,173.496 L144.62,170.968 L140.716,170.968 L140.716,166.36 L137.676,166.36 L137.676,170.968 L135.5,170.968 L135.5,173.496 L137.612,173.496 L137.612,181.08 Z M146.732,185.016 C148.332,186.648 150.732,187.384 152.908,187.384 C156.364,187.384 158.732,185.368 158.732,182.616 C158.732,177.272 150.38,178.2 150.38,175.032 C150.38,173.656 151.564,173.016 153.132,173.016 C154.572,173.016 156.268,173.56 157.228,174.456 L158.476,172.216 C157.068,170.936 155.084,170.424 153.228,170.424 C150.06,170.424 147.404,172.024 147.404,175.096 C147.404,180.408 155.724,179.576 155.724,182.68 C155.724,184.024 154.604,184.792 152.972,184.792 C151.276,184.792 149.42,184.088 148.204,182.904 L146.732,185.016 Z" id="Reserve-for-insuranc"></path>
                    <path d="M80.5527344,54 L56.3300781,54 L56.3300781,50.6230469 L69.1269531,36.4042969 C71.0227959,34.2545465 72.3304,32.5068427 73.0498047,31.1611328 C73.7692093,29.815423 74.1289062,28.4231843 74.1289062,26.984375 C74.1289062,25.0546779 73.5449277,23.4720114 72.3769531,22.2363281 C71.2089785,21.0006449 69.6517024,20.3828125 67.7050781,20.3828125 C65.3691289,20.3828125 63.5537174,21.0471939 62.2587891,22.3759766 C60.9638607,23.7047592 60.3164062,25.5540246 60.3164062,27.9238281 L55.6191406,27.9238281 C55.6191406,24.5214674 56.7151583,21.7708438 58.9072266,19.671875 C61.0992948,17.5729062 64.0318827,16.5234375 67.7050781,16.5234375 C71.1412932,16.5234375 73.8580629,17.4247957 75.8554688,19.2275391 C77.8528746,21.0302825 78.8515625,23.4296725 78.8515625,26.4257812 C78.8515625,30.0651224 76.5325753,34.3984124 71.8945312,39.4257812 L61.9921875,50.1660156 L80.5527344,50.1660156 L80.5527344,54 Z M108.710938,38.2324219 C108.710938,43.7337515 107.771494,47.8216012 105.892578,50.4960938 C104.013662,53.1705863 101.076843,54.5078125 97.0820312,54.5078125 C93.1380011,54.5078125 90.2181084,53.2002084 88.3222656,50.5849609 C86.4264228,47.9697135 85.4446618,44.0638281 85.3769531,38.8671875 L85.3769531,32.5957031 C85.3769531,27.1620822 86.3163969,23.1250132 88.1953125,20.484375 C90.0742281,17.8437368 93.0195112,16.5234375 97.03125,16.5234375 C101.009134,16.5234375 103.937491,17.7971878 105.816406,20.3447266 C107.695322,22.8922653 108.660156,26.8235411 108.710938,32.1386719 L108.710938,38.2324219 Z M104.013672,31.8085938 C104.013672,27.8307093 103.455084,24.9319752 102.337891,23.1123047 C101.220698,21.2926341 99.451835,20.3828125 97.03125,20.3828125 C94.6275921,20.3828125 92.8756565,21.2884024 91.7753906,23.0996094 C90.6751247,24.9108163 90.1080731,27.6952937 90.0742188,31.453125 L90.0742188,38.96875 C90.0742188,42.9635616 90.6539656,45.9130764 91.8134766,47.8173828 C92.9729876,49.7216892 94.7291549,50.6738281 97.0820312,50.6738281 C99.4010533,50.6738281 101.123367,49.7767017 102.249023,47.9824219 C103.37468,46.1881421 103.96289,43.3613474 104.013672,39.5019531 L104.013672,31.8085938 Z M114.322266,24.140625 C114.322266,21.923166 115.028964,20.0950593 116.442383,18.65625 C117.855801,17.2174407 119.671213,16.4980469 121.888672,16.4980469 C124.139985,16.4980469 125.96386,17.2216725 127.360352,18.6689453 C128.756843,20.1162182 129.455078,21.9908739 129.455078,24.2929688 L129.455078,26.0957031 C129.455078,28.3300893 128.748379,30.1539643 127.334961,31.5673828 C125.921542,32.9808013 124.123058,33.6875 121.939453,33.6875 C119.738921,33.6875 117.919278,32.9808013 116.480469,31.5673828 C115.041659,30.1539643 114.322266,28.2708451 114.322266,25.9179688 L114.322266,24.140625 Z M117.826172,26.0957031 C117.826172,27.4160222 118.198564,28.5035765 118.943359,29.3583984 C119.688155,30.2132204 120.686843,30.640625 121.939453,30.640625 C123.141282,30.640625 124.110348,30.2259156 124.84668,29.3964844 C125.583011,28.5670531 125.951172,27.4329499 125.951172,25.9941406 L125.951172,24.140625 C125.951172,22.8203059 125.587243,21.7285199 124.859375,20.8652344 C124.131507,20.0019488 123.141282,19.5703125 121.888672,19.5703125 C120.636061,19.5703125 119.645837,20.0019488 118.917969,20.8652344 C118.190101,21.7285199 117.826172,22.8541597 117.826172,24.2421875 L117.826172,26.0957031 Z M132.324219,44.9355469 C132.324219,42.7180879 133.030917,40.8942129 134.444336,39.4638672 C135.857754,38.0335215 137.673166,37.3183594 139.890625,37.3183594 C142.108084,37.3183594 143.927727,38.0292898 145.349609,39.4511719 C146.771491,40.873054 147.482422,42.7604049 147.482422,45.1132812 L147.482422,46.9160156 C147.482422,49.1334746 146.775723,50.9573496 145.362305,52.3876953 C143.948886,53.818041 142.141938,54.5332031 139.941406,54.5332031 C137.740874,54.5332031 135.921231,53.8265045 134.482422,52.4130859 C133.043613,50.9996674 132.324219,49.1165482 132.324219,46.7636719 L132.324219,44.9355469 Z M135.828125,46.9160156 C135.828125,48.2532619 136.200517,49.3492796 136.945312,50.2041016 C137.690108,51.0589235 138.688796,51.4863281 139.941406,51.4863281 C141.160162,51.4863281 142.13346,51.067387 142.861328,50.2294922 C143.589196,49.3915974 143.953125,48.2532624 143.953125,46.8144531 L143.953125,44.9355469 C143.953125,43.5983006 143.584965,42.5065146 142.848633,41.6601562 C142.112301,40.8137979 141.126308,40.390625 139.890625,40.390625 C138.688796,40.390625 137.711267,40.8095661 136.958008,41.6474609 C136.204749,42.4853558 135.828125,43.6152273 135.828125,45.0371094 L135.828125,46.9160156 Z M123.005859,51.2070312 L120.339844,49.53125 L138.392578,20.6367188 L141.058594,22.3125 L123.005859,51.2070312 Z" id="20%"></path>
                </g>
                <g id="arrow" transform="translate(172.000000, 126.500000) rotate(-90.000000) translate(-172.000000, -126.500000) translate(64.500000, 41.500000)" stroke="#FF674C" stroke-width="2" stroke-linecap="round" stroke-linejoin="round">
                    <path d="M214.031472,169.311632 C214,125 183.080028,10 1,10" id="Path-10"></path>
                    <polyline id="Line-2" transform="translate(5.000000, 10.000000) rotate(-90.000000) translate(-5.000000, -10.000000) " points="-5 15 5.07852624 5 15 15"></polyline>
                </g>
                <g id="arrow" transform="translate(211.000000, 576.500000) rotate(-180.000000) translate(-211.000000, -576.500000) translate(96.500000, 469.500000)" stroke="#FF674C" stroke-width="2" stroke-linecap="round" stroke-linejoin="round">
                    <path d="M228.031472,213.309998 C228,178.99859 222.080028,10 5.68434189e-14,10" id="Path-10"></path>
                    <polyline id="Line-2" transform="translate(5.000000, 10.000000) rotate(-90.000000) translate(-5.000000, -10.000000) " points="-5 15 5.07852624 5 15 15"></polyline>
                </g>
                <g id="arrow" transform="translate(620.500000, 571.500000) scale(-1, 1) rotate(-180.000000) translate(-620.500000, -571.500000) translate(501.500000, 469.500000)" stroke="#FF674C" stroke-width="2" stroke-linecap="round" stroke-linejoin="round">
                    <path d="M228.031472,203.309998 C228.018612,189.290189 227.022621,152.783286 210.698808,114.506679 M75.4358418,7.74665474 C53.5705848,2.7978514 28.5746082,-7.46492889e-15 0,0" id="Path-10"></path>
                    <polyline id="Line-2" transform="translate(228.000000, 199.000000) rotate(-180.000000) translate(-228.000000, -199.000000) " points="218 204 228.078526 194 238 204"></polyline>
                </g>
                <g id="arrow" transform="translate(655.000000, 126.500000) scale(-1, 1) rotate(-90.000000) translate(-655.000000, -126.500000) translate(547.500000, 41.500000)" stroke="#FF674C" stroke-width="2" stroke-linecap="round" stroke-linejoin="round">
                    <path d="M214.031472,169.311632 C214,125 183.080028,10 1,10" id="Path-10"></path>
                    <polyline id="Line-2" transform="translate(5.000000, 10.000000) rotate(-90.000000) translate(-5.000000, -10.000000) " points="-5 15 5.07852624 5 15 15"></polyline>
                </g>
                <path d="M568.304,597.774 C568.304,594.992 570.54,593.276 571.242,592.808 C570.046,591.976 569.188,590.858 569.188,589.194 C569.188,586.672 571.034,584.332 574.908,584.332 C578.314,584.332 580.68,586.256 580.68,589.22 C580.68,591.534 579.016,593.484 578.47,594.03 C579.9,594.888 580.966,596.032 580.966,597.93 C580.966,600.79 578.522,603.312 574.674,603.312 C571.06,603.312 568.304,600.972 568.304,597.774 Z M576.494,593.042 C576.884,592.626 578.158,591.222 578.158,589.428 C578.158,587.686 576.806,586.646 574.856,586.646 C572.854,586.646 571.736,587.79 571.736,589.194 C571.736,591.274 574.206,592.028 576.494,593.042 Z M570.93,597.566 C570.93,599.62 572.75,600.998 574.648,600.998 C576.598,600.998 578.34,599.75 578.34,597.878 C578.34,595.798 575.558,595.07 573.166,593.926 C572.568,594.342 570.93,595.564 570.93,597.566 Z M590.638,603.312 C585.75,603.312 584.138,599.1 584.138,593.796 C584.138,588.518 585.75,584.332 590.638,584.332 C595.552,584.332 597.138,588.518 597.138,593.796 C597.138,599.1 595.552,603.312 590.638,603.312 Z M590.638,600.946 C593.654,600.946 594.486,597.826 594.486,593.796 C594.486,589.818 593.654,586.698 590.638,586.698 C587.648,586.698 586.79,589.818 586.79,593.796 C586.79,597.826 587.648,600.946 590.638,600.946 Z M603.924,592.028 C601.74,592.028 599.998,590.312 599.998,588.18 C599.998,586.074 601.74,584.332 603.924,584.332 C606.108,584.332 607.902,586.074 607.902,588.18 C607.902,590.312 606.108,592.028 603.924,592.028 Z M600.388,603 L614.454,584.644 L616.898,584.644 L602.858,603 L600.388,603 Z M603.924,590.104 C605.016,590.104 605.874,589.272 605.874,588.18 C605.874,587.114 605.016,586.23 603.924,586.23 C602.858,586.23 602.026,587.114 602.026,588.18 C602.026,589.272 602.858,590.104 603.924,590.104 Z M609.436,599.49 C609.436,597.358 611.178,595.616 613.362,595.616 C615.546,595.616 617.314,597.358 617.314,599.49 C617.314,601.596 615.546,603.312 613.362,603.312 C611.178,603.312 609.436,601.596 609.436,599.49 Z M611.464,599.464 C611.464,600.53 612.27,601.388 613.362,601.388 C614.454,601.388 615.286,600.53 615.286,599.464 C615.286,598.398 614.454,597.514 613.362,597.514 C612.27,597.514 611.464,598.398 611.464,599.464 Z M626.934,596.604 L645.784,596.604 L645.784,594.576 L626.934,594.576 L626.934,596.604 Z M656.054,587.192 L658.654,587.192 L658.654,584.644 L656.054,584.644 L656.054,587.192 Z M656.106,603 L658.628,603 L658.628,589.844 L656.106,589.844 L656.106,603 Z M662.502,603 L665.024,603 L665.024,596.682 C665.024,593.978 666.844,591.846 669.418,591.846 C671.524,591.846 671.888,593.302 671.888,595.148 L671.888,603 L674.41,603 L674.41,594.576 C674.41,591.222 673.006,589.532 669.912,589.532 C667.026,589.532 665.414,591.482 664.92,592.626 L664.868,592.626 C664.868,592.626 664.946,592.184 664.946,591.638 L664.946,589.844 L662.502,589.844 L662.502,603 Z M677.322,596.422 C677.322,600.374 680.208,603.312 684.368,603.312 C686.422,603.312 688.424,602.48 689.62,601.206 L688.606,599.36 C687.592,600.426 686.006,601.128 684.55,601.128 C681.82,601.128 679.896,599.074 679.896,596.396 C679.896,593.718 681.82,591.716 684.472,591.716 C685.85,591.716 687.228,592.34 688.112,593.224 L689.308,591.456 C688.06,590.13 686.11,589.532 684.368,589.532 C680.234,589.532 677.322,592.522 677.322,596.422 Z M692.35,603 L694.872,603 L694.872,597.54 C694.872,594.992 696.068,592.184 698.902,592.184 C699.162,592.184 699.526,592.21 699.63,592.236 L699.63,589.74 C699.422,589.714 699.188,589.688 698.954,589.688 C696.926,589.688 695.392,591.274 694.768,593.172 L694.716,593.172 C694.716,593.172 694.794,592.756 694.794,592.21 L694.794,589.844 L692.35,589.844 L692.35,603 Z M700.93,596.422 C700.93,592.236 703.79,589.532 707.534,589.532 C711.252,589.532 713.228,592.314 713.228,595.694 C713.228,596.032 713.176,596.396 713.124,596.76 L703.556,596.76 C703.686,599.594 705.714,601.128 708.08,601.128 C709.484,601.128 710.914,600.53 711.954,599.594 L713.02,601.44 C711.746,602.61 709.744,603.312 707.924,603.312 C703.79,603.312 700.93,600.322 700.93,596.422 Z M703.634,594.94 L710.68,594.94 C710.602,592.678 709.198,591.482 707.482,591.482 C705.532,591.482 703.998,592.756 703.634,594.94 Z M715.178,599.412 C715.178,595.278 720.3,594.81 723.03,594.81 L723.706,594.81 L723.706,594.55 C723.706,592.392 722.458,591.664 720.82,591.664 C719.52,591.664 718.194,592.184 717.128,592.938 L716.114,591.092 C717.18,590.208 719.182,589.532 721.028,589.532 C724.33,589.532 726.228,591.352 726.228,594.68 L726.228,603 L723.862,603 L723.862,601.674 C723.862,601.076 723.94,600.634 723.94,600.634 L723.888,600.634 C723.134,602.142 721.522,603.312 719.572,603.312 C717.284,603.312 715.178,601.882 715.178,599.412 Z M717.7,599.204 C717.7,600.244 718.532,601.31 720.17,601.31 C722.38,601.31 723.706,599.074 723.706,597.124 L723.706,596.63 L723.056,596.63 C721.184,596.63 717.7,596.786 717.7,599.204 Z M728.854,601.388 C730.154,602.714 732.104,603.312 733.872,603.312 C736.68,603.312 738.604,601.674 738.604,599.438 C738.604,595.096 731.818,595.85 731.818,593.276 C731.818,592.158 732.78,591.638 734.054,591.638 C735.224,591.638 736.602,592.08 737.382,592.808 L738.396,590.988 C737.252,589.948 735.64,589.532 734.132,589.532 C731.558,589.532 729.4,590.832 729.4,593.328 C729.4,597.644 736.16,596.968 736.16,599.49 C736.16,600.582 735.25,601.206 733.924,601.206 C732.546,601.206 731.038,600.634 730.05,599.672 L728.854,601.388 Z M740.736,596.422 C740.736,592.236 743.596,589.532 747.34,589.532 C751.058,589.532 753.034,592.314 753.034,595.694 C753.034,596.032 752.982,596.396 752.93,596.76 L743.362,596.76 C743.492,599.594 745.52,601.128 747.886,601.128 C749.29,601.128 750.72,600.53 751.76,599.594 L752.826,601.44 C751.552,602.61 749.55,603.312 747.73,603.312 C743.596,603.312 740.736,600.322 740.736,596.422 Z M743.44,594.94 L750.486,594.94 C750.408,592.678 749.004,591.482 747.288,591.482 C745.338,591.482 743.804,592.756 743.44,594.94 Z M551.222,621.192 L553.822,621.192 L553.822,618.644 L551.222,618.644 L551.222,621.192 Z M551.274,637 L553.796,637 L553.796,623.844 L551.274,623.844 L551.274,637 Z M557.67,637 L560.192,637 L560.192,630.682 C560.192,627.978 562.012,625.846 564.586,625.846 C566.692,625.846 567.056,627.302 567.056,629.148 L567.056,637 L569.578,637 L569.578,628.576 C569.578,625.222 568.174,623.532 565.08,623.532 C562.194,623.532 560.582,625.482 560.088,626.626 L560.036,626.626 C560.036,626.626 560.114,626.184 560.114,625.638 L560.114,623.844 L557.67,623.844 L557.67,637 Z M572.23,635.388 C573.53,636.714 575.48,637.312 577.248,637.312 C580.056,637.312 581.98,635.674 581.98,633.438 C581.98,629.096 575.194,629.85 575.194,627.276 C575.194,626.158 576.156,625.638 577.43,625.638 C578.6,625.638 579.978,626.08 580.758,626.808 L581.772,624.988 C580.628,623.948 579.016,623.532 577.508,623.532 C574.934,623.532 572.776,624.832 572.776,627.328 C572.776,631.644 579.536,630.968 579.536,633.49 C579.536,634.582 578.626,635.206 577.3,635.206 C575.922,635.206 574.414,634.634 573.426,633.672 L572.23,635.388 Z M584.814,632.268 C584.814,635.752 586.348,637.312 589.312,637.312 C591.886,637.312 593.628,635.518 594.2,634.218 L594.252,634.218 C594.252,634.218 594.148,634.66 594.148,635.18 L594.148,637 L596.592,637 L596.592,623.844 L594.096,623.844 L594.096,630.006 C594.096,632.606 592.51,634.972 589.806,634.972 C587.726,634.972 587.336,633.516 587.336,631.696 L587.336,623.844 L584.814,623.844 L584.814,632.268 Z M600.492,637 L603.014,637 L603.014,631.54 C603.014,628.992 604.21,626.184 607.044,626.184 C607.304,626.184 607.668,626.21 607.772,626.236 L607.772,623.74 C607.564,623.714 607.33,623.688 607.096,623.688 C605.068,623.688 603.534,625.274 602.91,627.172 L602.858,627.172 C602.858,627.172 602.936,626.756 602.936,626.21 L602.936,623.844 L600.492,623.844 L600.492,637 Z M609.02,633.412 C609.02,629.278 614.142,628.81 616.872,628.81 L617.548,628.81 L617.548,628.55 C617.548,626.392 616.3,625.664 614.662,625.664 C613.362,625.664 612.036,626.184 610.97,626.938 L609.956,625.092 C611.022,624.208 613.024,623.532 614.87,623.532 C618.172,623.532 620.07,625.352 620.07,628.68 L620.07,637 L617.704,637 L617.704,635.674 C617.704,635.076 617.782,634.634 617.782,634.634 L617.73,634.634 C616.976,636.142 615.364,637.312 613.414,637.312 C611.126,637.312 609.02,635.882 609.02,633.412 Z M611.542,633.204 C611.542,634.244 612.374,635.31 614.012,635.31 C616.222,635.31 617.548,633.074 617.548,631.124 L617.548,630.63 L616.898,630.63 C615.026,630.63 611.542,630.786 611.542,633.204 Z M623.814,637 L626.336,637 L626.336,630.682 C626.336,627.978 628.156,625.846 630.73,625.846 C632.836,625.846 633.2,627.302 633.2,629.148 L633.2,637 L635.722,637 L635.722,628.576 C635.722,625.222 634.318,623.532 631.224,623.532 C628.338,623.532 626.726,625.482 626.232,626.626 L626.18,626.626 C626.18,626.626 626.258,626.184 626.258,625.638 L626.258,623.844 L623.814,623.844 L623.814,637 Z M638.634,630.422 C638.634,634.374 641.52,637.312 645.68,637.312 C647.734,637.312 649.736,636.48 650.932,635.206 L649.918,633.36 C648.904,634.426 647.318,635.128 645.862,635.128 C643.132,635.128 641.208,633.074 641.208,630.396 C641.208,627.718 643.132,625.716 645.784,625.716 C647.162,625.716 648.54,626.34 649.424,627.224 L650.62,625.456 C649.372,624.13 647.422,623.532 645.68,623.532 C641.546,623.532 638.634,626.522 638.634,630.422 Z M652.518,630.422 C652.518,626.236 655.378,623.532 659.122,623.532 C662.84,623.532 664.816,626.314 664.816,629.694 C664.816,630.032 664.764,630.396 664.712,630.76 L655.144,630.76 C655.274,633.594 657.302,635.128 659.668,635.128 C661.072,635.128 662.502,634.53 663.542,633.594 L664.608,635.44 C663.334,636.61 661.332,637.312 659.512,637.312 C655.378,637.312 652.518,634.322 652.518,630.422 Z M655.222,628.94 L662.268,628.94 C662.19,626.678 660.786,625.482 659.07,625.482 C657.12,625.482 655.586,626.756 655.222,628.94 Z M674.358,637 L676.88,637 L676.88,631.54 C676.88,628.992 678.076,626.184 680.91,626.184 C681.17,626.184 681.534,626.21 681.638,626.236 L681.638,623.74 C681.43,623.714 681.196,623.688 680.962,623.688 C678.934,623.688 677.4,625.274 676.776,627.172 L676.724,627.172 C676.724,627.172 676.802,626.756 676.802,626.21 L676.802,623.844 L674.358,623.844 L674.358,637 Z M682.938,630.422 C682.938,626.236 685.798,623.532 689.542,623.532 C693.26,623.532 695.236,626.314 695.236,629.694 C695.236,630.032 695.184,630.396 695.132,630.76 L685.564,630.76 C685.694,633.594 687.722,635.128 690.088,635.128 C691.492,635.128 692.922,634.53 693.962,633.594 L695.028,635.44 C693.754,636.61 691.752,637.312 689.932,637.312 C685.798,637.312 682.938,634.322 682.938,630.422 Z M685.642,628.94 L692.688,628.94 C692.61,626.678 691.206,625.482 689.49,625.482 C687.54,625.482 686.006,626.756 685.642,628.94 Z M697.16,635.388 C698.46,636.714 700.41,637.312 702.178,637.312 C704.986,637.312 706.91,635.674 706.91,633.438 C706.91,629.096 700.124,629.85 700.124,627.276 C700.124,626.158 701.086,625.638 702.36,625.638 C703.53,625.638 704.908,626.08 705.688,626.808 L706.702,624.988 C705.558,623.948 703.946,623.532 702.438,623.532 C699.864,623.532 697.706,624.832 697.706,627.328 C697.706,631.644 704.466,630.968 704.466,633.49 C704.466,634.582 703.556,635.206 702.23,635.206 C700.852,635.206 699.344,634.634 698.356,633.672 L697.16,635.388 Z M709.042,630.422 C709.042,626.236 711.902,623.532 715.646,623.532 C719.364,623.532 721.34,626.314 721.34,629.694 C721.34,630.032 721.288,630.396 721.236,630.76 L711.668,630.76 C711.798,633.594 713.826,635.128 716.192,635.128 C717.596,635.128 719.026,634.53 720.066,633.594 L721.132,635.44 C719.858,636.61 717.856,637.312 716.036,637.312 C711.902,637.312 709.042,634.322 709.042,630.422 Z M711.746,628.94 L718.792,628.94 C718.714,626.678 717.31,625.482 715.594,625.482 C713.644,625.482 712.11,626.756 711.746,628.94 Z M724.382,637 L726.904,637 L726.904,631.54 C726.904,628.992 728.1,626.184 730.934,626.184 C731.194,626.184 731.558,626.21 731.662,626.236 L731.662,623.74 C731.454,623.714 731.22,623.688 730.986,623.688 C728.958,623.688 727.424,625.274 726.8,627.172 L726.748,627.172 C726.748,627.172 726.826,626.756 726.826,626.21 L726.826,623.844 L724.382,623.844 L724.382,637 Z M737.642,637 L740.528,637 L745.39,623.844 L742.738,623.844 L739.54,632.736 C739.306,633.464 739.098,634.53 739.098,634.53 L739.046,634.53 C739.046,634.53 738.812,633.464 738.578,632.736 L735.38,623.844 L732.702,623.844 L737.642,637 Z M746.664,630.422 C746.664,626.236 749.524,623.532 753.268,623.532 C756.986,623.532 758.962,626.314 758.962,629.694 C758.962,630.032 758.91,630.396 758.858,630.76 L749.29,630.76 C749.42,633.594 751.448,635.128 753.814,635.128 C755.218,635.128 756.648,634.53 757.688,633.594 L758.754,635.44 C757.48,636.61 755.478,637.312 753.658,637.312 C749.524,637.312 746.664,634.322 746.664,630.422 Z M749.368,628.94 L756.414,628.94 C756.336,626.678 754.932,625.482 753.216,625.482 C751.266,625.482 749.732,626.756 749.368,628.94 Z M760.886,635.388 C762.186,636.714 764.136,637.312 765.904,637.312 C768.712,637.312 770.636,635.674 770.636,633.438 C770.636,629.096 763.85,629.85 763.85,627.276 C763.85,626.158 764.812,625.638 766.086,625.638 C767.256,625.638 768.634,626.08 769.414,626.808 L770.428,624.988 C769.284,623.948 767.672,623.532 766.164,623.532 C763.59,623.532 761.432,624.832 761.432,627.328 C761.432,631.644 768.192,630.968 768.192,633.49 C768.192,634.582 767.282,635.206 765.956,635.206 C764.578,635.206 763.07,634.634 762.082,633.672 L760.886,635.388 Z" id="80%--increase-insur" fill="#FF674C"></path>
                <g id="Group" transform="translate(414.000000, 832.000000) scale(-1, 1) rotate(-360.000000) translate(-414.000000, -832.000000) translate(404.000000, 709.000000)" stroke="#FF674C" stroke-width="2" stroke-linecap="round" stroke-linejoin="round">
                    <polyline id="Line-2" transform="translate(10.000000, 241.000000) rotate(-180.000000) translate(-10.000000, -241.000000) " points="0 246 10.0785262 236 20 246"></polyline>
                    <path d="M10,-1.13686838e-13 L10,85.9873941 M10,159.997156 L10,245.137034" id="Path-9"></path>
                </g>
                <path d="M389.606,842 L401.436,842 L401.436,839.764 L392.284,839.764 C392.388,835.578 401.15,834.642 401.15,828.61 C401.15,825.438 398.732,823.332 395.378,823.332 C392.674,823.332 390.594,824.892 389.554,826.816 L391.452,828.09 C392.232,826.764 393.636,825.75 395.17,825.75 C397.12,825.75 398.498,826.998 398.498,828.792 C398.498,833.108 389.476,834.07 389.476,840.596 C389.476,841.038 389.528,841.506 389.606,842 Z M411.03,842.312 C406.142,842.312 404.53,838.1 404.53,832.796 C404.53,827.518 406.142,823.332 411.03,823.332 C415.944,823.332 417.53,827.518 417.53,832.796 C417.53,838.1 415.944,842.312 411.03,842.312 Z M411.03,839.946 C414.046,839.946 414.878,836.826 414.878,832.796 C414.878,828.818 414.046,825.698 411.03,825.698 C408.04,825.698 407.182,828.818 407.182,832.796 C407.182,836.826 408.04,839.946 411.03,839.946 Z M424.316,831.028 C422.132,831.028 420.39,829.312 420.39,827.18 C420.39,825.074 422.132,823.332 424.316,823.332 C426.5,823.332 428.294,825.074 428.294,827.18 C428.294,829.312 426.5,831.028 424.316,831.028 Z M420.78,842 L434.846,823.644 L437.29,823.644 L423.25,842 L420.78,842 Z M424.316,829.104 C425.408,829.104 426.266,828.272 426.266,827.18 C426.266,826.114 425.408,825.23 424.316,825.23 C423.25,825.23 422.418,826.114 422.418,827.18 C422.418,828.272 423.25,829.104 424.316,829.104 Z M429.828,838.49 C429.828,836.358 431.57,834.616 433.754,834.616 C435.938,834.616 437.706,836.358 437.706,838.49 C437.706,840.596 435.938,842.312 433.754,842.312 C431.57,842.312 429.828,840.596 429.828,838.49 Z M431.856,838.464 C431.856,839.53 432.662,840.388 433.754,840.388 C434.846,840.388 435.678,839.53 435.678,838.464 C435.678,837.398 434.846,836.514 433.754,836.514 C432.662,836.514 431.856,837.398 431.856,838.464 Z" id="20%" fill="#FF674C"></path>
            </g>
        </g>
    </g>
</svg>