<?xml version="1.0" encoding="UTF-8"?>
<svg width="1120px" height="1110px" viewBox="0 0 1120 1110" version="1.1" xmlns="http://www.w3.org/2000/svg" xmlns:xlink="http://www.w3.org/1999/xlink">
    <!-- Generator: Sketch 46.1 (44463) - http://www.bohemiancoding.com/sketch -->
    <title>scheme-5</title>
    <desc>Created with Sketch.</desc>
    <defs></defs>
    <g id="Main" stroke="none" stroke-width="1" fill="none" fill-rule="evenodd">
        <g id="scheme-5">
            <g id="Group-3" transform="translate(91.000000, 0.000000)">
                <g id="Group-4" transform="translate(421.000000, 0.000000)" fill="#FFFFFF">
                    <path d="M5.828,54 L10.976,54 L10.976,17.288 L5.828,17.288 L5.828,54 Z M18.464,35.436 C18.464,46.2 25.9,54.624 37.288,54.624 C43.788,54.624 48.364,51.92 51.484,48.8 L48.728,45.108 C45.764,48.072 41.552,49.892 37.444,49.892 C28.916,49.892 23.768,43.184 23.768,35.384 C23.768,27.636 28.812,21.344 37.34,21.344 C41.136,21.344 45.244,22.956 47.948,25.348 L50.548,21.5 C47.012,18.12 41.864,16.664 37.132,16.664 C26.212,16.664 18.464,24.776 18.464,35.436 Z M54.76,35.384 C54.76,24.828 62.716,16.664 73.636,16.664 C84.556,16.664 92.46,24.828 92.46,35.384 C92.46,46.2 84.556,54.624 73.636,54.624 C62.716,54.624 54.76,46.2 54.76,35.384 Z M60.064,35.384 C60.064,43.6 65.784,49.892 73.636,49.892 C81.436,49.892 87.156,43.6 87.156,35.384 C87.156,27.428 81.436,21.344 73.636,21.344 C65.784,21.344 60.064,27.428 60.064,35.384 Z" id="ICO"></path>
                </g>
                <path d="M404.3,697 L407.468,697 L407.468,677.16 L418.924,677.16 L418.924,697 L422.092,697 L422.092,674.408 L404.3,674.408 L404.3,697 Z M427.276,703.4 L427.276,680.808 L430.156,680.808 L430.156,682.248 C430.156,682.92 430.06,683.464 430.06,683.464 L430.124,683.464 C431.148,681.512 433.196,680.424 435.564,680.424 C439.948,680.424 442.668,683.88 442.668,688.904 C442.668,694.056 439.596,697.384 435.34,697.384 C433.292,697.384 431.436,696.36 430.316,694.632 L430.252,694.632 C430.252,694.632 430.38,695.208 430.38,696.04 L430.38,703.4 L427.276,703.4 Z M430.284,688.968 C430.284,691.848 431.884,694.696 434.86,694.696 C437.42,694.696 439.532,692.616 439.532,688.936 C439.532,685.416 437.644,683.144 434.956,683.144 C432.524,683.144 430.284,684.872 430.284,688.968 Z M446.508,697 L449.484,697 L456.492,687.336 C457.004,686.568 457.804,685.48 457.9,685.192 L457.964,685.192 C457.964,685.448 457.868,686.568 457.868,687.336 L457.868,697 L460.876,697 L460.876,680.808 L457.868,680.808 L450.892,690.472 C450.348,691.24 449.58,692.36 449.452,692.648 L449.388,692.648 C449.42,692.488 449.484,691.336 449.484,690.472 L449.484,680.808 L446.508,680.808 L446.508,697 Z M464.94,687.688 C464.94,681.896 466.604,678.376 472.236,676.008 L478.028,673.512 L479.052,676.072 L472.844,678.664 C469.612,680.136 468.076,682.024 467.852,685.128 L467.916,685.128 C469.356,682.952 471.5,682.248 473.644,682.248 C477.708,682.248 480.524,685.128 480.524,689.704 C480.524,694.184 477.452,697.384 472.876,697.384 C467.404,697.384 464.94,693.288 464.94,687.688 Z M468.172,689.704 C468.172,692.904 470.252,694.76 472.748,694.76 C475.308,694.76 477.388,692.904 477.388,689.768 C477.388,686.6 475.308,684.712 472.876,684.712 C470.124,684.712 468.172,686.856 468.172,689.704 Z M499.052,697 L502.156,697 L502.156,680.808 L499.052,680.808 L499.052,697 Z M484.396,697 L484.396,680.808 L487.5,680.808 L487.5,686.664 L490.668,686.664 C494.028,686.664 496.556,688.2 496.556,691.88 C496.556,694.92 494.7,697 490.636,697 L484.396,697 Z M487.5,694.76 L490.22,694.76 C492.46,694.76 493.42,693.544 493.42,691.848 C493.42,690.12 492.428,688.904 490.188,688.904 L487.5,688.904 L487.5,694.76 Z M505.196,697.16 C509.964,696.904 511.82,693.128 511.82,685.8 L511.82,683.368 L516.588,683.368 L516.588,697 L519.692,697 L519.692,680.808 L508.844,680.808 L508.844,685.8 C508.844,691.656 507.564,694.024 505.196,694.376 L505.196,697.16 Z M524.492,697 L524.492,680.808 L527.596,680.808 L527.596,686.664 L530.86,686.664 C534.22,686.664 536.748,688.2 536.748,691.88 C536.748,694.92 534.892,697 530.796,697 L524.492,697 Z M527.596,694.76 L530.38,694.76 C532.62,694.76 533.58,693.544 533.58,691.848 C533.58,690.12 532.62,688.904 530.38,688.904 L527.596,688.904 L527.596,694.76 Z" id="Прибыль" fill="#FFFFFF"></path>
                <path d="M356.38,1011.544 C356.38,1005.048 361.468,1000.024 367.996,1000.024 C374.524,1000.024 379.58,1005.048 379.58,1011.544 C379.58,1018.2 374.524,1023.384 367.996,1023.384 C361.468,1023.384 356.38,1018.2 356.38,1011.544 Z M359.644,1011.544 C359.644,1016.6 363.356,1020.472 367.996,1020.472 C372.604,1020.472 376.316,1016.6 376.316,1011.544 C376.316,1006.648 372.604,1002.904 367.996,1002.904 C363.356,1002.904 359.644,1006.648 359.644,1011.544 Z M383.356,1023 L386.46,1023 L386.46,1009.464 L394.396,1009.464 L394.396,1023 L397.5,1023 L397.5,1006.808 L383.356,1006.808 L383.356,1023 Z M401.244,1014.904 C401.244,1009.752 404.764,1006.424 409.372,1006.424 C413.948,1006.424 416.38,1009.848 416.38,1014.008 C416.38,1014.424 416.316,1014.872 416.252,1015.32 L404.476,1015.32 C404.636,1018.808 407.132,1020.696 410.044,1020.696 C411.772,1020.696 413.532,1019.96 414.812,1018.808 L416.124,1021.08 C414.556,1022.52 412.092,1023.384 409.852,1023.384 C404.764,1023.384 401.244,1019.704 401.244,1014.904 Z M404.572,1013.08 L413.244,1013.08 C413.148,1010.296 411.42,1008.824 409.308,1008.824 C406.908,1008.824 405.02,1010.392 404.572,1013.08 Z M420.124,1029.4 L420.124,1006.808 L423.004,1006.808 L423.004,1008.248 C423.004,1008.92 422.908,1009.464 422.908,1009.464 L422.972,1009.464 C423.996,1007.512 426.044,1006.424 428.412,1006.424 C432.796,1006.424 435.516,1009.88 435.516,1014.904 C435.516,1020.056 432.444,1023.384 428.188,1023.384 C426.14,1023.384 424.284,1022.36 423.164,1020.632 L423.1,1020.632 C423.1,1020.632 423.228,1021.208 423.228,1022.04 L423.228,1029.4 L420.124,1029.4 Z M423.132,1014.968 C423.132,1017.848 424.732,1020.696 427.708,1020.696 C430.268,1020.696 432.38,1018.616 432.38,1014.936 C432.38,1011.416 430.492,1009.144 427.804,1009.144 C425.372,1009.144 423.132,1010.872 423.132,1014.968 Z M438.012,1018.584 C438.012,1013.496 444.316,1012.92 447.676,1012.92 L448.508,1012.92 L448.508,1012.6 C448.508,1009.944 446.972,1009.048 444.956,1009.048 C443.356,1009.048 441.724,1009.688 440.412,1010.616 L439.164,1008.344 C440.476,1007.256 442.94,1006.424 445.212,1006.424 C449.276,1006.424 451.612,1008.664 451.612,1012.76 L451.612,1023 L448.7,1023 L448.7,1021.368 C448.7,1020.632 448.796,1020.088 448.796,1020.088 L448.732,1020.088 C447.804,1021.944 445.82,1023.384 443.42,1023.384 C440.604,1023.384 438.012,1021.624 438.012,1018.584 Z M441.116,1018.328 C441.116,1019.608 442.14,1020.92 444.156,1020.92 C446.876,1020.92 448.508,1018.168 448.508,1015.768 L448.508,1015.16 L447.708,1015.16 C445.404,1015.16 441.116,1015.352 441.116,1018.328 Z M456.188,1023 L469.564,1023 L469.564,1026.84 L472.412,1026.84 L472.412,1020.312 L470.14,1020.312 L470.14,1006.808 L467.004,1006.808 L467.004,1020.312 L459.292,1020.312 L459.292,1006.808 L456.188,1006.808 L456.188,1023 Z M475.708,1023 L478.684,1023 L485.692,1013.336 C486.204,1012.568 487.004,1011.48 487.1,1011.192 L487.164,1011.192 C487.164,1011.448 487.068,1012.568 487.068,1013.336 L487.068,1023 L490.076,1023 L490.076,1006.808 L487.068,1006.808 L480.092,1016.472 C479.548,1017.24 478.78,1018.36 478.652,1018.648 L478.588,1018.648 C478.62,1018.488 478.684,1017.336 478.684,1016.472 L478.684,1006.808 L475.708,1006.808 L475.708,1023 Z M493.788,1014.872 C493.788,1009.976 497.692,1006.424 502.492,1006.424 C507.324,1006.424 511.228,1009.976 511.228,1014.872 C511.228,1019.8 507.324,1023.384 502.524,1023.384 C497.692,1023.384 493.788,1019.8 493.788,1014.872 Z M496.956,1014.872 C496.956,1018.264 499.452,1020.696 502.524,1020.696 C505.564,1020.696 508.092,1018.264 508.092,1014.872 C508.092,1011.512 505.564,1009.112 502.524,1009.112 C499.452,1009.112 496.956,1011.512 496.956,1014.872 Z M514.972,1023 L518.076,1023 L518.076,1016.056 L526.268,1016.056 L526.268,1023 L529.372,1023 L529.372,1006.808 L526.268,1006.808 L526.268,1013.4 L518.076,1013.4 L518.076,1006.808 L514.972,1006.808 L514.972,1023 Z M534.172,1023 L537.276,1023 L537.276,1016.056 L545.468,1016.056 L545.468,1023 L548.572,1023 L548.572,1006.808 L545.468,1006.808 L545.468,1013.4 L537.276,1013.4 L537.276,1006.808 L534.172,1006.808 L534.172,1023 Z M552.028,1018.584 C552.028,1013.496 558.332,1012.92 561.692,1012.92 L562.524,1012.92 L562.524,1012.6 C562.524,1009.944 560.988,1009.048 558.972,1009.048 C557.372,1009.048 555.74,1009.688 554.428,1010.616 L553.18,1008.344 C554.492,1007.256 556.956,1006.424 559.228,1006.424 C563.292,1006.424 565.628,1008.664 565.628,1012.76 L565.628,1023 L562.716,1023 L562.716,1021.368 C562.716,1020.632 562.812,1020.088 562.812,1020.088 L562.748,1020.088 C561.82,1021.944 559.836,1023.384 557.436,1023.384 C554.62,1023.384 552.028,1021.624 552.028,1018.584 Z M555.132,1018.328 C555.132,1019.608 556.156,1020.92 558.172,1020.92 C560.892,1020.92 562.524,1018.168 562.524,1015.768 L562.524,1015.16 L561.724,1015.16 C559.42,1015.16 555.132,1015.352 555.132,1018.328 Z M568.572,1023 L572.316,1017.624 C572.668,1017.048 573.052,1016.632 573.052,1016.632 L573.052,1016.6 C571.196,1016.088 569.532,1014.36 569.532,1011.896 C569.532,1008.568 571.9,1006.808 575.324,1006.808 L581.788,1006.808 L581.788,1023 L578.684,1023 L578.684,1017.144 L575.964,1017.144 L571.996,1023 L568.572,1023 Z M575.996,1014.872 L578.684,1014.872 L578.684,1008.952 L576.092,1008.952 C574.012,1008.952 572.668,1009.784 572.668,1011.864 C572.668,1013.88 574.108,1014.872 575.996,1014.872 Z M371.5,1060.44 L378.668,1060.44 L378.668,1049.336 L373.804,1049.336 L373.804,1050.2 C373.804,1052.632 373.548,1057.24 371.5,1060.44 Z M366.316,1060.44 L368.3,1060.44 C370.572,1057.336 370.828,1052.28 370.828,1049.784 L370.828,1046.808 L381.772,1046.808 L381.772,1060.44 L384.076,1060.44 L384.076,1066.84 L381.228,1066.84 L381.228,1063 L369.228,1063 L369.228,1066.84 L366.316,1066.84 L366.316,1060.44 Z M386.092,1054.904 C386.092,1049.752 389.612,1046.424 394.22,1046.424 C398.796,1046.424 401.228,1049.848 401.228,1054.008 C401.228,1054.424 401.164,1054.872 401.1,1055.32 L389.324,1055.32 C389.484,1058.808 391.98,1060.696 394.892,1060.696 C396.62,1060.696 398.38,1059.96 399.66,1058.808 L400.972,1061.08 C399.404,1062.52 396.94,1063.384 394.7,1063.384 C389.612,1063.384 386.092,1059.704 386.092,1054.904 Z M389.42,1053.08 L398.092,1053.08 C397.996,1050.296 396.268,1048.824 394.156,1048.824 C391.756,1048.824 389.868,1050.392 389.42,1053.08 Z M403.34,1063 L407.084,1057.624 C407.436,1057.048 407.82,1056.632 407.82,1056.632 L407.82,1056.6 C405.964,1056.088 404.3,1054.36 404.3,1051.896 C404.3,1048.568 406.668,1046.808 410.092,1046.808 L416.556,1046.808 L416.556,1063 L413.452,1063 L413.452,1057.144 L410.732,1057.144 L406.764,1063 L403.34,1063 Z M410.764,1054.872 L413.452,1054.872 L413.452,1048.952 L410.86,1048.952 C408.78,1048.952 407.436,1049.784 407.436,1051.864 C407.436,1053.88 408.876,1054.872 410.764,1054.872 Z M425.26,1063 L428.332,1063 L428.332,1049.464 L433.996,1049.464 L433.996,1046.808 L419.628,1046.808 L419.628,1049.464 L425.26,1049.464 L425.26,1063 Z M435.436,1054.904 C435.436,1049.752 438.956,1046.424 443.564,1046.424 C448.14,1046.424 450.572,1049.848 450.572,1054.008 C450.572,1054.424 450.508,1054.872 450.444,1055.32 L438.668,1055.32 C438.828,1058.808 441.324,1060.696 444.236,1060.696 C445.964,1060.696 447.724,1059.96 449.004,1058.808 L450.316,1061.08 C448.748,1062.52 446.284,1063.384 444.044,1063.384 C438.956,1063.384 435.436,1059.704 435.436,1054.904 Z M438.764,1053.08 L447.436,1053.08 C447.34,1050.296 445.612,1048.824 443.5,1048.824 C441.1,1048.824 439.212,1050.392 438.764,1053.08 Z M452.556,1063.16 C457.324,1062.904 459.18,1059.128 459.18,1051.8 L459.18,1049.368 L463.948,1049.368 L463.948,1063 L467.052,1063 L467.052,1046.808 L456.204,1046.808 L456.204,1051.8 C456.204,1057.656 454.924,1060.024 452.556,1060.376 L452.556,1063.16 Z M471.852,1063 L471.852,1046.808 L474.956,1046.808 L474.956,1052.664 L478.22,1052.664 C481.58,1052.664 484.108,1054.2 484.108,1057.88 C484.108,1060.92 482.252,1063 478.156,1063 L471.852,1063 Z M474.956,1060.76 L477.74,1060.76 C479.98,1060.76 480.94,1059.544 480.94,1057.848 C480.94,1056.12 479.98,1054.904 477.74,1054.904 L474.956,1054.904 L474.956,1060.76 Z M487.436,1063 L490.54,1063 L490.54,1056.056 L498.732,1056.056 L498.732,1063 L501.836,1063 L501.836,1046.808 L498.732,1046.808 L498.732,1053.4 L490.54,1053.4 L490.54,1046.808 L487.436,1046.808 L487.436,1063 Z M505.58,1054.872 C505.58,1049.976 509.484,1046.424 514.284,1046.424 C519.116,1046.424 523.02,1049.976 523.02,1054.872 C523.02,1059.8 519.116,1063.384 514.316,1063.384 C509.484,1063.384 505.58,1059.8 505.58,1054.872 Z M508.748,1054.872 C508.748,1058.264 511.244,1060.696 514.316,1060.696 C517.356,1060.696 519.884,1058.264 519.884,1054.872 C519.884,1051.512 517.356,1049.112 514.316,1049.112 C511.244,1049.112 508.748,1051.512 508.748,1054.872 Z M525.708,1054.904 C525.708,1059.768 529.26,1063.384 534.38,1063.384 C536.908,1063.384 539.372,1062.36 540.844,1060.792 L539.596,1058.52 C538.348,1059.832 536.396,1060.696 534.604,1060.696 C531.244,1060.696 528.876,1058.168 528.876,1054.872 C528.876,1051.576 531.244,1049.112 534.508,1049.112 C536.204,1049.112 537.9,1049.88 538.988,1050.968 L540.46,1048.792 C538.924,1047.16 536.524,1046.424 534.38,1046.424 C529.292,1046.424 525.708,1050.104 525.708,1054.904 Z M548.108,1063 L551.18,1063 L551.18,1049.464 L556.844,1049.464 L556.844,1046.808 L542.476,1046.808 L542.476,1049.464 L548.108,1049.464 L548.108,1063 Z M559.884,1063 L559.884,1046.808 L562.988,1046.808 L562.988,1052.664 L566.252,1052.664 C569.612,1052.664 572.14,1054.2 572.14,1057.88 C572.14,1060.92 570.284,1063 566.188,1063 L559.884,1063 Z M562.988,1060.76 L565.772,1060.76 C568.012,1060.76 568.972,1059.544 568.972,1057.848 C568.972,1056.12 568.012,1054.904 565.772,1054.904 L562.988,1054.904 L562.988,1060.76 Z M403.1,1103 L403.1,1080.408 L410.62,1080.408 C417.5,1080.408 422.044,1084.536 422.044,1091.672 C422.044,1098.84 417.5,1103 410.62,1103 L403.1,1103 Z M406.268,1100.248 L410.396,1100.248 C415.452,1100.248 418.78,1097.272 418.78,1091.672 C418.78,1086.136 415.42,1083.16 410.396,1083.16 L406.268,1083.16 L406.268,1100.248 Z M425.052,1094.904 C425.052,1089.752 428.572,1086.424 433.18,1086.424 C437.756,1086.424 440.188,1089.848 440.188,1094.008 C440.188,1094.424 440.124,1094.872 440.06,1095.32 L428.284,1095.32 C428.444,1098.808 430.94,1100.696 433.852,1100.696 C435.58,1100.696 437.34,1099.96 438.62,1098.808 L439.932,1101.08 C438.364,1102.52 435.9,1103.384 433.66,1103.384 C428.572,1103.384 425.052,1099.704 425.052,1094.904 Z M428.38,1093.08 L437.052,1093.08 C436.956,1090.296 435.228,1088.824 433.116,1088.824 C430.716,1088.824 428.828,1090.392 428.38,1093.08 Z M444.284,1103 L447.452,1103 L447.452,1093.08 L459.196,1093.08 L459.196,1103 L462.332,1103 L462.332,1080.408 L459.196,1080.408 L459.196,1090.328 L447.452,1090.328 L447.452,1080.408 L444.284,1080.408 L444.284,1103 Z M466.332,1094.904 C466.332,1089.752 469.852,1086.424 474.46,1086.424 C479.036,1086.424 481.468,1089.848 481.468,1094.008 C481.468,1094.424 481.404,1094.872 481.34,1095.32 L469.564,1095.32 C469.724,1098.808 472.22,1100.696 475.132,1100.696 C476.86,1100.696 478.62,1099.96 479.9,1098.808 L481.212,1101.08 C479.644,1102.52 477.18,1103.384 474.94,1103.384 C469.852,1103.384 466.332,1099.704 466.332,1094.904 Z M469.66,1093.08 L478.332,1093.08 C478.236,1090.296 476.508,1088.824 474.396,1088.824 C471.996,1088.824 470.108,1090.392 469.66,1093.08 Z M484.22,1094.904 C484.22,1089.752 487.26,1086.424 491.548,1086.424 C493.596,1086.424 495.548,1087.352 496.572,1089.08 L496.636,1089.08 C496.636,1089.08 496.572,1088.6 496.572,1087.992 L496.572,1080.408 L499.644,1080.408 L499.644,1103 L496.7,1103 L496.7,1101.368 C496.7,1100.728 496.796,1100.28 496.796,1100.28 L496.732,1100.28 C495.804,1102.04 493.916,1103.384 491.356,1103.384 C487.004,1103.384 484.22,1099.928 484.22,1094.904 Z M487.388,1094.904 C487.388,1098.424 489.276,1100.696 491.964,1100.696 C494.364,1100.696 496.636,1098.968 496.636,1094.872 C496.636,1091.96 495.132,1089.144 492.028,1089.144 C489.5,1089.144 487.388,1091.224 487.388,1094.904 Z M505.98,1105.944 C507.26,1106.584 508.86,1107.032 510.428,1107.032 C513.244,1107.032 515.548,1105.752 515.548,1102.52 L515.548,1101.208 C515.548,1100.696 515.644,1100.184 515.644,1100.184 L515.58,1100.184 C514.62,1101.784 513.052,1102.808 510.716,1102.808 C506.204,1102.808 503.484,1099.192 503.484,1094.552 C503.484,1089.88 506.044,1086.424 510.556,1086.424 C512.572,1086.424 514.652,1087.16 515.676,1088.888 L515.772,1088.888 C515.772,1088.888 515.676,1088.696 515.676,1088.408 L515.676,1086.808 L518.652,1086.808 L518.652,1102.328 C518.652,1107.672 514.588,1109.72 510.492,1109.72 C508.54,1109.72 506.556,1109.176 504.956,1108.376 L505.98,1105.944 Z M506.62,1094.456 C506.62,1097.816 508.412,1100.12 511.324,1100.12 C513.564,1100.12 515.612,1098.776 515.612,1094.552 C515.612,1090.328 513.564,1089.112 511.036,1089.112 C508.252,1089.112 506.62,1091.16 506.62,1094.456 Z M522.396,1094.904 C522.396,1089.752 525.916,1086.424 530.524,1086.424 C535.1,1086.424 537.532,1089.848 537.532,1094.008 C537.532,1094.424 537.468,1094.872 537.404,1095.32 L525.628,1095.32 C525.788,1098.808 528.284,1100.696 531.196,1100.696 C532.924,1100.696 534.684,1099.96 535.964,1098.808 L537.276,1101.08 C535.708,1102.52 533.244,1103.384 531.004,1103.384 C525.916,1103.384 522.396,1099.704 522.396,1094.904 Z M525.724,1093.08 L534.396,1093.08 C534.3,1090.296 532.572,1088.824 530.46,1088.824 C528.06,1088.824 526.172,1090.392 525.724,1093.08 Z" id="Операционная-деятель" fill="#FFFFFF"></path>
                <g id="Group-2" transform="translate(0.000000, 270.000000)" fill="#FFFFFF">
                    <g id="Group">
                        <path d="M62.684,107 L65.788,107 L75.868,92.344 C76.668,91.096 77.756,89.048 77.756,89.048 L77.82,89.048 C77.82,89.048 77.628,91.064 77.628,92.344 L77.628,107 L80.764,107 L80.764,84.408 L77.66,84.408 L67.644,99.032 C66.844,100.248 65.724,102.36 65.724,102.36 L65.66,102.36 C65.66,102.36 65.852,100.344 65.852,99.064 L65.852,84.408 L62.684,84.408 L62.684,107 Z M85.98,107 L89.084,107 L89.084,100.056 L97.276,100.056 L97.276,107 L100.38,107 L100.38,90.808 L97.276,90.808 L97.276,97.4 L89.084,97.4 L89.084,90.808 L85.98,90.808 L85.98,107 Z M105.18,107 L105.18,90.808 L111.868,90.808 C115.132,90.808 117.276,92.248 117.276,94.968 C117.276,96.536 116.444,97.88 114.972,98.52 L114.972,98.552 C116.988,99.032 118.044,100.6 118.044,102.392 C118.044,105.4 115.612,107 112.092,107 L105.18,107 Z M108.284,97.656 L111.324,97.656 C113.18,97.656 114.108,96.696 114.108,95.192 C114.108,93.72 113.18,92.952 111.228,92.952 L108.284,92.952 L108.284,97.656 Z M108.284,104.824 L111.612,104.824 C113.852,104.824 114.908,103.8 114.908,102.296 C114.908,100.696 113.724,99.736 111.58,99.736 L108.284,99.736 L108.284,104.824 Z M120.764,98.904 C120.764,93.752 124.284,90.424 128.892,90.424 C133.468,90.424 135.9,93.848 135.9,98.008 C135.9,98.424 135.836,98.872 135.772,99.32 L123.996,99.32 C124.156,102.808 126.652,104.696 129.564,104.696 C131.292,104.696 133.052,103.96 134.332,102.808 L135.644,105.08 C134.076,106.52 131.612,107.384 129.372,107.384 C124.284,107.384 120.764,103.704 120.764,98.904 Z M124.092,97.08 L132.764,97.08 C132.668,94.296 130.94,92.824 128.828,92.824 C126.428,92.824 124.54,94.392 124.092,97.08 Z M138.588,98.904 C138.588,103.768 142.14,107.384 147.26,107.384 C149.788,107.384 152.252,106.36 153.724,104.792 L152.476,102.52 C151.228,103.832 149.276,104.696 147.484,104.696 C144.124,104.696 141.756,102.168 141.756,98.872 C141.756,95.576 144.124,93.112 147.388,93.112 C149.084,93.112 150.78,93.88 151.868,94.968 L153.34,92.792 C151.804,91.16 149.404,90.424 147.26,90.424 C142.172,90.424 138.588,94.104 138.588,98.904 Z M160.988,107 L164.06,107 L164.06,93.464 L169.724,93.464 L169.724,90.808 L155.356,90.808 L155.356,93.464 L160.988,93.464 L160.988,107 Z M172.764,107 L175.74,107 L182.748,97.336 C183.26,96.568 184.06,95.48 184.156,95.192 L184.22,95.192 C184.22,95.448 184.124,96.568 184.124,97.336 L184.124,107 L187.132,107 L187.132,90.808 L184.124,90.808 L177.148,100.472 C176.604,101.24 175.836,102.36 175.708,102.648 L175.644,102.648 C175.676,102.488 175.74,101.336 175.74,100.472 L175.74,90.808 L172.764,90.808 L172.764,107 Z M191.9,107 L205.276,107 L205.276,110.84 L208.124,110.84 L208.124,104.312 L205.852,104.312 L205.852,90.808 L202.716,90.808 L202.716,104.312 L195.004,104.312 L195.004,90.808 L191.9,90.808 L191.9,107 Z M211.42,107 L214.396,107 L221.404,97.336 C221.916,96.568 222.716,95.48 222.812,95.192 L222.876,95.192 C222.876,95.448 222.78,96.568 222.78,97.336 L222.78,107 L225.788,107 L225.788,90.808 L222.78,90.808 L215.804,100.472 C215.26,101.24 214.492,102.36 214.364,102.648 L214.3,102.648 C214.332,102.488 214.396,101.336 214.396,100.472 L214.396,90.808 L211.42,90.808 L211.42,107 Z M230.556,107 L233.532,107 L240.54,97.336 C241.052,96.568 241.852,95.48 241.948,95.192 L242.012,95.192 C242.012,95.448 241.916,96.568 241.916,97.336 L241.916,107 L244.924,107 L244.924,90.808 L241.916,90.808 L234.94,100.472 C234.396,101.24 233.628,102.36 233.5,102.648 L233.436,102.648 C233.468,102.488 233.532,101.336 233.532,100.472 L233.532,90.808 L230.556,90.808 L230.556,107 Z M3.036,147 L3.036,130.808 L9.724,130.808 C12.988,130.808 15.132,132.248 15.132,134.968 C15.132,136.536 14.3,137.88 12.828,138.52 L12.828,138.552 C14.844,139.032 15.9,140.6 15.9,142.392 C15.9,145.4 13.468,147 9.948,147 L3.036,147 Z M6.14,137.656 L9.18,137.656 C11.036,137.656 11.964,136.696 11.964,135.192 C11.964,133.72 11.036,132.952 9.084,132.952 L6.14,132.952 L6.14,137.656 Z M6.14,144.824 L9.468,144.824 C11.708,144.824 12.764,143.8 12.764,142.296 C12.764,140.696 11.58,139.736 9.436,139.736 L6.14,139.736 L6.14,144.824 Z M26.972,137.688 C26.972,131.896 28.636,128.376 34.268,126.008 L40.06,123.512 L41.084,126.072 L34.876,128.664 C31.644,130.136 30.108,132.024 29.884,135.128 L29.948,135.128 C31.388,132.952 33.532,132.248 35.676,132.248 C39.74,132.248 42.556,135.128 42.556,139.704 C42.556,144.184 39.484,147.384 34.908,147.384 C29.436,147.384 26.972,143.288 26.972,137.688 Z M30.204,139.704 C30.204,142.904 32.284,144.76 34.78,144.76 C37.34,144.76 39.42,142.904 39.42,139.768 C39.42,136.6 37.34,134.712 34.908,134.712 C32.156,134.712 30.204,136.856 30.204,139.704 Z M61.084,147 L64.188,147 L64.188,130.808 L61.084,130.808 L61.084,147 Z M46.428,147 L46.428,130.808 L49.532,130.808 L49.532,136.664 L52.7,136.664 C56.06,136.664 58.588,138.2 58.588,141.88 C58.588,144.92 56.732,147 52.668,147 L46.428,147 Z M49.532,144.76 L52.252,144.76 C54.492,144.76 55.452,143.544 55.452,141.848 C55.452,140.12 54.46,138.904 52.22,138.904 L49.532,138.904 L49.532,144.76 Z M67.932,138.904 C67.932,143.768 71.484,147.384 76.604,147.384 C79.132,147.384 81.596,146.36 83.068,144.792 L81.82,142.52 C80.572,143.832 78.62,144.696 76.828,144.696 C73.468,144.696 71.1,142.168 71.1,138.872 C71.1,135.576 73.468,133.112 76.732,133.112 C78.428,133.112 80.124,133.88 81.212,134.968 L82.684,132.792 C81.148,131.16 78.748,130.424 76.604,130.424 C71.516,130.424 67.932,134.104 67.932,138.904 Z M90.332,147 L93.404,147 L93.404,133.464 L99.068,133.464 L99.068,130.808 L84.7,130.808 L84.7,133.464 L90.332,133.464 L90.332,147 Z M102.108,153.4 L102.108,130.808 L104.988,130.808 L104.988,132.248 C104.988,132.92 104.892,133.464 104.892,133.464 L104.956,133.464 C105.98,131.512 108.028,130.424 110.396,130.424 C114.78,130.424 117.5,133.88 117.5,138.904 C117.5,144.056 114.428,147.384 110.172,147.384 C108.124,147.384 106.268,146.36 105.148,144.632 L105.084,144.632 C105.084,144.632 105.212,145.208 105.212,146.04 L105.212,153.4 L102.108,153.4 Z M105.116,138.968 C105.116,141.848 106.716,144.696 109.692,144.696 C112.252,144.696 114.364,142.616 114.364,138.936 C114.364,135.416 112.476,133.144 109.788,133.144 C107.356,133.144 105.116,134.872 105.116,138.968 Z M120.284,138.872 C120.284,133.976 124.188,130.424 128.988,130.424 C133.82,130.424 137.724,133.976 137.724,138.872 C137.724,143.8 133.82,147.384 129.02,147.384 C124.188,147.384 120.284,143.8 120.284,138.872 Z M123.452,138.872 C123.452,142.264 125.948,144.696 129.02,144.696 C132.06,144.696 134.588,142.264 134.588,138.872 C134.588,135.512 132.06,133.112 129.02,133.112 C125.948,133.112 123.452,135.512 123.452,138.872 Z M139.26,147.16 C144.028,146.904 145.884,143.128 145.884,135.8 L145.884,133.368 L150.652,133.368 L150.652,147 L153.756,147 L153.756,130.808 L142.908,130.808 L142.908,135.8 C142.908,141.656 141.628,144.024 139.26,144.376 L139.26,147.16 Z M158.556,147 L161.532,147 L168.54,137.336 C169.052,136.568 169.852,135.48 169.948,135.192 L170.012,135.192 C170.012,135.448 169.916,136.568 169.916,137.336 L169.916,147 L172.924,147 L172.924,130.808 L169.916,130.808 L162.94,140.472 C162.396,141.24 161.628,142.36 161.5,142.648 L161.436,142.648 C161.468,142.488 161.532,141.336 161.532,140.472 L161.532,130.808 L158.556,130.808 L158.556,147 Z M177.692,147 L180.796,147 L180.796,139.992 L183.132,139.992 L187.964,147 L191.644,147 L185.596,138.584 L185.596,138.52 L191.004,130.808 L187.484,130.808 L183.068,137.336 L180.796,137.336 L180.796,130.808 L177.692,130.808 L177.692,147 Z M194.396,147 L194.396,130.808 L201.084,130.808 C204.348,130.808 206.492,132.248 206.492,134.968 C206.492,136.536 205.66,137.88 204.188,138.52 L204.188,138.552 C206.204,139.032 207.26,140.6 207.26,142.392 C207.26,145.4 204.828,147 201.308,147 L194.396,147 Z M197.5,137.656 L200.54,137.656 C202.396,137.656 203.324,136.696 203.324,135.192 C203.324,133.72 202.396,132.952 200.444,132.952 L197.5,132.952 L197.5,137.656 Z M197.5,144.824 L200.828,144.824 C203.068,144.824 204.124,143.8 204.124,142.296 C204.124,140.696 202.94,139.736 200.796,139.736 L197.5,139.736 L197.5,144.824 Z M211.036,147 L214.012,147 L221.02,137.336 C221.532,136.568 222.332,135.48 222.428,135.192 L222.492,135.192 C222.492,135.448 222.396,136.568 222.396,137.336 L222.396,147 L225.404,147 L225.404,130.808 L222.396,130.808 L215.42,140.472 C214.876,141.24 214.108,142.36 213.98,142.648 L213.916,142.648 C213.948,142.488 214.012,141.336 214.012,140.472 L214.012,130.808 L211.036,130.808 L211.036,147 Z M233.34,144.44 L240.508,144.44 L240.508,133.336 L235.644,133.336 L235.644,134.2 C235.644,136.632 235.388,141.24 233.34,144.44 Z M228.156,144.44 L230.14,144.44 C232.412,141.336 232.668,136.28 232.668,133.784 L232.668,130.808 L243.612,130.808 L243.612,144.44 L245.916,144.44 L245.916,150.84 L243.068,150.84 L243.068,147 L231.068,147 L231.068,150.84 L228.156,150.84 L228.156,144.44 Z M249.18,147 L252.284,147 L252.284,140.056 L260.476,140.056 L260.476,147 L263.58,147 L263.58,130.808 L260.476,130.808 L260.476,137.4 L252.284,137.4 L252.284,130.808 L249.18,130.808 L249.18,147 Z M283.036,147 L286.14,147 L286.14,130.808 L283.036,130.808 L283.036,147 Z M268.38,147 L268.38,130.808 L271.484,130.808 L271.484,136.664 L274.652,136.664 C278.012,136.664 280.54,138.2 280.54,141.88 C280.54,144.92 278.684,147 274.62,147 L268.38,147 Z M271.484,144.76 L274.204,144.76 C276.444,144.76 277.404,143.544 277.404,141.848 C277.404,140.12 276.412,138.904 274.172,138.904 L271.484,138.904 L271.484,144.76 Z M289.884,138.904 C289.884,133.752 293.404,130.424 298.012,130.424 C302.588,130.424 305.02,133.848 305.02,138.008 C305.02,138.424 304.956,138.872 304.892,139.32 L293.116,139.32 C293.276,142.808 295.772,144.696 298.684,144.696 C300.412,144.696 302.172,143.96 303.452,142.808 L304.764,145.08 C303.196,146.52 300.732,147.384 298.492,147.384 C293.404,147.384 289.884,143.704 289.884,138.904 Z M293.212,137.08 L301.884,137.08 C301.788,134.296 300.06,132.824 297.948,132.824 C295.548,132.824 293.66,134.392 293.212,137.08 Z M100.78,182.584 C100.78,177.496 107.084,176.92 110.444,176.92 L111.276,176.92 L111.276,176.6 C111.276,173.944 109.74,173.048 107.724,173.048 C106.124,173.048 104.492,173.688 103.18,174.616 L101.932,172.344 C103.244,171.256 105.708,170.424 107.98,170.424 C112.044,170.424 114.38,172.664 114.38,176.76 L114.38,187 L111.468,187 L111.468,185.368 C111.468,184.632 111.564,184.088 111.564,184.088 L111.5,184.088 C110.572,185.944 108.588,187.384 106.188,187.384 C103.372,187.384 100.78,185.624 100.78,182.584 Z M103.884,182.328 C103.884,183.608 104.908,184.92 106.924,184.92 C109.644,184.92 111.276,182.168 111.276,179.768 L111.276,179.16 L110.476,179.16 C108.172,179.16 103.884,179.352 103.884,182.328 Z M118.956,187 L122.06,187 L122.06,179.992 L124.396,179.992 L129.228,187 L132.908,187 L126.86,178.584 L126.86,178.52 L132.268,170.808 L128.748,170.808 L124.332,177.336 L122.06,177.336 L122.06,170.808 L118.956,170.808 L118.956,187 Z M139.564,187 L142.636,187 L142.636,173.464 L148.3,173.464 L148.3,170.808 L133.932,170.808 L133.932,173.464 L139.564,173.464 L139.564,187 Z M151.34,187 L154.316,187 L161.324,177.336 C161.836,176.568 162.636,175.48 162.732,175.192 L162.796,175.192 C162.796,175.448 162.7,176.568 162.7,177.336 L162.7,187 L165.708,187 L165.708,170.808 L162.7,170.808 L155.724,180.472 C155.18,181.24 154.412,182.36 154.284,182.648 L154.22,182.648 C154.252,182.488 154.316,181.336 154.316,180.472 L154.316,170.808 L151.34,170.808 L151.34,187 Z M170.476,187 L170.476,170.808 L177.164,170.808 C180.428,170.808 182.572,172.248 182.572,174.968 C182.572,176.536 181.74,177.88 180.268,178.52 L180.268,178.552 C182.284,179.032 183.34,180.6 183.34,182.392 C183.34,185.4 180.908,187 177.388,187 L170.476,187 Z M173.58,177.656 L176.62,177.656 C178.476,177.656 179.404,176.696 179.404,175.192 C179.404,173.72 178.476,172.952 176.524,172.952 L173.58,172.952 L173.58,177.656 Z M173.58,184.824 L176.908,184.824 C179.148,184.824 180.204,183.8 180.204,182.296 C180.204,180.696 179.02,179.736 176.876,179.736 L173.58,179.736 L173.58,184.824 Z M201.772,187 L204.876,187 L204.876,170.808 L201.772,170.808 L201.772,187 Z M187.116,187 L187.116,170.808 L190.22,170.808 L190.22,176.664 L193.388,176.664 C196.748,176.664 199.276,178.2 199.276,181.88 C199.276,184.92 197.42,187 193.356,187 L187.116,187 Z M190.22,184.76 L192.94,184.76 C195.18,184.76 196.14,183.544 196.14,181.848 C196.14,180.12 195.148,178.904 192.908,178.904 L190.22,178.904 L190.22,184.76 Z" id="Инвестиции-в-быстрол"></path>
                        <path d="M104.672,43.548 C104.672,37.984 109.144,34.552 110.548,33.616 C108.156,31.952 106.44,29.716 106.44,26.388 C106.44,21.344 110.132,16.664 117.88,16.664 C124.692,16.664 129.424,20.512 129.424,26.44 C129.424,31.068 126.096,34.968 125.004,36.06 C127.864,37.776 129.996,40.064 129.996,43.86 C129.996,49.58 125.108,54.624 117.412,54.624 C110.184,54.624 104.672,49.944 104.672,43.548 Z M121.052,34.084 C121.832,33.252 124.38,30.444 124.38,26.856 C124.38,23.372 121.676,21.292 117.776,21.292 C113.772,21.292 111.536,23.58 111.536,26.388 C111.536,30.548 116.476,32.056 121.052,34.084 Z M109.924,43.132 C109.924,47.24 113.564,49.996 117.36,49.996 C121.26,49.996 124.744,47.5 124.744,43.756 C124.744,39.596 119.18,38.14 114.396,35.852 C113.2,36.684 109.924,39.128 109.924,43.132 Z M149.34,54.624 C139.564,54.624 136.34,46.2 136.34,35.592 C136.34,25.036 139.564,16.664 149.34,16.664 C159.168,16.664 162.34,25.036 162.34,35.592 C162.34,46.2 159.168,54.624 149.34,54.624 Z M149.34,49.892 C155.372,49.892 157.036,43.652 157.036,35.592 C157.036,27.636 155.372,21.396 149.34,21.396 C143.36,21.396 141.644,27.636 141.644,35.592 C141.644,43.652 143.36,49.892 149.34,49.892 Z M175.912,32.056 C171.544,32.056 168.06,28.624 168.06,24.36 C168.06,20.148 171.544,16.664 175.912,16.664 C180.28,16.664 183.868,20.148 183.868,24.36 C183.868,28.624 180.28,32.056 175.912,32.056 Z M168.84,54 L196.972,17.288 L201.86,17.288 L173.78,54 L168.84,54 Z M175.912,28.208 C178.096,28.208 179.812,26.544 179.812,24.36 C179.812,22.228 178.096,20.46 175.912,20.46 C173.78,20.46 172.116,22.228 172.116,24.36 C172.116,26.544 173.78,28.208 175.912,28.208 Z M186.936,46.98 C186.936,42.716 190.42,39.232 194.788,39.232 C199.156,39.232 202.692,42.716 202.692,46.98 C202.692,51.192 199.156,54.624 194.788,54.624 C190.42,54.624 186.936,51.192 186.936,46.98 Z M190.992,46.928 C190.992,49.06 192.604,50.776 194.788,50.776 C196.972,50.776 198.636,49.06 198.636,46.928 C198.636,44.796 196.972,43.028 194.788,43.028 C192.604,43.028 190.992,44.796 190.992,46.928 Z" id="80%"></path>
                    </g>
                </g>
                <g id="Group" transform="translate(671.000000, 270.000000)" fill="#FFFFFF">
                    <path d="M65.124,107 L65.124,84.408 L73.412,84.408 C77.54,84.408 80.484,87.192 80.484,91.48 C80.484,95.768 77.54,98.648 73.412,98.648 L68.292,98.648 L68.292,107 L65.124,107 Z M68.292,95.896 L72.9,95.896 C75.588,95.896 77.284,94.2 77.284,91.48 C77.284,88.792 75.588,87.16 72.932,87.16 L68.292,87.16 L68.292,95.896 Z M82.34,98.904 C82.34,93.752 85.86,90.424 90.468,90.424 C95.044,90.424 97.476,93.848 97.476,98.008 C97.476,98.424 97.412,98.872 97.348,99.32 L85.572,99.32 C85.732,102.808 88.228,104.696 91.14,104.696 C92.868,104.696 94.628,103.96 95.908,102.808 L97.22,105.08 C95.652,106.52 93.188,107.384 90.948,107.384 C85.86,107.384 82.34,103.704 82.34,98.904 Z M85.668,97.08 L94.34,97.08 C94.244,94.296 92.516,92.824 90.404,92.824 C88.004,92.824 86.116,94.392 85.668,97.08 Z M99.652,105.016 C100.996,106.296 103.108,107.384 105.604,107.384 C108.932,107.384 111.812,105.688 111.812,102.36 C111.812,100.28 110.532,99.064 108.9,98.552 L108.9,98.488 C110.18,97.944 111.268,96.824 111.268,94.808 C111.268,91.928 108.868,90.424 105.796,90.424 C103.236,90.424 101.412,91.256 100.164,92.184 L101.316,94.264 C102.564,93.336 103.844,92.856 105.252,92.856 C107.044,92.856 108.132,93.688 108.132,95.192 C108.132,96.824 106.884,97.528 105.06,97.528 L103.364,97.528 L103.364,99.768 L105.348,99.768 C107.62,99.768 108.676,100.664 108.676,102.232 C108.676,103.992 107.172,104.888 105.316,104.888 C103.364,104.888 101.828,103.736 101.092,102.968 L99.652,105.016 Z M114.5,98.904 C114.5,93.752 118.02,90.424 122.628,90.424 C127.204,90.424 129.636,93.848 129.636,98.008 C129.636,98.424 129.572,98.872 129.508,99.32 L117.732,99.32 C117.892,102.808 120.388,104.696 123.3,104.696 C125.028,104.696 126.788,103.96 128.068,102.808 L129.38,105.08 C127.812,106.52 125.348,107.384 123.108,107.384 C118.02,107.384 114.5,103.704 114.5,98.904 Z M117.828,97.08 L126.5,97.08 C126.404,94.296 124.676,92.824 122.564,92.824 C120.164,92.824 118.276,94.392 117.828,97.08 Z M133.38,113.4 L133.38,90.808 L136.26,90.808 L136.26,92.248 C136.26,92.92 136.164,93.464 136.164,93.464 L136.228,93.464 C137.252,91.512 139.3,90.424 141.668,90.424 C146.052,90.424 148.772,93.88 148.772,98.904 C148.772,104.056 145.7,107.384 141.444,107.384 C139.396,107.384 137.54,106.36 136.42,104.632 L136.356,104.632 C136.356,104.632 136.484,105.208 136.484,106.04 L136.484,113.4 L133.38,113.4 Z M136.388,98.968 C136.388,101.848 137.988,104.696 140.964,104.696 C143.524,104.696 145.636,102.616 145.636,98.936 C145.636,95.416 143.748,93.144 141.06,93.144 C138.628,93.144 136.388,94.872 136.388,98.968 Z M152.612,107 L152.612,90.808 L159.3,90.808 C162.564,90.808 164.708,92.248 164.708,94.968 C164.708,96.536 163.876,97.88 162.404,98.52 L162.404,98.552 C164.42,99.032 165.476,100.6 165.476,102.392 C165.476,105.4 163.044,107 159.524,107 L152.612,107 Z M155.716,97.656 L158.756,97.656 C160.612,97.656 161.54,96.696 161.54,95.192 C161.54,93.72 160.612,92.952 158.66,92.952 L155.716,92.952 L155.716,97.656 Z M155.716,104.824 L159.044,104.824 C161.284,104.824 162.34,103.8 162.34,102.296 C162.34,100.696 161.156,99.736 159.012,99.736 L155.716,99.736 L155.716,104.824 Z M9.652,144.44 L16.82,144.44 L16.82,133.336 L11.956,133.336 L11.956,134.2 C11.956,136.632 11.7,141.24 9.652,144.44 Z M4.468,144.44 L6.452,144.44 C8.724,141.336 8.98,136.28 8.98,133.784 L8.98,130.808 L19.924,130.808 L19.924,144.44 L22.228,144.44 L22.228,150.84 L19.38,150.84 L19.38,147 L7.38,147 L7.38,150.84 L4.468,150.84 L4.468,144.44 Z M23.732,147.16 C28.5,146.904 30.356,143.128 30.356,135.8 L30.356,133.368 L35.124,133.368 L35.124,147 L38.228,147 L38.228,130.808 L27.38,130.808 L27.38,135.8 C27.38,141.656 26.1,144.024 23.732,144.376 L23.732,147.16 Z M41.396,147 L45.14,141.624 C45.492,141.048 45.876,140.632 45.876,140.632 L45.876,140.6 C44.02,140.088 42.356,138.36 42.356,135.896 C42.356,132.568 44.724,130.808 48.148,130.808 L54.612,130.808 L54.612,147 L51.508,147 L51.508,141.144 L48.788,141.144 L44.82,147 L41.396,147 Z M48.82,138.872 L51.508,138.872 L51.508,132.952 L48.916,132.952 C46.836,132.952 45.492,133.784 45.492,135.864 C45.492,137.88 46.932,138.872 48.82,138.872 Z M66.356,138.904 C66.356,143.768 69.908,147.384 75.028,147.384 C77.556,147.384 80.02,146.36 81.492,144.792 L80.244,142.52 C78.996,143.832 77.044,144.696 75.252,144.696 C71.892,144.696 69.524,142.168 69.524,138.872 C69.524,135.576 71.892,133.112 75.156,133.112 C76.852,133.112 78.548,133.88 79.636,134.968 L81.108,132.792 C79.572,131.16 77.172,130.424 75.028,130.424 C69.94,130.424 66.356,134.104 66.356,138.904 Z M88.756,147 L91.828,147 L91.828,133.464 L97.492,133.464 L97.492,130.808 L83.124,130.808 L83.124,133.464 L88.756,133.464 L88.756,147 Z M100.532,153.4 L100.532,130.808 L103.412,130.808 L103.412,132.248 C103.412,132.92 103.316,133.464 103.316,133.464 L103.38,133.464 C104.404,131.512 106.452,130.424 108.82,130.424 C113.204,130.424 115.924,133.88 115.924,138.904 C115.924,144.056 112.852,147.384 108.596,147.384 C106.548,147.384 104.692,146.36 103.572,144.632 L103.508,144.632 C103.508,144.632 103.636,145.208 103.636,146.04 L103.636,153.4 L100.532,153.4 Z M103.54,138.968 C103.54,141.848 105.14,144.696 108.116,144.696 C110.676,144.696 112.788,142.616 112.788,138.936 C112.788,135.416 110.9,133.144 108.212,133.144 C105.78,133.144 103.54,134.872 103.54,138.968 Z M118.42,142.584 C118.42,137.496 124.724,136.92 128.084,136.92 L128.916,136.92 L128.916,136.6 C128.916,133.944 127.38,133.048 125.364,133.048 C123.764,133.048 122.132,133.688 120.82,134.616 L119.572,132.344 C120.884,131.256 123.348,130.424 125.62,130.424 C129.684,130.424 132.02,132.664 132.02,136.76 L132.02,147 L129.108,147 L129.108,145.368 C129.108,144.632 129.204,144.088 129.204,144.088 L129.14,144.088 C128.212,145.944 126.228,147.384 123.828,147.384 C121.012,147.384 118.42,145.624 118.42,142.584 Z M121.524,142.328 C121.524,143.608 122.548,144.92 124.564,144.92 C127.284,144.92 128.916,142.168 128.916,139.768 L128.916,139.16 L128.116,139.16 C125.812,139.16 121.524,139.352 121.524,142.328 Z M134.74,147 L138.26,147 L141.652,141.592 C141.908,141.208 142.132,140.728 142.132,140.728 L142.196,140.728 C142.196,140.728 142.452,141.208 142.708,141.592 L146.1,147 L149.62,147 L144.084,138.68 L149.3,130.808 L145.748,130.808 L142.74,135.736 C142.516,136.152 142.196,136.696 142.196,136.696 L142.132,136.696 C142.132,136.696 141.844,136.152 141.62,135.736 L138.612,130.808 L135.06,130.808 L140.276,138.68 L134.74,147 Z M150.964,138.872 C150.964,133.976 154.868,130.424 159.668,130.424 C164.5,130.424 168.404,133.976 168.404,138.872 C168.404,143.8 164.5,147.384 159.7,147.384 C154.868,147.384 150.964,143.8 150.964,138.872 Z M154.132,138.872 C154.132,142.264 156.628,144.696 159.7,144.696 C162.74,144.696 165.268,142.264 165.268,138.872 C165.268,135.512 162.74,133.112 159.7,133.112 C156.628,133.112 154.132,135.512 154.132,138.872 Z M172.148,147 L172.148,130.808 L178.836,130.808 C182.1,130.808 184.244,132.248 184.244,134.968 C184.244,136.536 183.412,137.88 181.94,138.52 L181.94,138.552 C183.956,139.032 185.012,140.6 185.012,142.392 C185.012,145.4 182.58,147 179.06,147 L172.148,147 Z M175.252,137.656 L178.292,137.656 C180.148,137.656 181.076,136.696 181.076,135.192 C181.076,133.72 180.148,132.952 178.196,132.952 L175.252,132.952 L175.252,137.656 Z M175.252,144.824 L178.58,144.824 C180.82,144.824 181.876,143.8 181.876,142.296 C181.876,140.696 180.692,139.736 178.548,139.736 L175.252,139.736 L175.252,144.824 Z M203.444,147 L206.548,147 L206.548,130.808 L203.444,130.808 L203.444,147 Z M188.788,147 L188.788,130.808 L191.892,130.808 L191.892,136.664 L195.06,136.664 C198.42,136.664 200.948,138.2 200.948,141.88 C200.948,144.92 199.092,147 195.028,147 L188.788,147 Z M191.892,144.76 L194.612,144.76 C196.852,144.76 197.812,143.544 197.812,141.848 C197.812,140.12 196.82,138.904 194.58,138.904 L191.892,138.904 L191.892,144.76 Z M209.492,147 L213.012,147 L216.404,141.592 C216.66,141.208 216.884,140.728 216.884,140.728 L216.948,140.728 C216.948,140.728 217.204,141.208 217.46,141.592 L220.852,147 L224.372,147 L218.836,138.68 L224.052,130.808 L220.5,130.808 L217.492,135.736 C217.268,136.152 216.948,136.696 216.948,136.696 L216.884,136.696 C216.884,136.696 216.596,136.152 216.372,135.736 L213.364,130.808 L209.812,130.808 L215.028,138.68 L209.492,147 Z M62.916,187 L62.916,170.808 L69.604,170.808 C72.868,170.808 75.012,172.248 75.012,174.968 C75.012,176.536 74.18,177.88 72.708,178.52 L72.708,178.552 C74.724,179.032 75.78,180.6 75.78,182.392 C75.78,185.4 73.348,187 69.828,187 L62.916,187 Z M66.02,177.656 L69.06,177.656 C70.916,177.656 71.844,176.696 71.844,175.192 C71.844,173.72 70.916,172.952 68.964,172.952 L66.02,172.952 L66.02,177.656 Z M66.02,184.824 L69.348,184.824 C71.588,184.824 72.644,183.8 72.644,182.296 C72.644,180.696 71.46,179.736 69.316,179.736 L66.02,179.736 L66.02,184.824 Z M94.212,187 L97.316,187 L97.316,170.808 L94.212,170.808 L94.212,187 Z M79.556,187 L79.556,170.808 L82.66,170.808 L82.66,176.664 L85.828,176.664 C89.188,176.664 91.716,178.2 91.716,181.88 C91.716,184.92 89.86,187 85.796,187 L79.556,187 Z M82.66,184.76 L85.38,184.76 C87.62,184.76 88.58,183.544 88.58,181.848 C88.58,180.12 87.588,178.904 85.348,178.904 L82.66,178.904 L82.66,184.76 Z M102.116,187 L105.22,187 L105.22,173.464 L113.156,173.464 L113.156,187 L116.26,187 L116.26,170.808 L102.116,170.808 L102.116,187 Z M119.3,187.16 C124.068,186.904 125.924,183.128 125.924,175.8 L125.924,173.368 L130.692,173.368 L130.692,187 L133.796,187 L133.796,170.808 L122.948,170.808 L122.948,175.8 C122.948,181.656 121.668,184.024 119.3,184.376 L119.3,187.16 Z M137.252,182.584 C137.252,177.496 143.556,176.92 146.916,176.92 L147.748,176.92 L147.748,176.6 C147.748,173.944 146.212,173.048 144.196,173.048 C142.596,173.048 140.964,173.688 139.652,174.616 L138.404,172.344 C139.716,171.256 142.18,170.424 144.452,170.424 C148.516,170.424 150.852,172.664 150.852,176.76 L150.852,187 L147.94,187 L147.94,185.368 C147.94,184.632 148.036,184.088 148.036,184.088 L147.972,184.088 C147.044,185.944 145.06,187.384 142.66,187.384 C139.844,187.384 137.252,185.624 137.252,182.584 Z M140.356,182.328 C140.356,183.608 141.38,184.92 143.396,184.92 C146.116,184.92 147.748,182.168 147.748,179.768 L147.748,179.16 L146.948,179.16 C144.644,179.16 140.356,179.352 140.356,182.328 Z M159.108,187 L162.18,187 L162.18,173.464 L167.844,173.464 L167.844,170.808 L153.476,170.808 L153.476,173.464 L159.108,173.464 L159.108,187 Z" id="Резерв-для-страховых"></path>
                    <path d="M93.5527344,54 L69.3300781,54 L69.3300781,50.6230469 L82.1269531,36.4042969 C84.0227959,34.2545465 85.3304,32.5068427 86.0498047,31.1611328 C86.7692093,29.815423 87.1289062,28.4231843 87.1289062,26.984375 C87.1289062,25.0546779 86.5449277,23.4720114 85.3769531,22.2363281 C84.2089785,21.0006449 82.6517024,20.3828125 80.7050781,20.3828125 C78.3691289,20.3828125 76.5537174,21.0471939 75.2587891,22.3759766 C73.9638607,23.7047592 73.3164062,25.5540246 73.3164062,27.9238281 L68.6191406,27.9238281 C68.6191406,24.5214674 69.7151583,21.7708438 71.9072266,19.671875 C74.0992948,17.5729062 77.0318827,16.5234375 80.7050781,16.5234375 C84.1412932,16.5234375 86.8580629,17.4247957 88.8554688,19.2275391 C90.8528746,21.0302825 91.8515625,23.4296725 91.8515625,26.4257812 C91.8515625,30.0651224 89.5325753,34.3984124 84.8945312,39.4257812 L74.9921875,50.1660156 L93.5527344,50.1660156 L93.5527344,54 Z M121.710938,38.2324219 C121.710938,43.7337515 120.771494,47.8216012 118.892578,50.4960938 C117.013662,53.1705863 114.076843,54.5078125 110.082031,54.5078125 C106.138001,54.5078125 103.218108,53.2002084 101.322266,50.5849609 C99.4264228,47.9697135 98.4446618,44.0638281 98.3769531,38.8671875 L98.3769531,32.5957031 C98.3769531,27.1620822 99.3163969,23.1250132 101.195312,20.484375 C103.074228,17.8437368 106.019511,16.5234375 110.03125,16.5234375 C114.009134,16.5234375 116.937491,17.7971878 118.816406,20.3447266 C120.695322,22.8922653 121.660156,26.8235411 121.710938,32.1386719 L121.710938,38.2324219 Z M117.013672,31.8085938 C117.013672,27.8307093 116.455084,24.9319752 115.337891,23.1123047 C114.220698,21.2926341 112.451835,20.3828125 110.03125,20.3828125 C107.627592,20.3828125 105.875657,21.2884024 104.775391,23.0996094 C103.675125,24.9108163 103.108073,27.6952937 103.074219,31.453125 L103.074219,38.96875 C103.074219,42.9635616 103.653966,45.9130764 104.813477,47.8173828 C105.972988,49.7216892 107.729155,50.6738281 110.082031,50.6738281 C112.401053,50.6738281 114.123367,49.7767017 115.249023,47.9824219 C116.37468,46.1881421 116.96289,43.3613474 117.013672,39.5019531 L117.013672,31.8085938 Z M127.322266,24.140625 C127.322266,21.923166 128.028964,20.0950593 129.442383,18.65625 C130.855801,17.2174407 132.671213,16.4980469 134.888672,16.4980469 C137.139985,16.4980469 138.96386,17.2216725 140.360352,18.6689453 C141.756843,20.1162182 142.455078,21.9908739 142.455078,24.2929688 L142.455078,26.0957031 C142.455078,28.3300893 141.748379,30.1539643 140.334961,31.5673828 C138.921542,32.9808013 137.123058,33.6875 134.939453,33.6875 C132.738921,33.6875 130.919278,32.9808013 129.480469,31.5673828 C128.041659,30.1539643 127.322266,28.2708451 127.322266,25.9179688 L127.322266,24.140625 Z M130.826172,26.0957031 C130.826172,27.4160222 131.198564,28.5035765 131.943359,29.3583984 C132.688155,30.2132204 133.686843,30.640625 134.939453,30.640625 C136.141282,30.640625 137.110348,30.2259156 137.84668,29.3964844 C138.583011,28.5670531 138.951172,27.4329499 138.951172,25.9941406 L138.951172,24.140625 C138.951172,22.8203059 138.587243,21.7285199 137.859375,20.8652344 C137.131507,20.0019488 136.141282,19.5703125 134.888672,19.5703125 C133.636061,19.5703125 132.645837,20.0019488 131.917969,20.8652344 C131.190101,21.7285199 130.826172,22.8541597 130.826172,24.2421875 L130.826172,26.0957031 Z M145.324219,44.9355469 C145.324219,42.7180879 146.030917,40.8942129 147.444336,39.4638672 C148.857754,38.0335215 150.673166,37.3183594 152.890625,37.3183594 C155.108084,37.3183594 156.927727,38.0292898 158.349609,39.4511719 C159.771491,40.873054 160.482422,42.7604049 160.482422,45.1132812 L160.482422,46.9160156 C160.482422,49.1334746 159.775723,50.9573496 158.362305,52.3876953 C156.948886,53.818041 155.141938,54.5332031 152.941406,54.5332031 C150.740874,54.5332031 148.921231,53.8265045 147.482422,52.4130859 C146.043613,50.9996674 145.324219,49.1165482 145.324219,46.7636719 L145.324219,44.9355469 Z M148.828125,46.9160156 C148.828125,48.2532619 149.200517,49.3492796 149.945312,50.2041016 C150.690108,51.0589235 151.688796,51.4863281 152.941406,51.4863281 C154.160162,51.4863281 155.13346,51.067387 155.861328,50.2294922 C156.589196,49.3915974 156.953125,48.2532624 156.953125,46.8144531 L156.953125,44.9355469 C156.953125,43.5983006 156.584965,42.5065146 155.848633,41.6601562 C155.112301,40.8137979 154.126308,40.390625 152.890625,40.390625 C151.688796,40.390625 150.711267,40.8095661 149.958008,41.6474609 C149.204749,42.4853558 148.828125,43.6152273 148.828125,45.0371094 L148.828125,46.9160156 Z M136.005859,51.2070312 L133.339844,49.53125 L151.392578,20.6367188 L154.058594,22.3125 L136.005859,51.2070312 Z" id="20%"></path>
                </g>
                <g id="arrow" transform="translate(273.000000, 142.500000) rotate(-90.000000) translate(-273.000000, -142.500000) translate(165.500000, 12.500000)" stroke="#FF674C" stroke-width="2" stroke-linecap="round" stroke-linejoin="round">
                    <path d="M214.031472,259.311632 C214,225 223.080028,10 1,10" id="Path-10"></path>
                    <polyline id="Line-2" transform="translate(5.000000, 10.000000) rotate(-90.000000) translate(-5.000000, -10.000000) " points="-5 15 5.07852624 5 15 15"></polyline>
                </g>
                <g id="arrow" transform="translate(267.000000, 592.500000) rotate(-180.000000) translate(-267.000000, -592.500000) translate(152.500000, 485.500000)" stroke="#FF674C" stroke-width="2" stroke-linecap="round" stroke-linejoin="round">
                    <path d="M228.031472,213.309998 C228,178.99859 222.080028,10 5.68434189e-14,10" id="Path-10"></path>
                    <polyline id="Line-2" transform="translate(5.000000, 10.000000) rotate(-90.000000) translate(-5.000000, -10.000000) " points="-5 15 5.07852624 5 15 15"></polyline>
                </g>
                <g id="arrow" transform="translate(676.500000, 587.500000) scale(-1, 1) rotate(-180.000000) translate(-676.500000, -587.500000) translate(557.500000, 485.500000)" stroke="#FF674C" stroke-width="2" stroke-linecap="round" stroke-linejoin="round">
                    <path d="M228.031472,203.309998 C228.018612,189.290189 227.022621,152.783286 210.698808,114.506679 M75.4358418,7.74665474 C53.5705848,2.7978514 28.5746082,-7.46492889e-15 0,0" id="Path-10"></path>
                    <polyline id="Line-2" transform="translate(228.000000, 199.000000) rotate(-180.000000) translate(-228.000000, -199.000000) " points="218 204 228.078526 194 238 204"></polyline>
                </g>
                <g id="arrow" transform="translate(666.000000, 142.500000) scale(-1, 1) rotate(-90.000000) translate(-666.000000, -142.500000) translate(558.500000, 12.500000)" stroke="#FF674C" stroke-width="2" stroke-linecap="round" stroke-linejoin="round">
                    <path d="M214.031472,259.311632 C214,225 223.080028,10 1,10" id="Path-10"></path>
                    <polyline id="Line-2" transform="translate(5.000000, 10.000000) rotate(-90.000000) translate(-5.000000, -10.000000) " points="-5 15 5.07852624 5 15 15"></polyline>
                </g>
                <path d="M598.239,608.774 C598.239,605.992 600.475,604.276 601.177,603.808 C599.981,602.976 599.123,601.858 599.123,600.194 C599.123,597.672 600.969,595.332 604.843,595.332 C608.249,595.332 610.615,597.256 610.615,600.22 C610.615,602.534 608.951,604.484 608.405,605.03 C609.835,605.888 610.901,607.032 610.901,608.93 C610.901,611.79 608.457,614.312 604.609,614.312 C600.995,614.312 598.239,611.972 598.239,608.774 Z M606.429,604.042 C606.819,603.626 608.093,602.222 608.093,600.428 C608.093,598.686 606.741,597.646 604.791,597.646 C602.789,597.646 601.671,598.79 601.671,600.194 C601.671,602.274 604.141,603.028 606.429,604.042 Z M600.865,608.566 C600.865,610.62 602.685,611.998 604.583,611.998 C606.533,611.998 608.275,610.75 608.275,608.878 C608.275,606.798 605.493,606.07 603.101,604.926 C602.503,605.342 600.865,606.564 600.865,608.566 Z M620.573,614.312 C615.685,614.312 614.073,610.1 614.073,604.796 C614.073,599.518 615.685,595.332 620.573,595.332 C625.487,595.332 627.073,599.518 627.073,604.796 C627.073,610.1 625.487,614.312 620.573,614.312 Z M620.573,611.946 C623.589,611.946 624.421,608.826 624.421,604.796 C624.421,600.818 623.589,597.698 620.573,597.698 C617.583,597.698 616.725,600.818 616.725,604.796 C616.725,608.826 617.583,611.946 620.573,611.946 Z M633.859,603.028 C631.675,603.028 629.933,601.312 629.933,599.18 C629.933,597.074 631.675,595.332 633.859,595.332 C636.043,595.332 637.837,597.074 637.837,599.18 C637.837,601.312 636.043,603.028 633.859,603.028 Z M630.323,614 L644.389,595.644 L646.833,595.644 L632.793,614 L630.323,614 Z M633.859,601.104 C634.951,601.104 635.809,600.272 635.809,599.18 C635.809,598.114 634.951,597.23 633.859,597.23 C632.793,597.23 631.961,598.114 631.961,599.18 C631.961,600.272 632.793,601.104 633.859,601.104 Z M639.371,610.49 C639.371,608.358 641.113,606.616 643.297,606.616 C645.481,606.616 647.249,608.358 647.249,610.49 C647.249,612.596 645.481,614.312 643.297,614.312 C641.113,614.312 639.371,612.596 639.371,610.49 Z M641.399,610.464 C641.399,611.53 642.205,612.388 643.297,612.388 C644.389,612.388 645.221,611.53 645.221,610.464 C645.221,609.398 644.389,608.514 643.297,608.514 C642.205,608.514 641.399,609.398 641.399,610.464 Z M656.947,614 L659.469,614 L659.469,608.358 L666.125,608.358 L666.125,614 L668.647,614 L668.647,600.844 L666.125,600.844 L666.125,606.2 L659.469,606.2 L659.469,600.844 L656.947,600.844 L656.947,614 Z M671.455,610.412 C671.455,606.278 676.577,605.81 679.307,605.81 L679.983,605.81 L679.983,605.55 C679.983,603.392 678.735,602.664 677.097,602.664 C675.797,602.664 674.471,603.184 673.405,603.938 L672.391,602.092 C673.457,601.208 675.459,600.532 677.305,600.532 C680.607,600.532 682.505,602.352 682.505,605.68 L682.505,614 L680.139,614 L680.139,612.674 C680.139,612.076 680.217,611.634 680.217,611.634 L680.165,611.634 C679.411,613.142 677.799,614.312 675.849,614.312 C673.561,614.312 671.455,612.882 671.455,610.412 Z M673.977,610.204 C673.977,611.244 674.809,612.31 676.447,612.31 C678.657,612.31 679.983,610.074 679.983,608.124 L679.983,607.63 L679.333,607.63 C677.461,607.63 673.977,607.786 673.977,610.204 Z M692.073,616.73 L691.189,618.654 C691.189,618.654 692.255,619.46 693.711,619.46 C695.557,619.46 697.195,618.42 697.975,616.366 L704.163,600.844 L701.433,600.844 L698.235,609.476 C698.001,610.152 697.793,611.036 697.793,611.036 L697.741,611.036 C697.741,611.036 697.507,610.1 697.247,609.45 L693.945,600.844 L691.111,600.844 L696.623,613.844 L695.973,615.352 C695.479,616.548 694.621,617.302 693.581,617.302 C692.801,617.302 692.073,616.73 692.073,616.73 Z M706.633,614 L706.633,600.844 L712.067,600.844 C714.719,600.844 716.461,602.014 716.461,604.224 C716.461,605.498 715.785,606.59 714.589,607.11 L714.589,607.136 C716.227,607.526 717.085,608.8 717.085,610.256 C717.085,612.7 715.109,614 712.249,614 L706.633,614 Z M709.155,606.408 L711.625,606.408 C713.133,606.408 713.887,605.628 713.887,604.406 C713.887,603.21 713.133,602.586 711.547,602.586 L709.155,602.586 L709.155,606.408 Z M709.155,612.232 L711.859,612.232 C713.679,612.232 714.537,611.4 714.537,610.178 C714.537,608.878 713.575,608.098 711.833,608.098 L709.155,608.098 L709.155,612.232 Z M719.295,607.422 C719.295,603.236 722.155,600.532 725.899,600.532 C729.617,600.532 731.593,603.314 731.593,606.694 C731.593,607.032 731.541,607.396 731.489,607.76 L721.921,607.76 C722.051,610.594 724.079,612.128 726.445,612.128 C727.849,612.128 729.279,611.53 730.319,610.594 L731.385,612.44 C730.111,613.61 728.109,614.312 726.289,614.312 C722.155,614.312 719.295,611.322 719.295,607.422 Z M721.999,605.94 L729.045,605.94 C728.967,603.678 727.563,602.482 725.847,602.482 C723.897,602.482 722.363,603.756 721.999,605.94 Z M733.205,614.13 C737.079,613.922 738.587,610.854 738.587,604.9 L738.587,602.924 L742.461,602.924 L742.461,614 L744.983,614 L744.983,600.844 L736.169,600.844 L736.169,604.9 C736.169,609.658 735.129,611.582 733.205,611.868 L733.205,614.13 Z M748.883,614 L751.301,614 L756.995,606.148 C757.411,605.524 758.061,604.64 758.139,604.406 L758.191,604.406 C758.191,604.614 758.113,605.524 758.113,606.148 L758.113,614 L760.557,614 L760.557,600.844 L758.113,600.844 L752.445,608.696 C752.003,609.32 751.379,610.23 751.275,610.464 L751.223,610.464 C751.249,610.334 751.301,609.398 751.301,608.696 L751.301,600.844 L748.883,600.844 L748.883,614 Z M768.019,609.424 C769.319,609.424 770.749,608.982 771.581,608.462 L771.633,608.462 C771.633,608.462 771.607,608.878 771.607,609.242 L771.607,614 L774.129,614 L774.129,600.844 L771.607,600.844 L771.607,606.304 C771.061,606.694 769.995,607.24 768.695,607.24 C766.537,607.24 766.069,606.07 766.069,604.77 L766.069,600.844 L763.599,600.844 L763.599,605.134 C763.599,607.942 765.211,609.424 768.019,609.424 Z M777.171,607.422 C777.171,603.236 780.031,600.532 783.775,600.532 C787.493,600.532 789.469,603.314 789.469,606.694 C789.469,607.032 789.417,607.396 789.365,607.76 L779.797,607.76 C779.927,610.594 781.955,612.128 784.321,612.128 C785.725,612.128 787.155,611.53 788.195,610.594 L789.261,612.44 C787.987,613.61 785.985,614.312 784.165,614.312 C780.031,614.312 777.171,611.322 777.171,607.422 Z M779.875,605.94 L786.921,605.94 C786.843,603.678 785.439,602.482 783.723,602.482 C781.773,602.482 780.239,603.756 779.875,605.94 Z M792.511,614 L795.033,614 L795.033,608.358 L801.689,608.358 L801.689,614 L804.211,614 L804.211,600.844 L801.689,600.844 L801.689,606.2 L795.033,606.2 L795.033,600.844 L792.511,600.844 L792.511,614 Z M808.111,614 L810.529,614 L816.223,606.148 C816.639,605.524 817.289,604.64 817.367,604.406 L817.419,604.406 C817.419,604.614 817.341,605.524 817.341,606.148 L817.341,614 L819.785,614 L819.785,600.844 L817.341,600.844 L811.673,608.696 C811.231,609.32 810.607,610.23 810.503,610.464 L810.451,610.464 C810.477,610.334 810.529,609.398 810.529,608.696 L810.529,600.844 L808.111,600.844 L808.111,614 Z M822.801,607.422 C822.801,603.236 825.661,600.532 829.405,600.532 C833.123,600.532 835.099,603.314 835.099,606.694 C835.099,607.032 835.047,607.396 834.995,607.76 L825.427,607.76 C825.557,610.594 827.585,612.128 829.951,612.128 C831.355,612.128 832.785,611.53 833.825,610.594 L834.891,612.44 C833.617,613.61 831.615,614.312 829.795,614.312 C825.661,614.312 822.801,611.322 822.801,607.422 Z M825.505,605.94 L832.551,605.94 C832.473,603.678 831.069,602.482 829.353,602.482 C827.403,602.482 825.869,603.756 825.505,605.94 Z M597.134,641.396 C597.134,637.418 600.306,634.532 604.206,634.532 C608.132,634.532 611.304,637.418 611.304,641.396 C611.304,645.4 608.132,648.312 604.232,648.312 C600.306,648.312 597.134,645.4 597.134,641.396 Z M599.708,641.396 C599.708,644.152 601.736,646.128 604.232,646.128 C606.702,646.128 608.756,644.152 608.756,641.396 C608.756,638.666 606.702,636.716 604.232,636.716 C601.736,636.716 599.708,638.666 599.708,641.396 Z M613.774,640.434 C613.774,635.728 615.126,632.868 619.702,630.944 L624.408,628.916 L625.24,630.996 L620.196,633.102 C617.57,634.298 616.322,635.832 616.14,638.354 L616.192,638.354 C617.362,636.586 619.104,636.014 620.846,636.014 C624.148,636.014 626.436,638.354 626.436,642.072 C626.436,645.712 623.94,648.312 620.222,648.312 C615.776,648.312 613.774,644.984 613.774,640.434 Z M616.4,642.072 C616.4,644.672 618.09,646.18 620.118,646.18 C622.198,646.18 623.888,644.672 623.888,642.124 C623.888,639.55 622.198,638.016 620.222,638.016 C617.986,638.016 616.4,639.758 616.4,642.072 Z M631.038,648 L631.038,637.002 L627.476,637.002 L627.476,634.844 L633.56,634.844 L633.56,639.602 L636.212,639.602 C638.942,639.602 640.97,640.85 640.97,643.84 C640.97,646.31 639.488,648 636.186,648 L631.038,648 Z M633.56,646.18 L635.822,646.18 C637.642,646.18 638.422,645.192 638.422,643.814 C638.422,642.41 637.642,641.422 635.822,641.422 L633.56,641.422 L633.56,646.18 Z M650.46,632.244 L652.514,632.244 L652.514,629.618 L650.46,629.618 L650.46,632.244 Z M646.092,632.244 L648.172,632.244 L648.172,629.618 L646.092,629.618 L646.092,632.244 Z M642.842,641.422 C642.842,637.236 645.702,634.532 649.446,634.532 C653.164,634.532 655.14,637.314 655.14,640.694 C655.14,641.032 655.088,641.396 655.036,641.76 L645.468,641.76 C645.598,644.594 647.626,646.128 649.992,646.128 C651.396,646.128 652.826,645.53 653.866,644.594 L654.932,646.44 C653.658,647.61 651.656,648.312 649.836,648.312 C645.702,648.312 642.842,645.322 642.842,641.422 Z M645.546,639.94 L652.592,639.94 C652.514,637.678 651.11,636.482 649.394,636.482 C647.444,636.482 645.91,637.756 645.546,639.94 Z M657.636,648 L660.08,648 L660.652,640.174 C660.704,639.394 660.626,637.912 660.626,637.912 L660.678,637.912 C660.678,637.912 661.094,638.9 661.51,639.862 L664.63,646.414 L666.788,646.414 L669.908,639.836 C670.402,638.822 670.74,637.912 670.74,637.912 L670.792,637.912 C670.792,637.912 670.74,639.394 670.766,640.174 L671.338,648 L673.782,648 L672.638,634.844 L669.882,634.844 L666.45,642.28 C666.112,643.086 665.722,644.048 665.722,644.048 L665.67,644.048 C665.67,644.048 665.306,643.06 664.942,642.28 L661.588,634.844 L658.78,634.844 L657.636,648 Z M676.07,644.412 C676.07,640.278 681.192,639.81 683.922,639.81 L684.598,639.81 L684.598,639.55 C684.598,637.392 683.35,636.664 681.712,636.664 C680.412,636.664 679.086,637.184 678.02,637.938 L677.006,636.092 C678.072,635.208 680.074,634.532 681.92,634.532 C685.222,634.532 687.12,636.352 687.12,639.68 L687.12,648 L684.754,648 L684.754,646.674 C684.754,646.076 684.832,645.634 684.832,645.634 L684.78,645.634 C684.026,647.142 682.414,648.312 680.464,648.312 C678.176,648.312 676.07,646.882 676.07,644.412 Z M678.592,644.204 C678.592,645.244 679.424,646.31 681.062,646.31 C683.272,646.31 684.598,644.074 684.598,642.124 L684.598,641.63 L683.948,641.63 C682.076,641.63 678.592,641.786 678.592,644.204 Z M696.48,641.422 C696.48,645.374 699.366,648.312 703.526,648.312 C705.58,648.312 707.582,647.48 708.778,646.206 L707.764,644.36 C706.75,645.426 705.164,646.128 703.708,646.128 C700.978,646.128 699.054,644.074 699.054,641.396 C699.054,638.718 700.978,636.716 703.63,636.716 C705.008,636.716 706.386,637.34 707.27,638.224 L708.466,636.456 C707.218,635.13 705.268,634.532 703.526,634.532 C699.392,634.532 696.48,637.522 696.48,641.422 Z M714.68,648 L717.176,648 L717.176,637.002 L721.778,637.002 L721.778,634.844 L710.104,634.844 L710.104,637.002 L714.68,637.002 L714.68,648 Z M724.248,653.2 L724.248,634.844 L726.588,634.844 L726.588,636.014 C726.588,636.56 726.51,637.002 726.51,637.002 L726.562,637.002 C727.394,635.416 729.058,634.532 730.982,634.532 C734.544,634.532 736.754,637.34 736.754,641.422 C736.754,645.608 734.258,648.312 730.8,648.312 C729.136,648.312 727.628,647.48 726.718,646.076 L726.666,646.076 C726.666,646.076 726.77,646.544 726.77,647.22 L726.77,653.2 L724.248,653.2 Z M726.692,641.474 C726.692,643.814 727.992,646.128 730.41,646.128 C732.49,646.128 734.206,644.438 734.206,641.448 C734.206,638.588 732.672,636.742 730.488,636.742 C728.512,636.742 726.692,638.146 726.692,641.474 Z M738.782,644.412 C738.782,640.278 743.904,639.81 746.634,639.81 L747.31,639.81 L747.31,639.55 C747.31,637.392 746.062,636.664 744.424,636.664 C743.124,636.664 741.798,637.184 740.732,637.938 L739.718,636.092 C740.784,635.208 742.786,634.532 744.632,634.532 C747.934,634.532 749.832,636.352 749.832,639.68 L749.832,648 L747.466,648 L747.466,646.674 C747.466,646.076 747.544,645.634 747.544,645.634 L747.492,645.634 C746.738,647.142 745.126,648.312 743.176,648.312 C740.888,648.312 738.782,646.882 738.782,644.412 Z M741.304,644.204 C741.304,645.244 742.136,646.31 743.774,646.31 C745.984,646.31 747.31,644.074 747.31,642.124 L747.31,641.63 L746.66,641.63 C744.788,641.63 741.304,641.786 741.304,644.204 Z M752.042,648 L754.902,648 L757.658,643.606 C757.866,643.294 758.048,642.904 758.048,642.904 L758.1,642.904 C758.1,642.904 758.308,643.294 758.516,643.606 L761.272,648 L764.132,648 L759.634,641.24 L763.872,634.844 L760.986,634.844 L758.542,638.848 C758.36,639.186 758.1,639.628 758.1,639.628 L758.048,639.628 C758.048,639.628 757.814,639.186 757.632,638.848 L755.188,634.844 L752.302,634.844 L756.54,641.24 L752.042,648 Z M765.224,641.396 C765.224,637.418 768.396,634.532 772.296,634.532 C776.222,634.532 779.394,637.418 779.394,641.396 C779.394,645.4 776.222,648.312 772.322,648.312 C768.396,648.312 765.224,645.4 765.224,641.396 Z M767.798,641.396 C767.798,644.152 769.826,646.128 772.322,646.128 C774.792,646.128 776.846,644.152 776.846,641.396 C776.846,638.666 774.792,636.716 772.322,636.716 C769.826,636.716 767.798,638.666 767.798,641.396 Z M782.436,648 L782.436,634.844 L787.87,634.844 C790.522,634.844 792.264,636.014 792.264,638.224 C792.264,639.498 791.588,640.59 790.392,641.11 L790.392,641.136 C792.03,641.526 792.888,642.8 792.888,644.256 C792.888,646.7 790.912,648 788.052,648 L782.436,648 Z M784.958,640.408 L787.428,640.408 C788.936,640.408 789.69,639.628 789.69,638.406 C789.69,637.21 788.936,636.586 787.35,636.586 L784.958,636.586 L784.958,640.408 Z M784.958,646.232 L787.662,646.232 C789.482,646.232 790.34,645.4 790.34,644.178 C790.34,642.878 789.378,642.098 787.636,642.098 L784.958,642.098 L784.958,646.232 Z M795.098,641.396 C795.098,637.418 798.27,634.532 802.17,634.532 C806.096,634.532 809.268,637.418 809.268,641.396 C809.268,645.4 806.096,648.312 802.196,648.312 C798.27,648.312 795.098,645.4 795.098,641.396 Z M797.672,641.396 C797.672,644.152 799.7,646.128 802.196,646.128 C804.666,646.128 806.72,644.152 806.72,641.396 C806.72,638.666 804.666,636.716 802.196,636.716 C799.7,636.716 797.672,638.666 797.672,641.396 Z M812.31,648 L814.832,648 L814.832,637.002 L820.552,637.002 L820.552,634.844 L812.31,634.844 L812.31,648 Z M821.696,641.396 C821.696,637.418 824.868,634.532 828.768,634.532 C832.694,634.532 835.866,637.418 835.866,641.396 C835.866,645.4 832.694,648.312 828.794,648.312 C824.868,648.312 821.696,645.4 821.696,641.396 Z M824.27,641.396 C824.27,644.152 826.298,646.128 828.794,646.128 C831.264,646.128 833.318,644.152 833.318,641.396 C833.318,638.666 831.264,636.716 828.794,636.716 C826.298,636.716 824.27,638.666 824.27,641.396 Z M668.92,687.2 L668.92,668.844 L671.26,668.844 L671.26,670.014 C671.26,670.56 671.182,671.002 671.182,671.002 L671.234,671.002 C672.066,669.416 673.73,668.532 675.654,668.532 C679.216,668.532 681.426,671.34 681.426,675.422 C681.426,679.608 678.93,682.312 675.472,682.312 C673.808,682.312 672.3,681.48 671.39,680.076 L671.338,680.076 C671.338,680.076 671.442,680.544 671.442,681.22 L671.442,687.2 L668.92,687.2 Z M671.364,675.474 C671.364,677.814 672.664,680.128 675.082,680.128 C677.162,680.128 678.878,678.438 678.878,675.448 C678.878,672.588 677.344,670.742 675.16,670.742 C673.184,670.742 671.364,672.146 671.364,675.474 Z M683.688,675.422 C683.688,671.236 686.548,668.532 690.292,668.532 C694.01,668.532 695.986,671.314 695.986,674.694 C695.986,675.032 695.934,675.396 695.882,675.76 L686.314,675.76 C686.444,678.594 688.472,680.128 690.838,680.128 C692.242,680.128 693.672,679.53 694.712,678.594 L695.778,680.44 C694.504,681.61 692.502,682.312 690.682,682.312 C686.548,682.312 683.688,679.322 683.688,675.422 Z M686.392,673.94 L693.438,673.94 C693.36,671.678 691.956,670.482 690.24,670.482 C688.29,670.482 686.756,671.756 686.392,673.94 Z M697.754,680.388 C698.846,681.428 700.562,682.312 702.59,682.312 C705.294,682.312 707.634,680.934 707.634,678.23 C707.634,676.54 706.594,675.552 705.268,675.136 L705.268,675.084 C706.308,674.642 707.192,673.732 707.192,672.094 C707.192,669.754 705.242,668.532 702.746,668.532 C700.666,668.532 699.184,669.208 698.17,669.962 L699.106,671.652 C700.12,670.898 701.16,670.508 702.304,670.508 C703.76,670.508 704.644,671.184 704.644,672.406 C704.644,673.732 703.63,674.304 702.148,674.304 L700.77,674.304 L700.77,676.124 L702.382,676.124 C704.228,676.124 705.086,676.852 705.086,678.126 C705.086,679.556 703.864,680.284 702.356,680.284 C700.77,680.284 699.522,679.348 698.924,678.724 L697.754,680.388 Z M709.818,675.422 C709.818,671.236 712.678,668.532 716.422,668.532 C720.14,668.532 722.116,671.314 722.116,674.694 C722.116,675.032 722.064,675.396 722.012,675.76 L712.444,675.76 C712.574,678.594 714.602,680.128 716.968,680.128 C718.372,680.128 719.802,679.53 720.842,678.594 L721.908,680.44 C720.634,681.61 718.632,682.312 716.812,682.312 C712.678,682.312 709.818,679.322 709.818,675.422 Z M712.522,673.94 L719.568,673.94 C719.49,671.678 718.086,670.482 716.37,670.482 C714.42,670.482 712.886,671.756 712.522,673.94 Z M725.158,687.2 L725.158,668.844 L727.498,668.844 L727.498,670.014 C727.498,670.56 727.42,671.002 727.42,671.002 L727.472,671.002 C728.304,669.416 729.968,668.532 731.892,668.532 C735.454,668.532 737.664,671.34 737.664,675.422 C737.664,679.608 735.168,682.312 731.71,682.312 C730.046,682.312 728.538,681.48 727.628,680.076 L727.576,680.076 C727.576,680.076 727.68,680.544 727.68,681.22 L727.68,687.2 L725.158,687.2 Z M727.602,675.474 C727.602,677.814 728.902,680.128 731.32,680.128 C733.4,680.128 735.116,678.438 735.116,675.448 C735.116,672.588 733.582,670.742 731.398,670.742 C729.422,670.742 727.602,672.146 727.602,675.474 Z M740.784,682 L740.784,668.844 L746.218,668.844 C748.87,668.844 750.612,670.014 750.612,672.224 C750.612,673.498 749.936,674.59 748.74,675.11 L748.74,675.136 C750.378,675.526 751.236,676.8 751.236,678.256 C751.236,680.7 749.26,682 746.4,682 L740.784,682 Z M743.306,674.408 L745.776,674.408 C747.284,674.408 748.038,673.628 748.038,672.406 C748.038,671.21 747.284,670.586 745.698,670.586 L743.306,670.586 L743.306,674.408 Z M743.306,680.232 L746.01,680.232 C747.83,680.232 748.688,679.4 748.688,678.178 C748.688,676.878 747.726,676.098 745.984,676.098 L743.306,676.098 L743.306,680.232 Z M753.212,678.412 C753.212,674.278 758.334,673.81 761.064,673.81 L761.74,673.81 L761.74,673.55 C761.74,671.392 760.492,670.664 758.854,670.664 C757.554,670.664 756.228,671.184 755.162,671.938 L754.148,670.092 C755.214,669.208 757.216,668.532 759.062,668.532 C762.364,668.532 764.262,670.352 764.262,673.68 L764.262,682 L761.896,682 L761.896,680.674 C761.896,680.076 761.974,679.634 761.974,679.634 L761.922,679.634 C761.168,681.142 759.556,682.312 757.606,682.312 C755.318,682.312 753.212,680.882 753.212,678.412 Z M755.734,678.204 C755.734,679.244 756.566,680.31 758.204,680.31 C760.414,680.31 761.74,678.074 761.74,676.124 L761.74,675.63 L761.09,675.63 C759.218,675.63 755.734,675.786 755.734,678.204 Z" id="80%-на-увеличение-об" fill="#FF674C"></path>
                <g id="Group" transform="translate(470.000000, 848.000000) scale(-1, 1) rotate(-360.000000) translate(-470.000000, -848.000000) translate(460.000000, 725.000000)" stroke="#FF674C" stroke-width="2" stroke-linecap="round" stroke-linejoin="round">
                    <polyline id="Line-2" transform="translate(10.000000, 241.000000) rotate(-180.000000) translate(-10.000000, -241.000000) " points="0 246 10.0785262 236 20 246"></polyline>
                    <path d="M10,-1.13686838e-13 L10,85.9873941 M10,159.997156 L10,245.137034" id="Path-9"></path>
                </g>
                <path d="M445.606,858 L457.436,858 L457.436,855.764 L448.284,855.764 C448.388,851.578 457.15,850.642 457.15,844.61 C457.15,841.438 454.732,839.332 451.378,839.332 C448.674,839.332 446.594,840.892 445.554,842.816 L447.452,844.09 C448.232,842.764 449.636,841.75 451.17,841.75 C453.12,841.75 454.498,842.998 454.498,844.792 C454.498,849.108 445.476,850.07 445.476,856.596 C445.476,857.038 445.528,857.506 445.606,858 Z M467.03,858.312 C462.142,858.312 460.53,854.1 460.53,848.796 C460.53,843.518 462.142,839.332 467.03,839.332 C471.944,839.332 473.53,843.518 473.53,848.796 C473.53,854.1 471.944,858.312 467.03,858.312 Z M467.03,855.946 C470.046,855.946 470.878,852.826 470.878,848.796 C470.878,844.818 470.046,841.698 467.03,841.698 C464.04,841.698 463.182,844.818 463.182,848.796 C463.182,852.826 464.04,855.946 467.03,855.946 Z M480.316,847.028 C478.132,847.028 476.39,845.312 476.39,843.18 C476.39,841.074 478.132,839.332 480.316,839.332 C482.5,839.332 484.294,841.074 484.294,843.18 C484.294,845.312 482.5,847.028 480.316,847.028 Z M476.78,858 L490.846,839.644 L493.29,839.644 L479.25,858 L476.78,858 Z M480.316,845.104 C481.408,845.104 482.266,844.272 482.266,843.18 C482.266,842.114 481.408,841.23 480.316,841.23 C479.25,841.23 478.418,842.114 478.418,843.18 C478.418,844.272 479.25,845.104 480.316,845.104 Z M485.828,854.49 C485.828,852.358 487.57,850.616 489.754,850.616 C491.938,850.616 493.706,852.358 493.706,854.49 C493.706,856.596 491.938,858.312 489.754,858.312 C487.57,858.312 485.828,856.596 485.828,854.49 Z M487.856,854.464 C487.856,855.53 488.662,856.388 489.754,856.388 C490.846,856.388 491.678,855.53 491.678,854.464 C491.678,853.398 490.846,852.514 489.754,852.514 C488.662,852.514 487.856,853.398 487.856,854.464 Z" id="20%" fill="#FF674C"></path>
            </g>
        </g>
    </g>
</svg>