<svg width="30" height="30" viewBox="0 0 30 30" version="1.1" xmlns="http://www.w3.org/2000/svg" xmlns:xlink="http://www.w3.org/1999/xlink">
<title>snow-white</title>
<desc>Created using Figma</desc>
<g id="Canvas" transform="translate(2714 -245)">
<clipPath id="clip-0" clip-rule="evenodd">
<path d="M -2714 245L -2684 245L -2684 275L -2714 275L -2714 245Z" fill="#FFFFFF"/>
</clipPath>
<g id="snow-white" clip-path="url(#clip-0)">
<g id="Ellipse">
<mask id="mask0_outline_ins">
<use xlink:href="#path0_fill" fill="white" transform="translate(-2704 255)"/>
</mask>
<g mask="url(#mask0_outline_ins)">
<use xlink:href="#path1_stroke_2x" transform="translate(-2704 255)" fill="#FFFFFF"/>
</g>
</g>
<g id="Ellipse 2">
<use xlink:href="#path2_fill" transform="translate(-2700 259)" fill="#FFFFFF"/>
</g>
<g id="Group">
<g id="Union">
<use xlink:href="#path3_fill" transform="translate(-2703 247)" fill="#FFFFFF"/>
</g>
<g id="Union">
<use xlink:href="#path4_fill" transform="matrix(-1 -1.22465e-16 1.22465e-16 -1 -2695 273)" fill="#FFFFFF"/>
</g>
</g>
<g id="Group">
<g id="Union">
<use xlink:href="#path4_fill" transform="matrix(0.5 -0.866025 0.866025 0.5 -2712.26 256.964)" fill="#FFFFFF"/>
</g>
<g id="Union">
<use xlink:href="#path5_fill" transform="matrix(-0.5 0.866025 -0.866025 -0.5 -2685.74 263.036)" fill="#FFFFFF"/>
</g>
</g>
<g id="Group">
<g id="Union">
<use xlink:href="#path6_fill" transform="matrix(-0.5 -0.866025 0.866025 -0.5 -2708.26 269.964)" fill="#FFFFFF"/>
</g>
<g id="Union">
<use xlink:href="#path7_fill" transform="matrix(0.5 0.866025 -0.866025 0.5 -2689.74 250.036)" fill="#FFFFFF"/>
</g>
</g>
</g>
</g>
<defs>
<path id="path0_fill" d="M 10 5C 10 7.76142 7.76142 10 5 10C 2.23858 10 0 7.76142 0 5C 0 2.23858 2.23858 0 5 0C 7.76142 0 10 2.23858 10 5Z"/>
<path id="path1_stroke_2x" d="M 8 5C 8 6.65685 6.65685 8 5 8L 5 12C 8.86599 12 12 8.86599 12 5L 8 5ZM 5 8C 3.34315 8 2 6.65685 2 5L -2 5C -2 8.86599 1.13401 12 5 12L 5 8ZM 2 5C 2 3.34315 3.34315 2 5 2L 5 -2C 1.13401 -2 -2 1.13401 -2 5L 2 5ZM 5 2C 6.65685 2 8 3.34315 8 5L 12 5C 12 1.13401 8.86599 -2 5 -2L 5 2Z"/>
<path id="path2_fill" d="M 2 1C 2 1.55228 1.55228 2 1 2C 0.447715 2 0 1.55228 0 1C 0 0.447715 0.447715 0 1 0C 1.55228 0 2 0.447715 2 1Z"/>
<path id="path3_fill" fill-rule="evenodd" d="M 3 6.41414L 3 8C 3 8.55229 3.44775 9 4 9C 4.55225 9 5 8.55229 5 8L 5 6.41414L 7.70703 3.70711C 8.09766 3.31659 8.09766 2.68341 7.70703 2.29289C 7.31665 1.90237 6.68335 1.90237 6.29297 2.29289L 5 3.58582L 5 1C 5 0.447708 4.55225 0 4 0C 3.44775 0 3 0.447708 3 1L 3 3.58582L 1.70703 2.29289C 1.31665 1.90237 0.68335 1.90237 0.292969 2.29289C -0.0976562 2.68341 -0.0976562 3.31659 0.292969 3.70711L 3 6.41414Z"/>
<path id="path4_fill" fill-rule="evenodd" d="M 3 6.41414L 3 8C 3 8.55229 3.44775 9 4 9C 4.55225 9 5 8.55229 5 8L 5 6.41414L 7.70703 3.70711C 8.09766 3.31659 8.09766 2.68341 7.70703 2.29289C 7.31665 1.90237 6.68335 1.90237 6.29297 2.29289L 5 3.58582L 5 1C 5 0.447708 4.55225 0 4 0C 3.44775 0 3 0.447708 3 1L 3 3.58582L 1.70703 2.29289C 1.31665 1.90237 0.68335 1.90237 0.292969 2.29289C -0.0976562 2.68341 -0.0976562 3.31659 0.292969 3.70711L 3 6.41414Z"/>
<path id="path5_fill" fill-rule="evenodd" d="M 3 8C 3 8.55228 3.44775 9 4 9C 4.55225 9 5 8.55228 5 8L 5 6.41412L 7.70703 3.70709C 8.09766 3.31659 8.09766 2.68341 7.70703 2.29291C 7.31665 1.90237 6.68335 1.90237 6.29297 2.29291L 5 3.58582L 5 1C 5 0.447723 4.55225 -6.76306e-17 4 0C 3.44775 6.76306e-17 3 0.447723 3 1L 3 3.58582L 1.70703 2.29291C 1.31665 1.90237 0.68335 1.90237 0.292969 2.29291C -0.0976562 2.68341 -0.0976563 3.31659 0.292969 3.70709L 3 6.41412L 3 8Z"/>
<path id="path6_fill" fill-rule="evenodd" d="M 1.70711 2.29299C 1.31662 1.90247 0.683416 1.90241 0.292944 2.29305C -0.0976499 2.68347 -0.0976279 3.31663 0.292889 3.70714L 2.99998 6.41427L 2.99998 8.00002C 2.99998 8.55227 3.44767 8.99999 3.99995 8.99997C 4.55223 8.99994 4.99996 8.55229 4.99998 8.00002L 4.99999 6.41427L 7.70705 3.70708C 8.09763 3.31666 8.09764 2.68349 7.70712 2.29298C 7.3166 1.90247 6.6834 1.90242 6.29294 2.29305L 4.99995 3.5859L 4.99994 0.999948C 4.99995 0.447684 4.55225 -2.14313e-05 3.99997 7.69451e-10C 3.4477 1.38035e-05 2.99996 0.447678 2.99994 0.99995L 3 3.58587L 1.70711 2.29299Z"/>
<path id="path7_fill" fill-rule="evenodd" d="M 1.70711 2.29299C 1.31662 1.90247 0.683416 1.90241 0.292944 2.29305C -0.0976499 2.68347 -0.0976279 3.31663 0.292889 3.70714L 2.99998 6.41427L 2.99998 8.00002C 2.99998 8.55227 3.44767 8.99999 3.99995 8.99997C 4.55223 8.99994 4.99996 8.55229 4.99998 8.00002L 4.99999 6.41427L 7.70704 3.70709C 8.09763 3.31666 8.09764 2.68349 7.70712 2.29298C 7.3166 1.90247 6.6834 1.90242 6.29296 2.29304L 4.99995 3.5859L 4.99994 0.999948C 4.99996 0.447676 4.55225 -2.14313e-05 3.99997 7.69464e-10C 3.44769 2.14329e-05 2.99996 0.447678 2.99994 0.99995L 3 3.58587L 1.70711 2.29299Z"/>
</defs>
</svg>
