<svg width="30" height="30" viewBox="0 0 30 30" version="1.1" xmlns="http://www.w3.org/2000/svg" xmlns:xlink="http://www.w3.org/1999/xlink">
<title>stats-gradient</title>
<desc>Created using Figma</desc>
<g id="Canvas" transform="translate(2924 -16)">
<clipPath id="clip-0" clip-rule="evenodd">
<path d="M -2924 16L -2894 16L -2894 46L -2924 46L -2924 16Z" fill="#FFFFFF"/>
</clipPath>
<g id="stats-gradient" clip-path="url(#clip-0)">
<g id="stats-gradient">
<g id="Union">
<use xlink:href="#path0_fill" transform="translate(-2920 20)" fill="#EF6677"/>
</g>
</g>
</g>
</g>
<defs>
<path id="path0_fill" fill-rule="evenodd" d="M 12.0674 2.13424L 11.0002 0L 17.0002 0.493L 14.0002 6L 12.9619 3.92335L 1.46045 9.88773C 0.970215 10.142 0.366699 9.95064 0.112549 9.46036C -0.141846 8.97008 0.0495605 8.36652 0.539795 8.11227L 12.0674 2.13424ZM 21.0002 23C 21.5525 23 22.0002 22.5523 22.0002 22L 22.0002 8C 22.0002 7.448 21.5522 7 21.0002 7L 19.0002 7C 18.4482 7 18.0002 7.448 18.0002 8L 18.0002 22C 18.0002 22.5523 18.448 23 19.0002 23L 21.0002 23ZM 15.0002 23C 15.5525 23 16.0002 22.5523 16.0002 22L 16.0002 11C 16.0002 10.448 15.5522 10 15.0002 10L 13.0002 10C 12.4482 10 12.0002 10.448 12.0002 11L 12.0002 22C 12.0002 22.5523 12.448 23 13.0002 23L 15.0002 23ZM 10.0002 22C 10.0002 22.5523 9.55249 23 9.00024 23L 7.00024 23C 6.448 23 6.00024 22.5523 6.00024 22L 6.00024 14C 6.00024 13.448 6.44824 13 7.00024 13L 9.00024 13C 9.55225 13 10.0002 13.448 10.0002 14L 10.0002 22ZM 3.00024 23C 3.55249 23 4.00024 22.5523 4.00024 22L 4.00024 17C 4.00024 16.448 3.55225 16 3.00024 16L 1.00024 16C 0.448242 16 0.000244141 16.448 0.000244141 17L 0.000244141 22C 0.000244141 22.5523 0.447998 23 1.00024 23L 3.00024 23Z"/>
</defs>
</svg>
