<?xml version="1.0" encoding="UTF-8"?>
<svg width="30px" height="30px" viewBox="0 0 30 30" version="1.1" xmlns="http://www.w3.org/2000/svg" xmlns:xlink="http://www.w3.org/1999/xlink">
    <!-- Generator: Sketch 46.1 (44463) - http://www.bohemiancoding.com/sketch -->
    <title>thumbs-up-red</title>
    <desc>Created with Sketch.</desc>
    <defs></defs>
    <g id="Page-1" stroke="none" stroke-width="1" fill="none" fill-rule="evenodd">
        <g id="thumbs-up-red" fill-rule="nonzero" fill="#FF674C">
            <g id="thumbs_up" transform="translate(4.000000, 2.500000)">
                <path d="M1,23 L2,23 C3.281,24.281 5.017,25 6.828,25 L17,25 L19,23 L19,19 L19.5,9 L10,9 C10,9 11,5.734 11,5 C11,2.749 11,0 8,0 C7,0 7,0 7,0 L6.499,3.491 L4.132,7.894 C3.71929195,8.6619804 2.58661288,9.30163871 0.733962771,9.81297494 L0.733958076,9.81295793 C0.300343021,9.93263681 -5.50880176e-17,10.327105 0,10.7769328 L0,22 L0,22 C6.76353751e-17,22.5522847 0.44771525,23 1,23 Z" id="Shape"></path>
                <circle id="Oval" cx="19.5" cy="11.5" r="2.5"></circle>
                <circle id="Oval" cx="18.5" cy="19.5" r="2.5"></circle>
                <circle id="Oval" cx="19.5" cy="15.5" r="2.5"></circle>
                <circle id="Oval" cx="17" cy="23" r="2"></circle>
                <circle id="Oval" cx="17" cy="23" r="2"></circle>
            </g>
        </g>
    </g>
</svg>