<?xml version="1.0" encoding="UTF-8"?>
<svg width="30px" height="30px" viewBox="0 0 30 30" version="1.1" xmlns="http://www.w3.org/2000/svg" xmlns:xlink="http://www.w3.org/1999/xlink">
    <!-- Generator: Sketch 46.1 (44463) - http://www.bohemiancoding.com/sketch -->
    <title>yt-white</title>
    <desc>Created with Sketch.</desc>
    <defs></defs>
    <g id="Page-1" stroke="none" stroke-width="1" fill="none" fill-rule="evenodd">
        <g id="yt-white" fill="#FFFFFF">
            <g id="youtube" transform="translate(4.000000, 6.000000)">
                <g id="Youtube">
                    <path d="M11,3.19744231e-14 C0.1892,3.19744231e-14 4.26325641e-14,0.964805195 4.26325641e-14,8.5 C4.26325641e-14,16.0351948 0.1892,17 11,17 C21.8108,17 22,16.0351948 22,8.5 C22,0.964805195 21.8108,3.19744231e-14 11,3.19744231e-14 L11,3.19744231e-14 Z M14.5255,8.8687013 L9.5865,11.1824675 C9.1542,11.3833766 8.8,11.1581818 8.8,10.6790909 L8.8,6.32090909 C8.8,5.84292208 9.1542,5.61662338 9.5865,5.81753247 L14.5255,8.1312987 C14.9578,8.33441558 14.9578,8.66558442 14.5255,8.8687013 L14.5255,8.8687013 Z" id="Shape"></path>
                </g>
            </g>
        </g>
    </g>
</svg>