<?xml version="1.0" encoding="UTF-8"?>
<svg width="30px" height="30px" viewBox="0 0 30 30" version="1.1" xmlns="http://www.w3.org/2000/svg" xmlns:xlink="http://www.w3.org/1999/xlink">
    <!-- Generator: Sketch 46.1 (44463) - http://www.bohemiancoding.com/sketch -->
    <title>btc-paper-purple</title>
    <desc>Created with Sketch.</desc>
    <defs></defs>
    <g id="Page-1" stroke="none" stroke-width="1" fill="none" fill-rule="evenodd">
        <g id="btc-paper-purple">
            <g id="money" transform="translate(2.000000, 3.000000)">
                <path d="M24,19 L24,21.96 C24,21.96 23.525,23 23,23 C22.475,23 15,19 2,19" id="Shape" stroke="#9D6DD6" stroke-width="2" stroke-linecap="round" stroke-linejoin="round"></path>
                <path d="M24,15 L2,15 C1.448,15 1,14.552 1,14 L1,2 C1,1.448 1.448,1 2,1 L24,1 C24.552,1 25,1.448 25,2 L25,14 C25,14.552 24.552,15 24,15 Z" id="Shape" stroke="#9D6DD6" stroke-width="2" stroke-linecap="round"></path>
                <circle id="Oval" fill="#9D6DD6" fill-rule="nonzero" cx="24" cy="2" r="2"></circle>
                <circle id="Oval" fill="#9D6DD6" fill-rule="nonzero" cx="2" cy="2" r="2"></circle>
                <circle id="Oval" fill="#9D6DD6" fill-rule="nonzero" cx="2" cy="14" r="2"></circle>
                <circle id="Oval" fill="#9D6DD6" fill-rule="nonzero" cx="24" cy="14" r="2"></circle>
                <path d="M21,22 C21,22 21.889,24.009 23,24.009 C24.111,24.009 25,23.105 25,22 C25,20.895 24.105,20 23,20 C21.895,20 21,20.895 21,22 Z" id="Shape" fill="#9D6DD6" fill-rule="nonzero"></path>
                <circle id="Oval" fill="#9D6DD6" fill-rule="nonzero" cx="21" cy="8" r="1"></circle>
                <circle id="Oval" fill="#9D6DD6" fill-rule="nonzero" cx="5" cy="8" r="1"></circle>
                <rect id="Rectangle-path" fill="#9D6DD6" fill-rule="nonzero" x="23" y="18" width="2" height="2"></rect>
            </g>
            <path d="M13.8852539,11.675293 L13.8852539,13.5498047 L15.1206055,13.5498047 C15.4607764,13.5498047 15.7221671,13.4719246 15.9047852,13.3161621 C16.0874033,13.1603996 16.1787109,12.9410821 16.1787109,12.6582031 C16.1787109,12.0065072 15.8546582,11.6788737 15.206543,11.675293 L13.8852539,11.675293 Z M13.8852539,10.4399414 L14.8681641,10.4399414 C15.27995,10.4363607 15.5735668,10.3611661 15.7490234,10.2143555 C15.92448,10.0675448 16.012207,9.85091289 16.012207,9.56445312 C16.012207,9.23502439 15.9173187,8.99780346 15.7275391,8.8527832 C15.5377595,8.70776295 15.2316102,8.63525391 14.809082,8.63525391 L13.8852539,8.63525391 L13.8852539,10.4399414 Z M14.4567871,7.1796875 L14.4567871,6.75 C14.4567871,6.33578644 14.1210007,6 13.7067871,6 C13.2925735,6 12.9567871,6.33578644 12.9567871,6.75 L12.9567871,6.75 L12.9567871,7.18060437 C12.4245491,7.2032332 12,7.64188097 12,8.1796875 L12,8.1796875 L12,14 C12,14.5378065 12.4245491,14.9764543 12.9567871,14.9990831 L12.9567871,15.25 C12.9567871,15.6642136 13.2925735,16 13.7067871,16 C14.1210007,16 14.4567871,15.6642136 14.4567871,15.25 L14.4567871,15 L14.9567871,15 L14.9567871,15.25 C14.9567871,15.6642136 15.2925735,16 15.7067871,16 C16.1210007,16 16.4567871,15.6642136 16.4567871,15.25 L16.4567871,14.8395512 C16.8034261,14.7416945 17.0947664,14.5991328 17.3308105,14.4118652 C17.8160018,14.0269349 18.0585938,13.4513385 18.0585938,12.6850586 C18.0585938,12.2625304 17.9493826,11.9044611 17.730957,11.6108398 C17.5125315,11.3172186 17.1992208,11.1166998 16.7910156,11.0092773 C17.1526711,10.873209 17.4265941,10.661948 17.612793,10.3754883 C17.7989918,10.0890285 17.8920898,9.74349161 17.8920898,9.33886719 C17.8920898,8.63704076 17.6298041,8.1017271 17.1052246,7.73291016 C16.9193204,7.60220621 16.703175,7.4946625 16.4567871,7.41027878 L16.4567871,6.75 C16.4567871,6.33578644 16.1210007,6 15.7067871,6 C15.2925735,6 14.9567871,6.33578644 14.9567871,6.75 L14.9567871,6.75 L14.9567871,7.18104406 C14.9081426,7.18013969 14.8589076,7.1796875 14.809082,7.1796875 L14.4567871,7.1796875 Z" id="Combined-Shape" fill="#9D6DD6"></path>
        </g>
    </g>
</svg>