<?xml version="1.0" encoding="UTF-8"?>
<svg width="2640px" height="320px" viewBox="0 0 2640 320" version="1.1" xmlns="http://www.w3.org/2000/svg" xmlns:xlink="http://www.w3.org/1999/xlink">
    <!-- Generator: Sketch 46.1 (44463) - http://www.bohemiancoding.com/sketch -->
    <title>chart-bg-2</title>
    <desc>Created with Sketch.</desc>
    <defs>
        <linearGradient x1="50%" y1="100%" x2="50%" y2="0%" id="linearGradient-1">
            <stop stop-color="#FFFFFF" stop-opacity="0.05" offset="0%"></stop>
            <stop stop-color="#FFFFFF" stop-opacity="0.1" offset="100%"></stop>
        </linearGradient>
    </defs>
    <g id="Page-1" stroke="none" stroke-width="1" fill="none" fill-rule="evenodd">
        <g id="Artboard-2" transform="translate(0.000000, -30.000000)" fill="url(#linearGradient-1)">
            <g id="Group">
                <path d="M601.008886,199.747778 L718.991114,170.252222 L718.991114,170.252222 C719.656584,170.085854 720.349169,170.058195 721.025787,170.170964 L838.775017,189.795836 L838.775017,189.795836 C839.579451,189.929909 840.404471,189.865176 841.178151,189.607283 L958.618714,150.460429 L958.618714,150.460429 C959.520836,150.159721 960.490003,150.122501 961.412531,150.353133 L1078.02576,179.50644 L1078.02576,179.50644 C1079.29151,179.822877 1080.63081,179.632025 1081.75779,178.974622 L1198.24221,111.025378 L1198.24221,111.025378 C1199.36919,110.367975 1200.70849,110.177123 1201.97424,110.49356 L1318.2056,139.551401 L1318.2056,139.551401 C1319.36352,139.840881 1320.5868,139.706599 1321.65435,139.172825 L1438.34565,80.8271754 L1438.34565,80.8271754 C1439.4132,80.2934007 1440.63648,80.1591189 1441.7944,80.4485988 L1558.02576,109.50644 L1558.02576,109.50644 C1559.29151,109.822877 1560.63081,109.632025 1561.75779,108.974622 L1678.0458,41.1399521 L1678.0458,41.1399521 C1679.28798,40.4153465 1680.78201,40.2606701 1682.14629,40.7154301 L1798.61871,79.5395713 L1798.61871,79.5395713 C1799.52084,79.8402786 1800.49,79.8774993 1801.41253,79.6468673 L1918.78732,50.3031695 L1918.78732,50.3031695 C1919.58352,50.1041195 1920.41648,50.1041195 1921.21268,50.3031695 L2038.39314,79.5982862 L2038.39314,79.5982862 C2039.4365,79.8591259 2040.53616,79.7766004 2041.5289,79.3629583 L2158.27186,30.7200577 L2158.27186,30.7200577 C2159.38618,30.255759 2160.63085,30.2102831 2161.77608,30.5920258 L2278.41886,69.4729537 L2278.41886,69.4729537 C2279.4452,69.8150651 2280.5548,69.8150651 2281.58114,69.4729537 L2398.41886,30.5270463 L2398.41886,30.5270463 C2399.4452,30.1849349 2400.5548,30.1849349 2401.58114,30.5270463 L2518.61871,69.5395713 L2518.61871,69.5395713 C2519.52084,69.8402786 2520.49,69.8774993 2521.41253,69.6468673 L2640,40 L2640,350 L0,350 L0,190 L119.584773,199.965398 L119.584773,199.965398 C119.861112,199.988426 120.138888,199.988426 120.415227,199.965398 L239.584773,190.034602 L239.584773,190.034602 C239.861112,190.011574 240.138888,190.011574 240.415227,190.034602 L359.378222,199.948185 L359.378222,199.948185 C359.791139,199.982595 360.206733,199.965545 360.615444,199.897426 L479.178005,180.136999 L479.178005,180.136999 C479.722248,180.046292 480.277752,180.046292 480.821995,180.136999 L598.974213,199.829036 L598.974213,199.829036 C599.650831,199.941805 600.343416,199.914146 601.008886,199.747778 Z" id="chart-bg-2"></path>
            </g>
        </g>
    </g>
</svg>