<?xml version="1.0" encoding="UTF-8"?>
<svg width="2640px" height="290px" viewBox="0 0 2640 290" version="1.1" xmlns="http://www.w3.org/2000/svg" xmlns:xlink="http://www.w3.org/1999/xlink">
    <!-- Generator: Sketch 46.1 (44463) - http://www.bohemiancoding.com/sketch -->
    <title>chart-bg-1</title>
    <desc>Created with Sketch.</desc>
    <defs>
        <linearGradient x1="50%" y1="100%" x2="50%" y2="0%" id="linearGradient-1">
            <stop stop-color="#FFFFFF" stop-opacity="0.05" offset="0%"></stop>
            <stop stop-color="#FFFFFF" stop-opacity="0.1" offset="100%"></stop>
        </linearGradient>
    </defs>
    <g id="Page-1" stroke="none" stroke-width="1" fill="none" fill-rule="evenodd">
        <g id="Artboard-2" transform="translate(0.000000, -60.000000)" fill="url(#linearGradient-1)">
            <g id="Group">
                <path d="M601.008886,229.747778 L718.991114,200.252222 L718.991114,200.252222 C719.656584,200.085854 720.349169,200.058195 721.025787,200.170964 L838.775017,219.795836 L838.775017,219.795836 C839.579451,219.929909 840.404471,219.865176 841.178151,219.607283 L958.618714,180.460429 L958.618714,180.460429 C959.520836,180.159721 960.490003,180.122501 961.412531,180.353133 L1078.02576,209.50644 L1078.02576,209.50644 C1079.29151,209.822877 1080.63081,209.632025 1081.75779,208.974622 L1198.24221,141.025378 L1198.24221,141.025378 C1199.36919,140.367975 1200.70849,140.177123 1201.97424,140.49356 L1318.2056,169.551401 L1318.2056,169.551401 C1319.36352,169.840881 1320.5868,169.706599 1321.65435,169.172825 L1438.34565,110.827175 L1438.34565,110.827175 C1439.4132,110.293401 1440.63648,110.159119 1441.7944,110.448599 L1558.02576,139.50644 L1558.02576,139.50644 C1559.29151,139.822877 1560.63081,139.632025 1561.75779,138.974622 L1678.0458,71.1399521 L1678.0458,71.1399521 C1679.28798,70.4153465 1680.78201,70.2606701 1682.14629,70.7154301 L1798.61871,109.539571 L1798.61871,109.539571 C1799.52084,109.840279 1800.49,109.877499 1801.41253,109.646867 L1918.78732,80.3031695 L1918.78732,80.3031695 C1919.58352,80.1041195 1920.41648,80.1041195 1921.21268,80.3031695 L2038.39314,109.598286 L2038.39314,109.598286 C2039.4365,109.859126 2040.53616,109.7766 2041.5289,109.362958 L2158.27186,60.7200577 L2158.27186,60.7200577 C2159.38618,60.255759 2160.63085,60.2102831 2161.77608,60.5920258 L2278.41886,99.4729537 L2278.41886,99.4729537 C2279.4452,99.8150651 2280.5548,99.8150651 2281.58114,99.4729537 L2398.41886,60.5270463 L2398.41886,60.5270463 C2399.4452,60.1849349 2400.5548,60.1849349 2401.58114,60.5270463 L2518.61871,99.5395713 L2518.61871,99.5395713 C2519.52084,99.8402786 2520.49,99.8774993 2521.41253,99.6468673 L2640,70 L2640,350 L3.13707393e-13,350 L0,220 L119.584773,229.965398 L119.584773,229.965398 C119.861112,229.988426 120.138888,229.988426 120.415227,229.965398 L239.584773,220.034602 L239.584773,220.034602 C239.861112,220.011574 240.138888,220.011574 240.415227,220.034602 L359.378222,229.948185 L359.378222,229.948185 C359.791139,229.982595 360.206733,229.965545 360.615444,229.897426 L479.178005,210.136999 L479.178005,210.136999 C479.722248,210.046292 480.277752,210.046292 480.821995,210.136999 L598.974213,229.829036 L598.974213,229.829036 C599.650831,229.941805 600.343416,229.914146 601.008886,229.747778 Z" id="chart-bg-1"></path>
            </g>
        </g>
    </g>
</svg>