<?xml version="1.0" encoding="UTF-8"?>
<svg width="2640px" height="350px" viewBox="0 0 2640 350" version="1.1" xmlns="http://www.w3.org/2000/svg" xmlns:xlink="http://www.w3.org/1999/xlink">
    <!-- Generator: Sketch 46.1 (44463) - http://www.bohemiancoding.com/sketch -->
    <title>chart-bg-3</title>
    <desc>Created with Sketch.</desc>
    <defs>
        <linearGradient x1="50%" y1="100%" x2="50%" y2="0%" id="linearGradient-1">
            <stop stop-color="#FFFFFF" stop-opacity="0.05" offset="0%"></stop>
            <stop stop-color="#FFFFFF" stop-opacity="0.1" offset="100%"></stop>
        </linearGradient>
    </defs>
    <g id="Page-1" stroke="none" stroke-width="1" fill="none" fill-rule="evenodd">
        <g id="Artboard-2" fill="url(#linearGradient-1)">
            <g id="Group">
                <path d="M601.008886,169.747778 L718.991114,140.252222 L718.991114,140.252222 C719.656584,140.085854 720.349169,140.058195 721.025787,140.170964 L838.775017,159.795836 L838.775017,159.795836 C839.579451,159.929909 840.404471,159.865176 841.178151,159.607283 L958.618714,120.460429 L958.618714,120.460429 C959.520836,120.159721 960.490003,120.122501 961.412531,120.353133 L1078.02576,149.50644 L1078.02576,149.50644 C1079.29151,149.822877 1080.63081,149.632025 1081.75779,148.974622 L1198.24221,81.0253784 L1198.24221,81.0253784 C1199.36919,80.3679747 1200.70849,80.1771227 1201.97424,80.4935604 L1318.2056,109.551401 L1318.2056,109.551401 C1319.36352,109.840881 1320.5868,109.706599 1321.65435,109.172825 L1438.34565,50.8271754 L1438.34565,50.8271754 C1439.4132,50.2934007 1440.63648,50.1591189 1441.7944,50.4485988 L1558.02576,79.5064396 L1558.02576,79.5064396 C1559.29151,79.8228773 1560.63081,79.6320253 1561.75779,78.9746216 L1678.0458,11.1399521 L1678.0458,11.1399521 C1679.28798,10.4153465 1680.78201,10.2606701 1682.14629,10.7154301 L1798.61871,49.5395713 L1798.61871,49.5395713 C1799.52084,49.8402786 1800.49,49.8774993 1801.41253,49.6468673 L1918.78732,20.3031695 L1918.78732,20.3031695 C1919.58352,20.1041195 1920.41648,20.1041195 1921.21268,20.3031695 L2038.39314,49.5982862 L2038.39314,49.5982862 C2039.4365,49.8591259 2040.53616,49.7766004 2041.5289,49.3629583 L2158.27186,0.720057663 L2158.27186,0.720057663 C2159.38618,0.25575905 2160.63085,0.210283094 2161.77608,0.592025788 L2278.41886,39.4729537 L2278.41886,39.4729537 C2279.4452,39.8150651 2280.5548,39.8150651 2281.58114,39.4729537 L2398.41886,0.527046277 L2398.41886,0.527046277 C2399.4452,0.18493493 2400.5548,0.18493493 2401.58114,0.527046277 L2518.61871,39.5395713 L2518.61871,39.5395713 C2519.52084,39.8402786 2520.49,39.8774993 2521.41253,39.6468673 L2640,10 L2640,350 L0,350 L0,160 L119.584773,169.965398 L119.584773,169.965398 C119.861112,169.988426 120.138888,169.988426 120.415227,169.965398 L239.584773,160.034602 L239.584773,160.034602 C239.861112,160.011574 240.138888,160.011574 240.415227,160.034602 L359.378222,169.948185 L359.378222,169.948185 C359.791139,169.982595 360.206733,169.965545 360.615444,169.897426 L479.178005,150.136999 L479.178005,150.136999 C479.722248,150.046292 480.277752,150.046292 480.821995,150.136999 L598.974213,169.829036 L598.974213,169.829036 C599.650831,169.941805 600.343416,169.914146 601.008886,169.747778 Z" id="chart-bg-3"></path>
            </g>
        </g>
    </g>
</svg>