<?xml version="1.0" encoding="UTF-8"?>
<svg width="30px" height="30px" viewBox="0 0 30 30" version="1.1" xmlns="http://www.w3.org/2000/svg" xmlns:xlink="http://www.w3.org/1999/xlink">
    <!-- Generator: Sketch 46.1 (44463) - http://www.bohemiancoding.com/sketch -->
    <title>document-black</title>
    <desc>Created with Sketch.</desc>
    <defs></defs>
    <g id="Page-1" stroke="none" stroke-width="1" fill="none" fill-rule="evenodd">
        <g id="document-black" fill-rule="nonzero" fill="#181920">
            <g id="document" transform="translate(5.000000, 2.000000)">
                <path d="M19.707,6.793 L13.207,0.293 C13.019,0.105 12.765,0 12.5,0 L2,0 C0.895,0 0,0.895 0,2 L0,24 C0,25.105 0.895,26 2,26 L18,26 C19.105,26 20,25.105 20,24 L20,7.5 C20,7.235 19.895,6.981 19.707,6.793 Z M13,19 L5,19 C4.448,19 4,18.552 4,18 C4,17.448 4.448,17 5,17 L13,17 C13.552,17 14,17.448 14,18 C14,18.552 13.552,19 13,19 Z M15,15 L5,15 C4.448,15 4,14.552 4,14 C4,13.448 4.448,13 5,13 L15,13 C15.552,13 16,13.448 16,14 C16,14.552 15.552,15 15,15 Z M13,8 C12.448,8 12,7.552 12,7 L12,1.904 L18.096,8 L13,8 Z" id="Shape"></path>
            </g>
        </g>
    </g>
</svg>