<?xml version="1.0" encoding="UTF-8"?>
<svg width="1160px" height="669px" viewBox="0 0 1160 669" version="1.1" xmlns="http://www.w3.org/2000/svg" xmlns:xlink="http://www.w3.org/1999/xlink">
    <!-- Generator: Sketch 46.1 (44463) - http://www.bohemiancoding.com/sketch -->
    <title>gantte</title>
    <desc>Created with Sketch.</desc>
    <defs>
        <linearGradient x1="50%" y1="100%" x2="50%" y2="0%" id="linearGradient-1">
            <stop stop-color="#FF674C" offset="0%"></stop>
            <stop stop-color="#FFE54C" offset="100%"></stop>
        </linearGradient>
    </defs>
    <g id="Page-1" stroke="none" stroke-width="1" fill="none" fill-rule="evenodd">
        <g id="gantte-ru" transform="translate(-20.000000, -11.000000)">
            <g id="gantte" transform="translate(20.000000, 11.000000)">
                <text id="Разработка-скорингов" font-family="MuseoSansCyrl-500, Museo Sans Cyrl" font-size="16" font-weight="normal" line-spacing="25" fill-opacity="0.75" fill="#FFFFFF">
                    <tspan x="0" y="120">Разработка скоринговой </tspan>
                    <tspan x="0" y="145">модели</tspan>
                </text>
                <text id="Запуск-страхования-р" font-family="MuseoSansCyrl-500, Museo Sans Cyrl" font-size="16" font-weight="normal" line-spacing="25" fill-opacity="0.75" fill="#FFFFFF">
                    <tspan x="0" y="400">Запуск страхования рисков </tspan>
                    <tspan x="0" y="425">инвесторования в ICO</tspan>
                </text>
                <text id="Разработка-платформы" font-family="MuseoSansCyrl-500, Museo Sans Cyrl" font-size="16" font-weight="normal" line-spacing="25" fill-opacity="0.75" fill="#FFFFFF">
                    <tspan x="0" y="260">Разработка платформы</tspan>
                    <tspan x="0" y="285">по страхованию в ICO</tspan>
                </text>
                <text id="Интеграция-с-опционн" font-family="MuseoSansCyrl-500, Museo Sans Cyrl" font-size="16" font-weight="normal" line-spacing="25" fill-opacity="0.75" fill="#FFFFFF">
                    <tspan x="0" y="540">Интеграция с опционными </tspan>
                    <tspan x="0" y="565">крипто-биржами</tspan>
                </text>
                <text id="Тестирование-скоринг" font-family="MuseoSansCyrl-500, Museo Sans Cyrl" font-size="16" font-weight="normal" line-spacing="25" fill-opacity="0.75" fill="#FFFFFF">
                    <tspan x="0" y="190">Тестирование </tspan>
                    <tspan x="0" y="215">скоринговой модели</tspan>
                </text>
                <text id="Разработка-платформы" font-family="MuseoSansCyrl-500, Museo Sans Cyrl" font-size="16" font-weight="normal" line-spacing="25" fill-opacity="0.75" fill="#FFFFFF">
                    <tspan x="0" y="470">Разработка платформы </tspan>
                    <tspan x="0" y="495">страхования котировок</tspan>
                </text>
                <text id="Запуск-бета-версии-п" font-family="MuseoSansCyrl-500, Museo Sans Cyrl" font-size="16" font-weight="normal" line-spacing="25" fill-opacity="0.75" fill="#FFFFFF">
                    <tspan x="0" y="330">Запуск бета-версии </tspan>
                    <tspan x="0" y="355">платформы</tspan>
                </text>
                <text id="Запуск-страхования-к" font-family="MuseoSansCyrl-500, Museo Sans Cyrl" font-size="16" font-weight="normal" line-spacing="25" fill-opacity="0.75" fill="#FFFFFF">
                    <tspan x="0" y="610">Запуск страхования </tspan>
                    <tspan x="0" y="635">котировок</tspan>
                </text>
                <text id="Этапы-запуска" opacity="0.900000036" font-family="MuseoSansCyrl-500, Museo Sans Cyrl" font-size="26" font-weight="normal" line-spacing="30" fill="#FFFFFF">
                    <tspan x="0" y="34">Этапы запуска</tspan>
                </text>
                <path d="M305,0 L1155,0 L1155,8.8817842e-16 C1157.76142,3.80913106e-16 1160,2.23857625 1160,5 L1160,49 L300,49 L300,5 L300,5 C300,2.23857625 302.238576,1.39544373e-15 305,8.8817842e-16 Z" id="table-head" fill-opacity="0.1" fill="#FFFFFF"></path>
                <text id="2017" font-family="MuseoSansCyrl-500, Museo Sans Cyrl" font-size="26" font-weight="normal" line-spacing="30" fill="#FFFFFF">
                    <tspan x="328" y="34">2017</tspan>
                </text>
                <text id="2018" font-family="MuseoSansCyrl-500, Museo Sans Cyrl" font-size="26" font-weight="normal" line-spacing="30" fill="#FFFFFF">
                    <tspan x="758" y="34">2018</tspan>
                </text>
                <g id="months" transform="translate(1010.500000, 58.000000)"></g>
                <path d="M300.5,49.5 L300.5,664 C300.5,666.485281 302.514719,668.5 305,668.5 L1155,668.5 C1157.48528,668.5 1159.5,666.485281 1159.5,664 L1159.5,49.5 L300.5,49.5 Z" id="table" stroke-opacity="0.1" stroke="#FFFFFF"></path>
                <g id="grid" transform="translate(329.000000, 50.500000)">
                    <path d="M57,0 L57,617" id="Line-4" stroke-opacity="0.1" stroke="#FFFFFF" stroke-linecap="square"></path>
                    <path d="M143,0 L143,617" id="Line-4" stroke-opacity="0.1" stroke="#FFFFFF" stroke-linecap="square"></path>
                    <path d="M229,0 L229,617" id="Line-4" stroke-opacity="0.1" stroke="#FFFFFF" stroke-linecap="square"></path>
                    <path d="M315,0 L315,617" id="Line-4" stroke-opacity="0.1" stroke="#FFFFFF" stroke-linecap="square"></path>
                    <path d="M401,0 L401,617" id="Line-4" stroke-opacity="0.1" stroke="#FFFFFF" stroke-linecap="square"></path>
                    <path d="M487,0 L487,617" id="Line-4" stroke-opacity="0.1" stroke="#FFFFFF" stroke-linecap="square"></path>
                    <path d="M573,0 L573,617" id="Line-4" stroke-opacity="0.1" stroke="#FFFFFF" stroke-linecap="square"></path>
                    <path d="M659,0 L659,617" id="Line-4" stroke-opacity="0.1" stroke="#FFFFFF" stroke-linecap="square"></path>
                    <path d="M745,0 L745,617" id="Line-4" stroke-opacity="0.1" stroke="#FFFFFF" stroke-linecap="square"></path>
                    <text id="Авг" font-family="MuseoSansCyrl-500, Museo Sans Cyrl" font-size="16" font-weight="normal" line-spacing="20" fill-opacity="0.75" fill="#FFFFFF">
                        <tspan x="0.908" y="23.5">Авг</tspan>
                    </text>
                    <text id="Сен" font-family="MuseoSansCyrl-500, Museo Sans Cyrl" font-size="16" font-weight="normal" line-spacing="20" fill-opacity="0.75" fill="#FFFFFF">
                        <tspan x="85.088" y="23.5">Сен</tspan>
                    </text>
                    <text id="Окт" font-family="MuseoSansCyrl-500, Museo Sans Cyrl" font-size="16" font-weight="normal" line-spacing="20" fill-opacity="0.75" fill="#FFFFFF">
                        <tspan x="171.368" y="23.5">Окт</tspan>
                    </text>
                    <text id="Ноя" font-family="MuseoSansCyrl-500, Museo Sans Cyrl" font-size="16" font-weight="normal" line-spacing="20" fill-opacity="0.75" fill="#FFFFFF">
                        <tspan x="256.952" y="23.5">Ноя</tspan>
                    </text>
                    <text id="Дек" font-family="MuseoSansCyrl-500, Museo Sans Cyrl" font-size="16" font-weight="normal" line-spacing="20" fill-opacity="0.75" fill="#FFFFFF">
                        <tspan x="343.72" y="23.5">Дек</tspan>
                    </text>
                    <text id="Янв" font-family="MuseoSansCyrl-500, Museo Sans Cyrl" font-size="16" font-weight="normal" line-spacing="20" fill-opacity="0.75" fill="#FFFFFF">
                        <tspan x="430.112" y="23.5">Янв</tspan>
                    </text>
                    <text id="Фев" font-family="MuseoSansCyrl-500, Museo Sans Cyrl" font-size="16" font-weight="normal" line-spacing="20" fill-opacity="0.75" fill="#FFFFFF">
                        <tspan x="514.728" y="23.5">Фев</tspan>
                    </text>
                    <text id="Мар" font-family="MuseoSansCyrl-500, Museo Sans Cyrl" font-size="16" font-weight="normal" line-spacing="20" fill-opacity="0.75" fill="#FFFFFF">
                        <tspan x="600.176" y="23.5">Мар</tspan>
                    </text>
                    <text id="Апр" font-family="MuseoSansCyrl-500, Museo Sans Cyrl" font-size="16" font-weight="normal" line-spacing="20" fill-opacity="0.75" fill="#FFFFFF">
                        <tspan x="687.328" y="23.5">Апр</tspan>
                    </text>
                    <text id="Май" font-family="MuseoSansCyrl-500, Museo Sans Cyrl" font-size="16" font-weight="normal" line-spacing="20" fill-opacity="0.75" fill="#FFFFFF">
                        <tspan x="772.7" y="23.5">Май</tspan>
                    </text>
                </g>
                <g id="chart" transform="translate(321.000000, 104.000000)">
                    <path d="M25,0 L191,0 L191,2.84217094e-14 C204.807119,1.3622198e-14 216,11.1928813 216,25 L216,25 L216,25 C216,38.8071187 204.807119,50 191,50 L25,50 L25,50 C11.1928813,50 1.69088438e-15,38.8071187 0,25 L0,25 L0,25 C-1.69088438e-15,11.1928813 11.1928813,2.53632657e-15 25,0 Z M542,350 L706,350 C720.359403,350 732,361.640597 732,376 C732,390.359403 720.359403,402 706,402 L542,402 C527.640597,402 516,390.359403 516,376 C516,361.640597 527.640597,350 542,350 Z M25,140 L363,140 L363,140 C376.807119,140 388,151.192881 388,165 L388,165 C388,178.807119 376.807119,190 363,190 L25,190 C11.1928813,190 2.62172542e-14,178.807119 0,165 L-3.36536354e-16,165 L0,165 C-2.62172542e-14,151.192881 11.1928813,140 25,140 L25,140 Z M197,70 L277,70 C290.807119,70 302,81.1928813 302,95 L302,95 C302,108.807119 290.807119,120 277,120 L197,120 L197,120 C183.192881,120 172,108.807119 172,95 C172,81.1928813 183.192881,70 197,70 Z M628,422 L706,422 C720.359403,422 732,433.640597 732,448 C732,462.359403 720.359403,474 706,474 L628,474 C613.640597,474 602,462.359403 602,448 C602,433.640597 613.640597,422 628,422 Z M409,210 C422.807119,210 434,221.192881 434,235 C434,248.807119 422.807119,260 409,260 C395.192881,260 384,248.807119 384,235 C384,221.192881 395.192881,210 409,210 Z M495,280 C508.807119,280 520,291.192881 520,305 C520,318.807119 508.807119,330 495,330 C481.192881,330 470,318.807119 470,305 C470,291.192881 481.192881,280 495,280 Z M753,494 C766.807119,494 778,505.192881 778,519 C778,532.807119 766.807119,544 753,544 C739.192881,544 728,532.807119 728,519 C728,505.192881 739.192881,494 753,494 Z" id="Combined-Shape" fill="url(#linearGradient-1)"></path>
                    <g id="rocket" transform="translate(739.000000, 508.000000)" fill-rule="nonzero" fill="#FFFFFF">
                        <polygon id="Shape" points="8 19 5 16 5 11 13 19"></polygon>
                        <path d="M23.979,0.021 C23.979,0.021 15,1.35308431e-16 8,7 C5.01,9.99 5,15 7,17 C9,19 14.01,18.99 17,16 C24,9 23.979,0.021 23.979,0.021 Z M14,8 C14,6.895 14.895,6 16,6 C17.105,6 18,6.895 18,8 C18,9.105 17.105,10 16,10 C14.895,10 14,9.105 14,8 Z" id="Shape"></path>
                        <path d="M15.811,15.676 C15.811,15.676 16.568,19.46 15.054,20.973 C12.784,23.243 9,24 9,24 L10,17 L15.811,15.676 Z" id="Shape"></path>
                        <path d="M8.324,8.189 C8.324,8.189 4.54,7.432 3.027,8.946 C0.757,11.216 0,15 0,15 L7,14 L8.324,8.189 Z" id="Shape"></path>
                        <path d="M6.542,19.34 C6.497,19.404 6.47,19.478 6.412,19.535 C5.437,20.51 3.974,20.023 3.974,20.023 C3.974,20.023 3.486,18.56 4.462,17.585 C4.52,17.527 4.593,17.501 4.657,17.455 L4.2,16.997 C3.82,17.097 3.459,17.287 3.162,17.584 C1.796,18.95 2.013,21.984 2.013,21.984 C2.013,21.984 5.029,22.219 6.413,20.835 C6.71,20.538 6.9,20.177 7,19.797 L6.542,19.34 Z" id="Shape"></path>
                    </g>
                    <g id="rocket" transform="translate(481.000000, 294.000000)" fill-rule="nonzero" fill="#FFFFFF">
                        <polygon id="Shape" points="8 19 5 16 5 11 13 19"></polygon>
                        <path d="M23.979,0.021 C23.979,0.021 15,1.35308431e-16 8,7 C5.01,9.99 5,15 7,17 C9,19 14.01,18.99 17,16 C24,9 23.979,0.021 23.979,0.021 Z M14,8 C14,6.895 14.895,6 16,6 C17.105,6 18,6.895 18,8 C18,9.105 17.105,10 16,10 C14.895,10 14,9.105 14,8 Z" id="Shape"></path>
                        <path d="M15.811,15.676 C15.811,15.676 16.568,19.46 15.054,20.973 C12.784,23.243 9,24 9,24 L10,17 L15.811,15.676 Z" id="Shape"></path>
                        <path d="M8.324,8.189 C8.324,8.189 4.54,7.432 3.027,8.946 C0.757,11.216 0,15 0,15 L7,14 L8.324,8.189 Z" id="Shape"></path>
                        <path d="M6.542,19.34 C6.497,19.404 6.47,19.478 6.412,19.535 C5.437,20.51 3.974,20.023 3.974,20.023 C3.974,20.023 3.486,18.56 4.462,17.585 C4.52,17.527 4.593,17.501 4.657,17.455 L4.2,16.997 C3.82,17.097 3.459,17.287 3.162,17.584 C1.796,18.95 2.013,21.984 2.013,21.984 C2.013,21.984 5.029,22.219 6.413,20.835 C6.71,20.538 6.9,20.177 7,19.797 L6.542,19.34 Z" id="Shape"></path>
                    </g>
                    <g id="rocket" transform="translate(395.000000, 224.000000)" fill-rule="nonzero" fill="#FFFFFF">
                        <polygon id="Shape" points="8 19 5 16 5 11 13 19"></polygon>
                        <path d="M23.979,0.021 C23.979,0.021 15,1.35308431e-16 8,7 C5.01,9.99 5,15 7,17 C9,19 14.01,18.99 17,16 C24,9 23.979,0.021 23.979,0.021 Z M14,8 C14,6.895 14.895,6 16,6 C17.105,6 18,6.895 18,8 C18,9.105 17.105,10 16,10 C14.895,10 14,9.105 14,8 Z" id="Shape"></path>
                        <path d="M15.811,15.676 C15.811,15.676 16.568,19.46 15.054,20.973 C12.784,23.243 9,24 9,24 L10,17 L15.811,15.676 Z" id="Shape"></path>
                        <path d="M8.324,8.189 C8.324,8.189 4.54,7.432 3.027,8.946 C0.757,11.216 0,15 0,15 L7,14 L8.324,8.189 Z" id="Shape"></path>
                        <path d="M6.542,19.34 C6.497,19.404 6.47,19.478 6.412,19.535 C5.437,20.51 3.974,20.023 3.974,20.023 C3.974,20.023 3.486,18.56 4.462,17.585 C4.52,17.527 4.593,17.501 4.657,17.455 L4.2,16.997 C3.82,17.097 3.459,17.287 3.162,17.584 C1.796,18.95 2.013,21.984 2.013,21.984 C2.013,21.984 5.029,22.219 6.413,20.835 C6.71,20.538 6.9,20.177 7,19.797 L6.542,19.34 Z" id="Shape"></path>
                    </g>
                </g>
            </g>
        </g>
    </g>
</svg>