<?xml version="1.0" encoding="UTF-8"?>
<svg width="30px" height="30px" viewBox="0 0 30 30" version="1.1" xmlns="http://www.w3.org/2000/svg" xmlns:xlink="http://www.w3.org/1999/xlink">
    <!-- Generator: Sketch 46.1 (44463) - http://www.bohemiancoding.com/sketch -->
    <title>germany-flag</title>
    <desc>Created with Sketch.</desc>
    <defs></defs>
    <g id="Page-1" stroke="none" stroke-width="1" fill="none" fill-rule="evenodd">
        <g id="germany-flag" fill-rule="nonzero">
            <g id="rus-flag" transform="translate(3.000000, 6.000000)">
                <path d="M2,0 L22,0 L22,0 C23.1045695,-2.02906125e-16 24,0.8954305 24,2 L24,6 L0,6 L0,2 L0,2 C-1.3527075e-16,0.8954305 0.8954305,2.02906125e-16 2,0 Z" id="Rectangle-4" fill="#181920"></path>
                <rect id="Rectangle-4-Copy" fill="#FF674C" x="0" y="6" width="24" height="6"></rect>
                <path d="M0,12 L24,12 L24,16 L24,16 C24,17.1045695 23.1045695,18 22,18 L2,18 L2,18 C0.8954305,18 1.3527075e-16,17.1045695 0,16 L0,12 Z" id="Rectangle-4-Copy-2" fill="#FFC84C"></path>
            </g>
        </g>
    </g>
</svg>