<?xml version="1.0" encoding="UTF-8"?>
<svg width="30px" height="30px" viewBox="0 0 30 30" version="1.1" xmlns="http://www.w3.org/2000/svg" xmlns:xlink="http://www.w3.org/1999/xlink">
    <!-- Generator: Sketch 46.1 (44463) - http://www.bohemiancoding.com/sketch -->
    <title>reddit-white</title>
    <desc>Created with Sketch.</desc>
    <defs></defs>
    <g id="Page-1" stroke="none" stroke-width="1" fill="none" fill-rule="evenodd">
        <g id="reddit-white" fill-rule="nonzero" fill="#FFFFFF">
            <g id="34103" transform="translate(2.000000, 4.000000)">
                <path d="M25.9416659,9.96685556 L25.9416659,9.96917778 C25.9456473,10.0266222 25.9467332,10.0839444 25.9467332,10.1409 C25.9467332,10.7793278 25.7445847,11.39325 25.4073689,11.9141 C25.092594,12.4015222 24.6584965,12.8093167 24.158464,13.0860278 C24.1905568,13.3401278 24.2091369,13.5962444 24.2091369,13.8515056 C24.2085336,15.2262 23.7406543,16.5774889 22.9259072,17.6605 L22.9259072,17.66105 L22.9242181,17.66105 C21.4179675,19.6909167 19.1048724,20.8879611 16.7692158,21.4917389 L16.7686125,21.4917389 L16.7669838,21.4931444 C15.5214571,21.7994944 14.2370812,21.956 12.9530673,21.956 C11.0390209,21.956 9.1264826,21.6063222 7.34177262,20.8813611 L7.3412297,20.87965 L7.3395406,20.87965 C5.48925754,20.1070222 3.7262645,18.8789333 2.64512297,17.0795167 C2.063471,16.1194611 1.74417169,14.9931222 1.74417169,13.8614667 C1.74417169,13.6054111 1.76124362,13.3489278 1.79502552,13.0953778 C1.30808353,12.8176278 0.886352668,12.4237667 0.573146172,11.9533944 C0.238825986,11.44825 0.0268445476,10.85645 6.03248259e-05,10.2308556 L6.03248259e-05,10.2284111 L6.03248259e-05,10.22615 L6.03248259e-05,10.2211389 C0.00060324826,9.34498889 0.376306265,8.51503889 0.96012993,7.90307222 C1.54389327,7.29128889 2.34132715,6.89143889 3.19667285,6.89143889 C3.20849652,6.89143889 3.22032019,6.89143889 3.23214385,6.89143889 C3.32184687,6.88526667 3.41233411,6.88172222 3.50288167,6.88172222 C3.93251508,6.88172222 4.36311369,6.95218333 4.77205568,7.11101111 L4.7742877,7.11272222 L4.77658005,7.11345556 C5.12567981,7.26238333 5.47254756,7.44205 5.7817123,7.69089444 C5.88191183,7.63766667 5.99116009,7.57777778 6.11374014,7.53047778 C7.98767053,6.40633889 10.165819,5.97269444 12.2884687,5.8476 C12.3069281,4.78237222 12.4361439,3.66715556 12.9489652,2.69121111 C13.376065,1.88032778 14.1173968,1.24905 15.0000093,1.03027222 L15.0036891,1.02843889 L15.0084548,1.02788889 C15.344645,0.962011111 15.6836102,0.931638889 16.0203434,0.931638889 C16.9173132,0.931638889 17.8036056,1.14681111 18.6330116,1.48267778 C19.0001485,0.921372222 19.5243712,0.483266667 20.1393225,0.237538889 L20.1452343,0.234116667 L20.1511462,0.231855556 C20.5120696,0.117944444 20.8933225,0.0513333333 21.2759629,0.0513333333 C21.6796566,0.0513333333 22.0865476,0.126072222 22.4677401,0.298588889 L22.4677401,0.297183333 C22.4682831,0.298588889 22.4688863,0.298588889 22.4688863,0.298588889 C22.4717216,0.299566667 22.4739536,0.301277778 22.475884,0.301277778 C23.0223666,0.514494444 23.4849374,0.908538889 23.8129234,1.39822222 C24.1412111,1.89004444 24.3343712,2.47915556 24.3343712,3.08482778 C24.3343712,3.19647778 24.3281578,3.30831111 24.3152483,3.42026667 L24.3141021,3.42252778 C24.3141021,3.42423889 24.3141021,3.42668333 24.3134988,3.42839444 C24.2493735,4.21116667 23.8579861,4.89793333 23.3039026,5.3878 C22.7465012,5.87962222 22.024594,6.17668333 21.2836241,6.17668333 C21.1647842,6.17668333 21.0448585,6.16996111 20.9254756,6.15382778 C20.1905986,6.09693333 19.5053689,5.73668333 19.0019582,5.2008 C18.4968585,4.66577222 18.171406,3.95089444 18.171406,3.17924444 C18.171406,3.14190556 18.1747842,3.10365 18.1758701,3.06661667 C17.4860557,2.75543889 16.7535313,2.49730556 16.0255313,2.49791667 C15.9202042,2.49791667 15.8149374,2.50378333 15.7096102,2.5146 L15.708464,2.5146 C15.1634292,2.56782778 14.6566404,2.91585556 14.4111183,3.41641667 L14.4111183,3.41696667 L14.4111183,3.41867778 C14.0383712,4.15408889 13.964051,5.01373889 13.9527703,5.86703333 C16.0423619,6.00508333 18.1443202,6.51303889 19.9878469,7.58657778 L19.9906821,7.58657778 L20.0171044,7.60240556 C20.0520325,7.62336667 20.116761,7.6593 20.1753364,7.69095556 C20.3020789,7.58682222 20.4360603,7.47975556 20.5889234,7.38747778 C21.1477726,7.01042222 21.8099582,6.82293333 22.4724455,6.82293333 C22.766348,6.82293333 23.0605522,6.86088333 23.3460093,6.93501111 L23.3471555,6.93501111 L23.3589791,6.93855556 C23.3632019,6.93916667 23.3662784,6.94057222 23.3697169,6.94057222 L23.3697169,6.94112222 C24.0443295,7.11498333 24.6546357,7.50743889 25.1141299,8.03666111 C25.5733225,8.56673889 25.8821253,9.23737222 25.9423898,9.96538889 L25.9423898,9.96691667 L25.9416659,9.96691667 L25.9416659,9.96685556 Z M17.5140464,16.2157722 C17.3812111,16.1285056 17.2274432,16.0757667 17.0647471,16.0757667 C16.9335406,16.0757667 16.7972668,16.1137167 16.6759536,16.1952389 C15.5295406,16.8883611 14.1812204,17.2682278 12.8424919,17.2682278 C11.8380835,17.2682278 10.839768,17.0534833 9.93531787,16.6034 L9.93067285,16.6011389 L9.92614849,16.5994278 C9.78975406,16.5429611 9.63435731,16.4228778 9.46484455,16.3085389 C9.3787007,16.2520111 9.28875638,16.19585 9.18891879,16.1544778 C9.09040835,16.1120056 8.98097912,16.0823056 8.86400928,16.0823056 C8.76718794,16.0823056 8.66541995,16.1042444 8.56497912,16.1504444 C8.55979118,16.1524611 8.55484455,16.1544167 8.54977726,16.1564333 L8.55032019,16.1564333 C8.39251044,16.2174833 8.2692065,16.3293167 8.18993968,16.4616222 C8.10717401,16.5979 8.06651508,16.7565444 8.06651508,16.9145167 C8.06651508,17.05715 8.09975406,17.1997222 8.16852436,17.3292167 C8.2339768,17.4518667 8.33465893,17.5591167 8.46640835,17.6309833 C9.75910905,18.5142833 11.2812854,18.9144389 12.8093132,18.9130333 C14.1870116,18.9130333 15.5730348,18.5899389 16.8070394,18.0018056 L16.8134942,17.9978333 L16.8197077,17.9944111 C16.9824037,17.8968167 17.1986682,17.8093056 17.4025058,17.6818278 C17.5033086,17.6168056 17.601819,17.5415167 17.6862738,17.4436778 C17.7707285,17.34645 17.838594,17.2266722 17.8769002,17.08465 L17.8769002,17.0840389 C17.8929466,17.0213389 17.9005476,16.9602889 17.9005476,16.8992389 C17.9005476,16.7831889 17.8723759,16.6730667 17.8256845,16.5741278 C17.7572761,16.4251389 17.6452529,16.3031 17.5140464,16.2157722 Z M19.7866636,3.03923889 C19.7866636,3.0679 19.7872668,3.09729444 19.7901021,3.12723889 L19.7901021,3.12895 L19.7901021,3.13237222 C19.8036148,3.50013889 19.9749977,3.84242222 20.2354803,4.09523889 C20.49729,4.34823889 20.844761,4.50480556 21.1971787,4.50621111 L21.2020046,4.50621111 L21.2067703,4.50621111 C21.2321067,4.50822778 21.2580464,4.50822778 21.2827796,4.50822778 C21.6386357,4.50877778 21.9917169,4.35349444 22.2569049,4.10153333 C22.5226357,3.84828889 22.697819,3.50386667 22.7118747,3.13298333 L22.7124176,3.13127222 L22.7124176,3.12901111 C22.71471,3.10065556 22.7158561,3.07382778 22.7158561,3.04486111 C22.7158561,2.6631 22.539587,2.29918333 22.2636613,2.02968333 C21.9888817,1.76042778 21.6189095,1.59359444 21.2541253,1.59457222 C21.1364316,1.59457222 21.0198237,1.61082778 20.9055684,1.64676111 L20.9016473,1.64706667 L20.8982691,1.64847222 C20.5976102,1.72761111 20.3157726,1.91540556 20.1133225,2.1648 C19.9099675,2.41303333 19.7866636,2.71993333 19.7866636,3.03923889 Z M8.43793503,14.09155 C8.44016705,14.09155 8.44312297,14.0924056 8.44565661,14.0938111 C8.61064501,14.1548611 8.7807007,14.18505 8.94906729,14.18505 C9.36910905,14.18505 9.77732715,14.0107611 10.0863712,13.7267167 C10.3949327,13.4418167 10.6062506,13.0387889 10.6062506,12.5793556 C10.6062506,12.5673778 10.6062506,12.5554 10.6057077,12.5411611 C10.6068538,12.5206278 10.6073968,12.4980778 10.6073968,12.4749778 C10.6073968,12.0192111 10.3989142,11.6145333 10.0933086,11.3284111 C9.78655684,11.0420444 9.37930394,10.8669611 8.95769374,10.8669611 C8.84506729,10.8669611 8.73032947,10.8803444 8.61818561,10.9068667 C8.61649652,10.9068667 8.6152297,10.9074167 8.6135406,10.9074167 C8.6135406,10.9074167 8.61239443,10.9074167 8.61185151,10.9074167 C8.05372622,11.0257889 7.56382831,11.4453778 7.3830348,12.0225722 L7.3830348,12.0231833 C7.3830348,12.0243444 7.38249188,12.0254444 7.38249188,12.0254444 C7.3305522,12.1834778 7.30636195,12.3465833 7.30636195,12.5079778 C7.30636195,12.8616278 7.42176334,13.2062333 7.62071462,13.4896667 C7.81791647,13.7683333 8.09691879,13.9874167 8.43196288,14.0897167 C8.43437587,14.0898389 8.43552204,14.09045 8.43793503,14.09155 Z M18.5512715,11.9815667 L18.5512715,11.9816278 L18.5528399,11.9816278 C18.5517541,11.9799778 18.5506079,11.9787556 18.5506079,11.9764944 C18.549522,11.9744778 18.549522,11.9724611 18.5483759,11.9702 C18.4352065,11.6290778 18.2094107,11.3543833 17.9312529,11.1670167 C17.6497169,10.9765333 17.315819,10.8724 16.9768538,10.8724 C16.7907517,10.8724 16.6026589,10.9058278 16.4244594,10.9725611 C16.4230116,10.9725611 16.4230116,10.9742111 16.4213828,10.9742111 C16.4213828,10.9742111 16.4202367,10.9748222 16.4190905,10.9748222 C16.1040742,11.0861056 15.8349049,11.3022556 15.6440371,11.5743833 C15.4525661,11.8482222 15.3365615,12.1796278 15.3365615,12.5247222 C15.3365615,12.6262278 15.3478422,12.7288333 15.3698005,12.8315611 L15.3686543,12.8315611 C15.3698005,12.8332111 15.3698005,12.8343722 15.3698005,12.8355333 C15.3703434,12.8371833 15.3703434,12.8385889 15.3703434,12.83975 L15.3709466,12.83975 C15.4407425,13.2382556 15.6632204,13.5742444 15.957123,13.8080556 C16.2533179,14.0428444 16.6238329,14.1805889 17.0011044,14.1805889 C17.162051,14.1805889 17.3242645,14.1549222 17.4824965,14.1001667 C17.4835824,14.1001667 17.4858747,14.0990056 17.4872622,14.0990056 C17.4886497,14.0979056 17.4914849,14.0979056 17.4943202,14.0967444 L17.4937169,14.0967444 C17.8315963,14.0008611 18.1188028,13.783 18.3214942,13.5023167 C18.526478,13.2182722 18.6486357,12.8703056 18.6486357,12.5120722 C18.6486357,12.3341167 18.618232,12.155 18.5512715,11.9815667 Z" id="reddit"></path>
            </g>
        </g>
    </g>
</svg>