<?xml version="1.0" encoding="UTF-8"?>
<svg width="960px" height="750px" viewBox="0 0 960 750" version="1.1" xmlns="http://www.w3.org/2000/svg" xmlns:xlink="http://www.w3.org/1999/xlink">
    <!-- Generator: Sketch 46.1 (44463) - http://www.bohemiancoding.com/sketch -->
    <title>scheme-1</title>
    <desc>Created with Sketch.</desc>
    <defs></defs>
    <g id="Main" stroke="none" stroke-width="1" fill="none" fill-rule="evenodd">
        <g id="scheme-1">
            <g id="Group">
                <g id="Group-4" transform="translate(0.000000, 200.000000)">
                    <rect id="Rectangle-4" stroke="#F6F6F9" stroke-width="8" x="4" y="4" width="712" height="432" rx="10"></rect>
                    <path d="M62.752,66 L62.752,43.28 L70.496,43.28 C77.504,43.28 82.08,47.44 82.08,54.608 C82.08,61.776 77.504,66 70.496,66 L62.752,66 Z M66.88,62.448 L70.272,62.448 C74.88,62.448 77.824,59.728 77.824,54.608 C77.824,49.552 74.816,46.832 70.272,46.832 L66.88,46.832 L66.88,62.448 Z M84.768,57.84 C84.768,52.816 88.192,49.296 93.088,49.296 C97.76,49.296 100.32,52.72 100.32,57.04 C100.32,57.552 100.256,58.096 100.192,58.608 L88.96,58.608 C89.216,61.456 91.392,62.928 93.856,62.928 C95.52,62.928 97.216,62.192 98.528,61.136 L100.128,64.048 C98.464,65.52 95.904,66.384 93.568,66.384 C88.16,66.384 84.768,62.48 84.768,57.84 Z M89.056,55.824 L96.256,55.824 C96.224,53.648 94.816,52.368 92.992,52.368 C90.912,52.368 89.44,53.744 89.056,55.824 Z M104.032,66 L108.16,66 L108.16,56.464 L118.56,56.464 L118.56,66 L122.656,66 L122.656,43.28 L118.56,43.28 L118.56,52.912 L108.16,52.912 L108.16,43.28 L104.032,43.28 L104.032,66 Z M126.272,57.84 C126.272,52.816 129.696,49.296 134.592,49.296 C139.264,49.296 141.824,52.72 141.824,57.04 C141.824,57.552 141.76,58.096 141.696,58.608 L130.464,58.608 C130.72,61.456 132.896,62.928 135.36,62.928 C137.024,62.928 138.72,62.192 140.032,61.136 L141.632,64.048 C139.968,65.52 137.408,66.384 135.072,66.384 C129.664,66.384 126.272,62.48 126.272,57.84 Z M130.56,55.824 L137.76,55.824 C137.728,53.648 136.32,52.368 134.496,52.368 C132.416,52.368 130.944,53.744 130.56,55.824 Z M156.116641,64.3574664 L156.672,64.7184099 L156.672,64.592 C156.672,63.984 156.736,63.568 156.736,63.568 L156.672,63.568 C156.511328,63.8464975 156.325558,64.1106531 156.116641,64.3574664 Z M156.672,64.7184099 L156.116641,64.3574664 C155.077291,65.5853427 153.465032,66.384 151.52,66.384 C147.136,66.384 144.288,62.896 144.288,57.84 C144.288,52.656 147.36,49.296 151.68,49.296 C153.504,49.296 155.392,49.968 156.448,51.44 L156.512,51.44 C156.512,51.44 156.448,51.024 156.448,50.48 L156.448,43.28 L160.48,43.28 L160.48,66 L156.672,66 L156.672,64.7184099 Z M148.384,57.84 C148.384,60.944 150.048,62.96 152.448,62.96 C154.56,62.96 156.544,61.424 156.544,57.808 C156.544,55.28 155.232,52.784 152.48,52.784 C150.272,52.784 148.384,54.608 148.384,57.84 Z M175.327821,64.0664336 L175.84,64.3801958 L175.84,64.272 C175.84,63.888 175.904,63.408 175.904,63.408 L175.84,63.408 C175.68256,63.64416 175.51221,63.8639672 175.327821,64.0664336 Z M175.84,64.3801958 L175.327821,64.0664336 C174.387885,65.0985185 173.083136,65.68 171.264,65.68 C166.592,65.68 163.968,61.904 163.968,57.424 C163.968,52.944 166.464,49.296 171.168,49.296 C172.992,49.296 174.944,49.936 176.032,51.44 L176.128,51.44 C176.128,51.44 176.064,51.248 176.064,50.992 L176.064,49.68 L179.904,49.68 L179.904,65.008 C179.904,70.608 175.552,72.72 171.296,72.72 C169.248,72.72 167.072,72.144 165.472,71.312 L166.72,68.208 C168.032,68.848 169.632,69.264 171.232,69.264 C173.728,69.264 175.84,68.208 175.84,65.296 L175.84,64.3801958 Z M168.064,57.296 C168.064,60.144 169.504,62.256 172.16,62.256 C174.08,62.256 175.936,61.136 175.936,57.456 C175.936,53.744 174.08,52.752 171.904,52.752 C169.44,52.752 168.064,54.544 168.064,57.296 Z M183.264,57.84 C183.264,52.816 186.688,49.296 191.584,49.296 C196.256,49.296 198.816,52.72 198.816,57.04 C198.816,57.552 198.752,58.096 198.688,58.608 L187.456,58.608 C187.712,61.456 189.888,62.928 192.352,62.928 C194.016,62.928 195.712,62.192 197.024,61.136 L198.624,64.048 C196.96,65.52 194.4,66.384 192.064,66.384 C186.656,66.384 183.264,62.48 183.264,57.84 Z M187.552,55.824 L194.752,55.824 C194.72,53.648 193.312,52.368 191.488,52.368 C189.408,52.368 187.936,53.744 187.552,55.824 Z" id="DeHedge" fill="#303498"></path>
                    <g id="Group-Copy" transform="translate(60.000000, 110.000000)" fill="#181920" opacity="0.5">
                        <g id="Group-3">
                            <path d="M1.86,24 L3.84,24 L3.84,17.8 L11.18,17.8 L11.18,24 L13.14,24 L13.14,9.88 L11.18,9.88 L11.18,16.08 L3.84,16.08 L3.84,9.88 L1.86,9.88 L1.86,24 Z M15.52,21.24 C15.52,18.06 19.46,17.7 21.56,17.7 L22.08,17.7 L22.08,17.5 C22.08,15.84 21.12,15.28 19.86,15.28 C18.86,15.28 17.84,15.68 17.02,16.26 L16.24,14.84 C17.06,14.16 18.6,13.64 20.02,13.64 C22.56,13.64 24.02,15.04 24.02,17.6 L24.02,24 L22.2,24 L22.2,22.98 C22.2,22.52 22.26,22.18 22.26,22.18 L22.22,22.18 C21.64,23.34 20.4,24.24 18.9,24.24 C17.14,24.24 15.52,23.14 15.52,21.24 Z M17.46,21.08 C17.46,21.88 18.1,22.7 19.36,22.7 C21.06,22.7 22.08,20.98 22.08,19.48 L22.08,19.1 L21.58,19.1 C20.14,19.1 17.46,19.22 17.46,21.08 Z M25.9,22.76 C26.74,23.56 28.06,24.24 29.62,24.24 C31.7,24.24 33.5,23.18 33.5,21.1 C33.5,19.8 32.7,19.04 31.68,18.72 L31.68,18.68 C32.48,18.34 33.16,17.64 33.16,16.38 C33.16,14.58 31.66,13.64 29.74,13.64 C28.14,13.64 27,14.16 26.22,14.74 L26.94,16.04 C27.72,15.46 28.52,15.16 29.4,15.16 C30.52,15.16 31.2,15.68 31.2,16.62 C31.2,17.64 30.42,18.08 29.28,18.08 L28.22,18.08 L28.22,19.48 L29.46,19.48 C30.88,19.48 31.54,20.04 31.54,21.02 C31.54,22.12 30.6,22.68 29.44,22.68 C28.22,22.68 27.26,21.96 26.8,21.48 L25.9,22.76 Z M35.84,24 L35.84,13.88 L40.02,13.88 C42.06,13.88 43.4,14.78 43.4,16.48 C43.4,17.46 42.88,18.3 41.96,18.7 L41.96,18.72 C43.22,19.02 43.88,20 43.88,21.12 C43.88,23 42.36,24 40.16,24 L35.84,24 Z M37.78,18.16 L39.68,18.16 C40.84,18.16 41.42,17.56 41.42,16.62 C41.42,15.7 40.84,15.22 39.62,15.22 L37.78,15.22 L37.78,18.16 Z M37.78,22.64 L39.86,22.64 C41.26,22.64 41.92,22 41.92,21.06 C41.92,20.06 41.18,19.46 39.84,19.46 L37.78,19.46 L37.78,22.64 Z M45.4,21.24 C45.4,18.06 49.34,17.7 51.44,17.7 L51.96,17.7 L51.96,17.5 C51.96,15.84 51,15.28 49.74,15.28 C48.74,15.28 47.72,15.68 46.9,16.26 L46.12,14.84 C46.94,14.16 48.48,13.64 49.9,13.64 C52.44,13.64 53.9,15.04 53.9,17.6 L53.9,24 L52.08,24 L52.08,22.98 C52.08,22.52 52.14,22.18 52.14,22.18 L52.1,22.18 C51.52,23.34 50.28,24.24 48.78,24.24 C47.02,24.24 45.4,23.14 45.4,21.24 Z M47.34,21.08 C47.34,21.88 47.98,22.7 49.24,22.7 C50.94,22.7 51.96,20.98 51.96,19.48 L51.96,19.1 L51.46,19.1 C50.02,19.1 47.34,19.22 47.34,21.08 Z M56.76,24 L58.7,24 L58.7,19.66 L63.82,19.66 L63.82,24 L65.76,24 L65.76,13.88 L63.82,13.88 L63.82,18 L58.7,18 L58.7,13.88 L56.76,13.88 L56.76,24 Z M68.76,24 L70.62,24 L75,17.96 C75.32,17.48 75.82,16.8 75.88,16.62 L75.92,16.62 C75.92,16.78 75.86,17.48 75.86,17.96 L75.86,24 L77.74,24 L77.74,13.88 L75.86,13.88 L71.5,19.92 C71.16,20.4 70.68,21.1 70.6,21.28 L70.56,21.28 C70.58,21.18 70.62,20.46 70.62,19.92 L70.62,13.88 L68.76,13.88 L68.76,24 Z M80.06,18.94 C80.06,15.72 82.26,13.64 85.14,13.64 C88,13.64 89.52,15.78 89.52,18.38 C89.52,18.64 89.48,18.92 89.44,19.2 L82.08,19.2 C82.18,21.38 83.74,22.56 85.56,22.56 C86.64,22.56 87.74,22.1 88.54,21.38 L89.36,22.8 C88.38,23.7 86.84,24.24 85.44,24.24 C82.26,24.24 80.06,21.94 80.06,18.94 Z M82.14,17.8 L87.56,17.8 C87.5,16.06 86.42,15.14 85.1,15.14 C83.6,15.14 82.42,16.12 82.14,17.8 Z M97.22,24 L99.2,24 L99.2,9.88 L97.22,9.88 L97.22,24 Z M102.08,16.86 C102.08,21 104.94,24.24 109.32,24.24 C111.82,24.24 113.58,23.2 114.78,22 L113.72,20.58 C112.58,21.72 110.96,22.42 109.38,22.42 C106.1,22.42 104.12,19.84 104.12,16.84 C104.12,13.86 106.06,11.44 109.34,11.44 C110.8,11.44 112.38,12.06 113.42,12.98 L114.42,11.5 C113.06,10.2 111.08,9.64 109.26,9.64 C105.06,9.64 102.08,12.76 102.08,16.86 Z M116.04,16.84 C116.04,12.78 119.1,9.64 123.3,9.64 C127.5,9.64 130.54,12.78 130.54,16.84 C130.54,21 127.5,24.24 123.3,24.24 C119.1,24.24 116.04,21 116.04,16.84 Z M118.08,16.84 C118.08,20 120.28,22.42 123.3,22.42 C126.3,22.42 128.5,20 128.5,16.84 C128.5,13.78 126.3,11.44 123.3,11.44 C120.28,11.44 118.08,13.78 118.08,16.84 Z" id="Название-ICO"></path>
                            <path d="M201.86,19 L201.86,4.88 L206.8,4.88 C209.2,4.88 210.9,6.2 210.9,8.48 C210.9,9.86 210.22,10.96 209.14,11.52 L209.14,11.56 C210.64,12 211.48,13.4 211.48,14.98 C211.48,17.64 209.4,19 206.92,19 L201.86,19 Z M203.84,10.82 L206.8,10.82 C208.08,10.82 208.88,9.92 208.88,8.68 C208.88,7.44 208.12,6.6 206.78,6.6 L203.84,6.6 L203.84,10.82 Z M203.84,17.28 L207.02,17.28 C208.54,17.28 209.44,16.32 209.44,14.86 C209.44,13.44 208.5,12.46 207.02,12.46 L203.84,12.46 L203.84,17.28 Z M213.88,23 L213.88,8.88 L215.68,8.88 L215.68,9.78 C215.68,10.2 215.62,10.54 215.62,10.54 L215.66,10.54 C216.3,9.32 217.58,8.64 219.06,8.64 C221.8,8.64 223.5,10.8 223.5,13.94 C223.5,17.16 221.58,19.24 218.92,19.24 C217.64,19.24 216.48,18.6 215.78,17.52 L215.74,17.52 C215.74,17.52 215.82,17.88 215.82,18.4 L215.82,23 L213.88,23 Z M215.76,13.98 C215.76,15.78 216.76,17.56 218.62,17.56 C220.22,17.56 221.54,16.26 221.54,13.96 C221.54,11.76 220.36,10.34 218.68,10.34 C217.16,10.34 215.76,11.42 215.76,13.98 Z M225.24,13.94 C225.24,10.72 227.44,8.64 230.32,8.64 C233.18,8.64 234.7,10.78 234.7,13.38 C234.7,13.64 234.66,13.92 234.62,14.2 L227.26,14.2 C227.36,16.38 228.92,17.56 230.74,17.56 C231.82,17.56 232.92,17.1 233.72,16.38 L234.54,17.8 C233.56,18.7 232.02,19.24 230.62,19.24 C227.44,19.24 225.24,16.94 225.24,13.94 Z M227.32,12.8 L232.74,12.8 C232.68,11.06 231.6,10.14 230.28,10.14 C228.78,10.14 227.6,11.12 227.32,12.8 Z M236.62,19 L238.5,19 L238.94,12.98 C238.98,12.38 238.92,11.24 238.92,11.24 L238.96,11.24 C238.96,11.24 239.28,12 239.6,12.74 L242,17.78 L243.66,17.78 L246.06,12.72 C246.44,11.94 246.7,11.24 246.7,11.24 L246.74,11.24 C246.74,11.24 246.7,12.38 246.72,12.98 L247.16,19 L249.04,19 L248.16,8.88 L246.04,8.88 L243.4,14.6 C243.14,15.22 242.84,15.96 242.84,15.96 L242.8,15.96 C242.8,15.96 242.52,15.2 242.24,14.6 L239.66,8.88 L237.5,8.88 L236.62,19 Z M250.62,19 L252.96,15.64 C253.18,15.28 253.42,15.02 253.42,15.02 L253.42,15 C252.26,14.68 251.22,13.6 251.22,12.06 C251.22,9.98 252.7,8.88 254.84,8.88 L258.88,8.88 L258.88,19 L256.94,19 L256.94,15.34 L255.24,15.34 L252.76,19 L250.62,19 Z M255.26,13.92 L256.94,13.92 L256.94,10.22 L255.32,10.22 C254.02,10.22 253.18,10.74 253.18,12.04 C253.18,13.3 254.08,13.92 255.26,13.92 Z M268.86,17.4 L273.34,17.4 L273.34,10.46 L270.3,10.46 L270.3,11 C270.3,12.52 270.14,15.4 268.86,17.4 Z M265.62,17.4 L266.86,17.4 C268.28,15.46 268.44,12.3 268.44,10.74 L268.44,8.88 L275.28,8.88 L275.28,17.4 L276.72,17.4 L276.72,21.4 L274.94,21.4 L274.94,19 L267.44,19 L267.44,21.4 L265.62,21.4 L265.62,17.4 Z M277.98,13.94 C277.98,10.72 280.18,8.64 283.06,8.64 C285.92,8.64 287.44,10.78 287.44,13.38 C287.44,13.64 287.4,13.92 287.36,14.2 L280,14.2 C280.1,16.38 281.66,17.56 283.48,17.56 C284.56,17.56 285.66,17.1 286.46,16.38 L287.28,17.8 C286.3,18.7 284.76,19.24 283.36,19.24 C280.18,19.24 277.98,16.94 277.98,13.94 Z M280.06,12.8 L285.48,12.8 C285.42,11.06 284.34,10.14 283.02,10.14 C281.52,10.14 280.34,11.12 280.06,12.8 Z M294.24,7.72 C295.8,7.72 297.2,6.8 297.2,5.16 L297.2,4.86 L295.66,4.86 L295.66,5.12 C295.66,6.02 294.94,6.46 294.24,6.46 C293.54,6.46 292.84,6.02 292.84,5.14 L292.84,4.86 L291.28,4.86 L291.28,5.16 C291.28,6.8 292.7,7.72 294.24,7.72 Z M289.78,19 L291.64,19 L296.02,12.96 C296.34,12.48 296.84,11.8 296.9,11.62 L296.94,11.62 C296.94,11.78 296.88,12.48 296.88,12.96 L296.88,19 L298.76,19 L298.76,8.88 L296.88,8.88 L292.52,14.92 C292.18,15.4 291.7,16.1 291.62,16.28 L291.58,16.28 C291.6,16.18 291.64,15.46 291.64,14.92 L291.64,8.88 L289.78,8.88 L289.78,19 Z M301.08,13.94 C301.08,16.98 303.3,19.24 306.5,19.24 C308.08,19.24 309.62,18.6 310.54,17.62 L309.76,16.2 C308.98,17.02 307.76,17.56 306.64,17.56 C304.54,17.56 303.06,15.98 303.06,13.92 C303.06,11.86 304.54,10.32 306.58,10.32 C307.64,10.32 308.7,10.8 309.38,11.48 L310.3,10.12 C309.34,9.1 307.84,8.64 306.5,8.64 C303.32,8.64 301.08,10.94 301.08,13.94 Z M315.08,19 L317,19 L317,10.54 L320.54,10.54 L320.54,8.88 L311.56,8.88 L311.56,10.54 L315.08,10.54 L315.08,19 Z M322.44,19 L322.44,8.88 L326.62,8.88 C328.66,8.88 330,9.78 330,11.48 C330,12.46 329.48,13.3 328.56,13.7 L328.56,13.72 C329.82,14.02 330.48,15 330.48,16.12 C330.48,18 328.96,19 326.76,19 L322.44,19 Z M324.38,13.16 L326.28,13.16 C327.44,13.16 328.02,12.56 328.02,11.62 C328.02,10.7 327.44,10.22 326.22,10.22 L324.38,10.22 L324.38,13.16 Z M324.38,17.64 L326.46,17.64 C327.86,17.64 328.52,17 328.52,16.06 C328.52,15.06 327.78,14.46 326.44,14.46 L324.38,14.46 L324.38,17.64 Z M332.84,19 L334.7,19 L339.08,12.96 C339.4,12.48 339.9,11.8 339.96,11.62 L340,11.62 C340,11.78 339.94,12.48 339.94,12.96 L339.94,19 L341.82,19 L341.82,8.88 L339.94,8.88 L335.58,14.92 C335.24,15.4 334.76,16.1 334.68,16.28 L334.64,16.28 C334.66,16.18 334.7,15.46 334.7,14.92 L334.7,8.88 L332.84,8.88 L332.84,19 Z M343.78,19 L346.12,15.64 C346.34,15.28 346.58,15.02 346.58,15.02 L346.58,15 C345.42,14.68 344.38,13.6 344.38,12.06 C344.38,9.98 345.86,8.88 348,8.88 L352.04,8.88 L352.04,19 L350.1,19 L350.1,15.34 L348.4,15.34 L345.92,19 L343.78,19 Z M348.42,13.92 L350.1,13.92 L350.1,10.22 L348.48,10.22 C347.18,10.22 346.34,10.74 346.34,12.04 C346.34,13.3 347.24,13.92 348.42,13.92 Z M200.84,38.94 C200.84,41.98 203.06,44.24 206.26,44.24 C207.84,44.24 209.38,43.6 210.3,42.62 L209.52,41.2 C208.74,42.02 207.52,42.56 206.4,42.56 C204.3,42.56 202.82,40.98 202.82,38.92 C202.82,36.86 204.3,35.32 206.34,35.32 C207.4,35.32 208.46,35.8 209.14,36.48 L210.06,35.12 C209.1,34.1 207.6,33.64 206.26,33.64 C203.08,33.64 200.84,35.94 200.84,38.94 Z M214.84,44 L216.76,44 L216.76,35.54 L220.3,35.54 L220.3,33.88 L211.32,33.88 L211.32,35.54 L214.84,35.54 L214.84,44 Z M222.2,48 L222.2,33.88 L224,33.88 L224,34.78 C224,35.2 223.94,35.54 223.94,35.54 L223.98,35.54 C224.62,34.32 225.9,33.64 227.38,33.64 C230.12,33.64 231.82,35.8 231.82,38.94 C231.82,42.16 229.9,44.24 227.24,44.24 C225.96,44.24 224.8,43.6 224.1,42.52 L224.06,42.52 C224.06,42.52 224.14,42.88 224.14,43.4 L224.14,48 L222.2,48 Z M224.08,38.98 C224.08,40.78 225.08,42.56 226.94,42.56 C228.54,42.56 229.86,41.26 229.86,38.96 C229.86,36.76 228.68,35.34 227,35.34 C225.48,35.34 224.08,36.42 224.08,38.98 Z M233.38,41.24 C233.38,38.06 237.32,37.7 239.42,37.7 L239.94,37.7 L239.94,37.5 C239.94,35.84 238.98,35.28 237.72,35.28 C236.72,35.28 235.7,35.68 234.88,36.26 L234.1,34.84 C234.92,34.16 236.46,33.64 237.88,33.64 C240.42,33.64 241.88,35.04 241.88,37.6 L241.88,44 L240.06,44 L240.06,42.98 C240.06,42.52 240.12,42.18 240.12,42.18 L240.08,42.18 C239.5,43.34 238.26,44.24 236.76,44.24 C235,44.24 233.38,43.14 233.38,41.24 Z M235.32,41.08 C235.32,41.88 235.96,42.7 237.22,42.7 C238.92,42.7 239.94,40.98 239.94,39.48 L239.94,39.1 L239.44,39.1 C238,39.1 235.32,39.22 235.32,41.08 Z M243.58,44 L245.78,44 L247.9,40.62 C248.06,40.38 248.2,40.08 248.2,40.08 L248.24,40.08 C248.24,40.08 248.4,40.38 248.56,40.62 L250.68,44 L252.88,44 L249.42,38.8 L252.68,33.88 L250.46,33.88 L248.58,36.96 C248.44,37.22 248.24,37.56 248.24,37.56 L248.2,37.56 C248.2,37.56 248.02,37.22 247.88,36.96 L246,33.88 L243.78,33.88 L247.04,38.8 L243.58,44 Z M253.72,38.92 C253.72,35.86 256.16,33.64 259.16,33.64 C262.18,33.64 264.62,35.86 264.62,38.92 C264.62,42 262.18,44.24 259.18,44.24 C256.16,44.24 253.72,42 253.72,38.92 Z M255.7,38.92 C255.7,41.04 257.26,42.56 259.18,42.56 C261.08,42.56 262.66,41.04 262.66,38.92 C262.66,36.82 261.08,35.32 259.18,35.32 C257.26,35.32 255.7,36.82 255.7,38.92 Z M266.96,44 L266.96,33.88 L271.14,33.88 C273.18,33.88 274.52,34.78 274.52,36.48 C274.52,37.46 274,38.3 273.08,38.7 L273.08,38.72 C274.34,39.02 275,40 275,41.12 C275,43 273.48,44 271.28,44 L266.96,44 Z M268.9,38.16 L270.8,38.16 C271.96,38.16 272.54,37.56 272.54,36.62 C272.54,35.7 271.96,35.22 270.74,35.22 L268.9,35.22 L268.9,38.16 Z M268.9,42.64 L270.98,42.64 C272.38,42.64 273.04,42 273.04,41.06 C273.04,40.06 272.3,39.46 270.96,39.46 L268.9,39.46 L268.9,42.64 Z M276.52,41.24 C276.52,38.06 280.46,37.7 282.56,37.7 L283.08,37.7 L283.08,37.5 C283.08,35.84 282.12,35.28 280.86,35.28 C279.86,35.28 278.84,35.68 278.02,36.26 L277.24,34.84 C278.06,34.16 279.6,33.64 281.02,33.64 C283.56,33.64 285.02,35.04 285.02,37.6 L285.02,44 L283.2,44 L283.2,42.98 C283.2,42.52 283.26,42.18 283.26,42.18 L283.22,42.18 C282.64,43.34 281.4,44.24 279.9,44.24 C278.14,44.24 276.52,43.14 276.52,41.24 Z M278.46,41.08 C278.46,41.88 279.1,42.7 280.36,42.7 C282.06,42.7 283.08,40.98 283.08,39.48 L283.08,39.1 L282.58,39.1 C281.14,39.1 278.46,39.22 278.46,41.08 Z M287.88,44 L289.82,44 L289.82,39.66 L294.94,39.66 L294.94,44 L296.88,44 L296.88,33.88 L294.94,33.88 L294.94,38 L289.82,38 L289.82,33.88 L287.88,33.88 L287.88,44 Z M299.88,44 L301.74,44 L306.12,37.96 C306.44,37.48 306.94,36.8 307,36.62 L307.04,36.62 C307.04,36.78 306.98,37.48 306.98,37.96 L306.98,44 L308.86,44 L308.86,33.88 L306.98,33.88 L302.62,39.92 C302.28,40.4 301.8,41.1 301.72,41.28 L301.68,41.28 C301.7,41.18 301.74,40.46 301.74,39.92 L301.74,33.88 L299.88,33.88 L299.88,44 Z M310.82,44 L313.16,40.64 C313.38,40.28 313.62,40.02 313.62,40.02 L313.62,40 C312.46,39.68 311.42,38.6 311.42,37.06 C311.42,34.98 312.9,33.88 315.04,33.88 L319.08,33.88 L319.08,44 L317.14,44 L317.14,40.34 L315.44,40.34 L312.96,44 L310.82,44 Z M315.46,38.92 L317.14,38.92 L317.14,35.22 L315.52,35.22 C314.22,35.22 313.38,35.74 313.38,37.04 C313.38,38.3 314.28,38.92 315.46,38.92 Z" id="Время-действия-страх"></path>
                            <path d="M401,16.86 C401,21 403.86,24.24 408.24,24.24 C410.74,24.24 412.5,23.2 413.7,22 L412.64,20.58 C411.5,21.72 409.88,22.42 408.3,22.42 C405.02,22.42 403.04,19.84 403.04,16.84 C403.04,13.86 404.98,11.44 408.26,11.44 C409.72,11.44 411.3,12.06 412.34,12.98 L413.34,11.5 C411.98,10.2 410,9.64 408.18,9.64 C403.98,9.64 401,12.76 401,16.86 Z M417.86,24 L419.78,24 L419.78,15.54 L423.32,15.54 L423.32,13.88 L414.34,13.88 L414.34,15.54 L417.86,15.54 L417.86,24 Z M424.22,18.92 C424.22,15.86 426.66,13.64 429.66,13.64 C432.68,13.64 435.12,15.86 435.12,18.92 C435.12,22 432.68,24.24 429.68,24.24 C426.66,24.24 424.22,22 424.22,18.92 Z M426.2,18.92 C426.2,21.04 427.76,22.56 429.68,22.56 C431.58,22.56 433.16,21.04 433.16,18.92 C433.16,16.82 431.58,15.32 429.68,15.32 C427.76,15.32 426.2,16.82 426.2,18.92 Z M437.46,24 L439.32,24 L443.7,17.96 C444.02,17.48 444.52,16.8 444.58,16.62 L444.62,16.62 C444.62,16.78 444.56,17.48 444.56,17.96 L444.56,24 L446.44,24 L446.44,13.88 L444.56,13.88 L440.2,19.92 C439.86,20.4 439.38,21.1 439.3,21.28 L439.26,21.28 C439.28,21.18 439.32,20.46 439.32,19.92 L439.32,13.88 L437.46,13.88 L437.46,24 Z M449,24 L450.88,24 L451.32,17.98 C451.36,17.38 451.3,16.24 451.3,16.24 L451.34,16.24 C451.34,16.24 451.66,17 451.98,17.74 L454.38,22.78 L456.04,22.78 L458.44,17.72 C458.82,16.94 459.08,16.24 459.08,16.24 L459.12,16.24 C459.12,16.24 459.08,17.38 459.1,17.98 L459.54,24 L461.42,24 L460.54,13.88 L458.42,13.88 L455.78,19.6 C455.52,20.22 455.22,20.96 455.22,20.96 L455.18,20.96 C455.18,20.96 454.9,20.2 454.62,19.6 L452.04,13.88 L449.88,13.88 L449,24 Z M463.36,18.92 C463.36,15.86 465.8,13.64 468.8,13.64 C471.82,13.64 474.26,15.86 474.26,18.92 C474.26,22 471.82,24.24 468.82,24.24 C465.8,24.24 463.36,22 463.36,18.92 Z M465.34,18.92 C465.34,21.04 466.9,22.56 468.82,22.56 C470.72,22.56 472.3,21.04 472.3,18.92 C472.3,16.82 470.72,15.32 468.82,15.32 C466.9,15.32 465.34,16.82 465.34,18.92 Z M475.94,18.94 C475.94,21.98 478.16,24.24 481.36,24.24 C482.94,24.24 484.48,23.6 485.4,22.62 L484.62,21.2 C483.84,22.02 482.62,22.56 481.5,22.56 C479.4,22.56 477.92,20.98 477.92,18.92 C477.92,16.86 479.4,15.32 481.44,15.32 C482.5,15.32 483.56,15.8 484.24,16.48 L485.16,15.12 C484.2,14.1 482.7,13.64 481.36,13.64 C478.18,13.64 475.94,15.94 475.94,18.94 Z M489.94,24 L491.86,24 L491.86,15.54 L495.4,15.54 L495.4,13.88 L486.42,13.88 L486.42,15.54 L489.94,15.54 L489.94,24 Z M497.3,24 L497.3,13.88 L499.24,13.88 L499.24,17.54 L501.28,17.54 C503.38,17.54 504.96,18.5 504.96,20.8 C504.96,22.7 503.8,24 501.24,24 L497.3,24 Z M499.24,22.6 L500.98,22.6 C502.38,22.6 502.98,21.84 502.98,20.78 C502.98,19.7 502.38,18.94 500.98,18.94 L499.24,18.94 L499.24,22.6 Z M400.84,43.94 C400.84,46.98 403.06,49.24 406.26,49.24 C407.84,49.24 409.38,48.6 410.3,47.62 L409.52,46.2 C408.74,47.02 407.52,47.56 406.4,47.56 C404.3,47.56 402.82,45.98 402.82,43.92 C402.82,41.86 404.3,40.32 406.34,40.32 C407.4,40.32 408.46,40.8 409.14,41.48 L410.06,40.12 C409.1,39.1 407.6,38.64 406.26,38.64 C403.08,38.64 400.84,40.94 400.84,43.94 Z M414.84,49 L416.76,49 L416.76,40.54 L420.3,40.54 L420.3,38.88 L411.32,38.88 L411.32,40.54 L414.84,40.54 L414.84,49 Z M422.2,53 L422.2,38.88 L424,38.88 L424,39.78 C424,40.2 423.94,40.54 423.94,40.54 L423.98,40.54 C424.62,39.32 425.9,38.64 427.38,38.64 C430.12,38.64 431.82,40.8 431.82,43.94 C431.82,47.16 429.9,49.24 427.24,49.24 C425.96,49.24 424.8,48.6 424.1,47.52 L424.06,47.52 C424.06,47.52 424.14,47.88 424.14,48.4 L424.14,53 L422.2,53 Z M424.08,43.98 C424.08,45.78 425.08,47.56 426.94,47.56 C428.54,47.56 429.86,46.26 429.86,43.96 C429.86,41.76 428.68,40.34 427,40.34 C425.48,40.34 424.08,41.42 424.08,43.98 Z M433.38,46.24 C433.38,43.06 437.32,42.7 439.42,42.7 L439.94,42.7 L439.94,42.5 C439.94,40.84 438.98,40.28 437.72,40.28 C436.72,40.28 435.7,40.68 434.88,41.26 L434.1,39.84 C434.92,39.16 436.46,38.64 437.88,38.64 C440.42,38.64 441.88,40.04 441.88,42.6 L441.88,49 L440.06,49 L440.06,47.98 C440.06,47.52 440.12,47.18 440.12,47.18 L440.08,47.18 C439.5,48.34 438.26,49.24 436.76,49.24 C435,49.24 433.38,48.14 433.38,46.24 Z M435.32,46.08 C435.32,46.88 435.96,47.7 437.22,47.7 C438.92,47.7 439.94,45.98 439.94,44.48 L439.94,44.1 L439.44,44.1 C438,44.1 435.32,44.22 435.32,46.08 Z M443.58,49 L445.78,49 L447.9,45.62 C448.06,45.38 448.2,45.08 448.2,45.08 L448.24,45.08 C448.24,45.08 448.4,45.38 448.56,45.62 L450.68,49 L452.88,49 L449.42,43.8 L452.68,38.88 L450.46,38.88 L448.58,41.96 C448.44,42.22 448.24,42.56 448.24,42.56 L448.2,42.56 C448.2,42.56 448.02,42.22 447.88,41.96 L446,38.88 L443.78,38.88 L447.04,43.8 L443.58,49 Z M453.72,43.92 C453.72,40.86 456.16,38.64 459.16,38.64 C462.18,38.64 464.62,40.86 464.62,43.92 C464.62,47 462.18,49.24 459.18,49.24 C456.16,49.24 453.72,47 453.72,43.92 Z M455.7,43.92 C455.7,46.04 457.26,47.56 459.18,47.56 C461.08,47.56 462.66,46.04 462.66,43.92 C462.66,41.82 461.08,40.32 459.18,40.32 C457.26,40.32 455.7,41.82 455.7,43.92 Z M466.96,49 L466.96,38.88 L471.14,38.88 C473.18,38.88 474.52,39.78 474.52,41.48 C474.52,42.46 474,43.3 473.08,43.7 L473.08,43.72 C474.34,44.02 475,45 475,46.12 C475,48 473.48,49 471.28,49 L466.96,49 Z M468.9,43.16 L470.8,43.16 C471.96,43.16 472.54,42.56 472.54,41.62 C472.54,40.7 471.96,40.22 470.74,40.22 L468.9,40.22 L468.9,43.16 Z M468.9,47.64 L470.98,47.64 C472.38,47.64 473.04,47 473.04,46.06 C473.04,45.06 472.3,44.46 470.96,44.46 L468.9,44.46 L468.9,47.64 Z M476.52,46.24 C476.52,43.06 480.46,42.7 482.56,42.7 L483.08,42.7 L483.08,42.5 C483.08,40.84 482.12,40.28 480.86,40.28 C479.86,40.28 478.84,40.68 478.02,41.26 L477.24,39.84 C478.06,39.16 479.6,38.64 481.02,38.64 C483.56,38.64 485.02,40.04 485.02,42.6 L485.02,49 L483.2,49 L483.2,47.98 C483.2,47.52 483.26,47.18 483.26,47.18 L483.22,47.18 C482.64,48.34 481.4,49.24 479.9,49.24 C478.14,49.24 476.52,48.14 476.52,46.24 Z M478.46,46.08 C478.46,46.88 479.1,47.7 480.36,47.7 C482.06,47.7 483.08,45.98 483.08,44.48 L483.08,44.1 L482.58,44.1 C481.14,44.1 478.46,44.22 478.46,46.08 Z M487.88,49 L489.82,49 L489.82,44.66 L494.94,44.66 L494.94,49 L496.88,49 L496.88,38.88 L494.94,38.88 L494.94,43 L489.82,43 L489.82,38.88 L487.88,38.88 L487.88,49 Z M499.88,49 L501.74,49 L506.12,42.96 C506.44,42.48 506.94,41.8 507,41.62 L507.04,41.62 C507.04,41.78 506.98,42.48 506.98,42.96 L506.98,49 L508.86,49 L508.86,38.88 L506.98,38.88 L502.62,44.92 C502.28,45.4 501.8,46.1 501.72,46.28 L501.68,46.28 C501.7,46.18 501.74,45.46 501.74,44.92 L501.74,38.88 L499.88,38.88 L499.88,49 Z M510.82,49 L513.16,45.64 C513.38,45.28 513.62,45.02 513.62,45.02 L513.62,45 C512.46,44.68 511.42,43.6 511.42,42.06 C511.42,39.98 512.9,38.88 515.04,38.88 L519.08,38.88 L519.08,49 L517.14,49 L517.14,45.34 L515.44,45.34 L512.96,49 L510.82,49 Z M515.46,43.92 L517.14,43.92 L517.14,40.22 L515.52,40.22 C514.22,40.22 513.38,40.74 513.38,42.04 C513.38,43.3 514.28,43.92 515.46,43.92 Z" id="Стоимость-страховани"></path>
                        </g>
                    </g>
                    <path d="M360,440 L360,534" id="Line" stroke="#F6F6F9" stroke-width="8" stroke-linecap="square"></path>
                    <path d="M280,542 L440,542" id="Line" stroke="#F6F6F9" stroke-width="8" stroke-linecap="round" stroke-linejoin="round"></path>
                </g>
                <g id="Group-6" transform="translate(175.000000, 28.000000)" stroke="#303498" stroke-width="2" stroke-linecap="round" stroke-linejoin="round">
                    <polyline id="Line-2" transform="translate(356.516306, 244.000000) rotate(-170.000000) translate(-356.516306, -244.000000) " points="346.516306 249 356.594832 239 366.516306 249"></polyline>
                    <path d="M0,0 L190,0 C333.77076,0 389.104094,82.3333333 356,247" id="Path-4"></path>
                </g>
                <g id="Group-5" opacity="0.5" transform="translate(620.000000, 321.000000)"></g>
                <path d="M2.976,86 L6.144,86 L6.144,66.16 L17.6,66.16 L17.6,86 L20.768,86 L20.768,63.408 L2.976,63.408 L2.976,86 Z M25.952,92.4 L25.952,69.808 L28.832,69.808 L28.832,71.248 C28.832,71.92 28.736,72.464 28.736,72.464 L28.8,72.464 C29.824,70.512 31.872,69.424 34.24,69.424 C38.624,69.424 41.344,72.88 41.344,77.904 C41.344,83.056 38.272,86.384 34.016,86.384 C31.968,86.384 30.112,85.36 28.992,83.632 L28.928,83.632 C28.928,83.632 29.056,84.208 29.056,85.04 L29.056,92.4 L25.952,92.4 Z M28.96,77.968 C28.96,80.848 30.56,83.696 33.536,83.696 C36.096,83.696 38.208,81.616 38.208,77.936 C38.208,74.416 36.32,72.144 33.632,72.144 C31.2,72.144 28.96,73.872 28.96,77.968 Z M44.128,77.872 C44.128,72.976 48.032,69.424 52.832,69.424 C57.664,69.424 61.568,72.976 61.568,77.872 C61.568,82.8 57.664,86.384 52.864,86.384 C48.032,86.384 44.128,82.8 44.128,77.872 Z M47.296,77.872 C47.296,81.264 49.792,83.696 52.864,83.696 C55.904,83.696 58.432,81.264 58.432,77.872 C58.432,74.512 55.904,72.112 52.864,72.112 C49.792,72.112 47.296,74.512 47.296,77.872 Z M65.312,86 L65.312,69.808 L72,69.808 C75.264,69.808 77.408,71.248 77.408,73.968 C77.408,75.536 76.576,76.88 75.104,77.52 L75.104,77.552 C77.12,78.032 78.176,79.6 78.176,81.392 C78.176,84.4 75.744,86 72.224,86 L65.312,86 Z M68.416,76.656 L71.456,76.656 C73.312,76.656 74.24,75.696 74.24,74.192 C74.24,72.72 73.312,71.952 71.36,71.952 L68.416,71.952 L68.416,76.656 Z M68.416,83.824 L71.744,83.824 C73.984,83.824 75.04,82.8 75.04,81.296 C75.04,79.696 73.856,78.736 71.712,78.736 L68.416,78.736 L68.416,83.824 Z M80.896,77.904 C80.896,72.752 84.416,69.424 89.024,69.424 C93.6,69.424 96.032,72.848 96.032,77.008 C96.032,77.424 95.968,77.872 95.904,78.32 L84.128,78.32 C84.288,81.808 86.784,83.696 89.696,83.696 C91.424,83.696 93.184,82.96 94.464,81.808 L95.776,84.08 C94.208,85.52 91.744,86.384 89.504,86.384 C84.416,86.384 80.896,82.704 80.896,77.904 Z M84.224,76.08 L92.896,76.08 C92.8,73.296 91.072,71.824 88.96,71.824 C86.56,71.824 84.672,73.392 84.224,76.08 Z M99.776,92.4 L99.776,69.808 L102.656,69.808 L102.656,71.248 C102.656,71.92 102.56,72.464 102.56,72.464 L102.624,72.464 C103.648,70.512 105.696,69.424 108.064,69.424 C112.448,69.424 115.168,72.88 115.168,77.904 C115.168,83.056 112.096,86.384 107.84,86.384 C105.792,86.384 103.936,85.36 102.816,83.632 L102.752,83.632 C102.752,83.632 102.88,84.208 102.88,85.04 L102.88,92.4 L99.776,92.4 Z M102.784,77.968 C102.784,80.848 104.384,83.696 107.36,83.696 C109.92,83.696 112.032,81.616 112.032,77.936 C112.032,74.416 110.144,72.144 107.456,72.144 C105.024,72.144 102.784,73.872 102.784,77.968 Z M117.376,86 L121.12,80.624 C121.472,80.048 121.856,79.632 121.856,79.632 L121.856,79.6 C120,79.088 118.336,77.36 118.336,74.896 C118.336,71.568 120.704,69.808 124.128,69.808 L130.592,69.808 L130.592,86 L127.488,86 L127.488,80.144 L124.768,80.144 L120.8,86 L117.376,86 Z M124.8,77.872 L127.488,77.872 L127.488,71.952 L124.896,71.952 C122.816,71.952 121.472,72.784 121.472,74.864 C121.472,76.88 122.912,77.872 124.8,77.872 Z M134.336,77.904 C134.336,72.752 137.856,69.424 142.464,69.424 C147.04,69.424 149.472,72.848 149.472,77.008 C149.472,77.424 149.408,77.872 149.344,78.32 L137.568,78.32 C137.728,81.808 140.224,83.696 143.136,83.696 C144.864,83.696 146.624,82.96 147.904,81.808 L149.216,84.08 C147.648,85.52 145.184,86.384 142.944,86.384 C137.856,86.384 134.336,82.704 134.336,77.904 Z M137.664,76.08 L146.336,76.08 C146.24,73.296 144.512,71.824 142.4,71.824 C140,71.824 138.112,73.392 137.664,76.08 Z M156.928,86 L160,86 L160,72.464 L165.664,72.464 L165.664,69.808 L151.296,69.808 L151.296,72.464 L156.928,72.464 L156.928,86 Z M176.704,86 L176.704,69.808 L183.392,69.808 C186.656,69.808 188.8,71.248 188.8,73.968 C188.8,75.536 187.968,76.88 186.496,77.52 L186.496,77.552 C188.512,78.032 189.568,79.6 189.568,81.392 C189.568,84.4 187.136,86 183.616,86 L176.704,86 Z M179.808,76.656 L182.848,76.656 C184.704,76.656 185.632,75.696 185.632,74.192 C185.632,72.72 184.704,71.952 182.752,71.952 L179.808,71.952 L179.808,76.656 Z M179.808,83.824 L183.136,83.824 C185.376,83.824 186.432,82.8 186.432,81.296 C186.432,79.696 185.248,78.736 183.104,78.736 L179.808,78.736 L179.808,83.824 Z M192.288,77.872 C192.288,72.976 196.192,69.424 200.992,69.424 C205.824,69.424 209.728,72.976 209.728,77.872 C209.728,82.8 205.824,86.384 201.024,86.384 C196.192,86.384 192.288,82.8 192.288,77.872 Z M195.456,77.872 C195.456,81.264 197.952,83.696 201.024,83.696 C204.064,83.696 206.592,81.264 206.592,77.872 C206.592,74.512 204.064,72.112 201.024,72.112 C197.952,72.112 195.456,74.512 195.456,77.872 Z M211.52,84.016 C212.864,85.296 214.976,86.384 217.472,86.384 C220.8,86.384 223.68,84.688 223.68,81.36 C223.68,79.28 222.4,78.064 220.768,77.552 L220.768,77.488 C222.048,76.944 223.136,75.824 223.136,73.808 C223.136,70.928 220.736,69.424 217.664,69.424 C215.104,69.424 213.28,70.256 212.032,71.184 L213.184,73.264 C214.432,72.336 215.712,71.856 217.12,71.856 C218.912,71.856 220,72.688 220,74.192 C220,75.824 218.752,76.528 216.928,76.528 L215.232,76.528 L215.232,78.768 L217.216,78.768 C219.488,78.768 220.544,79.664 220.544,81.232 C220.544,82.992 219.04,83.888 217.184,83.888 C215.232,83.888 213.696,82.736 212.96,81.968 L211.52,84.016 Z M226.752,86 L229.76,86 L230.464,76.368 C230.528,75.408 230.432,73.584 230.432,73.584 L230.496,73.584 C230.496,73.584 231.008,74.8 231.52,75.984 L235.36,84.048 L238.016,84.048 L241.856,75.952 C242.464,74.704 242.88,73.584 242.88,73.584 L242.944,73.584 C242.944,73.584 242.88,75.408 242.912,76.368 L243.616,86 L246.624,86 L245.216,69.808 L241.824,69.808 L237.6,78.96 C237.184,79.952 236.704,81.136 236.704,81.136 L236.64,81.136 C236.64,81.136 236.192,79.92 235.744,78.96 L231.616,69.808 L228.16,69.808 L226.752,86 Z M249.728,77.872 C249.728,72.976 253.632,69.424 258.432,69.424 C263.264,69.424 267.168,72.976 267.168,77.872 C267.168,82.8 263.264,86.384 258.464,86.384 C253.632,86.384 249.728,82.8 249.728,77.872 Z M252.896,77.872 C252.896,81.264 255.392,83.696 258.464,83.696 C261.504,83.696 264.032,81.264 264.032,77.872 C264.032,74.512 261.504,72.112 258.464,72.112 C255.392,72.112 252.896,74.512 252.896,77.872 Z M268.544,86 L272,86 L276.256,79.088 L278.56,79.088 L278.56,86 L281.504,86 L281.504,79.088 L283.84,79.088 L288.064,86 L291.552,86 L286.336,77.68 L286.336,77.616 L291.072,69.808 L287.808,69.808 L283.808,76.432 L281.504,76.432 L281.504,69.808 L278.56,69.808 L278.56,76.432 L276.256,76.432 L272.288,69.808 L268.992,69.808 L273.76,77.616 L273.76,77.68 L268.544,86 Z M294.464,86 L297.568,86 L297.568,79.056 L305.76,79.056 L305.76,86 L308.864,86 L308.864,69.808 L305.76,69.808 L305.76,76.4 L297.568,76.4 L297.568,69.808 L294.464,69.808 L294.464,86 Z M312.608,77.872 C312.608,72.976 316.512,69.424 321.312,69.424 C326.144,69.424 330.048,72.976 330.048,77.872 C330.048,82.8 326.144,86.384 321.344,86.384 C316.512,86.384 312.608,82.8 312.608,77.872 Z M315.776,77.872 C315.776,81.264 318.272,83.696 321.344,83.696 C324.384,83.696 326.912,81.264 326.912,77.872 C326.912,74.512 324.384,72.112 321.344,72.112 C318.272,72.112 315.776,74.512 315.776,77.872 Z M332.736,77.904 C332.736,82.768 336.288,86.384 341.408,86.384 C343.936,86.384 346.4,85.36 347.872,83.792 L346.624,81.52 C345.376,82.832 343.424,83.696 341.632,83.696 C338.272,83.696 335.904,81.168 335.904,77.872 C335.904,74.576 338.272,72.112 341.536,72.112 C343.232,72.112 344.928,72.88 346.016,73.968 L347.488,71.792 C345.952,70.16 343.552,69.424 341.408,69.424 C336.32,69.424 332.736,73.104 332.736,77.904 Z M355.136,86 L358.208,86 L358.208,72.464 L363.872,72.464 L363.872,69.808 L349.504,69.808 L349.504,72.464 L355.136,72.464 L355.136,86 Z M366.912,86 L366.912,69.808 L370.016,69.808 L370.016,75.664 L373.28,75.664 C376.64,75.664 379.168,77.2 379.168,80.88 C379.168,83.92 377.312,86 373.216,86 L366.912,86 Z M370.016,83.76 L372.8,83.76 C375.04,83.76 376,82.544 376,80.848 C376,79.12 375.04,77.904 372.8,77.904 L370.016,77.904 L370.016,83.76 Z M2.4,136 L5.376,136 L12.384,126.336 C12.896,125.568 13.696,124.48 13.792,124.192 L13.856,124.192 C13.856,124.448 13.76,125.568 13.76,126.336 L13.76,136 L16.768,136 L16.768,119.808 L13.76,119.808 L6.784,129.472 C6.24,130.24 5.472,131.36 5.344,131.648 L5.28,131.648 C5.312,131.488 5.376,130.336 5.376,129.472 L5.376,119.808 L2.4,119.808 L2.4,136 Z M29.536,136 L32.512,136 L39.52,126.336 C40.032,125.568 40.832,124.48 40.928,124.192 L40.992,124.192 C40.992,124.448 40.896,125.568 40.896,126.336 L40.896,136 L43.904,136 L43.904,119.808 L40.896,119.808 L33.92,129.472 C33.376,130.24 32.608,131.36 32.48,131.648 L32.416,131.648 C32.448,131.488 32.512,130.336 32.512,129.472 L32.512,119.808 L29.536,119.808 L29.536,136 Z M48.672,136 L51.776,136 L51.776,129.056 L59.968,129.056 L59.968,136 L63.072,136 L63.072,119.808 L59.968,119.808 L59.968,126.4 L51.776,126.4 L51.776,119.808 L48.672,119.808 L48.672,136 Z M67.872,136 L67.872,119.808 L74.56,119.808 C77.824,119.808 79.968,121.248 79.968,123.968 C79.968,125.536 79.136,126.88 77.664,127.52 L77.664,127.552 C79.68,128.032 80.736,129.6 80.736,131.392 C80.736,134.4 78.304,136 74.784,136 L67.872,136 Z M70.976,126.656 L74.016,126.656 C75.872,126.656 76.8,125.696 76.8,124.192 C76.8,122.72 75.872,121.952 73.92,121.952 L70.976,121.952 L70.976,126.656 Z M70.976,133.824 L74.304,133.824 C76.544,133.824 77.6,132.8 77.6,131.296 C77.6,129.696 76.416,128.736 74.272,128.736 L70.976,128.736 L70.976,133.824 Z M83.456,127.904 C83.456,122.752 86.976,119.424 91.584,119.424 C96.16,119.424 98.592,122.848 98.592,127.008 C98.592,127.424 98.528,127.872 98.464,128.32 L86.688,128.32 C86.848,131.808 89.344,133.696 92.256,133.696 C93.984,133.696 95.744,132.96 97.024,131.808 L98.336,134.08 C96.768,135.52 94.304,136.384 92.064,136.384 C86.976,136.384 83.456,132.704 83.456,127.904 Z M86.784,126.08 L95.456,126.08 C95.36,123.296 93.632,121.824 91.52,121.824 C89.12,121.824 87.232,123.392 86.784,126.08 Z M101.28,127.904 C101.28,132.768 104.832,136.384 109.952,136.384 C112.48,136.384 114.944,135.36 116.416,133.792 L115.168,131.52 C113.92,132.832 111.968,133.696 110.176,133.696 C106.816,133.696 104.448,131.168 104.448,127.872 C104.448,124.576 106.816,122.112 110.08,122.112 C111.776,122.112 113.472,122.88 114.56,123.968 L116.032,121.792 C114.496,120.16 112.096,119.424 109.952,119.424 C104.864,119.424 101.28,123.104 101.28,127.904 Z M123.68,136 L126.752,136 L126.752,122.464 L132.416,122.464 L132.416,119.808 L118.048,119.808 L118.048,122.464 L123.68,122.464 L123.68,136 Z M135.456,136 L138.432,136 L145.44,126.336 C145.952,125.568 146.752,124.48 146.848,124.192 L146.912,124.192 C146.912,124.448 146.816,125.568 146.816,126.336 L146.816,136 L149.824,136 L149.824,119.808 L146.816,119.808 L139.84,129.472 C139.296,130.24 138.528,131.36 138.4,131.648 L138.336,131.648 C138.368,131.488 138.432,130.336 138.432,129.472 L138.432,119.808 L135.456,119.808 L135.456,136 Z M154.592,142.4 L154.592,119.808 L157.472,119.808 L157.472,121.248 C157.472,121.92 157.376,122.464 157.376,122.464 L157.44,122.464 C158.464,120.512 160.512,119.424 162.88,119.424 C167.264,119.424 169.984,122.88 169.984,127.904 C169.984,133.056 166.912,136.384 162.656,136.384 C160.608,136.384 158.752,135.36 157.632,133.632 L157.568,133.632 C157.568,133.632 157.696,134.208 157.696,135.04 L157.696,142.4 L154.592,142.4 Z M157.6,127.968 C157.6,130.848 159.2,133.696 162.176,133.696 C164.736,133.696 166.848,131.616 166.848,127.936 C166.848,124.416 164.96,122.144 162.272,122.144 C159.84,122.144 157.6,123.872 157.6,127.968 Z M172.544,139.36 L171.456,141.728 C171.456,141.728 172.768,142.72 174.56,142.72 C176.832,142.72 178.848,141.44 179.808,138.912 L187.424,119.808 L184.064,119.808 L180.128,130.432 C179.84,131.264 179.584,132.352 179.584,132.352 L179.52,132.352 C179.52,132.352 179.232,131.2 178.912,130.4 L174.848,119.808 L171.36,119.808 L178.144,135.808 L177.344,137.664 C176.736,139.136 175.68,140.064 174.4,140.064 C173.44,140.064 172.544,139.36 172.544,139.36 Z M188.832,127.904 C188.832,122.752 192.352,119.424 196.96,119.424 C201.536,119.424 203.968,122.848 203.968,127.008 C203.968,127.424 203.904,127.872 203.84,128.32 L192.064,128.32 C192.224,131.808 194.72,133.696 197.632,133.696 C199.36,133.696 201.12,132.96 202.4,131.808 L203.712,134.08 C202.144,135.52 199.68,136.384 197.44,136.384 C192.352,136.384 188.832,132.704 188.832,127.904 Z M192.16,126.08 L200.832,126.08 C200.736,123.296 199.008,121.824 196.896,121.824 C194.496,121.824 192.608,123.392 192.16,126.08 Z M211.424,136 L214.496,136 L214.496,122.464 L220.16,122.464 L220.16,119.808 L205.792,119.808 L205.792,122.464 L211.424,122.464 L211.424,136 Z M231.2,136 L231.2,119.808 L237.888,119.808 C241.152,119.808 243.296,121.248 243.296,123.968 C243.296,125.536 242.464,126.88 240.992,127.52 L240.992,127.552 C243.008,128.032 244.064,129.6 244.064,131.392 C244.064,134.4 241.632,136 238.112,136 L231.2,136 Z M234.304,126.656 L237.344,126.656 C239.2,126.656 240.128,125.696 240.128,124.192 C240.128,122.72 239.2,121.952 237.248,121.952 L234.304,121.952 L234.304,126.656 Z M234.304,133.824 L237.632,133.824 C239.872,133.824 240.928,132.8 240.928,131.296 C240.928,129.696 239.744,128.736 237.6,128.736 L234.304,128.736 L234.304,133.824 Z" id="Проверяет-возможност" fill="#181920"></path>
                <path d="M62.752,416 L66.88,416 L66.88,393.28 L62.752,393.28 L62.752,416 Z M71.072,404.544 C71.072,411.232 75.68,416.384 82.816,416.384 C86.88,416.384 89.792,414.688 91.744,412.704 L89.568,409.728 C87.84,411.424 85.408,412.608 82.976,412.608 C78.048,412.608 75.328,408.736 75.328,404.48 C75.328,400.288 77.952,396.672 82.944,396.672 C85.152,396.672 87.552,397.696 89.152,399.072 L91.136,396 C88.928,393.856 85.728,392.896 82.752,392.896 C75.904,392.896 71.072,397.952 71.072,404.544 Z M93.376,404.48 C93.376,397.984 98.24,392.896 105.12,392.896 C112,392.896 116.864,397.984 116.864,404.48 C116.864,411.168 112,416.384 105.12,416.384 C98.24,416.384 93.376,411.168 93.376,404.48 Z M97.632,404.48 C97.632,409.088 100.768,412.608 105.12,412.608 C109.472,412.608 112.608,409.088 112.608,404.48 C112.608,400.064 109.472,396.672 105.12,396.672 C100.768,396.672 97.632,400.064 97.632,404.48 Z M125.568,416 L133.536,393.28 L137.888,393.28 L145.856,416 L141.632,416 L139.68,410.176 L131.712,410.176 L129.792,416 L125.568,416 Z M132.736,406.816 L138.656,406.816 L136.64,400.736 C136.256,399.456 135.744,397.216 135.744,397.216 L135.68,397.216 C135.68,397.216 135.168,399.456 134.784,400.736 L132.736,406.816 Z" id="ICO-A" fill="#FF674C"></path>
                <path d="M255.752,136 L259.88,136 L259.88,113.28 L255.752,113.28 L255.752,136 Z M264.072,124.544 C264.072,131.232 268.68,136.384 275.816,136.384 C279.88,136.384 282.792,134.688 284.744,132.704 L282.568,129.728 C280.84,131.424 278.408,132.608 275.976,132.608 C271.048,132.608 268.328,128.736 268.328,124.48 C268.328,120.288 270.952,116.672 275.944,116.672 C278.152,116.672 280.552,117.696 282.152,119.072 L284.136,116 C281.928,113.856 278.728,112.896 275.752,112.896 C268.904,112.896 264.072,117.952 264.072,124.544 Z M286.376,124.48 C286.376,117.984 291.24,112.896 298.12,112.896 C305,112.896 309.864,117.984 309.864,124.48 C309.864,131.168 305,136.384 298.12,136.384 C291.24,136.384 286.376,131.168 286.376,124.48 Z M290.632,124.48 C290.632,129.088 293.768,132.608 298.12,132.608 C302.472,132.608 305.608,129.088 305.608,124.48 C305.608,120.064 302.472,116.672 298.12,116.672 C293.768,116.672 290.632,120.064 290.632,124.48 Z M318.568,136 L326.536,113.28 L330.888,113.28 L338.856,136 L334.632,136 L332.68,130.176 L324.712,130.176 L322.792,136 L318.568,136 Z M325.736,126.816 L331.656,126.816 L329.64,120.736 C329.256,119.456 328.744,117.216 328.744,117.216 L328.68,117.216 C328.68,117.216 328.168,119.456 327.784,120.736 L325.736,126.816 Z" id="ICO-A" fill="#FF674C"></path>
                <path d="M261.824,416 L274.848,416 L274.848,413.248 L269.888,413.248 L269.888,393.408 L267.072,393.408 L261.664,398.656 L263.584,400.64 L265.696,398.592 C266.528,397.76 266.784,397.28 266.784,397.28 L266.848,397.28 C266.848,397.28 266.816,397.952 266.816,398.656 L266.816,413.248 L261.824,413.248 L261.824,416 Z M277.376,413.248 C279.072,415.296 281.664,416.384 284.32,416.384 C288.864,416.384 292.32,413.12 292.32,408.8 C292.32,404.704 289.216,401.408 284.448,401.408 C283.36,401.408 282.048,401.792 281.504,402.08 L281.44,402.08 C281.44,402.08 281.568,401.632 281.632,400.928 L282.144,396.16 L290.816,396.16 L290.816,393.408 L279.392,393.408 L278.272,404.608 L280.128,405.28 C281.184,404.576 282.624,404.16 283.936,404.16 C286.848,404.16 289.056,406.08 289.056,408.8 C289.056,411.552 286.784,413.376 284.128,413.376 C281.792,413.376 280.128,412.128 279.168,410.944 L277.376,413.248 Z M303.232,407.904 C303.232,402.752 306.272,399.424 310.56,399.424 C312.608,399.424 314.56,400.352 315.584,402.08 L315.648,402.08 C315.648,402.08 315.584,401.6 315.584,400.992 L315.584,393.408 L318.656,393.408 L318.656,416 L315.712,416 L315.712,414.368 C315.712,413.728 315.808,413.28 315.808,413.28 L315.744,413.28 C314.816,415.04 312.928,416.384 310.368,416.384 C306.016,416.384 303.232,412.928 303.232,407.904 Z M306.4,407.904 C306.4,411.424 308.288,413.696 310.976,413.696 C313.376,413.696 315.648,411.968 315.648,407.872 C315.648,404.96 314.144,402.144 311.04,402.144 C308.512,402.144 306.4,404.224 306.4,407.904 Z M322.112,411.584 C322.112,406.496 328.416,405.92 331.776,405.92 L332.608,405.92 L332.608,405.6 C332.608,402.944 331.072,402.048 329.056,402.048 C327.456,402.048 325.824,402.688 324.512,403.616 L323.264,401.344 C324.576,400.256 327.04,399.424 329.312,399.424 C333.376,399.424 335.712,401.664 335.712,405.76 L335.712,416 L332.8,416 L332.8,414.368 C332.8,413.632 332.896,413.088 332.896,413.088 L332.832,413.088 C331.904,414.944 329.92,416.384 327.52,416.384 C324.704,416.384 322.112,414.624 322.112,411.584 Z M325.216,411.328 C325.216,412.608 326.24,413.92 328.256,413.92 C330.976,413.92 332.608,411.168 332.608,408.768 L332.608,408.16 L331.808,408.16 C329.504,408.16 325.216,408.352 325.216,411.328 Z M339.2,419.36 L338.112,421.728 C338.112,421.728 339.424,422.72 341.216,422.72 C343.488,422.72 345.504,421.44 346.464,418.912 L354.08,399.808 L350.72,399.808 L346.784,410.432 C346.496,411.264 346.24,412.352 346.24,412.352 L346.176,412.352 C346.176,412.352 345.888,411.2 345.568,410.4 L341.504,399.808 L338.016,399.808 L344.8,415.808 L344,417.664 C343.392,419.136 342.336,420.064 341.056,420.064 C340.096,420.064 339.2,419.36 339.2,419.36 Z" id="15-day" fill="#181920"></path>
                <path d="M261.408,483.312 C263.328,485.296 266.08,486.384 268.736,486.384 C273.376,486.384 276.416,482.992 276.416,479.152 C276.416,474.736 272.768,472.816 269.792,472.528 L275.936,465.424 L275.936,463.408 L262.432,463.408 L262.432,466.16 L270.08,466.16 C271.328,466.16 272,466.064 272,466.064 L272,466.128 C272,466.128 271.296,466.704 270.592,467.6 L265.664,473.392 L266.4,475.088 L267.936,475.088 C270.752,475.088 273.216,476.464 273.216,479.248 C273.216,481.68 271.104,483.376 268.608,483.376 C266.432,483.376 264.352,482.224 263.136,480.912 L261.408,483.312 Z M279.712,483.248 C281.408,485.296 284,486.384 286.656,486.384 C291.2,486.384 294.656,483.12 294.656,478.8 C294.656,474.704 291.552,471.408 286.784,471.408 C285.696,471.408 284.384,471.792 283.84,472.08 L283.776,472.08 C283.776,472.08 283.904,471.632 283.968,470.928 L284.48,466.16 L293.152,466.16 L293.152,463.408 L281.728,463.408 L280.608,474.608 L282.464,475.28 C283.52,474.576 284.96,474.16 286.272,474.16 C289.184,474.16 291.392,476.08 291.392,478.8 C291.392,481.552 289.12,483.376 286.464,483.376 C284.128,483.376 282.464,482.128 281.504,480.944 L279.712,483.248 Z M306.112,486.384 C300.096,486.384 298.112,481.2 298.112,474.672 C298.112,468.176 300.096,463.024 306.112,463.024 C312.16,463.024 314.112,468.176 314.112,474.672 C314.112,481.2 312.16,486.384 306.112,486.384 Z M306.112,483.472 C309.824,483.472 310.848,479.632 310.848,474.672 C310.848,469.776 309.824,465.936 306.112,465.936 C302.432,465.936 301.376,469.776 301.376,474.672 C301.376,479.632 302.432,483.472 306.112,483.472 Z M325.472,477.904 C325.472,472.752 328.512,469.424 332.8,469.424 C334.848,469.424 336.8,470.352 337.824,472.08 L337.888,472.08 C337.888,472.08 337.824,471.6 337.824,470.992 L337.824,463.408 L340.896,463.408 L340.896,486 L337.952,486 L337.952,484.368 C337.952,483.728 338.048,483.28 338.048,483.28 L337.984,483.28 C337.056,485.04 335.168,486.384 332.608,486.384 C328.256,486.384 325.472,482.928 325.472,477.904 Z M328.64,477.904 C328.64,481.424 330.528,483.696 333.216,483.696 C335.616,483.696 337.888,481.968 337.888,477.872 C337.888,474.96 336.384,472.144 333.28,472.144 C330.752,472.144 328.64,474.224 328.64,477.904 Z M344.352,481.584 C344.352,476.496 350.656,475.92 354.016,475.92 L354.848,475.92 L354.848,475.6 C354.848,472.944 353.312,472.048 351.296,472.048 C349.696,472.048 348.064,472.688 346.752,473.616 L345.504,471.344 C346.816,470.256 349.28,469.424 351.552,469.424 C355.616,469.424 357.952,471.664 357.952,475.76 L357.952,486 L355.04,486 L355.04,484.368 C355.04,483.632 355.136,483.088 355.136,483.088 L355.072,483.088 C354.144,484.944 352.16,486.384 349.76,486.384 C346.944,486.384 344.352,484.624 344.352,481.584 Z M347.456,481.328 C347.456,482.608 348.48,483.92 350.496,483.92 C353.216,483.92 354.848,481.168 354.848,478.768 L354.848,478.16 L354.048,478.16 C351.744,478.16 347.456,478.352 347.456,481.328 Z M361.44,489.36 L360.352,491.728 C360.352,491.728 361.664,492.72 363.456,492.72 C365.728,492.72 367.744,491.44 368.704,488.912 L376.32,469.808 L372.96,469.808 L369.024,480.432 C368.736,481.264 368.48,482.352 368.48,482.352 L368.416,482.352 C368.416,482.352 368.128,481.2 367.808,480.4 L363.744,469.808 L360.256,469.808 L367.04,485.808 L366.24,487.664 C365.632,489.136 364.576,490.064 363.296,490.064 C362.336,490.064 361.44,489.36 361.44,489.36 Z" id="350-day" fill="#181920"></path>
                <path d="M261.088,549.952 L261.088,547.968 L271.552,533.408 L275.136,533.408 L275.136,547.296 L278.208,547.296 L278.208,549.952 L275.136,549.952 L275.136,556 L272.032,556 L272.032,549.952 L261.088,549.952 Z M264.576,547.296 L272.032,547.296 L272.032,539.04 C272.032,537.984 272.16,536.768 272.16,536.768 L272.096,536.768 C272.096,536.768 271.584,537.856 270.976,538.656 L264.576,547.232 L264.576,547.296 Z M281.088,553.248 C282.784,555.296 285.376,556.384 288.032,556.384 C292.576,556.384 296.032,553.12 296.032,548.8 C296.032,544.704 292.928,541.408 288.16,541.408 C287.072,541.408 285.76,541.792 285.216,542.08 L285.152,542.08 C285.152,542.08 285.28,541.632 285.344,540.928 L285.856,536.16 L294.528,536.16 L294.528,533.408 L283.104,533.408 L281.984,544.608 L283.84,545.28 C284.896,544.576 286.336,544.16 287.648,544.16 C290.56,544.16 292.768,546.08 292.768,548.8 C292.768,551.552 290.496,553.376 287.84,553.376 C285.504,553.376 283.84,552.128 282.88,550.944 L281.088,553.248 Z M306.944,547.904 C306.944,542.752 309.984,539.424 314.272,539.424 C316.32,539.424 318.272,540.352 319.296,542.08 L319.36,542.08 C319.36,542.08 319.296,541.6 319.296,540.992 L319.296,533.408 L322.368,533.408 L322.368,556 L319.424,556 L319.424,554.368 C319.424,553.728 319.52,553.28 319.52,553.28 L319.456,553.28 C318.528,555.04 316.64,556.384 314.08,556.384 C309.728,556.384 306.944,552.928 306.944,547.904 Z M310.112,547.904 C310.112,551.424 312,553.696 314.688,553.696 C317.088,553.696 319.36,551.968 319.36,547.872 C319.36,544.96 317.856,542.144 314.752,542.144 C312.224,542.144 310.112,544.224 310.112,547.904 Z M325.824,551.584 C325.824,546.496 332.128,545.92 335.488,545.92 L336.32,545.92 L336.32,545.6 C336.32,542.944 334.784,542.048 332.768,542.048 C331.168,542.048 329.536,542.688 328.224,543.616 L326.976,541.344 C328.288,540.256 330.752,539.424 333.024,539.424 C337.088,539.424 339.424,541.664 339.424,545.76 L339.424,556 L336.512,556 L336.512,554.368 C336.512,553.632 336.608,553.088 336.608,553.088 L336.544,553.088 C335.616,554.944 333.632,556.384 331.232,556.384 C328.416,556.384 325.824,554.624 325.824,551.584 Z M328.928,551.328 C328.928,552.608 329.952,553.92 331.968,553.92 C334.688,553.92 336.32,551.168 336.32,548.768 L336.32,548.16 L335.52,548.16 C333.216,548.16 328.928,548.352 328.928,551.328 Z M342.912,559.36 L341.824,561.728 C341.824,561.728 343.136,562.72 344.928,562.72 C347.2,562.72 349.216,561.44 350.176,558.912 L357.792,539.808 L354.432,539.808 L350.496,550.432 C350.208,551.264 349.952,552.352 349.952,552.352 L349.888,552.352 C349.888,552.352 349.6,551.2 349.28,550.4 L345.216,539.808 L341.728,539.808 L348.512,555.808 L347.712,557.664 C347.104,559.136 346.048,560.064 344.768,560.064 C343.808,560.064 342.912,559.36 342.912,559.36 Z" id="45-day" fill="#181920"></path>
                <path d="M461.856,416 L476.928,416 L476.928,412.448 L466.208,412.448 C466.4,408.16 476.576,406.912 476.576,399.616 C476.576,395.328 473.152,392.896 469.184,392.896 C465.536,392.896 462.976,395.008 461.664,397.44 L464.736,399.488 C465.568,398.016 467.104,396.8 468.832,396.8 C470.752,396.8 472.288,397.984 472.288,399.968 C472.288,404.48 461.664,405.792 461.664,413.984 C461.664,414.624 461.728,415.264 461.856,416 Z M489.408,416 L489.408,393.28 L497.152,393.28 C504.16,393.28 508.736,397.44 508.736,404.608 C508.736,411.776 504.16,416 497.152,416 L489.408,416 Z M493.536,412.448 L496.928,412.448 C501.536,412.448 504.48,409.728 504.48,404.608 C504.48,399.552 501.472,396.832 496.928,396.832 L493.536,396.832 L493.536,412.448 Z M512.992,416 L517.12,416 L517.12,406.464 L527.52,406.464 L527.52,416 L531.616,416 L531.616,393.28 L527.52,393.28 L527.52,402.912 L517.12,402.912 L517.12,393.28 L512.992,393.28 L512.992,416 Z M542.272,416 L546.368,416 L546.368,396.832 L553.824,396.832 L553.824,393.28 L534.816,393.28 L534.816,396.832 L542.272,396.832 L542.272,416 Z" id="2-DHT" fill="#303498"></path>
                <path d="M461.824,486 L474.848,486 L474.848,483.248 L469.888,483.248 L469.888,463.408 L467.072,463.408 L461.664,468.656 L463.584,470.64 L465.696,468.592 C466.528,467.76 466.784,467.28 466.784,467.28 L466.848,467.28 C466.848,467.28 466.816,467.952 466.816,468.656 L466.816,483.248 L461.824,483.248 L461.824,486 Z M476.512,479.952 L476.512,477.968 L486.976,463.408 L490.56,463.408 L490.56,477.296 L493.632,477.296 L493.632,479.952 L490.56,479.952 L490.56,486 L487.456,486 L487.456,479.952 L476.512,479.952 Z M480,477.296 L487.456,477.296 L487.456,469.04 C487.456,467.984 487.584,466.768 487.584,466.768 L487.52,466.768 C487.52,466.768 487.008,467.856 486.4,468.656 L480,477.232 L480,477.296 Z M505.92,486 L505.92,463.408 L513.44,463.408 C520.32,463.408 524.864,467.536 524.864,474.672 C524.864,481.84 520.32,486 513.44,486 L505.92,486 Z M509.088,483.248 L513.216,483.248 C518.272,483.248 521.6,480.272 521.6,474.672 C521.6,469.136 518.24,466.16 513.216,466.16 L509.088,466.16 L509.088,483.248 Z M529.504,486 L532.672,486 L532.672,476.08 L544.416,476.08 L544.416,486 L547.552,486 L547.552,463.408 L544.416,463.408 L544.416,473.328 L532.672,473.328 L532.672,463.408 L529.504,463.408 L529.504,486 Z M558.784,486 L561.92,486 L561.92,466.16 L569.696,466.16 L569.696,463.408 L551.008,463.408 L551.008,466.16 L558.784,466.16 L558.784,486 Z" id="14-DHT" fill="#181920"></path>
                <path d="M461.824,545.76 C461.824,539.936 464.992,533.024 471.968,533.024 C473.472,533.024 475.04,533.312 476.384,533.952 L475.36,536.672 C474.624,536.288 473.216,535.936 472.096,535.936 C468,535.936 465.824,539.776 465.344,543.52 L465.408,543.52 C466.368,542.24 468.416,541.408 470.4,541.408 C474.688,541.408 477.536,544.608 477.536,548.864 C477.536,553.216 474.496,556.384 470.272,556.384 C465.472,556.384 461.824,552.16 461.824,545.76 Z M470.368,553.472 C472.8,553.472 474.4,551.456 474.4,548.864 C474.4,546.048 472.672,544.064 469.76,544.064 C467.392,544.064 465.152,545.344 465.152,547.392 C465.152,549.824 467.136,553.472 470.368,553.472 Z M490.08,556 L490.08,533.408 L497.6,533.408 C504.48,533.408 509.024,537.536 509.024,544.672 C509.024,551.84 504.48,556 497.6,556 L490.08,556 Z M493.248,553.248 L497.376,553.248 C502.432,553.248 505.76,550.272 505.76,544.672 C505.76,539.136 502.4,536.16 497.376,536.16 L493.248,536.16 L493.248,553.248 Z M513.664,556 L516.832,556 L516.832,546.08 L528.576,546.08 L528.576,556 L531.712,556 L531.712,533.408 L528.576,533.408 L528.576,543.328 L516.832,543.328 L516.832,533.408 L513.664,533.408 L513.664,556 Z M542.944,556 L546.08,556 L546.08,536.16 L553.856,536.16 L553.856,533.408 L535.168,533.408 L535.168,536.16 L542.944,536.16 L542.944,556 Z" id="6-DHT" fill="#181920"></path>
                <path d="M62.976,486 L66.144,486 L66.144,463.408 L62.976,463.408 L62.976,486 Z M70.752,474.576 C70.752,481.2 75.328,486.384 82.336,486.384 C86.336,486.384 89.152,484.72 91.072,482.8 L89.376,480.528 C87.552,482.352 84.96,483.472 82.432,483.472 C77.184,483.472 74.016,479.344 74.016,474.544 C74.016,469.776 77.12,465.904 82.368,465.904 C84.704,465.904 87.232,466.896 88.896,468.368 L90.496,466 C88.32,463.92 85.152,463.024 82.24,463.024 C75.52,463.024 70.752,468.016 70.752,474.576 Z M93.088,474.544 C93.088,468.048 97.984,463.024 104.704,463.024 C111.424,463.024 116.288,468.048 116.288,474.544 C116.288,481.2 111.424,486.384 104.704,486.384 C97.984,486.384 93.088,481.2 93.088,474.544 Z M96.352,474.544 C96.352,479.6 99.872,483.472 104.704,483.472 C109.504,483.472 113.024,479.6 113.024,474.544 C113.024,469.648 109.504,465.904 104.704,465.904 C99.872,465.904 96.352,469.648 96.352,474.544 Z M128.832,486 L128.832,463.408 L136.736,463.408 C140.576,463.408 143.296,465.52 143.296,469.168 C143.296,471.376 142.208,473.136 140.48,474.032 L140.48,474.096 C142.88,474.8 144.224,477.04 144.224,479.568 C144.224,483.824 140.896,486 136.928,486 L128.832,486 Z M132,472.912 L136.736,472.912 C138.784,472.912 140.064,471.472 140.064,469.488 C140.064,467.504 138.848,466.16 136.704,466.16 L132,466.16 L132,472.912 Z M132,483.248 L137.088,483.248 C139.52,483.248 140.96,481.712 140.96,479.376 C140.96,477.104 139.456,475.536 137.088,475.536 L132,475.536 L132,483.248 Z" id="ICO-B" fill="#181920"></path>
                <path d="M62.976,556 L66.144,556 L66.144,533.408 L62.976,533.408 L62.976,556 Z M70.752,544.576 C70.752,551.2 75.328,556.384 82.336,556.384 C86.336,556.384 89.152,554.72 91.072,552.8 L89.376,550.528 C87.552,552.352 84.96,553.472 82.432,553.472 C77.184,553.472 74.016,549.344 74.016,544.544 C74.016,539.776 77.12,535.904 82.368,535.904 C84.704,535.904 87.232,536.896 88.896,538.368 L90.496,536 C88.32,533.92 85.152,533.024 82.24,533.024 C75.52,533.024 70.752,538.016 70.752,544.576 Z M93.088,544.544 C93.088,538.048 97.984,533.024 104.704,533.024 C111.424,533.024 116.288,538.048 116.288,544.544 C116.288,551.2 111.424,556.384 104.704,556.384 C97.984,556.384 93.088,551.2 93.088,544.544 Z M96.352,544.544 C96.352,549.6 99.872,553.472 104.704,553.472 C109.504,553.472 113.024,549.6 113.024,544.544 C113.024,539.648 109.504,535.904 104.704,535.904 C99.872,535.904 96.352,539.648 96.352,544.544 Z M127.456,544.576 C127.456,551.2 132.032,556.384 139.04,556.384 C143.04,556.384 145.856,554.72 147.776,552.8 L146.08,550.528 C144.256,552.352 141.664,553.472 139.136,553.472 C133.888,553.472 130.72,549.344 130.72,544.544 C130.72,539.776 133.824,535.904 139.072,535.904 C141.408,535.904 143.936,536.896 145.6,538.368 L147.2,536 C145.024,533.92 141.856,533.024 138.944,533.024 C132.224,533.024 127.456,538.016 127.456,544.576 Z" id="ICO-C" fill="#181920"></path>
                <path d="M2.752,36 L6.848,36 L15.488,22.912 C16.32,21.568 17.376,19.392 17.376,19.392 L17.44,19.392 C17.44,19.392 17.216,21.568 17.216,22.912 L17.216,36 L21.312,36 L21.312,13.28 L17.216,13.28 L8.64,26.368 C7.808,27.712 6.72,29.92 6.72,29.92 L6.656,29.92 C6.656,29.92 6.88,27.744 6.88,26.4 L6.88,13.28 L2.752,13.28 L2.752,36 Z M26.08,36 L30.144,36 L30.144,29.408 L37.12,29.408 L37.12,36 L41.184,36 L41.184,19.68 L37.12,19.68 L37.12,25.984 L30.144,25.984 L30.144,19.68 L26.08,19.68 L26.08,36 Z M45.536,36 L45.536,19.68 L53.12,19.68 C56.416,19.68 58.624,21.152 58.624,23.904 C58.624,25.408 57.856,26.816 56.48,27.488 L56.48,27.52 C58.432,28.032 59.36,29.632 59.36,31.264 C59.36,34.528 56.704,36 53.28,36 L45.536,36 Z M49.6,26.4 L52.256,26.4 C53.792,26.4 54.528,25.504 54.528,24.256 C54.528,23.072 53.792,22.336 52.192,22.336 L49.6,22.336 L49.6,26.4 Z M49.6,33.312 L52.576,33.312 C54.4,33.312 55.264,32.384 55.264,31.136 C55.264,29.824 54.336,28.928 52.576,28.928 L49.6,28.928 L49.6,33.312 Z M61.76,27.84 C61.76,22.816 65.184,19.296 70.08,19.296 C74.752,19.296 77.312,22.72 77.312,27.04 C77.312,27.552 77.248,28.096 77.184,28.608 L65.952,28.608 C66.208,31.456 68.384,32.928 70.848,32.928 C72.512,32.928 74.208,32.192 75.52,31.136 L77.12,34.048 C75.456,35.52 72.896,36.384 70.56,36.384 C65.152,36.384 61.76,32.48 61.76,27.84 Z M66.048,25.824 L73.248,25.824 C73.216,23.648 71.808,22.368 69.984,22.368 C67.904,22.368 66.432,23.744 66.048,25.824 Z M79.712,27.84 C79.712,32.576 83.168,36.384 88.576,36.384 C91.2,36.384 93.76,35.36 95.296,33.728 L93.728,30.848 C92.512,32.032 90.656,32.928 88.928,32.928 C85.792,32.928 83.84,30.56 83.84,27.808 C83.84,25.024 85.792,22.752 88.8,22.752 C90.4,22.752 92,23.488 93.024,24.512 L94.848,21.728 C93.28,20.032 90.784,19.296 88.576,19.296 C83.168,19.296 79.712,23.2 79.712,27.84 Z M102.048,36 L106.08,36 L106.08,23.136 L111.488,23.136 L111.488,19.68 L96.672,19.68 L96.672,23.136 L102.048,23.136 L102.048,36 Z M112.832,27.84 C112.832,22.848 116.832,19.296 121.76,19.296 C126.752,19.296 130.752,22.848 130.752,27.84 C130.752,32.864 126.752,36.384 121.792,36.384 C116.832,36.384 112.832,32.864 112.832,27.84 Z M116.96,27.84 C116.96,30.88 119.136,32.928 121.792,32.928 C124.448,32.928 126.656,30.88 126.656,27.84 C126.656,24.832 124.448,22.752 121.792,22.752 C119.136,22.752 116.96,24.832 116.96,27.84 Z M138.463035,21.192326 L137.824,20.868878 L137.824,20.896 C137.824,21.504 137.76,22.048 137.76,22.048 L137.824,22.048 C138.009615,21.738642 138.223901,21.4530118 138.463035,21.192326 Z M137.824,20.868878 L138.463035,21.192326 C139.584382,19.9699176 141.252104,19.296 143.072,19.296 C147.488,19.296 150.304,22.784 150.304,27.84 C150.304,33.024 147.136,36.384 142.848,36.384 C140.992,36.384 139.296,35.552 138.144,34.08 L138.08,34.08 C138.08,34.08 138.176,34.656 138.176,35.488 L138.176,42.4 L134.112,42.4 L134.112,19.68 L137.824,19.68 L137.824,20.868878 Z M138.048,27.936 C138.048,30.464 139.456,32.96 142.112,32.96 C144.352,32.96 146.208,31.136 146.208,27.904 C146.208,24.8 144.544,22.784 142.176,22.784 C140.032,22.784 138.048,24.32 138.048,27.936 Z" id="Инвестор" fill="#303498"></path>
            </g>
        </g>
    </g>
</svg>