<?xml version="1.0" encoding="UTF-8"?>
<svg width="960px" height="960px" viewBox="0 0 960 960" version="1.1" xmlns="http://www.w3.org/2000/svg" xmlns:xlink="http://www.w3.org/1999/xlink">
    <!-- Generator: Sketch 46.1 (44463) - http://www.bohemiancoding.com/sketch -->
    <title>scheme-2-en</title>
    <desc>Created with Sketch.</desc>
    <defs></defs>
    <g id="Main" stroke="none" stroke-width="1" fill="none" fill-rule="evenodd">
        <g id="scheme-2-en">
            <g id="Group-2" transform="translate(0.000000, 410.000000)">
                <g id="Group-4">
                    <path d="M4,4 L4,436 L716,436 L716,4 L4,4 Z" id="Rectangle-4" stroke="#F6F6F9" stroke-width="8"></path>
                    <path d="M62.752,66 L62.752,43.28 L70.496,43.28 C77.504,43.28 82.08,47.44 82.08,54.608 C82.08,61.776 77.504,66 70.496,66 L62.752,66 Z M66.88,62.448 L70.272,62.448 C74.88,62.448 77.824,59.728 77.824,54.608 C77.824,49.552 74.816,46.832 70.272,46.832 L66.88,46.832 L66.88,62.448 Z M84.768,57.84 C84.768,52.816 88.192,49.296 93.088,49.296 C97.76,49.296 100.32,52.72 100.32,57.04 C100.32,57.552 100.256,58.096 100.192,58.608 L88.96,58.608 C89.216,61.456 91.392,62.928 93.856,62.928 C95.52,62.928 97.216,62.192 98.528,61.136 L100.128,64.048 C98.464,65.52 95.904,66.384 93.568,66.384 C88.16,66.384 84.768,62.48 84.768,57.84 Z M89.056,55.824 L96.256,55.824 C96.224,53.648 94.816,52.368 92.992,52.368 C90.912,52.368 89.44,53.744 89.056,55.824 Z M104.032,66 L108.16,66 L108.16,56.464 L118.56,56.464 L118.56,66 L122.656,66 L122.656,43.28 L118.56,43.28 L118.56,52.912 L108.16,52.912 L108.16,43.28 L104.032,43.28 L104.032,66 Z M126.272,57.84 C126.272,52.816 129.696,49.296 134.592,49.296 C139.264,49.296 141.824,52.72 141.824,57.04 C141.824,57.552 141.76,58.096 141.696,58.608 L130.464,58.608 C130.72,61.456 132.896,62.928 135.36,62.928 C137.024,62.928 138.72,62.192 140.032,61.136 L141.632,64.048 C139.968,65.52 137.408,66.384 135.072,66.384 C129.664,66.384 126.272,62.48 126.272,57.84 Z M130.56,55.824 L137.76,55.824 C137.728,53.648 136.32,52.368 134.496,52.368 C132.416,52.368 130.944,53.744 130.56,55.824 Z M156.116641,64.3574664 L156.672,64.7184099 L156.672,64.592 C156.672,63.984 156.736,63.568 156.736,63.568 L156.672,63.568 C156.511328,63.8464975 156.325558,64.1106531 156.116641,64.3574664 Z M156.672,64.7184099 L156.116641,64.3574664 C155.077291,65.5853427 153.465032,66.384 151.52,66.384 C147.136,66.384 144.288,62.896 144.288,57.84 C144.288,52.656 147.36,49.296 151.68,49.296 C153.504,49.296 155.392,49.968 156.448,51.44 L156.512,51.44 C156.512,51.44 156.448,51.024 156.448,50.48 L156.448,43.28 L160.48,43.28 L160.48,66 L156.672,66 L156.672,64.7184099 Z M148.384,57.84 C148.384,60.944 150.048,62.96 152.448,62.96 C154.56,62.96 156.544,61.424 156.544,57.808 C156.544,55.28 155.232,52.784 152.48,52.784 C150.272,52.784 148.384,54.608 148.384,57.84 Z M175.327821,64.0664336 L175.84,64.3801958 L175.84,64.272 C175.84,63.888 175.904,63.408 175.904,63.408 L175.84,63.408 C175.68256,63.64416 175.51221,63.8639672 175.327821,64.0664336 Z M175.84,64.3801958 L175.327821,64.0664336 C174.387885,65.0985185 173.083136,65.68 171.264,65.68 C166.592,65.68 163.968,61.904 163.968,57.424 C163.968,52.944 166.464,49.296 171.168,49.296 C172.992,49.296 174.944,49.936 176.032,51.44 L176.128,51.44 C176.128,51.44 176.064,51.248 176.064,50.992 L176.064,49.68 L179.904,49.68 L179.904,65.008 C179.904,70.608 175.552,72.72 171.296,72.72 C169.248,72.72 167.072,72.144 165.472,71.312 L166.72,68.208 C168.032,68.848 169.632,69.264 171.232,69.264 C173.728,69.264 175.84,68.208 175.84,65.296 L175.84,64.3801958 Z M168.064,57.296 C168.064,60.144 169.504,62.256 172.16,62.256 C174.08,62.256 175.936,61.136 175.936,57.456 C175.936,53.744 174.08,52.752 171.904,52.752 C169.44,52.752 168.064,54.544 168.064,57.296 Z M183.264,57.84 C183.264,52.816 186.688,49.296 191.584,49.296 C196.256,49.296 198.816,52.72 198.816,57.04 C198.816,57.552 198.752,58.096 198.688,58.608 L187.456,58.608 C187.712,61.456 189.888,62.928 192.352,62.928 C194.016,62.928 195.712,62.192 197.024,61.136 L198.624,64.048 C196.96,65.52 194.4,66.384 192.064,66.384 C186.656,66.384 183.264,62.48 183.264,57.84 Z M187.552,55.824 L194.752,55.824 C194.72,53.648 193.312,52.368 191.488,52.368 C189.408,52.368 187.936,53.744 187.552,55.824 Z" id="DeHedge" fill="#303498"></path>
                    <path d="M61,109 L61,281 M61,297 L61,379 L659.000821,379" id="Path-5" stroke="#F6F6F9" stroke-width="4" stroke-linecap="round" stroke-linejoin="round"></path>
                    <path d="M618.52,410 L620.48,410 L620.48,397.6 L625.34,397.6 L625.34,395.88 L613.66,395.88 L613.66,397.6 L618.52,397.6 L618.52,410 Z M627.12,397.84 L629.12,397.84 L629.12,395.88 L627.12,395.88 L627.12,397.84 Z M627.16,410 L629.1,410 L629.1,399.88 L627.16,399.88 L627.16,410 Z M632.08,410 L634.02,410 L634.02,405.28 C634.02,403.4 635.14,401.4 637.06,401.4 C638.6,401.4 638.8,402.62 638.8,403.94 L638.8,410 L640.74,410 L640.74,405.28 C640.74,403.34 641.86,401.4 643.74,401.4 C645.24,401.4 645.52,402.52 645.52,403.94 L645.52,410 L647.46,410 L647.46,403.52 C647.46,400.94 646.42,399.64 644.12,399.64 C642.48,399.64 641.08,400.76 640.52,401.94 L640.48,401.94 C640.14,400.42 639.16,399.64 637.46,399.64 C635.86,399.64 634.42,400.84 633.94,402.02 L633.9,402.02 C633.9,402.02 633.96,401.68 633.96,401.26 L633.96,399.88 L632.08,399.88 L632.08,410 Z M649.7,404.94 C649.7,401.72 651.9,399.64 654.78,399.64 C657.64,399.64 659.16,401.78 659.16,404.38 C659.16,404.64 659.12,404.92 659.08,405.2 L651.72,405.2 C651.82,407.38 653.38,408.56 655.2,408.56 C656.28,408.56 657.38,408.1 658.18,407.38 L659,408.8 C658.02,409.7 656.48,410.24 655.08,410.24 C651.9,410.24 649.7,407.94 649.7,404.94 Z M651.78,403.8 L657.2,403.8 C657.14,402.06 656.06,401.14 654.74,401.14 C653.24,401.14 652.06,402.12 651.78,403.8 Z" id="Time" fill="#181920" opacity="0.5"></path>
                    <path d="M360,440 L360,534" id="Line" stroke="#F6F6F9" stroke-width="8" stroke-linecap="square"></path>
                    <path d="M280,542 L440,542" id="Line" stroke="#F6F6F9" stroke-width="8" stroke-linecap="round" stroke-linejoin="round"></path>
                </g>
                <path d="M483.752,66 L487.88,66 L487.88,43.28 L483.752,43.28 L483.752,66 Z M492.072,54.544 C492.072,61.232 496.68,66.384 503.816,66.384 C507.88,66.384 510.792,64.688 512.744,62.704 L510.568,59.728 C508.84,61.424 506.408,62.608 503.976,62.608 C499.048,62.608 496.328,58.736 496.328,54.48 C496.328,50.288 498.952,46.672 503.944,46.672 C506.152,46.672 508.552,47.696 510.152,49.072 L512.136,46 C509.928,43.856 506.728,42.896 503.752,42.896 C496.904,42.896 492.072,47.952 492.072,54.544 Z M514.376,54.48 C514.376,47.984 519.24,42.896 526.12,42.896 C533,42.896 537.864,47.984 537.864,54.48 C537.864,61.168 533,66.384 526.12,66.384 C519.24,66.384 514.376,61.168 514.376,54.48 Z M518.632,54.48 C518.632,59.088 521.768,62.608 526.12,62.608 C530.472,62.608 533.608,59.088 533.608,54.48 C533.608,50.064 530.472,46.672 526.12,46.672 C521.768,46.672 518.632,50.064 518.632,54.48 Z M546.568,66 L554.536,43.28 L558.888,43.28 L566.856,66 L562.632,66 L560.68,60.176 L552.712,60.176 L550.792,66 L546.568,66 Z M553.736,56.816 L559.656,56.816 L557.64,50.736 C557.256,49.456 556.744,47.216 556.744,47.216 L556.68,47.216 C556.68,47.216 556.168,49.456 555.784,50.736 L553.736,56.816 Z" id="ICO-A" fill="#FF674C"></path>
                <path d="" id="Path-6" stroke="#979797" stroke-width="2"></path>
                <path d="M68,288 L642,288" id="Path-8" stroke="#F6F6F9" stroke-width="4" stroke-linecap="round" stroke-linejoin="round"></path>
                <path d="M182.933811,231.340278 L199.652707,238.112489 C218.147703,245.604133 239.078671,244.040438 256.255218,233.883871 L314.210533,199.614641 C336.688424,186.323366 364.987035,188.021477 385.714217,203.905353 C421.904739,231.639261 440,276.337477 440,338" id="Path-7" stroke="#FF674C" stroke-width="4" stroke-linejoin="round"></path>
                <path d="M67.528004,288.366461 C94,289 106.80308,249.850916 124,238.112489 C152,219 170.621402,226.352973 182.933811,231.340278 L199.652707,238.112489 C218.147703,245.604133 239.078671,244.040438 256.255218,233.883871 L314.210533,199.614641 C336.688424,186.323366 364.987035,188.021477 385.714217,203.905353 C411.120575,223.375025 427.609087,251.205179 435.179752,287.395815" id="Path-7" stroke="#303498" stroke-width="4" stroke-linejoin="round"></path>
                <circle id="Oval" stroke="#FF674C" stroke-width="4" cx="440" cy="346" r="8"></circle>
                <circle id="Oval-Copy" stroke="#303498" stroke-width="4" cx="60" cy="289.200012" r="8"></circle>
                <path d="M-11.32,174.5 L-11.32,162.1 L-16.18,162.1 L-16.18,160.38 L-4.5,160.38 L-4.5,162.1 L-9.36,162.1 L-9.36,174.5 L-11.32,174.5 Z M-5.26,169.42 C-5.26,166.36 -2.82,164.14 0.18,164.14 C3.2,164.14 5.64,166.36 5.64,169.42 C5.64,172.5 3.2,174.74 0.2,174.74 C-2.82,174.74 -5.26,172.5 -5.26,169.42 Z M-3.28,169.42 C-3.28,171.54 -1.72,173.06 0.2,173.06 C2.1,173.06 3.68,171.54 3.68,169.42 C3.68,167.32 2.1,165.82 0.2,165.82 C-1.72,165.82 -3.28,167.32 -3.28,169.42 Z M7.98,174.5 L9.92,174.5 L9.92,169.76 L11.4,169.76 L14.42,174.5 L16.68,174.5 L12.94,168.88 L12.94,168.84 L16.3,164.38 L14.1,164.38 L11.36,168.1 L9.92,168.1 L9.92,160.38 L7.98,160.38 L7.98,174.5 Z M17.36,169.44 C17.36,166.22 19.56,164.14 22.44,164.14 C25.3,164.14 26.82,166.28 26.82,168.88 C26.82,169.14 26.78,169.42 26.74,169.7 L19.38,169.7 C19.48,171.88 21.04,173.06 22.86,173.06 C23.94,173.06 25.04,172.6 25.84,171.88 L26.66,173.3 C25.68,174.2 24.14,174.74 22.74,174.74 C19.56,174.74 17.36,172.44 17.36,169.44 Z M19.44,168.3 L24.86,168.3 C24.8,166.56 23.72,165.64 22.4,165.64 C20.9,165.64 19.72,166.62 19.44,168.3 Z M29.16,174.5 L31.1,174.5 L31.1,169.64 C31.1,167.56 32.5,165.92 34.48,165.92 C36.1,165.92 36.38,167.04 36.38,168.46 L36.38,174.5 L38.32,174.5 L38.32,168.02 C38.32,165.44 37.24,164.14 34.86,164.14 C32.64,164.14 31.4,165.64 31.02,166.52 L30.98,166.52 C30.98,166.52 31.04,166.18 31.04,165.76 L31.04,164.38 L29.16,164.38 L29.16,174.5 Z M46.22,178.5 L46.22,164.38 L48.02,164.38 L48.02,165.28 C48.02,165.7 47.96,166.04 47.96,166.04 L48,166.04 C48.64,164.82 49.92,164.14 51.4,164.14 C54.14,164.14 55.84,166.3 55.84,169.44 C55.84,172.66 53.92,174.74 51.26,174.74 C49.98,174.74 48.82,174.1 48.12,173.02 L48.08,173.02 C48.08,173.02 48.16,173.38 48.16,173.9 L48.16,178.5 L46.22,178.5 Z M48.1,169.48 C48.1,171.28 49.1,173.06 50.96,173.06 C52.56,173.06 53.88,171.76 53.88,169.46 C53.88,167.26 52.7,165.84 51.02,165.84 C49.5,165.84 48.1,166.92 48.1,169.48 Z M58.24,174.5 L60.18,174.5 L60.18,170.3 C60.18,168.34 61.1,166.18 63.28,166.18 C63.48,166.18 63.76,166.2 63.84,166.22 L63.84,164.3 C63.68,164.28 63.5,164.26 63.32,164.26 C61.76,164.26 60.58,165.48 60.1,166.94 L60.06,166.94 C60.06,166.94 60.12,166.62 60.12,166.2 L60.12,164.38 L58.24,164.38 L58.24,174.5 Z M65.72,162.34 L67.72,162.34 L67.72,160.38 L65.72,160.38 L65.72,162.34 Z M65.76,174.5 L67.7,174.5 L67.7,164.38 L65.76,164.38 L65.76,174.5 Z M70.02,169.44 C70.02,172.48 72.24,174.74 75.44,174.74 C77.02,174.74 78.56,174.1 79.48,173.12 L78.7,171.7 C77.92,172.52 76.7,173.06 75.58,173.06 C73.48,173.06 72,171.48 72,169.42 C72,167.36 73.48,165.82 75.52,165.82 C76.58,165.82 77.64,166.3 78.32,166.98 L79.24,165.62 C78.28,164.6 76.78,164.14 75.44,164.14 C72.26,164.14 70.02,166.44 70.02,169.44 Z M80.7,169.44 C80.7,166.22 82.9,164.14 85.78,164.14 C88.64,164.14 90.16,166.28 90.16,168.88 C90.16,169.14 90.12,169.42 90.08,169.7 L82.72,169.7 C82.82,171.88 84.38,173.06 86.2,173.06 C87.28,173.06 88.38,172.6 89.18,171.88 L90,173.3 C89.02,174.2 87.48,174.74 86.08,174.74 C82.9,174.74 80.7,172.44 80.7,169.44 Z M82.78,168.3 L88.2,168.3 C88.14,166.56 87.06,165.64 85.74,165.64 C84.24,165.64 83.06,166.62 82.78,168.3 Z" id="Token-price" fill="#181920" opacity="0.5" transform="translate(36.990000, 169.440000) rotate(-90.000000) translate(-36.990000, -169.440000) "></path>
                <path d="M578.432,60.08 C578.432,65.488 582.56,66.16 584.64,66.16 C585.12,66.16 585.472,66.096 585.728,66.064 L585.728,63.312 C585.408,63.376 585.216,63.376 584.992,63.376 C583.808,63.376 581.536,62.96 581.536,59.728 L581.536,52.496 L585.44,52.496 L585.44,49.968 L581.536,49.968 L581.536,45.36 L578.496,45.36 L578.496,49.968 L576.32,49.968 L576.32,52.496 L578.432,52.496 L578.432,60.08 Z M587.68,57.872 C587.68,52.976 591.584,49.424 596.384,49.424 C601.216,49.424 605.12,52.976 605.12,57.872 C605.12,62.8 601.216,66.384 596.416,66.384 C591.584,66.384 587.68,62.8 587.68,57.872 Z M590.848,57.872 C590.848,61.264 593.344,63.696 596.416,63.696 C599.456,63.696 601.984,61.264 601.984,57.872 C601.984,54.512 599.456,52.112 596.416,52.112 C593.344,52.112 590.848,54.512 590.848,57.872 Z M608.864,66 L611.968,66 L611.968,58.416 L614.336,58.416 L619.168,66 L622.784,66 L616.8,57.008 L616.8,56.944 L622.176,49.808 L618.656,49.808 L614.272,55.76 L611.968,55.76 L611.968,43.408 L608.864,43.408 L608.864,66 Z M623.872,57.904 C623.872,52.752 627.392,49.424 632,49.424 C636.576,49.424 639.008,52.848 639.008,57.008 C639.008,57.424 638.944,57.872 638.88,58.32 L627.104,58.32 C627.264,61.808 629.76,63.696 632.672,63.696 C634.4,63.696 636.16,62.96 637.44,61.808 L638.752,64.08 C637.184,65.52 634.72,66.384 632.48,66.384 C627.392,66.384 623.872,62.704 623.872,57.904 Z M627.2,56.08 L635.872,56.08 C635.776,53.296 634.048,51.824 631.936,51.824 C629.536,51.824 627.648,53.392 627.2,56.08 Z M642.752,66 L645.856,66 L645.856,58.224 C645.856,54.896 648.096,52.272 651.264,52.272 C653.856,52.272 654.304,54.064 654.304,56.336 L654.304,66 L657.408,66 L657.408,55.632 C657.408,51.504 655.68,49.424 651.872,49.424 C648.32,49.424 646.336,51.824 645.728,53.232 L645.664,53.232 C645.664,53.232 645.76,52.688 645.76,52.016 L645.76,49.808 L642.752,49.808 L642.752,66 Z" id="token" fill="#181920"></path>
                <path d="M533.7,203 L533.7,188.88 L538.4,188.88 C542.7,188.88 545.54,191.46 545.54,195.92 C545.54,200.4 542.7,203 538.4,203 L533.7,203 Z M535.68,201.28 L538.26,201.28 C541.42,201.28 543.5,199.42 543.5,195.92 C543.5,192.46 541.4,190.6 538.26,190.6 L535.68,190.6 L535.68,201.28 Z M547.08,200.24 C547.08,197.06 551.02,196.7 553.12,196.7 L553.64,196.7 L553.64,196.5 C553.64,194.84 552.68,194.28 551.42,194.28 C550.42,194.28 549.4,194.68 548.58,195.26 L547.8,193.84 C548.62,193.16 550.16,192.64 551.58,192.64 C554.12,192.64 555.58,194.04 555.58,196.6 L555.58,203 L553.76,203 L553.76,201.98 C553.76,201.52 553.82,201.18 553.82,201.18 L553.78,201.18 C553.2,202.34 551.96,203.24 550.46,203.24 C548.7,203.24 547.08,202.14 547.08,200.24 Z M549.02,200.08 C549.02,200.88 549.66,201.7 550.92,201.7 C552.62,201.7 553.64,199.98 553.64,198.48 L553.64,198.1 L553.14,198.1 C551.7,198.1 549.02,198.22 549.02,200.08 Z M558.88,199.3 C558.88,202.68 561.46,203.1 562.76,203.1 C563.06,203.1 563.28,203.06 563.44,203.04 L563.44,201.32 C563.24,201.36 563.12,201.36 562.98,201.36 C562.24,201.36 560.82,201.1 560.82,199.08 L560.82,194.56 L563.26,194.56 L563.26,192.98 L560.82,192.98 L560.82,190.1 L558.92,190.1 L558.92,192.98 L557.56,192.98 L557.56,194.56 L558.88,194.56 L558.88,199.3 Z M564.68,197.94 C564.68,194.72 566.88,192.64 569.76,192.64 C572.62,192.64 574.14,194.78 574.14,197.38 C574.14,197.64 574.1,197.92 574.06,198.2 L566.7,198.2 C566.8,200.38 568.36,201.56 570.18,201.56 C571.26,201.56 572.36,201.1 573.16,200.38 L573.98,201.8 C573,202.7 571.46,203.24 570.06,203.24 C566.88,203.24 564.68,200.94 564.68,197.94 Z M566.76,196.8 L572.18,196.8 C572.12,195.06 571.04,194.14 569.72,194.14 C568.22,194.14 567.04,195.12 566.76,196.8 Z M580.82,197.92 C580.82,194.86 583.26,192.64 586.26,192.64 C589.28,192.64 591.72,194.86 591.72,197.92 C591.72,201 589.28,203.24 586.28,203.24 C583.26,203.24 580.82,201 580.82,197.92 Z M582.8,197.92 C582.8,200.04 584.36,201.56 586.28,201.56 C588.18,201.56 589.76,200.04 589.76,197.92 C589.76,195.82 588.18,194.32 586.28,194.32 C584.36,194.32 582.8,195.82 582.8,197.92 Z M594.42,203 L596.36,203 L596.36,194.56 L598.74,194.56 L598.74,192.98 L596.36,192.98 L596.36,192.56 C596.36,190.7 597.72,190.48 598.48,190.48 C598.7,190.48 598.9,190.5 598.98,190.52 L598.98,188.84 C598.72,188.8 598.5,188.78 598.24,188.78 C596.96,188.78 594.42,189.2 594.42,192.54 L594.42,192.98 L593.16,192.98 L593.16,194.56 L594.42,194.56 L594.42,203 Z M604.64,197.94 C604.64,194.72 606.84,192.64 609.72,192.64 C612.58,192.64 614.1,194.78 614.1,197.38 C614.1,197.64 614.06,197.92 614.02,198.2 L606.66,198.2 C606.76,200.38 608.32,201.56 610.14,201.56 C611.22,201.56 612.32,201.1 613.12,200.38 L613.94,201.8 C612.96,202.7 611.42,203.24 610.02,203.24 C606.84,203.24 604.64,200.94 604.64,197.94 Z M606.72,196.8 L612.14,196.8 C612.08,195.06 611,194.14 609.68,194.14 C608.18,194.14 607,195.12 606.72,196.8 Z M615.2,203 L617.4,203 L619.52,199.62 C619.68,199.38 619.82,199.08 619.82,199.08 L619.86,199.08 C619.86,199.08 620.02,199.38 620.18,199.62 L622.3,203 L624.5,203 L621.04,197.8 L624.3,192.88 L622.08,192.88 L620.2,195.96 C620.06,196.22 619.86,196.56 619.86,196.56 L619.82,196.56 C619.82,196.56 619.64,196.22 619.5,195.96 L617.62,192.88 L615.4,192.88 L618.66,197.8 L615.2,203 Z M626.34,207 L626.34,192.88 L628.14,192.88 L628.14,193.78 C628.14,194.2 628.08,194.54 628.08,194.54 L628.12,194.54 C628.76,193.32 630.04,192.64 631.52,192.64 C634.26,192.64 635.96,194.8 635.96,197.94 C635.96,201.16 634.04,203.24 631.38,203.24 C630.1,203.24 628.94,202.6 628.24,201.52 L628.2,201.52 C628.2,201.52 628.28,201.88 628.28,202.4 L628.28,207 L626.34,207 Z M628.22,197.98 C628.22,199.78 629.22,201.56 631.08,201.56 C632.68,201.56 634,200.26 634,197.96 C634,195.76 632.82,194.34 631.14,194.34 C629.62,194.34 628.22,195.42 628.22,197.98 Z M638.32,190.84 L640.32,190.84 L640.32,188.88 L638.32,188.88 L638.32,190.84 Z M638.36,203 L640.3,203 L640.3,192.88 L638.36,192.88 L638.36,203 Z M643.28,203 L645.22,203 L645.22,198.8 C645.22,196.84 646.14,194.68 648.32,194.68 C648.52,194.68 648.8,194.7 648.88,194.72 L648.88,192.8 C648.72,192.78 648.54,192.76 648.36,192.76 C646.8,192.76 645.62,193.98 645.14,195.44 L645.1,195.44 C645.1,195.44 645.16,195.12 645.16,194.7 L645.16,192.88 L643.28,192.88 L643.28,203 Z M650.3,205.1 L649.62,206.58 C649.62,206.58 650.44,207.2 651.56,207.2 C652.98,207.2 654.24,206.4 654.84,204.82 L659.6,192.88 L657.5,192.88 L655.04,199.52 C654.86,200.04 654.7,200.72 654.7,200.72 L654.66,200.72 C654.66,200.72 654.48,200 654.28,199.5 L651.74,192.88 L649.56,192.88 L653.8,202.88 L653.3,204.04 C652.92,204.96 652.26,205.54 651.46,205.54 C650.86,205.54 650.3,205.1 650.3,205.1 Z" id="Date-of-expiry" fill="#181920" opacity="0.5"></path>
            </g>
            <g id="Group" transform="translate(321.000000, 29.000000)" stroke="#303498" stroke-width="2" stroke-linecap="round" stroke-linejoin="round">
                <polyline id="Line-2" transform="translate(281.000000, 107.000000) rotate(-180.000000) translate(-281.000000, -107.000000) " points="271 112 281.078526 102 291 112"></polyline>
                <path d="M0,-8.67361738e-19 L179.418076,0 L179.418076,-1.27897692e-13 C235.749146,-8.82132908e-14 281.414501,45.6653549 281.414501,101.996425 C281.414501,105.0479 281.277562,108.097838 281.004098,111.137034 L281.004098,111.137034" id="Path-9"></path>
            </g>
            <g id="Group-5" opacity="0.5" transform="translate(620.000000, 339.000000)"></g>
            <path d="M1.824,37 L14.848,37 L14.848,34.248 L9.888,34.248 L9.888,14.408 L7.072,14.408 L1.664,19.656 L3.584,21.64 L5.696,19.592 C6.528,18.76 6.784,18.28 6.784,18.28 L6.848,18.28 C6.848,18.28 6.816,18.952 6.816,19.656 L6.816,34.248 L1.824,34.248 L1.824,37 Z" id="Path" fill-opacity="0.5" fill="#181920"></path>
            <polygon id="Path" fill-opacity="0.5" fill="#181920" points="18.048 37 21.376 37 21.376 33.64 18.048 33.64"></polygon>
            <path d="M34.592,37 L34.592,14.408 L41.76,14.408 C43.936,14.408 45.024,14.6 45.952,15.016 C48.128,15.976 49.536,18.056 49.536,20.936 C49.536,23.816 47.968,26.312 45.504,27.144 L45.504,27.208 C45.504,27.208 45.76,27.528 46.144,28.232 L50.944,37 L47.36,37 L42.592,28.008 L37.76,28.008 L37.76,37 L34.592,37 Z M37.76,25.256 L42.304,25.256 C44.768,25.256 46.336,23.592 46.336,21.096 C46.336,19.464 45.632,18.152 44.224,17.544 C43.648,17.288 42.944,17.16 41.504,17.16 L37.76,17.16 L37.76,25.256 Z M52.768,32.584 C52.768,27.496 59.072,26.92 62.432,26.92 L63.264,26.92 L63.264,26.6 C63.264,23.944 61.728,23.048 59.712,23.048 C58.112,23.048 56.48,23.688 55.168,24.616 L53.92,22.344 C55.232,21.256 57.696,20.424 59.968,20.424 C64.032,20.424 66.368,22.664 66.368,26.76 L66.368,37 L63.456,37 L63.456,35.368 C63.456,34.632 63.552,34.088 63.552,34.088 L63.488,34.088 C62.56,35.944 60.576,37.384 58.176,37.384 C55.36,37.384 52.768,35.624 52.768,32.584 Z M55.872,32.328 C55.872,33.608 56.896,34.92 58.912,34.92 C61.632,34.92 63.264,32.168 63.264,29.768 L63.264,29.16 L62.464,29.16 C60.16,29.16 55.872,29.352 55.872,32.328 Z M71.648,31.08 C71.648,36.488 75.776,37.16 77.856,37.16 C78.336,37.16 78.688,37.096 78.944,37.064 L78.944,34.312 C78.624,34.376 78.432,34.376 78.208,34.376 C77.024,34.376 74.752,33.96 74.752,30.728 L74.752,23.496 L78.656,23.496 L78.656,20.968 L74.752,20.968 L74.752,16.36 L71.712,16.36 L71.712,20.968 L69.536,20.968 L69.536,23.496 L71.648,23.496 L71.648,31.08 Z M80.928,28.904 C80.928,23.752 84.448,20.424 89.056,20.424 C93.632,20.424 96.064,23.848 96.064,28.008 C96.064,28.424 96,28.872 95.936,29.32 L84.16,29.32 C84.32,32.808 86.816,34.696 89.728,34.696 C91.456,34.696 93.216,33.96 94.496,32.808 L95.808,35.08 C94.24,36.52 91.776,37.384 89.536,37.384 C84.448,37.384 80.928,33.704 80.928,28.904 Z M84.256,27.08 L92.928,27.08 C92.832,24.296 91.104,22.824 88.992,22.824 C86.592,22.824 84.704,24.392 84.256,27.08 Z M108.576,37 L111.68,37 L111.68,23.496 L115.488,23.496 L115.488,20.968 L111.68,20.968 L111.68,20.296 C111.68,17.32 113.856,16.968 115.072,16.968 C115.424,16.968 115.744,17 115.872,17.032 L115.872,14.344 C115.456,14.28 115.104,14.248 114.688,14.248 C112.64,14.248 108.576,14.92 108.576,20.264 L108.576,20.968 L106.56,20.968 L106.56,23.496 L108.576,23.496 L108.576,37 Z M117.184,32.584 C117.184,27.496 123.488,26.92 126.848,26.92 L127.68,26.92 L127.68,26.6 C127.68,23.944 126.144,23.048 124.128,23.048 C122.528,23.048 120.896,23.688 119.584,24.616 L118.336,22.344 C119.648,21.256 122.112,20.424 124.384,20.424 C128.448,20.424 130.784,22.664 130.784,26.76 L130.784,37 L127.872,37 L127.872,35.368 C127.872,34.632 127.968,34.088 127.968,34.088 L127.904,34.088 C126.976,35.944 124.992,37.384 122.592,37.384 C119.776,37.384 117.184,35.624 117.184,32.584 Z M120.288,32.328 C120.288,33.608 121.312,34.92 123.328,34.92 C126.048,34.92 127.68,32.168 127.68,29.768 L127.68,29.16 L126.88,29.16 C124.576,29.16 120.288,29.352 120.288,32.328 Z M135.392,32.552 C135.392,36.648 137.952,37.16 139.744,37.16 C140.192,37.16 140.544,37.096 140.768,37.064 L140.768,34.312 C140.576,34.344 140.352,34.344 140.224,34.344 C139.264,34.344 138.464,33.96 138.464,32.04 L138.464,14.408 L135.392,14.408 L135.392,32.552 Z M143.936,32.552 C143.936,36.648 146.496,37.16 148.288,37.16 C148.736,37.16 149.088,37.096 149.312,37.064 L149.312,34.312 C149.12,34.344 148.896,34.344 148.768,34.344 C147.808,34.344 147.008,33.96 147.008,32.04 L147.008,14.408 L143.936,14.408 L143.936,32.552 Z M152.416,17.544 L155.616,17.544 L155.616,14.408 L152.416,14.408 L152.416,17.544 Z M152.48,37 L155.584,37 L155.584,20.808 L152.48,20.808 L152.48,37 Z M160.352,37 L163.456,37 L163.456,29.224 C163.456,25.896 165.696,23.272 168.864,23.272 C171.456,23.272 171.904,25.064 171.904,27.336 L171.904,37 L175.008,37 L175.008,26.632 C175.008,22.504 173.28,20.424 169.472,20.424 C165.92,20.424 163.936,22.824 163.328,24.232 L163.264,24.232 C163.264,24.232 163.36,23.688 163.36,23.016 L163.36,20.808 L160.352,20.808 L160.352,37 Z M181.184,39.944 C182.464,40.584 184.064,41.032 185.632,41.032 C188.448,41.032 190.752,39.752 190.752,36.52 L190.752,35.208 C190.752,34.696 190.848,34.184 190.848,34.184 L190.784,34.184 C189.824,35.784 188.256,36.808 185.92,36.808 C181.408,36.808 178.688,33.192 178.688,28.552 C178.688,23.88 181.248,20.424 185.76,20.424 C187.776,20.424 189.856,21.16 190.88,22.888 L190.976,22.888 C190.976,22.888 190.88,22.696 190.88,22.408 L190.88,20.808 L193.856,20.808 L193.856,36.328 C193.856,41.672 189.792,43.72 185.696,43.72 C183.744,43.72 181.76,43.176 180.16,42.376 L181.184,39.944 Z M181.824,28.456 C181.824,31.816 183.616,34.12 186.528,34.12 C188.768,34.12 190.816,32.776 190.816,28.552 C190.816,24.328 188.768,23.112 186.24,23.112 C183.456,23.112 181.824,25.16 181.824,28.456 Z M206.656,37 L209.76,37 L209.76,29.224 C209.76,25.896 212,23.272 215.168,23.272 C217.76,23.272 218.208,25.064 218.208,27.336 L218.208,37 L221.312,37 L221.312,26.632 C221.312,22.504 219.584,20.424 215.776,20.424 C212.224,20.424 210.24,22.824 209.632,24.232 L209.568,24.232 C209.568,24.232 209.664,23.688 209.664,23.016 L209.664,20.808 L206.656,20.808 L206.656,37 Z M224.896,28.872 C224.896,23.976 228.8,20.424 233.6,20.424 C238.432,20.424 242.336,23.976 242.336,28.872 C242.336,33.8 238.432,37.384 233.632,37.384 C228.8,37.384 224.896,33.8 224.896,28.872 Z M228.064,28.872 C228.064,32.264 230.56,34.696 233.632,34.696 C236.672,34.696 239.2,32.264 239.2,28.872 C239.2,25.512 236.672,23.112 233.632,23.112 C230.56,23.112 228.064,25.512 228.064,28.872 Z M246.56,31.08 C246.56,36.488 250.688,37.16 252.768,37.16 C253.248,37.16 253.6,37.096 253.856,37.064 L253.856,34.312 C253.536,34.376 253.344,34.376 253.12,34.376 C251.936,34.376 249.664,33.96 249.664,30.728 L249.664,23.496 L253.568,23.496 L253.568,20.968 L249.664,20.968 L249.664,16.36 L246.624,16.36 L246.624,20.968 L244.448,20.968 L244.448,23.496 L246.56,23.496 L246.56,31.08 Z M256.992,17.544 L260.192,17.544 L260.192,14.408 L256.992,14.408 L256.992,17.544 Z M257.056,37 L260.16,37 L260.16,20.808 L257.056,20.808 L257.056,37 Z M263.872,28.904 C263.872,33.768 267.424,37.384 272.544,37.384 C275.072,37.384 277.536,36.36 279.008,34.792 L277.76,32.52 C276.512,33.832 274.56,34.696 272.768,34.696 C269.408,34.696 267.04,32.168 267.04,28.872 C267.04,25.576 269.408,23.112 272.672,23.112 C274.368,23.112 276.064,23.88 277.152,24.968 L278.624,22.792 C277.088,21.16 274.688,20.424 272.544,20.424 C267.456,20.424 263.872,24.104 263.872,28.904 Z M280.96,28.904 C280.96,23.752 284.48,20.424 289.088,20.424 C293.664,20.424 296.096,23.848 296.096,28.008 C296.096,28.424 296.032,28.872 295.968,29.32 L284.192,29.32 C284.352,32.808 286.848,34.696 289.76,34.696 C291.488,34.696 293.248,33.96 294.528,32.808 L295.84,35.08 C294.272,36.52 291.808,37.384 289.568,37.384 C284.48,37.384 280.96,33.704 280.96,28.904 Z M284.288,27.08 L292.96,27.08 C292.864,24.296 291.136,22.824 289.024,22.824 C286.624,22.824 284.736,24.392 284.288,27.08 Z" id="1.-Rate-falling-noti" fill="#181920"></path>
            <path d="M457.352,234 L471.912,234 L471.912,231.248 L460.648,231.248 C460.776,226.096 471.56,224.944 471.56,217.52 C471.56,213.616 468.584,211.024 464.456,211.024 C461.128,211.024 458.568,212.944 457.288,215.312 L459.624,216.88 C460.584,215.248 462.312,214 464.2,214 C466.6,214 468.296,215.536 468.296,217.744 C468.296,223.056 457.192,224.24 457.192,232.272 C457.192,232.816 457.256,233.392 457.352,234 Z" id="Path" fill-opacity="0.5" fill="#181920"></path>
            <polygon id="Path" fill-opacity="0.5" fill="#181920" points="476.008 234 479.336 234 479.336 230.64 476.008 230.64"></polygon>
            <path d="M490.888,231.408 C492.84,233.328 495.592,234.384 498.312,234.384 C502.92,234.384 505.512,231.504 505.512,227.952 C505.512,220.688 494.632,221.968 494.632,217.136 C494.632,215.184 496.392,213.936 498.696,213.936 C500.488,213.936 502.44,214.768 503.688,215.92 L505.128,213.328 C503.464,211.76 501.064,211.024 498.824,211.024 C494.632,211.024 491.432,213.488 491.432,217.296 C491.432,224.336 502.344,223.216 502.344,228.208 C502.344,230.16 500.744,231.44 498.376,231.44 C496.232,231.44 494.056,230.32 492.68,229.008 L490.888,231.408 Z M508.36,225.904 C508.36,220.752 511.88,217.424 516.488,217.424 C521.064,217.424 523.496,220.848 523.496,225.008 C523.496,225.424 523.432,225.872 523.368,226.32 L511.592,226.32 C511.752,229.808 514.248,231.696 517.16,231.696 C518.888,231.696 520.648,230.96 521.928,229.808 L523.24,232.08 C521.672,233.52 519.208,234.384 516.968,234.384 C511.88,234.384 508.36,230.704 508.36,225.904 Z M511.688,224.08 L520.36,224.08 C520.264,221.296 518.536,219.824 516.424,219.824 C514.024,219.824 512.136,221.392 511.688,224.08 Z M527.24,234 L530.344,234 L530.344,226.224 C530.344,222.896 532.584,220.272 535.752,220.272 C538.344,220.272 538.792,222.064 538.792,224.336 L538.792,234 L541.896,234 L541.896,223.632 C541.896,219.504 540.168,217.424 536.36,217.424 C532.808,217.424 530.824,219.824 530.216,221.232 L530.152,221.232 C530.152,221.232 530.248,220.688 530.248,220.016 L530.248,217.808 L527.24,217.808 L527.24,234 Z M545.544,225.904 C545.544,220.752 548.584,217.424 552.872,217.424 C554.92,217.424 556.872,218.352 557.896,220.08 L557.96,220.08 C557.96,220.08 557.896,219.6 557.896,218.992 L557.896,211.408 L560.968,211.408 L560.968,234 L558.024,234 L558.024,232.368 C558.024,231.728 558.12,231.28 558.12,231.28 L558.056,231.28 C557.128,233.04 555.24,234.384 552.68,234.384 C548.328,234.384 545.544,230.928 545.544,225.904 Z M548.712,225.904 C548.712,229.424 550.6,231.696 553.288,231.696 C555.688,231.696 557.96,229.968 557.96,225.872 C557.96,222.96 556.456,220.144 553.352,220.144 C550.824,220.144 548.712,222.224 548.712,225.904 Z M564.392,232.016 C565.992,233.648 568.392,234.384 570.568,234.384 C574.024,234.384 576.392,232.368 576.392,229.616 C576.392,224.272 568.04,225.2 568.04,222.032 C568.04,220.656 569.224,220.016 570.792,220.016 C572.232,220.016 573.928,220.56 574.888,221.456 L576.136,219.216 C574.728,217.936 572.744,217.424 570.888,217.424 C567.72,217.424 565.064,219.024 565.064,222.096 C565.064,227.408 573.384,226.576 573.384,229.68 C573.384,231.024 572.264,231.792 570.632,231.792 C568.936,231.792 567.08,231.088 565.864,229.904 L564.392,232.016 Z M588.104,228.08 C588.104,233.488 592.232,234.16 594.312,234.16 C594.792,234.16 595.144,234.096 595.4,234.064 L595.4,231.312 C595.08,231.376 594.888,231.376 594.664,231.376 C593.48,231.376 591.208,230.96 591.208,227.728 L591.208,220.496 L595.112,220.496 L595.112,217.968 L591.208,217.968 L591.208,213.36 L588.168,213.36 L588.168,217.968 L585.992,217.968 L585.992,220.496 L588.104,220.496 L588.104,228.08 Z M598.6,234 L601.704,234 L601.704,226.32 C601.704,222.832 603.976,220.272 607.112,220.272 C609.704,220.272 610.152,222.064 610.152,224.336 L610.152,234 L613.256,234 L613.256,223.632 C613.256,219.504 611.528,217.424 607.72,217.424 C604.488,217.424 602.376,219.6 601.64,221.136 L601.576,221.136 C601.576,221.136 601.704,220.56 601.704,219.792 L601.704,211.408 L598.6,211.408 L598.6,234 Z M616.84,225.904 C616.84,220.752 620.36,217.424 624.968,217.424 C629.544,217.424 631.976,220.848 631.976,225.008 C631.976,225.424 631.912,225.872 631.848,226.32 L620.072,226.32 C620.232,229.808 622.728,231.696 625.64,231.696 C627.368,231.696 629.128,230.96 630.408,229.808 L631.72,232.08 C630.152,233.52 627.688,234.384 625.448,234.384 C620.36,234.384 616.84,230.704 616.84,225.904 Z M620.168,224.08 L628.84,224.08 C628.744,221.296 627.016,219.824 624.904,219.824 C622.504,219.824 620.616,221.392 620.168,224.08 Z M643.656,214.544 L646.856,214.544 L646.856,211.408 L643.656,211.408 L643.656,214.544 Z M643.72,234 L646.824,234 L646.824,217.808 L643.72,217.808 L643.72,234 Z M651.592,234 L654.696,234 L654.696,226.224 C654.696,222.896 656.936,220.272 660.104,220.272 C662.696,220.272 663.144,222.064 663.144,224.336 L663.144,234 L666.248,234 L666.248,223.632 C666.248,219.504 664.52,217.424 660.712,217.424 C657.16,217.424 655.176,219.824 654.568,221.232 L654.504,221.232 C654.504,221.232 654.6,220.688 654.6,220.016 L654.6,217.808 L651.592,217.808 L651.592,234 Z M669.512,232.016 C671.112,233.648 673.512,234.384 675.688,234.384 C679.144,234.384 681.512,232.368 681.512,229.616 C681.512,224.272 673.16,225.2 673.16,222.032 C673.16,220.656 674.344,220.016 675.912,220.016 C677.352,220.016 679.048,220.56 680.008,221.456 L681.256,219.216 C679.848,217.936 677.864,217.424 676.008,217.424 C672.84,217.424 670.184,219.024 670.184,222.096 C670.184,227.408 678.504,226.576 678.504,229.68 C678.504,231.024 677.384,231.792 675.752,231.792 C674.056,231.792 672.2,231.088 670.984,229.904 L669.512,232.016 Z M685,228.176 C685,232.464 686.888,234.384 690.536,234.384 C693.704,234.384 695.848,232.176 696.552,230.576 L696.616,230.576 C696.616,230.576 696.488,231.12 696.488,231.76 L696.488,234 L699.496,234 L699.496,217.808 L696.424,217.808 L696.424,225.392 C696.424,228.592 694.472,231.504 691.144,231.504 C688.584,231.504 688.104,229.712 688.104,227.472 L688.104,217.808 L685,217.808 L685,228.176 Z M704.296,234 L707.4,234 L707.4,227.28 C707.4,224.144 708.872,220.688 712.36,220.688 C712.68,220.688 713.128,220.72 713.256,220.752 L713.256,217.68 C713,217.648 712.712,217.616 712.424,217.616 C709.928,217.616 708.04,219.568 707.272,221.904 L707.208,221.904 C707.208,221.904 707.304,221.392 707.304,220.72 L707.304,217.808 L704.296,217.808 L704.296,234 Z M714.856,225.904 C714.856,220.752 718.376,217.424 722.984,217.424 C727.56,217.424 729.992,220.848 729.992,225.008 C729.992,225.424 729.928,225.872 729.864,226.32 L718.088,226.32 C718.248,229.808 720.744,231.696 723.656,231.696 C725.384,231.696 727.144,230.96 728.424,229.808 L729.736,232.08 C728.168,233.52 725.704,234.384 723.464,234.384 C718.376,234.384 714.856,230.704 714.856,225.904 Z M718.184,224.08 L726.856,224.08 C726.76,221.296 725.032,219.824 722.92,219.824 C720.52,219.824 718.632,221.392 718.184,224.08 Z M732.744,225.904 C732.744,220.752 735.784,217.424 740.072,217.424 C742.12,217.424 744.072,218.352 745.096,220.08 L745.16,220.08 C745.16,220.08 745.096,219.6 745.096,218.992 L745.096,211.408 L748.168,211.408 L748.168,234 L745.224,234 L745.224,232.368 C745.224,231.728 745.32,231.28 745.32,231.28 L745.256,231.28 C744.328,233.04 742.44,234.384 739.88,234.384 C735.528,234.384 732.744,230.928 732.744,225.904 Z M735.912,225.904 C735.912,229.424 737.8,231.696 740.488,231.696 C742.888,231.696 745.16,229.968 745.16,225.872 C745.16,222.96 743.656,220.144 740.552,220.144 C738.024,220.144 735.912,222.224 735.912,225.904 Z" id="2.-Sends-the-insured" fill="#181920"></path>
            <path d="M520.752,284 L524.88,284 L524.88,261.28 L520.752,261.28 L520.752,284 Z M529.072,272.544 C529.072,279.232 533.68,284.384 540.816,284.384 C544.88,284.384 547.792,282.688 549.744,280.704 L547.568,277.728 C545.84,279.424 543.408,280.608 540.976,280.608 C536.048,280.608 533.328,276.736 533.328,272.48 C533.328,268.288 535.952,264.672 540.944,264.672 C543.152,264.672 545.552,265.696 547.152,267.072 L549.136,264 C546.928,261.856 543.728,260.896 540.752,260.896 C533.904,260.896 529.072,265.952 529.072,272.544 Z M551.376,272.48 C551.376,265.984 556.24,260.896 563.12,260.896 C570,260.896 574.864,265.984 574.864,272.48 C574.864,279.168 570,284.384 563.12,284.384 C556.24,284.384 551.376,279.168 551.376,272.48 Z M555.632,272.48 C555.632,277.088 558.768,280.608 563.12,280.608 C567.472,280.608 570.608,277.088 570.608,272.48 C570.608,268.064 567.472,264.672 563.12,264.672 C558.768,264.672 555.632,268.064 555.632,272.48 Z M583.568,284 L591.536,261.28 L595.888,261.28 L603.856,284 L599.632,284 L597.68,278.176 L589.712,278.176 L587.792,284 L583.568,284 Z M590.736,274.816 L596.656,274.816 L594.64,268.736 C594.256,267.456 593.744,265.216 593.744,265.216 L593.68,265.216 C593.68,265.216 593.168,267.456 592.784,268.736 L590.736,274.816 Z" id="ICO-A" fill="#FF674C"></path>
            <path d="M615.432,278.08 C615.432,283.488 619.56,284.16 621.64,284.16 C622.12,284.16 622.472,284.096 622.728,284.064 L622.728,281.312 C622.408,281.376 622.216,281.376 621.992,281.376 C620.808,281.376 618.536,280.96 618.536,277.728 L618.536,270.496 L622.44,270.496 L622.44,267.968 L618.536,267.968 L618.536,263.36 L615.496,263.36 L615.496,267.968 L613.32,267.968 L613.32,270.496 L615.432,270.496 L615.432,278.08 Z M624.68,275.872 C624.68,270.976 628.584,267.424 633.384,267.424 C638.216,267.424 642.12,270.976 642.12,275.872 C642.12,280.8 638.216,284.384 633.416,284.384 C628.584,284.384 624.68,280.8 624.68,275.872 Z M627.848,275.872 C627.848,279.264 630.344,281.696 633.416,281.696 C636.456,281.696 638.984,279.264 638.984,275.872 C638.984,272.512 636.456,270.112 633.416,270.112 C630.344,270.112 627.848,272.512 627.848,275.872 Z M645.864,284 L648.968,284 L648.968,276.416 L651.336,276.416 L656.168,284 L659.784,284 L653.8,275.008 L653.8,274.944 L659.176,267.808 L655.656,267.808 L651.272,273.76 L648.968,273.76 L648.968,261.408 L645.864,261.408 L645.864,284 Z M660.872,275.904 C660.872,270.752 664.392,267.424 669,267.424 C673.576,267.424 676.008,270.848 676.008,275.008 C676.008,275.424 675.944,275.872 675.88,276.32 L664.104,276.32 C664.264,279.808 666.76,281.696 669.672,281.696 C671.4,281.696 673.16,280.96 674.44,279.808 L675.752,282.08 C674.184,283.52 671.72,284.384 669.48,284.384 C664.392,284.384 660.872,280.704 660.872,275.904 Z M664.2,274.08 L672.872,274.08 C672.776,271.296 671.048,269.824 668.936,269.824 C666.536,269.824 664.648,271.392 664.2,274.08 Z M679.752,284 L682.856,284 L682.856,276.224 C682.856,272.896 685.096,270.272 688.264,270.272 C690.856,270.272 691.304,272.064 691.304,274.336 L691.304,284 L694.408,284 L694.408,273.632 C694.408,269.504 692.68,267.424 688.872,267.424 C685.32,267.424 683.336,269.824 682.728,271.232 L682.664,271.232 C682.664,271.232 682.76,270.688 682.76,270.016 L682.76,267.808 L679.752,267.808 L679.752,284 Z" id="token" fill="#181920"></path>
            <path d="M543.168,184 L547.296,184 L547.296,161.28 L543.168,161.28 L543.168,184 Z M556.407223,169.964494 L555.936,169.192663 L555.936,169.6 C555.936,170.24 555.872,170.752 555.872,170.752 L555.936,170.752 C556.055835,170.506623 556.212305,170.238858 556.407223,169.964494 Z M555.936,169.192663 L556.407223,169.964494 C557.305345,168.700307 559.019764,167.296 561.728,167.296 C565.344,167.296 567.424,169.184 567.424,173.504 L567.424,184 L563.36,184 L563.36,174.336 C563.36,172.352 562.848,171.008 560.8,171.008 C557.92,171.008 556.096,173.408 556.096,176.352 L556.096,184 L552.032,184 L552.032,167.68 L555.936,167.68 L555.936,169.192663 Z M575.584,184 L580.384,184 L586.24,167.68 L581.952,167.68 L578.56,177.792 C578.272,178.752 577.984,180.256 577.984,180.256 L577.92,180.256 C577.92,180.256 577.632,178.752 577.344,177.792 L573.952,167.68 L569.664,167.68 L575.584,184 Z M587.456,175.84 C587.456,170.816 590.88,167.296 595.776,167.296 C600.448,167.296 603.008,170.72 603.008,175.04 C603.008,175.552 602.944,176.096 602.88,176.608 L591.648,176.608 C591.904,179.456 594.08,180.928 596.544,180.928 C598.208,180.928 599.904,180.192 601.216,179.136 L602.816,182.048 C601.152,183.52 598.592,184.384 596.256,184.384 C590.848,184.384 587.456,180.48 587.456,175.84 Z M591.744,173.824 L598.944,173.824 C598.912,171.648 597.504,170.368 595.68,170.368 C593.6,170.368 592.128,171.744 591.744,173.824 Z M605.088,181.984 C606.784,183.616 609.216,184.384 611.488,184.384 C615.232,184.384 617.664,182.24 617.664,179.36 C617.664,174.016 609.568,174.752 609.568,172.16 C609.568,171.136 610.432,170.592 611.84,170.592 C613.28,170.592 615.008,171.168 615.968,172 L617.472,169.152 C615.968,167.84 613.92,167.296 611.968,167.296 C608.544,167.296 605.728,168.992 605.728,172.192 C605.728,177.536 613.824,176.896 613.824,179.456 C613.824,180.48 612.992,181.088 611.552,181.088 C609.92,181.088 608.128,180.416 606.912,179.296 L605.088,181.984 Z M621.824,178.016 C621.824,183.488 626.336,184.16 628.608,184.16 C629.152,184.16 629.536,184.096 629.856,184.064 L629.856,180.512 C629.536,180.576 629.344,180.576 629.12,180.576 C628,180.576 625.888,180.192 625.888,177.504 L625.888,171.136 L629.6,171.136 L629.6,167.904 L625.888,167.904 L625.888,163.232 L621.92,163.232 L621.92,167.904 L619.712,167.904 L619.712,171.136 L621.824,171.136 L621.824,178.016 Z M631.808,175.84 C631.808,170.848 635.808,167.296 640.736,167.296 C645.728,167.296 649.728,170.848 649.728,175.84 C649.728,180.864 645.728,184.384 640.768,184.384 C635.808,184.384 631.808,180.864 631.808,175.84 Z M635.936,175.84 C635.936,178.88 638.112,180.928 640.768,180.928 C643.424,180.928 645.632,178.88 645.632,175.84 C645.632,172.832 643.424,170.752 640.768,170.752 C638.112,170.752 635.936,172.832 635.936,175.84 Z M657.365693,170.752716 L656.992,170.116148 L656.992,170.56 C656.992,171.168 656.928,171.68 656.928,171.68 L656.992,171.68 C657.0935,171.362259 657.218736,171.051822 657.365693,170.752716 Z M656.992,170.116148 L657.365693,170.752716 C658.284349,168.882948 660.051806,167.456 662.176,167.456 C662.432,167.456 662.688,167.488 662.944,167.52 L662.944,171.52 C662.784,171.488 662.304,171.456 661.952,171.456 C658.624,171.456 657.152,174.336 657.152,177.408 L657.152,184 L653.088,184 L653.088,167.68 L656.992,167.68 L656.992,170.116148 Z" id="Investor" fill="#303498"></path>
            <path d="M832.932,529.312 C834.852,531.296 837.604,532.384 840.26,532.384 C844.9,532.384 847.94,528.992 847.94,525.152 C847.94,520.736 844.292,518.816 841.316,518.528 L847.46,511.424 L847.46,509.408 L833.956,509.408 L833.956,512.16 L841.604,512.16 C842.852,512.16 843.524,512.064 843.524,512.064 L843.524,512.128 C843.524,512.128 842.82,512.704 842.116,513.6 L837.188,519.392 L837.924,521.088 L839.46,521.088 C842.276,521.088 844.74,522.464 844.74,525.248 C844.74,527.68 842.628,529.376 840.132,529.376 C837.956,529.376 835.876,528.224 834.66,526.912 L832.932,529.312 Z" id="Path" fill-opacity="0.5" fill="#181920"></path>
            <polygon id="Path" fill-opacity="0.5" fill="#181920" points="851.908 532 855.236 532 855.236 528.64 851.908 528.64"></polygon>
            <path d="M748.612,582 L751.748,582 L751.748,562.16 L759.524,562.16 L759.524,559.408 L740.836,559.408 L740.836,562.16 L748.612,562.16 L748.612,582 Z M762.436,582 L765.54,582 L765.54,574.32 C765.54,570.832 767.812,568.272 770.948,568.272 C773.54,568.272 773.988,570.064 773.988,572.336 L773.988,582 L777.092,582 L777.092,571.632 C777.092,567.504 775.364,565.424 771.556,565.424 C768.324,565.424 766.212,567.6 765.476,569.136 L765.412,569.136 C765.412,569.136 765.54,568.56 765.54,567.792 L765.54,559.408 L762.436,559.408 L762.436,582 Z M780.676,573.904 C780.676,568.752 784.196,565.424 788.804,565.424 C793.38,565.424 795.812,568.848 795.812,573.008 C795.812,573.424 795.748,573.872 795.684,574.32 L783.908,574.32 C784.068,577.808 786.564,579.696 789.476,579.696 C791.204,579.696 792.964,578.96 794.244,577.808 L795.556,580.08 C793.988,581.52 791.524,582.384 789.284,582.384 C784.196,582.384 780.676,578.704 780.676,573.904 Z M784.004,572.08 L792.676,572.08 C792.58,569.296 790.852,567.824 788.74,567.824 C786.34,567.824 784.452,569.392 784.004,572.08 Z M807.492,562.544 L810.692,562.544 L810.692,559.408 L807.492,559.408 L807.492,562.544 Z M807.556,582 L810.66,582 L810.66,565.808 L807.556,565.808 L807.556,582 Z M815.428,582 L818.532,582 L818.532,574.224 C818.532,570.896 820.772,568.272 823.94,568.272 C826.532,568.272 826.98,570.064 826.98,572.336 L826.98,582 L830.084,582 L830.084,571.632 C830.084,567.504 828.356,565.424 824.548,565.424 C820.996,565.424 819.012,567.824 818.404,569.232 L818.34,569.232 C818.34,569.232 818.436,568.688 818.436,568.016 L818.436,565.808 L815.428,565.808 L815.428,582 Z M833.348,580.016 C834.948,581.648 837.348,582.384 839.524,582.384 C842.98,582.384 845.348,580.368 845.348,577.616 C845.348,572.272 836.996,573.2 836.996,570.032 C836.996,568.656 838.18,568.016 839.748,568.016 C841.188,568.016 842.884,568.56 843.844,569.456 L845.092,567.216 C843.684,565.936 841.7,565.424 839.844,565.424 C836.676,565.424 834.02,567.024 834.02,570.096 C834.02,575.408 842.34,574.576 842.34,577.68 C842.34,579.024 841.22,579.792 839.588,579.792 C837.892,579.792 836.036,579.088 834.82,577.904 L833.348,580.016 Z M848.836,576.176 C848.836,580.464 850.724,582.384 854.372,582.384 C857.54,582.384 859.684,580.176 860.388,578.576 L860.452,578.576 C860.452,578.576 860.324,579.12 860.324,579.76 L860.324,582 L863.332,582 L863.332,565.808 L860.26,565.808 L860.26,573.392 C860.26,576.592 858.308,579.504 854.98,579.504 C852.42,579.504 851.94,577.712 851.94,575.472 L851.94,565.808 L848.836,565.808 L848.836,576.176 Z M868.132,582 L871.236,582 L871.236,575.28 C871.236,572.144 872.708,568.688 876.196,568.688 C876.516,568.688 876.964,568.72 877.092,568.752 L877.092,565.68 C876.836,565.648 876.548,565.616 876.26,565.616 C873.764,565.616 871.876,567.568 871.108,569.904 L871.044,569.904 C871.044,569.904 871.14,569.392 871.14,568.72 L871.14,565.808 L868.132,565.808 L868.132,582 Z M878.628,577.584 C878.628,572.496 884.932,571.92 888.292,571.92 L889.124,571.92 L889.124,571.6 C889.124,568.944 887.588,568.048 885.572,568.048 C883.972,568.048 882.34,568.688 881.028,569.616 L879.78,567.344 C881.092,566.256 883.556,565.424 885.828,565.424 C889.892,565.424 892.228,567.664 892.228,571.76 L892.228,582 L889.316,582 L889.316,580.368 C889.316,579.632 889.412,579.088 889.412,579.088 L889.348,579.088 C888.42,580.944 886.436,582.384 884.036,582.384 C881.22,582.384 878.628,580.624 878.628,577.584 Z M881.732,577.328 C881.732,578.608 882.756,579.92 884.772,579.92 C887.492,579.92 889.124,577.168 889.124,574.768 L889.124,574.16 L888.324,574.16 C886.02,574.16 881.732,574.352 881.732,577.328 Z M896.836,582 L899.94,582 L899.94,574.224 C899.94,570.896 902.18,568.272 905.348,568.272 C907.94,568.272 908.388,570.064 908.388,572.336 L908.388,582 L911.492,582 L911.492,571.632 C911.492,567.504 909.764,565.424 905.956,565.424 C902.404,565.424 900.42,567.824 899.812,569.232 L899.748,569.232 C899.748,569.232 899.844,568.688 899.844,568.016 L899.844,565.808 L896.836,565.808 L896.836,582 Z M915.076,573.904 C915.076,578.768 918.628,582.384 923.748,582.384 C926.276,582.384 928.74,581.36 930.212,579.792 L928.964,577.52 C927.716,578.832 925.764,579.696 923.972,579.696 C920.612,579.696 918.244,577.168 918.244,573.872 C918.244,570.576 920.612,568.112 923.876,568.112 C925.572,568.112 927.268,568.88 928.356,569.968 L929.828,567.792 C928.292,566.16 925.892,565.424 923.748,565.424 C918.66,565.424 915.076,569.104 915.076,573.904 Z M932.164,573.904 C932.164,568.752 935.684,565.424 940.292,565.424 C944.868,565.424 947.3,568.848 947.3,573.008 C947.3,573.424 947.236,573.872 947.172,574.32 L935.396,574.32 C935.556,577.808 938.052,579.696 940.964,579.696 C942.692,579.696 944.452,578.96 945.732,577.808 L947.044,580.08 C945.476,581.52 943.012,582.384 940.772,582.384 C935.684,582.384 932.164,578.704 932.164,573.904 Z M935.492,572.08 L944.164,572.08 C944.068,569.296 942.34,567.824 940.228,567.824 C937.828,567.824 935.94,569.392 935.492,572.08 Z M739.636,623.904 C739.636,628.768 743.188,632.384 748.308,632.384 C750.836,632.384 753.3,631.36 754.772,629.792 L753.524,627.52 C752.276,628.832 750.324,629.696 748.532,629.696 C745.172,629.696 742.804,627.168 742.804,623.872 C742.804,620.576 745.172,618.112 748.436,618.112 C750.132,618.112 751.828,618.88 752.916,619.968 L754.388,617.792 C752.852,616.16 750.452,615.424 748.308,615.424 C743.22,615.424 739.636,619.104 739.636,623.904 Z M756.692,623.872 C756.692,618.976 760.596,615.424 765.396,615.424 C770.228,615.424 774.132,618.976 774.132,623.872 C774.132,628.8 770.228,632.384 765.428,632.384 C760.596,632.384 756.692,628.8 756.692,623.872 Z M759.86,623.872 C759.86,627.264 762.356,629.696 765.428,629.696 C768.468,629.696 770.996,627.264 770.996,623.872 C770.996,620.512 768.468,618.112 765.428,618.112 C762.356,618.112 759.86,620.512 759.86,623.872 Z M777.876,632 L780.98,632 L780.98,624.448 C780.98,621.44 782.772,618.24 785.844,618.24 C788.308,618.24 788.628,620.192 788.628,622.304 L788.628,632 L791.732,632 L791.732,624.448 C791.732,621.344 793.524,618.24 796.532,618.24 C798.932,618.24 799.38,620.032 799.38,622.304 L799.38,632 L802.484,632 L802.484,621.632 C802.484,617.504 800.82,615.424 797.14,615.424 C794.516,615.424 792.276,617.216 791.38,619.104 L791.316,619.104 C790.772,616.672 789.204,615.424 786.484,615.424 C783.924,615.424 781.62,617.344 780.852,619.232 L780.788,619.232 C780.788,619.232 780.884,618.688 780.884,618.016 L780.884,615.808 L777.876,615.808 L777.876,632 Z M807.124,638.4 L807.124,615.808 L810.004,615.808 L810.004,617.248 C810.004,617.92 809.908,618.464 809.908,618.464 L809.972,618.464 C810.996,616.512 813.044,615.424 815.412,615.424 C819.796,615.424 822.516,618.88 822.516,623.904 C822.516,629.056 819.444,632.384 815.188,632.384 C813.14,632.384 811.284,631.36 810.164,629.632 L810.1,629.632 C810.1,629.632 810.228,630.208 810.228,631.04 L810.228,638.4 L807.124,638.4 Z M810.132,623.968 C810.132,626.848 811.732,629.696 814.708,629.696 C817.268,629.696 819.38,627.616 819.38,623.936 C819.38,620.416 817.492,618.144 814.804,618.144 C812.372,618.144 810.132,619.872 810.132,623.968 Z M825.3,623.904 C825.3,618.752 828.82,615.424 833.428,615.424 C838.004,615.424 840.436,618.848 840.436,623.008 C840.436,623.424 840.372,623.872 840.308,624.32 L828.532,624.32 C828.692,627.808 831.188,629.696 834.1,629.696 C835.828,629.696 837.588,628.96 838.868,627.808 L840.18,630.08 C838.612,631.52 836.148,632.384 833.908,632.384 C828.82,632.384 825.3,628.704 825.3,623.904 Z M828.628,622.08 L837.3,622.08 C837.204,619.296 835.476,617.824 833.364,617.824 C830.964,617.824 829.076,619.392 828.628,622.08 Z M844.18,632 L847.284,632 L847.284,624.224 C847.284,620.896 849.524,618.272 852.692,618.272 C855.284,618.272 855.732,620.064 855.732,622.336 L855.732,632 L858.836,632 L858.836,621.632 C858.836,617.504 857.108,615.424 853.3,615.424 C849.748,615.424 847.764,617.824 847.156,619.232 L847.092,619.232 C847.092,619.232 847.188,618.688 847.188,618.016 L847.188,615.808 L844.18,615.808 L844.18,632 Z M862.1,630.016 C863.7,631.648 866.1,632.384 868.276,632.384 C871.732,632.384 874.1,630.368 874.1,627.616 C874.1,622.272 865.748,623.2 865.748,620.032 C865.748,618.656 866.932,618.016 868.5,618.016 C869.94,618.016 871.636,618.56 872.596,619.456 L873.844,617.216 C872.436,615.936 870.452,615.424 868.596,615.424 C865.428,615.424 862.772,617.024 862.772,620.096 C862.772,625.408 871.092,624.576 871.092,627.68 C871.092,629.024 869.972,629.792 868.34,629.792 C866.644,629.792 864.788,629.088 863.572,627.904 L862.1,630.016 Z M876.436,627.584 C876.436,622.496 882.74,621.92 886.1,621.92 L886.932,621.92 L886.932,621.6 C886.932,618.944 885.396,618.048 883.38,618.048 C881.78,618.048 880.148,618.688 878.836,619.616 L877.588,617.344 C878.9,616.256 881.364,615.424 883.636,615.424 C887.7,615.424 890.036,617.664 890.036,621.76 L890.036,632 L887.124,632 L887.124,630.368 C887.124,629.632 887.22,629.088 887.22,629.088 L887.156,629.088 C886.228,630.944 884.244,632.384 881.844,632.384 C879.028,632.384 876.436,630.624 876.436,627.584 Z M879.54,627.328 C879.54,628.608 880.564,629.92 882.58,629.92 C885.3,629.92 886.932,627.168 886.932,624.768 L886.932,624.16 L886.132,624.16 C883.828,624.16 879.54,624.352 879.54,627.328 Z M895.316,626.08 C895.316,631.488 899.444,632.16 901.524,632.16 C902.004,632.16 902.356,632.096 902.612,632.064 L902.612,629.312 C902.292,629.376 902.1,629.376 901.876,629.376 C900.692,629.376 898.42,628.96 898.42,625.728 L898.42,618.496 L902.324,618.496 L902.324,615.968 L898.42,615.968 L898.42,611.36 L895.38,611.36 L895.38,615.968 L893.204,615.968 L893.204,618.496 L895.316,618.496 L895.316,626.08 Z M905.748,612.544 L908.948,612.544 L908.948,609.408 L905.748,609.408 L905.748,612.544 Z M905.812,632 L908.916,632 L908.916,615.808 L905.812,615.808 L905.812,632 Z M912.628,623.872 C912.628,618.976 916.532,615.424 921.332,615.424 C926.164,615.424 930.068,618.976 930.068,623.872 C930.068,628.8 926.164,632.384 921.364,632.384 C916.532,632.384 912.628,628.8 912.628,623.872 Z M915.796,623.872 C915.796,627.264 918.292,629.696 921.364,629.696 C924.404,629.696 926.932,627.264 926.932,623.872 C926.932,620.512 924.404,618.112 921.364,618.112 C918.292,618.112 915.796,620.512 915.796,623.872 Z M933.812,632 L936.916,632 L936.916,624.224 C936.916,620.896 939.156,618.272 942.324,618.272 C944.916,618.272 945.364,620.064 945.364,622.336 L945.364,632 L948.468,632 L948.468,621.632 C948.468,617.504 946.74,615.424 942.932,615.424 C939.38,615.424 937.396,617.824 936.788,619.232 L936.724,619.232 C936.724,619.232 936.82,618.688 936.82,618.016 L936.82,615.808 L933.812,615.808 L933.812,632 Z M800.148,662.544 L803.348,662.544 L803.348,659.408 L800.148,659.408 L800.148,662.544 Z M800.212,682 L803.316,682 L803.316,665.808 L800.212,665.808 L800.212,682 Z M806.708,680.016 C808.308,681.648 810.708,682.384 812.884,682.384 C816.34,682.384 818.708,680.368 818.708,677.616 C818.708,672.272 810.356,673.2 810.356,670.032 C810.356,668.656 811.54,668.016 813.108,668.016 C814.548,668.016 816.244,668.56 817.204,669.456 L818.452,667.216 C817.044,665.936 815.06,665.424 813.204,665.424 C810.036,665.424 807.38,667.024 807.38,670.096 C807.38,675.408 815.7,674.576 815.7,677.68 C815.7,679.024 814.58,679.792 812.948,679.792 C811.252,679.792 809.396,679.088 808.18,677.904 L806.708,680.016 Z M830.388,688.4 L830.388,665.808 L833.268,665.808 L833.268,667.248 C833.268,667.92 833.172,668.464 833.172,668.464 L833.236,668.464 C834.26,666.512 836.308,665.424 838.676,665.424 C843.06,665.424 845.78,668.88 845.78,673.904 C845.78,679.056 842.708,682.384 838.452,682.384 C836.404,682.384 834.548,681.36 833.428,679.632 L833.364,679.632 C833.364,679.632 833.492,680.208 833.492,681.04 L833.492,688.4 L830.388,688.4 Z M833.396,673.968 C833.396,676.848 834.996,679.696 837.972,679.696 C840.532,679.696 842.644,677.616 842.644,673.936 C842.644,670.416 840.756,668.144 838.068,668.144 C835.636,668.144 833.396,669.872 833.396,673.968 Z M848.276,677.584 C848.276,672.496 854.58,671.92 857.94,671.92 L858.772,671.92 L858.772,671.6 C858.772,668.944 857.236,668.048 855.22,668.048 C853.62,668.048 851.988,668.688 850.676,669.616 L849.428,667.344 C850.74,666.256 853.204,665.424 855.476,665.424 C859.54,665.424 861.876,667.664 861.876,671.76 L861.876,682 L858.964,682 L858.964,680.368 C858.964,679.632 859.06,679.088 859.06,679.088 L858.996,679.088 C858.068,680.944 856.084,682.384 853.684,682.384 C850.868,682.384 848.276,680.624 848.276,677.584 Z M851.38,677.328 C851.38,678.608 852.404,679.92 854.42,679.92 C857.14,679.92 858.772,677.168 858.772,674.768 L858.772,674.16 L857.972,674.16 C855.668,674.16 851.38,674.352 851.38,677.328 Z M866.42,662.544 L869.62,662.544 L869.62,659.408 L866.42,659.408 L866.42,662.544 Z M866.484,682 L869.588,682 L869.588,665.808 L866.484,665.808 L866.484,682 Z M873.364,673.904 C873.364,668.752 876.404,665.424 880.692,665.424 C882.74,665.424 884.692,666.352 885.716,668.08 L885.78,668.08 C885.78,668.08 885.716,667.6 885.716,666.992 L885.716,659.408 L888.788,659.408 L888.788,682 L885.844,682 L885.844,680.368 C885.844,679.728 885.94,679.28 885.94,679.28 L885.876,679.28 C884.948,681.04 883.06,682.384 880.5,682.384 C876.148,682.384 873.364,678.928 873.364,673.904 Z M876.532,673.904 C876.532,677.424 878.42,679.696 881.108,679.696 C883.508,679.696 885.78,677.968 885.78,673.872 C885.78,670.96 884.276,668.144 881.172,668.144 C878.644,668.144 876.532,670.224 876.532,673.904 Z M761.284,712.544 L764.484,712.544 L764.484,709.408 L761.284,709.408 L761.284,712.544 Z M761.348,732 L764.452,732 L764.452,715.808 L761.348,715.808 L761.348,732 Z M769.22,732 L772.324,732 L772.324,724.224 C772.324,720.896 774.564,718.272 777.732,718.272 C780.324,718.272 780.772,720.064 780.772,722.336 L780.772,732 L783.876,732 L783.876,721.632 C783.876,717.504 782.148,715.424 778.34,715.424 C774.788,715.424 772.804,717.824 772.196,719.232 L772.132,719.232 C772.132,719.232 772.228,718.688 772.228,718.016 L772.228,715.808 L769.22,715.808 L769.22,732 Z M797.092,732 L797.092,709.408 L804.996,709.408 C808.836,709.408 811.556,711.52 811.556,715.168 C811.556,717.376 810.468,719.136 808.74,720.032 L808.74,720.096 C811.14,720.8 812.484,723.04 812.484,725.568 C812.484,729.824 809.156,732 805.188,732 L797.092,732 Z M800.26,718.912 L804.996,718.912 C807.044,718.912 808.324,717.472 808.324,715.488 C808.324,713.504 807.108,712.16 804.964,712.16 L800.26,712.16 L800.26,718.912 Z M800.26,729.248 L805.348,729.248 C807.78,729.248 809.22,727.712 809.22,725.376 C809.22,723.104 807.716,721.536 805.348,721.536 L800.26,721.536 L800.26,729.248 Z M821.604,732 L824.74,732 L824.74,712.16 L832.516,712.16 L832.516,709.408 L813.828,709.408 L813.828,712.16 L821.604,712.16 L821.604,732 Z M833.668,720.576 C833.668,727.2 838.244,732.384 845.252,732.384 C849.252,732.384 852.068,730.72 853.988,728.8 L852.292,726.528 C850.468,728.352 847.876,729.472 845.348,729.472 C840.1,729.472 836.932,725.344 836.932,720.544 C836.932,715.776 840.036,711.904 845.284,711.904 C847.62,711.904 850.148,712.896 851.812,714.368 L853.412,712 C851.236,709.92 848.068,709.024 845.156,709.024 C838.436,709.024 833.668,714.016 833.668,720.576 Z M856.228,733.344 L858.98,733.344 L867.108,708.192 L864.356,708.192 L856.228,733.344 Z M871.3,732 L884.996,732 L884.996,729.248 L874.468,729.248 L874.468,721.984 L882.564,721.984 L882.564,719.232 L874.468,719.232 L874.468,712.16 L884.452,712.16 L884.452,709.408 L871.3,709.408 L871.3,732 Z M894.628,732 L897.764,732 L897.764,712.16 L905.54,712.16 L905.54,709.408 L886.852,709.408 L886.852,712.16 L894.628,712.16 L894.628,732 Z M909.028,732 L912.196,732 L912.196,722.08 L923.94,722.08 L923.94,732 L927.076,732 L927.076,709.408 L923.94,709.408 L923.94,719.328 L912.196,719.328 L912.196,709.408 L909.028,709.408 L909.028,732 Z" id="3.-The-insurance-com" fill="#181920"></path>
            <g id="arrow" transform="translate(682.000000, 163.000000)" stroke="#303498" stroke-width="2" stroke-linecap="round" stroke-linejoin="round">
                <path d="M111.515736,727 C144.526227,706.333333 161.031472,662.095355 161.031472,594.286064 M161.014452,313.956723 C160.992096,253.629996 160.987278,201.144422 161,156.5 C161.023221,75.0105352 96.6935718,10 2,10" id="Path-10"></path>
                <polyline id="Line-2" transform="translate(5.000000, 10.000000) rotate(-90.000000) translate(-5.000000, -10.000000) " points="-5 15 5.07852624 5 15 15"></polyline>
            </g>
            <g id="Group" transform="translate(424.000000, 313.000000) scale(-1, 1) translate(-424.000000, -313.000000) translate(328.000000, 173.000000)" stroke="#303498" stroke-width="2" stroke-linecap="round" stroke-linejoin="round">
                <polyline id="Line-2" transform="translate(182.000000, 275.000000) rotate(-180.000000) translate(-182.000000, -275.000000) " points="172 280 182.078526 270 192 280"></polyline>
                <path d="M5.68434189e-14,1.89150612e-18 L5.68434189e-14,1.89150612e-18 L2.34098084e-14,2.5243549e-29 C100.518088,-1.84648732e-14 182.004098,81.4860104 182.004098,182.004098 L182.004098,279.137034" id="Path-9"></path>
            </g>
            <path d="M28,57 L28,202 M28,252 L28,397" id="Line-2" stroke="#303498" stroke-width="2" stroke-linecap="round" stroke-linejoin="round"></path>
            <g id="Group-6" transform="translate(10.000000, 215.000000)" fill-rule="nonzero" fill="#303498">
                <g id="message">
                    <path d="M19.5287143,14.028 L34.0238571,0 L1.97614286,0 L16.47,14.028 C17.3275714,14.86 18.6724286,14.86 19.5287143,14.028 Z" id="Shape"></path>
                    <polygon id="Shape" points="10.1648571 11.5733333 0 1.73466667 0 22.1146667"></polygon>
                    <polygon id="Shape" points="25.8351429 11.5733333 36 22.1146667 36 1.73466667"></polygon>
                    <path d="M23.9541429,13.3933333 L21.2837143,15.9773333 C20.3618571,16.8693333 19.1802857,17.3146667 17.9987143,17.3146667 C16.8171429,17.3146667 15.6355714,16.8693333 14.7137143,15.9773333 L12.0432857,13.3933333 L1.818,24 L34.182,24 L23.9541429,13.3933333 Z" id="Shape"></path>
                </g>
            </g>
            <circle id="Oval-Copy-2" stroke="#F6F6F9" stroke-width="4" cx="650" cy="701" r="8"></circle>
            <path d="M652.704,944 L656.832,944 L656.832,921.28 L652.704,921.28 L652.704,944 Z M665.943223,929.964494 L665.472,929.192663 L665.472,929.6 C665.472,930.24 665.408,930.752 665.408,930.752 L665.472,930.752 C665.591835,930.506623 665.748305,930.238858 665.943223,929.964494 Z M665.472,929.192663 L665.943223,929.964494 C666.841345,928.700307 668.555764,927.296 671.264,927.296 C674.88,927.296 676.96,929.184 676.96,933.504 L676.96,944 L672.896,944 L672.896,934.336 C672.896,932.352 672.384,931.008 670.336,931.008 C667.456,931.008 665.632,933.408 665.632,936.352 L665.632,944 L661.568,944 L661.568,927.68 L665.472,927.68 L665.472,929.192663 Z M679.84,941.984 C681.536,943.616 683.968,944.384 686.24,944.384 C689.984,944.384 692.416,942.24 692.416,939.36 C692.416,934.016 684.32,934.752 684.32,932.16 C684.32,931.136 685.184,930.592 686.592,930.592 C688.032,930.592 689.76,931.168 690.72,932 L692.224,929.152 C690.72,927.84 688.672,927.296 686.72,927.296 C683.296,927.296 680.48,928.992 680.48,932.192 C680.48,937.536 688.576,936.896 688.576,939.456 C688.576,940.48 687.744,941.088 686.304,941.088 C684.672,941.088 682.88,940.416 681.664,939.296 L679.84,941.984 Z M695.616,938.176 C695.616,942.624 697.76,944.384 701.28,944.384 C704.064,944.384 706.176,942.624 706.944,940.96 L707.008,940.96 C707.008,940.96 706.912,941.472 706.912,942.08 L706.912,944 L710.816,944 L710.816,927.68 L706.784,927.68 L706.784,935.168 C706.784,938.08 705.152,940.672 702.208,940.672 C700.192,940.672 699.68,939.328 699.68,937.344 L699.68,927.68 L695.616,927.68 L695.616,938.176 Z M719.477693,930.752716 L719.104,930.116148 L719.104,930.56 C719.104,931.168 719.04,931.68 719.04,931.68 L719.104,931.68 C719.2055,931.362259 719.330736,931.051822 719.477693,930.752716 Z M719.104,930.116148 L719.477693,930.752716 C720.396349,928.882948 722.163806,927.456 724.288,927.456 C724.544,927.456 724.8,927.488 725.056,927.52 L725.056,931.52 C724.896,931.488 724.416,931.456 724.064,931.456 C720.736,931.456 719.264,934.336 719.264,937.408 L719.264,944 L715.2,944 L715.2,927.68 L719.104,927.68 L719.104,930.116148 Z M726.432,939.488 C726.432,934.592 732.32,933.76 735.936,933.76 L736.64,933.76 L736.64,933.536 C736.64,931.392 735.264,930.656 733.568,930.656 C731.968,930.656 730.336,931.328 729.024,932.224 L727.52,929.312 C728.864,928.224 731.488,927.296 733.92,927.296 C738.176,927.296 740.704,929.664 740.704,933.792 L740.704,944 L736.928,944 L736.928,942.624 C736.928,941.952 737.024,941.44 737.024,941.44 L736.96,941.44 C735.968,943.168 734.016,944.384 731.808,944.384 C728.864,944.384 726.432,942.464 726.432,939.488 Z M730.464,939.136 C730.464,940.224 731.296,941.28 732.928,941.28 C735.2,941.28 736.672,938.976 736.672,936.992 L736.672,936.544 L735.968,936.544 C733.92,936.544 730.464,936.832 730.464,939.136 Z M749.239223,929.964494 L748.768,929.192663 L748.768,929.6 C748.768,930.24 748.704,930.752 748.704,930.752 L748.768,930.752 C748.887835,930.506623 749.044305,930.238858 749.239223,929.964494 Z M748.768,929.192663 L749.239223,929.964494 C750.137345,928.700307 751.851764,927.296 754.56,927.296 C758.176,927.296 760.256,929.184 760.256,933.504 L760.256,944 L756.192,944 L756.192,934.336 C756.192,932.352 755.68,931.008 753.632,931.008 C750.752,931.008 748.928,933.408 748.928,936.352 L748.928,944 L744.864,944 L744.864,927.68 L748.768,927.68 L748.768,929.192663 Z M763.456,935.84 C763.456,940.576 766.912,944.384 772.32,944.384 C774.944,944.384 777.504,943.36 779.04,941.728 L777.472,938.848 C776.256,940.032 774.4,940.928 772.672,940.928 C769.536,940.928 767.584,938.56 767.584,935.808 C767.584,933.024 769.536,930.752 772.544,930.752 C774.144,930.752 775.744,931.488 776.768,932.512 L778.592,929.728 C777.024,928.032 774.528,927.296 772.32,927.296 C766.912,927.296 763.456,931.2 763.456,935.84 Z M780.672,935.84 C780.672,930.816 784.096,927.296 788.992,927.296 C793.664,927.296 796.224,930.72 796.224,935.04 C796.224,935.552 796.16,936.096 796.096,936.608 L784.864,936.608 C785.12,939.456 787.296,940.928 789.76,940.928 C791.424,940.928 793.12,940.192 794.432,939.136 L796.032,942.048 C794.368,943.52 791.808,944.384 789.472,944.384 C784.064,944.384 780.672,940.48 780.672,935.84 Z M784.96,933.824 L792.16,933.824 C792.128,931.648 790.72,930.368 788.896,930.368 C786.816,930.368 785.344,931.744 784.96,933.824 Z M811.893693,930.752716 L811.52,930.116148 L811.52,930.56 C811.52,931.168 811.456,931.68 811.456,931.68 L811.52,931.68 C811.6215,931.362259 811.746736,931.051822 811.893693,930.752716 Z M811.52,930.116148 L811.893693,930.752716 C812.812349,928.882948 814.579806,927.456 816.704,927.456 C816.96,927.456 817.216,927.488 817.472,927.52 L817.472,931.52 C817.312,931.488 816.832,931.456 816.48,931.456 C813.152,931.456 811.68,934.336 811.68,937.408 L811.68,944 L807.616,944 L807.616,927.68 L811.52,927.68 L811.52,930.116148 Z M819.008,935.84 C819.008,930.816 822.432,927.296 827.328,927.296 C832,927.296 834.56,930.72 834.56,935.04 C834.56,935.552 834.496,936.096 834.432,936.608 L823.2,936.608 C823.456,939.456 825.632,940.928 828.096,940.928 C829.76,940.928 831.456,940.192 832.768,939.136 L834.368,942.048 C832.704,943.52 830.144,944.384 827.808,944.384 C822.4,944.384 819.008,940.48 819.008,935.84 Z M823.296,933.824 L830.496,933.824 C830.464,931.648 829.056,930.368 827.232,930.368 C825.152,930.368 823.68,931.744 823.296,933.824 Z M836.64,941.984 C838.336,943.616 840.768,944.384 843.04,944.384 C846.784,944.384 849.216,942.24 849.216,939.36 C849.216,934.016 841.12,934.752 841.12,932.16 C841.12,931.136 841.984,930.592 843.392,930.592 C844.832,930.592 846.56,931.168 847.52,932 L849.024,929.152 C847.52,927.84 845.472,927.296 843.52,927.296 C840.096,927.296 837.28,928.992 837.28,932.192 C837.28,937.536 845.376,936.896 845.376,939.456 C845.376,940.48 844.544,941.088 843.104,941.088 C841.472,941.088 839.68,940.416 838.464,939.296 L836.64,941.984 Z M851.584,935.84 C851.584,930.816 855.008,927.296 859.904,927.296 C864.576,927.296 867.136,930.72 867.136,935.04 C867.136,935.552 867.072,936.096 867.008,936.608 L855.776,936.608 C856.032,939.456 858.208,940.928 860.672,940.928 C862.336,940.928 864.032,940.192 865.344,939.136 L866.944,942.048 C865.28,943.52 862.72,944.384 860.384,944.384 C854.976,944.384 851.584,940.48 851.584,935.84 Z M855.872,933.824 L863.072,933.824 C863.04,931.648 861.632,930.368 859.808,930.368 C857.728,930.368 856.256,931.744 855.872,933.824 Z M874.805693,930.752716 L874.432,930.116148 L874.432,930.56 C874.432,931.168 874.368,931.68 874.368,931.68 L874.432,931.68 C874.5335,931.362259 874.658736,931.051822 874.805693,930.752716 Z M874.432,930.116148 L874.805693,930.752716 C875.724349,928.882948 877.491806,927.456 879.616,927.456 C879.872,927.456 880.128,927.488 880.384,927.52 L880.384,931.52 C880.224,931.488 879.744,931.456 879.392,931.456 C876.064,931.456 874.592,934.336 874.592,937.408 L874.592,944 L870.528,944 L870.528,927.68 L874.432,927.68 L874.432,930.116148 Z M887.36,944 L892.16,944 L898.016,927.68 L893.728,927.68 L890.336,937.792 C890.048,938.752 889.76,940.256 889.76,940.256 L889.696,940.256 C889.696,940.256 889.408,938.752 889.12,937.792 L885.728,927.68 L881.44,927.68 L887.36,944 Z M899.232,935.84 C899.232,930.816 902.656,927.296 907.552,927.296 C912.224,927.296 914.784,930.72 914.784,935.04 C914.784,935.552 914.72,936.096 914.656,936.608 L903.424,936.608 C903.68,939.456 905.856,940.928 908.32,940.928 C909.984,940.928 911.68,940.192 912.992,939.136 L914.592,942.048 C912.928,943.52 910.368,944.384 908.032,944.384 C902.624,944.384 899.232,940.48 899.232,935.84 Z M903.52,933.824 L910.72,933.824 C910.688,931.648 909.28,930.368 907.456,930.368 C905.376,930.368 903.904,931.744 903.52,933.824 Z" id="Insurance-reserve" fill="#303498"></path>
        </g>
    </g>
</svg>