<?xml version="1.0" encoding="UTF-8"?>
<svg width="960px" height="750px" viewBox="0 0 960 750" version="1.1" xmlns="http://www.w3.org/2000/svg" xmlns:xlink="http://www.w3.org/1999/xlink">
    <!-- Generator: Sketch 46.1 (44463) - http://www.bohemiancoding.com/sketch -->
    <title>scheme-3</title>
    <desc>Created with Sketch.</desc>
    <defs></defs>
    <g id="Main" stroke="none" stroke-width="1" fill="none" fill-rule="evenodd">
        <g id="scheme-3">
            <g id="Group" transform="translate(2.000000, 13.000000)">
                <g id="Group-5" opacity="0.5" transform="translate(618.000000, 308.000000)"></g>
                <path d="M0.976,73 L4.144,73 L4.144,53.16 L15.6,53.16 L15.6,73 L18.768,73 L18.768,50.408 L0.976,50.408 L0.976,73 Z M23.952,79.4 L23.952,56.808 L26.832,56.808 L26.832,58.248 C26.832,58.92 26.736,59.464 26.736,59.464 L26.8,59.464 C27.824,57.512 29.872,56.424 32.24,56.424 C36.624,56.424 39.344,59.88 39.344,64.904 C39.344,70.056 36.272,73.384 32.016,73.384 C29.968,73.384 28.112,72.36 26.992,70.632 L26.928,70.632 C26.928,70.632 27.056,71.208 27.056,72.04 L27.056,79.4 L23.952,79.4 Z M26.96,64.968 C26.96,67.848 28.56,70.696 31.536,70.696 C34.096,70.696 36.208,68.616 36.208,64.936 C36.208,61.416 34.32,59.144 31.632,59.144 C29.2,59.144 26.96,60.872 26.96,64.968 Z M42.128,64.872 C42.128,59.976 46.032,56.424 50.832,56.424 C55.664,56.424 59.568,59.976 59.568,64.872 C59.568,69.8 55.664,73.384 50.864,73.384 C46.032,73.384 42.128,69.8 42.128,64.872 Z M45.296,64.872 C45.296,68.264 47.792,70.696 50.864,70.696 C53.904,70.696 56.432,68.264 56.432,64.872 C56.432,61.512 53.904,59.112 50.864,59.112 C47.792,59.112 45.296,61.512 45.296,64.872 Z M63.312,73 L63.312,56.808 L70,56.808 C73.264,56.808 75.408,58.248 75.408,60.968 C75.408,62.536 74.576,63.88 73.104,64.52 L73.104,64.552 C75.12,65.032 76.176,66.6 76.176,68.392 C76.176,71.4 73.744,73 70.224,73 L63.312,73 Z M66.416,63.656 L69.456,63.656 C71.312,63.656 72.24,62.696 72.24,61.192 C72.24,59.72 71.312,58.952 69.36,58.952 L66.416,58.952 L66.416,63.656 Z M66.416,70.824 L69.744,70.824 C71.984,70.824 73.04,69.8 73.04,68.296 C73.04,66.696 71.856,65.736 69.712,65.736 L66.416,65.736 L66.416,70.824 Z M78.896,64.904 C78.896,59.752 82.416,56.424 87.024,56.424 C91.6,56.424 94.032,59.848 94.032,64.008 C94.032,64.424 93.968,64.872 93.904,65.32 L82.128,65.32 C82.288,68.808 84.784,70.696 87.696,70.696 C89.424,70.696 91.184,69.96 92.464,68.808 L93.776,71.08 C92.208,72.52 89.744,73.384 87.504,73.384 C82.416,73.384 78.896,69.704 78.896,64.904 Z M82.224,63.08 L90.896,63.08 C90.8,60.296 89.072,58.824 86.96,58.824 C84.56,58.824 82.672,60.392 82.224,63.08 Z M97.776,79.4 L97.776,56.808 L100.656,56.808 L100.656,58.248 C100.656,58.92 100.56,59.464 100.56,59.464 L100.624,59.464 C101.648,57.512 103.696,56.424 106.064,56.424 C110.448,56.424 113.168,59.88 113.168,64.904 C113.168,70.056 110.096,73.384 105.84,73.384 C103.792,73.384 101.936,72.36 100.816,70.632 L100.752,70.632 C100.752,70.632 100.88,71.208 100.88,72.04 L100.88,79.4 L97.776,79.4 Z M100.784,64.968 C100.784,67.848 102.384,70.696 105.36,70.696 C107.92,70.696 110.032,68.616 110.032,64.936 C110.032,61.416 108.144,59.144 105.456,59.144 C103.024,59.144 100.784,60.872 100.784,64.968 Z M115.376,73 L119.12,67.624 C119.472,67.048 119.856,66.632 119.856,66.632 L119.856,66.6 C118,66.088 116.336,64.36 116.336,61.896 C116.336,58.568 118.704,56.808 122.128,56.808 L128.592,56.808 L128.592,73 L125.488,73 L125.488,67.144 L122.768,67.144 L118.8,73 L115.376,73 Z M122.8,64.872 L125.488,64.872 L125.488,58.952 L122.896,58.952 C120.816,58.952 119.472,59.784 119.472,61.864 C119.472,63.88 120.912,64.872 122.8,64.872 Z M132.336,64.904 C132.336,59.752 135.856,56.424 140.464,56.424 C145.04,56.424 147.472,59.848 147.472,64.008 C147.472,64.424 147.408,64.872 147.344,65.32 L135.568,65.32 C135.728,68.808 138.224,70.696 141.136,70.696 C142.864,70.696 144.624,69.96 145.904,68.808 L147.216,71.08 C145.648,72.52 143.184,73.384 140.944,73.384 C135.856,73.384 132.336,69.704 132.336,64.904 Z M135.664,63.08 L144.336,63.08 C144.24,60.296 142.512,58.824 140.4,58.824 C138,58.824 136.112,60.392 135.664,63.08 Z M154.928,73 L158,73 L158,59.464 L163.664,59.464 L163.664,56.808 L149.296,56.808 L149.296,59.464 L154.928,59.464 L154.928,73 Z M174.704,73 L174.704,56.808 L181.392,56.808 C184.656,56.808 186.8,58.248 186.8,60.968 C186.8,62.536 185.968,63.88 184.496,64.52 L184.496,64.552 C186.512,65.032 187.568,66.6 187.568,68.392 C187.568,71.4 185.136,73 181.616,73 L174.704,73 Z M177.808,63.656 L180.848,63.656 C182.704,63.656 183.632,62.696 183.632,61.192 C183.632,59.72 182.704,58.952 180.752,58.952 L177.808,58.952 L177.808,63.656 Z M177.808,70.824 L181.136,70.824 C183.376,70.824 184.432,69.8 184.432,68.296 C184.432,66.696 183.248,65.736 181.104,65.736 L177.808,65.736 L177.808,70.824 Z M190.288,64.872 C190.288,59.976 194.192,56.424 198.992,56.424 C203.824,56.424 207.728,59.976 207.728,64.872 C207.728,69.8 203.824,73.384 199.024,73.384 C194.192,73.384 190.288,69.8 190.288,64.872 Z M193.456,64.872 C193.456,68.264 195.952,70.696 199.024,70.696 C202.064,70.696 204.592,68.264 204.592,64.872 C204.592,61.512 202.064,59.112 199.024,59.112 C195.952,59.112 193.456,61.512 193.456,64.872 Z M209.52,71.016 C210.864,72.296 212.976,73.384 215.472,73.384 C218.8,73.384 221.68,71.688 221.68,68.36 C221.68,66.28 220.4,65.064 218.768,64.552 L218.768,64.488 C220.048,63.944 221.136,62.824 221.136,60.808 C221.136,57.928 218.736,56.424 215.664,56.424 C213.104,56.424 211.28,57.256 210.032,58.184 L211.184,60.264 C212.432,59.336 213.712,58.856 215.12,58.856 C216.912,58.856 218,59.688 218,61.192 C218,62.824 216.752,63.528 214.928,63.528 L213.232,63.528 L213.232,65.768 L215.216,65.768 C217.488,65.768 218.544,66.664 218.544,68.232 C218.544,69.992 217.04,70.888 215.184,70.888 C213.232,70.888 211.696,69.736 210.96,68.968 L209.52,71.016 Z M224.752,73 L227.76,73 L228.464,63.368 C228.528,62.408 228.432,60.584 228.432,60.584 L228.496,60.584 C228.496,60.584 229.008,61.8 229.52,62.984 L233.36,71.048 L236.016,71.048 L239.856,62.952 C240.464,61.704 240.88,60.584 240.88,60.584 L240.944,60.584 C240.944,60.584 240.88,62.408 240.912,63.368 L241.616,73 L244.624,73 L243.216,56.808 L239.824,56.808 L235.6,65.96 C235.184,66.952 234.704,68.136 234.704,68.136 L234.64,68.136 C234.64,68.136 234.192,66.92 233.744,65.96 L229.616,56.808 L226.16,56.808 L224.752,73 Z M247.728,64.872 C247.728,59.976 251.632,56.424 256.432,56.424 C261.264,56.424 265.168,59.976 265.168,64.872 C265.168,69.8 261.264,73.384 256.464,73.384 C251.632,73.384 247.728,69.8 247.728,64.872 Z M250.896,64.872 C250.896,68.264 253.392,70.696 256.464,70.696 C259.504,70.696 262.032,68.264 262.032,64.872 C262.032,61.512 259.504,59.112 256.464,59.112 C253.392,59.112 250.896,61.512 250.896,64.872 Z M266.544,73 L270,73 L274.256,66.088 L276.56,66.088 L276.56,73 L279.504,73 L279.504,66.088 L281.84,66.088 L286.064,73 L289.552,73 L284.336,64.68 L284.336,64.616 L289.072,56.808 L285.808,56.808 L281.808,63.432 L279.504,63.432 L279.504,56.808 L276.56,56.808 L276.56,63.432 L274.256,63.432 L270.288,56.808 L266.992,56.808 L271.76,64.616 L271.76,64.68 L266.544,73 Z M292.464,73 L295.568,73 L295.568,66.056 L303.76,66.056 L303.76,73 L306.864,73 L306.864,56.808 L303.76,56.808 L303.76,63.4 L295.568,63.4 L295.568,56.808 L292.464,56.808 L292.464,73 Z M310.608,64.872 C310.608,59.976 314.512,56.424 319.312,56.424 C324.144,56.424 328.048,59.976 328.048,64.872 C328.048,69.8 324.144,73.384 319.344,73.384 C314.512,73.384 310.608,69.8 310.608,64.872 Z M313.776,64.872 C313.776,68.264 316.272,70.696 319.344,70.696 C322.384,70.696 324.912,68.264 324.912,64.872 C324.912,61.512 322.384,59.112 319.344,59.112 C316.272,59.112 313.776,61.512 313.776,64.872 Z M330.736,64.904 C330.736,69.768 334.288,73.384 339.408,73.384 C341.936,73.384 344.4,72.36 345.872,70.792 L344.624,68.52 C343.376,69.832 341.424,70.696 339.632,70.696 C336.272,70.696 333.904,68.168 333.904,64.872 C333.904,61.576 336.272,59.112 339.536,59.112 C341.232,59.112 342.928,59.88 344.016,60.968 L345.488,58.792 C343.952,57.16 341.552,56.424 339.408,56.424 C334.32,56.424 330.736,60.104 330.736,64.904 Z M353.136,73 L356.208,73 L356.208,59.464 L361.872,59.464 L361.872,56.808 L347.504,56.808 L347.504,59.464 L353.136,59.464 L353.136,73 Z M364.912,73 L364.912,56.808 L368.016,56.808 L368.016,62.664 L371.28,62.664 C374.64,62.664 377.168,64.2 377.168,67.88 C377.168,70.92 375.312,73 371.216,73 L364.912,73 Z M368.016,70.76 L370.8,70.76 C373.04,70.76 374,69.544 374,67.848 C374,66.12 373.04,64.904 370.8,64.904 L368.016,64.904 L368.016,70.76 Z M0.4,123 L3.376,123 L10.384,113.336 C10.896,112.568 11.696,111.48 11.792,111.192 L11.856,111.192 C11.856,111.448 11.76,112.568 11.76,113.336 L11.76,123 L14.768,123 L14.768,106.808 L11.76,106.808 L4.784,116.472 C4.24,117.24 3.472,118.36 3.344,118.648 L3.28,118.648 C3.312,118.488 3.376,117.336 3.376,116.472 L3.376,106.808 L0.4,106.808 L0.4,123 Z M27.536,123 L30.64,123 L30.64,109.464 L38.576,109.464 L38.576,123 L41.68,123 L41.68,106.808 L27.536,106.808 L27.536,123 Z M46.48,129.4 L46.48,106.808 L49.36,106.808 L49.36,108.248 C49.36,108.92 49.264,109.464 49.264,109.464 L49.328,109.464 C50.352,107.512 52.4,106.424 54.768,106.424 C59.152,106.424 61.872,109.88 61.872,114.904 C61.872,120.056 58.8,123.384 54.544,123.384 C52.496,123.384 50.64,122.36 49.52,120.632 L49.456,120.632 C49.456,120.632 49.584,121.208 49.584,122.04 L49.584,129.4 L46.48,129.4 Z M49.488,114.968 C49.488,117.848 51.088,120.696 54.064,120.696 C56.624,120.696 58.736,118.616 58.736,114.936 C58.736,111.416 56.848,109.144 54.16,109.144 C51.728,109.144 49.488,110.872 49.488,114.968 Z M65.712,123 L68.688,123 L75.696,113.336 C76.208,112.568 77.008,111.48 77.104,111.192 L77.168,111.192 C77.168,111.448 77.072,112.568 77.072,113.336 L77.072,123 L80.08,123 L80.08,106.808 L77.072,106.808 L70.096,116.472 C69.552,117.24 68.784,118.36 68.656,118.648 L68.592,118.648 C68.624,118.488 68.688,117.336 68.688,116.472 L68.688,106.808 L65.712,106.808 L65.712,123 Z M83.792,114.872 C83.792,109.976 87.696,106.424 92.496,106.424 C97.328,106.424 101.232,109.976 101.232,114.872 C101.232,119.8 97.328,123.384 92.528,123.384 C87.696,123.384 83.792,119.8 83.792,114.872 Z M86.96,114.872 C86.96,118.264 89.456,120.696 92.528,120.696 C95.568,120.696 98.096,118.264 98.096,114.872 C98.096,111.512 95.568,109.112 92.528,109.112 C89.456,109.112 86.96,111.512 86.96,114.872 Z M104.272,113.688 C104.272,107.896 105.936,104.376 111.568,102.008 L117.36,99.512 L118.384,102.072 L112.176,104.664 C108.944,106.136 107.408,108.024 107.184,111.128 L107.248,111.128 C108.688,108.952 110.832,108.248 112.976,108.248 C117.04,108.248 119.856,111.128 119.856,115.704 C119.856,120.184 116.784,123.384 112.208,123.384 C106.736,123.384 104.272,119.288 104.272,113.688 Z M107.504,115.704 C107.504,118.904 109.584,120.76 112.08,120.76 C114.64,120.76 116.72,118.904 116.72,115.768 C116.72,112.6 114.64,110.712 112.208,110.712 C109.456,110.712 107.504,112.856 107.504,115.704 Z M123.728,129.4 L123.728,106.808 L126.608,106.808 L126.608,108.248 C126.608,108.92 126.512,109.464 126.512,109.464 L126.576,109.464 C127.6,107.512 129.648,106.424 132.016,106.424 C136.4,106.424 139.12,109.88 139.12,114.904 C139.12,120.056 136.048,123.384 131.792,123.384 C129.744,123.384 127.888,122.36 126.768,120.632 L126.704,120.632 C126.704,120.632 126.832,121.208 126.832,122.04 L126.832,129.4 L123.728,129.4 Z M126.736,114.968 C126.736,117.848 128.336,120.696 131.312,120.696 C133.872,120.696 135.984,118.616 135.984,114.936 C135.984,111.416 134.096,109.144 131.408,109.144 C128.976,109.144 126.736,110.872 126.736,114.968 Z M141.904,114.904 C141.904,109.752 145.424,106.424 150.032,106.424 C154.608,106.424 157.04,109.848 157.04,114.008 C157.04,114.424 156.976,114.872 156.912,115.32 L145.136,115.32 C145.296,118.808 147.792,120.696 150.704,120.696 C152.432,120.696 154.192,119.96 155.472,118.808 L156.784,121.08 C155.216,122.52 152.752,123.384 150.512,123.384 C145.424,123.384 141.904,119.704 141.904,114.904 Z M145.232,113.08 L153.904,113.08 C153.808,110.296 152.08,108.824 149.968,108.824 C147.568,108.824 145.68,110.392 145.232,113.08 Z M164.496,123 L167.568,123 L167.568,109.464 L173.232,109.464 L173.232,106.808 L158.864,106.808 L158.864,109.464 L164.496,109.464 L164.496,123 Z M174.768,118.584 C174.768,113.496 181.072,112.92 184.432,112.92 L185.264,112.92 L185.264,112.6 C185.264,109.944 183.728,109.048 181.712,109.048 C180.112,109.048 178.48,109.688 177.168,110.616 L175.92,108.344 C177.232,107.256 179.696,106.424 181.968,106.424 C186.032,106.424 188.368,108.664 188.368,112.76 L188.368,123 L185.456,123 L185.456,121.368 C185.456,120.632 185.552,120.088 185.552,120.088 L185.488,120.088 C184.56,121.944 182.576,123.384 180.176,123.384 C177.36,123.384 174.768,121.624 174.768,118.584 Z M177.872,118.328 C177.872,119.608 178.896,120.92 180.912,120.92 C183.632,120.92 185.264,118.168 185.264,115.768 L185.264,115.16 L184.464,115.16 C182.16,115.16 177.872,115.352 177.872,118.328 Z M191.888,114.904 C191.888,109.752 195.408,106.424 200.016,106.424 C204.592,106.424 207.024,109.848 207.024,114.008 C207.024,114.424 206.96,114.872 206.896,115.32 L195.12,115.32 C195.28,118.808 197.776,120.696 200.688,120.696 C202.416,120.696 204.176,119.96 205.456,118.808 L206.768,121.08 C205.2,122.52 202.736,123.384 200.496,123.384 C195.408,123.384 191.888,119.704 191.888,114.904 Z M195.216,113.08 L203.888,113.08 C203.792,110.296 202.064,108.824 199.952,108.824 C197.552,108.824 195.664,110.392 195.216,113.08 Z M214.48,123 L217.552,123 L217.552,109.464 L223.216,109.464 L223.216,106.808 L208.848,106.808 L208.848,109.464 L214.48,109.464 L214.48,123 Z" id="Проверяет-возможност" fill="#181920"></path>
                <path d="M241.984,123 L246.016,123 L246.016,110.136 L251.424,110.136 L251.424,106.68 L236.608,106.68 L236.608,110.136 L241.984,110.136 L241.984,123 Z M252.768,114.84 C252.768,109.848 256.768,106.296 261.696,106.296 C266.688,106.296 270.688,109.848 270.688,114.84 C270.688,119.864 266.688,123.384 261.728,123.384 C256.768,123.384 252.768,119.864 252.768,114.84 Z M256.896,114.84 C256.896,117.88 259.072,119.928 261.728,119.928 C264.384,119.928 266.592,117.88 266.592,114.84 C266.592,111.832 264.384,109.752 261.728,109.752 C259.072,109.752 256.896,111.832 256.896,114.84 Z M274.048,123 L278.112,123 L278.112,116.376 L280.224,116.376 L284.512,123 L289.216,123 L283.392,114.52 L283.392,114.456 L288.576,106.68 L284.064,106.68 L280.096,112.92 L278.112,112.92 L278.112,106.68 L274.048,106.68 L274.048,123 Z M289.952,114.84 C289.952,109.816 293.376,106.296 298.272,106.296 C302.944,106.296 305.504,109.72 305.504,114.04 C305.504,114.552 305.44,115.096 305.376,115.608 L294.144,115.608 C294.4,118.456 296.576,119.928 299.04,119.928 C300.704,119.928 302.4,119.192 303.712,118.136 L305.312,121.048 C303.648,122.52 301.088,123.384 298.752,123.384 C293.344,123.384 289.952,119.48 289.952,114.84 Z M294.24,112.824 L301.44,112.824 C301.408,110.648 300,109.368 298.176,109.368 C296.096,109.368 294.624,110.744 294.24,112.824 Z M308.896,123 L312.96,123 L312.96,116.408 L319.936,116.408 L319.936,123 L324,123 L324,106.68 L319.936,106.68 L319.936,112.984 L312.96,112.984 L312.96,106.68 L308.896,106.68 L308.896,123 Z M334.432,123 L342.4,100.28 L346.752,100.28 L354.72,123 L350.496,123 L348.544,117.176 L340.576,117.176 L338.656,123 L334.432,123 Z M341.6,113.816 L347.52,113.816 L345.504,107.736 C345.12,106.456 344.608,104.216 344.608,104.216 L344.544,104.216 C344.544,104.216 344.032,106.456 343.648,107.736 L341.6,113.816 Z" id="токен-A" fill="#FF674C"></path>
                <path d="M0.752,23 L4.848,23 L13.488,9.912 C14.32,8.568 15.376,6.392 15.376,6.392 L15.44,6.392 C15.44,6.392 15.216,8.568 15.216,9.912 L15.216,23 L19.312,23 L19.312,0.28 L15.216,0.28 L6.64,13.368 C5.808,14.712 4.72,16.92 4.72,16.92 L4.656,16.92 C4.656,16.92 4.88,14.744 4.88,13.4 L4.88,0.28 L0.752,0.28 L0.752,23 Z M24.08,23 L28.144,23 L28.144,16.408 L35.12,16.408 L35.12,23 L39.184,23 L39.184,6.68 L35.12,6.68 L35.12,12.984 L28.144,12.984 L28.144,6.68 L24.08,6.68 L24.08,23 Z M43.536,23 L43.536,6.68 L51.12,6.68 C54.416,6.68 56.624,8.152 56.624,10.904 C56.624,12.408 55.856,13.816 54.48,14.488 L54.48,14.52 C56.432,15.032 57.36,16.632 57.36,18.264 C57.36,21.528 54.704,23 51.28,23 L43.536,23 Z M47.6,13.4 L50.256,13.4 C51.792,13.4 52.528,12.504 52.528,11.256 C52.528,10.072 51.792,9.336 50.192,9.336 L47.6,9.336 L47.6,13.4 Z M47.6,20.312 L50.576,20.312 C52.4,20.312 53.264,19.384 53.264,18.136 C53.264,16.824 52.336,15.928 50.576,15.928 L47.6,15.928 L47.6,20.312 Z M59.76,14.84 C59.76,9.816 63.184,6.296 68.08,6.296 C72.752,6.296 75.312,9.72 75.312,14.04 C75.312,14.552 75.248,15.096 75.184,15.608 L63.952,15.608 C64.208,18.456 66.384,19.928 68.848,19.928 C70.512,19.928 72.208,19.192 73.52,18.136 L75.12,21.048 C73.456,22.52 70.896,23.384 68.56,23.384 C63.152,23.384 59.76,19.48 59.76,14.84 Z M64.048,12.824 L71.248,12.824 C71.216,10.648 69.808,9.368 67.984,9.368 C65.904,9.368 64.432,10.744 64.048,12.824 Z M77.712,14.84 C77.712,19.576 81.168,23.384 86.576,23.384 C89.2,23.384 91.76,22.36 93.296,20.728 L91.728,17.848 C90.512,19.032 88.656,19.928 86.928,19.928 C83.792,19.928 81.84,17.56 81.84,14.808 C81.84,12.024 83.792,9.752 86.8,9.752 C88.4,9.752 90,10.488 91.024,11.512 L92.848,8.728 C91.28,7.032 88.784,6.296 86.576,6.296 C81.168,6.296 77.712,10.2 77.712,14.84 Z M100.048,23 L104.08,23 L104.08,10.136 L109.488,10.136 L109.488,6.68 L94.672,6.68 L94.672,10.136 L100.048,10.136 L100.048,23 Z M110.832,14.84 C110.832,9.848 114.832,6.296 119.76,6.296 C124.752,6.296 128.752,9.848 128.752,14.84 C128.752,19.864 124.752,23.384 119.792,23.384 C114.832,23.384 110.832,19.864 110.832,14.84 Z M114.96,14.84 C114.96,17.88 117.136,19.928 119.792,19.928 C122.448,19.928 124.656,17.88 124.656,14.84 C124.656,11.832 122.448,9.752 119.792,9.752 C117.136,9.752 114.96,11.832 114.96,14.84 Z M136.463035,8.19232599 L135.824,7.86887805 L135.824,7.896 C135.824,8.504 135.76,9.048 135.76,9.048 L135.824,9.048 C136.009615,8.73864198 136.223901,8.45301183 136.463035,8.19232599 Z M135.824,7.86887805 L136.463035,8.19232599 C137.584382,6.96991764 139.252104,6.296 141.072,6.296 C145.488,6.296 148.304,9.784 148.304,14.84 C148.304,20.024 145.136,23.384 140.848,23.384 C138.992,23.384 137.296,22.552 136.144,21.08 L136.08,21.08 C136.08,21.08 136.176,21.656 136.176,22.488 L136.176,29.4 L132.112,29.4 L132.112,6.68 L135.824,6.68 L135.824,7.86887805 Z M136.048,14.936 C136.048,17.464 137.456,19.96 140.112,19.96 C142.352,19.96 144.208,18.136 144.208,14.904 C144.208,11.8 142.544,9.784 140.176,9.784 C138.032,9.784 136.048,11.32 136.048,14.936 Z" id="Инвестор" fill="#303498"></path>
            </g>
            <g id="Group-4" transform="translate(0.000000, 199.000000)">
                <rect id="Rectangle-4" stroke="#F6F6F9" stroke-width="8" x="4" y="4" width="912" height="432" rx="10"></rect>
                <path d="M62.752,66 L62.752,43.28 L70.496,43.28 C77.504,43.28 82.08,47.44 82.08,54.608 C82.08,61.776 77.504,66 70.496,66 L62.752,66 Z M66.88,62.448 L70.272,62.448 C74.88,62.448 77.824,59.728 77.824,54.608 C77.824,49.552 74.816,46.832 70.272,46.832 L66.88,46.832 L66.88,62.448 Z M84.768,57.84 C84.768,52.816 88.192,49.296 93.088,49.296 C97.76,49.296 100.32,52.72 100.32,57.04 C100.32,57.552 100.256,58.096 100.192,58.608 L88.96,58.608 C89.216,61.456 91.392,62.928 93.856,62.928 C95.52,62.928 97.216,62.192 98.528,61.136 L100.128,64.048 C98.464,65.52 95.904,66.384 93.568,66.384 C88.16,66.384 84.768,62.48 84.768,57.84 Z M89.056,55.824 L96.256,55.824 C96.224,53.648 94.816,52.368 92.992,52.368 C90.912,52.368 89.44,53.744 89.056,55.824 Z M104.032,66 L108.16,66 L108.16,56.464 L118.56,56.464 L118.56,66 L122.656,66 L122.656,43.28 L118.56,43.28 L118.56,52.912 L108.16,52.912 L108.16,43.28 L104.032,43.28 L104.032,66 Z M126.272,57.84 C126.272,52.816 129.696,49.296 134.592,49.296 C139.264,49.296 141.824,52.72 141.824,57.04 C141.824,57.552 141.76,58.096 141.696,58.608 L130.464,58.608 C130.72,61.456 132.896,62.928 135.36,62.928 C137.024,62.928 138.72,62.192 140.032,61.136 L141.632,64.048 C139.968,65.52 137.408,66.384 135.072,66.384 C129.664,66.384 126.272,62.48 126.272,57.84 Z M130.56,55.824 L137.76,55.824 C137.728,53.648 136.32,52.368 134.496,52.368 C132.416,52.368 130.944,53.744 130.56,55.824 Z M156.116641,64.3574664 L156.672,64.7184099 L156.672,64.592 C156.672,63.984 156.736,63.568 156.736,63.568 L156.672,63.568 C156.511328,63.8464975 156.325558,64.1106531 156.116641,64.3574664 Z M156.672,64.7184099 L156.116641,64.3574664 C155.077291,65.5853427 153.465032,66.384 151.52,66.384 C147.136,66.384 144.288,62.896 144.288,57.84 C144.288,52.656 147.36,49.296 151.68,49.296 C153.504,49.296 155.392,49.968 156.448,51.44 L156.512,51.44 C156.512,51.44 156.448,51.024 156.448,50.48 L156.448,43.28 L160.48,43.28 L160.48,66 L156.672,66 L156.672,64.7184099 Z M148.384,57.84 C148.384,60.944 150.048,62.96 152.448,62.96 C154.56,62.96 156.544,61.424 156.544,57.808 C156.544,55.28 155.232,52.784 152.48,52.784 C150.272,52.784 148.384,54.608 148.384,57.84 Z M175.327821,64.0664336 L175.84,64.3801958 L175.84,64.272 C175.84,63.888 175.904,63.408 175.904,63.408 L175.84,63.408 C175.68256,63.64416 175.51221,63.8639672 175.327821,64.0664336 Z M175.84,64.3801958 L175.327821,64.0664336 C174.387885,65.0985185 173.083136,65.68 171.264,65.68 C166.592,65.68 163.968,61.904 163.968,57.424 C163.968,52.944 166.464,49.296 171.168,49.296 C172.992,49.296 174.944,49.936 176.032,51.44 L176.128,51.44 C176.128,51.44 176.064,51.248 176.064,50.992 L176.064,49.68 L179.904,49.68 L179.904,65.008 C179.904,70.608 175.552,72.72 171.296,72.72 C169.248,72.72 167.072,72.144 165.472,71.312 L166.72,68.208 C168.032,68.848 169.632,69.264 171.232,69.264 C173.728,69.264 175.84,68.208 175.84,65.296 L175.84,64.3801958 Z M168.064,57.296 C168.064,60.144 169.504,62.256 172.16,62.256 C174.08,62.256 175.936,61.136 175.936,57.456 C175.936,53.744 174.08,52.752 171.904,52.752 C169.44,52.752 168.064,54.544 168.064,57.296 Z M183.264,57.84 C183.264,52.816 186.688,49.296 191.584,49.296 C196.256,49.296 198.816,52.72 198.816,57.04 C198.816,57.552 198.752,58.096 198.688,58.608 L187.456,58.608 C187.712,61.456 189.888,62.928 192.352,62.928 C194.016,62.928 195.712,62.192 197.024,61.136 L198.624,64.048 C196.96,65.52 194.4,66.384 192.064,66.384 C186.656,66.384 183.264,62.48 183.264,57.84 Z M187.552,55.824 L194.752,55.824 C194.72,53.648 193.312,52.368 191.488,52.368 C189.408,52.368 187.936,53.744 187.552,55.824 Z" id="DeHedge" fill="#303498"></path>
                <g id="Group" transform="translate(60.000000, 186.000000)">
                    <path d="M7.904,31 L7.904,11.832 L0.448,11.832 L0.448,8.28 L19.456,8.28 L19.456,11.832 L12,11.832 L12,31 L7.904,31 Z M18.208,22.84 C18.208,17.848 22.208,14.296 27.136,14.296 C32.128,14.296 36.128,17.848 36.128,22.84 C36.128,27.864 32.128,31.384 27.168,31.384 C22.208,31.384 18.208,27.864 18.208,22.84 Z M22.336,22.84 C22.336,25.88 24.512,27.928 27.168,27.928 C29.824,27.928 32.032,25.88 32.032,22.84 C32.032,19.832 29.824,17.752 27.168,17.752 C24.512,17.752 22.336,19.832 22.336,22.84 Z M39.488,31 L43.552,31 L43.552,24.376 L45.664,24.376 L49.952,31 L54.656,31 L48.832,22.52 L48.832,22.456 L54.016,14.68 L49.504,14.68 L45.536,20.92 L43.552,20.92 L43.552,14.68 L39.488,14.68 L39.488,31 Z M55.392,22.84 C55.392,17.816 58.816,14.296 63.712,14.296 C68.384,14.296 70.944,17.72 70.944,22.04 C70.944,22.552 70.88,23.096 70.816,23.608 L59.584,23.608 C59.84,26.456 62.016,27.928 64.48,27.928 C66.144,27.928 67.84,27.192 69.152,26.136 L70.752,29.048 C69.088,30.52 66.528,31.384 64.192,31.384 C58.784,31.384 55.392,27.48 55.392,22.84 Z M59.68,20.824 L66.88,20.824 C66.848,18.648 65.44,17.368 63.616,17.368 C61.536,17.368 60.064,18.744 59.68,20.824 Z M74.336,31 L78.4,31 L78.4,24.408 L85.376,24.408 L85.376,31 L89.44,31 L89.44,14.68 L85.376,14.68 L85.376,20.984 L78.4,20.984 L78.4,14.68 L74.336,14.68 L74.336,31 Z M99.872,31 L107.84,8.28 L112.192,8.28 L120.16,31 L115.936,31 L113.984,25.176 L106.016,25.176 L104.096,31 L99.872,31 Z M107.04,21.816 L112.96,21.816 L110.944,15.736 C110.56,14.456 110.048,12.216 110.048,12.216 L109.984,12.216 C109.984,12.216 109.472,14.456 109.088,15.736 L107.04,21.816 Z" id="Токен-A" fill="#FF674C"></path>
                    <path d="M211.390625,31 L208.484375,31 L208.484375,11.734375 L202.65625,13.875 L202.65625,11.25 L210.9375,8.140625 L211.390625,8.140625 L211.390625,31 Z M234.125,21.296875 C234.125,24.6823086 233.546881,27.1979084 232.390625,28.84375 C231.234369,30.4895916 229.427096,31.3125 226.96875,31.3125 C224.541655,31.3125 222.744798,30.5078205 221.578125,28.8984375 C220.411452,27.2890545 219.807292,24.8854327 219.765625,21.6875 L219.765625,17.828125 C219.765625,14.4843583 220.343744,12.0000081 221.5,10.375 C222.656256,8.74999187 224.468738,7.9375 226.9375,7.9375 C229.385429,7.9375 231.187494,8.72134633 232.34375,10.2890625 C233.500006,11.8567787 234.09375,14.2760253 234.125,17.546875 L234.125,21.296875 Z M231.234375,17.34375 C231.234375,14.8958211 230.890628,13.1119848 230.203125,11.9921875 C229.515622,10.8723902 228.427091,10.3125 226.9375,10.3125 C225.458326,10.3125 224.380212,10.8697861 223.703125,11.984375 C223.026038,13.0989639 222.677083,14.8124884 222.65625,17.125 L222.65625,21.75 C222.65625,24.2083456 223.013017,26.0234316 223.726562,27.1953125 C224.440108,28.3671934 225.520826,28.953125 226.96875,28.953125 C228.39584,28.953125 229.455726,28.4010472 230.148438,27.296875 C230.841149,26.1927028 231.203125,24.4531369 231.234375,22.078125 L231.234375,17.34375 Z M245.34375,22.40625 C245.34375,19.812487 245.958327,17.7265704 247.1875,16.1484375 C248.416673,14.5703046 250.026032,13.78125 252.015625,13.78125 C253.994802,13.78125 255.562494,14.4583266 256.71875,15.8125 L256.71875,7 L259.609375,7 L259.609375,31 L256.953125,31 L256.8125,29.1875 C255.656244,30.6041738 254.046885,31.3125 251.984375,31.3125 C250.026032,31.3125 248.429694,30.5104247 247.195312,28.90625 C245.960931,27.3020753 245.34375,25.2083462 245.34375,22.625 L245.34375,22.40625 Z M248.234375,22.734375 C248.234375,24.6510513 248.630204,26.1510363 249.421875,27.234375 C250.213546,28.3177137 251.307285,28.859375 252.703125,28.859375 C254.536468,28.859375 255.874996,28.0364666 256.71875,26.390625 L256.71875,18.625 C255.854162,17.031242 254.526051,16.234375 252.734375,16.234375 C251.317701,16.234375 250.213546,16.7812445 249.421875,17.875 C248.630204,18.9687555 248.234375,20.5885309 248.234375,22.734375 Z M274.53125,31 C274.364582,30.666665 274.229167,30.0729209 274.125,29.21875 C272.781243,30.6145903 271.177093,31.3125 269.3125,31.3125 C267.645825,31.3125 266.278651,30.8411505 265.210938,29.8984375 C264.143224,28.9557245 263.609375,27.7604239 263.609375,26.3125 C263.609375,24.5520745 264.278639,23.1849007 265.617188,22.2109375 C266.955736,21.2369743 268.83853,20.75 271.265625,20.75 L274.078125,20.75 L274.078125,19.421875 C274.078125,18.4114533 273.776045,17.6067738 273.171875,17.0078125 C272.567705,16.4088512 271.677089,16.109375 270.5,16.109375 C269.468745,16.109375 268.60417,16.3697891 267.90625,16.890625 C267.20833,17.4114609 266.859375,18.041663 266.859375,18.78125 L263.953125,18.78125 C263.953125,17.9374958 264.252601,17.1223998 264.851562,16.3359375 C265.450524,15.5494752 266.263016,14.9270856 267.289062,14.46875 C268.315109,14.0104144 269.442702,13.78125 270.671875,13.78125 C272.619801,13.78125 274.145828,14.2682243 275.25,15.2421875 C276.354172,16.2161507 276.927083,17.5572831 276.96875,19.265625 L276.96875,27.046875 C276.96875,28.5989661 277.166665,29.8333287 277.5625,30.75 L277.5625,31 L274.53125,31 Z M269.734375,28.796875 C270.64063,28.796875 271.499996,28.5625023 272.3125,28.09375 C273.125004,27.6249977 273.71354,27.0156287 274.078125,26.265625 L274.078125,22.796875 L271.8125,22.796875 C268.270816,22.796875 266.5,23.833323 266.5,25.90625 C266.5,26.8125045 266.80208,27.5208308 267.40625,28.03125 C268.01042,28.5416692 268.786454,28.796875 269.734375,28.796875 Z M286.796875,26.765625 L290.734375,14.09375 L293.828125,14.09375 L287.03125,33.609375 C285.979161,36.4218891 284.307303,37.828125 282.015625,37.828125 L281.46875,37.78125 L280.390625,37.578125 L280.390625,35.234375 L281.171875,35.296875 C282.151047,35.296875 282.91406,35.0989603 283.460938,34.703125 C284.007815,34.3072897 284.458332,33.5833386 284.8125,32.53125 L285.453125,30.8125 L279.421875,14.09375 L282.578125,14.09375 L286.796875,26.765625 Z" id="10-day" fill="#181920"></path>
                    <path d="M411.390625,31 L408.484375,31 L408.484375,11.734375 L402.65625,13.875 L402.65625,11.25 L410.9375,8.140625 L411.390625,8.140625 L411.390625,31 Z M426.171875,22.515625 L418.546875,22.515625 L418.546875,20.15625 L426.171875,20.15625 L426.171875,22.515625 Z M443.59375,31 L428.6875,31 L428.6875,28.921875 L436.5625,20.171875 C437.729173,18.8489517 438.533852,17.7734416 438.976562,16.9453125 C439.419273,16.1171834 439.640625,15.2604211 439.640625,14.375 C439.640625,13.1874941 439.281254,12.2135455 438.5625,11.453125 C437.843746,10.6927045 436.885423,10.3125 435.6875,10.3125 C434.249993,10.3125 433.132816,10.7213501 432.335938,11.5390625 C431.539059,12.3567749 431.140625,13.4947844 431.140625,14.953125 L428.25,14.953125 C428.25,12.8593645 428.924472,11.1666731 430.273438,9.875 C431.622403,8.58332687 433.427072,7.9375 435.6875,7.9375 C437.802094,7.9375 439.473952,8.49218195 440.703125,9.6015625 C441.932298,10.710943 442.546875,12.1874908 442.546875,14.03125 C442.546875,16.2708445 441.119806,18.9374845 438.265625,22.03125 L432.171875,28.640625 L443.59375,28.640625 L443.59375,31 Z M468.1875,20.484375 L458.328125,20.484375 L458.328125,28.546875 L469.78125,28.546875 L469.78125,31 L455.328125,31 L455.328125,8.25 L469.625,8.25 L469.625,10.71875 L458.328125,10.71875 L458.328125,18.03125 L468.1875,18.03125 L468.1875,20.484375 Z M489.234375,10.71875 L481.921875,10.71875 L481.921875,31 L478.9375,31 L478.9375,10.71875 L471.640625,10.71875 L471.640625,8.25 L489.234375,8.25 L489.234375,10.71875 Z M510.09375,31 L507.078125,31 L507.078125,20.484375 L495.609375,20.484375 L495.609375,31 L492.609375,31 L492.609375,8.25 L495.609375,8.25 L495.609375,18.03125 L507.078125,18.03125 L507.078125,8.25 L510.09375,8.25 L510.09375,31 Z" id="1-2-ЕTH" fill="#181920"></path>
                </g>
                <g id="Group-Copy-2" transform="translate(60.000000, 326.000000)" fill="#181920">
                    <path d="M18.359375,10.71875 L11.046875,10.71875 L11.046875,31 L8.0625,31 L8.0625,10.71875 L0.765625,10.71875 L0.765625,8.25 L18.359375,8.25 L18.359375,10.71875 Z M18.96875,22.390625 C18.96875,20.7343667 19.2942676,19.2447983 19.9453125,17.921875 C20.5963574,16.5989517 21.5025984,15.5781286 22.6640625,14.859375 C23.8255266,14.1406214 25.1510342,13.78125 26.640625,13.78125 C28.9427198,13.78125 30.8046804,14.578117 32.2265625,16.171875 C33.6484446,17.765633 34.359375,19.8854034 34.359375,22.53125 L34.359375,22.734375 C34.359375,24.3802166 34.044274,25.8567643 33.4140625,27.1640625 C32.783851,28.4713607 31.8828184,29.4895797 30.7109375,30.21875 C29.5390566,30.9479203 28.1927159,31.3125 26.671875,31.3125 C24.3801969,31.3125 22.5234446,30.515633 21.1015625,28.921875 C19.6796804,27.328117 18.96875,25.2187631 18.96875,22.59375 L18.96875,22.390625 Z M21.875,22.734375 C21.875,24.6093844 22.3098915,26.1145777 23.1796875,27.25 C24.0494835,28.3854223 25.2135344,28.953125 26.671875,28.953125 C28.1406323,28.953125 29.3072873,28.3776099 30.171875,27.2265625 C31.0364627,26.0755151 31.46875,24.463552 31.46875,22.390625 C31.46875,20.5364491 31.0286502,19.0338599 30.1484375,17.8828125 C29.2682248,16.7317651 28.0989656,16.15625 26.640625,16.15625 C25.2135345,16.15625 24.0625044,16.7239527 23.1875,17.859375 C22.3124956,18.9947973 21.875,20.6197811 21.875,22.734375 Z M43.25,23.796875 L41.140625,23.796875 L41.140625,31 L38.234375,31 L38.234375,14.09375 L41.140625,14.09375 L41.140625,21.25 L43.03125,21.25 L48.71875,14.09375 L52.21875,14.09375 L45.53125,22.21875 L52.78125,31 L49.109375,31 L43.25,23.796875 Z M62.03125,31.3125 C59.7395719,31.3125 57.8750072,30.5599034 56.4375,29.0546875 C54.9999928,27.5494716 54.28125,25.5364709 54.28125,23.015625 L54.28125,22.484375 C54.28125,20.8072833 54.6015593,19.3099024 55.2421875,17.9921875 C55.8828157,16.6744726 56.7786401,15.6432329 57.9296875,14.8984375 C59.0807349,14.1536421 60.3281183,13.78125 61.671875,13.78125 C63.8698027,13.78125 65.5781189,14.5052011 66.796875,15.953125 C68.0156311,17.4010489 68.625,19.4739448 68.625,22.171875 L68.625,23.375 L57.171875,23.375 C57.2135419,25.041675 57.7005162,26.3880157 58.6328125,27.4140625 C59.5651088,28.4401093 60.7499928,28.953125 62.1875,28.953125 C63.2083384,28.953125 64.0729131,28.7447937 64.78125,28.328125 C65.4895869,27.9114563 66.1093723,27.3593784 66.640625,26.671875 L68.40625,28.046875 C66.9895762,30.2239692 64.8645975,31.3125 62.03125,31.3125 Z M61.671875,16.15625 C60.5052025,16.15625 59.5260456,16.5807249 58.734375,17.4296875 C57.9427044,18.2786501 57.4531259,19.4687423 57.265625,21 L65.734375,21 L65.734375,20.78125 C65.6510413,19.3124927 65.2552119,18.1744832 64.546875,17.3671875 C63.8385381,16.5598918 62.8802144,16.15625 61.671875,16.15625 Z M85.78125,31 L82.890625,31 L82.890625,23.78125 L75.125,23.78125 L75.125,31 L72.21875,31 L72.21875,14.09375 L75.125,14.09375 L75.125,21.421875 L82.890625,21.421875 L82.890625,14.09375 L85.78125,14.09375 L85.78125,31 Z M115.53125,23.78125 C115.249999,26.187512 114.361987,28.0442643 112.867188,29.3515625 C111.372388,30.6588607 109.385429,31.3125 106.90625,31.3125 C104.218737,31.3125 102.065112,30.348968 100.445312,28.421875 C98.8255127,26.494782 98.015625,23.9166828 98.015625,20.6875 L98.015625,18.5 C98.015625,16.3854061 98.3932254,14.5260497 99.1484375,12.921875 C99.9036496,11.3177003 100.973951,10.0859418 102.359375,9.2265625 C103.744799,8.3671832 105.348949,7.9375 107.171875,7.9375 C109.588554,7.9375 111.526034,8.61197242 112.984375,9.9609375 C114.442716,11.3099026 115.291665,13.1770714 115.53125,15.5625 L112.515625,15.5625 C112.255207,13.7499909 111.690109,12.4375041 110.820312,11.625 C109.950516,10.8124959 108.734383,10.40625 107.171875,10.40625 C105.255199,10.40625 103.75261,11.1145762 102.664062,12.53125 C101.575515,13.9479238 101.03125,15.9635286 101.03125,18.578125 L101.03125,20.78125 C101.03125,23.2500123 101.54687,25.2135344 102.578125,26.671875 C103.60938,28.1302156 105.052074,28.859375 106.90625,28.859375 C108.572925,28.859375 109.851558,28.4817746 110.742188,27.7265625 C111.632817,26.9713504 112.223957,25.6562594 112.515625,23.78125 L115.53125,23.78125 Z" id="Токен-C"></path>
                    <path d="M206.09375,18.21875 L208.265625,18.21875 C209.630215,18.1979166 210.703121,17.8385452 211.484375,17.140625 C212.265629,16.4427048 212.65625,15.5000059 212.65625,14.3125 C212.65625,11.64582 211.328138,10.3125 208.671875,10.3125 C207.421869,10.3125 206.424483,10.6692673 205.679688,11.3828125 C204.934892,12.0963577 204.5625,13.0416608 204.5625,14.21875 L201.671875,14.21875 C201.671875,12.4166577 202.330723,10.9192768 203.648438,9.7265625 C204.966152,8.5338482 206.640615,7.9375 208.671875,7.9375 C210.817719,7.9375 212.499994,8.50520266 213.71875,9.640625 C214.937506,10.7760473 215.546875,12.3541566 215.546875,14.375 C215.546875,15.3645883 215.226566,16.322912 214.585938,17.25 C213.945309,18.177088 213.072922,18.8697894 211.96875,19.328125 C213.218756,19.7239603 214.184892,20.3802037 214.867188,21.296875 C215.549483,22.2135463 215.890625,23.3333267 215.890625,24.65625 C215.890625,26.6979269 215.223965,28.3177023 213.890625,29.515625 C212.557285,30.7135477 210.822927,31.3125 208.6875,31.3125 C206.552073,31.3125 204.815111,30.7343808 203.476562,29.578125 C202.138014,28.4218692 201.46875,26.8958428 201.46875,25 L204.375,25 C204.375,26.1979227 204.765621,27.1562464 205.546875,27.875 C206.328129,28.5937536 207.374993,28.953125 208.6875,28.953125 C210.08334,28.953125 211.151038,28.5885453 211.890625,27.859375 C212.630212,27.1302047 213,26.0833402 213,24.71875 C213,23.3958267 212.593754,22.3802119 211.78125,21.671875 C210.968746,20.9635381 209.796883,20.5989584 208.265625,20.578125 L206.09375,20.578125 L206.09375,18.21875 Z M234.125,21.296875 C234.125,24.6823086 233.546881,27.1979084 232.390625,28.84375 C231.234369,30.4895916 229.427096,31.3125 226.96875,31.3125 C224.541655,31.3125 222.744798,30.5078205 221.578125,28.8984375 C220.411452,27.2890545 219.807292,24.8854327 219.765625,21.6875 L219.765625,17.828125 C219.765625,14.4843583 220.343744,12.0000081 221.5,10.375 C222.656256,8.74999187 224.468738,7.9375 226.9375,7.9375 C229.385429,7.9375 231.187494,8.72134633 232.34375,10.2890625 C233.500006,11.8567787 234.09375,14.2760253 234.125,17.546875 L234.125,21.296875 Z M231.234375,17.34375 C231.234375,14.8958211 230.890628,13.1119848 230.203125,11.9921875 C229.515622,10.8723902 228.427091,10.3125 226.9375,10.3125 C225.458326,10.3125 224.380212,10.8697861 223.703125,11.984375 C223.026038,13.0989639 222.677083,14.8124884 222.65625,17.125 L222.65625,21.75 C222.65625,24.2083456 223.013017,26.0234316 223.726562,27.1953125 C224.440108,28.3671934 225.520826,28.953125 226.96875,28.953125 C228.39584,28.953125 229.455726,28.4010472 230.148438,27.296875 C230.841149,26.1927028 231.203125,24.4531369 231.234375,22.078125 L231.234375,17.34375 Z M245.34375,22.40625 C245.34375,19.812487 245.958327,17.7265704 247.1875,16.1484375 C248.416673,14.5703046 250.026032,13.78125 252.015625,13.78125 C253.994802,13.78125 255.562494,14.4583266 256.71875,15.8125 L256.71875,7 L259.609375,7 L259.609375,31 L256.953125,31 L256.8125,29.1875 C255.656244,30.6041738 254.046885,31.3125 251.984375,31.3125 C250.026032,31.3125 248.429694,30.5104247 247.195312,28.90625 C245.960931,27.3020753 245.34375,25.2083462 245.34375,22.625 L245.34375,22.40625 Z M248.234375,22.734375 C248.234375,24.6510513 248.630204,26.1510363 249.421875,27.234375 C250.213546,28.3177137 251.307285,28.859375 252.703125,28.859375 C254.536468,28.859375 255.874996,28.0364666 256.71875,26.390625 L256.71875,18.625 C255.854162,17.031242 254.526051,16.234375 252.734375,16.234375 C251.317701,16.234375 250.213546,16.7812445 249.421875,17.875 C248.630204,18.9687555 248.234375,20.5885309 248.234375,22.734375 Z M274.53125,31 C274.364582,30.666665 274.229167,30.0729209 274.125,29.21875 C272.781243,30.6145903 271.177093,31.3125 269.3125,31.3125 C267.645825,31.3125 266.278651,30.8411505 265.210938,29.8984375 C264.143224,28.9557245 263.609375,27.7604239 263.609375,26.3125 C263.609375,24.5520745 264.278639,23.1849007 265.617188,22.2109375 C266.955736,21.2369743 268.83853,20.75 271.265625,20.75 L274.078125,20.75 L274.078125,19.421875 C274.078125,18.4114533 273.776045,17.6067738 273.171875,17.0078125 C272.567705,16.4088512 271.677089,16.109375 270.5,16.109375 C269.468745,16.109375 268.60417,16.3697891 267.90625,16.890625 C267.20833,17.4114609 266.859375,18.041663 266.859375,18.78125 L263.953125,18.78125 C263.953125,17.9374958 264.252601,17.1223998 264.851562,16.3359375 C265.450524,15.5494752 266.263016,14.9270856 267.289062,14.46875 C268.315109,14.0104144 269.442702,13.78125 270.671875,13.78125 C272.619801,13.78125 274.145828,14.2682243 275.25,15.2421875 C276.354172,16.2161507 276.927083,17.5572831 276.96875,19.265625 L276.96875,27.046875 C276.96875,28.5989661 277.166665,29.8333287 277.5625,30.75 L277.5625,31 L274.53125,31 Z M269.734375,28.796875 C270.64063,28.796875 271.499996,28.5625023 272.3125,28.09375 C273.125004,27.6249977 273.71354,27.0156287 274.078125,26.265625 L274.078125,22.796875 L271.8125,22.796875 C268.270816,22.796875 266.5,23.833323 266.5,25.90625 C266.5,26.8125045 266.80208,27.5208308 267.40625,28.03125 C268.01042,28.5416692 268.786454,28.796875 269.734375,28.796875 Z M286.796875,26.765625 L290.734375,14.09375 L293.828125,14.09375 L287.03125,33.609375 C285.979161,36.4218891 284.307303,37.828125 282.015625,37.828125 L281.46875,37.78125 L280.390625,37.578125 L280.390625,35.234375 L281.171875,35.296875 C282.151047,35.296875 282.91406,35.0989603 283.460938,34.703125 C284.007815,34.3072897 284.458332,33.5833386 284.8125,32.53125 L285.453125,30.8125 L279.421875,14.09375 L282.578125,14.09375 L286.796875,26.765625 Z" id="30-day"></path>
                    <path d="M406.09375,18.21875 L408.265625,18.21875 C409.630215,18.1979166 410.703121,17.8385452 411.484375,17.140625 C412.265629,16.4427048 412.65625,15.5000059 412.65625,14.3125 C412.65625,11.64582 411.328138,10.3125 408.671875,10.3125 C407.421869,10.3125 406.424483,10.6692673 405.679688,11.3828125 C404.934892,12.0963577 404.5625,13.0416608 404.5625,14.21875 L401.671875,14.21875 C401.671875,12.4166577 402.330723,10.9192768 403.648438,9.7265625 C404.966152,8.5338482 406.640615,7.9375 408.671875,7.9375 C410.817719,7.9375 412.499994,8.50520266 413.71875,9.640625 C414.937506,10.7760473 415.546875,12.3541566 415.546875,14.375 C415.546875,15.3645883 415.226566,16.322912 414.585938,17.25 C413.945309,18.177088 413.072922,18.8697894 411.96875,19.328125 C413.218756,19.7239603 414.184892,20.3802037 414.867188,21.296875 C415.549483,22.2135462 415.890625,23.3333267 415.890625,24.65625 C415.890625,26.6979269 415.223965,28.3177023 413.890625,29.515625 C412.557285,30.7135477 410.822927,31.3125 408.6875,31.3125 C406.552073,31.3125 404.815111,30.7343808 403.476562,29.578125 C402.138014,28.4218692 401.46875,26.8958428 401.46875,25 L404.375,25 C404.375,26.1979227 404.765621,27.1562464 405.546875,27.875 C406.328129,28.5937536 407.374993,28.953125 408.6875,28.953125 C410.08334,28.953125 411.151038,28.5885453 411.890625,27.859375 C412.630212,27.1302047 413,26.0833402 413,24.71875 C413,23.3958267 412.593754,22.3802119 411.78125,21.671875 C410.968746,20.9635381 409.796883,20.5989584 408.265625,20.578125 L406.09375,20.578125 L406.09375,18.21875 Z M426.171875,22.515625 L418.546875,22.515625 L418.546875,20.15625 L426.171875,20.15625 L426.171875,22.515625 Z M432.890625,18.21875 L435.0625,18.21875 C436.42709,18.1979166 437.499996,17.8385452 438.28125,17.140625 C439.062504,16.4427048 439.453125,15.5000059 439.453125,14.3125 C439.453125,11.64582 438.125013,10.3125 435.46875,10.3125 C434.218744,10.3125 433.221358,10.6692673 432.476562,11.3828125 C431.731767,12.0963577 431.359375,13.0416608 431.359375,14.21875 L428.46875,14.21875 C428.46875,12.4166577 429.127598,10.9192768 430.445312,9.7265625 C431.763027,8.5338482 433.43749,7.9375 435.46875,7.9375 C437.614594,7.9375 439.296869,8.50520266 440.515625,9.640625 C441.734381,10.7760473 442.34375,12.3541566 442.34375,14.375 C442.34375,15.3645883 442.023441,16.322912 441.382812,17.25 C440.742184,18.177088 439.869797,18.8697894 438.765625,19.328125 C440.015631,19.7239603 440.981767,20.3802037 441.664062,21.296875 C442.346358,22.2135462 442.6875,23.3333267 442.6875,24.65625 C442.6875,26.6979269 442.02084,28.3177023 440.6875,29.515625 C439.35416,30.7135477 437.619802,31.3125 435.484375,31.3125 C433.348948,31.3125 431.611986,30.7343808 430.273438,29.578125 C428.934889,28.4218692 428.265625,26.8958428 428.265625,25 L431.171875,25 C431.171875,26.1979227 431.562496,27.1562464 432.34375,27.875 C433.125004,28.5937536 434.171868,28.953125 435.484375,28.953125 C436.880215,28.953125 437.947913,28.5885453 438.6875,27.859375 C439.427087,27.1302047 439.796875,26.0833402 439.796875,24.71875 C439.796875,23.3958267 439.390629,22.3802119 438.578125,21.671875 C437.765621,20.9635381 436.593758,20.5989584 435.0625,20.578125 L432.890625,20.578125 L432.890625,18.21875 Z M447.015625,29.484375 C447.015625,28.9843725 447.164061,28.56771 447.460938,28.234375 C447.757814,27.90104 448.203122,27.734375 448.796875,27.734375 C449.390628,27.734375 449.841144,27.90104 450.148438,28.234375 C450.455731,28.56771 450.609375,28.9843725 450.609375,29.484375 C450.609375,29.9635441 450.455731,30.3645817 450.148438,30.6875 C449.841144,31.0104183 449.390628,31.171875 448.796875,31.171875 C448.203122,31.171875 447.757814,31.0104183 447.460938,30.6875 C447.164061,30.3645817 447.015625,29.9635441 447.015625,29.484375 Z M456.40625,19.59375 L457.5625,8.25 L469.21875,8.25 L469.21875,10.921875 L460.015625,10.921875 L459.328125,17.125 C460.442714,16.4687467 461.708326,16.140625 463.125,16.140625 C465.197927,16.140625 466.843744,16.825514 468.0625,18.1953125 C469.281256,19.565111 469.890625,21.416655 469.890625,23.75 C469.890625,26.0937617 469.257819,27.9400974 467.992188,29.2890625 C466.726556,30.6380276 464.958345,31.3125 462.6875,31.3125 C460.677073,31.3125 459.036465,30.7552139 457.765625,29.640625 C456.494785,28.5260361 455.770834,26.9843848 455.59375,25.015625 L458.328125,25.015625 C458.505209,26.3177148 458.968746,27.2994759 459.71875,27.9609375 C460.468754,28.6223991 461.458327,28.953125 462.6875,28.953125 C464.031257,28.953125 465.085934,28.4947963 465.851562,27.578125 C466.617191,26.6614537 467,25.3958414 467,23.78125 C467,22.2604091 466.585942,21.0390671 465.757812,20.1171875 C464.929683,19.1953079 463.828132,18.734375 462.453125,18.734375 C461.192702,18.734375 460.203129,19.0104139 459.484375,19.5625 L458.71875,20.1875 L456.40625,19.59375 Z M494.578125,20.484375 L484.71875,20.484375 L484.71875,28.546875 L496.171875,28.546875 L496.171875,31 L481.71875,31 L481.71875,8.25 L496.015625,8.25 L496.015625,10.71875 L484.71875,10.71875 L484.71875,18.03125 L494.578125,18.03125 L494.578125,20.484375 Z M515.9375,10.71875 L508.625,10.71875 L508.625,31 L505.640625,31 L505.640625,10.71875 L498.34375,10.71875 L498.34375,8.25 L515.9375,8.25 L515.9375,10.71875 Z M536.796875,31 L533.78125,31 L533.78125,20.484375 L522.3125,20.484375 L522.3125,31 L519.3125,31 L519.3125,8.25 L522.3125,8.25 L522.3125,18.03125 L533.78125,18.03125 L533.78125,8.25 L536.796875,8.25 L536.796875,31 Z" id="3-3.5-ETH"></path>
                </g>
                <g id="Group-Copy-3" transform="translate(60.000000, 186.000000)">
                    <path d="M8.256,101 L8.256,81.16 L0.48,81.16 L0.48,78.408 L19.168,78.408 L19.168,81.16 L11.392,81.16 L11.392,101 L8.256,101 Z M17.952,92.872 C17.952,87.976 21.856,84.424 26.656,84.424 C31.488,84.424 35.392,87.976 35.392,92.872 C35.392,97.8 31.488,101.384 26.688,101.384 C21.856,101.384 17.952,97.8 17.952,92.872 Z M21.12,92.872 C21.12,96.264 23.616,98.696 26.688,98.696 C29.728,98.696 32.256,96.264 32.256,92.872 C32.256,89.512 29.728,87.112 26.688,87.112 C23.616,87.112 21.12,89.512 21.12,92.872 Z M39.136,101 L42.24,101 L42.24,93.992 L44.576,93.992 L49.408,101 L53.088,101 L47.04,92.584 L47.04,92.52 L52.448,84.808 L48.928,84.808 L44.512,91.336 L42.24,91.336 L42.24,84.808 L39.136,84.808 L39.136,101 Z M54.112,92.904 C54.112,87.752 57.632,84.424 62.24,84.424 C66.816,84.424 69.248,87.848 69.248,92.008 C69.248,92.424 69.184,92.872 69.12,93.32 L57.344,93.32 C57.504,96.808 60,98.696 62.912,98.696 C64.64,98.696 66.4,97.96 67.68,96.808 L68.992,99.08 C67.424,100.52 64.96,101.384 62.72,101.384 C57.632,101.384 54.112,97.704 54.112,92.904 Z M57.44,91.08 L66.112,91.08 C66.016,88.296 64.288,86.824 62.176,86.824 C59.776,86.824 57.888,88.392 57.44,91.08 Z M72.992,101 L76.096,101 L76.096,94.056 L84.288,94.056 L84.288,101 L87.392,101 L87.392,84.808 L84.288,84.808 L84.288,91.4 L76.096,91.4 L76.096,84.808 L72.992,84.808 L72.992,101 Z M100.768,101 L100.768,78.408 L108.672,78.408 C112.512,78.408 115.232,80.52 115.232,84.168 C115.232,86.376 114.144,88.136 112.416,89.032 L112.416,89.096 C114.816,89.8 116.16,92.04 116.16,94.568 C116.16,98.824 112.832,101 108.864,101 L100.768,101 Z M103.936,87.912 L108.672,87.912 C110.72,87.912 112,86.472 112,84.488 C112,82.504 110.784,81.16 108.64,81.16 L103.936,81.16 L103.936,87.912 Z M103.936,98.248 L109.024,98.248 C111.456,98.248 112.896,96.712 112.896,94.376 C112.896,92.104 111.392,90.536 109.024,90.536 L103.936,90.536 L103.936,98.248 Z" id="Токен-B" fill="#181920"></path>
                    <path d="M201.824,101 L214.848,101 L214.848,98.248 L209.888,98.248 L209.888,78.408 L207.072,78.408 L201.664,83.656 L203.584,85.64 L205.696,83.592 C206.528,82.76 206.784,82.28 206.784,82.28 L206.848,82.28 C206.848,82.28 206.816,82.952 206.816,83.656 L206.816,98.248 L201.824,98.248 L201.824,101 Z M217.376,98.248 C219.072,100.296 221.664,101.384 224.32,101.384 C228.864,101.384 232.32,98.12 232.32,93.8 C232.32,89.704 229.216,86.408 224.448,86.408 C223.36,86.408 222.048,86.792 221.504,87.08 L221.44,87.08 C221.44,87.08 221.568,86.632 221.632,85.928 L222.144,81.16 L230.816,81.16 L230.816,78.408 L219.392,78.408 L218.272,89.608 L220.128,90.28 C221.184,89.576 222.624,89.16 223.936,89.16 C226.848,89.16 229.056,91.08 229.056,93.8 C229.056,96.552 226.784,98.376 224.128,98.376 C221.792,98.376 220.128,97.128 219.168,95.944 L217.376,98.248 Z M243.776,101.384 C237.76,101.384 235.776,96.2 235.776,89.672 C235.776,83.176 237.76,78.024 243.776,78.024 C249.824,78.024 251.776,83.176 251.776,89.672 C251.776,96.2 249.824,101.384 243.776,101.384 Z M243.776,98.472 C247.488,98.472 248.512,94.632 248.512,89.672 C248.512,84.776 247.488,80.936 243.776,80.936 C240.096,80.936 239.04,84.776 239.04,89.672 C239.04,94.632 240.096,98.472 243.776,98.472 Z M263.136,92.904 C263.136,87.752 266.176,84.424 270.464,84.424 C272.512,84.424 274.464,85.352 275.488,87.08 L275.552,87.08 C275.552,87.08 275.488,86.6 275.488,85.992 L275.488,78.408 L278.56,78.408 L278.56,101 L275.616,101 L275.616,99.368 C275.616,98.728 275.712,98.28 275.712,98.28 L275.648,98.28 C274.72,100.04 272.832,101.384 270.272,101.384 C265.92,101.384 263.136,97.928 263.136,92.904 Z M266.304,92.904 C266.304,96.424 268.192,98.696 270.88,98.696 C273.28,98.696 275.552,96.968 275.552,92.872 C275.552,89.96 274.048,87.144 270.944,87.144 C268.416,87.144 266.304,89.224 266.304,92.904 Z M282.016,96.584 C282.016,91.496 288.32,90.92 291.68,90.92 L292.512,90.92 L292.512,90.6 C292.512,87.944 290.976,87.048 288.96,87.048 C287.36,87.048 285.728,87.688 284.416,88.616 L283.168,86.344 C284.48,85.256 286.944,84.424 289.216,84.424 C293.28,84.424 295.616,86.664 295.616,90.76 L295.616,101 L292.704,101 L292.704,99.368 C292.704,98.632 292.8,98.088 292.8,98.088 L292.736,98.088 C291.808,99.944 289.824,101.384 287.424,101.384 C284.608,101.384 282.016,99.624 282.016,96.584 Z M285.12,96.328 C285.12,97.608 286.144,98.92 288.16,98.92 C290.88,98.92 292.512,96.168 292.512,93.768 L292.512,93.16 L291.712,93.16 C289.408,93.16 285.12,93.352 285.12,96.328 Z M299.104,104.36 L298.016,106.728 C298.016,106.728 299.328,107.72 301.12,107.72 C303.392,107.72 305.408,106.44 306.368,103.912 L313.984,84.808 L310.624,84.808 L306.688,95.432 C306.4,96.264 306.144,97.352 306.144,97.352 L306.08,97.352 C306.08,97.352 305.792,96.2 305.472,95.4 L301.408,84.808 L297.92,84.808 L304.704,100.808 L303.904,102.664 C303.296,104.136 302.24,105.064 300.96,105.064 C300,105.064 299.104,104.36 299.104,104.36 Z" id="150-day" fill="#181920"></path>
                    <path d="M401.088,94.952 L401.088,92.968 L411.552,78.408 L415.136,78.408 L415.136,92.296 L418.208,92.296 L418.208,94.952 L415.136,94.952 L415.136,101 L412.032,101 L412.032,94.952 L401.088,94.952 Z M404.576,92.296 L412.032,92.296 L412.032,84.04 C412.032,82.984 412.16,81.768 412.16,81.768 L412.096,81.768 C412.096,81.768 411.584,82.856 410.976,83.656 L404.576,92.232 L404.576,92.296 Z M421.76,93.256 L431.104,93.256 L431.104,90.504 L421.76,90.504 L421.76,93.256 Z M434.432,94.952 L434.432,92.968 L444.896,78.408 L448.48,78.408 L448.48,92.296 L451.552,92.296 L451.552,94.952 L448.48,94.952 L448.48,101 L445.376,101 L445.376,94.952 L434.432,94.952 Z M437.92,92.296 L445.376,92.296 L445.376,84.04 C445.376,82.984 445.504,81.768 445.504,81.768 L445.44,81.768 C445.44,81.768 444.928,82.856 444.32,83.656 L437.92,92.232 L437.92,92.296 Z M455.104,101 L458.432,101 L458.432,97.64 L455.104,97.64 L455.104,101 Z M462.24,98.248 C463.936,100.296 466.528,101.384 469.184,101.384 C473.728,101.384 477.184,98.12 477.184,93.8 C477.184,89.704 474.08,86.408 469.312,86.408 C468.224,86.408 466.912,86.792 466.368,87.08 L466.304,87.08 C466.304,87.08 466.432,86.632 466.496,85.928 L467.008,81.16 L475.68,81.16 L475.68,78.408 L464.256,78.408 L463.136,89.608 L464.992,90.28 C466.048,89.576 467.488,89.16 468.8,89.16 C471.712,89.16 473.92,91.08 473.92,93.8 C473.92,96.552 471.648,98.376 468.992,98.376 C466.656,98.376 464.992,97.128 464.032,95.944 L462.24,98.248 Z M489.664,101 L503.36,101 L503.36,98.248 L492.832,98.248 L492.832,90.984 L500.928,90.984 L500.928,88.232 L492.832,88.232 L492.832,81.16 L502.816,81.16 L502.816,78.408 L489.664,78.408 L489.664,101 Z M512.992,101 L516.128,101 L516.128,81.16 L523.904,81.16 L523.904,78.408 L505.216,78.408 L505.216,81.16 L512.992,81.16 L512.992,101 Z M527.392,101 L530.56,101 L530.56,91.08 L542.304,91.08 L542.304,101 L545.44,101 L545.44,78.408 L542.304,78.408 L542.304,88.328 L530.56,88.328 L530.56,78.408 L527.392,78.408 L527.392,101 Z" id="4-4.5-ЕTH" fill="#181920"></path>
                    <path d="M601.856,31 L616.928,31 L616.928,27.448 L606.208,27.448 C606.4,23.16 616.576,21.912 616.576,14.616 C616.576,10.328 613.152,7.896 609.184,7.896 C605.536,7.896 602.976,10.008 601.664,12.44 L604.736,14.488 C605.568,13.016 607.104,11.8 608.832,11.8 C610.752,11.8 612.288,12.984 612.288,14.968 C612.288,19.48 601.664,20.792 601.664,28.984 C601.664,29.624 601.728,30.264 601.856,31 Z M629.408,31 L629.408,8.28 L637.152,8.28 C644.16,8.28 648.736,12.44 648.736,19.608 C648.736,26.776 644.16,31 637.152,31 L629.408,31 Z M633.536,27.448 L636.928,27.448 C641.536,27.448 644.48,24.728 644.48,19.608 C644.48,14.552 641.472,11.832 636.928,11.832 L633.536,11.832 L633.536,27.448 Z M652.992,31 L657.12,31 L657.12,21.464 L667.52,21.464 L667.52,31 L671.616,31 L671.616,8.28 L667.52,8.28 L667.52,17.912 L657.12,17.912 L657.12,8.28 L652.992,8.28 L652.992,31 Z M682.272,31 L686.368,31 L686.368,11.832 L693.824,11.832 L693.824,8.28 L674.816,8.28 L674.816,11.832 L682.272,11.832 L682.272,31 Z" id="2-DHT" fill="#303498"></path>
                    <path d="M602.944,171 L606.24,171 L616.416,150.584 L616.416,148.408 L601.312,148.408 L601.312,151.16 L611.424,151.16 C612.576,151.16 613.024,151.096 613.024,151.096 L613.024,151.16 C613.024,151.16 612.416,151.928 611.744,153.24 L602.944,171 Z M628.16,171 L628.16,148.408 L635.68,148.408 C642.56,148.408 647.104,152.536 647.104,159.672 C647.104,166.84 642.56,171 635.68,171 L628.16,171 Z M631.328,168.248 L635.456,168.248 C640.512,168.248 643.84,165.272 643.84,159.672 C643.84,154.136 640.48,151.16 635.456,151.16 L631.328,151.16 L631.328,168.248 Z M651.744,171 L654.912,171 L654.912,161.08 L666.656,161.08 L666.656,171 L669.792,171 L669.792,148.408 L666.656,148.408 L666.656,158.328 L654.912,158.328 L654.912,148.408 L651.744,148.408 L651.744,171 Z M681.024,171 L684.16,171 L684.16,151.16 L691.936,151.16 L691.936,148.408 L673.248,148.408 L673.248,151.16 L681.024,151.16 L681.024,171 Z" id="7-DHT" fill="#181920"></path>
                    <path d="M601.824,101 L614.848,101 L614.848,98.248 L609.888,98.248 L609.888,78.408 L607.072,78.408 L601.664,83.656 L603.584,85.64 L605.696,83.592 C606.528,82.76 606.784,82.28 606.784,82.28 L606.848,82.28 C606.848,82.28 606.816,82.952 606.816,83.656 L606.816,98.248 L601.824,98.248 L601.824,101 Z M616.512,94.952 L616.512,92.968 L626.976,78.408 L630.56,78.408 L630.56,92.296 L633.632,92.296 L633.632,94.952 L630.56,94.952 L630.56,101 L627.456,101 L627.456,94.952 L616.512,94.952 Z M620,92.296 L627.456,92.296 L627.456,84.04 C627.456,82.984 627.584,81.768 627.584,81.768 L627.52,81.768 C627.52,81.768 627.008,82.856 626.4,83.656 L620,92.232 L620,92.296 Z M645.92,101 L645.92,78.408 L653.44,78.408 C660.32,78.408 664.864,82.536 664.864,89.672 C664.864,96.84 660.32,101 653.44,101 L645.92,101 Z M649.088,98.248 L653.216,98.248 C658.272,98.248 661.6,95.272 661.6,89.672 C661.6,84.136 658.24,81.16 653.216,81.16 L649.088,81.16 L649.088,98.248 Z M669.504,101 L672.672,101 L672.672,91.08 L684.416,91.08 L684.416,101 L687.552,101 L687.552,78.408 L684.416,78.408 L684.416,88.328 L672.672,88.328 L672.672,78.408 L669.504,78.408 L669.504,101 Z M698.784,101 L701.92,101 L701.92,81.16 L709.696,81.16 L709.696,78.408 L691.008,78.408 L691.008,81.16 L698.784,81.16 L698.784,101 Z" id="14-DHT" fill="#181920"></path>
                </g>
                <g id="Group-Copy" transform="translate(60.000000, 111.000000)" fill="#181920" opacity="0.5">
                    <g id="Group-3">
                        <path d="M2.046,22 L4.224,22 L4.224,15.18 L12.298,15.18 L12.298,22 L14.454,22 L14.454,6.468 L12.298,6.468 L12.298,13.288 L4.224,13.288 L4.224,6.468 L2.046,6.468 L2.046,22 Z M17.072,18.964 C17.072,15.466 21.406,15.07 23.716,15.07 L24.288,15.07 L24.288,14.85 C24.288,13.024 23.232,12.408 21.846,12.408 C20.746,12.408 19.624,12.848 18.722,13.486 L17.864,11.924 C18.766,11.176 20.46,10.604 22.022,10.604 C24.816,10.604 26.422,12.144 26.422,14.96 L26.422,22 L24.42,22 L24.42,20.878 C24.42,20.372 24.486,19.998 24.486,19.998 L24.442,19.998 C23.804,21.274 22.44,22.264 20.79,22.264 C18.854,22.264 17.072,21.054 17.072,18.964 Z M19.206,18.788 C19.206,19.668 19.91,20.57 21.296,20.57 C23.166,20.57 24.288,18.678 24.288,17.028 L24.288,16.61 L23.738,16.61 C22.154,16.61 19.206,16.742 19.206,18.788 Z M28.49,20.636 C29.414,21.516 30.866,22.264 32.582,22.264 C34.87,22.264 36.85,21.098 36.85,18.81 C36.85,17.38 35.97,16.544 34.848,16.192 L34.848,16.148 C35.728,15.774 36.476,15.004 36.476,13.618 C36.476,11.638 34.826,10.604 32.714,10.604 C30.954,10.604 29.7,11.176 28.842,11.814 L29.634,13.244 C30.492,12.606 31.372,12.276 32.34,12.276 C33.572,12.276 34.32,12.848 34.32,13.882 C34.32,15.004 33.462,15.488 32.208,15.488 L31.042,15.488 L31.042,17.028 L32.406,17.028 C33.968,17.028 34.694,17.644 34.694,18.722 C34.694,19.932 33.66,20.548 32.384,20.548 C31.042,20.548 29.986,19.756 29.48,19.228 L28.49,20.636 Z M39.424,22 L39.424,10.868 L44.022,10.868 C46.266,10.868 47.74,11.858 47.74,13.728 C47.74,14.806 47.168,15.73 46.156,16.17 L46.156,16.192 C47.542,16.522 48.268,17.6 48.268,18.832 C48.268,20.9 46.596,22 44.176,22 L39.424,22 Z M41.558,15.576 L43.648,15.576 C44.924,15.576 45.562,14.916 45.562,13.882 C45.562,12.87 44.924,12.342 43.582,12.342 L41.558,12.342 L41.558,15.576 Z M41.558,20.504 L43.846,20.504 C45.386,20.504 46.112,19.8 46.112,18.766 C46.112,17.666 45.298,17.006 43.824,17.006 L41.558,17.006 L41.558,20.504 Z M49.94,18.964 C49.94,15.466 54.274,15.07 56.584,15.07 L57.156,15.07 L57.156,14.85 C57.156,13.024 56.1,12.408 54.714,12.408 C53.614,12.408 52.492,12.848 51.59,13.486 L50.732,11.924 C51.634,11.176 53.328,10.604 54.89,10.604 C57.684,10.604 59.29,12.144 59.29,14.96 L59.29,22 L57.288,22 L57.288,20.878 C57.288,20.372 57.354,19.998 57.354,19.998 L57.31,19.998 C56.672,21.274 55.308,22.264 53.658,22.264 C51.722,22.264 49.94,21.054 49.94,18.964 Z M52.074,18.788 C52.074,19.668 52.778,20.57 54.164,20.57 C56.034,20.57 57.156,18.678 57.156,17.028 L57.156,16.61 L56.606,16.61 C55.022,16.61 52.074,16.742 52.074,18.788 Z M62.436,22 L64.57,22 L64.57,17.226 L70.202,17.226 L70.202,22 L72.336,22 L72.336,10.868 L70.202,10.868 L70.202,15.4 L64.57,15.4 L64.57,10.868 L62.436,10.868 L62.436,22 Z M75.636,22 L77.682,22 L82.5,15.356 C82.852,14.828 83.402,14.08 83.468,13.882 L83.512,13.882 C83.512,14.058 83.446,14.828 83.446,15.356 L83.446,22 L85.514,22 L85.514,10.868 L83.446,10.868 L78.65,17.512 C78.276,18.04 77.748,18.81 77.66,19.008 L77.616,19.008 C77.638,18.898 77.682,18.106 77.682,17.512 L77.682,10.868 L75.636,10.868 L75.636,22 Z M88.066,16.434 C88.066,12.892 90.486,10.604 93.654,10.604 C96.8,10.604 98.472,12.958 98.472,15.818 C98.472,16.104 98.428,16.412 98.384,16.72 L90.288,16.72 C90.398,19.118 92.114,20.416 94.116,20.416 C95.304,20.416 96.514,19.91 97.394,19.118 L98.296,20.68 C97.218,21.67 95.524,22.264 93.984,22.264 C90.486,22.264 88.066,19.734 88.066,16.434 Z M90.354,15.18 L96.316,15.18 C96.25,13.266 95.062,12.254 93.61,12.254 C91.96,12.254 90.662,13.332 90.354,15.18 Z M4.334,52 L6.446,52 L6.446,42.694 L10.34,42.694 L10.34,40.868 L0.462,40.868 L0.462,42.694 L4.334,42.694 L4.334,52 Z M11.33,46.412 C11.33,43.046 14.014,40.604 17.314,40.604 C20.636,40.604 23.32,43.046 23.32,46.412 C23.32,49.8 20.636,52.264 17.336,52.264 C14.014,52.264 11.33,49.8 11.33,46.412 Z M13.508,46.412 C13.508,48.744 15.224,50.416 17.336,50.416 C19.426,50.416 21.164,48.744 21.164,46.412 C21.164,44.102 19.426,42.452 17.336,42.452 C15.224,42.452 13.508,44.102 13.508,46.412 Z M25.894,52 L28.028,52 L28.028,47.182 L29.634,47.182 L32.956,52 L35.486,52 L31.328,46.214 L31.328,46.17 L35.046,40.868 L32.626,40.868 L29.59,45.356 L28.028,45.356 L28.028,40.868 L25.894,40.868 L25.894,52 Z M36.19,46.434 C36.19,42.892 38.61,40.604 41.778,40.604 C44.924,40.604 46.596,42.958 46.596,45.818 C46.596,46.104 46.552,46.412 46.508,46.72 L38.412,46.72 C38.522,49.118 40.238,50.416 42.24,50.416 C43.428,50.416 44.638,49.91 45.518,49.118 L46.42,50.68 C45.342,51.67 43.648,52.264 42.108,52.264 C38.61,52.264 36.19,49.734 36.19,46.434 Z M38.478,45.18 L44.44,45.18 C44.374,43.266 43.186,42.254 41.734,42.254 C40.084,42.254 38.786,43.332 38.478,45.18 Z M49.17,52 L51.304,52 L51.304,47.226 L56.936,47.226 L56.936,52 L59.07,52 L59.07,40.868 L56.936,40.868 L56.936,45.4 L51.304,45.4 L51.304,40.868 L49.17,40.868 L49.17,52 Z M61.446,48.964 C61.446,45.466 65.78,45.07 68.09,45.07 L68.662,45.07 L68.662,44.85 C68.662,43.024 67.606,42.408 66.22,42.408 C65.12,42.408 63.998,42.848 63.096,43.486 L62.238,41.924 C63.14,41.176 64.834,40.604 66.396,40.604 C69.19,40.604 70.796,42.144 70.796,44.96 L70.796,52 L68.794,52 L68.794,50.878 C68.794,50.372 68.86,49.998 68.86,49.998 L68.816,49.998 C68.178,51.274 66.814,52.264 65.164,52.264 C63.228,52.264 61.446,51.054 61.446,48.964 Z M63.58,48.788 C63.58,49.668 64.284,50.57 65.67,50.57 C67.54,50.57 68.662,48.678 68.662,47.028 L68.662,46.61 L68.112,46.61 C66.528,46.61 63.58,46.742 63.58,48.788 Z" id="Название-токена"></path>
                        <path d="M202.046,22 L202.046,6.468 L207.48,6.468 C210.12,6.468 211.99,7.92 211.99,10.428 C211.99,11.946 211.242,13.156 210.054,13.772 L210.054,13.816 C211.704,14.3 212.628,15.84 212.628,17.578 C212.628,20.504 210.34,22 207.612,22 L202.046,22 Z M204.224,13.002 L207.48,13.002 C208.888,13.002 209.768,12.012 209.768,10.648 C209.768,9.284 208.932,8.36 207.458,8.36 L204.224,8.36 L204.224,13.002 Z M204.224,20.108 L207.722,20.108 C209.394,20.108 210.384,19.052 210.384,17.446 C210.384,15.884 209.35,14.806 207.722,14.806 L204.224,14.806 L204.224,20.108 Z M215.268,26.4 L215.268,10.868 L217.248,10.868 L217.248,11.858 C217.248,12.32 217.182,12.694 217.182,12.694 L217.226,12.694 C217.93,11.352 219.338,10.604 220.966,10.604 C223.98,10.604 225.85,12.98 225.85,16.434 C225.85,19.976 223.738,22.264 220.812,22.264 C219.404,22.264 218.128,21.56 217.358,20.372 L217.314,20.372 C217.314,20.372 217.402,20.768 217.402,21.34 L217.402,26.4 L215.268,26.4 Z M217.336,16.478 C217.336,18.458 218.436,20.416 220.482,20.416 C222.242,20.416 223.694,18.986 223.694,16.456 C223.694,14.036 222.396,12.474 220.548,12.474 C218.876,12.474 217.336,13.662 217.336,16.478 Z M227.764,16.434 C227.764,12.892 230.184,10.604 233.352,10.604 C236.498,10.604 238.17,12.958 238.17,15.818 C238.17,16.104 238.126,16.412 238.082,16.72 L229.986,16.72 C230.096,19.118 231.812,20.416 233.814,20.416 C235.002,20.416 236.212,19.91 237.092,19.118 L237.994,20.68 C236.916,21.67 235.222,22.264 233.682,22.264 C230.184,22.264 227.764,19.734 227.764,16.434 Z M230.052,15.18 L236.014,15.18 C235.948,13.266 234.76,12.254 233.308,12.254 C231.658,12.254 230.36,13.332 230.052,15.18 Z M240.282,22 L242.35,22 L242.834,15.378 C242.878,14.718 242.812,13.464 242.812,13.464 L242.856,13.464 C242.856,13.464 243.208,14.3 243.56,15.114 L246.2,20.658 L248.026,20.658 L250.666,15.092 C251.084,14.234 251.37,13.464 251.37,13.464 L251.414,13.464 C251.414,13.464 251.37,14.718 251.392,15.378 L251.876,22 L253.944,22 L252.976,10.868 L250.644,10.868 L247.74,17.16 C247.454,17.842 247.124,18.656 247.124,18.656 L247.08,18.656 C247.08,18.656 246.772,17.82 246.464,17.16 L243.626,10.868 L241.25,10.868 L240.282,22 Z M255.682,22 L258.256,18.304 C258.498,17.908 258.762,17.622 258.762,17.622 L258.762,17.6 C257.486,17.248 256.342,16.06 256.342,14.366 C256.342,12.078 257.97,10.868 260.324,10.868 L264.768,10.868 L264.768,22 L262.634,22 L262.634,17.974 L260.764,17.974 L258.036,22 L255.682,22 Z M260.786,16.412 L262.634,16.412 L262.634,12.342 L260.852,12.342 C259.422,12.342 258.498,12.914 258.498,14.344 C258.498,15.73 259.488,16.412 260.786,16.412 Z M275.746,20.24 L280.674,20.24 L280.674,12.606 L277.33,12.606 L277.33,13.2 C277.33,14.872 277.154,18.04 275.746,20.24 Z M272.182,20.24 L273.546,20.24 C275.108,18.106 275.284,14.63 275.284,12.914 L275.284,10.868 L282.808,10.868 L282.808,20.24 L284.392,20.24 L284.392,24.64 L282.434,24.64 L282.434,22 L274.184,22 L274.184,24.64 L272.182,24.64 L272.182,20.24 Z M285.778,16.434 C285.778,12.892 288.198,10.604 291.366,10.604 C294.512,10.604 296.184,12.958 296.184,15.818 C296.184,16.104 296.14,16.412 296.096,16.72 L288,16.72 C288.11,19.118 289.826,20.416 291.828,20.416 C293.016,20.416 294.226,19.91 295.106,19.118 L296.008,20.68 C294.93,21.67 293.236,22.264 291.696,22.264 C288.198,22.264 285.778,19.734 285.778,16.434 Z M288.066,15.18 L294.028,15.18 C293.962,13.266 292.774,12.254 291.322,12.254 C289.672,12.254 288.374,13.332 288.066,15.18 Z M303.664,9.592 C305.38,9.592 306.92,8.58 306.92,6.776 L306.92,6.446 L305.226,6.446 L305.226,6.732 C305.226,7.722 304.434,8.206 303.664,8.206 C302.894,8.206 302.124,7.722 302.124,6.754 L302.124,6.446 L300.408,6.446 L300.408,6.776 C300.408,8.58 301.97,9.592 303.664,9.592 Z M298.758,22 L300.804,22 L305.622,15.356 C305.974,14.828 306.524,14.08 306.59,13.882 L306.634,13.882 C306.634,14.058 306.568,14.828 306.568,15.356 L306.568,22 L308.636,22 L308.636,10.868 L306.568,10.868 L301.772,17.512 C301.398,18.04 300.87,18.81 300.782,19.008 L300.738,19.008 C300.76,18.898 300.804,18.106 300.804,17.512 L300.804,10.868 L298.758,10.868 L298.758,22 Z M311.188,16.434 C311.188,19.778 313.63,22.264 317.15,22.264 C318.888,22.264 320.582,21.56 321.594,20.482 L320.736,18.92 C319.878,19.822 318.536,20.416 317.304,20.416 C314.994,20.416 313.366,18.678 313.366,16.412 C313.366,14.146 314.994,12.452 317.238,12.452 C318.404,12.452 319.57,12.98 320.318,13.728 L321.33,12.232 C320.274,11.11 318.624,10.604 317.15,10.604 C313.652,10.604 311.188,13.134 311.188,16.434 Z M326.588,22 L328.7,22 L328.7,12.694 L332.594,12.694 L332.594,10.868 L322.716,10.868 L322.716,12.694 L326.588,12.694 L326.588,22 Z M334.684,22 L334.684,10.868 L339.282,10.868 C341.526,10.868 343,11.858 343,13.728 C343,14.806 342.428,15.73 341.416,16.17 L341.416,16.192 C342.802,16.522 343.528,17.6 343.528,18.832 C343.528,20.9 341.856,22 339.436,22 L334.684,22 Z M336.818,15.576 L338.908,15.576 C340.184,15.576 340.822,14.916 340.822,13.882 C340.822,12.87 340.184,12.342 338.842,12.342 L336.818,12.342 L336.818,15.576 Z M336.818,20.504 L339.106,20.504 C340.646,20.504 341.372,19.8 341.372,18.766 C341.372,17.666 340.558,17.006 339.084,17.006 L336.818,17.006 L336.818,20.504 Z M346.124,22 L348.17,22 L352.988,15.356 C353.34,14.828 353.89,14.08 353.956,13.882 L354,13.882 C354,14.058 353.934,14.828 353.934,15.356 L353.934,22 L356.002,22 L356.002,10.868 L353.934,10.868 L349.138,17.512 C348.764,18.04 348.236,18.81 348.148,19.008 L348.104,19.008 C348.126,18.898 348.17,18.106 348.17,17.512 L348.17,10.868 L346.124,10.868 L346.124,22 Z M358.158,22 L360.732,18.304 C360.974,17.908 361.238,17.622 361.238,17.622 L361.238,17.6 C359.962,17.248 358.818,16.06 358.818,14.366 C358.818,12.078 360.446,10.868 362.8,10.868 L367.244,10.868 L367.244,22 L365.11,22 L365.11,17.974 L363.24,17.974 L360.512,22 L358.158,22 Z M363.262,16.412 L365.11,16.412 L365.11,12.342 L363.328,12.342 C361.898,12.342 360.974,12.914 360.974,14.344 C360.974,15.73 361.964,16.412 363.262,16.412 Z M200.924,46.434 C200.924,49.778 203.366,52.264 206.886,52.264 C208.624,52.264 210.318,51.56 211.33,50.482 L210.472,48.92 C209.614,49.822 208.272,50.416 207.04,50.416 C204.73,50.416 203.102,48.678 203.102,46.412 C203.102,44.146 204.73,42.452 206.974,42.452 C208.14,42.452 209.306,42.98 210.054,43.728 L211.066,42.232 C210.01,41.11 208.36,40.604 206.886,40.604 C203.388,40.604 200.924,43.134 200.924,46.434 Z M216.324,52 L218.436,52 L218.436,42.694 L222.33,42.694 L222.33,40.868 L212.452,40.868 L212.452,42.694 L216.324,42.694 L216.324,52 Z M224.42,56.4 L224.42,40.868 L226.4,40.868 L226.4,41.858 C226.4,42.32 226.334,42.694 226.334,42.694 L226.378,42.694 C227.082,41.352 228.49,40.604 230.118,40.604 C233.132,40.604 235.002,42.98 235.002,46.434 C235.002,49.976 232.89,52.264 229.964,52.264 C228.556,52.264 227.28,51.56 226.51,50.372 L226.466,50.372 C226.466,50.372 226.554,50.768 226.554,51.34 L226.554,56.4 L224.42,56.4 Z M226.488,46.478 C226.488,48.458 227.588,50.416 229.634,50.416 C231.394,50.416 232.846,48.986 232.846,46.456 C232.846,44.036 231.548,42.474 229.7,42.474 C228.028,42.474 226.488,43.662 226.488,46.478 Z M236.718,48.964 C236.718,45.466 241.052,45.07 243.362,45.07 L243.934,45.07 L243.934,44.85 C243.934,43.024 242.878,42.408 241.492,42.408 C240.392,42.408 239.27,42.848 238.368,43.486 L237.51,41.924 C238.412,41.176 240.106,40.604 241.668,40.604 C244.462,40.604 246.068,42.144 246.068,44.96 L246.068,52 L244.066,52 L244.066,50.878 C244.066,50.372 244.132,49.998 244.132,49.998 L244.088,49.998 C243.45,51.274 242.086,52.264 240.436,52.264 C238.5,52.264 236.718,51.054 236.718,48.964 Z M238.852,48.788 C238.852,49.668 239.556,50.57 240.942,50.57 C242.812,50.57 243.934,48.678 243.934,47.028 L243.934,46.61 L243.384,46.61 C241.8,46.61 238.852,46.742 238.852,48.788 Z M247.938,52 L250.358,52 L252.69,48.282 C252.866,48.018 253.02,47.688 253.02,47.688 L253.064,47.688 C253.064,47.688 253.24,48.018 253.416,48.282 L255.748,52 L258.168,52 L254.362,46.28 L257.948,40.868 L255.506,40.868 L253.438,44.256 C253.284,44.542 253.064,44.916 253.064,44.916 L253.02,44.916 C253.02,44.916 252.822,44.542 252.668,44.256 L250.6,40.868 L248.158,40.868 L251.744,46.28 L247.938,52 Z M259.092,46.412 C259.092,43.046 261.776,40.604 265.076,40.604 C268.398,40.604 271.082,43.046 271.082,46.412 C271.082,49.8 268.398,52.264 265.098,52.264 C261.776,52.264 259.092,49.8 259.092,46.412 Z M261.27,46.412 C261.27,48.744 262.986,50.416 265.098,50.416 C267.188,50.416 268.926,48.744 268.926,46.412 C268.926,44.102 267.188,42.452 265.098,42.452 C262.986,42.452 261.27,44.102 261.27,46.412 Z M273.656,52 L273.656,40.868 L278.254,40.868 C280.498,40.868 281.972,41.858 281.972,43.728 C281.972,44.806 281.4,45.73 280.388,46.17 L280.388,46.192 C281.774,46.522 282.5,47.6 282.5,48.832 C282.5,50.9 280.828,52 278.408,52 L273.656,52 Z M275.79,45.576 L277.88,45.576 C279.156,45.576 279.794,44.916 279.794,43.882 C279.794,42.87 279.156,42.342 277.814,42.342 L275.79,42.342 L275.79,45.576 Z M275.79,50.504 L278.078,50.504 C279.618,50.504 280.344,49.8 280.344,48.766 C280.344,47.666 279.53,47.006 278.056,47.006 L275.79,47.006 L275.79,50.504 Z M284.172,48.964 C284.172,45.466 288.506,45.07 290.816,45.07 L291.388,45.07 L291.388,44.85 C291.388,43.024 290.332,42.408 288.946,42.408 C287.846,42.408 286.724,42.848 285.822,43.486 L284.964,41.924 C285.866,41.176 287.56,40.604 289.122,40.604 C291.916,40.604 293.522,42.144 293.522,44.96 L293.522,52 L291.52,52 L291.52,50.878 C291.52,50.372 291.586,49.998 291.586,49.998 L291.542,49.998 C290.904,51.274 289.54,52.264 287.89,52.264 C285.954,52.264 284.172,51.054 284.172,48.964 Z M286.306,48.788 C286.306,49.668 287.01,50.57 288.396,50.57 C290.266,50.57 291.388,48.678 291.388,47.028 L291.388,46.61 L290.838,46.61 C289.254,46.61 286.306,46.742 286.306,48.788 Z M296.668,52 L298.802,52 L298.802,47.226 L304.434,47.226 L304.434,52 L306.568,52 L306.568,40.868 L304.434,40.868 L304.434,45.4 L298.802,45.4 L298.802,40.868 L296.668,40.868 L296.668,52 Z M309.868,52 L311.914,52 L316.732,45.356 C317.084,44.828 317.634,44.08 317.7,43.882 L317.744,43.882 C317.744,44.058 317.678,44.828 317.678,45.356 L317.678,52 L319.746,52 L319.746,40.868 L317.678,40.868 L312.882,47.512 C312.508,48.04 311.98,48.81 311.892,49.008 L311.848,49.008 C311.87,48.898 311.914,48.106 311.914,47.512 L311.914,40.868 L309.868,40.868 L309.868,52 Z M321.902,52 L324.476,48.304 C324.718,47.908 324.982,47.622 324.982,47.622 L324.982,47.6 C323.706,47.248 322.562,46.06 322.562,44.366 C322.562,42.078 324.19,40.868 326.544,40.868 L330.988,40.868 L330.988,52 L328.854,52 L328.854,47.974 L326.984,47.974 L324.256,52 L321.902,52 Z M327.006,46.412 L328.854,46.412 L328.854,42.342 L327.072,42.342 C325.642,42.342 324.718,42.914 324.718,44.344 C324.718,45.73 325.708,46.412 327.006,46.412 Z" id="Время-действия-страх"></path>
                        <path d="M403.982,20.108 L411.044,20.108 L411.044,8.36 L406.182,8.36 L406.182,9.79 C406.182,13.2 405.808,17.314 403.982,20.108 Z M400.132,20.108 L401.694,20.108 C403.85,17.072 404.136,13.046 404.136,9.658 L404.136,6.468 L413.222,6.468 L413.222,20.108 L414.938,20.108 L414.938,25.08 L412.98,25.08 L412.98,22 L402.156,22 L402.156,25.08 L400.132,25.08 L400.132,20.108 Z M417.314,22 L419.36,22 L424.178,15.356 C424.53,14.828 425.08,14.08 425.146,13.882 L425.19,13.882 C425.19,14.058 425.124,14.828 425.124,15.356 L425.124,22 L427.192,22 L427.192,10.868 L425.124,10.868 L420.328,17.512 C419.954,18.04 419.426,18.81 419.338,19.008 L419.294,19.008 C419.316,18.898 419.36,18.106 419.36,17.512 L419.36,10.868 L417.314,10.868 L417.314,22 Z M429.546,18.964 C429.546,15.466 433.88,15.07 436.19,15.07 L436.762,15.07 L436.762,14.85 C436.762,13.024 435.706,12.408 434.32,12.408 C433.22,12.408 432.098,12.848 431.196,13.486 L430.338,11.924 C431.24,11.176 432.934,10.604 434.496,10.604 C437.29,10.604 438.896,12.144 438.896,14.96 L438.896,22 L436.894,22 L436.894,20.878 C436.894,20.372 436.96,19.998 436.96,19.998 L436.916,19.998 C436.278,21.274 434.914,22.264 433.264,22.264 C431.328,22.264 429.546,21.054 429.546,18.964 Z M431.68,18.788 C431.68,19.668 432.384,20.57 433.77,20.57 C435.64,20.57 436.762,18.678 436.762,17.028 L436.762,16.61 L436.212,16.61 C434.628,16.61 431.68,16.742 431.68,18.788 Z M442.042,22 L444.176,22 L444.176,12.694 L449.632,12.694 L449.632,22 L451.766,22 L451.766,10.868 L442.042,10.868 L442.042,22 Z M454.142,18.964 C454.142,15.466 458.476,15.07 460.786,15.07 L461.358,15.07 L461.358,14.85 C461.358,13.024 460.302,12.408 458.916,12.408 C457.816,12.408 456.694,12.848 455.792,13.486 L454.934,11.924 C455.836,11.176 457.53,10.604 459.092,10.604 C461.886,10.604 463.492,12.144 463.492,14.96 L463.492,22 L461.49,22 L461.49,20.878 C461.49,20.372 461.556,19.998 461.556,19.998 L461.512,19.998 C460.874,21.274 459.51,22.264 457.86,22.264 C455.924,22.264 454.142,21.054 454.142,18.964 Z M456.276,18.788 C456.276,19.668 456.98,20.57 458.366,20.57 C460.236,20.57 461.358,18.678 461.358,17.028 L461.358,16.61 L460.808,16.61 C459.224,16.61 456.276,16.742 456.276,18.788 Z M465.56,20.636 C466.484,21.516 467.936,22.264 469.652,22.264 C471.94,22.264 473.92,21.098 473.92,18.81 C473.92,17.38 473.04,16.544 471.918,16.192 L471.918,16.148 C472.798,15.774 473.546,15.004 473.546,13.618 C473.546,11.638 471.896,10.604 469.784,10.604 C468.024,10.604 466.77,11.176 465.912,11.814 L466.704,13.244 C467.562,12.606 468.442,12.276 469.41,12.276 C470.642,12.276 471.39,12.848 471.39,13.882 C471.39,15.004 470.532,15.488 469.278,15.488 L468.112,15.488 L468.112,17.028 L469.476,17.028 C471.038,17.028 471.764,17.644 471.764,18.722 C471.764,19.932 470.73,20.548 469.454,20.548 C468.112,20.548 467.056,19.756 466.55,19.228 L465.56,20.636 Z M475.768,16.412 C475.768,13.046 478.452,10.604 481.752,10.604 C485.074,10.604 487.758,13.046 487.758,16.412 C487.758,19.8 485.074,22.264 481.774,22.264 C478.452,22.264 475.768,19.8 475.768,16.412 Z M477.946,16.412 C477.946,18.744 479.662,20.416 481.774,20.416 C483.864,20.416 485.602,18.744 485.602,16.412 C485.602,14.102 483.864,12.452 481.774,12.452 C479.662,12.452 477.946,14.102 477.946,16.412 Z M490.332,22 L492.466,22 L492.466,17.226 L498.098,17.226 L498.098,22 L500.232,22 L500.232,10.868 L498.098,10.868 L498.098,15.4 L492.466,15.4 L492.466,10.868 L490.332,10.868 L490.332,22 Z M401.65,52 L403.696,52 L408.514,45.356 C408.866,44.828 409.416,44.08 409.482,43.882 L409.526,43.882 C409.526,44.058 409.46,44.828 409.46,45.356 L409.46,52 L411.528,52 L411.528,40.868 L409.46,40.868 L404.664,47.512 C404.29,48.04 403.762,48.81 403.674,49.008 L403.63,49.008 C403.652,48.898 403.696,48.106 403.696,47.512 L403.696,40.868 L401.65,40.868 L401.65,52 Z M413.728,50.636 C414.652,51.516 416.104,52.264 417.82,52.264 C420.108,52.264 422.088,51.098 422.088,48.81 C422.088,47.38 421.208,46.544 420.086,46.192 L420.086,46.148 C420.966,45.774 421.714,45.004 421.714,43.618 C421.714,41.638 420.064,40.604 417.952,40.604 C416.192,40.604 414.938,41.176 414.08,41.814 L414.872,43.244 C415.73,42.606 416.61,42.276 417.578,42.276 C418.81,42.276 419.558,42.848 419.558,43.882 C419.558,45.004 418.7,45.488 417.446,45.488 L416.28,45.488 L416.28,47.028 L417.644,47.028 C419.206,47.028 419.932,47.644 419.932,48.722 C419.932,49.932 418.898,50.548 417.622,50.548 C416.28,50.548 415.224,49.756 414.718,49.228 L413.728,50.636 Z M424.2,52 L426.268,52 L426.752,45.378 C426.796,44.718 426.73,43.464 426.73,43.464 L426.774,43.464 C426.774,43.464 427.126,44.3 427.478,45.114 L430.118,50.658 L431.944,50.658 L434.584,45.092 C435.002,44.234 435.288,43.464 435.288,43.464 L435.332,43.464 C435.332,43.464 435.288,44.718 435.31,45.378 L435.794,52 L437.862,52 L436.894,40.868 L434.562,40.868 L431.658,47.16 C431.372,47.842 431.042,48.656 431.042,48.656 L430.998,48.656 C430.998,48.656 430.69,47.82 430.382,47.16 L427.544,40.868 L425.168,40.868 L424.2,52 Z M439.996,46.434 C439.996,42.892 442.416,40.604 445.584,40.604 C448.73,40.604 450.402,42.958 450.402,45.818 C450.402,46.104 450.358,46.412 450.314,46.72 L442.218,46.72 C442.328,49.118 444.044,50.416 446.046,50.416 C447.234,50.416 448.444,49.91 449.324,49.118 L450.226,50.68 C449.148,51.67 447.454,52.264 445.914,52.264 C442.416,52.264 439.996,49.734 439.996,46.434 Z M442.284,45.18 L448.246,45.18 C448.18,43.266 446.992,42.254 445.54,42.254 C443.89,42.254 442.592,43.332 442.284,45.18 Z M452.976,52 L455.11,52 L455.11,47.226 L460.742,47.226 L460.742,52 L462.876,52 L462.876,40.868 L460.742,40.868 L460.742,45.4 L455.11,45.4 L455.11,40.868 L452.976,40.868 L452.976,52 Z M465.45,46.434 C465.45,42.892 467.87,40.604 471.038,40.604 C474.184,40.604 475.856,42.958 475.856,45.818 C475.856,46.104 475.812,46.412 475.768,46.72 L467.672,46.72 C467.782,49.118 469.498,50.416 471.5,50.416 C472.688,50.416 473.898,49.91 474.778,49.118 L475.68,50.68 C474.602,51.67 472.908,52.264 471.368,52.264 C467.87,52.264 465.45,49.734 465.45,46.434 Z M467.738,45.18 L473.7,45.18 C473.634,43.266 472.446,42.254 470.994,42.254 C469.344,42.254 468.046,43.332 467.738,45.18 Z M478.43,52 L480.564,52 L480.564,47.226 L486.196,47.226 L486.196,52 L488.33,52 L488.33,40.868 L486.196,40.868 L486.196,45.4 L480.564,45.4 L480.564,40.868 L478.43,40.868 L478.43,52 Z M491.63,52 L493.676,52 L498.494,45.356 C498.846,44.828 499.396,44.08 499.462,43.882 L499.506,43.882 C499.506,44.058 499.44,44.828 499.44,45.356 L499.44,52 L501.508,52 L501.508,40.868 L499.44,40.868 L494.644,47.512 C494.27,48.04 493.742,48.81 493.654,49.008 L493.61,49.008 C493.632,48.898 493.676,48.106 493.676,47.512 L493.676,40.868 L491.63,40.868 L491.63,52 Z M503.664,52 L506.238,48.304 C506.48,47.908 506.744,47.622 506.744,47.622 L506.744,47.6 C505.468,47.248 504.324,46.06 504.324,44.366 C504.324,42.078 505.952,40.868 508.306,40.868 L512.75,40.868 L512.75,52 L510.616,52 L510.616,47.974 L508.746,47.974 L506.018,52 L503.664,52 Z M508.768,46.412 L510.616,46.412 L510.616,42.342 L508.834,42.342 C507.404,42.342 506.48,42.914 506.48,44.344 C506.48,45.73 507.47,46.412 508.768,46.412 Z M521.55,52 L530.746,52 L530.746,54.64 L532.704,54.64 L532.704,50.152 L531.142,50.152 L531.142,40.868 L528.986,40.868 L528.986,50.152 L523.684,50.152 L523.684,40.868 L521.55,40.868 L521.55,52 Z M534.112,46.434 C534.112,42.892 536.532,40.604 539.7,40.604 C542.846,40.604 544.518,42.958 544.518,45.818 C544.518,46.104 544.474,46.412 544.43,46.72 L536.334,46.72 C536.444,49.118 538.16,50.416 540.162,50.416 C541.35,50.416 542.56,49.91 543.44,49.118 L544.342,50.68 C543.264,51.67 541.57,52.264 540.03,52.264 C536.532,52.264 534.112,49.734 534.112,46.434 Z M536.4,45.18 L542.362,45.18 C542.296,43.266 541.108,42.254 539.656,42.254 C538.006,42.254 536.708,43.332 536.4,45.18 Z M547.092,52 L549.226,52 L549.226,47.226 L554.858,47.226 L554.858,52 L556.992,52 L556.992,40.868 L554.858,40.868 L554.858,45.4 L549.226,45.4 L549.226,40.868 L547.092,40.868 L547.092,52 Z" id="Диапазон-изменения-ц"></path>
                        <path d="M601.1,14.146 C601.1,18.7 604.246,22.264 609.064,22.264 C611.814,22.264 613.75,21.12 615.07,19.8 L613.904,18.238 C612.65,19.492 610.868,20.262 609.13,20.262 C605.522,20.262 603.344,17.424 603.344,14.124 C603.344,10.846 605.478,8.184 609.086,8.184 C610.692,8.184 612.43,8.866 613.574,9.878 L614.674,8.25 C613.178,6.82 611,6.204 608.998,6.204 C604.378,6.204 601.1,9.636 601.1,14.146 Z M619.646,22 L621.758,22 L621.758,12.694 L625.652,12.694 L625.652,10.868 L615.774,10.868 L615.774,12.694 L619.646,12.694 L619.646,22 Z M626.642,16.412 C626.642,13.046 629.326,10.604 632.626,10.604 C635.948,10.604 638.632,13.046 638.632,16.412 C638.632,19.8 635.948,22.264 632.648,22.264 C629.326,22.264 626.642,19.8 626.642,16.412 Z M628.82,16.412 C628.82,18.744 630.536,20.416 632.648,20.416 C634.738,20.416 636.476,18.744 636.476,16.412 C636.476,14.102 634.738,12.452 632.648,12.452 C630.536,12.452 628.82,14.102 628.82,16.412 Z M641.206,22 L643.252,22 L648.07,15.356 C648.422,14.828 648.972,14.08 649.038,13.882 L649.082,13.882 C649.082,14.058 649.016,14.828 649.016,15.356 L649.016,22 L651.084,22 L651.084,10.868 L649.016,10.868 L644.22,17.512 C643.846,18.04 643.318,18.81 643.23,19.008 L643.186,19.008 C643.208,18.898 643.252,18.106 643.252,17.512 L643.252,10.868 L641.206,10.868 L641.206,22 Z M653.9,22 L655.968,22 L656.452,15.378 C656.496,14.718 656.43,13.464 656.43,13.464 L656.474,13.464 C656.474,13.464 656.826,14.3 657.178,15.114 L659.818,20.658 L661.644,20.658 L664.284,15.092 C664.702,14.234 664.988,13.464 664.988,13.464 L665.032,13.464 C665.032,13.464 664.988,14.718 665.01,15.378 L665.494,22 L667.562,22 L666.594,10.868 L664.262,10.868 L661.358,17.16 C661.072,17.842 660.742,18.656 660.742,18.656 L660.698,18.656 C660.698,18.656 660.39,17.82 660.082,17.16 L657.244,10.868 L654.868,10.868 L653.9,22 Z M669.696,16.412 C669.696,13.046 672.38,10.604 675.68,10.604 C679.002,10.604 681.686,13.046 681.686,16.412 C681.686,19.8 679.002,22.264 675.702,22.264 C672.38,22.264 669.696,19.8 669.696,16.412 Z M671.874,16.412 C671.874,18.744 673.59,20.416 675.702,20.416 C677.792,20.416 679.53,18.744 679.53,16.412 C679.53,14.102 677.792,12.452 675.702,12.452 C673.59,12.452 671.874,14.102 671.874,16.412 Z M683.534,16.434 C683.534,19.778 685.976,22.264 689.496,22.264 C691.234,22.264 692.928,21.56 693.94,20.482 L693.082,18.92 C692.224,19.822 690.882,20.416 689.65,20.416 C687.34,20.416 685.712,18.678 685.712,16.412 C685.712,14.146 687.34,12.452 689.584,12.452 C690.75,12.452 691.916,12.98 692.664,13.728 L693.676,12.232 C692.62,11.11 690.97,10.604 689.496,10.604 C685.998,10.604 683.534,13.134 683.534,16.434 Z M698.934,22 L701.046,22 L701.046,12.694 L704.94,12.694 L704.94,10.868 L695.062,10.868 L695.062,12.694 L698.934,12.694 L698.934,22 Z M707.03,22 L707.03,10.868 L709.164,10.868 L709.164,14.894 L711.408,14.894 C713.718,14.894 715.456,15.95 715.456,18.48 C715.456,20.57 714.18,22 711.364,22 L707.03,22 Z M709.164,20.46 L711.078,20.46 C712.618,20.46 713.278,19.624 713.278,18.458 C713.278,17.27 712.618,16.434 711.078,16.434 L709.164,16.434 L709.164,20.46 Z M600.924,46.434 C600.924,49.778 603.366,52.264 606.886,52.264 C608.624,52.264 610.318,51.56 611.33,50.482 L610.472,48.92 C609.614,49.822 608.272,50.416 607.04,50.416 C604.73,50.416 603.102,48.678 603.102,46.412 C603.102,44.146 604.73,42.452 606.974,42.452 C608.14,42.452 609.306,42.98 610.054,43.728 L611.066,42.232 C610.01,41.11 608.36,40.604 606.886,40.604 C603.388,40.604 600.924,43.134 600.924,46.434 Z M616.324,52 L618.436,52 L618.436,42.694 L622.33,42.694 L622.33,40.868 L612.452,40.868 L612.452,42.694 L616.324,42.694 L616.324,52 Z M624.42,56.4 L624.42,40.868 L626.4,40.868 L626.4,41.858 C626.4,42.32 626.334,42.694 626.334,42.694 L626.378,42.694 C627.082,41.352 628.49,40.604 630.118,40.604 C633.132,40.604 635.002,42.98 635.002,46.434 C635.002,49.976 632.89,52.264 629.964,52.264 C628.556,52.264 627.28,51.56 626.51,50.372 L626.466,50.372 C626.466,50.372 626.554,50.768 626.554,51.34 L626.554,56.4 L624.42,56.4 Z M626.488,46.478 C626.488,48.458 627.588,50.416 629.634,50.416 C631.394,50.416 632.846,48.986 632.846,46.456 C632.846,44.036 631.548,42.474 629.7,42.474 C628.028,42.474 626.488,43.662 626.488,46.478 Z M636.718,48.964 C636.718,45.466 641.052,45.07 643.362,45.07 L643.934,45.07 L643.934,44.85 C643.934,43.024 642.878,42.408 641.492,42.408 C640.392,42.408 639.27,42.848 638.368,43.486 L637.51,41.924 C638.412,41.176 640.106,40.604 641.668,40.604 C644.462,40.604 646.068,42.144 646.068,44.96 L646.068,52 L644.066,52 L644.066,50.878 C644.066,50.372 644.132,49.998 644.132,49.998 L644.088,49.998 C643.45,51.274 642.086,52.264 640.436,52.264 C638.5,52.264 636.718,51.054 636.718,48.964 Z M638.852,48.788 C638.852,49.668 639.556,50.57 640.942,50.57 C642.812,50.57 643.934,48.678 643.934,47.028 L643.934,46.61 L643.384,46.61 C641.8,46.61 638.852,46.742 638.852,48.788 Z M647.938,52 L650.358,52 L652.69,48.282 C652.866,48.018 653.02,47.688 653.02,47.688 L653.064,47.688 C653.064,47.688 653.24,48.018 653.416,48.282 L655.748,52 L658.168,52 L654.362,46.28 L657.948,40.868 L655.506,40.868 L653.438,44.256 C653.284,44.542 653.064,44.916 653.064,44.916 L653.02,44.916 C653.02,44.916 652.822,44.542 652.668,44.256 L650.6,40.868 L648.158,40.868 L651.744,46.28 L647.938,52 Z M659.092,46.412 C659.092,43.046 661.776,40.604 665.076,40.604 C668.398,40.604 671.082,43.046 671.082,46.412 C671.082,49.8 668.398,52.264 665.098,52.264 C661.776,52.264 659.092,49.8 659.092,46.412 Z M661.27,46.412 C661.27,48.744 662.986,50.416 665.098,50.416 C667.188,50.416 668.926,48.744 668.926,46.412 C668.926,44.102 667.188,42.452 665.098,42.452 C662.986,42.452 661.27,44.102 661.27,46.412 Z M673.656,52 L673.656,40.868 L678.254,40.868 C680.498,40.868 681.972,41.858 681.972,43.728 C681.972,44.806 681.4,45.73 680.388,46.17 L680.388,46.192 C681.774,46.522 682.5,47.6 682.5,48.832 C682.5,50.9 680.828,52 678.408,52 L673.656,52 Z M675.79,45.576 L677.88,45.576 C679.156,45.576 679.794,44.916 679.794,43.882 C679.794,42.87 679.156,42.342 677.814,42.342 L675.79,42.342 L675.79,45.576 Z M675.79,50.504 L678.078,50.504 C679.618,50.504 680.344,49.8 680.344,48.766 C680.344,47.666 679.53,47.006 678.056,47.006 L675.79,47.006 L675.79,50.504 Z M684.172,48.964 C684.172,45.466 688.506,45.07 690.816,45.07 L691.388,45.07 L691.388,44.85 C691.388,43.024 690.332,42.408 688.946,42.408 C687.846,42.408 686.724,42.848 685.822,43.486 L684.964,41.924 C685.866,41.176 687.56,40.604 689.122,40.604 C691.916,40.604 693.522,42.144 693.522,44.96 L693.522,52 L691.52,52 L691.52,50.878 C691.52,50.372 691.586,49.998 691.586,49.998 L691.542,49.998 C690.904,51.274 689.54,52.264 687.89,52.264 C685.954,52.264 684.172,51.054 684.172,48.964 Z M686.306,48.788 C686.306,49.668 687.01,50.57 688.396,50.57 C690.266,50.57 691.388,48.678 691.388,47.028 L691.388,46.61 L690.838,46.61 C689.254,46.61 686.306,46.742 686.306,48.788 Z M696.668,52 L698.802,52 L698.802,47.226 L704.434,47.226 L704.434,52 L706.568,52 L706.568,40.868 L704.434,40.868 L704.434,45.4 L698.802,45.4 L698.802,40.868 L696.668,40.868 L696.668,52 Z M709.868,52 L711.914,52 L716.732,45.356 C717.084,44.828 717.634,44.08 717.7,43.882 L717.744,43.882 C717.744,44.058 717.678,44.828 717.678,45.356 L717.678,52 L719.746,52 L719.746,40.868 L717.678,40.868 L712.882,47.512 C712.508,48.04 711.98,48.81 711.892,49.008 L711.848,49.008 C711.87,48.898 711.914,48.106 711.914,47.512 L711.914,40.868 L709.868,40.868 L709.868,52 Z M721.902,52 L724.476,48.304 C724.718,47.908 724.982,47.622 724.982,47.622 L724.982,47.6 C723.706,47.248 722.562,46.06 722.562,44.366 C722.562,42.078 724.19,40.868 726.544,40.868 L730.988,40.868 L730.988,52 L728.854,52 L728.854,47.974 L726.984,47.974 L724.256,52 L721.902,52 Z M727.006,46.412 L728.854,46.412 L728.854,42.342 L727.072,42.342 C725.642,42.342 724.718,42.914 724.718,44.344 C724.718,45.73 725.708,46.412 727.006,46.412 Z" id="Стоимость-страховани"></path>
                    </g>
                </g>
                <path d="M460,440 L460,534" id="Line" stroke="#F6F6F9" stroke-width="8" stroke-linecap="square"></path>
                <path d="M380,542 L540,542" id="Line" stroke="#F6F6F9" stroke-width="8" stroke-linecap="round" stroke-linejoin="round"></path>
            </g>
            <g id="Group-6" transform="translate(180.000000, 29.000000)" stroke="#303498" stroke-width="2" stroke-linecap="round" stroke-linejoin="round">
                <polyline id="Line-2" transform="translate(531.000000, 261.000000) rotate(-180.000000) translate(-531.000000, -261.000000) " points="521 266 531.078526 256 541 266"></polyline>
                <path d="M0,0 L320,0 C463.77076,0 534.104094,88 531,264" id="Path-4"></path>
            </g>
        </g>
    </g>
</svg>