<?xml version="1.0" encoding="UTF-8"?>
<svg width="30px" height="30px" viewBox="0 0 30 30" version="1.1" xmlns="http://www.w3.org/2000/svg" xmlns:xlink="http://www.w3.org/1999/xlink">
    <!-- Generator: Sketch 46.1 (44463) - http://www.bohemiancoding.com/sketch -->
    <title>spain-flag</title>
    <desc>Created with Sketch.</desc>
    <defs></defs>
    <g id="Page-1" stroke="none" stroke-width="1" fill="none" fill-rule="evenodd">
        <g id="spain-flag" fill-rule="nonzero">
            <g id="rus-flag" transform="translate(3.000000, 6.000000)">
                <path d="M2,0 L22,0 L22,0 C23.1045695,-1.69088438e-16 24,0.746192083 24,1.66666667 L24,5 L0,5 L0,1.66666667 L0,1.66666667 C-1.3527075e-16,0.746192083 0.8954305,1.69088438e-16 2,0 Z" id="Rectangle-4" fill="#FF674C"></path>
                <rect id="Rectangle-4-Copy" fill="#FFC84C" x="0" y="5" width="24" height="8"></rect>
                <path d="M0,13 L24,13 L24,16.3333333 C24,17.2538079 23.1045695,18 22,18 L2,18 C0.8954305,18 1.3527075e-16,17.2538079 0,16.3333333 L0,13 Z" id="Rectangle-4-Copy-2" fill="#FF674C"></path>
            </g>
        </g>
    </g>
</svg>