<?xml version="1.0" encoding="UTF-8"?>
<svg width="30px" height="30px" viewBox="0 0 30 30" version="1.1" xmlns="http://www.w3.org/2000/svg" xmlns:xlink="http://www.w3.org/1999/xlink">
    <!-- Generator: Sketch 46.1 (44463) - http://www.bohemiancoding.com/sketch -->
    <title>stats-blue</title>
    <desc>Created with Sketch.</desc>
    <defs></defs>
    <g id="Page-1" stroke="none" stroke-width="1" fill="none" fill-rule="evenodd">
        <g id="stats-blue">
            <g id="Investment" transform="translate(4.000000, 4.000000)">
                <path d="M21,23 L19,23 L19,23 C18.4477153,23 18,22.5522847 18,22 L18,8 C18,7.448 18.448,7 19,7 L21,7 C21.552,7 22,7.448 22,8 L22,22 L22,22 C22,22.5522847 21.5522847,23 21,23 Z" id="Shape" fill="#303498" fill-rule="nonzero"></path>
                <path d="M15,23 L13,23 L13,23 C12.4477153,23 12,22.5522847 12,22 L12,11 C12,10.448 12.448,10 13,10 L15,10 C15.552,10 16,10.448 16,11 L16,22 L16,22 C16,22.5522847 15.5522847,23 15,23 Z" id="Shape" fill="#303498" fill-rule="nonzero"></path>
                <path d="M9,23 L7,23 L7,23 C6.44771525,23 6,22.5522847 6,22 L6,14 C6,13.448 6.448,13 7,13 L9,13 C9.552,13 10,13.448 10,14 L10,22 L10,22 C10,22.5522847 9.55228475,23 9,23 Z" id="Shape" fill="#303498" fill-rule="nonzero"></path>
                <path d="M3,23 L1,23 L1,23 C0.44771525,23 6.76353751e-17,22.5522847 0,22 L0,17 C0,16.448 0.448,16 1,16 L3,16 C3.552,16 4,16.448 4,17 L4,22 L4,22 C4,22.5522847 3.55228475,23 3,23 Z" id="Shape" fill="#303498" fill-rule="nonzero"></path>
                <path d="M1,9 L14.99,1.745" id="Shape" stroke="#303498" stroke-width="2" stroke-linecap="round" stroke-linejoin="round"></path>
                <polygon id="Shape" fill="#303498" fill-rule="nonzero" points="11 0 14 6 17 0.493"></polygon>
            </g>
        </g>
    </g>
</svg>