<?xml version="1.0" encoding="UTF-8"?>
<svg width="30px" height="30px" viewBox="0 0 30 30" version="1.1" xmlns="http://www.w3.org/2000/svg" xmlns:xlink="http://www.w3.org/1999/xlink">
    <!-- Generator: Sketch 46.1 (44463) - http://www.bohemiancoding.com/sketch -->
    <title>telegram-black</title>
    <desc>Created with Sketch.</desc>
    <defs></defs>
    <g id="Page-1" stroke="none" stroke-width="1" fill="none" fill-rule="evenodd">
        <g id="telegram-black" fill="#181920">
            <path d="M23.7473913,10.4807384 C23.7569565,10.6757624 23.7605435,10.8731942 23.7605435,11.0682183 C23.7605435,17.0754414 19.2206522,24 10.9192391,24 C8.36891304,24 5.99793478,23.2475923 4,21.9570626 C4.35391304,21.9991974 4.7126087,22.0208668 5.07608696,22.0208668 C7.1923913,22.0208668 9.13771739,21.29374 10.6813043,20.0766453 C8.70728261,20.0393258 7.03934783,18.7271268 6.46543478,16.9213483 C6.74043478,16.973114 7.02380435,17.0008026 7.31434783,17.0008026 C7.72684783,17.0008026 8.12619565,16.9466292 8.50402174,16.8430979 C6.43913043,16.4241573 4.88358696,14.5882825 4.88358696,12.3852327 L4.88358696,12.3286517 C5.49217391,12.6693419 6.18923913,12.8739968 6.92815217,12.8980738 C5.71695652,12.081862 4.91945652,10.6926164 4.91945652,9.11436597 C4.91945652,8.28250401 5.14184783,7.50120385 5.53163043,6.82945425 C7.75673913,9.58025682 11.0842391,11.388443 14.835,11.5786517 C14.7584783,11.2451846 14.7190217,10.899679 14.7190217,10.5421348 C14.7190217,8.03330658 16.7384783,6 19.231413,6 C20.5298913,6 21.7028261,6.55016051 22.5266304,7.43378812 C23.5536957,7.22913323 24.5197826,6.8511236 25.3926087,6.33105939 C25.0554348,7.39165329 24.3392391,8.28250401 23.4078261,8.84470305 C24.3213043,8.73394864 25.1893478,8.49197432 26,8.12961477 C25.395,9.04213483 24.6297826,9.84149278 23.7473913,10.4807384 Z" id="Shape"></path>
        </g>
    </g>
</svg>