<?xml version="1.0" encoding="UTF-8"?>
<svg width="30px" height="30px" viewBox="0 0 30 30" version="1.1" xmlns="http://www.w3.org/2000/svg" xmlns:xlink="http://www.w3.org/1999/xlink">
    <!-- Generator: Sketch 46.1 (44463) - http://www.bohemiancoding.com/sketch -->
    <title>twitter-black</title>
    <desc>Created with Sketch.</desc>
    <defs></defs>
    <g id="Page-1" stroke="none" stroke-width="1" fill="none" fill-rule="evenodd">
        <g id="twitter-black" fill="#181920">
            <path d="M25.9122649,5.86065125 L22.7281452,24.2602619 C22.6725994,24.5812366 22.3673692,24.7964092 22.0463945,24.7408634 C21.9443029,24.723196 21.8486664,24.6789476 21.769111,24.6125716 L16.4526782,20.1768759 C16.2299223,19.9910224 15.9050876,19.9947535 15.6866594,20.1856745 L12.6088412,22.8758942 L12.6088412,22.8758942 C12.3635794,23.0902695 11.99097,23.065231 11.7765947,22.8199692 C11.7243569,22.7602051 11.6847196,22.6905118 11.6600574,22.6150644 L9.66284007,16.5051071 L9.66284007,16.5051071 C9.60899737,16.3403896 9.48544085,16.2076851 9.32498191,16.1422342 L5.02757183,14.3893292 L5.02757183,14.3893292 C4.72595318,14.2662995 4.58117819,13.9220541 4.70420783,13.6204354 C4.76447964,13.4726735 4.88205367,13.3556402 5.0300919,13.2960503 L25.1108439,5.21292657 L25.1108439,5.21292657 C25.4130266,5.09128872 25.7566009,5.23764917 25.8782388,5.5398318 C25.9191759,5.64153119 25.9309588,5.75262739 25.9122649,5.86065125 L25.9122649,5.86065125 Z M12.2321186,18.6512619 L12.4596915,17.258864 L12.4596915,17.258864 C12.5032573,16.9923081 12.6369761,16.7487751 12.8385065,16.5689542 L17.2455404,12.6366597 C17.4496791,12.4545115 17.4675058,12.1413642 17.2853577,11.9372256 C17.1230363,11.7553074 16.8524777,11.718547 16.6475027,11.850561 L11.4648714,15.188432 L11.4648714,15.188432 C11.0416483,15.4610086 10.8380354,15.9721256 10.9579001,16.4610512 L11.5018731,18.679906 L11.5018731,18.679906 C11.5509143,18.8799444 11.7528333,19.0023517 11.9528716,18.9533104 C12.0980871,18.9177095 12.2080018,18.7988199 12.2321186,18.6512619 Z" id="Combined-Shape"></path>
        </g>
    </g>
</svg>